{
  "accessors": [
    {
      "bufferView": 2,
      "componentType": 5126,
      "count": 1749,
      "max": [
        10.504995346069336,
        52.54250717163086,
        45.00924301147461
      ],
      "min": [
        -33.931819915771484,
        -9.546283721923828,
        0.030177000910043716
      ],
      "type": "VEC3"
    },
    {
      "bufferView": 2,
      "byteOffset": 20988,
      "componentType": 5126,
      "count": 1749,
      "max": [
        1.0,
        1.0,
        1.0
      ],
      "min": [
        -1.0,
        -1.0,
        -1.0
      ],
      "type": "VEC3"
    },
    {
      "bufferView": 1,
      "componentType": 5126,
      "count": 1749,
      "max": [
        1.0,
        1.0
      ],
      "min": [
        -0.08333300054073334,
        0.0
      ],
      "type": "VEC2"
    },
    {
      "bufferView": 0,
      "componentType": 5125,
      "count": 9198,
      "type": "SCALAR"
    },
    {
      "bufferView": 2,
      "byteOffset": 41976,
      "componentType": 5126,
      "count": 4009,
      "max": [
        5.963869094848633,
        48.81269073486328,
        28.37813377380371
      ],
      "min": [
        -35.613258361816406,
        -5.917235851287842,
        3.22694993019104
      ],
      "type": "VEC3"
    },
    {
      "bufferView": 2,
      "byteOffset": 90084,
      "componentType": 5126,
      "count": 4009,
      "max": [
        1.0,
        1.0,
        1.0
      ],
      "min": [
        -1.0,
        -1.0,
        -1.0
      ],
      "type": "VEC3"
    },
    {
      "bufferView": 1,
      "byteOffset": 13992,
      "componentType": 5126,
      "count": 4009,
      "max": [
        1.0,
        1.0
      ],
      "min": [
        -0.08333300054073334,
        0.0
      ],
      "type": "VEC2"
    },
    {
      "bufferView": 0,
      "byteOffset": 36792,
      "componentType": 5125,
      "count": 19884,
      "type": "SCALAR"
    },
    {
      "bufferView": 2,
      "byteOffset": 138192,
      "componentType": 5126,
      "count": 751,
      "max": [
        11.019342422485352,
        50.340885162353516,
        43.55190658569336
      ],
      "min": [
        -11.821342468261719,
        -10.00607681274414,
        8.029328346252441
      ],
      "type": "VEC3"
    },
    {
      "bufferView": 2,
      "byteOffset": 147204,
      "componentType": 5126,
      "count": 751,
      "max": [
        1.0,
        1.0,
        1.0
      ],
      "min": [
        -1.0,
        -1.0,
        -1.0
      ],
      "type": "VEC3"
    },
    {
      "bufferView": 1,
      "byteOffset": 46064,
      "componentType": 5126,
      "count": 751,
      "max": [
        1.0,
        1.0
      ],
      "min": [
        -0.05000000074505806,
        0.0
      ],
      "type": "VEC2"
    },
    {
      "bufferView": 0,
      "byteOffset": 116328,
      "componentType": 5125,
      "count": 3960,
      "type": "SCALAR"
    },
    {
      "bufferView": 2,
      "byteOffset": 156216,
      "componentType": 5126,
      "count": 390,
      "max": [
        3.2978529930114746,
        31.269058227539063,
        26.67985725402832
      ],
      "min": [
        -4.156613826751709,
        4.097485065460205,
        11.672764778137207
      ],
      "type": "VEC3"
    },
    {
      "bufferView": 2,
      "byteOffset": 160896,
      "componentType": 5126,
      "count": 390,
      "max": [
        1.0,
        1.0,
        1.0
      ],
      "min": [
        -1.0,
        -0.9999998807907104,
        -1.0
      ],
      "type": "VEC3"
    },
    {
      "bufferView": 1,
      "byteOffset": 52072,
      "componentType": 5126,
      "count": 390,
      "max": [
        1.0,
        1.0
      ],
      "min": [
        -0.08333300054073334,
        0.0
      ],
      "type": "VEC2"
    },
    {
      "bufferView": 0,
      "byteOffset": 132168,
      "componentType": 5125,
      "count": 1932,
      "type": "SCALAR"
    },
    {
      "bufferView": 2,
      "byteOffset": 165576,
      "componentType": 5126,
      "count": 37,
      "max": [
        2.2281529903411865,
        4.221520900726318,
        25.951919555664063
      ],
      "min": [
        -3.141855001449585,
        3.334242105484009,
        20.5819091796875
      ],
      "type": "VEC3"
    },
    {
      "bufferView": 2,
      "byteOffset": 166020,
      "componentType": 5126,
      "count": 37,
      "max": [
        0.4639323353767395,
        -0.8297156095504761,
        0.5455227494239807
      ],
      "min": [
        -0.4639331102371216,
        -1.0,
        -0.5455220341682434
      ],
      "type": "VEC3"
    },
    {
      "bufferView": 1,
      "byteOffset": 55192,
      "componentType": 5126,
      "count": 37,
      "max": [
        0.9166669845581055,
        0.0
      ],
      "min": [
        0.08333300054073334,
        0.0
      ],
      "type": "VEC2"
    },
    {
      "bufferView": 0,
      "byteOffset": 139896,
      "componentType": 5125,
      "count": 180,
      "type": "SCALAR"
    },
    {
      "bufferView": 2,
      "byteOffset": 166464,
      "componentType": 5126,
      "count": 2317,
      "max": [
        3.8823049068450928,
        49.31005096435547,
        36.99046325683594
      ],
      "min": [
        -34.520530700683594,
        10.222192764282227,
        6.17493200302124
      ],
      "type": "VEC3"
    },
    {
      "bufferView": 2,
      "byteOffset": 194268,
      "componentType": 5126,
      "count": 2317,
      "max": [
        1.0,
        1.0,
        1.0
      ],
      "min": [
        -1.0,
        -1.0,
        -1.0
      ],
      "type": "VEC3"
    },
    {
      "bufferView": 1,
      "byteOffset": 55488,
      "componentType": 5126,
      "count": 2317,
      "max": [
        1.0,
        1.0
      ],
      "min": [
        0.0,
        0.0
      ],
      "type": "VEC2"
    },
    {
      "bufferView": 0,
      "byteOffset": 140616,
      "componentType": 5125,
      "count": 13602,
      "type": "SCALAR"
    },
    {
      "bufferView": 2,
      "byteOffset": 222072,
      "componentType": 5126,
      "count": 16,
      "max": [
        2.5836639404296875,
        5.397240161895752,
        17.714473724365234
      ],
      "min": [
        -3.4888761043548584,
        4.651549816131592,
        17.262615203857422
      ],
      "type": "VEC3"
    },
    {
      "bufferView": 2,
      "byteOffset": 222264,
      "componentType": 5126,
      "count": 16,
      "max": [
        0.883202314376831,
        0.5913510918617249,
        0.8497158885002136
      ],
      "min": [
        -0.8832020163536072,
        -0.15800704061985016,
        0.18310891091823578
      ],
      "type": "VEC3"
    },
    {
      "bufferView": 1,
      "byteOffset": 74024,
      "componentType": 5126,
      "count": 16,
      "max": [
        0.5550209879875183,
        1.0
      ],
      "min": [
        0.16666699945926666,
        1.0
      ],
      "type": "VEC2"
    },
    {
      "bufferView": 0,
      "byteOffset": 195024,
      "componentType": 5125,
      "count": 48,
      "type": "SCALAR"
    }
  ],
  "asset": {
    "extras": {
      "author": "Joshua Rei (https://sketchfab.com/jshdsnts)",
      "license": "CC-BY-4.0 (http://creativecommons.org/licenses/by/4.0/)",
      "source": "https://sketchfab.com/3d-models/lowpoly-traysikeltricycle-08cb15a0c57748f793e0ead5e5095722",
      "title": "Lowpoly Traysikel/Tricycle"
    },
    "generator": "Sketchfab-12.68.0",
    "version": "2.0"
  },
  "bufferViews": [
    {
      "buffer": 0,
      "byteLength": 195216,
      "name": "floatBufferViews",
      "target": 34963
    },
    {
      "buffer": 0,
      "byteLength": 74152,
      "byteOffset": 195216,
      "byteStride": 8,
      "name": "floatBufferViews",
      "target": 34962
    },
    {
      "buffer": 0,
      "byteLength": 222456,
      "byteOffset": 269368,
      "byteStride": 12,
      "name": "floatBufferViews",
      "target": 34962
    }
  ],
  "buffers": [
    {
      "byteLength": 491824,
      "uri": "scene.bin"
    }
  ],
  "extensionsUsed": [
    "KHR_materials_unlit"
  ],
  "materials": [
    {
      "doubleSided": true,
      "extensions": {
        "KHR_materials_unlit": {}
      },
      "name": "01___Default",
      "pbrMetallicRoughness": {
        "baseColorFactor": [
          0.043137,
          0.043137,
          0.043137,
          1.0
        ],
        "metallicFactor": 0.0
      }
    },
    {
      "doubleSided": true,
      "extensions": {
        "KHR_materials_unlit": {}
      },
      "name": "02___Default",
      "pbrMetallicRoughness": {
        "baseColorFactor": [
          0.262745,
          0.262745,
          0.262745,
          1.0
        ],
        "metallicFactor": 0.0
      }
    },
    {
      "doubleSided": true,
      "extensions": {
        "KHR_materials_unlit": {}
      },
      "name": "03___Default",
      "pbrMetallicRoughness": {
        "baseColorFactor": [
          0.745098,
          0.745098,
          0.745098,
          1.0
        ],
        "metallicFactor": 0.0
      }
    },
    {
      "doubleSided": true,
      "extensions": {
        "KHR_materials_unlit": {}
      },
      "name": "07___Default",
      "pbrMetallicRoughness": {
        "baseColorFactor": [
          0.164706,
          0.078431,
          0.043137,
          1.0
        ],
        "metallicFactor": 0.0
      }
    },
    {
      "doubleSided": true,
      "emissiveFactor": [
        1.0,
        1.0,
        0.05973721345840858
      ],
      "extensions": {
        "KHR_materials_unlit": {}
      },
      "name": "08___Default",
      "pbrMetallicRoughness": {
        "baseColorFactor": [
          0.945098,
          0.596078,
          0.254902,
          1.0
        ],
        "metallicFactor": 0.0
      }
    },
    {
      "doubleSided": true,
      "extensions": {
        "KHR_materials_unlit": {}
      },
      "name": "09___Default",
      "pbrMetallicRoughness": {
        "baseColorFactor": [
          0.41568599999999983,
          0.30588199999999993,
          0.14901999999999996,
          1.0
        ],
        "metallicFactor": 0.0
      }
    },
    {
      "doubleSided": true,
      "extensions": {
        "KHR_materials_unlit": {}
      },
      "name": "Material__36",
      "pbrMetallicRoughness": {
        "baseColorFactor": [
          0.588,
          0.588,
          0.588,
          1.0
        ],
        "metallicFactor": 0.0
      }
    }
  ],
  "meshes": [
    {
      "name": "Object_0",
      "primitives": [
        {
          "attributes": {
            "NORMAL": 1,
            "POSITION": 0,
            "TEXCOORD_0": 2
          },
          "indices": 3,
          "material": 0,
          "mode": 4
        }
      ]
    },
    {
      "name": "Object_1",
      "primitives": [
        {
          "attributes": {
            "NORMAL": 5,
            "POSITION": 4,
            "TEXCOORD_0": 6
          },
          "indices": 7,
          "material": 1,
          "mode": 4
        }
      ]
    },
    {
      "name": "Object_2",
      "primitives": [
        {
          "attributes": {
            "NORMAL": 9,
            "POSITION": 8,
            "TEXCOORD_0": 10
          },
          "indices": 11,
          "material": 2,
          "mode": 4
        }
      ]
    },
    {
      "name": "Object_3",
      "primitives": [
        {
          "attributes": {
            "NORMAL": 13,
            "POSITION": 12,
            "TEXCOORD_0": 14
          },
          "indices": 15,
          "material": 3,
          "mode": 4
        }
      ]
    },
    {
      "name": "Object_4",
      "primitives": [
        {
          "attributes": {
            "NORMAL": 17,
            "POSITION": 16,
            "TEXCOORD_0": 18
          },
          "indices": 19,
          "material": 4,
          "mode": 4
        }
      ]
    },
    {
      "name": "Object_5",
      "primitives": [
        {
          "attributes": {
            "NORMAL": 21,
            "POSITION": 20,
            "TEXCOORD_0": 22
          },
          "indices": 23,
          "material": 5,
          "mode": 4
        }
      ]
    },
    {
      "name": "Object_6",
      "primitives": [
        {
          "attributes": {
            "NORMAL": 25,
            "POSITION": 24,
            "TEXCOORD_0": 26
          },
          "indices": 27,
          "material": 6,
          "mode": 4
        }
      ]
    }
  ],
  "nodes": [
    {
      "children": [
        1
      ],
      "matrix": [
        1.0,
        0.0,
        0.0,
        0.0,
        0.0,
        2.220446049250313e-16,
        -1.0,
        0.0,
        0.0,
        1.0,
        2.220446049250313e-16,
        0.0,
        0.0,
        0.0,
        0.0,
        1.0
      ],
      "name": "Sketchfab_model"
    },
    {
      "children": [
        2,
        3,
        4,
        5,
        6,
        7,
        8
      ],
      "name": "TRAYSIKEL.obj.cleaner.materialmerger.gles"
    },
    {
      "mesh": 0,
      "name": "Object_2"
    },
    {
      "mesh": 1,
      "name": "Object_3"
    },
    {
      "mesh": 2,
      "name": "Object_4"
    },
    {
      "mesh": 3,
      "name": "Object_5"
    },
    {
      "mesh": 4,
      "name": "Object_6"
    },
    {
      "mesh": 5,
      "name": "Object_7"
    },
    {
      "mesh": 6,
      "name": "Object_8"
    }
  ],
  "scene": 0,
  "scenes": [
    {
      "name": "Sketchfab_Scene",
      "nodes": [
        0
      ]
    }
  ]
}
