# Blender 4.2.2 LTS
# www.blender.org
mtllib balb.mtl
o balb
v 0.275268 5.853985 -0.017788
v 0.184648 6.265633 -0.017788
v 0.233655 5.853985 0.082673
v 0.169578 6.265633 0.018595
v 0.133195 5.853985 0.124285
v 0.133195 6.265633 0.033665
v 0.032734 5.853985 0.082673
v 0.096812 6.265633 0.018595
v -0.008878 5.853985 -0.017788
v 0.081742 6.265633 -0.017788
v 0.032734 5.853985 -0.118248
v 0.096812 6.265633 -0.054171
v 0.133195 5.853985 -0.159861
v 0.133195 6.265633 -0.069241
v 0.233655 5.853985 -0.118248
v 0.169578 6.265633 -0.054171
v 0.239511 6.191369 0.088528
v 0.283548 6.191369 -0.017788
v 0.133195 6.191369 0.132565
v 0.026879 6.191369 0.088528
v -0.017158 6.191369 -0.017788
v 0.026879 6.191369 -0.124104
v 0.133195 6.191369 -0.168141
v 0.239511 6.191369 -0.124104
v 0.176788 6.191369 0.025805
v 0.194845 6.191369 -0.017788
v 0.133195 6.191369 0.043862
v 0.089602 6.191369 0.025805
v 0.071545 6.191369 -0.017788
v 0.089602 6.191369 -0.061381
v 0.133195 6.191369 -0.079438
v 0.176788 6.191369 -0.061381
v 0.301887 5.853985 -0.017788
v 0.252478 5.853985 0.101495
v 0.133195 5.853985 0.150904
v 0.013912 5.853985 0.101495
v -0.035497 5.853985 -0.017788
v 0.013912 5.853985 -0.137071
v 0.133195 5.853985 -0.186480
v 0.252478 5.853985 -0.137071
v 0.301291 5.776804 -0.017788
v 0.252057 5.776804 0.101074
v 0.133195 5.776804 0.150309
v 0.014333 5.776804 0.101074
v -0.034902 5.776804 -0.017788
v 0.014333 5.776804 -0.136650
v 0.133195 5.776804 -0.185884
v 0.252057 5.776804 -0.136650
v 0.181503 5.021239 -0.017788
v 0.167354 5.021239 0.016371
v 0.133195 5.021239 0.030520
v 0.099036 5.021239 0.016371
v 0.084887 5.021239 -0.017788
v 0.099036 5.021239 -0.051947
v 0.133195 5.021239 -0.066096
v 0.167354 5.021239 -0.051947
v 0.515935 5.374116 -0.017788
v 0.403833 5.374116 -0.288426
v 0.133195 5.374116 -0.400528
v -0.137443 5.374116 -0.288426
v -0.249545 5.374116 -0.017788
v -0.137443 5.374116 0.252850
v 0.133195 5.374116 0.364952
v 0.403833 5.374116 0.252850
v 0.348417 5.603364 -0.233010
v -0.082027 5.603364 -0.233010
v -0.082027 5.603364 0.197434
v 0.348417 5.603364 0.197434
v 0.437565 5.603364 -0.017788
v 0.133195 5.603364 -0.322158
v -0.171175 5.603364 -0.017788
v 0.133195 5.603364 0.286582
v 0.388790 5.137720 -0.017788
v 0.133195 5.137720 -0.273383
v -0.122400 5.137720 -0.017788
v 0.133195 5.137720 0.237807
v 0.313928 5.137720 -0.198521
v -0.047538 5.137720 -0.198521
v -0.047538 5.137720 0.162945
v 0.313928 5.137720 0.162945
v 0.376995 5.259492 -0.261588
v -0.110605 5.259492 -0.261588
v -0.110605 5.259492 0.226012
v 0.376995 5.259492 0.226012
v 0.477981 5.259492 -0.017788
v 0.133195 5.259492 -0.362574
v -0.211591 5.259492 -0.017788
v 0.133195 5.259492 0.326998
v 0.495834 5.495889 -0.017788
v 0.133195 5.495889 -0.380427
v -0.229444 5.495889 -0.017788
v 0.133195 5.495889 0.344851
v 0.389620 5.495889 -0.274213
v -0.123230 5.495889 -0.274213
v -0.123230 5.495889 0.238637
v 0.389620 5.495889 0.238637
v 0.298464 5.690084 -0.183057
v -0.032074 5.690084 -0.183057
v -0.032074 5.690084 0.147481
v 0.298464 5.690084 0.147481
v 0.366920 5.690084 -0.017788
v 0.133195 5.690084 -0.251513
v -0.100531 5.690084 -0.017788
v 0.133195 5.690084 0.215938
v 0.311704 5.079480 -0.017788
v 0.133195 5.079480 -0.196297
v -0.045314 5.079480 -0.017788
v 0.133195 5.079480 0.160721
v 0.259420 5.079480 -0.144013
v 0.006970 5.079480 -0.144013
v 0.006970 5.079480 0.108437
v 0.259420 5.079480 0.108437
v 0.255002 8.840989 -0.017788
v 1.046966 8.986609 -0.017788
v 0.219326 8.840989 0.068343
v 0.779329 8.986609 0.628346
v 0.133195 8.840989 0.104019
v 0.133195 8.986609 0.895983
v 0.047064 8.840989 0.068343
v -0.512939 8.986609 0.628346
v 0.011388 8.840989 -0.017788
v -0.780576 8.986609 -0.017788
v 0.047064 8.840989 -0.103919
v -0.512939 8.986609 -0.663922
v 0.133195 8.840989 -0.139595
v 0.133195 8.986609 -0.931559
v 0.219326 8.840989 -0.103919
v 0.779329 8.986609 -0.663922
v 0.809371 8.840989 -0.017788
v 0.611323 8.840989 0.460341
v 0.133195 8.840989 0.658388
v -0.344934 8.840989 0.460341
v -0.542981 8.840989 -0.017788
v -0.344934 8.840989 -0.495917
v 0.133195 8.840989 -0.693964
v 0.611324 8.840989 -0.495916
v 0.220420 8.794616 -0.017788
v 0.194873 8.794616 0.043890
v 0.133195 8.794616 0.069438
v 0.071517 8.794616 0.043890
v 0.045969 8.794616 -0.017788
v 0.071517 8.794616 -0.079466
v 0.133195 8.794616 -0.105013
v 0.194873 8.794616 -0.079466
v 1.014633 9.105490 0.863650
v 1.379736 9.105490 -0.017788
v 0.133195 9.105490 1.228753
v -0.748243 9.105490 0.863650
v -1.113346 9.105490 -0.017788
v -0.748243 9.105490 -0.899226
v 0.133195 9.105490 -1.264329
v 1.014633 9.105490 -0.899226
v 1.014633 9.257912 0.863650
v 1.379736 9.257912 -0.017788
v 0.133195 9.257912 1.228753
v -0.748243 9.257912 0.863650
v -1.113346 9.257912 -0.017788
v -0.748243 9.257912 -0.899226
v 0.133195 9.257912 -1.264329
v 1.014633 9.257912 -0.899226
v 0.180511 6.180074 -0.017788
v 0.113495 6.823604 -0.017788
v 0.166653 6.180074 0.015670
v 0.099636 6.814208 0.014216
v 0.133195 6.180074 0.029529
v 0.066178 6.810316 0.027473
v 0.099737 6.180074 0.015670
v 0.032720 6.814208 0.014216
v 0.085878 6.180074 -0.017788
v 0.018862 6.823604 -0.017788
v 0.099737 6.180074 -0.051246
v 0.032720 6.833001 -0.049792
v 0.133195 6.180074 -0.065104
v 0.066178 6.836893 -0.063049
v 0.166653 6.180074 -0.051246
v 0.099636 6.833001 -0.049792
v 0.277291 7.116595 0.107501
v 0.291150 7.123148 0.074743
v 0.243833 7.113881 0.121071
v 0.210375 7.116595 0.107501
v 0.196517 7.123148 0.074743
v 0.210375 7.129701 0.041984
v 0.243833 7.132415 0.028414
v 0.277291 7.129701 0.041984
v 0.082943 7.742869 0.002495
v 0.096801 7.741345 -0.030926
v 0.049485 7.743501 0.016338
v 0.016027 7.742869 0.002495
v 0.002168 7.741345 -0.030926
v 0.016027 7.739820 -0.064346
v 0.049485 7.739189 -0.078189
v 0.082943 7.739820 -0.064346
v 0.281832 8.443506 0.149010
v 0.295690 8.443598 0.115552
v 0.248374 8.443468 0.162868
v 0.214916 8.443506 0.149010
v 0.201057 8.443598 0.115552
v 0.214916 8.443689 0.082094
v 0.248374 8.443727 0.068236
v 0.281832 8.443689 0.082094
v 0.160085 8.877981 -0.007580
v 0.173943 8.878521 -0.041033
v 0.126627 8.877756 0.006276
v 0.093169 8.877981 -0.007580
v 0.079310 8.878521 -0.041033
v 0.093169 8.879062 -0.074486
v 0.126627 8.879286 -0.088342
v 0.160085 8.879062 -0.074486
vn 0.7926 -0.6098 -0.0000
vn 0.9985 0.0543 -0.0000
vn 0.7061 0.0543 0.7061
vn 0.5604 -0.6098 0.5604
vn -0.0000 0.0543 0.9985
vn -0.0000 -0.6098 0.7926
vn -0.7061 0.0543 0.7061
vn -0.5604 -0.6098 0.5604
vn -0.9985 0.0543 -0.0000
vn -0.7926 -0.6098 -0.0000
vn -0.7061 0.0543 -0.7061
vn -0.5604 -0.6098 -0.5604
vn -0.0000 0.0543 -0.9985
vn -0.0000 -0.6098 -0.7926
vn -0.0000 1.0000 -0.0000
vn 0.7061 0.0543 -0.7061
vn 0.5604 -0.6098 -0.5604
vn 0.6700 0.3195 0.6700
vn -0.0000 0.3195 0.9476
vn -0.0000 0.4846 0.8747
vn 0.6185 0.4846 0.6185
vn 0.9907 0.1360 -0.0000
vn 0.7005 0.1360 0.7005
vn -0.0000 0.1360 0.9907
vn -0.7005 0.1360 0.7005
vn -0.9907 0.1360 -0.0000
vn -0.7005 0.1360 -0.7005
vn -0.0000 0.1360 -0.9907
vn 0.7005 0.1360 -0.7005
vn -0.0000 -1.0000 -0.0000
vn 0.3741 -0.8486 -0.3741
vn 0.5290 -0.8486 -0.0000
vn 0.2574 -0.9663 -0.0000
vn 0.1820 -0.9663 -0.1820
vn -0.0000 0.3195 -0.9476
vn 0.6700 0.3195 -0.6700
vn 0.6185 0.4846 -0.6185
vn -0.0000 0.4846 -0.8747
vn -0.9476 0.3195 -0.0000
vn -0.6700 0.3195 -0.6700
vn -0.6185 0.4846 -0.6185
vn -0.8747 0.4846 -0.0000
vn -0.6700 0.3195 0.6700
vn -0.6185 0.4846 0.6185
vn 0.9476 0.3195 -0.0000
vn 0.8747 0.4846 -0.0000
vn 0.1820 -0.9663 0.1820
vn -0.0000 -0.9663 0.2574
vn -0.1820 -0.9663 0.1820
vn -0.2574 -0.9663 -0.0000
vn -0.1820 -0.9663 -0.1820
vn -0.0000 -0.9663 -0.2574
vn -0.3741 -0.8486 -0.3741
vn -0.0000 -0.8486 -0.5290
vn -0.3741 -0.8486 0.3741
vn -0.5290 -0.8486 -0.0000
vn 0.3741 -0.8486 0.3741
vn -0.0000 -0.8486 0.5290
vn 0.9499 0.3124 -0.0000
vn 0.6717 0.3124 0.6717
vn 0.7052 -0.0738 0.7052
vn 0.9973 -0.0738 -0.0000
vn -0.0000 0.3124 0.9499
vn -0.6717 0.3124 0.6717
vn -0.7052 -0.0738 0.7052
vn -0.0000 -0.0738 0.9973
vn -0.9499 0.3124 -0.0000
vn -0.6717 0.3124 -0.6717
vn -0.7052 -0.0738 -0.7052
vn -0.9973 -0.0738 -0.0000
vn -0.0000 0.3124 -0.9499
vn 0.6717 0.3124 -0.6717
vn 0.7052 -0.0738 -0.7052
vn -0.0000 -0.0738 -0.9973
vn 0.5549 0.6198 -0.5549
vn 0.7848 0.6198 -0.0000
vn 0.8377 0.5462 -0.0000
vn 0.5923 0.5462 -0.5923
vn -0.5549 0.6198 -0.5549
vn -0.0000 0.6198 -0.7848
vn -0.0000 0.5462 -0.8377
vn -0.5923 0.5462 -0.5923
vn -0.5549 0.6198 0.5549
vn -0.7848 0.6198 -0.0000
vn -0.8377 0.5462 -0.0000
vn -0.5923 0.5462 0.5923
vn 0.5549 0.6198 0.5549
vn -0.0000 0.6198 0.7848
vn -0.0000 0.5462 0.8377
vn 0.5923 0.5462 0.5923
vn 0.8963 -0.4434 -0.0000
vn 0.6338 -0.4434 0.6338
vn 0.5156 -0.6844 0.5156
vn 0.7291 -0.6844 -0.0000
vn -0.0000 -0.4434 0.8963
vn -0.6338 -0.4434 0.6338
vn -0.5156 -0.6844 0.5156
vn -0.0000 -0.6844 0.7291
vn -0.8963 -0.4434 -0.0000
vn -0.6338 -0.4434 -0.6338
vn -0.5156 -0.6844 -0.5156
vn -0.7291 -0.6844 -0.0000
vn -0.0000 -0.4434 -0.8963
vn 0.6338 -0.4434 -0.6338
vn 0.5156 -0.6844 -0.5156
vn -0.0000 -0.6844 -0.7291
vn 0.5107 -0.8333 0.2116
vn 0.2116 -0.8333 0.5107
vn -0.2116 -0.8333 0.5107
vn -0.5107 -0.8333 0.2116
vn -0.5107 -0.8333 -0.2116
vn -0.2116 -0.8333 -0.5107
vn -0.1380 -0.9327 0.3332
vn 0.2116 -0.8333 -0.5107
vn 0.5107 -0.8333 -0.2116
vn 0.7608 -0.5673 0.3151
vn 0.7608 -0.5673 -0.3151
vn -0.3151 -0.5673 -0.7608
vn -0.7608 -0.5673 0.3151
vn 0.3151 -0.5673 0.7608
vn 0.3151 -0.5673 -0.7608
vn -0.7608 -0.5673 -0.3151
vn -0.3151 -0.5673 0.7608
vn 0.3827 -0.0000 -0.9239
vn -0.1380 -0.9327 -0.3332
vn -0.3332 -0.9327 0.1380
vn 0.1380 -0.9327 -0.3332
vn 0.1380 -0.9327 0.3332
vn -0.3332 -0.9327 -0.1380
vn 0.3332 -0.9327 -0.1380
vn 0.3332 -0.9327 0.1380
vn -0.9239 -0.0000 -0.3827
vn -0.3827 -0.0000 0.9239
vn 0.9239 -0.0000 0.3827
vn 0.9239 -0.0000 -0.3827
vn -0.3827 -0.0000 -0.9239
vn -0.9239 -0.0000 0.3827
vn 0.3827 -0.0000 0.9239
vn 0.8058 -0.5921 0.0103
vn 0.9726 -0.2121 -0.0955
vn 0.6854 -0.2453 0.6856
vn 0.5663 -0.6007 0.5643
vn -0.0744 -0.1086 0.9913
vn 0.0180 -0.6271 0.7788
vn -0.7373 0.0575 0.6731
vn -0.5222 -0.6575 0.5432
vn -0.9826 0.1853 0.0135
vn -0.7426 -0.6696 -0.0094
vn -0.7207 0.2553 -0.6445
vn -0.5163 -0.6550 -0.5517
vn -0.0747 0.1874 -0.9794
vn 0.0205 -0.6270 -0.7787
vn -0.6079 0.0247 0.7936
vn -0.9876 0.1108 0.1110
vn 0.6291 -0.0282 -0.7768
vn 0.5737 -0.6026 -0.5548
vn 0.7411 -0.1309 0.6585
vn 0.9963 -0.0856 0.0037
vn 0.9991 0.0194 -0.0364
vn 0.6839 -0.0091 0.7296
vn 0.1024 0.0314 -0.9942
vn 0.7589 -0.0341 -0.6504
vn 0.0976 -0.0967 0.9905
vn -0.6956 0.1162 -0.7090
vn 0.6465 0.0273 -0.7624
vn -0.0624 0.0109 -0.9980
vn 0.0708 -0.0756 -0.9946
vn 0.7691 -0.0441 -0.6377
vn -0.7091 -0.0037 -0.7051
vn -0.7620 -0.0197 0.6472
vn -0.9985 -0.0112 -0.0530
vn -0.0745 -0.0249 0.9969
vn 0.0578 0.0638 0.9963
vn 0.7040 0.0413 0.7090
vn 0.4467 0.7779 0.4420
vn -0.0470 0.7430 0.6676
vn -0.9976 0.0126 0.0679
vn -0.7038 -0.0502 -0.7086
vn -0.6385 0.0625 0.7671
vn 0.9980 0.0061 0.0628
vn 0.6938 0.7181 -0.0544
vn 0.5116 0.5953 -0.6196
vn -0.0489 0.4994 -0.8650
vn -0.6204 0.4711 -0.6270
vn -0.8553 0.5150 -0.0565
vn -0.6013 0.6278 0.4942
vt 0.179104 0.847273
vt 0.183365 0.760144
vt 0.214053 0.758409
vt 0.217182 0.845274
vt 0.244605 0.752399
vt 0.255028 0.841152
vt 0.276864 0.740128
vt 0.293902 0.836947
vt 0.311814 0.716328
vt 0.341464 0.839835
vt 0.003418 0.844735
vt 0.041072 0.705318
vt 0.084260 0.736899
vt 0.055645 0.840451
vt 0.119657 0.750808
vt 0.099692 0.843786
vt 0.036872 0.015289
vt 0.036872 0.028871
vt 0.027268 0.038475
vt 0.013686 0.038475
vt 0.004082 0.028871
vt 0.004082 0.015289
vt 0.013686 0.005685
vt 0.027268 0.005685
vt 0.152341 0.757797
vt 0.140207 0.846682
vt 0.031754 0.254043
vt 0.030821 0.194510
vt 0.074275 0.192231
vt 0.072004 0.253864
vt 0.184302 0.723178
vt 0.209313 0.718709
vt 0.234278 0.717448
vt 0.256008 0.705719
vt 0.275634 0.693237
vt 0.087015 0.681618
vt 0.109013 0.698540
vt 0.132474 0.713250
vt 0.159324 0.716610
vt 0.187374 0.682545
vt 0.206039 0.682241
vt 0.224129 0.679283
vt 0.240792 0.673074
vt 0.256109 0.664236
vt 0.114713 0.649585
vt 0.132276 0.663241
vt 0.149859 0.673288
vt 0.168417 0.679361
vt 0.217681 0.853923
vt 0.179074 0.856064
vt 0.255780 0.849762
vt 0.293925 0.845600
vt 0.336654 0.849165
vt 0.055610 0.850800
vt 0.009209 0.856064
vt 0.098828 0.853272
vt 0.139631 0.855717
vt 0.285780 0.355971
vt 0.280701 0.317106
vt 0.350050 0.320087
vt 0.355569 0.339918
vt 0.034803 0.422746
vt 0.036404 0.368781
vt 0.074901 0.369740
vt 0.073967 0.427911
vt 0.003428 0.525978
vt 0.023602 0.475606
vt 0.061282 0.487327
vt 0.039028 0.545589
vt 0.022152 0.134939
vt 0.065298 0.125757
vt 0.034683 0.312489
vt 0.074495 0.312176
vt 0.003428 0.076791
vt 0.044733 0.057942
vt 0.055181 0.002880
vt 0.067933 0.002880
vt 0.076950 0.011897
vt 0.076950 0.024649
vt 0.067933 0.033665
vt 0.055181 0.033665
vt 0.046164 0.024649
vt 0.046164 0.011897
vt 0.334152 0.437625
vt 0.301509 0.396021
vt 0.366139 0.358028
vt 0.381974 0.372507
vt 0.333937 0.205578
vt 0.391014 0.180327
vt 0.387710 0.259545
vt 0.368170 0.265915
vt 0.285852 0.278901
vt 0.301700 0.241322
vt 0.355472 0.281057
vt 0.349819 0.299973
vt 0.396607 0.475634
vt 0.403184 0.379572
vt 0.176944 0.315213
vt 0.180334 0.258767
vt 0.205547 0.261421
vt 0.201292 0.315232
vt 0.189227 0.197213
vt 0.204788 0.122680
vt 0.241711 0.133199
vt 0.217860 0.203068
vt 0.190183 0.620406
vt 0.189515 0.506292
vt 0.226248 0.500391
vt 0.254649 0.619927
vt 0.182847 0.432289
vt 0.178145 0.371329
vt 0.203193 0.369084
vt 0.211360 0.428002
vt 0.229104 0.003058
vt 0.293822 0.022387
vt 0.116256 0.372410
vt 0.118137 0.314258
vt 0.149132 0.314356
vt 0.149766 0.371939
vt 0.108081 0.499284
vt 0.116889 0.432132
vt 0.151021 0.433378
vt 0.150148 0.505255
vt 0.117565 0.118628
vt 0.101196 0.029931
vt 0.160032 0.006957
vt 0.163118 0.117686
vt 0.116992 0.254395
vt 0.120796 0.191056
vt 0.156585 0.192464
vt 0.151551 0.255998
vt 0.083665 0.575496
vt 0.131775 0.602247
vt 0.224378 0.315347
vt 0.229190 0.264932
vt 0.261761 0.271612
vt 0.255676 0.315858
vt 0.244327 0.211081
vt 0.274006 0.149264
vt 0.312520 0.178629
vt 0.277697 0.226342
vt 0.316409 0.593863
vt 0.261260 0.488011
vt 0.306047 0.463333
vt 0.372378 0.527589
vt 0.238565 0.421480
vt 0.226942 0.366017
vt 0.260338 0.360742
vt 0.274096 0.408650
vt 0.342580 0.062387
vt 0.381614 0.131890
vt 0.712415 0.599108
vt 0.703930 0.507664
vt 0.755068 0.503502
vt 0.751348 0.605592
vt 0.603185 0.753407
vt 0.493476 0.755068
vt 0.502750 0.698127
vt 0.597050 0.714402
vt 0.520265 0.648754
vt 0.601657 0.680912
vt 0.544745 0.606709
vt 0.613431 0.654653
vt 0.575725 0.571323
vt 0.630749 0.632317
vt 0.612754 0.542745
vt 0.653177 0.615178
vt 0.421649 0.671694
vt 0.449712 0.612925
vt 0.655487 0.521321
vt 0.679218 0.603543
vt 0.709604 0.661473
vt 0.721189 0.660207
vt 0.737870 0.704015
vt 0.731183 0.706799
vt 0.659538 0.711582
vt 0.658269 0.723215
vt 0.661775 0.699754
vt 0.669784 0.689696
vt 0.676502 0.678426
vt 0.687678 0.671820
vt 0.697851 0.663642
vt 0.036433 0.039848
vt 0.039848 0.036433
vt 0.044678 0.036433
vt 0.048094 0.039848
vt 0.048094 0.044678
vt 0.044678 0.048093
vt 0.039848 0.048093
vt 0.036433 0.044678
vt 0.725232 0.709874
vt 0.719569 0.713585
vt 0.714435 0.717866
vt 0.709819 0.722755
vt 0.705865 0.728066
vt 0.702559 0.733786
vt 0.699881 0.739710
vt 0.625450 0.450187
vt 0.571676 0.479718
vt 0.513202 0.397163
vt 0.578456 0.358093
vt 0.524395 0.516950
vt 0.483753 0.561463
vt 0.398366 0.740217
vt 0.685952 0.428643
vt 0.755068 0.414774
vt 0.830497 0.372811
vt 0.830497 0.303786
vt 0.879305 0.254978
vt 0.948330 0.254978
vt 0.997138 0.303786
vt 0.997138 0.372811
vt 0.948330 0.421619
vt 0.879305 0.421619
vt 0.404669 0.500504
vt 0.454919 0.444948
vt 0.328311 0.628408
vt 0.362771 0.562286
vt 0.649183 0.327716
vt 0.723673 0.304361
vt 0.298375 0.695803
vt 0.510072 0.760818
vt 0.504028 0.843727
vt 0.468402 0.853340
vt 0.473045 0.770656
vt 0.443202 0.881880
vt 0.447608 0.799303
vt 0.419278 0.911497
vt 0.423126 0.828772
vt 0.384348 0.923395
vt 0.386589 0.840295
vt 0.349854 0.910287
vt 0.350727 0.826815
vt 0.586740 0.840346
vt 0.578301 0.923395
vt 0.558262 0.891022
vt 0.566526 0.807802
vt 0.915129 0.718625
vt 0.891798 0.690036
vt 0.892346 0.476784
vt 0.916355 0.505762
vt 0.537600 0.859043
vt 0.545280 0.775921
vt 0.003695 0.643012
vt 0.003695 0.604701
vt 0.030785 0.577611
vt 0.069097 0.577611
vt 0.096187 0.604701
vt 0.096187 0.643012
vt 0.069097 0.670102
vt 0.030785 0.670102
vt 0.793325 0.335051
vt 0.755870 0.331407
vt 0.755550 0.093696
vt 0.793628 0.097572
vt 0.797125 0.658641
vt 0.791896 0.696353
vt 0.791268 0.484030
vt 0.796246 0.446160
vt 0.886293 0.652364
vt 0.857403 0.627566
vt 0.857909 0.414313
vt 0.887096 0.438951
vt 0.951925 0.721402
vt 0.953854 0.508929
vt 0.820594 0.630165
vt 0.820395 0.417299
vt 0.763224 0.721402
vt 0.762297 0.508922
vt 0.559989 0.060240
vt 0.571297 0.023643
vt 0.571400 0.289205
vt 0.560075 0.325804
vt 0.731916 0.302384
vt 0.730871 0.064439
vt 0.724003 0.265017
vt 0.693970 0.241418
vt 0.692642 0.003475
vt 0.722892 0.026975
vt 0.855120 0.244899
vt 0.831044 0.273821
vt 0.831642 0.036342
vt 0.856445 0.007191
vt 0.823153 0.311193
vt 0.823671 0.073809
vt 0.892590 0.241414
vt 0.894539 0.003475
vt 0.629602 0.865551
vt 0.619548 0.828583
vt 0.831420 0.828579
vt 0.841473 0.865547
vt 0.400157 0.004136
vt 0.437347 0.013183
vt 0.437249 0.278750
vt 0.400022 0.269701
vt 0.457926 0.045454
vt 0.469231 0.082053
vt 0.469211 0.347626
vt 0.457890 0.311026
vt 0.502208 0.101542
vt 0.539401 0.092506
vt 0.539425 0.358074
vt 0.502196 0.367114
vt 0.604264 0.004136
vt 0.604375 0.269700
vt 0.248821 0.856555
vt 0.287127 0.856555
vt 0.314211 0.883645
vt 0.314206 0.921955
vt 0.287117 0.949045
vt 0.248811 0.949045
vt 0.221727 0.921955
vt 0.221731 0.883645
vt 0.674897 0.783816
vt 0.707878 0.764322
vt 0.919750 0.764343
vt 0.886769 0.783835
vt 0.717936 0.929807
vt 0.699170 0.896406
vt 0.911042 0.896384
vt 0.929807 0.929779
vt 0.662582 0.885046
vt 0.874454 0.885040
vt 0.638310 0.795180
vt 0.850182 0.795182
vt 0.717936 0.727355
vt 0.929807 0.727376
s 1
usemtl Материал
f 33/1/1 18/2/2 17/3/3 34/4/4
f 34/4/4 17/3/3 19/5/5 35/6/6
f 35/6/6 19/5/5 20/7/7 36/8/8
f 36/8/8 20/7/7 21/9/9 37/10/10
f 37/11/10 21/12/9 22/13/11 38/14/12
f 38/14/12 22/13/11 23/15/13 39/16/14
f 4/17/15 2/18/15 16/19/15 14/20/15 12/21/15 10/22/15 8/23/15 6/24/15
f 39/16/14 23/15/13 24/25/16 40/26/17
f 40/26/17 24/25/16 18/2/2 33/1/1
f 3/27/18 5/28/19 43/29/20 42/30/21
f 26/31/15 25/32/15 17/3/15 18/2/15
f 25/32/15 27/33/15 19/5/15 17/3/15
f 27/33/15 28/34/15 20/7/15 19/5/15
f 28/34/15 29/35/15 21/9/15 20/7/15
f 29/36/15 30/37/15 22/13/15 21/12/15
f 30/37/15 31/38/15 23/15/15 22/13/15
f 31/38/15 32/39/15 24/25/15 23/15/15
f 32/39/15 26/31/15 18/2/15 24/25/15
f 2/40/22 4/41/23 25/32/23 26/31/22
f 4/41/23 6/42/24 27/33/24 25/32/23
f 6/42/24 8/43/25 28/34/25 27/33/24
f 8/43/25 10/44/26 29/35/26 28/34/25
f 10/45/26 12/46/27 30/37/27 29/36/26
f 12/46/27 14/47/28 31/38/28 30/37/27
f 14/47/28 16/48/29 32/39/29 31/38/28
f 16/48/29 2/40/22 26/31/22 32/39/29
f 3/49/30 1/50/30 33/1/1 34/4/4
f 5/51/30 3/49/30 34/4/4 35/6/6
f 7/52/30 5/51/30 35/6/6 36/8/8
f 9/53/30 7/52/30 36/8/8 37/10/10
f 11/54/30 9/55/30 37/11/10 38/14/12
f 13/56/30 11/54/30 38/14/12 39/16/14
f 15/57/30 13/56/30 39/16/14 40/26/17
f 1/50/30 15/57/30 40/26/17 33/1/1
f 109/58/31 105/59/32 49/60/33 56/61/34
f 13/62/35 15/63/36 48/64/37 47/65/38
f 9/66/39 11/67/40 46/68/41 45/69/42
f 5/28/19 7/70/43 44/71/44 43/29/20
f 1/72/45 3/27/18 42/30/21 41/73/46
f 15/63/36 1/72/45 41/73/46 48/64/37
f 11/67/40 13/62/35 47/65/38 46/68/41
f 7/70/43 9/74/39 45/75/42 44/71/44
f 49/76/33 50/77/47 51/78/48 52/79/49 53/80/50 54/81/51 55/82/52 56/83/34
f 110/84/53 106/85/54 55/86/52 54/87/51
f 111/88/55 107/89/56 53/90/50 52/91/49
f 112/92/57 108/93/58 51/94/48 50/95/47
f 106/85/54 109/58/31 56/61/34 55/86/52
f 107/96/56 110/84/53 54/87/51 53/97/50
f 108/93/58 111/88/55 52/91/49 51/94/48
f 105/59/32 112/92/57 50/95/47 49/60/33
f 89/98/59 96/99/60 64/100/61 57/101/62
f 92/102/63 95/103/64 62/104/65 63/105/66
f 91/106/67 94/107/68 60/108/69 61/109/70
f 90/110/71 93/111/72 58/112/73 59/113/74
f 96/99/60 92/102/63 63/105/66 64/100/61
f 95/103/64 91/114/67 61/115/70 62/104/65
f 94/107/68 90/110/71 59/113/74 60/108/69
f 93/111/72 89/98/59 57/101/62 58/112/73
f 97/116/75 101/117/76 69/118/77 65/119/78
f 98/120/79 102/121/80 70/122/81 66/123/82
f 99/124/83 103/125/84 71/126/85 67/127/86
f 100/128/87 104/129/88 72/130/89 68/131/90
f 102/121/80 97/116/75 65/119/78 70/122/81
f 103/132/84 98/120/79 66/123/82 71/133/85
f 104/129/88 99/124/83 67/127/86 72/130/89
f 101/117/76 100/128/87 68/131/90 69/118/77
f 85/134/91 84/135/92 80/136/93 73/137/94
f 88/138/95 83/139/96 79/140/97 76/141/98
f 87/142/99 82/143/100 78/144/101 75/145/102
f 86/146/103 81/147/104 77/148/105 74/149/106
f 84/135/92 88/138/95 76/141/98 80/136/93
f 83/139/96 87/150/99 75/151/102 79/140/97
f 82/143/100 86/146/103 74/149/106 78/144/101
f 81/147/104 85/134/91 73/137/94 77/148/105
f 58/112/73 57/101/62 85/134/91 81/147/104
f 60/108/69 59/113/74 86/146/103 82/143/100
f 62/104/65 61/115/70 87/150/99 83/139/96
f 64/100/61 63/105/66 88/138/95 84/135/92
f 59/113/74 58/112/73 81/147/104 86/146/103
f 61/109/70 60/108/69 82/143/100 87/142/99
f 63/105/66 62/104/65 83/139/96 88/138/95
f 57/101/62 64/100/61 84/135/92 85/134/91
f 65/119/78 69/118/77 89/98/59 93/111/72
f 66/123/82 70/122/81 90/110/71 94/107/68
f 67/127/86 71/126/85 91/114/67 95/103/64
f 68/131/90 72/130/89 92/102/63 96/99/60
f 70/122/81 65/119/78 93/111/72 90/110/71
f 71/133/85 66/123/82 94/107/68 91/106/67
f 72/130/89 67/127/86 95/103/64 92/102/63
f 69/118/77 68/131/90 96/99/60 89/98/59
f 41/73/46 42/30/21 100/128/87 101/117/76
f 43/29/20 44/71/44 99/124/83 104/129/88
f 45/69/42 46/68/41 98/120/79 103/132/84
f 47/65/38 48/64/37 97/116/75 102/121/80
f 42/30/21 43/29/20 104/129/88 100/128/87
f 44/71/44 45/75/42 103/125/84 99/124/83
f 46/68/41 47/65/38 102/121/80 98/120/79
f 48/64/37 41/73/46 101/117/76 97/116/75
f 73/137/94 80/136/93 112/92/57 105/59/32
f 76/141/98 79/140/97 111/88/55 108/93/58
f 75/145/102 78/144/101 110/84/53 107/96/56
f 74/149/106 77/148/105 109/58/31 106/85/54
f 80/136/93 76/141/98 108/93/58 112/92/57
f 79/140/97 75/151/102 107/89/56 111/88/55
f 78/144/101 74/149/106 106/85/54 110/84/53
f 77/148/105 73/137/94 105/59/32 109/58/31
s 0
f 129/152/107 114/153/107 116/154/107 130/155/107
f 130/156/108 116/157/108 118/158/108 131/159/108
f 131/159/109 118/158/109 120/160/109 132/161/109
f 132/161/110 120/160/110 122/162/110 133/163/110
f 133/163/111 122/162/111 124/164/111 134/165/111
f 134/165/112 124/164/112 126/166/112 135/167/112
f 120/160/113 118/158/113 147/168/113 148/169/113
f 135/167/114 126/166/114 128/170/114 136/171/114
f 136/171/115 128/170/115 114/153/115 129/152/115
f 113/172/116 115/173/116 138/174/116 137/175/116
f 115/173/30 113/172/30 129/152/30 130/155/30
f 117/176/30 115/177/30 130/156/30 131/159/30
f 119/178/30 117/176/30 131/159/30 132/161/30
f 121/179/30 119/178/30 132/161/30 133/163/30
f 123/180/30 121/179/30 133/163/30 134/165/30
f 125/181/30 123/180/30 134/165/30 135/167/30
f 127/182/30 125/181/30 135/167/30 136/171/30
f 113/172/30 127/182/30 136/171/30 129/152/30
f 137/183/30 138/184/30 139/185/30 140/186/30 141/187/30 142/188/30 143/189/30 144/190/30
f 127/182/117 113/172/117 137/175/117 144/191/117
f 123/180/118 125/181/118 143/192/118 142/193/118
f 119/178/119 121/179/119 141/194/119 140/195/119
f 115/177/120 117/176/120 139/196/120 138/197/120
f 125/181/121 127/182/121 144/191/121 143/192/121
f 121/179/122 123/180/122 142/193/122 141/194/122
f 117/176/123 119/178/123 140/195/123 139/196/123
f 152/198/124 151/199/124 159/200/124 160/201/124
f 126/166/125 124/164/125 150/202/125 151/199/125
f 122/162/126 120/160/126 148/169/126 149/203/126
f 128/170/127 126/166/127 151/199/127 152/198/127
f 118/158/128 116/157/128 145/204/128 147/168/128
f 124/164/129 122/162/129 149/203/129 150/202/129
f 114/153/130 128/170/130 152/198/130 146/205/130
f 116/154/131 114/153/131 146/205/131 145/206/131
f 153/207/15 154/208/15 160/209/15 159/210/15 158/211/15 157/212/15 156/213/15 155/214/15
f 150/202/132 149/203/132 157/215/132 158/216/132
f 148/169/133 147/168/133 155/217/133 156/218/133
f 145/206/134 146/205/134 154/219/134 153/220/134
f 146/205/135 152/198/135 160/201/135 154/219/135
f 151/199/136 150/202/136 158/216/136 159/200/136
f 149/203/137 148/169/137 156/218/137 157/215/137
f 147/168/138 145/204/138 153/221/138 155/217/138
s 1
f 161/222/139 162/223/140 164/224/141 163/225/142
f 163/225/142 164/224/141 166/226/143 165/227/144
f 165/227/144 166/226/143 168/228/145 167/229/146
f 167/229/146 168/228/145 170/230/147 169/231/148
f 169/231/148 170/230/147 172/232/149 171/233/150
f 171/234/150 172/235/149 174/236/151 173/237/152
f 170/238/147 168/239/145 180/240/153 181/241/154
f 173/237/152 174/236/151 176/242/155 175/243/156
f 175/243/156 176/242/155 162/223/140 161/222/139
f 161/244/139 163/245/142 165/246/144 167/247/146 169/248/148 171/249/150 173/250/152 175/251/156
f 177/252/157 178/253/158 186/254/159 185/255/160
f 176/256/155 174/257/151 183/258/161 184/259/162
f 166/260/143 164/261/141 177/262/157 179/263/163
f 172/264/149 170/238/147 181/241/154 182/265/164
f 162/266/140 176/256/155 184/259/162 178/267/158
f 164/261/141 162/266/140 178/267/158 177/262/157
f 168/239/145 166/260/143 179/263/163 180/240/153
f 174/257/151 172/268/149 182/269/164 183/258/161
f 192/270/165 191/271/166 199/272/167 200/273/168
f 178/253/158 184/274/162 192/275/165 186/254/159
f 183/276/161 182/277/164 190/278/169 191/279/166
f 181/280/154 180/281/153 188/282/170 189/283/171
f 179/284/163 177/252/157 185/255/160 187/285/172
f 184/274/162 183/276/161 191/279/166 192/275/165
f 182/286/164 181/280/154 189/283/171 190/287/169
f 180/281/153 179/284/163 187/285/172 188/282/170
f 195/288/173 193/289/174 201/290/175 203/291/176
f 190/292/169 189/293/171 197/294/177 198/295/178
f 188/296/170 187/297/172 195/298/173 196/299/179
f 185/300/160 186/301/159 194/302/180 193/303/174
f 186/301/159 192/270/165 200/273/168 194/302/180
f 191/271/166 190/304/169 198/305/178 199/272/167
f 189/293/171 188/296/170 196/299/179 197/294/177
f 187/297/172 185/300/160 193/303/174 195/298/173
f 201/306/175 202/307/181 208/308/182 207/309/183 206/310/184 205/311/185 204/312/186 203/313/176
f 200/314/168 199/315/167 207/316/183 208/317/182
f 198/318/178 197/319/177 205/320/185 206/321/184
f 196/322/179 195/288/173 203/291/176 204/323/186
f 193/289/174 194/324/180 202/325/181 201/290/175
f 194/324/180 200/314/168 208/317/182 202/325/181
f 199/315/167 198/326/178 206/327/184 207/316/183
f 197/319/177 196/322/179 204/323/186 205/320/185
