# Blender 4.2.2 LTS
# www.blender.org
mtllib billboard.mtl
o billboard
v 0.424963 22.798702 12.212141
v 0.424963 36.754936 12.212141
v 0.424963 22.798702 -12.245697
v 0.424963 36.754936 -12.245697
v 1.414314 23.542889 12.495242
v 1.414314 36.916481 12.495242
v 1.414314 23.542889 -12.528798
v 1.414314 36.916481 -12.528798
v 1.414314 37.145172 -12.929570
v 1.414314 22.408466 -12.929570
v 1.414314 22.408466 12.896014
v 1.414314 37.145172 12.896014
v 1.175318 36.916481 -12.528798
v 1.175318 23.542889 -12.528798
v 1.175318 23.542889 12.495242
v 1.175318 36.916481 12.495242
v -0.494154 22.798700 12.212141
v -0.494154 36.754936 12.212141
v -0.494154 22.798700 -12.245697
v -0.494154 36.754936 -12.245697
v -1.483504 23.542889 12.495241
v -1.483504 36.916481 12.495241
v -1.483504 23.542889 -12.528797
v -1.483504 36.916481 -12.528797
v -1.483504 37.145172 -12.929569
v -1.483504 22.408466 -12.929569
v -1.483504 22.408466 12.896013
v -1.483504 37.145172 12.896013
v -1.244509 36.916481 -12.528797
v -1.244509 23.542889 -12.528797
v -1.244509 23.542889 12.495241
v -1.244509 36.916481 12.495241
v 0.566992 22.408466 -12.929570
v 0.566992 22.408466 12.896014
v 0.566992 37.145172 12.896014
v 0.566992 37.145172 -12.929570
v -0.636183 22.408466 -12.929569
v -0.636183 22.408466 12.896013
v -0.636183 37.145172 12.896013
v -0.636183 37.145172 -12.929569
v -0.034595 -0.275171 -0.760038
v -0.034595 35.464737 -0.760038
v 0.490969 -0.275171 -0.542342
v 0.490969 35.464737 -0.542342
v 0.708665 -0.275171 -0.016778
v 0.708665 35.464737 -0.016778
v 0.490969 -0.275171 0.508786
v 0.490969 35.464737 0.508786
v -0.034595 -0.275171 0.726481
v -0.034595 35.464737 0.726481
v -0.560159 -0.275171 0.508786
v -0.560159 35.464737 0.508786
v -0.777854 -0.275171 -0.016778
v -0.777854 35.464737 -0.016778
v -0.560159 -0.275171 -0.542342
v -0.560159 35.464737 -0.542342
v 0.763239 37.123558 6.441292
v 0.958912 38.227509 6.441292
v 0.763239 37.123558 6.348011
v 0.958912 38.227509 6.348011
v 0.855088 37.107277 6.441292
v 1.050762 38.211227 6.441292
v 0.855088 37.107277 6.348011
v 1.050762 38.211227 6.348011
v 2.412749 38.609478 6.729208
v 2.643922 38.847034 6.604935
v 2.412749 38.609478 6.060096
v 2.643922 38.847034 6.184369
v 3.032256 38.356651 6.729208
v 3.033309 38.688118 6.604935
v 3.032256 38.356651 6.060096
v 3.033309 38.688118 6.184369
v 2.540906 38.889076 6.716199
v 2.540906 38.889076 6.073104
v 3.136325 38.646080 6.073104
v 3.136325 38.646080 6.716199
v 2.734679 38.969971 6.567358
v 2.734679 38.969971 6.221946
v 3.054484 38.839455 6.221946
v 3.054484 38.839455 6.567358
v 2.351803 38.634350 5.994270
v 2.351803 38.634350 6.795034
v 3.093203 38.331779 5.994270
v 3.093203 38.331779 6.795034
v 2.445693 38.690201 6.060096
v 2.445693 38.690201 6.729208
v 3.065200 38.437370 6.060096
v 3.065200 38.437370 6.729208
v 0.900293 37.775166 6.439405
v 2.719506 38.967045 6.439405
v 0.900293 37.775166 6.349898
v 2.719506 38.967045 6.349898
v 0.951566 37.701797 6.439405
v 2.754950 38.884857 6.439405
v 0.951566 37.701797 6.349898
v 2.754950 38.884857 6.349898
v 0.965190 38.210495 6.439405
v 0.965190 38.210495 6.349898
v 1.000634 38.128307 6.439405
v 1.000634 38.128307 6.349898
v 0.763239 37.123558 0.035183
v 0.958912 38.227509 0.035183
v 0.763239 37.123558 -0.058098
v 0.958912 38.227509 -0.058098
v 0.855088 37.107277 0.035183
v 1.050762 38.211227 0.035183
v 0.855088 37.107277 -0.058098
v 1.050762 38.211227 -0.058098
v 2.412749 38.609478 0.323098
v 2.643922 38.847034 0.198825
v 2.412749 38.609478 -0.346013
v 2.643922 38.847034 -0.221740
v 3.032256 38.356651 0.323098
v 3.033309 38.688118 0.198825
v 3.032256 38.356651 -0.346013
v 3.033309 38.688118 -0.221740
v 2.540906 38.889076 0.310089
v 2.540906 38.889076 -0.333005
v 3.136325 38.646080 -0.333005
v 3.136325 38.646080 0.310089
v 2.734679 38.969971 0.161249
v 2.734679 38.969971 -0.184164
v 3.054484 38.839455 -0.184164
v 3.054484 38.839455 0.161249
v 2.351803 38.634350 -0.411839
v 2.351803 38.634350 0.388924
v 3.093203 38.331779 -0.411839
v 3.093203 38.331779 0.388924
v 2.445693 38.690201 -0.346013
v 2.445693 38.690201 0.323098
v 3.065200 38.437370 -0.346013
v 3.065200 38.437370 0.323098
v 0.900293 37.775166 0.033296
v 2.719506 38.967045 0.033296
v 0.900293 37.775166 -0.056212
v 2.719506 38.967045 -0.056212
v 0.951566 37.701797 0.033296
v 2.754950 38.884857 0.033296
v 0.951566 37.701797 -0.056212
v 2.754950 38.884857 -0.056212
v 0.965190 38.210495 0.033296
v 0.965190 38.210495 -0.056212
v 1.000634 38.128307 0.033296
v 1.000634 38.128307 -0.056212
v 0.763239 37.123558 -6.370927
v 0.958912 38.227509 -6.370927
v 0.763239 37.123558 -6.464208
v 0.958912 38.227509 -6.464208
v 0.855088 37.107277 -6.370927
v 1.050762 38.211227 -6.370927
v 0.855088 37.107277 -6.464208
v 1.050762 38.211227 -6.464208
v 2.412749 38.609478 -6.083011
v 2.643922 38.847034 -6.207284
v 2.412749 38.609478 -6.752123
v 2.643922 38.847034 -6.627849
v 3.032256 38.356651 -6.083011
v 3.033309 38.688118 -6.207284
v 3.032256 38.356651 -6.752123
v 3.033309 38.688118 -6.627849
v 2.540906 38.889076 -6.096020
v 2.540906 38.889076 -6.739114
v 3.136325 38.646080 -6.739114
v 3.136325 38.646080 -6.096020
v 2.734679 38.969971 -6.244861
v 2.734679 38.969971 -6.590272
v 3.054484 38.839455 -6.590272
v 3.054484 38.839455 -6.244861
v 2.351803 38.634350 -6.817949
v 2.351803 38.634350 -6.017186
v 3.093203 38.331779 -6.817949
v 3.093203 38.331779 -6.017186
v 2.445693 38.690201 -6.752123
v 2.445693 38.690201 -6.083011
v 3.065200 38.437370 -6.752123
v 3.065200 38.437370 -6.083011
v 0.900293 37.775166 -6.372814
v 2.719506 38.967045 -6.372814
v 0.900293 37.775166 -6.462320
v 2.719506 38.967045 -6.462320
v 0.951566 37.701797 -6.372814
v 2.754950 38.884857 -6.372814
v 0.951566 37.701797 -6.462320
v 2.754950 38.884857 -6.462320
v 0.965190 38.210495 -6.372814
v 0.965190 38.210495 -6.462320
v 1.000634 38.128307 -6.372814
v 1.000634 38.128307 -6.462320
v -0.832428 37.123558 6.441292
v -1.028101 38.227509 6.441292
v -0.832428 37.123558 6.348011
v -1.028101 38.227509 6.348011
v -0.924277 37.107277 6.441292
v -1.119950 38.211227 6.441292
v -0.924277 37.107277 6.348011
v -1.119950 38.211227 6.348011
v -2.481938 38.609478 6.729208
v -2.713111 38.847034 6.604935
v -2.481938 38.609478 6.060096
v -2.713111 38.847034 6.184369
v -3.101445 38.356651 6.729208
v -3.102498 38.688118 6.604935
v -3.101445 38.356651 6.060096
v -3.102498 38.688118 6.184369
v -2.610095 38.889076 6.716199
v -2.610095 38.889076 6.073104
v -3.205514 38.646080 6.073104
v -3.205514 38.646080 6.716199
v -2.803868 38.969971 6.567358
v -2.803868 38.969971 6.221946
v -3.123673 38.839455 6.221946
v -3.123673 38.839455 6.567358
v -2.420992 38.634350 5.994270
v -2.420992 38.634350 6.795034
v -3.162391 38.331779 5.994270
v -3.162391 38.331779 6.795034
v -2.514882 38.690201 6.060096
v -2.514882 38.690201 6.729208
v -3.134389 38.437370 6.060096
v -3.134389 38.437370 6.729208
v -0.969481 37.775166 6.439405
v -2.788695 38.967045 6.439405
v -0.969481 37.775166 6.349898
v -2.788695 38.967045 6.349898
v -1.020755 37.701797 6.439405
v -2.824139 38.884857 6.439405
v -1.020755 37.701797 6.349898
v -2.824139 38.884857 6.349898
v -1.034379 38.210495 6.439405
v -1.034379 38.210495 6.349898
v -1.069823 38.128307 6.439405
v -1.069823 38.128307 6.349898
v -0.832428 37.123558 0.035184
v -1.028101 38.227509 0.035184
v -0.832428 37.123558 -0.058097
v -1.028101 38.227509 -0.058097
v -0.924277 37.107277 0.035184
v -1.119950 38.211227 0.035184
v -0.924277 37.107277 -0.058097
v -1.119950 38.211227 -0.058097
v -2.481938 38.609478 0.323099
v -2.713111 38.847034 0.198826
v -2.481938 38.609478 -0.346013
v -2.713111 38.847034 -0.221740
v -3.101445 38.356651 0.323099
v -3.102498 38.688118 0.198826
v -3.101445 38.356651 -0.346013
v -3.102498 38.688118 -0.221740
v -2.610095 38.889076 0.310090
v -2.610095 38.889076 -0.333004
v -3.205514 38.646080 -0.333004
v -3.205514 38.646080 0.310090
v -2.803868 38.969971 0.161249
v -2.803868 38.969971 -0.184163
v -3.123673 38.839455 -0.184163
v -3.123673 38.839455 0.161249
v -2.420992 38.634350 -0.411839
v -2.420992 38.634350 0.388925
v -3.162391 38.331779 -0.411839
v -3.162391 38.331779 0.388925
v -2.514882 38.690201 -0.346013
v -2.514882 38.690201 0.323099
v -3.134389 38.437370 -0.346013
v -3.134389 38.437370 0.323099
v -0.969481 37.775166 0.033297
v -2.788695 38.967045 0.033297
v -0.969481 37.775166 -0.056211
v -2.788695 38.967045 -0.056211
v -1.020755 37.701797 0.033297
v -2.824139 38.884857 0.033297
v -1.020755 37.701797 -0.056211
v -2.824139 38.884857 -0.056211
v -1.034379 38.210495 0.033297
v -1.034379 38.210495 -0.056211
v -1.069823 38.128307 0.033297
v -1.069823 38.128307 -0.056211
v -0.832428 37.123558 -6.370925
v -1.028101 38.227509 -6.370925
v -0.832428 37.123558 -6.464206
v -1.028101 38.227509 -6.464206
v -0.924277 37.107277 -6.370925
v -1.119950 38.211227 -6.370925
v -0.924277 37.107277 -6.464206
v -1.119950 38.211227 -6.464206
v -2.481938 38.609478 -6.083009
v -2.713111 38.847034 -6.207283
v -2.481938 38.609478 -6.752122
v -2.713111 38.847034 -6.627848
v -3.101445 38.356651 -6.083009
v -3.102498 38.688118 -6.207283
v -3.101445 38.356651 -6.752122
v -3.102498 38.688118 -6.627848
v -2.610095 38.889076 -6.096019
v -2.610095 38.889076 -6.739113
v -3.205514 38.646080 -6.739113
v -3.205514 38.646080 -6.096019
v -2.803868 38.969971 -6.244860
v -2.803868 38.969971 -6.590271
v -3.123673 38.839455 -6.590271
v -3.123673 38.839455 -6.244860
v -2.420992 38.634350 -6.817948
v -2.420992 38.634350 -6.017185
v -3.162391 38.331779 -6.817948
v -3.162391 38.331779 -6.017185
v -2.514882 38.690201 -6.752122
v -2.514882 38.690201 -6.083009
v -3.134389 38.437370 -6.752122
v -3.134389 38.437370 -6.083009
v -0.969481 37.775166 -6.372813
v -2.788695 38.967045 -6.372813
v -0.969481 37.775166 -6.462319
v -2.788695 38.967045 -6.462319
v -1.020755 37.701797 -6.372813
v -2.824139 38.884857 -6.372813
v -1.020755 37.701797 -6.462319
v -2.824139 38.884857 -6.462319
v -1.034379 38.210495 -6.372813
v -1.034379 38.210495 -6.462319
v -1.069823 38.128307 -6.372813
v -1.069823 38.128307 -6.462319
vn -1.0000 -0.0000 -0.0000
vn -0.0000 -0.0000 -1.0000
vn -0.0000 -1.0000 -0.0000
vn -0.0000 -0.0000 1.0000
vn -0.0000 1.0000 -0.0000
vn 1.0000 -0.0000 -0.0000
vn -0.9397 -0.3420 -0.0000
vn -0.9791 -0.0000 0.2033
vn -0.9397 0.3420 -0.0000
vn -0.9791 -0.0000 -0.2033
vn 0.9397 -0.3420 -0.0000
vn 0.9791 -0.0000 0.2033
vn 0.9397 0.3420 -0.0000
vn 0.9791 -0.0000 -0.2033
vn 0.3827 -0.0000 -0.9239
vn 0.9239 -0.0000 -0.3827
vn 0.9239 -0.0000 0.3827
vn 0.3827 -0.0000 0.9239
vn -0.3827 -0.0000 0.9239
vn -0.9239 -0.0000 0.3827
vn -0.9239 -0.0000 -0.3827
vn -0.3827 -0.0000 -0.9239
vn -0.9847 0.1745 -0.0000
vn 0.9847 -0.1745 -0.0000
vn -0.1745 -0.9847 -0.0000
vn 0.1745 0.9847 -0.0000
vn -0.8029 0.5961 -0.0000
vn 0.0939 0.2301 -0.9686
vn 0.9907 -0.1359 -0.0000
vn 0.0939 0.2301 0.9686
vn -0.9259 0.3779 -0.0000
vn -0.8045 0.5939 -0.0000
vn 0.3778 0.9259 -0.0000
vn 0.3779 0.9259 -0.0000
vn 0.0929 0.2277 0.9693
vn 0.0929 0.2277 -0.9693
vn 0.9904 -0.1386 -0.0000
vn -0.3779 -0.9259 -0.0000
vn -0.3778 -0.9259 -0.0000
vn 0.9259 -0.3779 -0.0000
vn -0.5480 0.8365 -0.0000
vn 0.5485 -0.8361 -0.0000
vn -0.8197 -0.5728 -0.0000
vn 0.9182 0.3960 -0.0000
vn -0.3960 0.9183 -0.0000
vn 0.3960 -0.9183 -0.0000
vn -0.9182 -0.3960 -0.0000
vn -0.9183 -0.3960 -0.0000
vn 0.9847 0.1745 -0.0000
vn -0.9847 -0.1745 -0.0000
vn 0.1745 -0.9847 -0.0000
vn -0.1745 0.9847 -0.0000
vn 0.8029 0.5961 -0.0000
vn -0.0939 0.2301 -0.9686
vn -0.9907 -0.1359 -0.0000
vn -0.0939 0.2301 0.9686
vn 0.9259 0.3779 -0.0000
vn 0.8045 0.5939 -0.0000
vn -0.3778 0.9259 -0.0000
vn -0.3779 0.9259 -0.0000
vn -0.0929 0.2277 0.9693
vn -0.0929 0.2277 -0.9693
vn -0.9904 -0.1386 -0.0000
vn 0.3778 -0.9259 -0.0000
vn 0.3779 -0.9259 -0.0000
vn -0.9259 -0.3779 -0.0000
vn 0.5480 0.8365 -0.0000
vn -0.5485 -0.8361 -0.0000
vn 0.8197 -0.5728 -0.0000
vn -0.9182 0.3960 -0.0000
vn 0.3960 0.9183 -0.0000
vn -0.3960 -0.9183 -0.0000
vn 0.9182 -0.3960 -0.0000
vn 0.9183 -0.3960 -0.0000
vt 0.824884 0.928629
vt 0.824884 0.824884
vt 0.928629 0.824884
vt 0.928629 0.928629
vt 0.428214 0.554364
vt 0.376425 0.442669
vt 0.484404 0.420820
vt 0.539909 0.502575
vt 0.486099 0.420323
vt 0.483019 0.332284
vt 0.507456 0.341077
vt 0.508748 0.413288
vt 0.539870 0.262282
vt 0.481760 0.331825
vt 0.384446 0.310437
vt 0.436542 0.200298
vt 0.894861 0.006743
vt 0.894861 0.110488
vt 0.791116 0.110488
vt 0.791116 0.006743
vt 0.535962 0.493196
vt 0.893251 0.118474
vt 0.792726 0.118474
vt 0.535410 0.270480
vt 0.636750 0.951142
vt 0.636750 0.856993
vt 0.737275 0.856993
vt 0.737275 0.951142
vt 0.552957 0.481677
vt 0.552957 0.284622
vt 0.893251 0.147736
vt 0.792726 0.147736
vt 0.239566 0.948328
vt 0.239566 0.844582
vt 0.343311 0.844582
vt 0.343311 0.948328
vt 0.329512 0.382708
vt 0.217817 0.330919
vt 0.273322 0.249165
vt 0.381301 0.271013
vt 0.271627 0.248667
vt 0.248978 0.241633
vt 0.250270 0.169422
vt 0.274707 0.160628
vt 0.217856 0.090627
vt 0.321184 0.028643
vt 0.373280 0.138781
vt 0.275966 0.160169
vt 0.793930 0.162921
vt 0.897675 0.162921
vt 0.897675 0.266667
vt 0.793930 0.266667
vt 0.221764 0.321540
vt 0.795540 0.274653
vt 0.896065 0.274653
vt 0.222316 0.098824
vt 0.968026 0.407407
vt 0.968026 0.507932
vt 0.873877 0.507932
vt 0.873877 0.407407
vt 0.204769 0.310021
vt 0.204769 0.112966
vt 0.896065 0.303915
vt 0.795540 0.303915
vt 0.569866 0.386243
vt 0.682402 0.386243
vt 0.682402 0.484493
vt 0.569866 0.484493
vt 0.816309 0.679588
vt 0.816309 0.567052
vt 0.914559 0.567052
vt 0.914559 0.679588
vt 0.569866 0.582744
vt 0.682402 0.582744
vt 0.682402 0.680995
vt 0.569866 0.680995
vt 0.320078 0.503778
vt 0.320078 0.405527
vt 0.337683 0.402780
vt 0.337683 0.506525
vt 0.435919 0.570526
vt 0.529499 0.540593
vt 0.537479 0.556524
vt 0.438666 0.588132
vt 0.337668 0.570526
vt 0.334921 0.588132
vt 0.244089 0.540593
vt 0.236108 0.556524
vt 0.531851 0.129752
vt 0.531851 0.228003
vt 0.514246 0.230750
vt 0.514246 0.127005
vt 0.539186 0.380355
vt 0.569119 0.286776
vt 0.586725 0.289523
vt 0.555117 0.388336
vt 0.569119 0.188525
vt 0.586725 0.185778
vt 0.539186 0.094945
vt 0.555117 0.086965
vt 0.189947 0.288095
vt 0.006807 0.288095
vt 0.006807 0.218010
vt 0.189947 0.218010
vt 0.006807 0.147926
vt 0.189947 0.147926
vt 0.006807 0.077841
vt 0.189947 0.077841
vt 0.006807 0.007756
vt 0.189947 0.007756
vt 0.189947 0.568434
vt 0.006807 0.568434
vt 0.006807 0.498349
vt 0.189947 0.498349
vt 0.006807 0.428264
vt 0.189947 0.428264
vt 0.126319 0.903303
vt 0.056235 0.903303
vt 0.006677 0.853746
vt 0.006677 0.783661
vt 0.056235 0.734104
vt 0.126319 0.734104
vt 0.175877 0.783661
vt 0.175877 0.853746
vt 0.006807 0.358180
vt 0.189947 0.358180
vt 0.718939 0.672195
vt 0.789023 0.672195
vt 0.838580 0.721753
vt 0.838580 0.791837
vt 0.789023 0.841395
vt 0.718938 0.841395
vt 0.669381 0.791837
vt 0.669381 0.721753
vt 0.281403 0.019248
vt 0.272221 0.021666
vt 0.267623 0.018429
vt 0.272742 0.008523
vt 0.258363 0.022297
vt 0.257106 0.007046
vt 0.330648 0.535057
vt 0.330648 0.545922
vt 0.319784 0.545922
vt 0.319784 0.535057
vt 0.281403 0.032361
vt 0.268289 0.032361
vt 0.330648 0.524193
vt 0.319784 0.524193
vt 0.287131 0.695085
vt 0.291608 0.711461
vt 0.242416 0.718127
vt 0.241302 0.709104
vt 0.201374 0.759561
vt 0.194349 0.754257
vt 0.213279 0.145930
vt 0.216673 0.155111
vt 0.216673 0.230011
vt 0.213279 0.239192
vt 0.391150 0.738423
vt 0.382430 0.751362
vt 0.939885 0.666381
vt 0.939885 0.744310
vt 0.937594 0.744310
vt 0.937594 0.666381
vt 0.075946 0.969397
vt 0.075946 0.920415
vt 0.083966 0.924791
vt 0.083966 0.965020
vt 0.287964 0.723232
vt 0.246652 0.728912
vt 0.218200 0.759788
vt 0.229343 0.168070
vt 0.229343 0.217052
vt 0.354845 0.759788
vt 0.892047 0.778079
vt 0.852713 0.778079
vt 0.852713 0.737850
vt 0.892047 0.737850
vt 0.123817 0.918972
vt 0.123282 0.923606
vt 0.123817 0.970840
vt 0.123282 0.966205
vt 0.500897 0.170512
vt 0.500897 0.219494
vt 0.499282 0.215118
vt 0.499282 0.174888
vt 0.238868 0.704658
vt 0.287499 0.685583
vt 0.194571 0.745756
vt 0.205783 0.231526
vt 0.205783 0.153596
vt 0.381793 0.714973
vt 0.357164 0.904166
vt 0.433360 0.904166
vt 0.433360 0.982096
vt 0.357164 0.982096
vt 0.612862 0.877977
vt 0.534933 0.877977
vt 0.534933 0.875686
vt 0.612862 0.875685
vt 0.641599 0.807406
vt 0.641599 0.805115
vt 0.506197 0.807407
vt 0.506197 0.805116
vt 0.007763 0.708779
vt 0.192728 0.708781
vt 0.192728 0.719206
vt 0.007762 0.719204
vt 0.198389 0.720376
vt 0.015063 0.720391
vt 0.762602 0.451238
vt 0.762602 0.634563
vt 0.752177 0.634563
vt 0.752177 0.451238
vt 0.015063 0.707592
vt 0.198389 0.707611
vt 0.762602 0.443841
vt 0.752177 0.443841
vt 0.203864 0.256908
vt 0.209645 0.256908
vt 0.209645 0.267333
vt 0.203864 0.267333
vt 0.226428 0.659516
vt 0.015673 0.665484
vt 0.015194 0.653702
vt 0.226529 0.652479
vt 0.008029 0.652479
vt 0.224435 0.653140
vt 0.766247 0.192761
vt 0.766247 0.006675
vt 0.776672 0.006675
vt 0.776672 0.192761
vt 0.224342 0.659022
vt 0.009140 0.666925
vt 0.472757 0.185276
vt 0.463575 0.187694
vt 0.458977 0.184456
vt 0.464096 0.174550
vt 0.449717 0.188325
vt 0.448460 0.173073
vt 0.588132 0.097476
vt 0.588132 0.108340
vt 0.577268 0.108340
vt 0.577268 0.097476
vt 0.472757 0.198389
vt 0.459643 0.198389
vt 0.588132 0.086612
vt 0.577268 0.086612
vt 0.499590 0.695085
vt 0.504067 0.711461
vt 0.454875 0.718127
vt 0.453761 0.709104
vt 0.413833 0.759561
vt 0.406808 0.754257
vt 0.238605 0.376680
vt 0.241999 0.385862
vt 0.241999 0.460761
vt 0.238605 0.469943
vt 0.603609 0.738423
vt 0.594890 0.751362
vt 0.408301 0.156701
vt 0.486231 0.156701
vt 0.486231 0.158993
vt 0.408301 0.158992
vt 0.942791 0.993352
vt 0.942791 0.942033
vt 0.951036 0.946963
vt 0.950989 0.988302
vt 0.500424 0.723233
vt 0.459111 0.728912
vt 0.430659 0.759788
vt 0.254670 0.398820
vt 0.254670 0.447803
vt 0.567305 0.759788
vt 0.768292 0.944681
vt 0.807626 0.944681
vt 0.807626 0.984910
vt 0.768292 0.984910
vt 0.991267 0.943658
vt 0.989761 0.948202
vt 0.991945 0.991274
vt 0.990260 0.986665
vt 0.451327 0.704658
vt 0.499959 0.685583
vt 0.407031 0.745756
vt 0.231109 0.462276
vt 0.231109 0.384347
vt 0.594252 0.714973
vt 0.908714 0.013526
vt 0.984910 0.013526
vt 0.984910 0.091456
vt 0.908714 0.091456
vt 0.929152 0.650041
vt 0.929152 0.572111
vt 0.931443 0.572111
vt 0.931443 0.650041
vt 0.514967 0.086131
vt 0.514967 0.088423
vt 0.379566 0.086131
vt 0.379566 0.088422
vt 0.710762 0.417204
vt 0.710760 0.602169
vt 0.700335 0.602169
vt 0.700337 0.417204
vt 0.699165 0.607830
vt 0.699150 0.424504
vt 0.738107 0.190992
vt 0.738107 0.007667
vt 0.748532 0.007667
vt 0.748532 0.190992
vt 0.711949 0.424505
vt 0.711930 0.607830
vt 0.738107 0.198389
vt 0.748532 0.198389
vt 0.410695 0.175301
vt 0.416476 0.175301
vt 0.416476 0.185726
vt 0.410695 0.185726
vt 0.482606 0.669739
vt 0.271271 0.668516
vt 0.271750 0.656733
vt 0.482505 0.662702
vt 0.265216 0.655293
vt 0.480419 0.663195
vt 0.361603 0.368278
vt 0.361603 0.554364
vt 0.351178 0.554364
vt 0.351178 0.368278
vt 0.480512 0.669077
vt 0.264105 0.669739
vt 0.248664 0.514021
vt 0.257846 0.511603
vt 0.262443 0.514841
vt 0.257324 0.524747
vt 0.271704 0.510972
vt 0.272961 0.526223
vt 0.540293 0.407019
vt 0.540293 0.417883
vt 0.529429 0.417883
vt 0.529429 0.407019
vt 0.248664 0.500908
vt 0.261777 0.500908
vt 0.540293 0.396155
vt 0.529429 0.396155
vt 0.685136 0.300082
vt 0.701170 0.298198
vt 0.703356 0.350144
vt 0.692374 0.349774
vt 0.748317 0.412487
vt 0.740134 0.420697
vt 0.626941 0.697479
vt 0.630335 0.706661
vt 0.630335 0.781560
vt 0.626941 0.790742
vt 0.737534 0.220028
vt 0.747132 0.229026
vt 0.301624 0.463719
vt 0.301624 0.385789
vt 0.303915 0.385789
vt 0.303915 0.463719
vt 0.057652 0.968026
vt 0.008669 0.968026
vt 0.013046 0.960006
vt 0.053275 0.960006
vt 0.712552 0.301885
vt 0.716215 0.345389
vt 0.751346 0.390932
vt 0.643006 0.719620
vt 0.643006 0.768602
vt 0.751346 0.254943
vt 0.180098 0.970840
vt 0.140763 0.970840
vt 0.140763 0.930611
vt 0.180098 0.930611
vt 0.007227 0.920155
vt 0.011861 0.920690
vt 0.059095 0.920155
vt 0.054460 0.920690
vt 0.011501 0.908574
vt 0.015371 0.911178
vt 0.683624 0.352688
vt 0.679767 0.298970
vt 0.729019 0.418764
vt 0.619445 0.783076
vt 0.619445 0.705146
vt 0.715801 0.225385
vt 0.496458 0.895724
vt 0.572655 0.895724
vt 0.572655 0.973654
vt 0.496458 0.973654
vt 0.394487 0.251855
vt 0.394487 0.173925
vt 0.396778 0.173925
vt 0.396778 0.251856
vt 0.231054 0.357053
vt 0.233345 0.357053
vt 0.231054 0.492455
vt 0.233345 0.492455
vt 0.722018 0.007763
vt 0.722016 0.192728
vt 0.711591 0.192728
vt 0.711594 0.007762
vt 0.710421 0.198389
vt 0.710406 0.015063
vt 0.737276 0.444203
vt 0.737275 0.627528
vt 0.726851 0.627528
vt 0.726851 0.444203
vt 0.723205 0.015063
vt 0.723186 0.198389
vt 0.737276 0.436806
vt 0.726851 0.436806
vt 0.298134 0.007867
vt 0.303915 0.007867
vt 0.303915 0.018291
vt 0.298134 0.018291
vt 0.255663 0.632780
vt 0.466998 0.634003
vt 0.466520 0.645786
vt 0.255764 0.639817
vt 0.473053 0.647227
vt 0.257850 0.639324
vt 0.769061 0.395371
vt 0.769061 0.209286
vt 0.779486 0.209286
vt 0.779486 0.395371
vt 0.257757 0.633442
vt 0.474164 0.632780
vt 0.219644 0.063316
vt 0.207691 0.063009
vt 0.210233 0.017441
vt 0.219730 0.018047
vt 0.205596 0.052572
vt 0.208438 0.007008
vt 0.416868 0.096084
vt 0.427732 0.096084
vt 0.427732 0.142108
vt 0.416868 0.142108
vt 0.222308 0.053189
vt 0.222204 0.007009
vt 0.416868 0.085877
vt 0.427732 0.085877
vt 0.784340 0.462261
vt 0.801195 0.418552
vt 0.815526 0.417500
vt 0.806815 0.472638
vt 0.845402 0.379883
vt 0.861093 0.380533
vt 0.539429 0.570848
vt 0.539429 0.664111
vt 0.527723 0.654929
vt 0.527723 0.580030
vt 0.830179 0.543688
vt 0.853335 0.550143
vt 0.807700 0.324855
vt 0.807700 0.319389
vt 0.885629 0.319389
vt 0.885629 0.324855
vt 0.753739 0.858153
vt 0.769285 0.872167
vt 0.770408 0.920636
vt 0.753739 0.937072
vt 0.818189 0.467972
vt 0.825536 0.424144
vt 0.860427 0.399357
vt 0.516749 0.592988
vt 0.516749 0.641970
vt 0.861093 0.519267
vt 0.482606 0.902470
vt 0.482606 0.942700
vt 0.448537 0.942700
vt 0.448537 0.902470
vt 0.802104 0.900515
vt 0.804812 0.906876
vt 0.801527 0.882565
vt 0.799668 0.888515
vt 0.797332 0.416827
vt 0.776317 0.461469
vt 0.830713 0.378428
vt 0.545922 0.656444
vt 0.545922 0.578514
vt 0.807173 0.538352
vt 0.979282 0.294929
vt 0.979282 0.372859
vt 0.913285 0.372859
vt 0.913285 0.294929
vt 0.782300 0.590946
vt 0.776834 0.590946
vt 0.776834 0.513016
vt 0.782300 0.513016
vt 0.897675 0.384277
vt 0.897675 0.389743
vt 0.795654 0.389743
vt 0.795654 0.384277
vt 0.599388 0.060391
vt 0.599388 0.070815
vt 0.366386 0.070813
vt 0.366386 0.060388
vt 0.595030 0.071758
vt 0.364023 0.071742
vt 0.206255 0.351497
vt 0.216680 0.351497
vt 0.216680 0.582504
vt 0.206256 0.582504
vt 0.595030 0.059448
vt 0.364023 0.059460
vt 0.206255 0.347039
vt 0.216680 0.347039
vt 0.492730 0.097084
vt 0.492730 0.086659
vt 0.495269 0.086659
vt 0.495269 0.097084
vt 0.492455 0.606361
vt 0.492455 0.616242
vt 0.262739 0.618102
vt 0.262620 0.607044
vt 0.492351 0.616431
vt 0.260202 0.619086
vt 0.223715 0.681826
vt 0.223715 0.692251
vt 0.007110 0.692251
vt 0.007110 0.681826
vt 0.492348 0.606186
vt 0.259954 0.606087
vt 0.271576 0.393937
vt 0.283529 0.394244
vt 0.280987 0.439812
vt 0.271490 0.439207
vt 0.285624 0.404681
vt 0.282782 0.450245
vt 0.386929 0.544156
vt 0.376065 0.544156
vt 0.376065 0.498132
vt 0.386929 0.498132
vt 0.268912 0.404064
vt 0.269016 0.450245
vt 0.386929 0.554364
vt 0.376065 0.554364
vt 0.508519 0.756200
vt 0.552229 0.773055
vt 0.553280 0.787386
vt 0.498142 0.778675
vt 0.590897 0.817262
vt 0.590247 0.832952
vt 0.207374 0.843809
vt 0.207374 0.937072
vt 0.195668 0.927890
vt 0.195668 0.852990
vt 0.427092 0.802039
vt 0.420638 0.825195
vt 0.914722 0.710616
vt 0.920187 0.710616
vt 0.920187 0.788545
vt 0.914722 0.788545
vt 0.987724 0.810828
vt 0.974777 0.806452
vt 0.974777 0.766222
vt 0.987724 0.761846
vt 0.502808 0.790049
vt 0.546636 0.797396
vt 0.571423 0.832287
vt 0.184694 0.865949
vt 0.184694 0.914931
vt 0.451513 0.832952
vt 0.623307 0.894028
vt 0.623307 0.934257
vt 0.589238 0.934257
vt 0.589238 0.894028
vt 0.940718 0.765386
vt 0.946255 0.760827
vt 0.946255 0.811847
vt 0.940718 0.807289
vt 0.236325 0.012926
vt 0.242006 0.017303
vt 0.242006 0.057532
vt 0.236325 0.061909
vt 0.553953 0.769191
vt 0.509311 0.748177
vt 0.592353 0.802572
vt 0.213866 0.929405
vt 0.213866 0.851475
vt 0.432428 0.779032
vt 0.979282 0.106389
vt 0.979282 0.184319
vt 0.913285 0.184319
vt 0.913285 0.106389
vt 0.751346 0.361603
vt 0.745880 0.361603
vt 0.745880 0.283673
vt 0.751346 0.283673
vt 0.855299 0.800591
vt 0.849834 0.800591
vt 0.849834 0.698570
vt 0.855299 0.698570
vt 0.008049 0.609702
vt 0.008049 0.599277
vt 0.241051 0.599279
vt 0.241051 0.609704
vt 0.012407 0.598334
vt 0.243413 0.598350
vt 0.348683 0.045024
vt 0.348683 0.034600
vt 0.579690 0.034600
vt 0.579690 0.045024
vt 0.012407 0.610644
vt 0.243413 0.610632
vt 0.344225 0.045024
vt 0.344225 0.034600
vt 0.368638 0.337108
vt 0.368638 0.347532
vt 0.366099 0.347533
vt 0.366099 0.337108
vt 0.006695 0.636020
vt 0.006692 0.626139
vt 0.236527 0.626743
vt 0.236412 0.637801
vt 0.006799 0.625964
vt 0.239192 0.625785
vt 0.669739 0.223715
vt 0.659314 0.223715
vt 0.659314 0.007110
vt 0.669739 0.007110
vt 0.006799 0.636209
vt 0.238949 0.638784
vt 0.292681 0.483986
vt 0.304634 0.484293
vt 0.302092 0.529860
vt 0.292596 0.529256
vt 0.306729 0.494730
vt 0.303887 0.540293
vt 0.445008 0.096084
vt 0.455873 0.096084
vt 0.455873 0.142108
vt 0.445008 0.142108
vt 0.290017 0.494113
vt 0.290121 0.540293
vt 0.445008 0.085877
vt 0.455873 0.085877
vt 0.274504 0.757655
vt 0.319230 0.765946
vt 0.322922 0.782175
vt 0.267197 0.779892
vt 0.374193 0.812445
vt 0.375673 0.831240
vt 0.654804 0.255677
vt 0.654804 0.348940
vt 0.643098 0.339758
vt 0.643098 0.264858
vt 0.206382 0.807487
vt 0.202767 0.828793
vt 0.481816 0.880953
vt 0.481816 0.886419
vt 0.403886 0.886419
vt 0.403886 0.880953
vt 0.943532 0.829383
vt 0.956479 0.833759
vt 0.956479 0.873989
vt 0.943532 0.878365
vt 0.272850 0.790526
vt 0.317091 0.793509
vt 0.351953 0.832952
vt 0.632124 0.277817
vt 0.632124 0.326799
vt 0.230689 0.832952
vt 0.979282 0.525391
vt 0.979282 0.565620
vt 0.945213 0.565620
vt 0.945213 0.525391
vt 0.990538 0.874825
vt 0.985001 0.879384
vt 0.985001 0.828364
vt 0.990538 0.832922
vt 0.472703 0.086091
vt 0.478385 0.090468
vt 0.478385 0.130697
vt 0.472703 0.135073
vt 0.321062 0.759034
vt 0.274416 0.753441
vt 0.374117 0.794954
vt 0.661297 0.341273
vt 0.661297 0.263343
vt 0.209480 0.785824
vt 0.979282 0.200659
vt 0.979282 0.278589
vt 0.913285 0.278589
vt 0.913285 0.200659
vt 0.801998 0.633156
vt 0.796532 0.633156
vt 0.796532 0.555227
vt 0.801998 0.555227
vt 0.391840 0.821531
vt 0.391840 0.816065
vt 0.493862 0.816065
vt 0.493862 0.821531
vt 0.604905 0.086842
vt 0.615330 0.086842
vt 0.615328 0.319844
vt 0.604903 0.319844
vt 0.616272 0.091200
vt 0.616257 0.322206
vt 0.341648 0.018291
vt 0.341648 0.007867
vt 0.572655 0.007867
vt 0.572655 0.018291
vt 0.603963 0.091200
vt 0.603974 0.322206
vt 0.337189 0.018291
vt 0.337189 0.007867
vt 0.413662 0.202034
vt 0.413662 0.212459
vt 0.411124 0.212459
vt 0.411124 0.202034
vt 0.644021 0.239192
vt 0.634139 0.239188
vt 0.632396 0.009463
vt 0.643455 0.009466
vt 0.633950 0.239085
vt 0.631407 0.006809
vt 0.684640 0.007110
vt 0.695065 0.007110
vt 0.695065 0.223715
vt 0.684640 0.223715
vt 0.644196 0.239085
vt 0.644413 0.006919
s 0
usemtl Материал
f 34/1/1 35/2/1 36/3/1 33/4/1
f 33/5/2 36/6/2 9/7/2 10/8/2
f 8/9/3 6/10/3 16/11/3 13/12/3
f 11/13/4 12/14/4 35/15/4 34/16/4
f 33/17/3 10/18/3 11/19/3 34/20/3
f 9/7/5 36/6/5 35/15/5 12/14/5
f 8/9/6 7/21/6 10/8/6 9/7/6
f 7/22/6 5/23/6 11/19/6 10/18/6
f 6/10/6 8/9/6 9/7/6 12/14/6
f 5/24/6 6/10/6 12/14/6 11/13/6
f 14/25/6 13/26/6 16/27/6 15/28/6
f 7/21/4 8/9/4 13/12/4 14/29/4
f 6/10/2 5/24/2 15/30/2 16/11/2
f 5/23/5 7/22/5 14/31/5 15/32/5
f 38/33/6 37/34/6 40/35/6 39/36/6
f 37/37/2 26/38/2 25/39/2 40/40/2
f 24/41/3 29/42/3 32/43/3 22/44/3
f 27/45/4 38/46/4 39/47/4 28/48/4
f 37/49/3 38/50/3 27/51/3 26/52/3
f 25/39/5 28/48/5 39/47/5 40/40/5
f 24/41/1 25/39/1 26/38/1 23/53/1
f 23/54/1 26/52/1 27/51/1 21/55/1
f 22/44/1 28/48/1 25/39/1 24/41/1
f 21/56/1 27/45/1 28/48/1 22/44/1
f 30/57/1 31/58/1 32/59/1 29/60/1
f 23/53/4 30/61/4 29/42/4 24/41/4
f 22/44/2 32/43/2 31/62/2 21/56/2
f 21/55/5 31/63/5 30/64/5 23/54/5
f 17/65/4 1/66/4 2/67/4 18/68/4
f 19/69/3 3/70/3 1/71/3 17/72/3
f 20/73/2 4/74/2 3/75/2 19/76/2
f 18/68/5 2/67/5 4/74/5 20/73/5
f 1/77/7 3/78/7 33/79/7 34/80/7
f 2/81/8 1/82/8 34/83/8 35/84/8
f 4/85/9 2/81/9 35/84/9 36/86/9
f 3/87/10 4/85/10 36/86/10 33/88/10
f 19/89/11 17/90/11 38/91/11 37/92/11
f 17/93/12 18/94/12 39/95/12 38/96/12
f 18/94/13 20/97/13 40/98/13 39/95/13
f 20/97/14 19/99/14 37/100/14 40/98/14
f 41/101/15 42/102/15 44/103/15 43/104/15
f 43/104/16 44/103/16 46/105/16 45/106/16
f 45/106/17 46/105/17 48/107/17 47/108/17
f 47/108/18 48/107/18 50/109/18 49/110/18
f 49/111/19 50/112/19 52/113/19 51/114/19
f 51/114/20 52/113/20 54/115/20 53/116/20
f 44/117/5 42/118/5 56/119/5 54/120/5 52/121/5 50/122/5 48/123/5 46/124/5
f 53/116/21 54/115/21 56/125/21 55/126/21
f 55/126/22 56/125/22 42/102/22 41/101/22
f 41/127/3 43/128/3 45/129/3 47/130/3 49/131/3 51/132/3 53/133/3 55/134/3
f 57/135/23 58/136/23 60/137/23 59/138/23
f 59/138/2 60/137/2 64/139/2 63/140/2
f 63/141/24 64/142/24 62/143/24 61/144/24
f 61/145/4 62/146/4 58/136/4 57/135/4
f 59/147/25 63/141/25 61/144/25 57/148/25
f 64/139/26 60/137/26 58/136/26 62/146/26
f 82/149/27 73/150/27 74/151/27 81/152/27
f 81/152/28 74/151/28 75/153/28 83/154/28
f 83/155/29 75/156/29 76/157/29 84/158/29
f 84/159/30 76/160/30 73/150/30 82/149/30
f 71/161/31 69/162/31 88/163/31 87/164/31
f 68/165/32 66/166/32 77/167/32 78/168/32
f 66/169/33 68/170/33 74/151/33 73/150/33
f 68/170/34 72/171/34 75/153/34 74/151/34
f 72/172/33 70/173/33 76/157/33 75/156/33
f 70/174/34 66/169/34 73/150/34 76/160/34
f 79/175/34 78/176/34 77/177/34 80/178/34
f 66/166/35 70/179/35 80/180/35 77/167/35
f 72/181/36 68/165/36 78/168/36 79/182/36
f 70/183/37 72/184/37 79/185/37 80/186/37
f 67/187/38 65/188/38 82/149/38 81/152/38
f 71/189/38 67/187/38 81/152/38 83/154/38
f 69/190/39 71/191/39 83/155/39 84/158/39
f 65/188/38 69/192/38 84/159/38 82/149/38
f 85/193/38 87/194/38 88/195/38 86/196/38
f 65/197/40 67/198/40 85/199/40 86/200/40
f 69/201/2 65/197/2 86/200/2 88/202/2
f 67/198/4 71/203/4 87/204/4 85/199/4
f 89/205/41 90/206/41 92/207/41 91/208/41
f 91/208/2 92/207/2 96/209/2 95/210/2
f 95/211/42 96/212/42 94/213/42 93/214/42
f 93/215/4 94/216/4 90/206/4 89/205/4
f 91/217/43 95/211/43 93/214/43 89/218/43
f 96/219/44 92/220/44 90/221/44 94/222/44
f 97/223/45 90/224/45 92/225/45 98/226/45
f 98/226/2 92/225/2 96/227/2 100/228/2
f 100/229/46 96/230/46 94/231/46 99/232/46
f 99/233/4 94/234/4 90/224/4 97/223/4
f 98/226/47 100/228/47 99/233/47 97/223/47
f 101/235/23 102/236/23 104/237/23 103/238/23
f 103/238/2 104/237/2 108/239/2 107/240/2
f 107/241/24 108/242/24 106/243/24 105/244/24
f 105/245/4 106/246/4 102/236/4 101/235/4
f 103/247/25 107/241/25 105/244/25 101/248/25
f 108/239/26 104/237/26 102/236/26 106/246/26
f 126/249/27 117/250/27 118/251/27 125/252/27
f 125/252/28 118/251/28 119/253/28 127/254/28
f 127/255/29 119/256/29 120/257/29 128/258/29
f 128/259/30 120/260/30 117/250/30 126/249/30
f 115/261/31 113/262/31 132/263/31 131/264/31
f 112/265/32 110/266/32 121/267/32 122/268/32
f 110/269/33 112/270/33 118/251/33 117/250/33
f 112/270/34 116/271/34 119/253/34 118/251/34
f 116/272/33 114/273/33 120/257/33 119/256/33
f 114/274/34 110/269/34 117/250/34 120/260/34
f 123/275/33 122/276/33 121/277/33 124/278/33
f 110/266/35 114/279/35 124/280/35 121/267/35
f 116/281/36 112/265/36 122/268/36 123/282/36
f 114/279/37 116/281/37 123/282/37 124/280/37
f 111/283/39 109/284/39 126/249/39 125/252/39
f 115/285/38 111/283/38 125/252/38 127/254/38
f 113/286/38 115/287/38 127/255/38 128/258/38
f 109/284/38 113/288/38 128/259/38 126/249/38
f 129/289/38 131/290/38 132/291/38 130/292/38
f 109/293/40 111/294/40 129/295/40 130/296/40
f 113/262/2 109/297/2 130/298/2 132/263/2
f 111/299/4 115/261/4 131/264/4 129/300/4
f 133/301/41 134/302/41 136/303/41 135/304/41
f 135/304/2 136/303/2 140/305/2 139/306/2
f 139/307/42 140/308/42 138/309/42 137/310/42
f 137/311/4 138/312/4 134/302/4 133/301/4
f 135/313/43 139/307/43 137/310/43 133/314/43
f 140/315/44 136/316/44 134/317/44 138/318/44
f 141/319/45 134/320/45 136/321/45 142/322/45
f 142/322/2 136/321/2 140/323/2 144/324/2
f 144/325/46 140/326/46 138/327/46 143/328/46
f 143/329/4 138/330/4 134/320/4 141/319/4
f 142/322/48 144/324/48 143/329/48 141/319/48
f 145/331/23 146/332/23 148/333/23 147/334/23
f 147/334/2 148/333/2 152/335/2 151/336/2
f 151/337/24 152/338/24 150/339/24 149/340/24
f 149/341/4 150/342/4 146/332/4 145/331/4
f 147/343/25 151/337/25 149/340/25 145/344/25
f 152/335/26 148/333/26 146/332/26 150/342/26
f 170/345/27 161/346/27 162/347/27 169/348/27
f 169/348/28 162/347/28 163/349/28 171/350/28
f 171/351/29 163/352/29 164/353/29 172/354/29
f 172/355/30 164/356/30 161/346/30 170/345/30
f 159/357/31 157/358/31 176/359/31 175/360/31
f 156/361/32 154/362/32 165/363/32 166/364/32
f 154/365/33 156/366/33 162/347/33 161/346/33
f 156/366/34 160/367/34 163/349/34 162/347/34
f 160/368/33 158/369/33 164/353/33 163/352/33
f 158/370/34 154/365/34 161/346/34 164/356/34
f 167/371/34 166/372/34 165/373/34 168/374/34
f 154/362/35 158/375/35 168/376/35 165/363/35
f 160/377/36 156/361/36 166/364/36 167/378/36
f 158/379/37 160/377/37 167/378/37 168/380/37
f 155/381/39 153/382/39 170/345/39 169/348/39
f 159/383/39 155/381/39 169/348/39 171/350/39
f 157/384/38 159/385/38 171/351/38 172/354/38
f 153/382/38 157/386/38 172/355/38 170/345/38
f 173/387/38 175/388/38 176/389/38 174/390/38
f 153/391/40 155/392/40 173/393/40 174/394/40
f 157/358/2 153/395/2 174/396/2 176/359/2
f 155/397/4 159/357/4 175/360/4 173/398/4
f 177/399/41 178/400/41 180/401/41 179/402/41
f 179/402/2 180/401/2 184/403/2 183/404/2
f 183/405/42 184/406/42 182/407/42 181/408/42
f 181/409/4 182/410/4 178/400/4 177/399/4
f 179/411/43 183/405/43 181/408/43 177/412/43
f 184/413/44 180/414/44 178/415/44 182/416/44
f 185/417/45 178/418/45 180/419/45 186/420/45
f 186/420/2 180/419/2 184/421/2 188/422/2
f 188/423/46 184/424/46 182/425/46 187/426/46
f 187/427/4 182/428/4 178/418/4 185/417/4
f 186/420/47 188/422/47 187/427/47 185/417/47
f 189/429/49 191/430/49 192/431/49 190/432/49
f 191/430/2 195/433/2 196/434/2 192/431/2
f 195/435/50 193/436/50 194/437/50 196/438/50
f 193/439/4 189/429/4 190/432/4 194/440/4
f 191/441/51 189/442/51 193/436/51 195/435/51
f 196/434/52 194/440/52 190/432/52 192/431/52
f 214/443/53 213/444/53 206/445/53 205/446/53
f 213/444/54 215/447/54 207/448/54 206/445/54
f 215/449/55 216/450/55 208/451/55 207/452/55
f 216/453/56 214/443/56 205/446/56 208/454/56
f 203/455/57 219/456/57 220/457/57 201/458/57
f 200/459/58 210/460/58 209/461/58 198/462/58
f 198/463/59 205/446/59 206/445/59 200/464/59
f 200/464/60 206/445/60 207/448/60 204/465/60
f 204/466/59 207/452/59 208/451/59 202/467/59
f 202/468/60 208/454/60 205/446/60 198/463/60
f 211/469/60 212/470/60 209/471/60 210/472/60
f 198/462/61 209/461/61 212/473/61 202/474/61
f 204/475/62 211/476/62 210/460/62 200/459/62
f 202/474/63 212/473/63 211/476/63 204/475/63
f 199/477/64 213/444/64 214/443/64 197/478/64
f 203/479/65 215/447/65 213/444/65 199/477/65
f 201/480/64 216/450/64 215/449/64 203/481/64
f 197/478/65 214/443/65 216/453/65 201/482/65
f 217/483/65 218/484/65 220/485/65 219/486/65
f 197/487/66 218/488/66 217/489/66 199/490/66
f 201/458/2 220/457/2 218/491/2 197/492/2
f 199/493/4 217/494/4 219/456/4 203/455/4
f 221/495/67 223/496/67 224/497/67 222/498/67
f 223/496/2 227/499/2 228/500/2 224/497/2
f 227/501/68 225/502/68 226/503/68 228/504/68
f 225/505/4 221/495/4 222/498/4 226/506/4
f 223/507/69 221/508/69 225/502/69 227/501/69
f 228/509/70 226/510/70 222/511/70 224/512/70
f 229/513/71 230/514/71 224/515/71 222/516/71
f 230/514/2 232/517/2 228/518/2 224/515/2
f 232/519/72 231/520/72 226/521/72 228/522/72
f 231/523/4 229/513/4 222/516/4 226/524/4
f 230/514/73 229/513/73 231/523/73 232/517/73
f 233/525/49 235/526/49 236/527/49 234/528/49
f 235/526/2 239/529/2 240/530/2 236/527/2
f 239/531/50 237/532/50 238/533/50 240/534/50
f 237/535/4 233/525/4 234/528/4 238/536/4
f 235/537/51 233/538/51 237/532/51 239/531/51
f 240/530/52 238/536/52 234/528/52 236/527/52
f 258/539/53 257/540/53 250/541/53 249/542/53
f 257/540/54 259/543/54 251/544/54 250/541/54
f 259/545/55 260/546/55 252/547/55 251/548/55
f 260/549/56 258/539/56 249/542/56 252/550/56
f 247/551/57 263/552/57 264/553/57 245/554/57
f 244/555/58 254/556/58 253/557/58 242/558/58
f 242/559/59 249/542/59 250/541/59 244/560/59
f 244/560/60 250/541/60 251/544/60 248/561/60
f 248/562/59 251/548/59 252/547/59 246/563/59
f 246/564/60 252/550/60 249/542/60 242/559/60
f 255/565/60 256/566/60 253/567/60 254/568/60
f 242/558/61 253/557/61 256/569/61 246/570/61
f 248/571/62 255/572/62 254/556/62 244/555/62
f 246/573/63 256/574/63 255/575/63 248/576/63
f 243/577/64 257/540/64 258/539/64 241/578/64
f 247/579/65 259/543/65 257/540/65 243/577/65
f 245/580/65 260/546/65 259/545/65 247/581/65
f 241/578/65 258/539/65 260/549/65 245/582/65
f 261/583/65 262/584/65 264/585/65 263/586/65
f 241/587/66 262/588/66 261/589/66 243/590/66
f 245/554/2 264/553/2 262/591/2 241/592/2
f 243/593/4 261/594/4 263/552/4 247/551/4
f 265/595/67 267/596/67 268/597/67 266/598/67
f 267/596/2 271/599/2 272/600/2 268/597/2
f 271/601/68 269/602/68 270/603/68 272/604/68
f 269/605/4 265/595/4 266/598/4 270/606/4
f 267/607/69 265/608/69 269/602/69 271/601/69
f 272/609/70 270/610/70 266/611/70 268/612/70
f 273/613/71 274/614/71 268/615/71 266/616/71
f 274/614/2 276/617/2 272/618/2 268/615/2
f 276/619/72 275/620/72 270/621/72 272/622/72
f 275/623/4 273/613/4 266/616/4 270/624/4
f 274/614/74 273/613/74 275/623/74 276/617/74
f 277/625/49 279/626/49 280/627/49 278/628/49
f 279/626/2 283/629/2 284/630/2 280/627/2
f 283/631/50 281/632/50 282/633/50 284/634/50
f 281/635/4 277/625/4 278/628/4 282/636/4
f 279/637/51 277/638/51 281/632/51 283/631/51
f 284/630/52 282/636/52 278/628/52 280/627/52
f 302/639/53 301/640/53 294/641/53 293/642/53
f 301/640/54 303/643/54 295/644/54 294/641/54
f 303/645/55 304/646/55 296/647/55 295/648/55
f 304/649/56 302/639/56 293/642/56 296/650/56
f 291/651/57 307/652/57 308/653/57 289/654/57
f 288/655/58 298/656/58 297/657/58 286/658/58
f 286/659/60 293/642/60 294/641/60 288/660/60
f 288/660/60 294/641/60 295/644/60 292/661/60
f 292/662/59 295/648/59 296/647/59 290/663/59
f 290/664/60 296/650/60 293/642/60 286/659/60
f 299/665/60 300/666/60 297/667/60 298/668/60
f 286/658/61 297/657/61 300/669/61 290/670/61
f 292/671/62 299/672/62 298/656/62 288/655/62
f 290/673/63 300/674/63 299/675/63 292/676/63
f 287/677/64 301/640/64 302/639/64 285/678/64
f 291/679/65 303/643/65 301/640/65 287/677/65
f 289/680/65 304/646/65 303/645/65 291/681/65
f 285/678/65 302/639/65 304/649/65 289/682/65
f 305/683/65 306/684/65 308/685/65 307/686/65
f 285/687/66 306/688/66 305/689/66 287/690/66
f 289/654/2 308/653/2 306/691/2 285/692/2
f 287/693/4 305/694/4 307/652/4 291/651/4
f 309/695/67 311/696/67 312/697/67 310/698/67
f 311/696/2 315/699/2 316/700/2 312/697/2
f 315/701/68 313/702/68 314/703/68 316/704/68
f 313/705/4 309/695/4 310/698/4 314/706/4
f 311/707/69 309/708/69 313/702/69 315/701/69
f 316/709/70 314/710/70 310/711/70 312/712/70
f 317/713/71 318/714/71 312/715/71 310/716/71
f 318/714/2 320/717/2 316/718/2 312/715/2
f 320/719/72 319/720/72 314/721/72 316/722/72
f 319/723/4 317/713/4 310/716/4 314/724/4
f 318/714/73 317/713/73 319/723/73 320/717/73
