# Blender 4.2.2 LTS
# www.blender.org
mtllib car.mtl
o car
v 2.335784 1.043102 3.630934
v 3.192431 0.764535 9.278678
v 3.372783 3.388361 -5.941054
v 3.192431 0.764535 2.287546
v 2.335784 1.043102 6.566600
v 3.372783 5.696791 2.448741
v 2.335784 2.081016 6.136682
v 2.335784 2.510934 5.098767
v 3.372783 5.669753 -4.667572
v 2.335784 2.081016 4.060853
v 3.372783 3.351746 5.123788
v 3.247655 2.513611 8.780379
v 3.372783 1.757461 9.576902
v 3.192432 0.761898 -8.077779
v 3.372784 2.328456 -8.449754
v 3.372783 5.696791 -1.126326
v 3.192431 0.764535 -1.390462
v 3.372783 1.757540 -1.410915
v 3.372783 1.756981 2.467203
v 2.335784 1.043102 -7.231031
v 3.372783 1.757398 -7.850225
v 3.372784 1.757252 -8.449754
v 2.335784 1.043102 -4.295365
v 3.572783 1.757398 -7.850225
v 2.335784 2.081016 -4.725283
v 2.335784 2.510934 -5.763198
v 3.381834 0.764535 2.282165
v 2.335784 2.081016 -6.801113
v 3.572783 1.756981 2.467203
v 3.381834 0.764535 -1.390462
v 3.381834 0.764535 9.281949
v 3.572783 1.757461 9.576902
v 3.572784 1.757252 -8.449754
v 3.381835 0.761898 -8.077779
v 3.572783 1.757540 -1.410915
v 3.192395 0.816441 9.464100
v 3.381798 0.816441 9.464100
v 3.372746 1.812272 9.769245
v 3.572746 1.812272 9.769245
v 3.572784 1.757252 -8.649755
v 3.372784 1.757252 -8.649755
v 3.192432 0.761898 -8.267181
v 3.381835 0.761898 -8.267181
v 3.381834 0.764535 6.451214
v 2.335784 0.765718 5.442162
v 2.339167 0.765126 6.444638
v 3.372783 1.757455 -6.935137
v 3.572783 1.757455 -6.935137
v 2.335536 0.765089 -7.113153
v 2.339167 0.765126 3.743559
v 3.381834 0.764535 3.746321
v 3.372783 1.757680 6.270612
v 3.572783 1.757680 6.270612
v 3.381834 0.764487 -7.115625
v 3.381834 0.764535 -4.410751
v 2.335784 0.765718 -4.410262
v 3.372783 2.510934 5.098767
v 3.372783 2.081016 4.060853
v 3.372783 1.757300 3.926765
v 3.372783 2.218814 5.804009
v 3.372783 2.081016 6.136682
v 3.372783 2.081016 -6.801113
v 3.372783 2.510934 -5.763198
v 3.372783 2.293695 -5.238737
v 3.372783 1.757628 -4.591331
v 3.372783 2.081016 -4.725283
v 3.435405 1.043102 6.566600
v 3.443116 1.083177 -7.214432
v 3.572783 1.757300 3.926765
v 3.435392 1.043102 3.630934
v 3.435410 1.043102 -7.231031
v 3.435400 1.043102 -4.295365
v 3.572783 1.757628 -4.591331
v 3.372783 3.351715 -1.126326
v 3.372783 3.387368 -5.237801
v 3.372783 3.351716 2.467179
v -0.030893 3.236423 -7.320366
v -0.030893 2.328456 -8.449754
v -0.030893 3.239323 5.702151
v -0.030893 2.513611 8.780379
v -0.030893 0.768986 9.281949
v -0.030893 5.912825 -1.410915
v -0.030893 5.828644 2.569062
v -0.030893 5.832787 -5.300988
v -0.030893 1.757461 9.576902
v -0.030893 0.766349 -8.077779
v -0.030893 1.757679 -8.449754
v -0.030893 0.820892 9.464100
v -0.030893 1.812272 9.769245
v -0.030893 0.766349 -8.267181
v -0.030893 1.757679 -8.649755
v 3.082320 5.828644 2.569062
v 3.372783 5.669753 -1.841939
v 3.082320 3.239323 5.702151
v 3.372783 3.387365 -1.841939
v 3.372783 3.155105 2.467203
v 3.098806 3.236423 -7.320366
v 3.098806 5.832787 -5.300987
v 3.372783 5.912825 -1.410914
v 3.372783 3.155104 -1.410915
v 3.372783 3.155107 -5.238737
v 3.178370 5.669753 -4.667572
v 3.178370 3.387368 -5.237801
v 3.178370 5.696791 2.448741
v 3.178370 3.351716 2.467179
v 3.178370 5.696791 -1.126326
v 3.178370 3.351746 5.123788
v 3.178370 3.351715 -1.126326
v 3.178370 3.388361 -5.941054
v 3.178370 5.669753 -1.841939
v 3.178370 3.387365 -1.841939
v -2.397570 1.043102 3.630934
v -3.254218 0.764535 9.285489
v -3.434570 3.388361 -5.941054
v -3.254218 0.764535 2.287546
v -2.397570 1.043102 6.566600
v -3.434570 5.696791 2.448741
v -2.397570 2.081016 6.136682
v -2.397570 2.510934 5.098767
v -3.434570 5.669753 -4.667572
v -2.397570 2.081016 4.060853
v -3.434570 3.351746 5.123788
v -3.309441 2.513611 8.780379
v -3.434570 1.757461 9.576902
v -3.254218 0.761898 -8.077779
v -3.434570 2.328456 -8.449754
v -3.434570 5.696791 -1.126326
v -3.254218 0.764535 -1.390462
v -3.434570 1.757540 -1.410915
v -3.434570 1.756981 2.467203
v -2.397570 1.043102 -7.231031
v -3.434570 1.757398 -7.850225
v -3.434570 1.757252 -8.449754
v -2.397570 1.043102 -4.295365
v -3.634570 1.757398 -7.850225
v -2.397570 2.081016 -4.725283
v -2.397570 2.510934 -5.763198
v -3.443621 0.764535 2.282165
v -2.397570 2.081016 -6.801113
v -3.634570 1.756981 2.467203
v -3.443621 0.764535 -1.390462
v -3.443621 0.764535 9.281949
v -3.634570 1.757461 9.576902
v -3.634571 1.757252 -8.449754
v -3.443621 0.761898 -8.077779
v -3.634570 1.757540 -1.410915
v -3.254182 0.816441 9.464100
v -3.443585 0.816441 9.464100
v -3.434532 1.812272 9.769245
v -3.634532 1.812272 9.769245
v -3.634571 1.757252 -8.649755
v -3.434570 1.757252 -8.649755
v -3.254218 0.761898 -8.267181
v -3.443621 0.761898 -8.267181
v -3.443621 0.764535 6.451214
v -2.397570 0.765718 5.442162
v -2.397329 0.765126 6.444638
v -3.434570 1.757455 -6.935137
v -3.634570 1.757455 -6.935137
v -2.397267 0.764834 -7.114201
v -2.397570 0.765718 3.745831
v -3.443621 0.764535 3.746321
v -3.434570 1.757680 6.270612
v -3.634570 1.757680 6.270612
v -3.443621 0.764487 -7.115625
v -3.443621 0.764535 -4.410751
v -2.397570 0.765718 -4.410262
v -3.434570 2.510934 5.098767
v -3.434570 2.081016 4.060853
v -3.434570 1.757300 3.926765
v -3.434570 2.218814 5.804009
v -3.434570 2.081016 6.136682
v -3.434570 2.081016 -6.801113
v -3.434570 2.510934 -5.763198
v -3.434570 2.293695 -5.238737
v -3.434570 1.757628 -4.591331
v -3.434570 2.081016 -4.725283
v -3.497191 1.043102 6.566600
v -3.504903 1.083177 -7.214432
v -3.634570 1.757300 3.926765
v -3.497178 1.043102 3.630934
v -3.497197 1.043102 -7.231031
v -3.497186 1.043102 -4.295365
v -3.634570 1.757628 -4.591331
v -3.434570 3.351715 -1.126326
v -3.434570 3.387368 -5.237801
v -3.434570 3.351716 2.467179
v -3.144107 5.828644 2.569062
v -3.434570 5.669753 -1.841939
v -3.144107 3.239323 5.702151
v -3.434570 3.387365 -1.841939
v -3.434570 3.155105 2.467203
v -3.160593 3.236423 -7.320366
v -3.160593 5.832787 -5.300987
v -3.434570 5.912825 -1.410914
v -3.434570 3.155104 -1.410915
v -3.434570 3.155107 -5.238737
v -3.240157 5.669753 -4.667572
v -3.240157 3.387368 -5.237801
v -3.240157 5.696791 2.448741
v -3.240157 3.351716 2.467179
v -3.240157 5.696791 -1.126326
v -3.240157 3.351746 5.123788
v -3.240157 3.351715 -1.126326
v -3.240157 3.388361 -5.941054
v -3.240157 5.669753 -1.841939
v -3.240157 3.387365 -1.841939
v -0.030893 5.912825 2.467203
v 3.372783 5.912825 2.467203
v 3.247655 3.199057 5.995514
v -0.030893 3.199057 5.995514
v -3.434570 5.912825 2.467203
v -3.309441 3.199057 5.995514
v -0.030893 3.156385 -7.382617
v 3.372783 3.156385 -7.382617
v 3.372783 5.912825 -5.238736
v -0.030893 5.912825 -5.238737
v -3.434570 3.156385 -7.382617
v -3.434570 5.912825 -5.238736
v 3.372783 3.155142 5.804009
v 3.372783 2.482620 8.924161
v -0.030893 2.482620 8.924161
v -0.030893 3.155142 5.804009
v -3.434570 3.155142 5.804009
v -3.434570 2.482620 8.924161
v 2.334171 0.761898 -8.077779
v -2.396071 0.761898 -8.077779
v 2.335784 0.765718 -1.392329
v -2.397570 0.765718 -1.392329
v -2.396993 0.764535 2.287546
v -2.397087 0.764535 3.741287
v 2.342560 0.764535 2.287546
v 2.806245 1.128845 3.769845
v 2.806245 0.188809 4.159221
v 2.806245 -0.200566 5.099257
v 2.806245 0.188809 6.039292
v 2.806245 1.128845 6.428668
v 2.806245 2.068881 6.039292
v 2.806245 2.458256 5.099257
v 2.806245 2.068881 4.159221
v 3.776532 1.128845 4.205442
v 3.629669 1.128845 3.769845
v 3.776532 0.496823 4.467234
v 3.629669 0.188810 4.159221
v 3.776532 0.235031 5.099257
v 3.629669 -0.200566 5.099257
v 3.776532 0.496823 5.731278
v 3.629669 0.188810 6.039292
v 3.776532 1.128845 5.993071
v 3.629669 1.128845 6.428668
v 3.776532 1.760867 5.731278
v 3.629669 2.068881 6.039292
v 3.776532 2.022659 5.099257
v 3.629669 2.458256 5.099257
v 3.776532 1.760867 4.467235
v 3.629669 2.068881 4.159221
v 3.703729 1.128845 4.205442
v 3.703729 0.496823 4.467234
v 3.703729 0.235031 5.099257
v 3.703729 0.496823 5.731278
v 3.703729 1.128845 5.993071
v 3.703729 1.760867 5.731278
v 3.703729 2.022659 5.099257
v 3.703729 1.760867 4.467235
v -2.868032 1.128845 3.769846
v -2.868032 0.188810 4.159222
v -2.868032 -0.200566 5.099257
v -2.868032 0.188810 6.039292
v -2.868032 1.128845 6.428668
v -2.868032 2.068881 6.039292
v -2.868032 2.458256 5.099257
v -2.868032 2.068881 4.159222
v -3.838319 1.128845 4.205442
v -3.691456 1.128845 3.769846
v -3.838319 0.496823 4.467235
v -3.691457 0.188810 4.159222
v -3.838319 0.235031 5.099257
v -3.691457 -0.200566 5.099257
v -3.838319 0.496823 5.731279
v -3.691457 0.188810 6.039292
v -3.838319 1.128845 5.993072
v -3.691456 1.128845 6.428668
v -3.838319 1.760867 5.731279
v -3.691456 2.068881 6.039292
v -3.838319 2.022659 5.099257
v -3.691456 2.458256 5.099257
v -3.838319 1.760867 4.467235
v -3.691456 2.068881 4.159222
v -3.765516 1.128845 4.205442
v -3.765516 0.496823 4.467235
v -3.765516 0.235031 5.099257
v -3.765516 0.496823 5.731279
v -3.765516 1.128845 5.993072
v -3.765516 1.760867 5.731279
v -3.765515 2.022659 5.099257
v -3.765516 1.760867 4.467235
v 2.806245 1.128845 -7.062599
v 2.806245 0.188810 -6.673223
v 2.806245 -0.200566 -5.733187
v 2.806245 0.188810 -4.793152
v 2.806245 1.128845 -4.403776
v 2.806245 2.068881 -4.793152
v 2.806245 2.458256 -5.733187
v 2.806245 2.068881 -6.673223
v 3.776532 1.128845 -6.627002
v 3.629669 1.128845 -7.062599
v 3.776532 0.496823 -6.365210
v 3.629670 0.188810 -6.673223
v 3.776532 0.235031 -5.733187
v 3.629670 -0.200566 -5.733187
v 3.776532 0.496823 -5.101165
v 3.629670 0.188810 -4.793152
v 3.776532 1.128845 -4.839373
v 3.629669 1.128845 -4.403776
v 3.776532 1.760867 -5.101165
v 3.629669 2.068881 -4.793152
v 3.776532 2.022660 -5.733187
v 3.629669 2.458256 -5.733187
v 3.776532 1.760867 -6.365210
v 3.629669 2.068881 -6.673223
v 3.703729 1.128845 -6.627002
v 3.703729 0.496823 -6.365210
v 3.703729 0.235031 -5.733187
v 3.703729 0.496823 -5.101165
v 3.703729 1.128845 -4.839373
v 3.703729 1.760867 -5.101165
v 3.703729 2.022660 -5.733187
v 3.703729 1.760867 -6.365210
v -2.868031 1.128845 -7.062599
v -2.868031 0.188810 -6.673223
v -2.868031 -0.200566 -5.733187
v -2.868031 0.188810 -4.793152
v -2.868031 1.128845 -4.403775
v -2.868031 2.068881 -4.793152
v -2.868031 2.458256 -5.733187
v -2.868031 2.068881 -6.673223
v -3.838318 1.128845 -6.627002
v -3.691456 1.128845 -7.062599
v -3.838318 0.496823 -6.365209
v -3.691456 0.188810 -6.673223
v -3.838318 0.235031 -5.733187
v -3.691456 -0.200566 -5.733187
v -3.838318 0.496823 -5.101164
v -3.691456 0.188810 -4.793152
v -3.838318 1.128845 -4.839373
v -3.691456 1.128845 -4.403775
v -3.838318 1.760867 -5.101164
v -3.691456 2.068881 -4.793152
v -3.838318 2.022660 -5.733186
v -3.691456 2.458256 -5.733187
v -3.838318 1.760867 -6.365209
v -3.691456 2.068881 -6.673223
v -3.765515 1.128845 -6.627002
v -3.765515 0.496823 -6.365209
v -3.765515 0.235031 -5.733187
v -3.765515 0.496823 -5.101164
v -3.765515 1.128845 -4.839373
v -3.765515 1.760867 -5.101164
v -3.765515 2.022660 -5.733186
v -3.765515 1.760867 -6.365209
v 3.419848 3.194810 4.789867
v 3.827205 3.536201 4.589113
v 3.292259 3.256000 4.635028
v 3.699615 3.597391 4.434273
v 3.336496 2.840450 4.718513
v 3.985030 3.518533 4.452081
v 3.208906 2.901640 4.563674
v 3.857440 3.579723 4.297241
v 3.781789 3.376534 4.603920
v 3.617846 3.455158 4.404963
v 3.789795 4.103347 4.519429
v 4.428673 3.494212 4.022005
v 4.350382 3.531759 3.926993
v 4.432497 3.841302 3.981657
v 3.921824 3.848346 4.692582
v 3.914169 4.045247 4.660921
v 4.471219 3.824279 4.019204
v 4.478874 3.627377 4.050864
v -3.481634 3.194810 4.789867
v -3.888992 3.536201 4.589113
v -3.354044 3.256000 4.635028
v -3.761401 3.597391 4.434274
v -3.398281 2.840450 4.718513
v -4.046816 3.518533 4.452081
v -3.270692 2.901640 4.563674
v -3.919226 3.579723 4.297242
v -3.843574 3.376534 4.603920
v -3.679632 3.455158 4.404963
v -3.851581 4.103348 4.519430
v -4.490459 3.494212 4.022005
v -4.412168 3.531759 3.926994
v -4.494284 3.841302 3.981657
v -3.983612 3.848346 4.692582
v -3.975956 4.045247 4.660922
v -4.533005 3.824279 4.019204
v -4.540660 3.627378 4.050865
v 2.695853 5.848437 2.088745
v 2.695853 6.088093 2.088745
v 2.695853 5.848437 -4.874997
v 2.695853 6.088093 -4.874997
v 2.935509 5.848437 2.088745
v 2.935509 6.088093 2.088745
v 2.935509 5.848437 -4.874997
v 2.935509 6.088093 -4.874997
v -2.757639 5.848437 2.088745
v -2.757639 6.088093 2.088745
v -2.757639 5.848437 -4.874996
v -2.757639 6.088093 -4.874996
v -2.997296 5.848437 2.088745
v -2.997296 6.088093 2.088745
v -2.997296 5.848437 -4.874996
v -2.997296 6.088093 -4.874996
vn -0.0000 1.0000 -0.0001
vn -0.0000 -1.0000 -0.0000
vn -0.0000 0.9617 -0.2741
vn -0.0000 1.0000 0.0001
vn -0.0000 1.0000 -0.0002
vn 1.0000 -0.0000 -0.0000
vn 0.9820 -0.1888 -0.0000
vn 0.9820 -0.1889 -0.0000
vn 0.9821 -0.1885 0.0003
vn -0.0000 1.0000 -0.0000
vn -0.0000 -1.0000 0.0027
vn -0.0000 -0.2930 0.9561
vn 0.9769 -0.2053 0.0587
vn -0.0023 -0.9624 0.2718
vn 0.9821 -0.1884 -0.0000
vn -0.0000 -0.3588 -0.9334
vn -0.0003 -0.3594 -0.9332
vn -0.0014 -1.0000 -0.0000
vn -0.0011 0.3792 0.9253
vn 0.0029 0.3921 -0.9199
vn -0.0000 -0.3827 -0.9239
vn -0.0000 -0.9239 -0.3827
vn -0.0000 -0.9239 0.3827
vn -0.0000 -0.3827 0.9239
vn 1.0000 0.0013 -0.0000
vn 0.0012 0.3864 0.9223
vn -0.0000 0.3827 -0.9239
vn 1.0000 -0.0001 -0.0000
vn -0.0000 1.0000 0.0014
vn -0.0000 -0.0000 1.0000
vn -0.0000 -0.0000 -1.0000
vn 0.0001 1.0000 -0.0000
vn -0.0012 -0.9624 0.2718
vn -0.0002 -0.2936 0.9559
vn -0.0000 0.6690 0.7432
vn -0.0000 0.7708 0.6370
vn -0.0000 0.6139 -0.7894
vn -0.0000 0.9710 0.2390
vn -0.0000 0.7901 -0.6130
vn -0.0000 -0.4874 0.8732
vn -0.0000 -0.7520 -0.6592
vn -1.0000 -0.0000 -0.0000
vn -0.9820 -0.1888 -0.0000
vn -0.9820 -0.1889 -0.0000
vn -0.9821 -0.1885 0.0003
vn -0.9769 -0.2053 0.0587
vn -0.0026 -0.9610 0.2765
vn -0.9821 -0.1884 -0.0000
vn 0.0003 -0.3594 -0.9332
vn 0.0014 -1.0000 -0.0000
vn -0.0000 0.3827 0.9239
vn -0.0029 0.3920 -0.9199
vn -0.0007 0.3848 0.9230
vn -1.0000 -0.0001 -0.0000
vn -0.0001 1.0000 -0.0000
vn 0.0015 -0.9610 0.2765
vn 0.0002 -0.2936 0.9559
vn 0.3172 0.9242 0.2125
vn -0.0000 0.9776 0.2107
vn -0.0000 0.9747 -0.2235
vn -0.3172 0.9242 0.2125
vn -0.0000 -1.0000 0.0003
vn -0.0003 -1.0000 0.0030
vn 0.0002 -1.0000 0.0029
vn -0.0000 -1.0000 0.0032
vn -0.0012 -1.0000 -0.0000
vn 0.0012 -1.0000 -0.0000
vn 0.0001 -1.0000 0.0002
vn -0.0003 -1.0000 0.0002
vn 0.0001 -1.0000 0.0001
vn -0.0012 -1.0000 0.0001
vn 0.0012 -1.0000 0.0001
vn -0.0000 -1.0000 0.0014
vn -0.0000 0.9239 0.3827
vn -0.0000 0.9239 -0.3827
vn 0.9394 -0.1312 -0.3167
vn 0.9394 -0.3167 -0.1312
vn 0.9394 -0.3167 0.1312
vn 0.9394 -0.1312 0.3167
vn 0.9394 0.1312 0.3167
vn 0.9394 0.3167 0.1312
vn 0.9394 0.3167 -0.1312
vn 0.9394 0.1312 -0.3167
vn -0.9394 -0.1312 -0.3167
vn -0.9394 -0.3167 -0.1312
vn -0.9394 -0.3167 0.1312
vn -0.9394 -0.1312 0.3167
vn -0.9394 0.1312 0.3167
vn -0.9394 0.3167 0.1312
vn -0.9394 0.3167 -0.1312
vn -0.9394 0.1312 -0.3167
vn -0.3405 0.7442 0.5747
vn -0.6083 0.2917 -0.7382
vn 0.4335 -0.6570 -0.6168
vn 0.6083 -0.2917 0.7382
vn -0.7613 0.0489 0.6466
vn 0.2528 0.9528 0.1683
vn 0.3949 0.9184 0.0256
vn -0.5446 0.2838 -0.7892
vn -0.7401 0.0851 0.6671
vn -0.0947 -0.9500 -0.2974
vn 0.7175 -0.0881 -0.6910
vn 0.7705 0.1303 0.6240
vn 0.6566 -0.3375 0.6745
vn 0.3405 0.7442 0.5747
vn 0.6083 0.2917 -0.7382
vn -0.4335 -0.6570 -0.6168
vn -0.6083 -0.2917 0.7382
vn 0.7613 0.0489 0.6466
vn -0.2528 0.9528 0.1683
vn -0.3949 0.9184 0.0256
vn 0.5446 0.2838 -0.7892
vn 0.7401 0.0851 0.6671
vn 0.0947 -0.9500 -0.2974
vn -0.7175 -0.0881 -0.6910
vn -0.7705 0.1303 0.6240
vn -0.6566 -0.3375 0.6745
vt 0.282237 0.380146
vt 0.284106 0.381967
vt 0.284014 0.386200
vt 0.280609 0.386822
vt 0.611535 0.835852
vt 0.611552 0.833162
vt 0.635923 0.833272
vt 0.635948 0.835950
vt 0.313899 0.237702
vt 0.309745 0.234788
vt 0.314768 0.234534
vt 0.314135 0.236475
vt 0.307731 0.259161
vt 0.305002 0.260189
vt 0.663451 0.833370
vt 0.682140 0.833372
vt 0.682118 0.836044
vt 0.283004 0.392173
vt 0.285319 0.388737
vt 0.249059 0.040944
vt 0.264579 0.040288
vt 0.265546 0.049857
vt 0.198895 0.056487
vt 0.196717 0.034609
vt 0.241353 0.030168
vt 0.227887 0.036178
vt 0.268049 0.075287
vt 0.201424 0.081915
vt 0.272655 0.121575
vt 0.245413 0.124095
vt 0.205259 0.121083
vt 0.272256 0.117502
vt 0.226742 0.010962
vt 0.260886 0.003243
vt 0.263032 0.024922
vt 0.247705 0.027334
vt 0.256143 0.112161
vt 0.271655 0.111503
vt 0.203913 0.107019
vt 0.244986 0.102928
vt 0.234970 0.107398
vt 0.270119 0.096141
vt 0.254790 0.098552
vt 0.334739 0.263438
vt 0.332779 0.270564
vt 0.326856 0.269248
vt 0.319253 0.330617
vt 0.281287 0.325276
vt 0.289377 0.299802
vt 0.323278 0.310758
vt 0.304878 0.378882
vt 0.293860 0.293906
vt 0.317271 0.301888
vt 0.325048 0.304498
vt 0.305994 0.378981
vt 0.311750 0.378626
vt 0.311491 0.381073
vt 0.284123 0.342415
vt 0.316429 0.345004
vt 0.308536 0.344717
vt 0.282290 0.344468
vt 0.277935 0.325182
vt 0.573197 0.832983
vt 0.566799 0.835706
vt 0.566794 0.833012
vt 0.293262 0.291448
vt 0.286627 0.298123
vt 0.591434 0.832990
vt 0.645611 0.833308
vt 0.335989 0.261323
vt 0.334361 0.261945
vt 0.684906 0.833385
vt 0.684895 0.836056
vt 0.357646 0.196416
vt 0.358704 0.200246
vt 0.311442 0.381669
vt 0.286045 0.389570
vt 0.312927 0.382688
vt 0.285566 0.392023
vt 0.345050 0.385732
vt 0.334363 0.454816
vt 0.565539 0.835705
vt 0.565535 0.833014
vt 0.566615 0.881466
vt 0.565359 0.881466
vt 0.325138 0.292652
vt 0.339536 0.302455
vt 0.343105 0.276497
vt 0.328266 0.279471
vt 0.293276 0.270058
vt 0.291708 0.259254
vt 0.285427 0.271595
vt 0.276370 0.271097
vt 0.285490 0.260216
vt 0.290403 0.278040
vt 0.284034 0.284187
vt 0.344073 0.285429
vt 0.310361 0.369696
vt 0.323004 0.378671
vt 0.326561 0.352847
vt 0.311445 0.356166
vt 0.273816 0.358301
vt 0.268661 0.348040
vt 0.266523 0.362972
vt 0.256991 0.365968
vt 0.259367 0.353378
vt 0.274095 0.367514
vt 0.269981 0.376308
vt 0.191866 0.080981
vt 0.189143 0.081252
vt 0.186799 0.057690
vt 0.189522 0.057420
vt 0.193256 0.112742
vt 0.190536 0.112995
vt 0.190104 0.108387
vt 0.192830 0.108125
vt 0.656688 0.551545
vt 0.656554 0.547731
vt 0.764909 0.474855
vt 0.766684 0.477494
vt 0.767682 0.482224
vt 0.769147 0.484353
vt 0.663360 0.557566
vt 0.659768 0.556298
vt 0.333605 0.457651
vt 0.684906 0.881581
vt 0.682136 0.881578
vt 0.364607 0.255774
vt 0.274381 0.171539
vt 0.245762 0.171539
vt 0.657449 0.580727
vt 0.631988 0.610030
vt 0.613105 0.596060
vt 0.647545 0.560529
vt 0.280082 0.188539
vt 0.343377 0.147944
vt 0.727508 0.475530
vt 0.683410 0.475530
vt 0.683410 0.348976
vt 0.727508 0.348976
vt 0.768869 0.651596
vt 0.739835 0.693082
vt 0.634409 0.611972
vt 0.658006 0.585166
vt 0.593697 0.581465
vt 0.627176 0.544648
vt 0.444840 0.610539
vt 0.483722 0.604716
vt 0.486184 0.647386
vt 0.436230 0.647413
vt 0.203625 0.171539
vt 0.632025 0.537733
vt 0.734516 0.354953
vt 0.733453 0.469390
vt 0.731622 0.479644
vt 0.731622 0.344862
vt 0.774970 0.474000
vt 0.187788 0.040001
vt 0.667819 0.579992
vt 0.769875 0.639147
vt 0.774971 0.650386
vt 0.190632 0.085838
vt 0.018062 0.201117
vt 0.041890 0.201117
vt 0.041890 0.314177
vt 0.018184 0.314177
vt 0.018386 0.325654
vt 0.023040 0.325345
vt 0.023040 0.435659
vt 0.003542 0.136900
vt 0.020945 0.139629
vt 0.003542 0.251342
vt 0.069119 0.389580
vt 0.046601 0.389580
vt 0.050382 0.279542
vt 0.069118 0.279542
vt 0.670469 0.577946
vt 0.771340 0.636629
vt 0.633219 0.535532
vt 0.187907 0.086106
vt 0.185065 0.040272
vt 0.737269 0.354978
vt 0.736207 0.469415
vt 0.435852 0.413251
vt 0.431479 0.423633
vt 0.427650 0.419620
vt 0.431554 0.413925
vt 0.611447 0.927078
vt 0.635808 0.927054
vt 0.635775 0.929728
vt 0.611457 0.929761
vt 0.421560 0.208550
vt 0.420715 0.207266
vt 0.419056 0.205420
vt 0.425129 0.202705
vt 0.444475 0.232077
vt 0.440098 0.231894
vt 0.663323 0.929753
vt 0.682020 0.927086
vt 0.682002 0.929755
vt 0.423343 0.427990
vt 0.423496 0.421764
vt 0.249059 0.302134
vt 0.227887 0.306900
vt 0.241353 0.312909
vt 0.196717 0.308469
vt 0.198895 0.286591
vt 0.265546 0.293221
vt 0.264579 0.302790
vt 0.201424 0.261163
vt 0.268049 0.267791
vt 0.272655 0.221503
vt 0.272256 0.225575
vt 0.205259 0.221995
vt 0.245413 0.218983
vt 0.247705 0.315744
vt 0.263032 0.318156
vt 0.260886 0.339835
vt 0.226742 0.332116
vt 0.256143 0.230917
vt 0.234971 0.235679
vt 0.244986 0.240150
vt 0.203913 0.236059
vt 0.271655 0.231575
vt 0.254790 0.244525
vt 0.270119 0.246937
vt 0.418193 0.250997
vt 0.412422 0.253870
vt 0.409270 0.247939
vt 0.419661 0.326587
vt 0.420150 0.302485
vt 0.471074 0.292809
vt 0.475083 0.332946
vt 0.406133 0.390051
vt 0.419578 0.292912
vt 0.430818 0.291232
vt 0.465495 0.282920
vt 0.393746 0.385745
vt 0.395991 0.380585
vt 0.404660 0.389035
vt 0.462826 0.357545
vt 0.427226 0.346854
vt 0.417233 0.343853
vt 0.480242 0.334202
vt 0.464567 0.361691
vt 0.573208 0.929965
vt 0.566801 0.929936
vt 0.566806 0.927240
vt 0.466881 0.279282
vt 0.475693 0.290936
vt 0.591407 0.929885
vt 0.645450 0.929725
vt 0.406726 0.245981
vt 0.409011 0.245966
vt 0.684776 0.927087
vt 0.684771 0.929761
vt 0.421743 0.422261
vt 0.393197 0.387039
vt 0.390595 0.387023
vt 0.420245 0.426095
vt 0.565541 0.929933
vt 0.565545 0.927241
vt 0.410804 0.283505
vt 0.424390 0.277987
vt 0.419396 0.262004
vt 0.404216 0.261963
vt 0.465396 0.227462
vt 0.464998 0.244838
vt 0.475595 0.227777
vt 0.492211 0.243973
vt 0.477500 0.246120
vt 0.481467 0.266420
vt 0.470459 0.257084
vt 0.406032 0.269873
vt 0.398773 0.368888
vt 0.411287 0.375286
vt 0.418582 0.359379
vt 0.404573 0.349136
vt 0.482419 0.377578
vt 0.466666 0.388852
vt 0.492211 0.393065
vt 0.485451 0.413978
vt 0.473622 0.401578
vt 0.457372 0.418507
vt 0.458933 0.402095
vt 0.191866 0.262097
vt 0.189522 0.285658
vt 0.186799 0.285387
vt 0.189143 0.261826
vt 0.193256 0.230336
vt 0.192830 0.234952
vt 0.190104 0.234691
vt 0.190536 0.230082
vt 0.583359 0.647829
vt 0.544235 0.765585
vt 0.541412 0.764649
vt 0.579856 0.648713
vt 0.548764 0.765265
vt 0.588486 0.649195
vt 0.590527 0.652088
vt 0.551056 0.766052
vt 0.609761 0.640033
vt 0.589215 0.637207
vt 0.422759 0.144701
vt 0.639313 0.475530
vt 0.639313 0.348976
vt 0.706381 0.730820
vt 0.614155 0.639529
vt 0.569198 0.622724
vt 0.523015 0.606028
vt 0.535809 0.641667
vt 0.564194 0.628990
vt 0.632305 0.354953
vt 0.635198 0.344862
vt 0.635198 0.479644
vt 0.633368 0.469390
vt 0.543169 0.773923
vt 0.187788 0.303077
vt 0.611763 0.650336
vt 0.706662 0.736971
vt 0.694425 0.734772
vt 0.190632 0.257240
vt 0.381202 0.263952
vt 0.381080 0.377013
vt 0.357373 0.377013
vt 0.357373 0.263952
vt 0.005819 0.359947
vt 0.010473 0.249943
vt 0.010473 0.360257
vt 0.007040 0.003542
vt 0.121482 0.003542
vt 0.009769 0.020945
vt 0.080563 0.383818
vt 0.190601 0.383819
vt 0.190601 0.402555
vt 0.080563 0.406336
vt 0.692341 0.736816
vt 0.610471 0.653331
vt 0.562505 0.630665
vt 0.187907 0.256972
vt 0.185065 0.302806
vt 0.630614 0.469415
vt 0.629551 0.354978
vt 0.683410 0.479644
vt 0.683410 0.344862
vt 0.743340 0.695845
vt 0.433951 0.649300
vt 0.441964 0.609122
vt 0.486294 0.649300
vt 0.483564 0.601983
vt 0.525709 0.604289
vt 0.538290 0.643279
vt 0.591285 0.847857
vt 0.591297 0.915072
vt 0.573322 0.915071
vt 0.573316 0.847863
vt 0.566906 0.847913
vt 0.566911 0.915026
vt 0.611316 0.848023
vt 0.611276 0.914946
vt 0.635907 0.847969
vt 0.635803 0.914949
vt 0.645416 0.914954
vt 0.645540 0.848043
vt 0.663404 0.848072
vt 0.663295 0.914986
vt 0.635228 0.296040
vt 0.553518 0.290758
vt 0.550592 0.256100
vt 0.637780 0.251910
vt 0.568024 0.466030
vt 0.508289 0.428529
vt 0.526195 0.405156
vt 0.584935 0.439093
vt 0.538510 0.380277
vt 0.601925 0.408496
vt 0.547102 0.352907
vt 0.616577 0.374561
vt 0.552192 0.323039
vt 0.627939 0.337040
vt 0.542524 0.218659
vt 0.635157 0.205229
vt 0.525926 0.176719
vt 0.627541 0.156899
vt 0.359037 0.988611
vt 0.321767 0.988611
vt 0.295413 0.962257
vt 0.295413 0.924987
vt 0.321767 0.898634
vt 0.359037 0.898634
vt 0.385391 0.924987
vt 0.385391 0.962257
vt 0.525913 0.259463
vt 0.516447 0.226724
vt 0.502066 0.195683
vt 0.498057 0.413768
vt 0.511334 0.395366
vt 0.521128 0.372877
vt 0.527634 0.347741
vt 0.530848 0.320294
vt 0.530454 0.290782
vt 0.507237 0.230327
vt 0.493160 0.199788
vt 0.600239 0.680963
vt 0.625297 0.680963
vt 0.643016 0.698682
vt 0.643016 0.723740
vt 0.625297 0.741458
vt 0.600239 0.741458
vt 0.582521 0.723740
vt 0.582521 0.698682
vt 0.514487 0.370723
vt 0.520305 0.346517
vt 0.493160 0.410323
vt 0.505518 0.392227
vt 0.522921 0.320043
vt 0.517040 0.261585
vt 0.522009 0.291624
vt 0.123596 0.535731
vt 0.082831 0.529586
vt 0.097842 0.450637
vt 0.129293 0.456180
vt 0.320461 0.501768
vt 0.284912 0.514889
vt 0.259798 0.439358
vt 0.291364 0.422936
vt 0.246275 0.525935
vt 0.228950 0.449897
vt 0.206227 0.533869
vt 0.195734 0.456099
vt 0.164931 0.537243
vt 0.161933 0.457932
vt 0.042798 0.519075
vt 0.067042 0.440140
vt 0.003409 0.504760
vt 0.036085 0.422590
vt 0.717631 0.921587
vt 0.691277 0.895233
vt 0.691277 0.857963
vt 0.717630 0.831609
vt 0.754900 0.831609
vt 0.781254 0.857963
vt 0.781254 0.895233
vt 0.754900 0.921586
vt 0.076432 0.421299
vt 0.103992 0.429894
vt 0.051980 0.407997
vt 0.251011 0.420217
vt 0.275803 0.407668
vt 0.222804 0.427710
vt 0.192932 0.431401
vt 0.162419 0.434838
vt 0.132513 0.434107
vt 0.055700 0.400998
vt 0.079700 0.413756
vt 0.610636 0.148710
vt 0.585578 0.148710
vt 0.567859 0.130992
vt 0.567859 0.105934
vt 0.585578 0.088215
vt 0.610636 0.088215
vt 0.628354 0.105934
vt 0.628354 0.130992
vt 0.192110 0.423018
vt 0.221277 0.419926
vt 0.248116 0.412431
vt 0.272584 0.400998
vt 0.161963 0.426061
vt 0.105879 0.422142
vt 0.133120 0.426321
vt 0.396580 0.003477
vt 0.399144 0.084587
vt 0.366193 0.089541
vt 0.354354 0.007487
vt 0.586464 0.047622
vt 0.555100 0.120630
vt 0.525323 0.102806
vt 0.553542 0.033478
vt 0.495770 0.093013
vt 0.517481 0.020326
vt 0.465685 0.086477
vt 0.479253 0.010384
vt 0.432894 0.083323
vt 0.438597 0.004459
vt 0.333960 0.099457
vt 0.312339 0.016124
vt 0.299683 0.116543
vt 0.270375 0.028782
vt 0.457479 0.898634
vt 0.483833 0.924987
vt 0.483833 0.962257
vt 0.457479 0.988611
vt 0.420209 0.988611
vt 0.393856 0.962257
vt 0.393856 0.924987
vt 0.420209 0.898634
vt 0.371859 0.111356
vt 0.342723 0.119391
vt 0.317651 0.134262
vt 0.538969 0.135206
vt 0.515925 0.122471
vt 0.490592 0.111923
vt 0.462274 0.108166
vt 0.432374 0.107902
vt 0.401937 0.107718
vt 0.346159 0.127313
vt 0.321753 0.141380
vt 0.804294 0.709154
vt 0.804294 0.734212
vt 0.786575 0.751931
vt 0.761517 0.751931
vt 0.743799 0.734212
vt 0.743799 0.709154
vt 0.761517 0.691436
vt 0.786575 0.691436
vt 0.488670 0.119545
vt 0.461799 0.116267
vt 0.535592 0.141380
vt 0.512821 0.129237
vt 0.432421 0.116258
vt 0.373554 0.119535
vt 0.402507 0.116181
vt 0.474157 0.470177
vt 0.518486 0.470376
vt 0.510948 0.556282
vt 0.475291 0.552601
vt 0.296545 0.528082
vt 0.325561 0.512455
vt 0.357118 0.574998
vt 0.331201 0.592428
vt 0.357929 0.497094
vt 0.383080 0.563656
vt 0.393427 0.484282
vt 0.411465 0.556322
vt 0.432252 0.475037
vt 0.442227 0.552632
vt 0.563888 0.475995
vt 0.547378 0.565735
vt 0.609504 0.486252
vt 0.584835 0.581862
vt 0.865122 0.713441
vt 0.891475 0.687088
vt 0.928745 0.687088
vt 0.955099 0.713441
vt 0.955099 0.750711
vt 0.928745 0.777065
vt 0.891475 0.777065
vt 0.865122 0.750711
vt 0.538708 0.588994
vt 0.506149 0.582433
vt 0.568613 0.600923
vt 0.366090 0.590646
vt 0.347563 0.604620
vt 0.389659 0.581735
vt 0.415684 0.576489
vt 0.443981 0.574708
vt 0.474352 0.576599
vt 0.565294 0.609504
vt 0.535869 0.598124
vt 0.711249 0.532252
vt 0.736307 0.532252
vt 0.754025 0.549971
vt 0.754025 0.575029
vt 0.736307 0.592748
vt 0.711249 0.592748
vt 0.693530 0.575029
vt 0.693530 0.549971
vt 0.416524 0.584051
vt 0.391507 0.588616
vt 0.369231 0.596674
vt 0.351147 0.609504
vt 0.443814 0.582872
vt 0.504280 0.591307
vt 0.473137 0.585286
vt 0.976360 0.906719
vt 0.852211 0.910325
vt 0.850418 0.848569
vt 0.974566 0.844963
vt 0.790095 0.835218
vt 0.976776 0.816241
vt 0.977563 0.996989
vt 0.790095 0.988879
vt 0.792765 0.927154
vt 0.980233 0.935264
vt 0.199495 0.344553
vt 0.228302 0.344553
vt 0.228302 0.406336
vt 0.199495 0.406336
vt 0.871318 0.292191
vt 0.871318 0.353973
vt 0.809536 0.353973
vt 0.809536 0.292191
vt 0.105489 0.366008
vt 0.003233 0.067418
vt 0.083503 0.168723
vt 0.116539 0.337624
vt 0.814788 0.563599
vt 0.867129 0.563599
vt 0.853456 0.816861
vt 0.828461 0.816861
vt 0.130219 0.174229
vt 0.108518 0.184461
vt 0.178557 0.003295
vt 0.178557 0.371253
vt 0.137215 0.313683
vt 0.128887 0.312865
vt 0.871017 0.550083
vt 0.812312 0.555956
vt 0.813196 0.397434
vt 0.871901 0.391561
vt 0.778088 0.601126
vt 0.795597 0.342727
vt 0.963477 0.601126
vt 0.904735 0.595631
vt 0.890108 0.337053
vt 0.948850 0.342548
vt 0.433071 0.182511
vt 0.433071 0.123512
vt 0.481738 0.152548
vt 0.481738 0.211546
vt 0.529912 0.716324
vt 0.470914 0.716324
vt 0.463864 0.659290
vt 0.522862 0.659290
vt 0.324542 0.619990
vt 0.339467 0.648964
vt 0.380862 0.803819
vt 0.313224 0.892263
vt 0.818955 0.825239
vt 0.566204 0.825239
vt 0.528933 0.789510
vt 0.740910 0.750421
vt 0.439076 0.827448
vt 0.555046 0.892263
vt 0.398567 0.810890
vt 0.379312 0.650688
vt 0.407027 0.612260
vt 0.356110 0.654861
vt 0.631080 0.004435
vt 0.782289 0.133574
vt 0.770302 0.152875
vt 0.656332 0.289043
vt 0.787171 0.165615
vt 0.917397 0.281523
vt 0.800650 0.152739
vt 0.917397 0.013253
vt 0.263909 0.827173
vt 0.263909 0.950910
vt 0.140172 0.950910
vt 0.140172 0.827173
vt 0.286675 0.545468
vt 0.303705 0.818955
vt 0.170057 0.681842
vt 0.158715 0.668971
vt 0.003183 0.818955
vt 0.151708 0.697963
vt 0.028633 0.545468
vt 0.142242 0.679320
vt 0.006123 0.827172
vt 0.129860 0.827172
vt 0.129860 0.950910
vt 0.006123 0.950910
s 0
usemtl Материал
f 47/1/1 48/2/1 24/3/1 21/4/1
f 17/5/2 30/6/2 27/7/2 4/8/2
f 32/9/3 13/10/3 38/11/3 39/12/3
f 32/9/4 53/13/4 52/14/4 13/10/4
f 44/15/2 31/16/2 2/17/2
f 22/18/5 21/4/5 24/3/5 33/19/5
f 58/20/6 59/21/6 19/22/6 96/23/6 220/24/6 60/25/6 57/26/6
f 19/22/6 18/27/6 100/28/6 96/23/6
f 22/29/6 15/30/6 215/31/6 21/32/6
f 60/25/6 220/24/6 221/33/6 13/34/6 52/35/6 61/36/6
f 62/37/6 47/38/6 21/32/6 215/31/6 101/39/6 64/40/6 63/41/6
f 64/40/6 101/39/6 100/28/6 18/27/6 65/42/6 66/43/6
f 53/13/7 32/9/7 31/44/7 44/45/7 67/46/7
f 30/47/8 35/48/8 29/49/8 27/50/8
f 68/51/8 24/3/8 48/2/8
f 27/50/8 29/49/8 69/52/8 70/53/8 51/54/8
f 33/19/9 24/3/9 68/51/9 71/55/9 54/56/9 34/57/9
f 73/58/7 35/48/7 30/47/7 55/59/7 72/60/7
f 35/48/10 73/58/10 65/61/10 18/62/10
f 54/63/11 14/64/11 34/65/11
f 59/66/5 69/52/5 29/49/5 19/67/5
f 55/68/2 30/6/2 17/5/2
f 51/69/2 4/8/2 27/7/2
f 19/67/4 29/49/4 35/48/4 18/62/4
f 36/70/12 37/71/12 39/12/12 38/11/12
f 31/44/13 32/9/13 39/12/13 37/71/13
f 2/17/14 31/16/14 37/72/14 36/73/14
f 85/74/3 89/75/3 38/11/3 13/10/3
f 34/57/15 43/76/15 40/77/15 33/19/15
f 42/78/16 41/79/16 40/77/16 43/76/16
f 90/80/17 91/81/17 41/79/17 42/78/17
f 14/64/2 42/82/2 43/83/2 34/65/2
f 86/84/18 90/85/18 42/82/18 14/64/18
f 33/19/10 40/77/10 41/79/10 22/18/10
f 51/54/19 70/53/19 1/86/19 50/87/19
f 44/45/20 46/88/20 5/89/20 67/46/20
f 5/89/21 7/90/21 61/91/21 52/14/21 53/13/21 67/46/21
f 7/90/22 8/92/22 57/93/22 60/94/22 61/91/22
f 8/92/23 10/95/23 58/96/23 57/93/23
f 59/66/24 58/96/24 10/95/24 1/86/24 70/53/24 69/52/24
f 50/87/25 1/86/25 10/95/25 8/92/25 7/90/25 5/89/25 46/88/25 45/97/25
f 54/56/26 71/55/26 20/98/26 49/99/26
f 55/59/27 56/100/27 23/101/27 72/60/27
f 73/58/21 72/60/21 23/101/21 25/102/21 66/103/21 65/61/21
f 25/102/22 26/104/22 63/105/22 64/106/22 66/103/22
f 26/104/23 28/107/23 62/108/23 63/105/23
f 48/2/24 47/1/24 62/108/24 28/107/24 20/98/24 71/55/24 68/51/24
f 49/99/28 20/98/28 28/107/28 26/104/28 25/102/28 23/101/28 56/100/28
f 74/109/10 108/110/10 105/111/10 76/112/10
f 3/113/29 109/114/29 103/115/29 75/116/29
f 16/117/30 106/118/30 108/119/30 74/120/30
f 95/121/31 111/122/31 110/123/31 93/124/31
f 22/18/32 41/79/32 91/81/32 87/125/32
f 2/17/33 36/73/33 88/126/33 81/127/33
f 36/70/34 38/11/34 89/75/34 88/128/34
f 22/29/31 87/129/31 78/130/31 15/30/31
f 216/131/10 217/132/10 82/133/10 99/134/10
f 221/135/35 222/136/35 85/74/35 13/10/35
f 92/137/36 83/138/36 79/139/36 94/140/36
f 97/141/37 77/142/37 84/143/37 98/144/37
f 99/134/10 82/133/10 208/145/10 209/146/10
f 210/147/38 211/148/38 80/149/38 12/150/38
f 215/31/39 15/30/39 78/130/39 214/151/39
f 6/152/6 16/117/6 99/134/6 209/146/6
f 11/153/6 6/154/6 209/155/6 220/156/6
f 16/117/6 74/120/6 100/157/6 99/134/6
f 74/109/6 76/112/6 96/23/6 100/28/6
f 76/112/6 11/158/6 220/24/6 96/23/6
f 9/159/6 3/160/6 215/161/6 216/131/6
f 93/124/6 9/159/6 216/131/6 99/134/6
f 95/121/6 93/124/6 99/134/6 100/157/6
f 3/113/6 75/116/6 101/39/6 215/31/6
f 75/116/6 95/162/6 100/28/6 101/39/6
f 105/163/6 108/164/6 106/165/6 104/166/6
f 103/167/6 109/168/6 102/169/6
f 107/170/6 105/171/6 104/172/6
f 111/173/6 103/174/6 102/175/6 110/176/6
f 9/159/40 102/177/40 109/178/40 3/160/40
f 6/152/2 104/179/2 106/118/2 16/117/2
f 75/116/10 103/115/10 111/180/10 95/162/10
f 76/112/10 105/111/10 107/181/10 11/158/10
f 93/124/2 110/123/2 102/177/2 9/159/2
f 11/153/41 107/182/41 104/183/41 6/154/41
f 158/184/1 132/185/1 135/186/1 159/187/1
f 128/188/2 115/189/2 138/190/2 141/191/2
f 143/192/3 150/193/3 149/194/3 124/195/3
f 143/192/4 124/195/4 163/196/4 164/197/4
f 155/198/2 113/199/2 142/200/2
f 133/201/5 144/202/5 135/186/5 132/185/5
f 169/203/42 168/204/42 171/205/42 224/206/42 192/207/42 130/208/42 170/209/42
f 130/208/42 192/207/42 196/210/42 129/211/42
f 133/212/42 132/213/42 218/214/42 126/215/42
f 171/205/42 172/216/42 163/217/42 124/218/42 225/219/42 224/206/42
f 173/220/42 174/221/42 175/222/42 197/223/42 218/214/42 132/213/42 158/224/42
f 175/222/42 177/225/42 176/226/42 129/211/42 196/210/42 197/223/42
f 164/197/43 178/227/43 155/228/43 142/229/43 143/192/43
f 141/230/44 138/231/44 140/232/44 146/233/44
f 179/234/44 159/187/44 135/186/44
f 138/231/44 162/235/44 181/236/44 180/237/44 140/232/44
f 144/202/45 145/238/45 165/239/45 182/240/45 179/234/45 135/186/45
f 184/241/43 183/242/43 166/243/43 141/230/43 146/233/43
f 146/233/10 129/244/10 176/245/10 184/241/10
f 165/246/11 145/247/11 125/248/11
f 170/249/5 130/250/5 140/232/5 180/237/5
f 166/251/2 128/188/2 141/191/2
f 162/252/2 138/190/2 115/189/2
f 130/250/4 129/244/4 146/233/4 140/232/4
f 147/253/12 149/194/12 150/193/12 148/254/12
f 142/229/46 148/254/46 150/193/46 143/192/46
f 113/199/47 147/255/47 148/256/47 142/200/47
f 85/74/3 124/195/3 149/194/3 89/75/3
f 145/238/48 144/202/48 151/257/48 154/258/48
f 153/259/16 154/258/16 151/257/16 152/260/16
f 90/80/49 153/259/49 152/260/49 91/81/49
f 125/248/2 145/247/2 154/261/2 153/262/2
f 86/84/50 125/248/50 153/262/50 90/85/50
f 144/202/10 133/201/10 152/260/10 151/257/10
f 162/235/51 161/263/51 112/264/51 181/236/51
f 155/228/52 178/227/52 116/265/52 157/266/52
f 116/265/21 178/227/21 164/197/21 163/196/21 172/267/21 118/268/21
f 118/268/22 172/267/22 171/269/22 168/270/22 119/271/22
f 119/271/23 168/270/23 169/272/23 121/273/23
f 170/249/24 180/237/24 181/236/24 112/264/24 121/273/24 169/272/24
f 161/263/42 156/274/42 157/266/42 116/265/42 118/268/42 119/271/42 121/273/42 112/264/42
f 165/239/53 160/275/53 131/276/53 182/240/53
f 166/243/27 183/242/27 134/277/27 167/278/27
f 184/241/21 176/245/21 177/279/21 136/280/21 134/277/21 183/242/21
f 136/280/22 177/279/22 175/281/22 174/282/22 137/283/22
f 137/283/23 174/282/23 173/284/23 139/285/23
f 159/187/24 179/234/24 182/240/24 131/276/24 139/285/24 173/284/24 158/184/24
f 160/275/54 167/278/54 134/277/54 136/280/54 137/283/54 139/285/54 131/276/54
f 185/286/10 187/287/10 201/288/10 204/289/10
f 114/290/29 186/291/29 199/292/29 205/293/29
f 127/294/30 185/295/30 204/296/30 202/297/30
f 191/298/31 189/299/31 206/300/31 207/301/31
f 133/201/55 87/125/55 91/81/55 152/260/55
f 113/199/56 81/127/56 88/126/56 147/255/56
f 147/253/57 88/128/57 89/75/57 149/194/57
f 133/212/31 126/215/31 78/130/31 87/129/31
f 219/302/10 195/303/10 82/133/10 217/132/10
f 225/304/35 124/195/35 85/74/35 222/136/35
f 188/305/36 190/306/36 79/139/36 83/138/36
f 193/307/37 194/308/37 84/143/37 77/142/37
f 195/303/10 212/309/10 208/145/10 82/133/10
f 213/310/38 123/311/38 80/149/38 211/148/38
f 218/214/39 214/151/39 78/130/39 126/215/39
f 117/312/42 212/309/42 195/303/42 127/294/42
f 122/313/42 224/314/42 212/315/42 117/316/42
f 127/294/42 195/303/42 196/317/42 185/295/42
f 185/286/42 196/210/42 192/207/42 187/287/42
f 187/287/42 192/207/42 224/206/42 122/318/42
f 120/319/42 219/302/42 218/320/42 114/321/42
f 189/299/42 195/303/42 219/302/42 120/319/42
f 191/298/42 196/317/42 195/303/42 189/299/42
f 114/290/42 218/214/42 197/223/42 186/291/42
f 186/291/42 197/223/42 196/210/42 191/322/42
f 201/323/42 200/324/42 202/325/42 204/326/42
f 199/327/42 198/328/42 205/329/42
f 203/330/42 200/331/42 201/332/42
f 207/333/42 206/334/42 198/335/42 199/336/42
f 120/319/40 114/321/40 205/337/40 198/338/40
f 117/312/2 127/294/2 202/297/2 200/339/2
f 186/291/10 191/322/10 207/340/10 199/292/10
f 187/287/10 122/318/10 203/341/10 201/288/10
f 189/299/2 120/319/2 198/338/2 206/300/2
f 122/313/41 117/316/41 200/342/41 203/343/41
f 83/138/36 92/137/36 209/155/36 208/344/36
f 92/137/36 94/140/36 220/156/36 209/155/36
f 94/140/36 79/139/36 223/345/36 220/156/36
f 188/305/36 83/138/36 208/344/36 212/315/36
f 190/306/36 188/305/36 212/315/36 224/314/36
f 79/139/36 190/306/36 224/314/36 223/345/36
f 77/142/37 97/141/37 215/161/37 214/346/37
f 97/141/37 98/144/37 216/131/37 215/161/37
f 98/144/37 84/143/37 217/132/37 216/131/37
f 193/307/37 77/142/37 214/346/37 218/320/37
f 194/308/37 193/307/37 218/320/37 219/302/37
f 84/143/37 194/308/37 219/302/37 217/132/37
f 210/147/58 12/150/58 221/347/58 220/348/58
f 12/150/59 80/149/59 222/349/59 221/347/59
f 211/148/60 210/147/60 220/348/60 223/350/60
f 123/311/61 213/310/61 224/351/61 225/352/61
f 80/149/59 123/311/59 225/352/59 222/349/59
f 213/310/60 211/148/60 223/350/60 224/351/60
f 56/353/62 167/354/62 160/355/62 49/356/62
f 54/63/63 49/356/63 226/357/63 14/64/63
f 227/358/64 160/355/64 165/246/64 125/248/64
f 160/355/65 227/358/65 226/357/65 49/356/65
f 167/354/2 56/353/2 228/359/2 229/360/2
f 228/359/66 56/353/66 55/68/66 17/5/66
f 229/360/67 128/188/67 166/251/67 167/354/67
f 128/188/2 17/5/2 4/8/2 232/361/2 230/362/2 115/189/2
f 115/189/2 230/362/2 231/363/2 162/252/2
f 231/363/68 230/362/68 232/361/68 50/364/68
f 50/364/69 232/361/69 4/8/69 51/69/69
f 231/363/70 50/364/70 46/365/70 157/366/70
f 46/365/71 44/15/71 2/17/71 81/127/71
f 155/198/72 157/366/72 81/127/72 113/199/72
f 157/366/73 46/365/73 81/127/73
f 240/367/27 256/368/27 242/369/27 233/370/27
f 235/371/23 246/372/23 248/373/23 236/374/23
f 236/374/24 248/373/24 250/375/24 237/376/24
f 237/376/51 250/375/51 252/377/51 238/378/51
f 238/378/74 252/377/74 254/379/74 239/380/74
f 239/380/75 254/379/75 256/368/75 240/367/75
f 233/370/21 242/369/21 244/381/21 234/382/21
f 234/382/22 244/381/22 246/383/22 235/384/22
f 233/385/42 234/386/42 235/387/42 236/388/42 237/389/42 238/390/42 239/391/42 240/392/42
f 244/381/76 242/369/76 241/393/76 243/394/76
f 246/383/77 244/381/77 243/394/77 245/395/77
f 248/373/78 246/372/78 245/396/78 247/397/78
f 250/375/79 248/373/79 247/397/79 249/398/79
f 252/377/80 250/375/80 249/398/80 251/399/80
f 254/379/81 252/377/81 251/399/81 253/400/81
f 256/368/82 254/379/82 253/400/82 255/401/82
f 242/369/83 256/368/83 255/401/83 241/393/83
f 243/394/74 258/402/74 259/403/74 245/395/74
f 258/404/6 257/405/6 264/406/6 263/407/6 262/408/6 261/409/6 260/410/6 259/411/6
f 249/398/21 261/412/21 262/413/21 251/399/21
f 245/396/75 259/414/75 260/415/75 247/397/75
f 251/399/22 262/413/22 263/416/22 253/400/22
f 241/393/51 257/417/51 258/402/51 243/394/51
f 255/401/24 264/418/24 257/417/24 241/393/24
f 247/397/27 260/415/27 261/412/27 249/398/27
f 253/400/23 263/416/23 264/418/23 255/401/23
f 272/419/27 265/420/27 274/421/27 288/422/27
f 267/423/23 268/424/23 280/425/23 278/426/23
f 268/424/24 269/427/24 282/428/24 280/425/24
f 269/427/51 270/429/51 284/430/51 282/428/51
f 270/429/74 271/431/74 286/432/74 284/430/74
f 271/431/75 272/419/75 288/422/75 286/432/75
f 265/420/21 266/433/21 276/434/21 274/421/21
f 266/433/22 267/435/22 278/436/22 276/434/22
f 265/437/6 272/438/6 271/439/6 270/440/6 269/441/6 268/442/6 267/443/6 266/444/6
f 276/434/84 275/445/84 273/446/84 274/421/84
f 278/436/85 277/447/85 275/445/85 276/434/85
f 280/425/86 279/448/86 277/449/86 278/426/86
f 282/428/87 281/450/87 279/448/87 280/425/87
f 284/430/88 283/451/88 281/450/88 282/428/88
f 286/432/89 285/452/89 283/451/89 284/430/89
f 288/422/90 287/453/90 285/452/90 286/432/90
f 274/421/91 273/446/91 287/453/91 288/422/91
f 275/445/74 277/447/74 291/454/74 290/455/74
f 290/456/42 291/457/42 292/458/42 293/459/42 294/460/42 295/461/42 296/462/42 289/463/42
f 281/450/21 283/451/21 294/464/21 293/465/21
f 277/449/75 279/448/75 292/466/75 291/467/75
f 283/451/22 285/452/22 295/468/22 294/464/22
f 273/446/51 275/445/51 290/455/51 289/469/51
f 287/453/24 273/446/24 289/469/24 296/470/24
f 279/448/27 281/450/27 293/465/27 292/466/27
f 285/452/23 287/453/23 296/470/23 295/468/23
f 304/471/27 320/472/27 306/473/27 297/474/27
f 299/475/23 310/476/23 312/477/23 300/478/23
f 300/478/24 312/477/24 314/479/24 301/480/24
f 301/480/51 314/479/51 316/481/51 302/482/51
f 302/482/74 316/481/74 318/483/74 303/484/74
f 303/484/75 318/483/75 320/472/75 304/471/75
f 297/474/21 306/473/21 308/485/21 298/486/21
f 298/486/22 308/485/22 310/487/22 299/488/22
f 297/489/42 298/490/42 299/491/42 300/492/42 301/493/42 302/494/42 303/495/42 304/496/42
f 308/485/76 306/473/76 305/497/76 307/498/76
f 310/487/77 308/485/77 307/498/77 309/499/77
f 312/477/78 310/476/78 309/500/78 311/501/78
f 314/479/79 312/477/79 311/501/79 313/502/79
f 316/481/80 314/479/80 313/502/80 315/503/80
f 318/483/81 316/481/81 315/503/81 317/504/81
f 320/472/82 318/483/82 317/504/82 319/505/82
f 306/473/83 320/472/83 319/505/83 305/497/83
f 307/498/74 322/506/74 323/507/74 309/499/74
f 322/508/6 321/509/6 328/510/6 327/511/6 326/512/6 325/513/6 324/514/6 323/515/6
f 313/502/21 325/516/21 326/517/21 315/503/21
f 309/500/75 323/518/75 324/519/75 311/501/75
f 315/503/22 326/517/22 327/520/22 317/504/22
f 305/497/51 321/521/51 322/506/51 307/498/51
f 319/505/24 328/522/24 321/521/24 305/497/24
f 311/501/27 324/519/27 325/516/27 313/502/27
f 317/504/23 327/520/23 328/522/23 319/505/23
f 336/523/27 329/524/27 338/525/27 352/526/27
f 331/527/23 332/528/23 344/529/23 342/530/23
f 332/528/24 333/531/24 346/532/24 344/529/24
f 333/531/51 334/533/51 348/534/51 346/532/51
f 334/533/74 335/535/74 350/536/74 348/534/74
f 335/535/75 336/523/75 352/526/75 350/536/75
f 329/524/21 330/537/21 340/538/21 338/525/21
f 330/537/22 331/539/22 342/540/22 340/538/22
f 329/541/6 336/542/6 335/543/6 334/544/6 333/545/6 332/546/6 331/547/6 330/548/6
f 340/538/84 339/549/84 337/550/84 338/525/84
f 342/540/85 341/551/85 339/549/85 340/538/85
f 344/529/86 343/552/86 341/553/86 342/530/86
f 346/532/87 345/554/87 343/552/87 344/529/87
f 348/534/88 347/555/88 345/554/88 346/532/88
f 350/536/89 349/556/89 347/555/89 348/534/89
f 352/526/90 351/557/90 349/556/90 350/536/90
f 338/525/91 337/550/91 351/557/91 352/526/91
f 339/549/74 341/551/74 355/558/74 354/559/74
f 354/560/42 355/561/42 356/562/42 357/563/42 358/564/42 359/565/42 360/566/42 353/567/42
f 345/554/21 347/555/21 358/568/21 357/569/21
f 341/553/75 343/552/75 356/570/75 355/571/75
f 347/555/22 349/556/22 359/572/22 358/568/22
f 337/550/51 339/549/51 354/559/51 353/573/51
f 351/557/24 337/550/24 353/573/24 360/574/24
f 343/552/27 345/554/27 357/569/27 356/570/27
f 349/556/23 351/557/23 360/574/23 359/572/23
f 361/575/92 362/576/92 364/577/92 363/578/92
f 363/578/93 364/577/93 368/579/93 367/580/93
f 367/581/94 368/582/94 366/583/94 365/584/94
f 365/584/95 366/583/95 362/576/95 361/575/95
f 363/585/96 367/586/96 365/587/96 361/588/96
f 368/589/97 364/590/97 362/591/97 366/592/97
f 374/593/98 371/594/98 376/595/98 377/596/98
f 370/597/99 371/598/99 374/599/99 373/600/99
f 369/601/100 375/602/100 376/595/100 371/594/100 370/603/100
f 370/603/101 373/604/101 372/605/101 369/601/101
f 373/604/102 374/593/102 377/596/102 378/606/102 372/605/102
f 377/596/103 376/595/103 375/602/103 378/606/103
f 372/605/104 378/606/104 375/602/104 369/601/104
f 379/607/105 381/608/105 382/609/105 380/610/105
f 381/608/106 385/611/106 386/612/106 382/609/106
f 385/613/107 383/614/107 384/615/107 386/616/107
f 383/614/108 379/607/108 380/610/108 384/615/108
f 381/617/109 379/618/109 383/619/109 385/620/109
f 386/621/110 384/622/110 380/623/110 382/624/110
f 392/625/111 395/626/111 394/627/111 389/628/111
f 388/629/112 391/630/112 392/631/112 389/632/112
f 387/633/113 388/634/113 389/628/113 394/627/113 393/635/113
f 388/634/114 387/633/114 390/636/114 391/637/114
f 391/637/115 390/636/115 396/638/115 395/626/115 392/625/115
f 395/626/116 396/638/116 393/635/116 394/627/116
f 390/636/117 387/633/117 393/635/117 396/638/117
f 397/639/42 398/640/42 400/641/42 399/642/42
f 399/642/31 400/641/31 404/643/31 403/644/31
f 403/644/6 404/643/6 402/645/6 401/646/6
f 401/646/30 402/645/30 398/640/30 397/639/30
f 399/647/2 403/648/2 401/649/2 397/650/2
f 404/643/10 400/641/10 398/640/10 402/645/10
f 405/651/6 407/652/6 408/653/6 406/654/6
f 407/652/31 411/655/31 412/656/31 408/653/31
f 411/655/42 409/657/42 410/658/42 412/656/42
f 409/657/30 405/651/30 406/654/30 410/658/30
f 407/659/2 405/660/2 409/661/2 411/662/2
f 412/656/10 410/658/10 406/654/10 408/653/10
