# Blender 4.2.2 LTS
# www.blender.org
mtllib closet.mtl
o closet
v 1.465719 0.780943 -4.829264
v 1.465719 13.000095 -4.829264
v 1.465719 0.780943 -1.839929
v 1.465719 13.000095 -1.839929
v 1.749936 12.666762 -4.495930
v 1.749936 1.114276 -4.495930
v 1.749936 1.114276 -2.173263
v 1.749936 12.666762 -2.173263
v 1.749936 13.000095 -4.829264
v 1.749936 0.780943 -4.829264
v 1.749936 0.780943 -1.839929
v 1.749936 13.000095 -1.839929
v 1.699936 12.666762 -4.495930
v 1.699936 1.114276 -4.495930
v 1.699936 1.114276 -2.173263
v 1.699936 12.666762 -2.173263
v 1.891238 9.357971 1.539208
v 1.891238 9.495922 1.539208
v 2.029188 9.357971 1.539208
v 2.029188 9.495922 1.539208
v 1.891238 9.357971 1.677158
v 1.891238 9.495922 1.677158
v 2.029188 9.357971 1.677158
v 2.029188 9.495922 1.677158
v 2.001136 9.347910 1.529146
v 1.960213 9.342856 1.524093
v 1.919290 9.347910 1.529146
v 1.881177 9.386024 1.529146
v 1.876123 9.426947 1.524093
v 1.881177 9.467870 1.529146
v 1.919290 9.505983 1.529146
v 1.960213 9.511037 1.524093
v 2.001136 9.505983 1.529146
v 2.039249 9.467870 1.529146
v 2.044303 9.426947 1.524093
v 2.039249 9.386024 1.529146
v 2.039249 9.347910 1.649106
v 2.044303 9.342856 1.608183
v 2.039249 9.347910 1.567260
v 2.039249 9.505983 1.567260
v 2.044303 9.511037 1.608183
v 2.039249 9.505983 1.649106
v 2.039249 9.467870 1.687219
v 2.044303 9.426947 1.692272
v 2.039249 9.386024 1.687219
v 1.919290 9.347910 1.687219
v 1.960213 9.342856 1.692272
v 2.001136 9.347910 1.687219
v 2.001136 9.505983 1.687219
v 1.960213 9.511037 1.692272
v 1.919290 9.505983 1.687219
v 1.881177 9.467870 1.687219
v 1.876123 9.426947 1.692272
v 1.881177 9.386024 1.687219
v 1.881177 9.347910 1.567260
v 1.876123 9.342856 1.608183
v 1.881177 9.347910 1.649106
v 1.881177 9.505983 1.649106
v 1.876123 9.511037 1.608183
v 1.881177 9.505983 1.567260
v 1.916599 9.383333 1.507618
v 1.914256 9.426947 1.500329
v 1.916599 9.470560 1.507618
v 1.960213 9.380990 1.500329
v 1.960213 9.426947 1.492373
v 1.960213 9.472903 1.500329
v 2.003827 9.383333 1.507618
v 2.006170 9.426947 1.500329
v 2.003827 9.470560 1.507618
v 2.060777 9.383333 1.564569
v 2.068067 9.426947 1.562226
v 2.060777 9.470560 1.564569
v 2.068067 9.380990 1.608183
v 2.076023 9.426947 1.608183
v 2.068067 9.472903 1.608183
v 2.060777 9.383333 1.651797
v 2.068067 9.426947 1.654139
v 2.060777 9.470560 1.651797
v 2.003827 9.383333 1.708747
v 2.006170 9.426947 1.716036
v 2.003827 9.470560 1.708747
v 1.960213 9.380990 1.716036
v 1.960213 9.426947 1.723993
v 1.960213 9.472903 1.716036
v 1.916599 9.383333 1.708747
v 1.914256 9.426947 1.716036
v 1.916599 9.470560 1.708747
v 1.859649 9.383333 1.651797
v 1.852360 9.426947 1.654139
v 1.859649 9.470560 1.651797
v 1.852360 9.380990 1.608183
v 1.844403 9.426947 1.608183
v 1.852360 9.472903 1.608183
v 1.859649 9.383333 1.564569
v 1.852360 9.426947 1.562226
v 1.859649 9.470560 1.564569
v 2.003827 9.326383 1.564569
v 2.006170 9.319094 1.608183
v 2.003827 9.326383 1.651797
v 1.960213 9.319094 1.562226
v 1.960213 9.311136 1.608183
v 1.960213 9.319094 1.654139
v 1.916599 9.326383 1.564569
v 1.914256 9.319094 1.608183
v 1.916599 9.326383 1.651797
v 2.003827 9.527511 1.651797
v 2.006170 9.534800 1.608183
v 2.003827 9.527511 1.564569
v 1.960213 9.534800 1.654139
v 1.960213 9.542757 1.608183
v 1.960213 9.534800 1.562226
v 1.916599 9.527511 1.651797
v 1.914256 9.534800 1.608183
v 1.916599 9.527511 1.564569
v 1.885917 9.462133 1.608183
v 1.702944 9.482998 1.608183
v 1.885917 9.442214 1.642684
v 1.702944 9.452646 1.660753
v 1.885917 9.402375 1.642684
v 1.702944 9.391943 1.660753
v 1.885917 9.382456 1.608183
v 1.702944 9.361591 1.608183
v 1.885917 9.402375 1.573681
v 1.702944 9.391943 1.555612
v 1.885917 9.442214 1.573681
v 1.702944 9.452646 1.555612
v 1.891238 9.357971 0.967292
v 1.891238 9.495922 0.967292
v 2.029189 9.357971 0.967292
v 2.029189 9.495922 0.967292
v 1.891238 9.357971 1.105242
v 1.891238 9.495922 1.105242
v 2.029189 9.357971 1.105242
v 2.029189 9.495922 1.105242
v 2.001136 9.347910 0.957230
v 1.960213 9.342856 0.952177
v 1.919291 9.347910 0.957230
v 1.881177 9.386024 0.957230
v 1.876124 9.426947 0.952177
v 1.881177 9.467870 0.957230
v 1.919291 9.505983 0.957230
v 1.960213 9.511037 0.952177
v 2.001136 9.505983 0.957230
v 2.039250 9.467870 0.957230
v 2.044303 9.426947 0.952177
v 2.039250 9.386024 0.957230
v 2.039250 9.347910 1.077190
v 2.044303 9.342856 1.036267
v 2.039250 9.347910 0.995344
v 2.039250 9.505983 0.995344
v 2.044303 9.511037 1.036267
v 2.039250 9.505983 1.077190
v 2.039250 9.467870 1.115303
v 2.044303 9.426947 1.120356
v 2.039250 9.386024 1.115303
v 1.919291 9.347910 1.115303
v 1.960213 9.342856 1.120356
v 2.001136 9.347910 1.115303
v 2.001136 9.505983 1.115303
v 1.960213 9.511037 1.120356
v 1.919291 9.505983 1.115303
v 1.881177 9.467870 1.115303
v 1.876124 9.426947 1.120356
v 1.881177 9.386024 1.115303
v 1.881177 9.347910 0.995344
v 1.876124 9.342856 1.036267
v 1.881177 9.347910 1.077190
v 1.881177 9.505983 1.077190
v 1.876124 9.511037 1.036267
v 1.881177 9.505983 0.995344
v 1.916600 9.383333 0.935702
v 1.914257 9.426947 0.928413
v 1.916600 9.470560 0.935702
v 1.960213 9.380990 0.928413
v 1.960213 9.426947 0.920457
v 1.960213 9.472903 0.928413
v 2.003827 9.383333 0.935702
v 2.006170 9.426947 0.928413
v 2.003827 9.470560 0.935702
v 2.060778 9.383333 0.992653
v 2.068067 9.426947 0.990310
v 2.060778 9.470560 0.992653
v 2.068067 9.380990 1.036267
v 2.076023 9.426947 1.036267
v 2.068067 9.472903 1.036267
v 2.060778 9.383333 1.079880
v 2.068067 9.426947 1.082223
v 2.060778 9.470560 1.079880
v 2.003827 9.383333 1.136831
v 2.006170 9.426947 1.144120
v 2.003827 9.470560 1.136831
v 1.960213 9.380990 1.144120
v 1.960213 9.426947 1.152076
v 1.960213 9.472903 1.144120
v 1.916600 9.383333 1.136831
v 1.914257 9.426947 1.144120
v 1.916600 9.470560 1.136831
v 1.859649 9.383333 1.079880
v 1.852360 9.426947 1.082223
v 1.859649 9.470560 1.079880
v 1.852360 9.380990 1.036267
v 1.844404 9.426947 1.036267
v 1.852360 9.472903 1.036267
v 1.859649 9.383333 0.992653
v 1.852360 9.426947 0.990310
v 1.859649 9.470560 0.992653
v 2.003827 9.326383 0.992653
v 2.006170 9.319094 1.036267
v 2.003827 9.326383 1.079880
v 1.960213 9.319094 0.990310
v 1.960213 9.311136 1.036267
v 1.960213 9.319094 1.082223
v 1.916600 9.326383 0.992653
v 1.914257 9.319094 1.036267
v 1.916600 9.326383 1.079880
v 2.003827 9.527511 1.079880
v 2.006170 9.534800 1.036267
v 2.003827 9.527511 0.992653
v 1.960213 9.534800 1.082223
v 1.960213 9.542757 1.036267
v 1.960213 9.534800 0.990310
v 1.916600 9.527511 1.079880
v 1.914257 9.534800 1.036267
v 1.916600 9.527511 0.992653
v 1.885917 9.462133 1.036267
v 1.702944 9.482998 1.036267
v 1.885917 9.442214 1.070768
v 1.702944 9.452646 1.088837
v 1.885917 9.402375 1.070768
v 1.702944 9.391943 1.088837
v 1.885917 9.382456 1.036267
v 1.702944 9.361591 1.036267
v 1.885917 9.402375 1.001765
v 1.702944 9.391943 0.983696
v 1.885917 9.442214 1.001765
v 1.702944 9.452646 0.983696
v 1.891239 9.357971 -2.090112
v 1.891239 9.495922 -2.090112
v 2.029189 9.357971 -2.090112
v 2.029189 9.495922 -2.090112
v 1.891239 9.357971 -1.952162
v 1.891239 9.495922 -1.952162
v 2.029189 9.357971 -1.952162
v 2.029189 9.495922 -1.952162
v 2.001137 9.347910 -2.100173
v 1.960214 9.342856 -2.105227
v 1.919291 9.347910 -2.100173
v 1.881177 9.386024 -2.100173
v 1.876124 9.426947 -2.105227
v 1.881177 9.467870 -2.100173
v 1.919291 9.505983 -2.100173
v 1.960214 9.511037 -2.105227
v 2.001137 9.505983 -2.100173
v 2.039250 9.467870 -2.100173
v 2.044304 9.426947 -2.105227
v 2.039250 9.386024 -2.100173
v 2.039250 9.347910 -1.980214
v 2.044304 9.342856 -2.021137
v 2.039250 9.347910 -2.062060
v 2.039250 9.505983 -2.062060
v 2.044304 9.511037 -2.021137
v 2.039250 9.505983 -1.980214
v 2.039250 9.467870 -1.942101
v 2.044304 9.426947 -1.937047
v 2.039250 9.386024 -1.942101
v 1.919291 9.347910 -1.942101
v 1.960214 9.342856 -1.937047
v 2.001137 9.347910 -1.942101
v 2.001137 9.505983 -1.942101
v 1.960214 9.511037 -1.937047
v 1.919291 9.505983 -1.942101
v 1.881177 9.467870 -1.942101
v 1.876124 9.426947 -1.937047
v 1.881177 9.386024 -1.942101
v 1.881177 9.347910 -2.062060
v 1.876124 9.342856 -2.021137
v 1.881177 9.347910 -1.980214
v 1.881177 9.505983 -1.980214
v 1.876124 9.511037 -2.021137
v 1.881177 9.505983 -2.062060
v 1.916600 9.383333 -2.121701
v 1.914257 9.426947 -2.128991
v 1.916600 9.470560 -2.121701
v 1.960214 9.380990 -2.128991
v 1.960214 9.426947 -2.136947
v 1.960214 9.472903 -2.128991
v 2.003828 9.383333 -2.121701
v 2.006170 9.426947 -2.128991
v 2.003828 9.470560 -2.121701
v 2.060778 9.383333 -2.064751
v 2.068067 9.426947 -2.067094
v 2.060778 9.470560 -2.064751
v 2.068067 9.380990 -2.021137
v 2.076024 9.426947 -2.021137
v 2.068067 9.472903 -2.021137
v 2.060778 9.383333 -1.977523
v 2.068067 9.426947 -1.975181
v 2.060778 9.470560 -1.977523
v 2.003828 9.383333 -1.920573
v 2.006170 9.426947 -1.913284
v 2.003828 9.470560 -1.920573
v 1.960214 9.380990 -1.913284
v 1.960214 9.426947 -1.905327
v 1.960214 9.472903 -1.913284
v 1.916600 9.383333 -1.920573
v 1.914257 9.426947 -1.913284
v 1.916600 9.470560 -1.920573
v 1.859649 9.383333 -1.977523
v 1.852360 9.426947 -1.975181
v 1.859649 9.470560 -1.977523
v 1.852360 9.380990 -2.021137
v 1.844404 9.426947 -2.021137
v 1.852360 9.472903 -2.021137
v 1.859649 9.383333 -2.064751
v 1.852360 9.426947 -2.067094
v 1.859649 9.470560 -2.064751
v 2.003828 9.326383 -2.064751
v 2.006170 9.319094 -2.021137
v 2.003828 9.326383 -1.977523
v 1.960214 9.319094 -2.067094
v 1.960214 9.311136 -2.021137
v 1.960214 9.319094 -1.975181
v 1.916600 9.326383 -2.064751
v 1.914257 9.319094 -2.021137
v 1.916600 9.326383 -1.977523
v 2.003828 9.527511 -1.977523
v 2.006170 9.534800 -2.021137
v 2.003828 9.527511 -2.064751
v 1.960214 9.534800 -1.975181
v 1.960214 9.542757 -2.021137
v 1.960214 9.534800 -2.067094
v 1.916600 9.527511 -1.977523
v 1.914257 9.534800 -2.021137
v 1.916600 9.527511 -2.064751
v 1.885917 9.462133 -2.021137
v 1.702944 9.482998 -2.021137
v 1.885917 9.442214 -1.986636
v 1.702944 9.452646 -1.968567
v 1.885917 9.402375 -1.986636
v 1.702944 9.391943 -1.968567
v 1.885917 9.382456 -2.021137
v 1.702944 9.361591 -2.021137
v 1.885917 9.402375 -2.055639
v 1.702944 9.391943 -2.073707
v 1.885917 9.442214 -2.055639
v 1.702944 9.452646 -2.073707
v 1.891238 4.359709 -1.174358
v 1.891238 4.497659 -1.174358
v 2.029189 4.359709 -1.174358
v 2.029189 4.497659 -1.174358
v 1.891238 4.359709 -1.036407
v 1.891238 4.497659 -1.036407
v 2.029189 4.359709 -1.036407
v 2.029189 4.497659 -1.036407
v 2.001137 4.349648 -1.184419
v 1.960214 4.344594 -1.189472
v 1.919291 4.349648 -1.184419
v 1.881177 4.387761 -1.184419
v 1.876124 4.428684 -1.189472
v 1.881177 4.469607 -1.184419
v 1.919291 4.507720 -1.184419
v 1.960214 4.512774 -1.189472
v 2.001137 4.507720 -1.184419
v 2.039250 4.469607 -1.184419
v 2.044303 4.428684 -1.189472
v 2.039250 4.387761 -1.184419
v 2.039250 4.349648 -1.064460
v 2.044303 4.344594 -1.105382
v 2.039250 4.349648 -1.146305
v 2.039250 4.507720 -1.146305
v 2.044303 4.512774 -1.105382
v 2.039250 4.507720 -1.064460
v 2.039250 4.469607 -1.026346
v 2.044303 4.428684 -1.021292
v 2.039250 4.387761 -1.026346
v 1.919291 4.349648 -1.026346
v 1.960214 4.344594 -1.021292
v 2.001137 4.349648 -1.026346
v 2.001137 4.507720 -1.026346
v 1.960214 4.512774 -1.021292
v 1.919291 4.507720 -1.026346
v 1.881177 4.469607 -1.026346
v 1.876124 4.428684 -1.021292
v 1.881177 4.387761 -1.026346
v 1.881177 4.349648 -1.146305
v 1.876124 4.344594 -1.105382
v 1.881177 4.349648 -1.064460
v 1.881177 4.507720 -1.064460
v 1.876124 4.512774 -1.105382
v 1.881177 4.507720 -1.146305
v 1.916600 4.385070 -1.205947
v 1.914257 4.428684 -1.213236
v 1.916600 4.472298 -1.205947
v 1.960214 4.382727 -1.213236
v 1.960214 4.428684 -1.221192
v 1.960214 4.474641 -1.213236
v 2.003828 4.385070 -1.205947
v 2.006170 4.428684 -1.213236
v 2.003828 4.472298 -1.205947
v 2.060778 4.385070 -1.148997
v 2.068067 4.428684 -1.151339
v 2.060778 4.472298 -1.148997
v 2.068067 4.382727 -1.105382
v 2.076024 4.428684 -1.105382
v 2.068067 4.474641 -1.105382
v 2.060778 4.385070 -1.061769
v 2.068067 4.428684 -1.059426
v 2.060778 4.472298 -1.061769
v 2.003828 4.385070 -1.004818
v 2.006170 4.428684 -0.997529
v 2.003828 4.472298 -1.004818
v 1.960214 4.382727 -0.997529
v 1.960214 4.428684 -0.989573
v 1.960214 4.474641 -0.997529
v 1.916600 4.385070 -1.004818
v 1.914257 4.428684 -0.997529
v 1.916600 4.472298 -1.004818
v 1.859649 4.385070 -1.061769
v 1.852360 4.428684 -1.059426
v 1.859649 4.472298 -1.061769
v 1.852360 4.382727 -1.105382
v 1.844404 4.428684 -1.105382
v 1.852360 4.474641 -1.105382
v 1.859649 4.385070 -1.148997
v 1.852360 4.428684 -1.151339
v 1.859649 4.472298 -1.148997
v 2.003828 4.328119 -1.148997
v 2.006170 4.320830 -1.105382
v 2.003828 4.328119 -1.061769
v 1.960214 4.320830 -1.151339
v 1.960214 4.312874 -1.105382
v 1.960214 4.320830 -1.059426
v 1.916600 4.328119 -1.148997
v 1.914257 4.320830 -1.105382
v 1.916600 4.328119 -1.061769
v 2.003828 4.529248 -1.061769
v 2.006170 4.536537 -1.105382
v 2.003828 4.529248 -1.148997
v 1.960214 4.536537 -1.059426
v 1.960214 4.544494 -1.105382
v 1.960214 4.536537 -1.151339
v 1.916600 4.529248 -1.061769
v 1.914257 4.536537 -1.105382
v 1.916600 4.529248 -1.148997
v 1.885917 4.463871 -1.105382
v 1.702944 4.484735 -1.105382
v 1.885917 4.443951 -1.070881
v 1.702944 4.454383 -1.052813
v 1.885917 4.404112 -1.070881
v 1.702944 4.393681 -1.052813
v 1.885917 4.384193 -1.105382
v 1.702944 4.363329 -1.105382
v 1.885917 4.404112 -1.139884
v 1.702944 4.393681 -1.157953
v 1.885917 4.443951 -1.139884
v 1.702944 4.454383 -1.157953
v 1.891238 4.359709 3.672486
v 1.891238 4.497659 3.672486
v 2.029188 4.359709 3.672486
v 2.029188 4.497659 3.672486
v 1.891238 4.359709 3.810436
v 1.891238 4.497659 3.810436
v 2.029188 4.359709 3.810436
v 2.029188 4.497659 3.810436
v 2.001136 4.349648 3.662425
v 1.960213 4.344594 3.657371
v 1.919290 4.349648 3.662425
v 1.881177 4.387761 3.662425
v 1.876123 4.428684 3.657371
v 1.881177 4.469607 3.662425
v 1.919290 4.507720 3.662425
v 1.960213 4.512774 3.657371
v 2.001136 4.507720 3.662425
v 2.039249 4.469607 3.662425
v 2.044303 4.428684 3.657371
v 2.039249 4.387761 3.662425
v 2.039249 4.349648 3.782384
v 2.044303 4.344594 3.741461
v 2.039249 4.349648 3.700538
v 2.039249 4.507720 3.700538
v 2.044303 4.512774 3.741461
v 2.039249 4.507720 3.782384
v 2.039249 4.469607 3.820497
v 2.044303 4.428684 3.825551
v 2.039249 4.387761 3.820497
v 1.919290 4.349648 3.820497
v 1.960213 4.344594 3.825551
v 2.001136 4.349648 3.820497
v 2.001136 4.507720 3.820497
v 1.960213 4.512774 3.825551
v 1.919290 4.507720 3.820497
v 1.881177 4.469607 3.820497
v 1.876123 4.428684 3.825551
v 1.881177 4.387761 3.820497
v 1.881177 4.349648 3.700538
v 1.876123 4.344594 3.741461
v 1.881177 4.349648 3.782384
v 1.881177 4.507720 3.782384
v 1.876123 4.512774 3.741461
v 1.881177 4.507720 3.700538
v 1.916599 4.385070 3.640897
v 1.914257 4.428684 3.633608
v 1.916600 4.472298 3.640897
v 1.960213 4.382727 3.633608
v 1.960213 4.428684 3.625651
v 1.960213 4.474641 3.633608
v 2.003827 4.385070 3.640897
v 2.006170 4.428684 3.633608
v 2.003827 4.472298 3.640897
v 2.060778 4.385070 3.697847
v 2.068067 4.428684 3.695504
v 2.060778 4.472298 3.697847
v 2.068067 4.382727 3.741461
v 2.076023 4.428684 3.741461
v 2.068067 4.474641 3.741461
v 2.060778 4.385070 3.785075
v 2.068067 4.428684 3.787418
v 2.060778 4.472298 3.785075
v 2.003827 4.385070 3.842026
v 2.006170 4.428684 3.849314
v 2.003827 4.472298 3.842026
v 1.960213 4.382727 3.849314
v 1.960213 4.428684 3.857271
v 1.960213 4.474641 3.849314
v 1.916599 4.385070 3.842026
v 1.914257 4.428684 3.849314
v 1.916599 4.472298 3.842026
v 1.859649 4.385070 3.785075
v 1.852360 4.428684 3.787418
v 1.859649 4.472298 3.785075
v 1.852360 4.382727 3.741461
v 1.844403 4.428684 3.741461
v 1.852360 4.474641 3.741461
v 1.859649 4.385070 3.697847
v 1.852360 4.428684 3.695504
v 1.859649 4.472298 3.697847
v 2.003827 4.328119 3.697847
v 2.006170 4.320830 3.741461
v 2.003827 4.328119 3.785075
v 1.960213 4.320830 3.695504
v 1.960213 4.312874 3.741461
v 1.960213 4.320830 3.787418
v 1.916599 4.328119 3.697847
v 1.914257 4.320830 3.741461
v 1.916599 4.328119 3.785075
v 2.003827 4.529248 3.785075
v 2.006170 4.536537 3.741461
v 2.003827 4.529248 3.697847
v 1.960213 4.536537 3.787418
v 1.960213 4.544494 3.741461
v 1.960213 4.536537 3.695504
v 1.916599 4.529248 3.785075
v 1.914257 4.536537 3.741461
v 1.916599 4.529248 3.697847
v 1.885917 4.463871 3.741461
v 1.702944 4.484735 3.741461
v 1.885917 4.443951 3.775963
v 1.702944 4.454383 3.794031
v 1.885917 4.404112 3.775963
v 1.702944 4.393681 3.794031
v 1.885917 4.384193 3.741461
v 1.702944 4.363329 3.741461
v 1.885917 4.404112 3.706959
v 1.702944 4.393681 3.688891
v 1.885917 4.443951 3.706959
v 1.702944 4.454383 3.688891
v 1.891238 1.756573 3.672486
v 1.891238 1.894522 3.672486
v 2.029188 1.756573 3.672486
v 2.029188 1.894522 3.672486
v 1.891238 1.756573 3.810436
v 1.891238 1.894522 3.810436
v 2.029188 1.756573 3.810436
v 2.029188 1.894522 3.810436
v 2.001136 1.746511 3.662425
v 1.960213 1.741457 3.657371
v 1.919290 1.746511 3.662425
v 1.881177 1.784624 3.662425
v 1.876123 1.825547 3.657371
v 1.881177 1.866470 3.662425
v 1.919290 1.904583 3.662425
v 1.960213 1.909637 3.657371
v 2.001136 1.904583 3.662425
v 2.039249 1.866470 3.662425
v 2.044303 1.825547 3.657371
v 2.039249 1.784624 3.662425
v 2.039249 1.746511 3.782384
v 2.044303 1.741457 3.741461
v 2.039249 1.746511 3.700538
v 2.039249 1.904583 3.700538
v 2.044303 1.909637 3.741461
v 2.039249 1.904583 3.782384
v 2.039249 1.866470 3.820497
v 2.044303 1.825547 3.825551
v 2.039249 1.784624 3.820497
v 1.919290 1.746511 3.820497
v 1.960213 1.741457 3.825551
v 2.001136 1.746511 3.820497
v 2.001136 1.904583 3.820497
v 1.960213 1.909637 3.825551
v 1.919290 1.904583 3.820497
v 1.881177 1.866470 3.820497
v 1.876123 1.825547 3.825551
v 1.881177 1.784624 3.820497
v 1.881177 1.746511 3.700538
v 1.876123 1.741457 3.741461
v 1.881177 1.746511 3.782384
v 1.881177 1.904583 3.782384
v 1.876123 1.909637 3.741461
v 1.881177 1.904583 3.700538
v 1.916599 1.781933 3.640897
v 1.914257 1.825547 3.633608
v 1.916600 1.869162 3.640897
v 1.960213 1.779591 3.633608
v 1.960213 1.825547 3.625651
v 1.960213 1.871504 3.633608
v 2.003827 1.781933 3.640897
v 2.006170 1.825547 3.633608
v 2.003827 1.869162 3.640897
v 2.060778 1.781933 3.697847
v 2.068067 1.825547 3.695504
v 2.060778 1.869162 3.697847
v 2.068067 1.779591 3.741461
v 2.076023 1.825547 3.741461
v 2.068067 1.871504 3.741461
v 2.060778 1.781933 3.785075
v 2.068067 1.825547 3.787418
v 2.060778 1.869162 3.785075
v 2.003827 1.781933 3.842026
v 2.006170 1.825547 3.849314
v 2.003827 1.869162 3.842026
v 1.960213 1.779591 3.849314
v 1.960213 1.825547 3.857271
v 1.960213 1.871504 3.849314
v 1.916599 1.781933 3.842026
v 1.914257 1.825547 3.849314
v 1.916599 1.869162 3.842026
v 1.859649 1.781933 3.785075
v 1.852360 1.825547 3.787418
v 1.859649 1.869162 3.785075
v 1.852360 1.779591 3.741461
v 1.844403 1.825547 3.741461
v 1.852360 1.871504 3.741461
v 1.859649 1.781933 3.697847
v 1.852360 1.825547 3.695504
v 1.859649 1.869162 3.697847
v 2.003827 1.724983 3.697847
v 2.006170 1.717693 3.741461
v 2.003827 1.724983 3.785075
v 1.960213 1.717693 3.695504
v 1.960213 1.709738 3.741461
v 1.960213 1.717693 3.787418
v 1.916599 1.724983 3.697847
v 1.914257 1.717693 3.741461
v 1.916599 1.724983 3.785075
v 2.003827 1.926111 3.785075
v 2.006170 1.933401 3.741461
v 2.003827 1.926111 3.697847
v 1.960213 1.933401 3.787418
v 1.960213 1.941357 3.741461
v 1.960213 1.933401 3.695504
v 1.916599 1.926111 3.785075
v 1.914257 1.933401 3.741461
v 1.916599 1.926111 3.697847
v 1.885917 1.860734 3.741461
v 1.702944 1.881598 3.741461
v 1.885917 1.840815 3.775963
v 1.702944 1.851246 3.794031
v 1.885917 1.800976 3.775963
v 1.702944 1.790545 3.794031
v 1.885917 1.781056 3.741461
v 1.702944 1.760193 3.741461
v 1.885917 1.800976 3.706959
v 1.702944 1.790545 3.688891
v 1.885917 1.840815 3.706959
v 1.702944 1.851246 3.688891
v 1.891238 1.756573 -1.174358
v 1.891238 1.894522 -1.174358
v 2.029189 1.756573 -1.174358
v 2.029189 1.894522 -1.174358
v 1.891238 1.756573 -1.036407
v 1.891238 1.894522 -1.036407
v 2.029189 1.756573 -1.036407
v 2.029189 1.894522 -1.036407
v 2.001137 1.746511 -1.184419
v 1.960214 1.741457 -1.189472
v 1.919291 1.746511 -1.184419
v 1.881177 1.784624 -1.184419
v 1.876124 1.825547 -1.189472
v 1.881177 1.866470 -1.184419
v 1.919291 1.904583 -1.184419
v 1.960214 1.909637 -1.189472
v 2.001137 1.904583 -1.184419
v 2.039250 1.866470 -1.184419
v 2.044303 1.825547 -1.189472
v 2.039250 1.784624 -1.184419
v 2.039250 1.746511 -1.064460
v 2.044303 1.741457 -1.105382
v 2.039250 1.746511 -1.146305
v 2.039250 1.904583 -1.146305
v 2.044303 1.909637 -1.105382
v 2.039250 1.904583 -1.064460
v 2.039250 1.866470 -1.026346
v 2.044303 1.825547 -1.021292
v 2.039250 1.784624 -1.026346
v 1.919291 1.746511 -1.026346
v 1.960214 1.741457 -1.021292
v 2.001137 1.746511 -1.026346
v 2.001137 1.904583 -1.026346
v 1.960214 1.909637 -1.021292
v 1.919291 1.904583 -1.026346
v 1.881177 1.866470 -1.026346
v 1.876124 1.825547 -1.021292
v 1.881177 1.784624 -1.026346
v 1.881177 1.746511 -1.146305
v 1.876124 1.741457 -1.105382
v 1.881177 1.746511 -1.064460
v 1.881177 1.904583 -1.064460
v 1.876124 1.909637 -1.105382
v 1.881177 1.904583 -1.146305
v 1.916600 1.781933 -1.205947
v 1.914257 1.825547 -1.213236
v 1.916600 1.869162 -1.205947
v 1.960214 1.779591 -1.213236
v 1.960214 1.825547 -1.221192
v 1.960214 1.871504 -1.213236
v 2.003828 1.781933 -1.205947
v 2.006170 1.825547 -1.213236
v 2.003828 1.869162 -1.205947
v 2.060778 1.781933 -1.148997
v 2.068067 1.825547 -1.151339
v 2.060778 1.869162 -1.148997
v 2.068067 1.779591 -1.105382
v 2.076024 1.825547 -1.105382
v 2.068067 1.871504 -1.105382
v 2.060778 1.781933 -1.061769
v 2.068067 1.825547 -1.059426
v 2.060778 1.869162 -1.061769
v 2.003828 1.781933 -1.004818
v 2.006170 1.825547 -0.997529
v 2.003828 1.869162 -1.004818
v 1.960214 1.779591 -0.997529
v 1.960214 1.825547 -0.989573
v 1.960214 1.871504 -0.997529
v 1.916600 1.781933 -1.004818
v 1.914257 1.825547 -0.997529
v 1.916600 1.869162 -1.004818
v 1.859649 1.781933 -1.061769
v 1.852360 1.825547 -1.059426
v 1.859649 1.869162 -1.061769
v 1.852360 1.779591 -1.105382
v 1.844404 1.825547 -1.105382
v 1.852360 1.871504 -1.105382
v 1.859649 1.781933 -1.148997
v 1.852360 1.825547 -1.151339
v 1.859649 1.869162 -1.148997
v 2.003828 1.724983 -1.148997
v 2.006170 1.717693 -1.105382
v 2.003828 1.724983 -1.061769
v 1.960214 1.717693 -1.151339
v 1.960214 1.709738 -1.105382
v 1.960214 1.717693 -1.059426
v 1.916600 1.724983 -1.148997
v 1.914257 1.717693 -1.105382
v 1.916600 1.724983 -1.061769
v 2.003828 1.926111 -1.061769
v 2.006170 1.933401 -1.105382
v 2.003828 1.926111 -1.148997
v 1.960214 1.933401 -1.059426
v 1.960214 1.941357 -1.105382
v 1.960214 1.933401 -1.151339
v 1.916600 1.926111 -1.061769
v 1.914257 1.933401 -1.105382
v 1.916600 1.926111 -1.148997
v 1.885917 1.860734 -1.105382
v 1.702944 1.881598 -1.105382
v 1.885917 1.840815 -1.070881
v 1.702944 1.851246 -1.052813
v 1.885917 1.800976 -1.070881
v 1.702944 1.790545 -1.052813
v 1.885917 1.781056 -1.105382
v 1.702944 1.760193 -1.105382
v 1.885917 1.800976 -1.139884
v 1.702944 1.790545 -1.157953
v 1.885917 1.840815 -1.139884
v 1.702944 1.851246 -1.157953
v 1.465719 5.628397 -1.717678
v 1.465718 5.628397 4.431817
v 1.749936 5.628397 -1.717678
v 1.749936 5.628397 4.431817
v 1.465719 3.303102 -1.717678
v 1.465719 3.303102 4.431817
v 1.749936 3.303102 -1.717678
v 1.749936 3.303102 4.431817
v 1.465719 3.104136 -1.717678
v 1.465718 3.104136 4.431817
v 1.749936 3.104136 -1.717678
v 1.749936 3.104136 4.431817
v 1.465719 0.778841 -1.717678
v 1.465719 0.778841 4.431817
v 1.749936 0.778841 -1.717678
v 1.749936 0.778841 4.431817
v 1.465719 5.833445 1.427759
v 1.465719 13.000095 1.427759
v 1.749936 6.166779 1.761092
v 1.749936 12.666762 1.761092
v 1.465719 5.833445 4.417094
v 1.465719 13.000095 4.417094
v 1.749936 6.166779 4.083760
v 1.749936 12.666762 4.083760
v 1.749936 13.000095 1.427759
v 1.749936 5.833445 1.427759
v 1.749936 5.833445 4.417094
v 1.749936 13.000095 4.417094
v 1.699936 12.666762 1.761092
v 1.699936 6.166779 1.761092
v 1.699936 6.166779 4.083760
v 1.699936 12.666762 4.083760
v 1.465719 5.833445 -1.730856
v 1.465719 13.000095 -1.730856
v 1.749936 6.166779 -1.397523
v 1.749936 12.666762 -1.397523
v 1.465719 5.833445 1.258478
v 1.465719 13.000095 1.258478
v 1.749936 6.166779 0.925145
v 1.749936 12.666762 0.925145
v 1.749936 13.000095 -1.730856
v 1.749936 5.833445 -1.730856
v 1.749936 5.833445 1.258478
v 1.749936 13.000095 1.258478
v 1.699936 12.666762 -1.397523
v 1.699936 6.166779 -1.397523
v 1.699936 6.166779 0.925145
v 1.699936 12.666762 0.925145
v 1.373695 0.013051 -5.039908
v 1.373695 0.772197 -5.039908
v 1.611438 0.013051 -5.039908
v 1.611438 0.772197 -5.039908
v 1.373695 0.013051 -4.800870
v 1.373695 0.772197 -4.800870
v 1.611438 0.013051 -4.800870
v 1.611438 0.772197 -4.800870
v 1.373694 0.013051 4.629848
v 1.373694 0.772197 4.629848
v 1.611437 0.013051 4.629848
v 1.611437 0.772197 4.629848
v 1.373694 0.013051 4.390809
v 1.373694 0.772197 4.390809
v 1.611437 0.013051 4.390809
v 1.611437 0.772197 4.390809
v -1.453526 0.013051 -5.039907
v -1.453526 0.772197 -5.039907
v -1.691269 0.013051 -5.039907
v -1.691269 0.772197 -5.039907
v -1.453526 0.013051 -4.800870
v -1.453526 0.772197 -4.800870
v -1.691269 0.013051 -4.800870
v -1.691269 0.772197 -4.800870
v -1.453526 0.013051 4.629848
v -1.453526 0.772197 4.629848
v -1.691269 0.013051 4.629848
v -1.691269 0.772197 4.629848
v -1.453526 0.013051 4.390809
v -1.453526 0.772197 4.390809
v -1.691269 0.013051 4.390809
v -1.691269 0.772197 4.390809
v -1.693223 0.618729 -5.040377
v -1.693223 13.147957 -5.040377
v 1.613392 0.838869 -4.820237
v 1.613392 12.927817 -4.820237
v -1.693223 0.618729 4.630316
v -1.693223 13.147957 4.630316
v 1.613391 0.838869 4.410175
v 1.613391 12.927817 4.410175
v 1.613392 13.147957 -5.040377
v 1.613392 0.618729 -5.040377
v 1.613391 0.618729 4.630316
v 1.613391 13.147957 4.630316
v 1.370185 12.927817 -4.820237
v 1.370185 0.838869 -4.820237
v 1.370184 0.838869 4.410175
v 1.370184 12.927817 4.410175
v -1.735875 13.143448 -5.101797
v -1.735875 13.211002 -5.101797
v 1.656044 13.143448 -5.101797
v 1.656044 13.211002 -5.101797
v -1.735875 13.143448 4.720860
v -1.735875 13.211002 4.720860
v 1.656044 13.143448 4.720860
v 1.656044 13.211002 4.720860
vn -0.0000 -0.0000 -1.0000
vn -0.0000 -0.0000 1.0000
vn -1.0000 -0.0000 -0.0000
vn -0.0000 -1.0000 -0.0000
vn -0.0000 1.0000 -0.0000
vn 1.0000 -0.0000 -0.0000
vn -0.3362 -0.3362 -0.8797
vn -0.3560 -0.0000 -0.9345
vn -0.0000 -0.3560 -0.9345
vn -0.3362 0.3362 -0.8797
vn -0.0000 0.3560 -0.9345
vn 0.3560 -0.0000 -0.9345
vn 0.3362 -0.3362 -0.8797
vn 0.3362 0.3362 -0.8797
vn -0.5773 -0.5774 -0.5774
vn -0.6709 -0.3157 -0.6709
vn -0.3157 -0.6710 -0.6709
vn -0.7071 -0.0000 -0.7071
vn -0.6710 0.3157 -0.6709
vn -0.5773 0.5774 -0.5774
vn -0.3157 0.6710 -0.6709
vn -0.0000 0.7071 -0.7071
vn 0.3157 0.6710 -0.6709
vn 0.5773 0.5774 -0.5774
vn 0.6709 0.3157 -0.6709
vn 0.7071 -0.0000 -0.7071
vn 0.6710 -0.3157 -0.6709
vn 0.3157 -0.6710 -0.6709
vn 0.5773 -0.5774 -0.5774
vn -0.0000 -0.7071 -0.7071
vn 0.8797 -0.3362 -0.3362
vn 0.9345 -0.0000 -0.3560
vn 0.9345 -0.3560 -0.0000
vn 0.8797 0.3362 -0.3362
vn 0.9345 0.3560 -0.0000
vn 0.9345 -0.0000 0.3560
vn 0.8797 -0.3362 0.3362
vn 0.8797 0.3362 0.3362
vn 0.6709 -0.6710 -0.3157
vn 0.6709 0.6710 -0.3157
vn 0.7071 0.7071 -0.0000
vn 0.6709 0.6710 0.3157
vn 0.5773 0.5774 0.5774
vn 0.6709 0.3157 0.6709
vn 0.7071 -0.0000 0.7071
vn 0.6709 -0.3157 0.6709
vn 0.6709 -0.6710 0.3157
vn 0.5773 -0.5774 0.5774
vn 0.7071 -0.7071 -0.0000
vn 0.3362 -0.3362 0.8797
vn 0.3560 -0.0000 0.9345
vn -0.0000 -0.3560 0.9345
vn 0.3362 0.3362 0.8797
vn -0.0000 0.3560 0.9345
vn -0.3560 -0.0000 0.9345
vn -0.3362 -0.3362 0.8797
vn -0.3362 0.3362 0.8797
vn 0.3157 -0.6710 0.6709
vn 0.3157 0.6710 0.6709
vn -0.0000 0.7071 0.7071
vn -0.3157 0.6710 0.6709
vn -0.5773 0.5774 0.5774
vn -0.6709 0.3157 0.6709
vn -0.7071 -0.0000 0.7071
vn -0.6710 -0.3157 0.6709
vn -0.3157 -0.6710 0.6709
vn -0.5773 -0.5774 0.5774
vn -0.0000 -0.7071 0.7071
vn -0.8797 -0.3362 0.3362
vn -0.9345 -0.0000 0.3560
vn -0.9345 -0.3560 -0.0000
vn -0.8797 0.3362 0.3362
vn -0.9345 0.3560 -0.0000
vn -0.9345 -0.0000 -0.3560
vn -0.8797 -0.3362 -0.3362
vn -0.8797 0.3362 -0.3362
vn -0.6709 -0.6710 0.3157
vn -0.6709 0.6710 0.3157
vn -0.7071 0.7071 -0.0000
vn -0.6709 0.6710 -0.3157
vn -0.6709 -0.6710 -0.3157
vn -0.7071 -0.7071 -0.0000
vn 0.3362 -0.8797 -0.3362
vn 0.3560 -0.9345 -0.0000
vn -0.0000 -0.9345 -0.3560
vn 0.3362 -0.8797 0.3362
vn -0.0000 -0.9345 0.3560
vn -0.3560 -0.9345 -0.0000
vn -0.3362 -0.8797 -0.3362
vn -0.3362 -0.8797 0.3362
vn 0.3362 0.8797 0.3362
vn 0.3560 0.9345 -0.0000
vn -0.0000 0.9345 0.3560
vn 0.3362 0.8797 -0.3362
vn -0.0000 0.9345 -0.3560
vn -0.3560 0.9345 -0.0000
vn -0.3362 0.8797 0.3362
vn -0.3362 0.8797 -0.3362
vn 0.0983 0.8618 0.4976
vn 0.0983 -0.0000 0.9952
vn 0.0983 -0.8618 0.4976
vn 0.0983 -0.8618 -0.4976
vn 0.0983 -0.0000 -0.9952
vn 0.0983 0.8618 -0.4976
vn -0.6710 -0.3157 -0.6709
vn -0.5773 0.5774 -0.5773
vn 0.5773 0.5774 -0.5773
vn 0.5773 -0.5774 -0.5773
vn 0.5774 0.5774 0.5773
vn 0.6710 0.3157 0.6709
vn 0.6710 -0.3157 0.6709
vn -0.3157 -0.6709 0.6709
vn 0.6709 -0.3157 -0.6709
vn 0.3157 -0.6709 0.6709
vn -0.6709 -0.3157 0.6709
vn -0.5774 -0.5773 -0.5774
vn -0.3157 -0.6709 -0.6709
vn -0.6709 0.3157 -0.6709
vn -0.5774 0.5773 -0.5774
vn -0.3157 0.6709 -0.6709
vn 0.3157 0.6709 -0.6709
vn 0.5774 0.5773 -0.5774
vn 0.3157 -0.6709 -0.6710
vn 0.5773 -0.5773 -0.5774
vn 0.6709 -0.6709 -0.3157
vn 0.6710 0.6709 -0.3157
vn 0.6709 0.6709 0.3157
vn 0.5774 0.5773 0.5774
vn 0.6709 -0.6709 0.3157
vn 0.5774 -0.5773 0.5774
vn 0.3157 0.6709 0.6709
vn -0.3157 0.6709 0.6709
vn -0.5774 0.5773 0.5773
vn -0.5774 -0.5773 0.5774
vn -0.6709 -0.6709 0.3157
vn -0.6709 0.6709 0.3157
vn -0.6709 0.6709 -0.3157
vn -0.6709 -0.6709 -0.3157
vn -0.5774 0.5774 -0.5773
vn 0.5774 0.5773 -0.5773
vn 0.3157 -0.6709 -0.6709
vn 0.5774 -0.5773 -0.5773
vn 0.6709 0.6709 -0.3157
vn 0.5774 0.5773 0.5773
vn 0.5774 -0.5773 0.5773
vn -0.5774 0.5774 0.5773
vn -0.5774 -0.5773 0.5773
vn -0.5773 -0.5774 -0.5773
vn 0.5774 0.5774 -0.5773
vn 0.5774 -0.5774 0.5773
vn -0.5773 0.5774 0.5773
vn -0.5773 -0.5774 0.5773
vn 0.5773 0.5774 0.5773
vn 0.5773 -0.5774 0.5773
vt 0.225150 0.003292
vt 0.203354 0.459601
vt 0.137143 0.379040
vt 0.162165 0.118778
vt 0.075302 0.108661
vt 0.061946 0.369529
vt 0.003292 0.473165
vt 0.003292 0.021429
vt 0.427371 0.003292
vt 0.427371 0.368334
vt 0.338066 0.368334
vt 0.338066 0.003292
vt 0.130832 0.368875
vt 0.068285 0.363754
vt 0.075511 0.354523
vt 0.122858 0.360830
vt 0.152484 0.126552
vt 0.084466 0.121211
vt 0.503344 0.003292
vt 0.503344 0.348417
vt 0.433956 0.348417
vt 0.433956 0.003292
vt 0.144820 0.136599
vt 0.092831 0.129793
vt 0.471667 0.930143
vt 0.464011 0.925034
vt 0.469493 0.917314
vt 0.477213 0.922796
vt 0.456664 0.919488
vt 0.461774 0.911832
vt 0.474976 0.909595
vt 0.482323 0.915140
vt 0.467319 0.904485
vt 0.473503 0.940977
vt 0.466555 0.937845
vt 0.479031 0.935731
vt 0.458509 0.932780
vt 0.451077 0.926852
vt 0.445831 0.921324
vt 0.448963 0.914376
vt 0.454027 0.906330
vt 0.459955 0.898897
vt 0.465483 0.893651
vt 0.472431 0.896783
vt 0.480477 0.901848
vt 0.487910 0.907776
vt 0.490024 0.920252
vt 0.493156 0.913304
vt 0.484960 0.928298
vt 0.496341 0.901037
vt 0.487135 0.892473
vt 0.496893 0.878733
vt 0.509413 0.893059
vt 0.476016 0.886603
vt 0.479242 0.871632
vt 0.701117 0.870602
vt 0.713637 0.856276
vt 0.723394 0.870015
vt 0.714189 0.878579
vt 0.731288 0.849174
vt 0.734513 0.864145
vt 0.501536 0.911884
vt 0.464063 0.885272
vt 0.461752 0.871632
vt 0.748778 0.849174
vt 0.746466 0.862814
vt 0.745046 0.871194
vt 0.738098 0.874325
vt 0.730052 0.879390
vt 0.722620 0.885318
vt 0.708994 0.889426
vt 0.717373 0.890846
vt 0.695354 0.887115
vt 0.515175 0.909573
vt 0.728207 0.892682
vt 0.735554 0.887137
vt 0.741036 0.894856
vt 0.733317 0.900339
vt 0.743210 0.882027
vt 0.748756 0.889374
vt 0.746518 0.902576
vt 0.738862 0.907686
vt 0.753866 0.897030
vt 0.720505 0.897794
vt 0.750574 0.876440
vt 0.756503 0.883872
vt 0.761567 0.891918
vt 0.764699 0.898866
vt 0.759453 0.904394
vt 0.752020 0.910323
vt 0.743974 0.915387
vt 0.731498 0.913273
vt 0.737026 0.918519
vt 0.725570 0.905840
vt 0.747559 0.925568
vt 0.758678 0.919698
vt 0.768436 0.933437
vt 0.750785 0.940538
vt 0.767884 0.911133
vt 0.780956 0.919111
vt 0.459745 0.962996
vt 0.442094 0.955895
vt 0.451851 0.942155
vt 0.462970 0.948025
vt 0.429574 0.941569
vt 0.442646 0.933591
vt 0.735606 0.926899
vt 0.773079 0.900286
vt 0.786718 0.902598
vt 0.423811 0.925055
vt 0.437451 0.922744
vt 0.474923 0.949356
vt 0.477235 0.962996
vt 0.733295 0.940538
vt 0.500205 0.923837
vt 0.515175 0.927063
vt 0.508074 0.944713
vt 0.494335 0.934956
vt 0.695354 0.904605
vt 0.710325 0.901379
vt 0.716195 0.912498
vt 0.702456 0.922256
vt 0.493748 0.957234
vt 0.485770 0.944162
vt 0.724759 0.921704
vt 0.716781 0.934776
vt 0.757313 0.868009
vt 0.765291 0.854937
vt 0.779617 0.867457
vt 0.765878 0.877214
vt 0.445239 0.877394
vt 0.453216 0.890466
vt 0.444652 0.899672
vt 0.430913 0.889915
vt 0.786718 0.885108
vt 0.771748 0.888333
vt 0.438782 0.910791
vt 0.423811 0.907566
vt 0.182081 0.835108
vt 0.200309 0.886551
vt 0.180350 0.891352
vt 0.173915 0.843048
vt 0.160115 0.891678
vt 0.165164 0.844410
vt 0.140158 0.887473
vt 0.157238 0.835780
vt 0.140158 0.783771
vt 0.160256 0.779602
vt 0.164865 0.826730
vt 0.189229 0.739379
vt 0.204014 0.730843
vt 0.218798 0.739379
vt 0.218798 0.756450
vt 0.204014 0.764986
vt 0.189229 0.756450
vt 0.180219 0.779979
vt 0.173817 0.827482
vt 0.199766 0.784603
vt 0.947335 0.402858
vt 0.939988 0.408403
vt 0.934506 0.400683
vt 0.942225 0.395201
vt 0.932332 0.413513
vt 0.926786 0.406166
vt 0.929023 0.392964
vt 0.936680 0.387854
vt 0.921676 0.398509
vt 0.958168 0.404693
vt 0.952922 0.410221
vt 0.955036 0.397745
vt 0.945490 0.416150
vt 0.937444 0.421214
vt 0.930496 0.424346
vt 0.924968 0.419100
vt 0.919039 0.411667
vt 0.913975 0.403621
vt 0.910843 0.396674
vt 0.916089 0.391145
vt 0.923522 0.385217
vt 0.931568 0.380153
vt 0.944044 0.382267
vt 0.938516 0.377021
vt 0.949972 0.389699
vt 0.927983 0.369972
vt 0.916864 0.375842
vt 0.907106 0.362103
vt 0.924757 0.355002
vt 0.907658 0.384406
vt 0.894586 0.376429
vt 0.953619 0.709806
vt 0.967945 0.722326
vt 0.954206 0.732083
vt 0.945642 0.722878
vt 0.975046 0.739977
vt 0.960076 0.743202
vt 0.939936 0.368641
vt 0.902463 0.395253
vt 0.888824 0.392942
vt 0.975046 0.757467
vt 0.961407 0.755156
vt 0.953027 0.753735
vt 0.949895 0.746788
vt 0.944831 0.738742
vt 0.938902 0.731309
vt 0.934794 0.717683
vt 0.933374 0.726063
vt 0.937106 0.704044
vt 0.942247 0.355002
vt 0.931538 0.736896
vt 0.937084 0.744243
vt 0.929364 0.749726
vt 0.923882 0.742006
vt 0.942194 0.751900
vt 0.934847 0.757445
vt 0.921645 0.755208
vt 0.916535 0.747551
vt 0.927190 0.762555
vt 0.926426 0.729195
vt 0.947781 0.759264
vt 0.940348 0.765192
vt 0.932302 0.770256
vt 0.925354 0.773388
vt 0.919826 0.768142
vt 0.913898 0.760710
vt 0.908834 0.752663
vt 0.910948 0.740187
vt 0.905702 0.745716
vt 0.918380 0.734259
vt 0.898653 0.756249
vt 0.904523 0.767368
vt 0.890784 0.777125
vt 0.883682 0.759474
vt 0.913087 0.776573
vt 0.905110 0.789645
vt 0.974425 0.424938
vt 0.961905 0.439264
vt 0.952148 0.425525
vt 0.961353 0.416961
vt 0.944254 0.446365
vt 0.941029 0.431395
vt 0.897322 0.744296
vt 0.923934 0.781768
vt 0.921623 0.795407
vt 0.926764 0.446365
vt 0.929076 0.432726
vt 0.966548 0.406113
vt 0.980188 0.408425
vt 0.883682 0.741984
vt 0.950783 0.373836
vt 0.958760 0.360764
vt 0.973086 0.373284
vt 0.959347 0.383041
vt 0.919616 0.704044
vt 0.922841 0.719014
vt 0.911722 0.724884
vt 0.901965 0.711145
vt 0.980188 0.390935
vt 0.965217 0.394160
vt 0.902517 0.733448
vt 0.889445 0.725471
vt 0.956212 0.766003
vt 0.969284 0.773980
vt 0.956764 0.788306
vt 0.947006 0.774567
vt 0.888824 0.410432
vt 0.903794 0.407207
vt 0.909664 0.418326
vt 0.895925 0.428083
vt 0.939113 0.795407
vt 0.935887 0.780437
vt 0.918229 0.427531
vt 0.910251 0.440603
vt 0.256434 0.805352
vt 0.231734 0.756609
vt 0.251073 0.749074
vt 0.263280 0.796973
vt 0.271780 0.745854
vt 0.272713 0.795381
vt 0.293335 0.747520
vt 0.281962 0.804590
vt 0.293335 0.858066
vt 0.273067 0.859967
vt 0.272932 0.812569
vt 0.367635 0.383454
vt 0.367635 0.400525
vt 0.352851 0.409061
vt 0.338066 0.400525
vt 0.338066 0.383454
vt 0.352851 0.374918
vt 0.253426 0.856982
vt 0.263672 0.813131
vt 0.237819 0.851721
vt 0.854390 0.948852
vt 0.849280 0.956508
vt 0.841561 0.951026
vt 0.847043 0.943307
vt 0.843735 0.963856
vt 0.836078 0.958746
vt 0.833841 0.945544
vt 0.839387 0.938197
vt 0.828731 0.953200
vt 0.865223 0.947016
vt 0.862091 0.953964
vt 0.859977 0.941488
vt 0.857027 0.962010
vt 0.851099 0.969443
vt 0.845571 0.974689
vt 0.838623 0.971557
vt 0.830577 0.966492
vt 0.823144 0.960564
vt 0.817898 0.955036
vt 0.821030 0.948088
vt 0.826094 0.940042
vt 0.832023 0.932609
vt 0.844499 0.930495
vt 0.837551 0.927363
vt 0.852545 0.935560
vt 0.825283 0.924178
vt 0.816719 0.933384
vt 0.802980 0.923627
vt 0.817306 0.911106
vt 0.810849 0.944503
vt 0.795879 0.941278
vt 0.939113 0.606096
vt 0.956764 0.613197
vt 0.947006 0.626936
vt 0.935887 0.621066
vt 0.969284 0.627523
vt 0.956212 0.635500
vt 0.836131 0.918984
vt 0.809518 0.956456
vt 0.795879 0.958767
vt 0.975046 0.644036
vt 0.961407 0.646348
vt 0.953027 0.647768
vt 0.947781 0.642240
vt 0.940348 0.636311
vt 0.932302 0.631247
vt 0.923934 0.619735
vt 0.925354 0.628115
vt 0.921623 0.606096
vt 0.833819 0.905344
vt 0.927190 0.638948
vt 0.934847 0.644058
vt 0.929364 0.651778
vt 0.921645 0.646295
vt 0.942194 0.649604
vt 0.937084 0.657260
vt 0.923882 0.659497
vt 0.916535 0.653952
vt 0.931539 0.664607
vt 0.919826 0.633361
vt 0.949895 0.654716
vt 0.944831 0.662762
vt 0.938902 0.670194
vt 0.933374 0.675440
vt 0.926426 0.672308
vt 0.918380 0.667244
vt 0.910948 0.661316
vt 0.908834 0.648840
vt 0.905702 0.655788
vt 0.913898 0.640794
vt 0.902517 0.668055
vt 0.911722 0.676619
vt 0.901965 0.690358
vt 0.889445 0.676032
vt 0.922841 0.682489
vt 0.919616 0.697460
vt 0.887242 0.960775
vt 0.880141 0.978426
vt 0.866402 0.968668
vt 0.872272 0.957549
vt 0.865815 0.990946
vt 0.857838 0.977874
vt 0.897322 0.657208
vt 0.934794 0.683820
vt 0.937106 0.697460
vt 0.849302 0.996708
vt 0.846991 0.983069
vt 0.873603 0.945596
vt 0.887242 0.943285
vt 0.883683 0.659519
vt 0.848084 0.920315
vt 0.851309 0.905344
vt 0.868960 0.912446
vt 0.859203 0.926185
vt 0.905110 0.611858
vt 0.913087 0.624930
vt 0.904523 0.634136
vt 0.890784 0.624378
vt 0.881480 0.926771
vt 0.868408 0.934749
vt 0.898653 0.645255
vt 0.883683 0.642029
vt 0.960076 0.658301
vt 0.975046 0.661526
vt 0.967945 0.679177
vt 0.954206 0.669420
vt 0.801641 0.975281
vt 0.814713 0.967303
vt 0.823919 0.975868
vt 0.814161 0.989607
vt 0.953619 0.691697
vt 0.945642 0.678625
vt 0.835038 0.981737
vt 0.831812 0.996708
vt 0.024019 0.838076
vt 0.003292 0.786677
vt 0.023293 0.780953
vt 0.032201 0.829789
vt 0.043927 0.779602
vt 0.041426 0.828580
vt 0.064920 0.782948
vt 0.049752 0.837576
vt 0.064920 0.889264
vt 0.045100 0.892651
vt 0.042023 0.846623
vt 0.403788 0.400525
vt 0.389004 0.409061
vt 0.374219 0.400525
vt 0.374219 0.383454
vt 0.389004 0.374918
vt 0.403788 0.383454
vt 0.025603 0.891462
vt 0.033290 0.845848
vt 0.009070 0.887465
vt 0.173011 0.941770
vt 0.180358 0.936224
vt 0.185840 0.943944
vt 0.178121 0.949426
vt 0.188014 0.931114
vt 0.193560 0.938461
vt 0.191323 0.951663
vt 0.183666 0.956773
vt 0.198670 0.946118
vt 0.162178 0.939934
vt 0.167423 0.934406
vt 0.165309 0.946882
vt 0.174856 0.928477
vt 0.182902 0.923413
vt 0.189850 0.920281
vt 0.195378 0.925527
vt 0.201307 0.932960
vt 0.206371 0.941006
vt 0.209503 0.947954
vt 0.204257 0.953482
vt 0.196824 0.959410
vt 0.188778 0.964475
vt 0.176302 0.962360
vt 0.181830 0.967606
vt 0.170374 0.954928
vt 0.192363 0.974655
vt 0.203482 0.968785
vt 0.213240 0.982524
vt 0.195589 0.989626
vt 0.212688 0.960221
vt 0.225760 0.968198
vt 0.801641 0.828824
vt 0.814161 0.814498
vt 0.823919 0.828237
vt 0.814713 0.836801
vt 0.831812 0.807396
vt 0.835037 0.822367
vt 0.180410 0.975986
vt 0.217883 0.949374
vt 0.231522 0.951685
vt 0.849302 0.807396
vt 0.846991 0.821036
vt 0.845571 0.829416
vt 0.838623 0.832547
vt 0.830577 0.837612
vt 0.823144 0.843540
vt 0.809518 0.847648
vt 0.817898 0.849068
vt 0.795879 0.845337
vt 0.178099 0.989626
vt 0.828731 0.850904
vt 0.836078 0.845359
vt 0.841561 0.853078
vt 0.833841 0.858561
vt 0.843735 0.840249
vt 0.849280 0.847596
vt 0.847043 0.860798
vt 0.839387 0.865908
vt 0.854390 0.855252
vt 0.821030 0.856016
vt 0.851099 0.834662
vt 0.857027 0.842094
vt 0.862091 0.850140
vt 0.865223 0.857088
vt 0.859977 0.862616
vt 0.852545 0.868545
vt 0.844499 0.873609
vt 0.832023 0.871495
vt 0.837551 0.876741
vt 0.826094 0.864062
vt 0.848084 0.883790
vt 0.859203 0.877920
vt 0.868960 0.891659
vt 0.851309 0.898760
vt 0.868408 0.869355
vt 0.881480 0.877333
vt 0.145920 0.919689
vt 0.158441 0.905363
vt 0.168198 0.919102
vt 0.158992 0.927667
vt 0.176091 0.898262
vt 0.179317 0.913232
vt 0.836131 0.885121
vt 0.873603 0.858508
vt 0.887242 0.860820
vt 0.193581 0.898262
vt 0.191270 0.911901
vt 0.153798 0.938514
vt 0.140158 0.936203
vt 0.833819 0.898760
vt 0.169563 0.970791
vt 0.161586 0.983863
vt 0.147260 0.971343
vt 0.160999 0.961586
vt 0.795879 0.862827
vt 0.810849 0.859601
vt 0.816719 0.870720
vt 0.802980 0.880478
vt 0.140158 0.953692
vt 0.155129 0.950467
vt 0.825284 0.879926
vt 0.817306 0.892998
vt 0.857838 0.826231
vt 0.865815 0.813159
vt 0.880141 0.825679
vt 0.866402 0.835436
vt 0.231522 0.934195
vt 0.216551 0.937421
vt 0.210682 0.926302
vt 0.224421 0.916544
vt 0.887242 0.843330
vt 0.872272 0.846555
vt 0.202117 0.917096
vt 0.210095 0.904024
vt 0.318877 0.798998
vt 0.306676 0.748934
vt 0.323380 0.745854
vt 0.328651 0.790955
vt 0.342607 0.745854
vt 0.337504 0.790098
vt 0.359561 0.749162
vt 0.346628 0.799946
vt 0.359980 0.856505
vt 0.338433 0.859008
vt 0.337779 0.809246
vt 0.811740 0.303649
vt 0.826524 0.295113
vt 0.841308 0.303649
vt 0.841308 0.320720
vt 0.826524 0.329256
vt 0.811740 0.320720
vt 0.317499 0.856600
vt 0.328416 0.807906
vt 0.299920 0.851339
vt 0.926679 0.850904
vt 0.934026 0.845359
vt 0.939508 0.853078
vt 0.931789 0.858561
vt 0.941682 0.840249
vt 0.947228 0.847596
vt 0.944991 0.860798
vt 0.937334 0.865908
vt 0.952338 0.855252
vt 0.915846 0.849068
vt 0.921091 0.843540
vt 0.918977 0.856016
vt 0.928524 0.837612
vt 0.936570 0.832547
vt 0.943518 0.829416
vt 0.949046 0.834662
vt 0.954975 0.842094
vt 0.960039 0.850140
vt 0.963171 0.857088
vt 0.957925 0.862616
vt 0.950492 0.868545
vt 0.942446 0.873609
vt 0.929970 0.871495
vt 0.935498 0.876741
vt 0.924042 0.864062
vt 0.946031 0.883790
vt 0.957150 0.877920
vt 0.966908 0.891659
vt 0.949257 0.898760
vt 0.966356 0.869355
vt 0.979428 0.877333
vt 0.683401 0.275813
vt 0.695921 0.261488
vt 0.705679 0.275227
vt 0.696474 0.283791
vt 0.713572 0.254386
vt 0.716798 0.269357
vt 0.934078 0.885121
vt 0.971551 0.858508
vt 0.985190 0.860819
vt 0.731062 0.254386
vt 0.728751 0.268026
vt 0.727331 0.276405
vt 0.720383 0.279537
vt 0.712337 0.284602
vt 0.704904 0.290530
vt 0.691278 0.294638
vt 0.699659 0.296058
vt 0.677639 0.292327
vt 0.931767 0.898760
vt 0.710492 0.297894
vt 0.717839 0.292349
vt 0.723321 0.300068
vt 0.715602 0.305550
vt 0.725495 0.287239
vt 0.731040 0.294586
vt 0.728803 0.307788
vt 0.721147 0.312898
vt 0.736150 0.302242
vt 0.702790 0.303006
vt 0.732859 0.281652
vt 0.738787 0.289084
vt 0.743852 0.297130
vt 0.746984 0.304078
vt 0.741738 0.309606
vt 0.734305 0.315534
vt 0.726259 0.320599
vt 0.713783 0.318485
vt 0.719311 0.323731
vt 0.707855 0.311052
vt 0.729844 0.330780
vt 0.740963 0.324910
vt 0.750720 0.338649
vt 0.733070 0.345750
vt 0.750169 0.316345
vt 0.763241 0.324323
vt 0.899588 0.828824
vt 0.912109 0.814498
vt 0.921866 0.828237
vt 0.912660 0.836801
vt 0.929759 0.807396
vt 0.932985 0.822367
vt 0.717891 0.332111
vt 0.755364 0.305498
vt 0.769003 0.307809
vt 0.947249 0.807396
vt 0.944938 0.821036
vt 0.907466 0.847649
vt 0.893826 0.845337
vt 0.715580 0.345750
vt 0.923231 0.879926
vt 0.915254 0.892998
vt 0.900928 0.880478
vt 0.914667 0.870720
vt 0.677639 0.309817
vt 0.692610 0.306591
vt 0.698480 0.317710
vt 0.684741 0.327468
vt 0.893826 0.862827
vt 0.908797 0.859601
vt 0.707044 0.326916
vt 0.699066 0.339988
vt 0.739598 0.273220
vt 0.747576 0.260149
vt 0.761901 0.272669
vt 0.748162 0.282426
vt 0.985190 0.843330
vt 0.970219 0.846555
vt 0.964349 0.835436
vt 0.978089 0.825679
vt 0.769003 0.290320
vt 0.754033 0.293545
vt 0.955785 0.826231
vt 0.963763 0.813159
vt 0.408069 0.800615
vt 0.425853 0.853837
vt 0.405356 0.858243
vt 0.399367 0.809081
vt 0.384660 0.858134
vt 0.389890 0.810312
vt 0.366564 0.854661
vt 0.380193 0.800446
vt 0.366564 0.749760
vt 0.383499 0.746221
vt 0.389435 0.790964
vt 0.841308 0.279993
vt 0.826524 0.288529
vt 0.811740 0.279993
vt 0.811740 0.262922
vt 0.826524 0.254386
vt 0.841308 0.262922
vt 0.403178 0.745854
vt 0.398135 0.792289
vt 0.420411 0.748951
vt 0.046800 0.957747
vt 0.041255 0.950399
vt 0.048974 0.944917
vt 0.054456 0.952637
vt 0.036144 0.942743
vt 0.043492 0.937198
vt 0.056693 0.939435
vt 0.061803 0.947091
vt 0.051148 0.932088
vt 0.044964 0.968580
vt 0.039436 0.963334
vt 0.051912 0.965448
vt 0.033507 0.955901
vt 0.028443 0.947855
vt 0.025311 0.940907
vt 0.030557 0.935379
vt 0.037990 0.929451
vt 0.046036 0.924386
vt 0.052984 0.921255
vt 0.058512 0.926500
vt 0.064440 0.933933
vt 0.069505 0.941979
vt 0.067390 0.954455
vt 0.072636 0.948927
vt 0.059958 0.960383
vt 0.079685 0.938394
vt 0.073815 0.927275
vt 0.087554 0.917518
vt 0.094656 0.935169
vt 0.065251 0.918069
vt 0.073228 0.904997
vt 0.369856 0.871355
vt 0.384182 0.883875
vt 0.370443 0.893632
vt 0.361879 0.884427
vt 0.391283 0.901526
vt 0.376313 0.904751
vt 0.081016 0.950347
vt 0.054404 0.912875
vt 0.056715 0.899235
vt 0.391283 0.919016
vt 0.377644 0.916704
vt 0.369264 0.915284
vt 0.366132 0.908336
vt 0.361068 0.900290
vt 0.355139 0.892858
vt 0.351031 0.879232
vt 0.349612 0.887612
vt 0.353343 0.865592
vt 0.094656 0.952658
vt 0.347776 0.898445
vt 0.353321 0.905792
vt 0.345601 0.911274
vt 0.340119 0.903555
vt 0.358431 0.913448
vt 0.351083 0.918994
vt 0.337882 0.916756
vt 0.332772 0.909100
vt 0.343427 0.924104
vt 0.342663 0.890743
vt 0.364018 0.920812
vt 0.356585 0.926741
vt 0.348539 0.931805
vt 0.341591 0.934937
vt 0.336063 0.929691
vt 0.330135 0.922258
vt 0.325071 0.914212
vt 0.327185 0.901736
vt 0.321939 0.907264
vt 0.334617 0.895808
vt 0.314890 0.917797
vt 0.320760 0.928916
vt 0.307021 0.938674
vt 0.299920 0.921023
vt 0.329324 0.938122
vt 0.321346 0.951194
vt 0.024719 0.984837
vt 0.010393 0.972317
vt 0.024132 0.962559
vt 0.032697 0.971765
vt 0.003292 0.954666
vt 0.018262 0.951440
vt 0.313559 0.905844
vt 0.340171 0.943317
vt 0.337860 0.956956
vt 0.003292 0.937176
vt 0.016931 0.939487
vt 0.043544 0.976960
vt 0.041233 0.990599
vt 0.299920 0.903533
vt 0.075821 0.961194
vt 0.088893 0.969172
vt 0.076373 0.983497
vt 0.066616 0.969759
vt 0.335853 0.865592
vt 0.339078 0.880563
vt 0.327959 0.886433
vt 0.318202 0.872694
vt 0.058722 0.990599
vt 0.055497 0.975629
vt 0.318754 0.894997
vt 0.305682 0.887020
vt 0.372449 0.927552
vt 0.385521 0.935529
vt 0.373001 0.949855
vt 0.363243 0.936116
vt 0.039225 0.899235
vt 0.042451 0.914206
vt 0.031332 0.920076
vt 0.021574 0.906337
vt 0.355350 0.956956
vt 0.352124 0.941986
vt 0.022126 0.928640
vt 0.009054 0.920662
vt 0.894245 0.244890
vt 0.910991 0.294136
vt 0.892013 0.298320
vt 0.886221 0.252780
vt 0.872829 0.298320
vt 0.877443 0.253968
vt 0.856039 0.295190
vt 0.868406 0.244871
vt 0.849243 0.191608
vt 0.869870 0.186693
vt 0.876409 0.235684
vt 0.790371 0.288529
vt 0.775587 0.279994
vt 0.775587 0.262922
vt 0.790371 0.254386
vt 0.805156 0.262922
vt 0.805156 0.279993
vt 0.890911 0.186479
vt 0.885542 0.236861
vt 0.911787 0.190924
vt 0.569615 0.886371
vt 0.575160 0.893719
vt 0.567441 0.899201
vt 0.561959 0.891481
vt 0.580270 0.901375
vt 0.572923 0.906920
vt 0.559722 0.904683
vt 0.554612 0.897027
vt 0.565267 0.912030
vt 0.571451 0.875538
vt 0.576979 0.880784
vt 0.564503 0.878670
vt 0.582907 0.888217
vt 0.587972 0.896263
vt 0.591104 0.903211
vt 0.585858 0.908739
vt 0.578425 0.914667
vt 0.570379 0.919732
vt 0.563431 0.922863
vt 0.557903 0.917617
vt 0.551975 0.910185
vt 0.546910 0.902139
vt 0.549024 0.889663
vt 0.543779 0.895191
vt 0.556457 0.883734
vt 0.536730 0.905724
vt 0.542600 0.916843
vt 0.528860 0.926600
vt 0.521759 0.908949
vt 0.551164 0.926048
vt 0.543186 0.939120
vt 0.958760 0.458712
vt 0.973086 0.471232
vt 0.959347 0.480989
vt 0.950783 0.471784
vt 0.980187 0.488883
vt 0.965217 0.492108
vt 0.535398 0.893771
vt 0.562011 0.931243
vt 0.559700 0.944883
vt 0.980187 0.506372
vt 0.966548 0.504061
vt 0.958168 0.502641
vt 0.955036 0.495693
vt 0.949972 0.487647
vt 0.944044 0.480215
vt 0.939935 0.466589
vt 0.938516 0.474969
vt 0.942247 0.452949
vt 0.521759 0.891459
vt 0.936680 0.485802
vt 0.942225 0.493149
vt 0.934506 0.498631
vt 0.929023 0.490912
vt 0.947335 0.500805
vt 0.939988 0.506351
vt 0.926786 0.504113
vt 0.921676 0.496457
vt 0.932331 0.511461
vt 0.931568 0.478100
vt 0.952922 0.508169
vt 0.945490 0.514098
vt 0.937444 0.519162
vt 0.930496 0.522294
vt 0.924968 0.517048
vt 0.919039 0.509615
vt 0.913975 0.501569
vt 0.916089 0.489093
vt 0.910843 0.494621
vt 0.923522 0.483165
vt 0.903794 0.505154
vt 0.909664 0.516273
vt 0.895925 0.526031
vt 0.888824 0.508380
vt 0.918228 0.525479
vt 0.910251 0.538551
vt 0.591696 0.859281
vt 0.606021 0.871801
vt 0.592282 0.881559
vt 0.583718 0.872353
vt 0.613123 0.889452
vt 0.598152 0.892678
vt 0.902463 0.493201
vt 0.929076 0.530674
vt 0.926764 0.544313
vt 0.613123 0.906942
vt 0.599483 0.904631
vt 0.572871 0.867158
vt 0.575182 0.853519
vt 0.888824 0.490890
vt 0.540593 0.882923
vt 0.527521 0.874946
vt 0.540042 0.860620
vt 0.549799 0.874359
vt 0.924757 0.452949
vt 0.927982 0.467920
vt 0.916863 0.473790
vt 0.907106 0.460051
vt 0.557692 0.853519
vt 0.560918 0.868489
vt 0.907658 0.482354
vt 0.894586 0.474377
vt 0.961353 0.514908
vt 0.974425 0.522886
vt 0.961905 0.537212
vt 0.952148 0.523473
vt 0.577190 0.944883
vt 0.573964 0.929912
vt 0.585083 0.924042
vt 0.594841 0.937781
vt 0.944254 0.544313
vt 0.941029 0.529343
vt 0.594289 0.915478
vt 0.607361 0.923455
vt 0.087614 0.837498
vt 0.071504 0.783503
vt 0.092334 0.779602
vt 0.096447 0.829744
vt 0.113214 0.780323
vt 0.105536 0.828804
vt 0.133574 0.785694
vt 0.113258 0.838116
vt 0.127179 0.887792
vt 0.110571 0.891445
vt 0.104303 0.846950
vt 0.790371 0.329256
vt 0.775587 0.320721
vt 0.775587 0.303649
vt 0.790371 0.295113
vt 0.805156 0.303649
vt 0.805156 0.320720
vt 0.091024 0.892082
vt 0.095762 0.845452
vt 0.071504 0.888172
vt 0.595959 0.355002
vt 0.595959 0.653946
vt 0.539469 0.590024
vt 0.548820 0.436930
vt 0.481095 0.581819
vt 0.490445 0.428725
vt 0.433956 0.663747
vt 0.433956 0.364803
vt 0.842659 0.003292
vt 0.842659 0.239219
vt 0.768282 0.239219
vt 0.768282 0.003292
vt 0.509928 0.325535
vt 0.509928 0.024964
vt 0.566442 0.086673
vt 0.555464 0.239158
vt 0.625519 0.089669
vt 0.614541 0.242154
vt 0.671055 0.003292
vt 0.671055 0.303863
vt 0.602543 0.845865
vt 0.602543 0.609938
vt 0.676920 0.609938
vt 0.676920 0.845865
vt 0.411087 0.446000
vt 0.411087 0.726934
vt 0.346625 0.657071
vt 0.357170 0.535941
vt 0.292980 0.643737
vt 0.301314 0.536341
vt 0.307544 0.542720
vt 0.298675 0.636730
vt 0.296196 0.528199
vt 0.285651 0.649329
vt 0.231734 0.739270
vt 0.231734 0.458336
vt 0.515175 0.670332
vt 0.515175 0.865048
vt 0.433956 0.865048
vt 0.433956 0.670332
vt 0.341507 0.648929
vt 0.349841 0.541532
vt 0.584866 0.670332
vt 0.584866 0.846935
vt 0.521759 0.846935
vt 0.521759 0.670332
vt 0.344146 0.548540
vt 0.335277 0.642550
vt 0.003292 0.773018
vt 0.003292 0.492085
vt 0.067754 0.561948
vt 0.057209 0.683077
vt 0.121399 0.575281
vt 0.113065 0.682678
vt 0.106835 0.676299
vt 0.115704 0.582288
vt 0.118183 0.690819
vt 0.128728 0.569690
vt 0.182645 0.479749
vt 0.182645 0.760683
vt 0.877098 0.606096
vt 0.877098 0.800812
vt 0.795879 0.800812
vt 0.795879 0.606096
vt 0.072872 0.570090
vt 0.064538 0.677486
vt 0.912349 0.003292
vt 0.912349 0.179895
vt 0.849243 0.179895
vt 0.849243 0.003292
vt 0.070233 0.670479
vt 0.079102 0.576469
vt 0.383443 0.423796
vt 0.390140 0.430324
vt 0.376782 0.429492
vt 0.382814 0.423242
vt 0.376782 0.416888
vt 0.383320 0.422437
vt 0.390140 0.415645
vt 0.384230 0.422899
vt 0.225150 0.479749
vt 0.225150 0.485793
vt 0.219106 0.485793
vt 0.219106 0.479749
vt 0.403544 0.422437
vt 0.402634 0.422899
vt 0.396724 0.415645
vt 0.410082 0.416888
vt 0.403421 0.423796
vt 0.396724 0.430324
vt 0.404050 0.423242
vt 0.410082 0.429492
vt 0.212522 0.479749
vt 0.212522 0.485793
vt 0.206479 0.485793
vt 0.206479 0.479749
vt 0.345361 0.425594
vt 0.345335 0.423333
vt 0.350840 0.428531
vt 0.338066 0.430702
vt 0.343842 0.421634
vt 0.348930 0.416692
vt 0.341398 0.421084
vt 0.338066 0.415645
vt 0.225150 0.492377
vt 0.225150 0.498420
vt 0.219106 0.498420
vt 0.219106 0.492377
vt 0.364719 0.420754
vt 0.357424 0.415645
vt 0.370198 0.417816
vt 0.364693 0.423015
vt 0.368288 0.429656
vt 0.363200 0.424714
vt 0.357424 0.430702
vt 0.360756 0.425264
vt 0.212522 0.498420
vt 0.206479 0.498420
vt 0.206479 0.492377
vt 0.212522 0.492377
vt 0.331482 0.099099
vt 0.231734 0.099099
vt 0.231734 0.015041
vt 0.331482 0.015041
vt 0.421189 0.613862
vt 0.421189 0.380484
vt 0.427371 0.380484
vt 0.427371 0.613862
vt 0.331482 0.427668
vt 0.231734 0.427668
vt 0.231734 0.343609
vt 0.331482 0.343609
vt 0.761698 0.003292
vt 0.761698 0.247802
vt 0.677639 0.247802
vt 0.677639 0.003292
vt 0.695354 0.599512
vt 0.695354 0.355002
vt 0.779413 0.355002
vt 0.779413 0.599512
vt 0.233487 0.009475
vt 0.329730 0.009475
vt 0.190982 0.485315
vt 0.190982 0.718693
vt 0.189229 0.724259
vt 0.189229 0.479749
vt 0.419436 0.619428
vt 0.419436 0.374918
vt 0.329730 0.433233
vt 0.233487 0.433233
vt 0.785997 0.355002
vt 0.882240 0.355002
vt 0.882240 0.588380
vt 0.785997 0.588380
vt 0.233487 0.003292
vt 0.329730 0.003292
vt 0.329730 0.439416
vt 0.233487 0.439416
vt 0.197165 0.485315
vt 0.197165 0.718693
vt 0.695906 0.611496
vt 0.695354 0.610799
vt 0.789295 0.606096
vt 0.788640 0.606729
vt 0.789295 0.837887
vt 0.788743 0.837191
vt 0.695354 0.842590
vt 0.696009 0.841957
vt 0.602543 0.603354
vt 0.602543 0.355002
vt 0.688770 0.355002
vt 0.688770 0.603354
s 0
usemtl Материал
f 1/1/1 2/2/1 9/3/1 10/4/1
f 11/5/2 12/6/2 4/7/2 3/8/2
f 3/9/3 4/10/3 2/11/3 1/12/3
f 10/4/4 11/5/4 3/8/4 1/1/4
f 12/6/5 9/3/5 2/2/5 4/7/5
f 5/13/4 8/14/4 16/15/4 13/16/4
f 5/13/6 6/17/6 10/4/6 9/3/6
f 6/17/6 7/18/6 11/5/6 10/4/6
f 8/14/6 5/13/6 9/3/6 12/6/6
f 7/18/6 8/14/6 12/6/6 11/5/6
f 14/19/6 13/20/6 16/21/6 15/22/6
f 6/17/2 5/13/2 13/16/2 14/23/2
f 8/14/1 7/18/1 15/24/1 16/15/1
f 7/18/5 6/17/5 14/23/5 15/24/5
s 1
f 61/25/7 62/26/8 65/27/1 64/28/9
f 62/26/8 63/29/10 66/30/11 65/27/1
f 64/28/9 65/27/1 68/31/12 67/32/13
f 65/27/1 66/30/11 69/33/14 68/31/12
f 17/34/15 28/35/16 61/25/7 27/36/17
f 28/35/16 29/37/18 62/26/8 61/25/7
f 29/37/18 30/38/19 63/29/10 62/26/8
f 30/38/19 18/39/20 31/40/21 63/29/10
f 63/29/10 31/40/21 32/41/22 66/30/11
f 66/30/11 32/41/22 33/42/23 69/33/14
f 69/33/14 33/42/23 20/43/24 34/44/25
f 68/31/12 69/33/14 34/44/25 35/45/26
f 67/32/13 68/31/12 35/45/26 36/46/27
f 25/47/28 67/32/13 36/46/27 19/48/29
f 26/49/30 64/28/9 67/32/13 25/47/28
f 27/36/17 61/25/7 64/28/9 26/49/30
f 70/50/31 71/51/32 74/52/6 73/53/33
f 71/51/32 72/54/34 75/55/35 74/52/6
f 73/56/33 74/57/6 77/58/36 76/59/37
f 74/57/6 75/60/35 78/61/38 77/58/36
f 19/48/29 36/46/27 70/50/31 39/62/39
f 36/46/27 35/45/26 71/51/32 70/50/31
f 35/45/26 34/44/25 72/54/34 71/51/32
f 34/44/25 20/43/24 40/63/40 72/54/34
f 72/54/34 40/63/40 41/64/41 75/55/35
f 75/60/35 41/65/41 42/66/42 78/61/38
f 78/61/38 42/66/42 24/67/43 43/68/44
f 77/58/36 78/61/38 43/68/44 44/69/45
f 76/59/37 77/58/36 44/69/45 45/70/46
f 37/71/47 76/59/37 45/70/46 23/72/48
f 38/73/49 73/56/33 76/59/37 37/71/47
f 39/62/39 70/50/31 73/53/33 38/74/49
f 79/75/50 80/76/51 83/77/2 82/78/52
f 80/76/51 81/79/53 84/80/54 83/77/2
f 82/78/52 83/77/2 86/81/55 85/82/56
f 83/77/2 84/80/54 87/83/57 86/81/55
f 23/72/48 45/70/46 79/75/50 48/84/58
f 45/70/46 44/69/45 80/76/51 79/75/50
f 44/69/45 43/68/44 81/79/53 80/76/51
f 43/68/44 24/67/43 49/85/59 81/79/53
f 81/79/53 49/85/59 50/86/60 84/80/54
f 84/80/54 50/86/60 51/87/61 87/83/57
f 87/83/57 51/87/61 22/88/62 52/89/63
f 86/81/55 87/83/57 52/89/63 53/90/64
f 85/82/56 86/81/55 53/90/64 54/91/65
f 46/92/66 85/82/56 54/91/65 21/93/67
f 47/94/68 82/78/52 85/82/56 46/92/66
f 48/84/58 79/75/50 82/78/52 47/94/68
f 88/95/69 89/96/70 92/97/3 91/98/71
f 89/96/70 90/99/72 93/100/73 92/97/3
f 91/101/71 92/102/3 95/103/74 94/104/75
f 92/102/3 93/105/73 96/106/76 95/103/74
f 21/93/67 54/91/65 88/95/69 57/107/77
f 54/91/65 53/90/64 89/96/70 88/95/69
f 53/90/64 52/89/63 90/99/72 89/96/70
f 52/89/63 22/88/62 58/108/78 90/99/72
f 90/99/72 58/108/78 59/109/79 93/100/73
f 93/105/73 59/110/79 60/111/80 96/106/76
f 96/106/76 60/111/80 18/39/20 30/38/19
f 95/103/74 96/106/76 30/38/19 29/37/18
f 94/104/75 95/103/74 29/37/18 28/35/16
f 55/112/81 94/104/75 28/35/16 17/34/15
f 56/113/82 91/101/71 94/104/75 55/112/81
f 57/107/77 88/95/69 91/98/71 56/114/82
f 97/115/83 98/116/84 101/117/4 100/118/85
f 98/119/84 99/120/86 102/121/87 101/122/4
f 100/118/85 101/117/4 104/123/88 103/124/89
f 101/122/4 102/121/87 105/125/90 104/126/88
f 19/48/29 39/62/39 97/115/83 25/47/28
f 39/62/39 38/74/49 98/116/84 97/115/83
f 38/73/49 37/71/47 99/120/86 98/119/84
f 37/71/47 23/72/48 48/84/58 99/120/86
f 99/120/86 48/84/58 47/94/68 102/121/87
f 102/121/87 47/94/68 46/92/66 105/125/90
f 105/125/90 46/92/66 21/93/67 57/107/77
f 104/126/88 105/125/90 57/107/77 56/114/82
f 103/124/89 104/123/88 56/113/82 55/112/81
f 27/36/17 103/124/89 55/112/81 17/34/15
f 26/49/30 100/118/85 103/124/89 27/36/17
f 25/47/28 97/115/83 100/118/85 26/49/30
f 106/127/91 107/128/92 110/129/5 109/130/93
f 107/131/92 108/132/94 111/133/95 110/134/5
f 109/130/93 110/129/5 113/135/96 112/136/97
f 110/134/5 111/133/95 114/137/98 113/138/96
f 24/67/43 42/66/42 106/127/91 49/85/59
f 42/66/42 41/65/41 107/128/92 106/127/91
f 41/64/41 40/63/40 108/132/94 107/131/92
f 40/63/40 20/43/24 33/42/23 108/132/94
f 108/132/94 33/42/23 32/41/22 111/133/95
f 111/133/95 32/41/22 31/40/21 114/137/98
f 114/137/98 31/40/21 18/39/20 60/111/80
f 113/138/96 114/137/98 60/111/80 59/110/79
f 112/136/97 113/135/96 59/109/79 58/108/78
f 51/87/61 112/136/97 58/108/78 22/88/62
f 50/86/60 109/130/93 112/136/97 51/87/61
f 49/85/59 106/127/91 109/130/93 50/86/60
f 115/139/99 116/140/99 118/141/99 117/142/99
f 117/142/100 118/141/100 120/143/100 119/144/100
f 119/144/101 120/143/101 122/145/101 121/146/101
f 121/146/102 122/147/102 124/148/102 123/149/102
f 118/150/3 116/151/3 126/152/3 124/153/3 122/154/3 120/155/3
f 123/149/103 124/148/103 126/156/103 125/157/103
f 125/157/104 126/156/104 116/158/104 115/139/104
f 115/139/6 117/142/6 119/144/6 121/146/6 123/149/6 125/157/6
f 171/159/7 172/160/8 175/161/1 174/162/9
f 172/160/8 173/163/10 176/164/11 175/161/1
f 174/162/9 175/161/1 178/165/12 177/166/13
f 175/161/1 176/164/11 179/167/14 178/165/12
f 127/168/15 138/169/105 171/159/7 137/170/17
f 138/169/105 139/171/18 172/160/8 171/159/7
f 139/171/18 140/172/19 173/163/10 172/160/8
f 140/172/19 128/173/106 141/174/21 173/163/10
f 173/163/10 141/174/21 142/175/22 176/164/11
f 176/164/11 142/175/22 143/176/23 179/167/14
f 179/167/14 143/176/23 130/177/107 144/178/25
f 178/165/12 179/167/14 144/178/25 145/179/26
f 177/166/13 178/165/12 145/179/26 146/180/27
f 135/181/28 177/166/13 146/180/27 129/182/108
f 136/183/30 174/162/9 177/166/13 135/181/28
f 137/170/17 171/159/7 174/162/9 136/183/30
f 180/184/31 181/185/32 184/186/6 183/187/33
f 181/185/32 182/188/34 185/189/35 184/186/6
f 183/190/33 184/191/6 187/192/36 186/193/37
f 184/191/6 185/194/35 188/195/38 187/192/36
f 129/182/108 146/180/27 180/184/31 149/196/39
f 146/180/27 145/179/26 181/185/32 180/184/31
f 145/179/26 144/178/25 182/188/34 181/185/32
f 144/178/25 130/177/107 150/197/40 182/188/34
f 182/188/34 150/197/40 151/198/41 185/189/35
f 185/194/35 151/199/41 152/200/42 188/195/38
f 188/195/38 152/200/42 134/201/109 153/202/110
f 187/192/36 188/195/38 153/202/110 154/203/45
f 186/193/37 187/192/36 154/203/45 155/204/111
f 147/205/47 186/193/37 155/204/111 133/206/48
f 148/207/49 183/190/33 186/193/37 147/205/47
f 149/196/39 180/184/31 183/187/33 148/208/49
f 189/209/50 190/210/51 193/211/2 192/212/52
f 190/210/51 191/213/53 194/214/54 193/211/2
f 192/212/52 193/211/2 196/215/55 195/216/56
f 193/211/2 194/214/54 197/217/57 196/215/55
f 133/206/48 155/204/111 189/209/50 158/218/58
f 155/204/111 154/203/45 190/210/51 189/209/50
f 154/203/45 153/202/110 191/213/53 190/210/51
f 153/202/110 134/201/109 159/219/59 191/213/53
f 191/213/53 159/219/59 160/220/60 194/214/54
f 194/214/54 160/220/60 161/221/61 197/217/57
f 197/217/57 161/221/61 132/222/62 162/223/63
f 196/215/55 197/217/57 162/223/63 163/224/64
f 195/216/56 196/215/55 163/224/64 164/225/65
f 156/226/112 195/216/56 164/225/65 131/227/67
f 157/228/68 192/212/52 195/216/56 156/226/112
f 158/218/58 189/209/50 192/212/52 157/228/68
f 198/229/69 199/230/70 202/231/3 201/232/71
f 199/230/70 200/233/72 203/234/73 202/231/3
f 201/235/71 202/236/3 205/237/74 204/238/75
f 202/236/3 203/239/73 206/240/76 205/237/74
f 131/227/67 164/225/65 198/229/69 167/241/77
f 164/225/65 163/224/64 199/230/70 198/229/69
f 163/224/64 162/223/63 200/233/72 199/230/70
f 162/223/63 132/222/62 168/242/78 200/233/72
f 200/233/72 168/242/78 169/243/79 203/234/73
f 203/239/73 169/244/79 170/245/80 206/240/76
f 206/240/76 170/245/80 128/173/106 140/172/19
f 205/237/74 206/240/76 140/172/19 139/171/18
f 204/238/75 205/237/74 139/171/18 138/169/105
f 165/246/81 204/238/75 138/169/105 127/168/15
f 166/247/82 201/235/71 204/238/75 165/246/81
f 167/241/77 198/229/69 201/232/71 166/248/82
f 207/249/83 208/250/84 211/251/4 210/252/85
f 208/253/84 209/254/86 212/255/87 211/256/4
f 210/252/85 211/251/4 214/257/88 213/258/89
f 211/256/4 212/255/87 215/259/90 214/260/88
f 129/182/108 149/196/39 207/249/83 135/181/28
f 149/196/39 148/208/49 208/250/84 207/249/83
f 148/207/49 147/205/47 209/254/86 208/253/84
f 147/205/47 133/206/48 158/218/58 209/254/86
f 209/254/86 158/218/58 157/228/68 212/255/87
f 212/255/87 157/228/68 156/226/112 215/259/90
f 215/259/90 156/226/112 131/227/67 167/241/77
f 214/260/88 215/259/90 167/241/77 166/248/82
f 213/258/89 214/257/88 166/247/82 165/246/81
f 137/170/17 213/258/89 165/246/81 127/168/15
f 136/183/30 210/252/85 213/258/89 137/170/17
f 135/181/28 207/249/83 210/252/85 136/183/30
f 216/261/91 217/262/92 220/263/5 219/264/93
f 217/265/92 218/266/94 221/267/95 220/268/5
f 219/264/93 220/263/5 223/269/96 222/270/97
f 220/268/5 221/267/95 224/271/98 223/272/96
f 134/201/109 152/200/42 216/261/91 159/219/59
f 152/200/42 151/199/41 217/262/92 216/261/91
f 151/198/41 150/197/40 218/266/94 217/265/92
f 150/197/40 130/177/107 143/176/23 218/266/94
f 218/266/94 143/176/23 142/175/22 221/267/95
f 221/267/95 142/175/22 141/174/21 224/271/98
f 224/271/98 141/174/21 128/173/106 170/245/80
f 223/272/96 224/271/98 170/245/80 169/244/79
f 222/270/97 223/269/96 169/243/79 168/242/78
f 161/221/61 222/270/97 168/242/78 132/222/62
f 160/220/60 219/264/93 222/270/97 161/221/61
f 159/219/59 216/261/91 219/264/93 160/220/60
f 225/273/99 226/274/99 228/275/99 227/276/99
f 227/276/100 228/275/100 230/277/100 229/278/100
f 229/278/101 230/277/101 232/279/101 231/280/101
f 231/280/102 232/281/102 234/282/102 233/283/102
f 228/284/3 226/285/3 236/286/3 234/287/3 232/288/3 230/289/3
f 233/283/103 234/282/103 236/290/103 235/291/103
f 235/291/104 236/290/104 226/292/104 225/273/104
f 225/273/6 227/276/6 229/278/6 231/280/6 233/283/6 235/291/6
f 281/293/7 282/294/8 285/295/1 284/296/9
f 282/294/8 283/297/10 286/298/11 285/295/1
f 284/296/9 285/295/1 288/299/12 287/300/13
f 285/295/1 286/298/11 289/301/14 288/299/12
f 237/302/15 248/303/16 281/293/7 247/304/17
f 248/303/16 249/305/18 282/294/8 281/293/7
f 249/305/18 250/306/19 283/297/10 282/294/8
f 250/306/19 238/307/106 251/308/21 283/297/10
f 283/297/10 251/308/21 252/309/22 286/298/11
f 286/298/11 252/309/22 253/310/23 289/301/14
f 289/301/14 253/310/23 240/311/24 254/312/25
f 288/299/12 289/301/14 254/312/25 255/313/26
f 287/300/13 288/299/12 255/313/26 256/314/113
f 245/315/28 287/300/13 256/314/113 239/316/29
f 246/317/30 284/296/9 287/300/13 245/315/28
f 247/304/17 281/293/7 284/296/9 246/317/30
f 290/318/31 291/319/32 294/320/6 293/321/33
f 291/319/32 292/322/34 295/323/35 294/320/6
f 293/324/33 294/325/6 297/326/36 296/327/37
f 294/325/6 295/328/35 298/329/38 297/326/36
f 239/316/29 256/314/113 290/318/31 259/330/39
f 256/314/113 255/313/26 291/319/32 290/318/31
f 255/313/26 254/312/25 292/322/34 291/319/32
f 254/312/25 240/311/24 260/331/40 292/322/34
f 292/322/34 260/331/40 261/332/41 295/323/35
f 295/328/35 261/333/41 262/334/42 298/329/38
f 298/329/38 262/334/42 244/335/43 263/336/110
f 297/326/36 298/329/38 263/336/110 264/337/45
f 296/327/37 297/326/36 264/337/45 265/338/46
f 257/339/47 296/327/37 265/338/46 243/340/48
f 258/341/49 293/324/33 296/327/37 257/339/47
f 259/330/39 290/318/31 293/321/33 258/342/49
f 299/343/50 300/344/51 303/345/2 302/346/52
f 300/344/51 301/347/53 304/348/54 303/345/2
f 302/346/52 303/345/2 306/349/55 305/350/56
f 303/345/2 304/348/54 307/351/57 306/349/55
f 243/340/48 265/338/46 299/343/50 268/352/114
f 265/338/46 264/337/45 300/344/51 299/343/50
f 264/337/45 263/336/110 301/347/53 300/344/51
f 263/336/110 244/335/43 269/353/59 301/347/53
f 301/347/53 269/353/59 270/354/60 304/348/54
f 304/348/54 270/354/60 271/355/61 307/351/57
f 307/351/57 271/355/61 242/356/62 272/357/63
f 306/349/55 307/351/57 272/357/63 273/358/64
f 305/350/56 306/349/55 273/358/64 274/359/115
f 266/360/112 305/350/56 274/359/115 241/361/67
f 267/362/68 302/346/52 305/350/56 266/360/112
f 268/352/114 299/343/50 302/346/52 267/362/68
f 308/363/69 309/364/70 312/365/3 311/366/71
f 309/364/70 310/367/72 313/368/73 312/365/3
f 311/369/71 312/370/3 315/371/74 314/372/75
f 312/370/3 313/373/73 316/374/76 315/371/74
f 241/361/67 274/359/115 308/363/69 277/375/77
f 274/359/115 273/358/64 309/364/70 308/363/69
f 273/358/64 272/357/63 310/367/72 309/364/70
f 272/357/63 242/356/62 278/376/78 310/367/72
f 310/367/72 278/376/78 279/377/79 313/368/73
f 313/373/73 279/378/79 280/379/80 316/374/76
f 316/374/76 280/379/80 238/307/106 250/306/19
f 315/371/74 316/374/76 250/306/19 249/305/18
f 314/372/75 315/371/74 249/305/18 248/303/16
f 275/380/81 314/372/75 248/303/16 237/302/15
f 276/381/82 311/369/71 314/372/75 275/380/81
f 277/375/77 308/363/69 311/366/71 276/382/82
f 317/383/83 318/384/84 321/385/4 320/386/85
f 318/387/84 319/388/86 322/389/87 321/390/4
f 320/386/85 321/385/4 324/391/88 323/392/89
f 321/390/4 322/389/87 325/393/90 324/394/88
f 239/316/29 259/330/39 317/383/83 245/315/28
f 259/330/39 258/342/49 318/384/84 317/383/83
f 258/341/49 257/339/47 319/388/86 318/387/84
f 257/339/47 243/340/48 268/352/114 319/388/86
f 319/388/86 268/352/114 267/362/68 322/389/87
f 322/389/87 267/362/68 266/360/112 325/393/90
f 325/393/90 266/360/112 241/361/67 277/375/77
f 324/394/88 325/393/90 277/375/77 276/382/82
f 323/392/89 324/391/88 276/381/82 275/380/81
f 247/304/17 323/392/89 275/380/81 237/302/15
f 246/317/30 320/386/85 323/392/89 247/304/17
f 245/315/28 317/383/83 320/386/85 246/317/30
f 326/395/91 327/396/92 330/397/5 329/398/93
f 327/399/92 328/400/94 331/401/95 330/402/5
f 329/398/93 330/397/5 333/403/96 332/404/97
f 330/402/5 331/401/95 334/405/98 333/406/96
f 244/335/43 262/334/42 326/395/91 269/353/59
f 262/334/42 261/333/41 327/396/92 326/395/91
f 261/332/41 260/331/40 328/400/94 327/399/92
f 260/331/40 240/311/24 253/310/23 328/400/94
f 328/400/94 253/310/23 252/309/22 331/401/95
f 331/401/95 252/309/22 251/308/21 334/405/98
f 334/405/98 251/308/21 238/307/106 280/379/80
f 333/406/96 334/405/98 280/379/80 279/378/79
f 332/404/97 333/403/96 279/377/79 278/376/78
f 271/355/61 332/404/97 278/376/78 242/356/62
f 270/354/60 329/398/93 332/404/97 271/355/61
f 269/353/59 326/395/91 329/398/93 270/354/60
f 335/407/99 336/408/99 338/409/99 337/410/99
f 337/410/100 338/409/100 340/411/100 339/412/100
f 339/412/101 340/411/101 342/413/101 341/414/101
f 341/414/102 342/415/102 344/416/102 343/417/102
f 338/418/3 336/419/3 346/420/3 344/421/3 342/422/3 340/423/3
f 343/417/103 344/416/103 346/424/103 345/425/103
f 345/425/104 346/424/104 336/426/104 335/407/104
f 335/407/6 337/410/6 339/412/6 341/414/6 343/417/6 345/425/6
f 391/427/7 392/428/8 395/429/1 394/430/9
f 392/428/8 393/431/10 396/432/11 395/429/1
f 394/430/9 395/429/1 398/433/12 397/434/13
f 395/429/1 396/432/11 399/435/14 398/433/12
f 347/436/116 358/437/16 391/427/7 357/438/117
f 358/437/16 359/439/18 392/428/8 391/427/7
f 359/439/18 360/440/118 393/431/10 392/428/8
f 360/440/118 348/441/119 361/442/120 393/431/10
f 393/431/10 361/442/120 362/443/22 396/432/11
f 396/432/11 362/443/22 363/444/121 399/435/14
f 399/435/14 363/444/121 350/445/122 364/446/25
f 398/433/12 399/435/14 364/446/25 365/447/26
f 397/434/13 398/433/12 365/447/26 366/448/113
f 355/449/123 397/434/13 366/448/113 349/450/124
f 356/451/30 394/430/9 397/434/13 355/449/123
f 357/438/117 391/427/7 394/430/9 356/451/30
f 400/452/31 401/453/32 404/454/6 403/455/33
f 401/453/32 402/456/34 405/457/35 404/454/6
f 403/458/33 404/459/6 407/460/36 406/461/37
f 404/459/6 405/462/35 408/463/38 407/460/36
f 349/450/124 366/448/113 400/452/31 369/464/125
f 366/448/113 365/447/26 401/453/32 400/452/31
f 365/447/26 364/446/25 402/456/34 401/453/32
f 364/446/25 350/445/122 370/465/126 402/456/34
f 402/456/34 370/465/126 371/466/41 405/457/35
f 405/462/35 371/467/41 372/468/127 408/463/38
f 408/463/38 372/468/127 354/469/128 373/470/44
f 407/460/36 408/463/38 373/470/44 374/471/45
f 406/461/37 407/460/36 374/471/45 375/472/46
f 367/473/129 406/461/37 375/472/46 353/474/130
f 368/475/49 403/458/33 406/461/37 367/473/129
f 369/464/125 400/452/31 403/455/33 368/476/49
f 409/477/50 410/478/51 413/479/2 412/480/52
f 410/478/51 411/481/53 414/482/54 413/479/2
f 412/480/52 413/479/2 416/483/55 415/484/56
f 413/479/2 414/482/54 417/485/57 416/483/55
f 353/474/130 375/472/46 409/477/50 378/486/114
f 375/472/46 374/471/45 410/478/51 409/477/50
f 374/471/45 373/470/44 411/481/53 410/478/51
f 373/470/44 354/469/128 379/487/131 411/481/53
f 411/481/53 379/487/131 380/488/60 414/482/54
f 414/482/54 380/488/60 381/489/132 417/485/57
f 417/485/57 381/489/132 352/490/133 382/491/63
f 416/483/55 417/485/57 382/491/63 383/492/64
f 415/484/56 416/483/55 383/492/64 384/493/115
f 376/494/112 415/484/56 384/493/115 351/495/134
f 377/496/68 412/480/52 415/484/56 376/494/112
f 378/486/114 409/477/50 412/480/52 377/496/68
f 418/497/69 419/498/70 422/499/3 421/500/71
f 419/498/70 420/501/72 423/502/73 422/499/3
f 421/503/71 422/504/3 425/505/74 424/506/75
f 422/504/3 423/507/73 426/508/76 425/505/74
f 351/495/134 384/493/115 418/497/69 387/509/135
f 384/493/115 383/492/64 419/498/70 418/497/69
f 383/492/64 382/491/63 420/501/72 419/498/70
f 382/491/63 352/490/133 388/510/136 420/501/72
f 420/501/72 388/510/136 389/511/79 423/502/73
f 423/507/73 389/512/79 390/513/137 426/508/76
f 426/508/76 390/513/137 348/441/119 360/440/118
f 425/505/74 426/508/76 360/440/118 359/439/18
f 424/506/75 425/505/74 359/439/18 358/437/16
f 385/514/138 424/506/75 358/437/16 347/436/116
f 386/515/82 421/503/71 424/506/75 385/514/138
f 387/509/135 418/497/69 421/500/71 386/516/82
f 427/517/83 428/518/84 431/519/4 430/520/85
f 428/521/84 429/522/86 432/523/87 431/524/4
f 430/520/85 431/519/4 434/525/88 433/526/89
f 431/524/4 432/523/87 435/527/90 434/528/88
f 349/450/124 369/464/125 427/517/83 355/449/123
f 369/464/125 368/476/49 428/518/84 427/517/83
f 368/475/49 367/473/129 429/522/86 428/521/84
f 367/473/129 353/474/130 378/486/114 429/522/86
f 429/522/86 378/486/114 377/496/68 432/523/87
f 432/523/87 377/496/68 376/494/112 435/527/90
f 435/527/90 376/494/112 351/495/134 387/509/135
f 434/528/88 435/527/90 387/509/135 386/516/82
f 433/526/89 434/525/88 386/515/82 385/514/138
f 357/438/117 433/526/89 385/514/138 347/436/116
f 356/451/30 430/520/85 433/526/89 357/438/117
f 355/449/123 427/517/83 430/520/85 356/451/30
f 436/529/91 437/530/92 440/531/5 439/532/93
f 437/533/92 438/534/94 441/535/95 440/536/5
f 439/532/93 440/531/5 443/537/96 442/538/97
f 440/536/5 441/535/95 444/539/98 443/540/96
f 354/469/128 372/468/127 436/529/91 379/487/131
f 372/468/127 371/467/41 437/530/92 436/529/91
f 371/466/41 370/465/126 438/534/94 437/533/92
f 370/465/126 350/445/122 363/444/121 438/534/94
f 438/534/94 363/444/121 362/443/22 441/535/95
f 441/535/95 362/443/22 361/442/120 444/539/98
f 444/539/98 361/442/120 348/441/119 390/513/137
f 443/540/96 444/539/98 390/513/137 389/512/79
f 442/538/97 443/537/96 389/511/79 388/510/136
f 381/489/132 442/538/97 388/510/136 352/490/133
f 380/488/60 439/532/93 442/538/97 381/489/132
f 379/487/131 436/529/91 439/532/93 380/488/60
f 445/541/99 446/542/99 448/543/99 447/544/99
f 447/544/100 448/543/100 450/545/100 449/546/100
f 449/546/101 450/545/101 452/547/101 451/548/101
f 451/548/102 452/549/102 454/550/102 453/551/102
f 448/552/3 446/553/3 456/554/3 454/555/3 452/556/3 450/557/3
f 453/551/103 454/550/103 456/558/103 455/559/103
f 455/559/104 456/558/104 446/560/104 445/541/104
f 445/541/6 447/544/6 449/546/6 451/548/6 453/551/6 455/559/6
f 501/561/7 502/562/8 505/563/1 504/564/9
f 502/562/8 503/565/10 506/566/11 505/563/1
f 504/564/9 505/563/1 508/567/12 507/568/13
f 505/563/1 506/566/11 509/569/14 508/567/12
f 457/570/116 468/571/105 501/561/7 467/572/117
f 468/571/105 469/573/18 502/562/8 501/561/7
f 469/573/18 470/574/19 503/565/10 502/562/8
f 470/574/19 458/575/139 471/576/21 503/565/10
f 503/565/10 471/576/21 472/577/22 506/566/11
f 506/566/11 472/577/22 473/578/121 509/569/14
f 509/569/14 473/578/121 460/579/140 474/580/25
f 508/567/12 509/569/14 474/580/25 475/581/26
f 507/568/13 508/567/12 475/581/26 476/582/113
f 465/583/141 507/568/13 476/582/113 459/584/142
f 466/585/30 504/564/9 507/568/13 465/583/141
f 467/572/117 501/561/7 504/564/9 466/585/30
f 510/586/31 511/587/32 514/588/6 513/589/33
f 511/587/32 512/590/34 515/591/35 514/588/6
f 513/592/33 514/593/6 517/594/36 516/595/37
f 514/593/6 515/596/35 518/597/38 517/594/36
f 459/584/142 476/582/113 510/586/31 479/598/125
f 476/582/113 475/581/26 511/587/32 510/586/31
f 475/581/26 474/580/25 512/590/34 511/587/32
f 474/580/25 460/579/140 480/599/143 512/590/34
f 512/590/34 480/599/143 481/600/41 515/591/35
f 515/596/35 481/601/41 482/602/127 518/597/38
f 518/597/38 482/602/127 464/603/144 483/604/44
f 517/594/36 518/597/38 483/604/44 484/605/45
f 516/595/37 517/594/36 484/605/45 485/606/46
f 477/607/129 516/595/37 485/606/46 463/608/145
f 478/609/49 513/592/33 516/595/37 477/607/129
f 479/598/125 510/586/31 513/589/33 478/610/49
f 519/611/50 520/612/51 523/613/2 522/614/52
f 520/612/51 521/615/53 524/616/54 523/613/2
f 522/614/52 523/613/2 526/617/55 525/618/56
f 523/613/2 524/616/54 527/619/57 526/617/55
f 463/608/145 485/606/46 519/611/50 488/620/114
f 485/606/46 484/605/45 520/612/51 519/611/50
f 484/605/45 483/604/44 521/615/53 520/612/51
f 483/604/44 464/603/144 489/621/131 521/615/53
f 521/615/53 489/621/131 490/622/60 524/616/54
f 524/616/54 490/622/60 491/623/132 527/619/57
f 527/619/57 491/623/132 462/624/146 492/625/63
f 526/617/55 527/619/57 492/625/63 493/626/64
f 525/618/56 526/617/55 493/626/64 494/627/115
f 486/628/112 525/618/56 494/627/115 461/629/147
f 487/630/68 522/614/52 525/618/56 486/628/112
f 488/620/114 519/611/50 522/614/52 487/630/68
f 528/631/69 529/632/70 532/633/3 531/634/71
f 529/632/70 530/635/72 533/636/73 532/633/3
f 531/637/71 532/638/3 535/639/74 534/640/75
f 532/638/3 533/641/73 536/642/76 535/639/74
f 461/629/147 494/627/115 528/631/69 497/643/135
f 494/627/115 493/626/64 529/632/70 528/631/69
f 493/626/64 492/625/63 530/635/72 529/632/70
f 492/625/63 462/624/146 498/644/136 530/635/72
f 530/635/72 498/644/136 499/645/79 533/636/73
f 533/641/73 499/646/79 500/647/137 536/642/76
f 536/642/76 500/647/137 458/575/139 470/574/19
f 535/639/74 536/642/76 470/574/19 469/573/18
f 534/640/75 535/639/74 469/573/18 468/571/105
f 495/648/138 534/640/75 468/571/105 457/570/116
f 496/649/82 531/637/71 534/640/75 495/648/138
f 497/643/135 528/631/69 531/634/71 496/650/82
f 537/651/83 538/652/84 541/653/4 540/654/85
f 538/655/84 539/656/86 542/657/87 541/658/4
f 540/654/85 541/653/4 544/659/88 543/660/89
f 541/658/4 542/657/87 545/661/90 544/662/88
f 459/584/142 479/598/125 537/651/83 465/583/141
f 479/598/125 478/610/49 538/652/84 537/651/83
f 478/609/49 477/607/129 539/656/86 538/655/84
f 477/607/129 463/608/145 488/620/114 539/656/86
f 539/656/86 488/620/114 487/630/68 542/657/87
f 542/657/87 487/630/68 486/628/112 545/661/90
f 545/661/90 486/628/112 461/629/147 497/643/135
f 544/662/88 545/661/90 497/643/135 496/650/82
f 543/660/89 544/659/88 496/649/82 495/648/138
f 467/572/117 543/660/89 495/648/138 457/570/116
f 466/585/30 540/654/85 543/660/89 467/572/117
f 465/583/141 537/651/83 540/654/85 466/585/30
f 546/663/91 547/664/92 550/665/5 549/666/93
f 547/667/92 548/668/94 551/669/95 550/670/5
f 549/666/93 550/665/5 553/671/96 552/672/97
f 550/670/5 551/669/95 554/673/98 553/674/96
f 464/603/144 482/602/127 546/663/91 489/621/131
f 482/602/127 481/601/41 547/664/92 546/663/91
f 481/600/41 480/599/143 548/668/94 547/667/92
f 480/599/143 460/579/140 473/578/121 548/668/94
f 548/668/94 473/578/121 472/577/22 551/669/95
f 551/669/95 472/577/22 471/576/21 554/673/98
f 554/673/98 471/576/21 458/575/139 500/647/137
f 553/674/96 554/673/98 500/647/137 499/646/79
f 552/672/97 553/671/96 499/645/79 498/644/136
f 491/623/132 552/672/97 498/644/136 462/624/146
f 490/622/60 549/666/93 552/672/97 491/623/132
f 489/621/131 546/663/91 549/666/93 490/622/60
f 555/675/99 556/676/99 558/677/99 557/678/99
f 557/678/100 558/677/100 560/679/100 559/680/100
f 559/680/101 560/679/101 562/681/101 561/682/101
f 561/682/102 562/683/102 564/684/102 563/685/102
f 558/686/3 556/687/3 566/688/3 564/689/3 562/690/3 560/691/3
f 563/685/103 564/684/103 566/692/103 565/693/103
f 565/693/104 566/692/104 556/694/104 555/675/104
f 555/675/6 557/678/6 559/680/6 561/682/6 563/685/6 565/693/6
f 611/695/7 612/696/8 615/697/1 614/698/9
f 612/696/8 613/699/10 616/700/11 615/697/1
f 614/698/9 615/697/1 618/701/12 617/702/13
f 615/697/1 616/700/11 619/703/14 618/701/12
f 567/704/148 578/705/16 611/695/7 577/706/117
f 578/705/16 579/707/18 612/696/8 611/695/7
f 579/707/18 580/708/118 613/699/10 612/696/8
f 580/708/118 568/709/106 581/710/21 613/699/10
f 613/699/10 581/710/21 582/711/22 616/700/11
f 616/700/11 582/711/22 583/712/121 619/703/14
f 619/703/14 583/712/121 570/713/149 584/714/25
f 618/701/12 619/703/14 584/714/25 585/715/26
f 617/702/13 618/701/12 585/715/26 586/716/113
f 575/717/141 617/702/13 586/716/113 569/718/108
f 576/719/30 614/698/9 617/702/13 575/717/141
f 577/706/117 611/695/7 614/698/9 576/719/30
f 620/720/31 621/721/32 624/722/6 623/723/33
f 621/721/32 622/724/34 625/725/35 624/722/6
f 623/726/33 624/727/6 627/728/36 626/729/37
f 624/727/6 625/730/35 628/731/38 627/728/36
f 569/718/108 586/716/113 620/720/31 589/732/125
f 586/716/113 585/715/26 621/721/32 620/720/31
f 585/715/26 584/714/25 622/724/34 621/721/32
f 584/714/25 570/713/149 590/733/143 622/724/34
f 622/724/34 590/733/143 591/734/41 625/725/35
f 625/730/35 591/735/41 592/736/127 628/731/38
f 628/731/38 592/736/127 574/737/109 593/738/44
f 627/728/36 628/731/38 593/738/44 594/739/45
f 626/729/37 627/728/36 594/739/45 595/740/46
f 587/741/129 626/729/37 595/740/46 573/742/150
f 588/743/49 623/726/33 626/729/37 587/741/129
f 589/732/125 620/720/31 623/723/33 588/744/49
f 629/745/50 630/746/51 633/747/2 632/748/52
f 630/746/51 631/749/53 634/750/54 633/747/2
f 632/748/52 633/747/2 636/751/55 635/752/56
f 633/747/2 634/750/54 637/753/57 636/751/55
f 573/742/150 595/740/46 629/745/50 598/754/114
f 595/740/46 594/739/45 630/746/51 629/745/50
f 594/739/45 593/738/44 631/749/53 630/746/51
f 593/738/44 574/737/109 599/755/131 631/749/53
f 631/749/53 599/755/131 600/756/60 634/750/54
f 634/750/54 600/756/60 601/757/132 637/753/57
f 637/753/57 601/757/132 572/758/151 602/759/63
f 636/751/55 637/753/57 602/759/63 603/760/64
f 635/752/56 636/751/55 603/760/64 604/761/115
f 596/762/112 635/752/56 604/761/115 571/763/152
f 597/764/68 632/748/52 635/752/56 596/762/112
f 598/754/114 629/745/50 632/748/52 597/764/68
f 638/765/69 639/766/70 642/767/3 641/768/71
f 639/766/70 640/769/72 643/770/73 642/767/3
f 641/771/71 642/772/3 645/773/74 644/774/75
f 642/772/3 643/775/73 646/776/76 645/773/74
f 571/763/152 604/761/115 638/765/69 607/777/135
f 604/761/115 603/760/64 639/766/70 638/765/69
f 603/760/64 602/759/63 640/769/72 639/766/70
f 602/759/63 572/758/151 608/778/136 640/769/72
f 640/769/72 608/778/136 609/779/79 643/770/73
f 643/775/73 609/780/79 610/781/137 646/776/76
f 646/776/76 610/781/137 568/709/106 580/708/118
f 645/773/74 646/776/76 580/708/118 579/707/18
f 644/774/75 645/773/74 579/707/18 578/705/16
f 605/782/138 644/774/75 578/705/16 567/704/148
f 606/783/82 641/771/71 644/774/75 605/782/138
f 607/777/135 638/765/69 641/768/71 606/784/82
f 647/785/83 648/786/84 651/787/4 650/788/85
f 648/789/84 649/790/86 652/791/87 651/792/4
f 650/788/85 651/787/4 654/793/88 653/794/89
f 651/792/4 652/791/87 655/795/90 654/796/88
f 569/718/108 589/732/125 647/785/83 575/717/141
f 589/732/125 588/744/49 648/786/84 647/785/83
f 588/743/49 587/741/129 649/790/86 648/789/84
f 587/741/129 573/742/150 598/754/114 649/790/86
f 649/790/86 598/754/114 597/764/68 652/791/87
f 652/791/87 597/764/68 596/762/112 655/795/90
f 655/795/90 596/762/112 571/763/152 607/777/135
f 654/796/88 655/795/90 607/777/135 606/784/82
f 653/794/89 654/793/88 606/783/82 605/782/138
f 577/706/117 653/794/89 605/782/138 567/704/148
f 576/719/30 650/788/85 653/794/89 577/706/117
f 575/717/141 647/785/83 650/788/85 576/719/30
f 656/797/91 657/798/92 660/799/5 659/800/93
f 657/801/92 658/802/94 661/803/95 660/804/5
f 659/800/93 660/799/5 663/805/96 662/806/97
f 660/804/5 661/803/95 664/807/98 663/808/96
f 574/737/109 592/736/127 656/797/91 599/755/131
f 592/736/127 591/735/41 657/798/92 656/797/91
f 591/734/41 590/733/143 658/802/94 657/801/92
f 590/733/143 570/713/149 583/712/121 658/802/94
f 658/802/94 583/712/121 582/711/22 661/803/95
f 661/803/95 582/711/22 581/710/21 664/807/98
f 664/807/98 581/710/21 568/709/106 610/781/137
f 663/808/96 664/807/98 610/781/137 609/780/79
f 662/806/97 663/805/96 609/779/79 608/778/136
f 601/757/132 662/806/97 608/778/136 572/758/151
f 600/756/60 659/800/93 662/806/97 601/757/132
f 599/755/131 656/797/91 659/800/93 600/756/60
f 665/809/99 666/810/99 668/811/99 667/812/99
f 667/812/100 668/811/100 670/813/100 669/814/100
f 669/814/101 670/813/101 672/815/101 671/816/101
f 671/816/102 672/817/102 674/818/102 673/819/102
f 668/820/3 666/821/3 676/822/3 674/823/3 672/824/3 670/825/3
f 673/819/103 674/818/103 676/826/103 675/827/103
f 675/827/104 676/826/104 666/828/104 665/809/104
f 665/809/6 667/812/6 669/814/6 671/816/6 673/819/6 675/827/6
f 721/829/7 722/830/8 725/831/1 724/832/9
f 722/830/8 723/833/10 726/834/11 725/831/1
f 724/832/9 725/831/1 728/835/12 727/836/13
f 725/831/1 726/834/11 729/837/14 728/835/12
f 677/838/148 688/839/16 721/829/7 687/840/117
f 688/839/16 689/841/18 722/830/8 721/829/7
f 689/841/18 690/842/118 723/833/10 722/830/8
f 690/842/118 678/843/106 691/844/120 723/833/10
f 723/833/10 691/844/120 692/845/22 726/834/11
f 726/834/11 692/845/22 693/846/121 729/837/14
f 729/837/14 693/846/121 680/847/149 694/848/25
f 728/835/12 729/837/14 694/848/25 695/849/26
f 727/836/13 728/835/12 695/849/26 696/850/113
f 685/851/141 727/836/13 696/850/113 679/852/29
f 686/853/30 724/832/9 727/836/13 685/851/141
f 687/840/117 721/829/7 724/832/9 686/853/30
f 730/854/31 731/855/32 734/856/6 733/857/33
f 731/855/32 732/858/34 735/859/35 734/856/6
f 733/860/33 734/861/6 737/862/36 736/863/37
f 734/861/6 735/864/35 738/865/38 737/862/36
f 679/852/29 696/850/113 730/854/31 699/866/125
f 696/850/113 695/849/26 731/855/32 730/854/31
f 695/849/26 694/848/25 732/858/34 731/855/32
f 694/848/25 680/847/149 700/867/143 732/858/34
f 732/858/34 700/867/143 701/868/41 735/859/35
f 735/864/35 701/869/41 702/870/127 738/865/38
f 738/865/38 702/870/127 684/871/153 703/872/44
f 737/862/36 738/865/38 703/872/44 704/873/45
f 736/863/37 737/862/36 704/873/45 705/874/46
f 697/875/129 736/863/37 705/874/46 683/876/154
f 698/877/49 733/860/33 736/863/37 697/875/129
f 699/866/125 730/854/31 733/857/33 698/878/49
f 739/879/50 740/880/51 743/881/2 742/882/52
f 740/880/51 741/883/53 744/884/54 743/881/2
f 742/882/52 743/881/2 746/885/55 745/886/56
f 743/881/2 744/884/54 747/887/57 746/885/55
f 683/876/154 705/874/46 739/879/50 708/888/114
f 705/874/46 704/873/45 740/880/51 739/879/50
f 704/873/45 703/872/44 741/883/53 740/880/51
f 703/872/44 684/871/153 709/889/131 741/883/53
f 741/883/53 709/889/131 710/890/60 744/884/54
f 744/884/54 710/890/60 711/891/132 747/887/57
f 747/887/57 711/891/132 682/892/151 712/893/63
f 746/885/55 747/887/57 712/893/63 713/894/64
f 745/886/56 746/885/55 713/894/64 714/895/115
f 706/896/112 745/886/56 714/895/115 681/897/152
f 707/898/68 742/882/52 745/886/56 706/896/112
f 708/888/114 739/879/50 742/882/52 707/898/68
f 748/899/69 749/900/70 752/901/3 751/902/71
f 749/900/70 750/903/72 753/904/73 752/901/3
f 751/905/71 752/906/3 755/907/74 754/908/75
f 752/906/3 753/909/73 756/910/76 755/907/74
f 681/897/152 714/895/115 748/899/69 717/911/135
f 714/895/115 713/894/64 749/900/70 748/899/69
f 713/894/64 712/893/63 750/903/72 749/900/70
f 712/893/63 682/892/151 718/912/136 750/903/72
f 750/903/72 718/912/136 719/913/79 753/904/73
f 753/909/73 719/914/79 720/915/137 756/910/76
f 756/910/76 720/915/137 678/843/106 690/842/118
f 755/907/74 756/910/76 690/842/118 689/841/18
f 754/908/75 755/907/74 689/841/18 688/839/16
f 715/916/138 754/908/75 688/839/16 677/838/148
f 716/917/82 751/905/71 754/908/75 715/916/138
f 717/911/135 748/899/69 751/902/71 716/918/82
f 757/919/83 758/920/84 761/921/4 760/922/85
f 758/923/84 759/924/86 762/925/87 761/926/4
f 760/922/85 761/921/4 764/927/88 763/928/89
f 761/926/4 762/925/87 765/929/90 764/930/88
f 679/852/29 699/866/125 757/919/83 685/851/141
f 699/866/125 698/878/49 758/920/84 757/919/83
f 698/877/49 697/875/129 759/924/86 758/923/84
f 697/875/129 683/876/154 708/888/114 759/924/86
f 759/924/86 708/888/114 707/898/68 762/925/87
f 762/925/87 707/898/68 706/896/112 765/929/90
f 765/929/90 706/896/112 681/897/152 717/911/135
f 764/930/88 765/929/90 717/911/135 716/918/82
f 763/928/89 764/927/88 716/917/82 715/916/138
f 687/840/117 763/928/89 715/916/138 677/838/148
f 686/853/30 760/922/85 763/928/89 687/840/117
f 685/851/141 757/919/83 760/922/85 686/853/30
f 766/931/91 767/932/92 770/933/5 769/934/93
f 767/935/92 768/936/94 771/937/95 770/938/5
f 769/934/93 770/933/5 773/939/96 772/940/97
f 770/938/5 771/937/95 774/941/98 773/942/96
f 684/871/153 702/870/127 766/931/91 709/889/131
f 702/870/127 701/869/41 767/932/92 766/931/91
f 701/868/41 700/867/143 768/936/94 767/935/92
f 700/867/143 680/847/149 693/846/121 768/936/94
f 768/936/94 693/846/121 692/845/22 771/937/95
f 771/937/95 692/845/22 691/844/120 774/941/98
f 774/941/98 691/844/120 678/843/106 720/915/137
f 773/942/96 774/941/98 720/915/137 719/914/79
f 772/940/97 773/939/96 719/913/79 718/912/136
f 711/891/132 772/940/97 718/912/136 682/892/151
f 710/890/60 769/934/93 772/940/97 711/891/132
f 709/889/131 766/931/91 769/934/93 710/890/60
f 775/943/99 776/944/99 778/945/99 777/946/99
f 777/946/100 778/945/100 780/947/100 779/948/100
f 779/948/101 780/947/101 782/949/101 781/950/101
f 781/950/102 782/951/102 784/952/102 783/953/102
f 778/954/3 776/955/3 786/956/3 784/957/3 782/958/3 780/959/3
f 783/953/103 784/952/103 786/960/103 785/961/103
f 785/961/104 786/960/104 776/962/104 775/943/104
f 775/943/6 777/946/6 779/948/6 781/950/6 783/953/6 785/961/6
s 0
f 787/963/5 788/964/5 790/965/5 789/966/5
f 789/966/6 790/965/6 794/967/6 793/968/6
f 793/968/4 794/967/4 792/969/4 791/970/4
f 791/971/3 792/972/3 788/973/3 787/974/3
f 789/966/1 793/968/1 791/970/1 787/963/1
f 794/967/2 790/965/2 788/964/2 792/969/2
f 795/975/5 796/976/5 798/977/5 797/978/5
f 797/978/6 798/977/6 802/979/6 801/980/6
f 801/980/4 802/979/4 800/981/4 799/982/4
f 799/983/3 800/984/3 796/985/3 795/986/3
f 797/978/1 801/980/1 799/982/1 795/975/1
f 802/979/2 798/977/2 796/976/2 800/981/2
f 803/987/1 804/988/1 811/989/1 812/990/1
f 810/991/1 809/992/1 817/993/1 818/994/1
f 813/995/2 814/996/2 808/997/2 807/998/2
f 807/999/3 808/1000/3 804/1001/3 803/1002/3
f 812/990/4 813/995/4 807/998/4 803/987/4
f 814/996/5 811/989/5 804/988/5 808/997/5
f 806/1003/6 805/1004/6 812/990/6 811/989/6
f 805/1004/6 809/992/6 813/995/6 812/990/6
f 810/991/6 806/1003/6 811/989/6 814/996/6
f 809/992/6 810/991/6 814/996/6 813/995/6
f 816/1005/6 815/1006/6 818/1007/6 817/1008/6
f 809/992/5 805/1004/5 816/1009/5 817/993/5
f 806/1003/4 810/991/4 818/994/4 815/1010/4
f 805/1004/2 806/1003/2 815/1010/2 816/1009/2
f 819/1011/1 820/1012/1 827/1013/1 828/1014/1
f 826/1015/1 825/1016/1 833/1017/1 834/1018/1
f 829/1019/2 830/1020/2 824/1021/2 823/1022/2
f 823/1023/3 824/1024/3 820/1025/3 819/1026/3
f 828/1014/4 829/1019/4 823/1022/4 819/1011/4
f 830/1020/5 827/1013/5 820/1012/5 824/1021/5
f 822/1027/6 821/1028/6 828/1014/6 827/1013/6
f 821/1028/6 825/1016/6 829/1019/6 828/1014/6
f 826/1015/6 822/1027/6 827/1013/6 830/1020/6
f 825/1016/6 826/1015/6 830/1020/6 829/1019/6
f 832/1029/6 831/1030/6 834/1031/6 833/1032/6
f 825/1016/5 821/1028/5 832/1033/5 833/1017/5
f 822/1027/4 826/1015/4 834/1018/4 831/1034/4
f 821/1028/2 822/1027/2 831/1034/2 832/1033/2
f 835/1035/1 836/1036/1 838/1037/1 837/1038/1
f 837/1038/6 838/1037/6 842/1039/6 841/1040/6
f 841/1040/2 842/1039/2 840/1041/2 839/1042/2
f 839/1042/3 840/1041/3 836/1036/3 835/1035/3
f 837/1038/4 841/1040/4 839/1042/4 835/1035/4
f 842/1043/5 838/1044/5 836/1045/5 840/1046/5
f 843/1047/2 845/1048/2 846/1049/2 844/1050/2
f 845/1048/6 849/1051/6 850/1052/6 846/1049/6
f 849/1051/1 847/1053/1 848/1054/1 850/1052/1
f 847/1053/3 843/1047/3 844/1050/3 848/1054/3
f 845/1048/4 843/1047/4 847/1053/4 849/1051/4
f 850/1055/5 848/1056/5 844/1057/5 846/1058/5
f 851/1059/1 853/1060/1 854/1061/1 852/1062/1
f 853/1060/3 857/1063/3 858/1064/3 854/1061/3
f 857/1063/2 855/1065/2 856/1066/2 858/1064/2
f 855/1065/6 851/1059/6 852/1062/6 856/1066/6
f 853/1060/4 851/1059/4 855/1065/4 857/1063/4
f 858/1067/5 856/1068/5 852/1069/5 854/1070/5
f 859/1071/2 860/1072/2 862/1073/2 861/1074/2
f 861/1074/3 862/1073/3 866/1075/3 865/1076/3
f 865/1076/1 866/1075/1 864/1077/1 863/1078/1
f 863/1078/6 864/1077/6 860/1072/6 859/1071/6
f 861/1074/4 865/1076/4 863/1078/4 859/1071/4
f 866/1079/5 862/1080/5 860/1081/5 864/1082/5
f 867/1083/1 868/1084/1 875/1085/1 876/1086/1
f 870/1087/4 874/1088/4 882/1089/4 879/1090/4
f 877/1091/2 878/1092/2 872/1093/2 871/1094/2
f 871/1094/3 872/1093/3 868/1084/3 867/1083/3
f 876/1095/4 877/1096/4 871/1097/4 867/1098/4
f 878/1099/5 875/1100/5 868/1101/5 872/1102/5
f 870/1103/6 869/1104/6 876/1086/6 875/1085/6
f 869/1105/6 873/1106/6 877/1107/6 876/1108/6
f 874/1088/6 870/1087/6 875/1109/6 878/1110/6
f 873/1111/6 874/1112/6 878/1092/6 877/1091/6
f 880/1113/6 879/1114/6 882/1115/6 881/1116/6
f 869/1104/2 870/1103/2 879/1117/2 880/1118/2
f 874/1112/1 873/1111/1 881/1119/1 882/1120/1
f 873/1106/5 869/1105/5 880/1121/5 881/1122/5
f 883/1123/1 884/1124/1 886/1125/1 885/1126/1
f 885/1126/6 886/1125/6 890/1127/6 889/1128/6
f 889/1128/2 890/1127/2 888/1129/2 887/1130/2
f 887/1130/3 888/1129/3 884/1124/3 883/1123/3
f 885/1126/4 889/1128/4 887/1130/4 883/1123/4
f 890/1131/5 886/1132/5 884/1133/5 888/1134/5
