# Blender 4.2.2 LTS
# www.blender.org
mtllib desk.mtl
o desk
v -1.307340 0.294640 4.791524
v 1.647168 0.294640 4.791523
v -1.307340 0.950009 4.791524
v 1.647168 0.950009 4.791523
v -1.307340 0.950009 4.619884
v 1.647168 0.950009 4.619884
v -1.307340 0.294640 4.619884
v 1.647168 0.294640 4.619884
v 2.067590 -0.034357 4.797292
v 2.067590 3.956151 4.797292
v 1.412221 -0.034357 4.797292
v 1.412221 3.956151 4.797292
v 1.412221 -0.034357 4.614114
v 1.412221 3.956151 4.614114
v 2.067590 -0.034357 4.614114
v 2.067590 3.956151 4.614114
v -1.715620 -0.034357 4.797293
v -1.715620 3.956151 4.797293
v -1.060251 -0.034357 4.797293
v -1.060251 3.956151 4.797293
v -1.060251 -0.034357 4.614115
v -1.060251 3.956151 4.614115
v -1.715620 -0.034357 4.614115
v -1.715620 3.956151 4.614115
v -1.307341 3.270308 4.791524
v 1.647169 3.270308 4.791523
v -1.307341 3.925677 4.791524
v 1.647169 3.925677 4.791523
v -1.307341 3.925677 4.619884
v 1.647169 3.925677 4.619884
v -1.307341 3.270308 4.619884
v 1.647169 3.270308 4.619884
v -1.330843 3.141297 4.786258
v 1.207255 0.603199 4.786257
v -0.867427 3.604713 4.786258
v 1.670671 1.066615 4.786257
v -0.867427 3.604713 4.625150
v 1.670671 1.066615 4.625149
v -1.330843 3.141297 4.625150
v 1.207255 0.603199 4.625149
v 1.682813 3.141297 4.786257
v -0.855286 0.603199 4.786258
v 1.219397 3.604713 4.786257
v -1.318702 1.066615 4.786258
v 1.219397 3.604713 4.625149
v -1.318702 1.066615 4.625150
v 1.682813 3.141297 4.625149
v -0.855286 0.603199 4.625150
v -1.330845 3.141297 -2.222292
v 1.207253 0.603199 -2.222293
v -0.867430 3.604713 -2.222292
v 1.670669 1.066615 -2.222293
v -0.867430 3.604713 -2.061184
v 1.670669 1.066615 -2.061185
v -1.330845 3.141297 -2.061184
v 1.207253 0.603199 -2.061185
v 1.682811 3.141297 -2.222293
v -0.855288 0.603199 -2.222292
v 1.219395 3.604713 -2.222293
v -1.318704 1.066615 -2.222292
v 1.219395 3.604713 -2.061185
v -1.318704 1.066615 -2.061184
v 1.682811 3.141297 -2.061185
v -0.855288 0.603199 -2.061184
v -1.307343 3.270308 -2.227558
v 1.647166 3.270308 -2.227559
v -1.307343 3.925677 -2.227558
v 1.647166 3.925677 -2.227559
v -1.307343 3.925677 -2.055918
v 1.647166 3.925677 -2.055919
v -1.307343 3.270308 -2.055918
v 1.647166 3.270308 -2.055919
v -1.307343 0.294640 -2.227558
v 1.647166 0.294640 -2.227559
v -1.307343 0.950009 -2.227558
v 1.647166 0.950009 -2.227559
v -1.307343 0.950009 -2.055918
v 1.647166 0.950009 -2.055919
v -1.307343 0.294640 -2.055918
v 1.647166 0.294640 -2.055919
v 2.067588 -0.034357 -2.233328
v 2.067588 3.956150 -2.233328
v 1.412219 -0.034357 -2.233328
v 1.412219 3.956150 -2.233328
v 1.412219 -0.034357 -2.050150
v 1.412219 3.956150 -2.050150
v 2.067588 -0.034357 -2.050150
v 2.067588 3.956150 -2.050150
v -1.715622 -0.034357 -2.233327
v -1.715622 3.956150 -2.233327
v -1.060254 -0.034357 -2.233327
v -1.060254 3.956150 -2.233327
v -1.060254 -0.034357 -2.050149
v -1.060254 3.956150 -2.050149
v -1.715622 -0.034357 -2.050149
v -1.715622 3.956150 -2.050149
v -1.330845 3.141297 -5.634484
v 1.207253 0.603199 -5.634485
v -0.867430 3.604713 -5.634484
v 1.670669 1.066615 -5.634485
v -0.867430 3.604713 -5.473376
v 1.670669 1.066615 -5.473377
v -1.330845 3.141297 -5.473376
v 1.207253 0.603199 -5.473377
v 1.682811 3.141297 -5.634485
v -0.855288 0.603199 -5.634484
v 1.219395 3.604713 -5.634485
v -1.318704 1.066615 -5.634484
v 1.219395 3.604713 -5.473377
v -1.318704 1.066615 -5.473376
v 1.682811 3.141297 -5.473377
v -0.855288 0.603199 -5.473376
v -1.307343 3.270308 -5.639750
v 1.647166 3.270308 -5.639751
v -1.307343 3.925677 -5.639750
v 1.647166 3.925677 -5.639751
v -1.307343 3.925677 -5.468110
v 1.647166 3.925677 -5.468111
v -1.307343 3.270308 -5.468110
v 1.647166 3.270308 -5.468111
v -1.307343 0.294640 -5.639750
v 1.647166 0.294640 -5.639751
v -1.307343 0.950009 -5.639750
v 1.647166 0.950009 -5.639751
v -1.307343 0.950009 -5.468110
v 1.647166 0.950009 -5.468111
v -1.307343 0.294640 -5.468110
v 1.647166 0.294640 -5.468111
v 2.067588 -0.034357 -5.645520
v 2.067588 3.956150 -5.645520
v 1.412219 -0.034357 -5.645520
v 1.412219 3.956150 -5.645520
v 1.412219 -0.034357 -5.462342
v 1.412219 3.956150 -5.462342
v 2.067588 -0.034357 -5.462342
v 2.067588 3.956150 -5.462342
v -1.715622 -0.034357 -5.645519
v -1.715622 3.956150 -5.645519
v -1.060254 -0.034357 -5.645519
v -1.060254 3.956150 -5.645519
v -1.060254 -0.034357 -5.462341
v -1.060254 3.956150 -5.462341
v -1.715622 -0.034357 -5.462341
v -1.715622 3.956150 -5.462341
v -1.475090 2.278278 -2.058205
v -1.475090 2.748060 -2.058205
v -1.712672 2.278278 -2.058205
v -1.712672 2.748060 -2.058205
v -1.475091 2.278278 -5.632994
v -1.475091 2.748060 -5.632994
v -1.712673 2.278278 -5.632994
v -1.712673 2.748060 -5.632994
v -1.475090 0.285353 -2.058207
v -1.475090 0.993853 -2.058207
v -1.712672 0.285353 -2.058207
v -1.712672 0.993853 -2.058207
v -1.475091 0.285353 -5.632996
v -1.475091 0.993853 -5.632996
v -1.712673 0.285353 -5.632996
v -1.712673 0.993853 -5.632996
v -1.475089 3.066205 4.756655
v -1.475089 3.774704 4.756655
v -1.712671 3.066205 4.756655
v -1.712671 3.774704 4.756655
v -1.475092 3.066205 -5.638066
v -1.475092 3.774704 -5.638066
v -1.712674 3.066205 -5.638066
v -1.712674 3.774704 -5.638066
v 1.882119 2.046480 -2.192760
v 1.882119 2.642856 -2.192760
v -1.676509 2.642856 -2.192759
v 1.882118 2.046480 -5.571115
v 1.882118 2.642856 -5.571115
v -1.676510 2.642856 -5.571114
v 1.490669 2.046480 -2.192760
v 1.490669 2.642856 -2.192760
v 1.490668 2.046480 -5.571115
v 1.490668 2.642856 -5.571115
v 1.882119 2.415209 -2.192760
v -1.676509 2.415209 -2.192759
v -1.676510 2.415209 -5.571114
v 1.882118 2.415209 -5.571115
v 1.490668 2.415209 -5.571115
v 1.490669 2.415209 -2.192760
v 1.882119 0.333002 -2.192758
v 1.882119 0.929378 -2.192758
v -1.676509 0.929378 -2.192757
v 1.882118 0.333002 -5.571113
v 1.882118 0.929378 -5.571113
v -1.676510 0.929378 -5.571112
v 1.490670 0.333002 -2.192758
v 1.490670 0.929378 -2.192758
v 1.490669 0.333002 -5.571113
v 1.490669 0.929378 -5.571113
v 1.882119 0.701731 -2.192758
v -1.676509 0.701731 -2.192757
v -1.676510 0.701731 -5.571112
v 1.882118 0.701731 -5.571113
v 1.490669 0.701731 -5.571113
v 1.490670 0.701731 -2.192758
v 2.132906 4.063422 5.054022
v 1.770061 3.781358 4.691177
v -1.780936 4.063422 5.054023
v -1.418091 3.781358 4.691178
v 2.132903 4.063422 -5.902250
v 1.770058 3.781358 -5.539405
v -1.780939 4.063422 -5.902249
v -1.418094 3.781358 -5.539404
v 2.132906 3.781358 5.054022
v -1.780936 3.781358 5.054023
v -1.780939 3.781358 -5.902249
v 2.132903 3.781358 -5.902250
v 1.770061 3.963258 4.691177
v -1.418091 3.963258 4.691178
v -1.418094 3.963258 -5.539404
v 1.770058 3.963258 -5.539405
vn -0.0000 1.0000 -0.0000
vn -0.0000 -0.0000 1.0000
vn -1.0000 -0.0000 -0.0000
vn 1.0000 -0.0000 -0.0000
vn -0.0000 -1.0000 -0.0000
vn -0.0000 -0.0000 -1.0000
vn 0.7071 0.7071 -0.0000
vn -0.7071 0.7071 -0.0000
vn 0.7071 -0.7071 -0.0000
vn -0.7071 -0.7071 -0.0000
vt 0.647142 0.843332
vt 0.577778 0.850559
vt 0.447098 0.849456
vt 0.447890 0.829691
vt 0.577382 0.854108
vt 0.447086 0.854085
vt 0.647142 0.871491
vt 0.723459 0.024422
vt 0.728034 0.024422
vt 0.728034 0.042713
vt 0.723459 0.042713
vt 0.447434 0.874840
vt 0.728034 0.218710
vt 0.723459 0.218710
vt 0.322073 0.783965
vt 0.301836 0.796943
vt 0.290574 0.774142
vt 0.303549 0.755080
vt 0.255709 0.796943
vt 0.267606 0.769355
vt 0.656130 0.153399
vt 0.617090 0.153399
vt 0.617090 0.133879
vt 0.656130 0.133879
vt 0.259528 0.751907
vt 0.232260 0.779095
vt 0.617090 0.181260
vt 0.656130 0.181260
vt 0.835959 0.307596
vt 0.854483 0.278712
vt 0.867458 0.297773
vt 0.856197 0.320575
vt 0.890427 0.292987
vt 0.902323 0.320575
vt 0.617090 0.030562
vt 0.617090 0.011042
vt 0.656130 0.011042
vt 0.656130 0.030562
vt 0.898504 0.275539
vt 0.925772 0.302727
vt 0.656130 0.058423
vt 0.617090 0.058423
vt 0.432926 0.825356
vt 0.363562 0.832582
vt 0.232882 0.831480
vt 0.233674 0.811715
vt 0.363166 0.836132
vt 0.232870 0.836109
vt 0.432926 0.853515
vt 0.847794 0.659580
vt 0.852369 0.659580
vt 0.852369 0.677870
vt 0.847794 0.677870
vt 0.233218 0.856863
vt 0.852369 0.853868
vt 0.847794 0.853868
vt 0.675290 0.298072
vt 0.694230 0.309582
vt 0.692842 0.453654
vt 0.675290 0.453898
vt 0.699594 0.299722
vt 0.699591 0.425206
vt 0.711428 0.251840
vt 0.876113 0.789453
vt 0.869686 0.762412
vt 0.886389 0.758442
vt 0.892816 0.785483
vt 0.719046 0.424347
vt 0.886389 0.606215
vt 0.892816 0.633256
vt 0.774159 0.164988
vt 0.774159 0.009162
vt 0.791711 0.009405
vt 0.793099 0.153478
vt 0.798460 0.037854
vt 0.798463 0.163338
vt 0.810296 0.211220
vt 0.829464 0.883828
vt 0.812762 0.879858
vt 0.819189 0.852817
vt 0.835891 0.856787
vt 0.817915 0.038713
vt 0.812762 0.727631
vt 0.819189 0.700590
vt 0.677275 0.901292
vt 0.822409 0.902273
vt 0.822409 0.919780
vt 0.667175 0.919780
vt 0.089221 0.161709
vt 0.089221 0.009481
vt 0.095648 0.036522
vt 0.095648 0.188750
vt 0.643210 0.885695
vt 0.664805 0.895404
vt 0.105924 0.005511
vt 0.112351 0.032552
vt 0.792687 0.867755
vt 0.794769 0.895624
vt 0.442303 0.910280
vt 0.452404 0.928768
vt 0.297169 0.928768
vt 0.297169 0.911261
vt 0.874840 0.717472
vt 0.868413 0.744513
vt 0.868413 0.592285
vt 0.874840 0.565244
vt 0.454773 0.904392
vt 0.476368 0.894683
vt 0.851710 0.588315
vt 0.858137 0.561274
vt 0.324809 0.904612
vt 0.326891 0.876743
vt 0.668165 0.806232
vt 0.798441 0.806148
vt 0.798101 0.826903
vt 0.598383 0.823627
vt 0.692082 0.025920
vt 0.692082 0.201918
vt 0.687506 0.201918
vt 0.687506 0.025920
vt 0.598383 0.795461
vt 0.667790 0.802671
vt 0.692082 0.220208
vt 0.687506 0.220208
vt 0.797617 0.781761
vt 0.798415 0.801513
vt 0.806232 0.355654
vt 0.806148 0.225377
vt 0.826903 0.225718
vt 0.823627 0.425436
vt 0.710058 0.025920
vt 0.710058 0.201918
vt 0.705483 0.201918
vt 0.705483 0.025920
vt 0.795461 0.425436
vt 0.802671 0.356028
vt 0.710058 0.220208
vt 0.705483 0.220208
vt 0.781761 0.226201
vt 0.801513 0.225403
vt 0.155369 0.911448
vt 0.168968 0.932863
vt 0.162228 0.949740
vt 0.137155 0.928212
vt 0.656130 0.091980
vt 0.656130 0.119841
vt 0.617090 0.119841
vt 0.617090 0.091980
vt 0.656130 0.072461
vt 0.617090 0.072461
vt 0.190526 0.930129
vt 0.205949 0.949740
vt 0.224702 0.913794
vt 0.199517 0.900655
vt 0.935952 0.074663
vt 0.919188 0.092877
vt 0.897659 0.067803
vt 0.914536 0.061064
vt 0.904709 0.127933
vt 0.943748 0.127933
vt 0.943748 0.155793
vt 0.904709 0.155793
vt 0.904709 0.108413
vt 0.943748 0.108413
vt 0.897659 0.024082
vt 0.917270 0.039505
vt 0.933606 0.005329
vt 0.946744 0.030515
vt 0.683300 0.769979
vt 0.527474 0.769979
vt 0.527718 0.752427
vt 0.671791 0.751039
vt 0.556166 0.745678
vt 0.681650 0.745675
vt 0.729532 0.733842
vt 0.310089 0.873117
vt 0.306119 0.889820
vt 0.279078 0.883393
vt 0.283048 0.866690
vt 0.557025 0.726223
vt 0.153892 0.889820
vt 0.126851 0.883393
vt 0.769979 0.407666
vt 0.751039 0.396156
vt 0.752427 0.252083
vt 0.769979 0.251840
vt 0.745675 0.406016
vt 0.745678 0.280532
vt 0.733841 0.453898
vt 0.876113 0.251666
vt 0.869686 0.224625
vt 0.886389 0.220656
vt 0.892816 0.247696
vt 0.726223 0.281391
vt 0.886389 0.068428
vt 0.892816 0.095469
vt 0.849324 0.546775
vt 0.835684 0.347523
vt 0.855448 0.346731
vt 0.856551 0.477411
vt 0.860077 0.346719
vt 0.860100 0.477015
vt 0.877483 0.546775
vt 0.315036 0.193162
vt 0.333327 0.193162
vt 0.333327 0.197738
vt 0.315036 0.197738
vt 0.880832 0.347067
vt 0.509325 0.193162
vt 0.509325 0.197738
vt 0.843332 0.206726
vt 0.829692 0.007474
vt 0.849456 0.006682
vt 0.850559 0.137362
vt 0.854085 0.006670
vt 0.854108 0.136966
vt 0.871490 0.206726
vt 0.315036 0.209640
vt 0.333327 0.209640
vt 0.333327 0.214216
vt 0.315036 0.214216
vt 0.874840 0.007018
vt 0.509325 0.209640
vt 0.509325 0.214216
vt 0.080961 0.403469
vt 0.099485 0.374585
vt 0.112460 0.393646
vt 0.101198 0.416448
vt 0.135428 0.388860
vt 0.147325 0.416448
vt 0.784959 0.727989
vt 0.784959 0.747509
vt 0.745919 0.747509
vt 0.745919 0.727989
vt 0.143506 0.371412
vt 0.170773 0.398600
vt 0.745919 0.700128
vt 0.784959 0.700128
vt 0.018875 0.656130
vt 0.005896 0.635892
vt 0.028698 0.624631
vt 0.047759 0.637606
vt 0.005896 0.589766
vt 0.033484 0.601663
vt 0.904709 0.197692
vt 0.943748 0.197692
vt 0.943748 0.217212
vt 0.904709 0.217212
vt 0.050932 0.593585
vt 0.023744 0.566317
vt 0.943748 0.169831
vt 0.904709 0.169831
vt 0.399545 0.576944
vt 0.505255 0.662305
vt 0.407621 0.712758
vt 0.375709 0.667440
vt 0.369492 0.804029
vt 0.270298 0.706191
vt 0.832895 0.689086
vt 0.725816 0.689086
vt 0.725816 0.582007
vt 0.832895 0.582007
vt 0.725816 0.474928
vt 0.832895 0.474928
vt 0.270298 0.576944
vt 0.519811 0.816417
vt 0.301850 0.106408
vt 0.301850 0.294478
vt 0.196874 0.245800
vt 0.215907 0.154748
vt 0.101615 0.284448
vt 0.113597 0.093241
vt 0.220208 0.701365
vt 0.220208 0.862856
vt 0.113129 0.862856
vt 0.113129 0.701365
vt 0.006050 0.862856
vt 0.006050 0.701365
vt 0.214307 0.005698
vt 0.192943 0.405962
vt 0.569245 0.405805
vt 0.453772 0.548806
vt 0.385520 0.416730
vt 0.446825 0.373560
vt 0.262051 0.365150
vt 0.394403 0.230963
vt 0.605197 0.006447
vt 0.605197 0.151299
vt 0.460345 0.151299
vt 0.460345 0.006447
vt 0.315492 0.151299
vt 0.315492 0.006447
vt 0.569245 0.230963
vt 0.245293 0.568496
vt 0.686054 0.610756
vt 0.644834 0.574969
vt 0.655806 0.463704
vt 0.714552 0.471799
vt 0.984195 0.939707
vt 0.984195 0.985693
vt 0.863723 0.985693
vt 0.863723 0.939707
vt 0.541734 0.627802
vt 0.568245 0.591197
vt 0.574578 0.598792
vt 0.555099 0.632872
vt 0.641218 0.586533
vt 0.669634 0.621765
vt 0.966449 0.465882
vt 0.966449 0.345411
vt 0.979701 0.345411
vt 0.979701 0.465882
vt 0.520627 0.507014
vt 0.480150 0.533427
vt 0.697139 0.714552
vt 0.714552 0.709756
vt 0.544092 0.713123
vt 0.529306 0.710912
vt 0.863723 0.832488
vt 0.984194 0.832488
vt 0.891964 0.465882
vt 0.891964 0.345411
vt 0.212682 0.583791
vt 0.171462 0.548005
vt 0.182434 0.436740
vt 0.241180 0.444834
vt 0.943748 0.599205
vt 0.897762 0.599205
vt 0.897762 0.478734
vt 0.943748 0.478734
vt 0.068362 0.600838
vt 0.094873 0.564233
vt 0.101206 0.571828
vt 0.081727 0.605907
vt 0.167846 0.559569
vt 0.196261 0.594801
vt 0.125833 0.908211
vt 0.005362 0.908211
vt 0.005362 0.894960
vt 0.125833 0.894960
vt 0.047255 0.480050
vt 0.006778 0.506463
vt 0.223767 0.687588
vt 0.241180 0.682792
vt 0.070720 0.686159
vt 0.055934 0.683948
vt 0.490718 0.887462
vt 0.611189 0.887461
vt 0.611189 0.994681
vt 0.490718 0.994681
vt 0.125833 0.982697
vt 0.005362 0.982697
vt 0.055634 0.129912
vt 0.005809 0.010761
vt 0.018304 0.006066
vt 0.062869 0.127765
vt 0.573739 0.181260
vt 0.313417 0.181260
vt 0.313417 0.174558
vt 0.573739 0.174558
vt 0.005809 0.467919
vt 0.079933 0.334731
vt 0.087729 0.336500
vt 0.020253 0.474870
vt 0.670222 0.242678
vt 0.675505 0.237529
vt 0.756538 0.233326
vt 0.760991 0.239173
vt 0.072942 0.124537
vt 0.040201 0.016616
vt 0.565118 0.165936
vt 0.322038 0.165936
vt 0.041182 0.466560
vt 0.096622 0.338108
vt 0.659126 0.435922
vt 0.583375 0.435922
vt 0.583375 0.192842
vt 0.659126 0.192842
vt 0.760991 0.005948
vt 0.755708 0.011097
vt 0.674675 0.015301
vt 0.670222 0.009453
s 0
usemtl Материал
f 5/1/1 3/2/1 4/3/1 6/4/1
f 3/2/2 1/5/2 2/6/2 4/3/2
f 5/1/3 7/7/3 1/5/3 3/2/3
f 4/8/4 2/9/4 8/10/4 6/11/4
f 1/5/5 7/7/5 8/12/5 2/6/5
f 8/10/6 7/13/6 5/14/6 6/11/6
f 13/15/3 11/16/3 12/17/3 14/18/3
f 11/16/2 9/19/2 10/20/2 12/17/2
f 13/21/5 15/22/5 9/23/5 11/24/5
f 12/17/1 10/20/1 16/25/1 14/18/1
f 9/19/4 15/26/4 16/25/4 10/20/4
f 16/27/6 15/22/6 13/21/6 14/28/6
f 21/29/4 22/30/4 20/31/4 19/32/4
f 19/32/2 20/31/2 18/33/2 17/34/2
f 21/35/5 19/36/5 17/37/5 23/38/5
f 20/31/1 22/30/1 24/39/1 18/33/1
f 17/34/3 18/33/3 24/39/3 23/40/3
f 24/41/6 22/42/6 21/35/6 23/38/6
f 29/43/1 27/44/1 28/45/1 30/46/1
f 27/44/2 25/47/2 26/48/2 28/45/2
f 29/43/3 31/49/3 25/47/3 27/44/3
f 28/50/4 26/51/4 32/52/4 30/53/4
f 25/47/5 31/49/5 32/54/5 26/48/5
f 32/52/6 31/55/6 29/56/6 30/53/6
f 37/57/7 35/58/7 36/59/7 38/60/7
f 35/58/2 33/61/2 34/62/2 36/59/2
f 37/57/8 39/63/8 33/61/8 35/58/8
f 36/64/9 34/65/9 40/66/9 38/67/9
f 33/61/10 39/63/10 40/68/10 34/62/10
f 40/66/6 39/69/6 37/70/6 38/67/6
f 45/71/8 46/72/8 44/73/8 43/74/8
f 43/74/2 44/73/2 42/75/2 41/76/2
f 45/71/7 43/74/7 41/76/7 47/77/7
f 44/78/10 46/79/10 48/80/10 42/81/10
f 41/76/9 42/75/9 48/82/9 47/77/9
f 48/80/6 46/79/6 45/83/6 47/84/6
f 53/85/7 54/86/7 52/87/7 51/88/7
f 51/89/6 52/90/6 50/91/6 49/92/6
f 53/85/8 51/88/8 49/93/8 55/94/8
f 52/90/9 54/95/9 56/96/9 50/91/9
f 49/93/10 50/97/10 56/98/10 55/94/10
f 56/98/2 54/86/2 53/85/2 55/94/2
f 61/99/8 59/100/8 60/101/8 62/102/8
f 59/103/6 57/104/6 58/105/6 60/106/6
f 61/99/7 63/107/7 57/108/7 59/100/7
f 60/106/10 58/105/10 64/109/10 62/110/10
f 57/108/9 63/107/9 64/111/9 58/112/9
f 64/111/2 63/107/2 61/99/2 62/102/2
f 69/113/1 70/114/1 68/115/1 67/116/1
f 67/117/6 68/118/6 66/119/6 65/120/6
f 69/113/3 67/116/3 65/121/3 71/122/3
f 68/118/4 70/123/4 72/124/4 66/119/4
f 65/121/5 66/125/5 72/126/5 71/122/5
f 72/126/2 70/114/2 69/113/2 71/122/2
f 77/127/1 78/128/1 76/129/1 75/130/1
f 75/131/6 76/132/6 74/133/6 73/134/6
f 77/127/3 75/130/3 73/135/3 79/136/3
f 76/132/4 78/137/4 80/138/4 74/133/4
f 73/135/5 74/139/5 80/140/5 79/136/5
f 80/140/2 78/128/2 77/127/2 79/136/2
f 85/141/3 86/142/3 84/143/3 83/144/3
f 83/145/6 84/146/6 82/147/6 81/148/6
f 85/149/5 83/145/5 81/148/5 87/150/5
f 84/143/1 86/142/1 88/151/1 82/152/1
f 81/153/4 82/152/4 88/151/4 87/154/4
f 88/151/2 86/142/2 85/141/2 87/154/2
f 93/155/4 91/156/4 92/157/4 94/158/4
f 91/159/6 89/160/6 90/161/6 92/162/6
f 93/163/5 95/164/5 89/160/5 91/159/5
f 92/157/1 90/165/1 96/166/1 94/158/1
f 89/167/3 95/168/3 96/166/3 90/165/3
f 96/166/2 95/168/2 93/155/2 94/158/2
f 101/169/7 102/170/7 100/171/7 99/172/7
f 99/172/6 100/171/6 98/173/6 97/174/6
f 101/169/8 99/172/8 97/174/8 103/175/8
f 100/176/9 102/177/9 104/178/9 98/179/9
f 97/174/10 98/173/10 104/180/10 103/175/10
f 104/178/2 102/177/2 101/181/2 103/182/2
f 109/183/8 107/184/8 108/185/8 110/186/8
f 107/184/6 105/187/6 106/188/6 108/185/6
f 109/183/7 111/189/7 105/187/7 107/184/7
f 108/190/10 106/191/10 112/192/10 110/193/10
f 105/187/9 111/189/9 112/194/9 106/188/9
f 112/192/2 111/195/2 109/196/2 110/193/2
f 117/197/1 118/198/1 116/199/1 115/200/1
f 115/200/6 116/199/6 114/201/6 113/202/6
f 117/197/3 115/200/3 113/202/3 119/203/3
f 116/204/4 118/205/4 120/206/4 114/207/4
f 113/202/5 114/201/5 120/208/5 119/203/5
f 120/206/2 118/205/2 117/209/2 119/210/2
f 125/211/1 126/212/1 124/213/1 123/214/1
f 123/214/6 124/213/6 122/215/6 121/216/6
f 125/211/3 123/214/3 121/216/3 127/217/3
f 124/218/4 126/219/4 128/220/4 122/221/4
f 121/216/5 122/215/5 128/222/5 127/217/5
f 128/220/2 126/219/2 125/223/2 127/224/2
f 133/225/3 134/226/3 132/227/3 131/228/3
f 131/228/6 132/227/6 130/229/6 129/230/6
f 133/231/5 131/232/5 129/233/5 135/234/5
f 132/227/1 134/226/1 136/235/1 130/229/1
f 129/230/4 130/229/4 136/235/4 135/236/4
f 136/237/2 134/238/2 133/231/2 135/234/2
f 141/239/4 139/240/4 140/241/4 142/242/4
f 139/240/6 137/243/6 138/244/6 140/241/6
f 141/245/5 143/246/5 137/247/5 139/248/5
f 140/241/1 138/244/1 144/249/1 142/242/1
f 137/243/3 143/250/3 144/249/3 138/244/3
f 144/251/2 143/246/2 141/245/2 142/252/2
f 145/253/2 146/254/2 148/255/2 147/256/2
f 147/256/3 148/255/3 152/257/3 151/258/3
f 151/259/6 152/260/6 150/261/6 149/262/6
f 149/262/4 150/261/4 146/263/4 145/264/4
f 147/256/5 151/258/5 149/265/5 145/253/5
f 152/257/1 148/255/1 146/254/1 150/266/1
f 153/267/2 154/268/2 156/269/2 155/270/2
f 155/270/3 156/269/3 160/271/3 159/272/3
f 159/273/6 160/274/6 158/275/6 157/276/6
f 157/276/4 158/275/4 154/277/4 153/278/4
f 155/270/5 159/272/5 157/279/5 153/267/5
f 160/271/1 156/269/1 154/268/1 158/280/1
f 161/281/2 162/282/2 164/283/2 163/284/2
f 163/284/3 164/283/3 168/285/3 167/286/3
f 167/287/6 168/288/6 166/289/6 165/290/6
f 165/290/4 166/289/4 162/291/4 161/292/4
f 163/284/5 167/286/5 165/293/5 161/281/5
f 168/285/1 164/283/1 162/282/1 166/294/1
f 184/295/2 176/296/2 171/297/2 180/298/2
f 180/299/3 171/300/3 174/301/3 181/302/3
f 183/303/6 178/304/6 173/305/6 182/306/6
f 182/306/4 173/305/4 170/307/4 179/308/4
f 175/309/5 177/310/5 172/311/5 169/312/5
f 178/304/1 176/296/1 170/307/1 173/305/1
f 174/313/1 171/297/1 176/296/1 178/304/1
f 181/314/6 174/313/6 178/304/6 183/303/6
f 179/308/2 170/307/2 176/296/2 184/295/2
f 169/315/2 179/308/2 184/295/2 175/316/2
f 172/317/4 182/306/4 179/308/4 169/315/4
f 177/318/6 183/303/6 182/306/6 172/317/6
f 183/319/5 184/320/5 180/299/5 181/302/5
f 184/321/3 183/322/3 177/310/3 175/309/3
f 200/323/2 192/324/2 187/325/2 196/326/2
f 196/327/3 187/328/3 190/329/3 197/330/3
f 199/331/6 194/332/6 189/333/6 198/334/6
f 198/334/4 189/333/4 186/335/4 195/336/4
f 191/337/5 193/338/5 188/339/5 185/340/5
f 194/332/1 192/324/1 186/335/1 189/333/1
f 190/341/1 187/325/1 192/324/1 194/332/1
f 197/342/6 190/341/6 194/332/6 199/331/6
f 195/336/2 186/335/2 192/324/2 200/323/2
f 185/343/2 195/336/2 200/323/2 191/344/2
f 188/345/4 198/334/4 195/336/4 185/343/4
f 193/346/6 199/331/6 198/334/6 188/345/6
f 199/347/5 200/348/5 196/349/5 197/350/5
f 200/351/3 199/352/3 193/338/3 191/337/3
f 201/353/2 203/354/2 210/355/2 209/356/2
f 203/357/3 207/358/3 211/359/3 210/360/3
f 207/361/6 205/362/6 212/363/6 211/364/6
f 205/362/4 201/353/4 209/356/4 212/363/4
f 203/354/1 201/353/1 205/362/1 207/361/1
f 206/365/2 216/366/2 215/367/2 208/368/2
f 202/369/5 209/356/5 210/355/5 204/370/5
f 204/371/5 210/360/5 211/359/5 208/372/5
f 208/373/5 211/364/5 212/363/5 206/374/5
f 206/374/5 212/363/5 209/356/5 202/369/5
f 215/375/5 216/376/5 213/377/5 214/378/5
f 204/379/6 214/380/6 213/381/6 202/382/6
f 202/382/3 213/381/3 216/366/3 206/365/3
f 208/368/4 215/367/4 214/380/4 204/379/4
