# Blender 4.2.2 LTS
# www.blender.org
mtllib fence 1.mtl
o _fence_1
v -0.075049 0.358492 8.289099
v -0.075049 0.358492 8.457078
v -0.075049 5.436570 8.289100
v -0.075049 5.436570 8.457079
v 0.092930 0.358492 8.289099
v 0.092930 0.358492 8.457078
v 0.092930 5.436570 8.289100
v 0.092930 5.436570 8.457079
v -0.075049 0.358492 7.005735
v -0.075049 0.358492 7.173715
v -0.075049 5.436570 7.005736
v -0.075049 5.436570 7.173715
v 0.092930 0.358492 7.005735
v 0.092930 0.358492 7.173715
v 0.092930 5.436570 7.005736
v 0.092930 5.436570 7.173715
v -0.075049 0.358492 5.722372
v -0.075049 0.358492 5.890350
v -0.075049 5.436570 5.722372
v -0.075049 5.436570 5.890351
v 0.092930 0.358492 5.722372
v 0.092930 0.358492 5.890350
v 0.092930 5.436570 5.722372
v 0.092930 5.436570 5.890351
v -0.075049 0.358492 4.439008
v -0.075049 0.358492 4.606987
v -0.075049 5.436570 4.439009
v -0.075049 5.436570 4.606987
v 0.092930 0.358492 4.439008
v 0.092930 0.358492 4.606987
v 0.092930 5.436570 4.439009
v 0.092930 5.436570 4.606987
v -0.075049 0.358492 3.155644
v -0.075049 0.358492 3.323623
v -0.075049 5.436570 3.155644
v -0.075049 5.436570 3.323624
v 0.092930 0.358492 3.155644
v 0.092930 0.358492 3.323623
v 0.092930 5.436570 3.155644
v 0.092930 5.436570 3.323624
v -0.075049 0.358492 1.872280
v -0.075049 0.358492 2.040259
v -0.075049 5.436570 1.872281
v -0.075049 5.436570 2.040260
v 0.092930 0.358492 1.872280
v 0.092930 0.358492 2.040259
v 0.092930 5.436570 1.872281
v 0.092930 5.436570 2.040260
v -0.075049 0.358492 0.588916
v -0.075049 0.358492 0.756896
v -0.075049 5.436571 0.588918
v -0.075049 5.436571 0.756896
v 0.092930 0.358492 0.588916
v 0.092930 0.358492 0.756896
v 0.092930 5.436571 0.588918
v 0.092930 5.436571 0.756896
v -0.075049 0.358492 -0.694447
v -0.075049 0.358492 -0.526467
v -0.075049 5.436571 -0.694446
v -0.075049 5.436571 -0.526466
v 0.092930 0.358492 -0.694447
v 0.092930 0.358492 -0.526467
v 0.092930 5.436571 -0.694446
v 0.092930 5.436571 -0.526466
v -0.075049 0.358492 -1.977810
v -0.075049 0.358492 -1.809831
v -0.075049 5.436571 -1.977810
v -0.075049 5.436571 -1.809831
v 0.092930 0.358492 -1.977810
v 0.092930 0.358492 -1.809831
v 0.092930 5.436571 -1.977810
v 0.092930 5.436571 -1.809831
v -0.075049 0.358492 -3.261173
v -0.075049 0.358492 -3.093195
v -0.075049 5.436571 -3.261173
v -0.075049 5.436571 -3.093195
v 0.092930 0.358492 -3.261173
v 0.092930 0.358492 -3.093195
v 0.092930 5.436571 -3.261173
v 0.092930 5.436571 -3.093195
v -0.075049 0.358492 -4.544538
v -0.075049 0.358492 -4.376558
v -0.075049 5.436571 -4.544538
v -0.075049 5.436571 -4.376558
v 0.092930 0.358492 -4.544538
v 0.092930 0.358492 -4.376558
v 0.092930 5.436571 -4.544538
v 0.092930 5.436571 -4.376558
v -0.075049 0.358492 -5.827901
v -0.075049 0.358492 -5.659922
v -0.075049 5.436571 -5.827901
v -0.075049 5.436571 -5.659922
v 0.092930 0.358492 -5.827901
v 0.092930 0.358492 -5.659922
v 0.092930 5.436571 -5.827901
v 0.092930 5.436571 -5.659922
v -0.075049 0.358492 -7.111264
v -0.075049 0.358492 -6.943285
v -0.075049 5.436571 -7.111264
v -0.075049 5.436571 -6.943285
v 0.092930 0.358492 -7.111264
v 0.092930 0.358492 -6.943285
v 0.092930 5.436571 -7.111264
v 0.092930 5.436571 -6.943285
v -0.075049 0.358493 -8.394629
v -0.075049 0.358493 -8.226648
v -0.075049 5.436571 -8.394629
v -0.075049 5.436571 -8.226648
v 0.092930 0.358493 -8.394629
v 0.092930 0.358493 -8.226648
v 0.092930 5.436571 -8.394629
v 0.092930 5.436571 -8.226648
v -0.075049 0.358491 7.719561
v -0.075049 0.358491 7.887540
v -0.075049 13.706448 7.719562
v -0.075049 13.706448 7.887541
v 0.092930 0.358491 7.719561
v 0.092930 0.358491 7.887540
v 0.092930 13.706448 7.719562
v 0.092930 13.706448 7.887541
v -0.075049 0.358491 6.426122
v -0.075049 0.358491 6.594101
v -0.075049 13.706448 6.426122
v -0.075049 13.706448 6.594101
v 0.092930 0.358491 6.426122
v 0.092930 0.358491 6.594101
v 0.092930 13.706448 6.426122
v 0.092930 13.706448 6.594101
v -0.075049 0.358491 5.132682
v -0.075049 0.358491 5.300661
v -0.075049 13.706448 5.132683
v -0.075049 13.706448 5.300662
v 0.092930 0.358491 5.132682
v 0.092930 0.358491 5.300661
v 0.092930 13.706448 5.132683
v 0.092930 13.706448 5.300662
v -0.075049 0.358491 3.839242
v -0.075049 0.358491 4.007221
v -0.075049 13.706448 3.839243
v -0.075049 13.706448 4.007222
v 0.092930 0.358491 3.839242
v 0.092930 0.358491 4.007221
v 0.092930 13.706448 3.839243
v 0.092930 13.706448 4.007222
v -0.075049 0.358491 2.545803
v -0.075049 0.358491 2.713782
v -0.075049 13.706449 2.545804
v -0.075049 13.706449 2.713783
v 0.092930 0.358491 2.545803
v 0.092930 0.358491 2.713782
v 0.092930 13.706449 2.545804
v 0.092930 13.706449 2.713783
v -0.075049 0.358491 1.252363
v -0.075049 0.358491 1.420342
v -0.075049 13.706449 1.252364
v -0.075049 13.706449 1.420343
v 0.092930 0.358491 1.252363
v 0.092930 0.358491 1.420342
v 0.092930 13.706449 1.252364
v 0.092930 13.706449 1.420343
v -0.075049 0.358491 -0.041077
v -0.075049 0.358491 0.126903
v -0.075049 13.706449 -0.041077
v -0.075049 13.706449 0.126903
v 0.092930 0.358491 -0.041077
v 0.092930 0.358491 0.126903
v 0.092930 13.706449 -0.041077
v 0.092930 13.706449 0.126903
v -0.075049 0.358491 -1.334517
v -0.075049 0.358491 -1.166537
v -0.075049 13.706449 -1.334517
v -0.075049 13.706449 -1.166537
v 0.092930 0.358491 -1.334517
v 0.092930 0.358491 -1.166537
v 0.092930 13.706449 -1.334517
v 0.092930 13.706449 -1.166537
v -0.075049 0.358491 -2.627956
v -0.075049 0.358491 -2.459977
v -0.075049 13.706449 -2.627956
v -0.075049 13.706449 -2.459977
v 0.092930 0.358491 -2.627956
v 0.092930 0.358491 -2.459977
v 0.092930 13.706449 -2.627956
v 0.092930 13.706449 -2.459977
v -0.075049 0.358491 -3.921396
v -0.075049 0.358491 -3.753417
v -0.075049 13.706449 -3.921396
v -0.075049 13.706449 -3.753417
v 0.092930 0.358491 -3.921396
v 0.092930 0.358491 -3.753417
v 0.092930 13.706449 -3.921396
v 0.092930 13.706449 -3.753417
v -0.075049 0.358491 -5.214835
v -0.075049 0.358491 -5.046856
v -0.075049 13.706449 -5.214835
v -0.075049 13.706449 -5.046856
v 0.092930 0.358491 -5.214835
v 0.092930 0.358491 -5.046856
v 0.092930 13.706449 -5.214835
v 0.092930 13.706449 -5.046856
v -0.075049 0.358491 -6.508275
v -0.075049 0.358491 -6.340296
v -0.075049 13.706449 -6.508275
v -0.075049 13.706449 -6.340296
v 0.092930 0.358491 -6.508275
v 0.092930 0.358491 -6.340296
v 0.092930 13.706449 -6.508275
v 0.092930 13.706449 -6.340296
v -0.075049 0.358491 -7.801714
v -0.075049 0.358491 -7.633736
v -0.075049 13.706449 -7.801714
v -0.075049 13.706449 -7.633736
v 0.092930 0.358491 -7.801714
v 0.092930 0.358491 -7.633736
v 0.092930 13.706449 -7.801714
v 0.092930 13.706449 -7.633736
v -0.075049 4.424647 9.150754
v -0.075049 4.592627 9.150754
v -0.075049 4.424647 -8.959497
v -0.075049 4.592627 -8.959497
v 0.092930 4.424647 9.150754
v 0.092930 4.592627 9.150754
v 0.092930 4.424647 -8.959497
v 0.092930 4.592627 -8.959497
v -0.075049 1.014062 9.150754
v -0.075049 1.182041 9.150754
v -0.075049 1.014062 -8.959497
v -0.075049 1.182041 -8.959497
v 0.092930 1.014062 9.150754
v 0.092930 1.182041 9.150754
v 0.092930 1.014062 -8.959497
v 0.092930 1.182041 -8.959497
v -0.075049 12.263687 9.150753
v -0.075049 12.431666 9.150753
v -0.075049 12.263688 -8.959497
v -0.075049 12.431667 -8.959497
v 0.092930 12.263687 9.150753
v 0.092930 12.431666 9.150753
v 0.092930 12.263688 -8.959497
v 0.092930 12.431667 -8.959497
v -0.190380 -0.097771 9.371187
v -0.190380 15.127422 9.371186
v 0.208260 -0.097771 9.371187
v 0.208260 15.127422 9.371186
v -0.190380 -0.097772 8.941596
v -0.190380 15.127422 8.941595
v 0.208260 -0.097772 8.941596
v 0.208260 15.127422 8.941595
v 0.299938 15.148409 8.842799
v 0.299938 15.148411 9.469982
v -0.282057 15.148411 9.469982
v -0.282057 15.148409 8.842799
v 0.299938 15.402092 8.842799
v 0.299938 15.402094 9.469982
v -0.282057 15.402094 9.469982
v -0.282057 15.402092 8.842799
v -0.190380 -0.097772 -9.179932
v -0.190380 15.127422 -9.179935
v 0.208260 -0.097772 -9.179932
v 0.208260 15.127422 -9.179935
v -0.190380 -0.097771 -8.750341
v -0.190380 15.127422 -8.750343
v 0.208260 -0.097771 -8.750341
v 0.208260 15.127422 -8.750343
v 0.299938 15.148411 -8.651546
v 0.299938 15.148409 -9.278728
v -0.282057 15.148409 -9.278728
v -0.282057 15.148411 -8.651546
v 0.299938 15.402094 -8.651546
v 0.299938 15.402092 -9.278728
v -0.282057 15.402092 -9.278728
v -0.282057 15.402094 -8.651546
vn -1.0000 -0.0000 -0.0000
vn -0.0000 1.0000 -0.0000
vn 1.0000 -0.0000 -0.0000
vn -0.0000 -1.0000 -0.0000
vn -0.0000 -0.0000 -1.0000
vn -0.0000 -0.0000 1.0000
vn -0.2232 -0.9748 -0.0000
vn 0.2232 -0.9748 -0.0000
vn -0.0000 -0.9782 0.2078
vn -0.0000 -0.9782 -0.2078
vn 0.2231 -0.9748 -0.0000
vt 0.588619 0.301972
vt 0.588619 0.244268
vt 0.610572 0.244268
vt 0.610572 0.301972
vt 0.288297 0.868155
vt 0.230593 0.868155
vt 0.230593 0.810451
vt 0.288297 0.810451
vt 0.610572 0.359676
vt 0.610572 0.417380
vt 0.588619 0.417380
vt 0.588619 0.359676
vt 0.844729 0.550728
vt 0.902433 0.550728
vt 0.902433 0.608432
vt 0.844729 0.608432
vt 0.610572 0.475084
vt 0.588619 0.475084
vt 0.579651 0.177596
vt 0.579650 0.235300
vt 0.557697 0.235300
vt 0.557698 0.177596
vt 0.902433 0.675104
vt 0.844729 0.675104
vt 0.844729 0.617400
vt 0.902433 0.617400
vt 0.557698 0.119892
vt 0.557697 0.062188
vt 0.579650 0.062188
vt 0.579651 0.119892
vt 0.154953 0.810451
vt 0.154953 0.868155
vt 0.097249 0.868155
vt 0.097249 0.810451
vt 0.557697 0.004484
vt 0.579650 0.004484
vt 0.610572 0.177596
vt 0.610572 0.235300
vt 0.588619 0.235300
vt 0.588619 0.177596
vt 0.221625 0.868155
vt 0.163921 0.868155
vt 0.163921 0.810451
vt 0.221625 0.810451
vt 0.588619 0.119892
vt 0.588619 0.062188
vt 0.610572 0.062188
vt 0.610572 0.119892
vt 0.853239 0.861344
vt 0.910943 0.861344
vt 0.910943 0.919048
vt 0.853239 0.919048
vt 0.588619 0.004484
vt 0.610572 0.004484
vt 0.386651 0.386449
vt 0.386652 0.328745
vt 0.408604 0.328745
vt 0.408604 0.386449
vt 0.902433 0.741777
vt 0.844729 0.741777
vt 0.844729 0.684073
vt 0.902433 0.684073
vt 0.408604 0.444153
vt 0.408604 0.501858
vt 0.386651 0.501857
vt 0.386651 0.444153
vt 0.853239 0.794672
vt 0.910943 0.794672
vt 0.910943 0.852376
vt 0.853239 0.852376
vt 0.408603 0.559561
vt 0.386650 0.559562
vt 0.417572 0.386449
vt 0.417573 0.328745
vt 0.439525 0.328745
vt 0.439525 0.386449
vt 0.924698 0.163483
vt 0.866994 0.163483
vt 0.866994 0.105779
vt 0.924698 0.105779
vt 0.439525 0.444154
vt 0.439526 0.501858
vt 0.417573 0.501858
vt 0.417573 0.444154
vt 0.844729 0.484056
vt 0.902433 0.484056
vt 0.902433 0.541760
vt 0.844729 0.541760
vt 0.439526 0.559562
vt 0.417573 0.559562
vt 0.479415 0.386449
vt 0.479416 0.328745
vt 0.501369 0.328745
vt 0.501368 0.386449
vt 0.526777 0.864519
vt 0.526777 0.806815
vt 0.584481 0.806815
vt 0.584481 0.864519
vt 0.501368 0.444153
vt 0.501369 0.501857
vt 0.479416 0.501857
vt 0.479416 0.444153
vt 0.866994 0.239124
vt 0.924698 0.239124
vt 0.924698 0.296828
vt 0.866994 0.296828
vt 0.501369 0.559561
vt 0.479416 0.559561
vt 0.088281 0.555871
vt 0.088280 0.613575
vt 0.066327 0.613575
vt 0.066328 0.555871
vt 0.924698 0.230155
vt 0.866994 0.230155
vt 0.866994 0.172451
vt 0.924698 0.172451
vt 0.066328 0.498167
vt 0.066327 0.440463
vt 0.088280 0.440463
vt 0.088281 0.498167
vt 0.858026 0.239124
vt 0.858026 0.296828
vt 0.800322 0.296828
vt 0.800322 0.239124
vt 0.066327 0.382759
vt 0.088280 0.382759
vt 0.057359 0.555870
vt 0.057358 0.613575
vt 0.035405 0.613575
vt 0.035406 0.555870
vt 0.800322 0.363500
vt 0.800322 0.305796
vt 0.858026 0.305796
vt 0.858026 0.363500
vt 0.035406 0.498167
vt 0.035405 0.440463
vt 0.057358 0.440463
vt 0.057359 0.498167
vt 0.866994 0.305796
vt 0.924698 0.305796
vt 0.924698 0.363500
vt 0.866994 0.363500
vt 0.035405 0.382759
vt 0.057358 0.382759
vt 0.448494 0.386449
vt 0.448494 0.328745
vt 0.470447 0.328745
vt 0.470447 0.386449
vt 0.924698 0.430172
vt 0.866994 0.430172
vt 0.866994 0.372468
vt 0.924698 0.372468
vt 0.470447 0.444153
vt 0.470447 0.501858
vt 0.448494 0.501858
vt 0.448494 0.444153
vt 0.858026 0.372468
vt 0.858026 0.430172
vt 0.800322 0.430172
vt 0.800322 0.372468
vt 0.470447 0.559562
vt 0.448494 0.559562
vt 0.330322 0.501857
vt 0.330323 0.559562
vt 0.308370 0.559562
vt 0.308370 0.501858
vt 0.004484 0.856124
vt 0.004484 0.798419
vt 0.062188 0.798419
vt 0.062188 0.856124
vt 0.308369 0.444153
vt 0.308369 0.386450
vt 0.330322 0.386450
vt 0.330322 0.444153
vt 0.858026 0.172451
vt 0.858026 0.230156
vt 0.800322 0.230156
vt 0.800322 0.172451
vt 0.308368 0.328745
vt 0.330322 0.328745
vt 0.361245 0.501858
vt 0.361245 0.559562
vt 0.339292 0.559562
vt 0.339292 0.501858
vt 0.366072 0.941667
vt 0.308368 0.941667
vt 0.308368 0.883963
vt 0.366072 0.883963
vt 0.339292 0.444154
vt 0.339291 0.386450
vt 0.361244 0.386450
vt 0.361244 0.444154
vt 0.062188 0.731747
vt 0.062188 0.789451
vt 0.004484 0.789451
vt 0.004484 0.731747
vt 0.339291 0.328745
vt 0.361244 0.328745
vt 0.026437 0.555871
vt 0.026437 0.613575
vt 0.004484 0.613575
vt 0.004484 0.555871
vt 0.584480 0.931191
vt 0.526777 0.931191
vt 0.526777 0.873487
vt 0.584480 0.873487
vt 0.004484 0.498167
vt 0.004484 0.440463
vt 0.026437 0.440463
vt 0.026437 0.498167
vt 0.097249 0.877123
vt 0.154953 0.877123
vt 0.154953 0.934827
vt 0.097249 0.934827
vt 0.004484 0.382759
vt 0.026437 0.382759
vt 0.526778 0.301976
vt 0.526777 0.244272
vt 0.548730 0.244271
vt 0.548730 0.301976
vt 0.221625 0.934827
vt 0.163921 0.934827
vt 0.163921 0.877123
vt 0.221625 0.877123
vt 0.548731 0.359680
vt 0.548731 0.417384
vt 0.526778 0.417384
vt 0.526778 0.359680
vt 0.004484 0.865092
vt 0.062188 0.865092
vt 0.062188 0.922796
vt 0.004484 0.922796
vt 0.548731 0.475088
vt 0.526779 0.475088
vt 0.526777 0.062189
vt 0.526777 0.004485
vt 0.548729 0.004484
vt 0.548729 0.062189
vt 0.800322 0.163483
vt 0.800322 0.105779
vt 0.858026 0.105779
vt 0.858026 0.163483
vt 0.548729 0.119893
vt 0.548729 0.177598
vt 0.526777 0.177598
vt 0.526777 0.119894
vt 0.230593 0.877123
vt 0.288297 0.877123
vt 0.288297 0.934827
vt 0.230593 0.934827
vt 0.548729 0.235303
vt 0.526777 0.235303
vt 0.791354 0.372499
vt 0.791354 0.423792
vt 0.740061 0.423792
vt 0.740061 0.372499
vt 0.962693 0.535349
vt 0.911401 0.535349
vt 0.911401 0.484056
vt 0.962693 0.484056
vt 0.740061 0.321207
vt 0.740061 0.269915
vt 0.791354 0.269915
vt 0.791354 0.321207
vt 0.919911 0.861344
vt 0.971203 0.861344
vt 0.971203 0.912637
vt 0.919911 0.912637
vt 0.740061 0.218622
vt 0.791354 0.218622
vt 0.157509 0.647606
vt 0.157509 0.596313
vt 0.208802 0.596313
vt 0.208802 0.647606
vt 0.962693 0.602021
vt 0.911401 0.602021
vt 0.911401 0.550728
vt 0.962693 0.550728
vt 0.208802 0.698898
vt 0.208802 0.750190
vt 0.157509 0.750190
vt 0.157509 0.698898
vt 0.901617 0.004484
vt 0.952909 0.004484
vt 0.952909 0.055776
vt 0.901617 0.055776
vt 0.208802 0.801483
vt 0.157509 0.801483
vt 0.481766 0.722407
vt 0.481766 0.773700
vt 0.430474 0.773700
vt 0.430474 0.722407
vt 0.971203 0.972897
vt 0.919911 0.972897
vt 0.919911 0.921605
vt 0.971203 0.921605
vt 0.430474 0.671115
vt 0.430474 0.619823
vt 0.481766 0.619823
vt 0.481766 0.671115
vt 0.971203 0.794672
vt 0.971203 0.845964
vt 0.919911 0.845964
vt 0.919911 0.794672
vt 0.430474 0.568530
vt 0.481766 0.568530
vt 0.679801 0.055777
vt 0.679801 0.004484
vt 0.731093 0.004484
vt 0.731093 0.055776
vt 0.911401 0.668693
vt 0.911401 0.617400
vt 0.962693 0.617400
vt 0.962693 0.668693
vt 0.731093 0.107069
vt 0.731093 0.158361
vt 0.679801 0.158361
vt 0.679801 0.107069
vt 0.933666 0.105779
vt 0.984958 0.105779
vt 0.984958 0.157071
vt 0.933666 0.157071
vt 0.731093 0.209654
vt 0.679801 0.209654
vt 0.217770 0.647606
vt 0.217770 0.596313
vt 0.269062 0.596313
vt 0.269062 0.647606
vt 0.435301 0.935255
vt 0.435301 0.883963
vt 0.486593 0.883963
vt 0.486593 0.935255
vt 0.269062 0.698898
vt 0.269062 0.750190
vt 0.217770 0.750190
vt 0.217770 0.698898
vt 0.962693 0.684073
vt 0.962693 0.735365
vt 0.911401 0.735365
vt 0.911401 0.684073
vt 0.269062 0.801483
vt 0.217770 0.801483
vt 0.097249 0.647606
vt 0.097249 0.596313
vt 0.148541 0.596313
vt 0.148541 0.647606
vt 0.638329 0.991452
vt 0.587037 0.991452
vt 0.587037 0.940159
vt 0.638329 0.940159
vt 0.148541 0.698898
vt 0.148541 0.750190
vt 0.097249 0.750190
vt 0.097249 0.698898
vt 0.933666 0.172452
vt 0.984958 0.172452
vt 0.984958 0.223744
vt 0.933666 0.223744
vt 0.148541 0.801483
vt 0.097249 0.801483
vt 0.670832 0.398146
vt 0.670832 0.449438
vt 0.619540 0.449438
vt 0.619540 0.398146
vt 0.148541 0.995088
vt 0.097249 0.995088
vt 0.097249 0.943795
vt 0.148541 0.943795
vt 0.619540 0.346853
vt 0.619540 0.295561
vt 0.670832 0.295561
vt 0.670832 0.346853
vt 0.933666 0.239124
vt 0.984958 0.239124
vt 0.984958 0.290416
vt 0.933666 0.290416
vt 0.619540 0.244268
vt 0.670832 0.244268
vt 0.619540 0.055777
vt 0.619540 0.004485
vt 0.670832 0.004484
vt 0.670832 0.055777
vt 0.904531 0.979309
vt 0.853239 0.979309
vt 0.853239 0.928016
vt 0.904531 0.928016
vt 0.670833 0.107069
vt 0.670832 0.158361
vt 0.619540 0.158361
vt 0.619540 0.107069
vt 0.701942 0.900784
vt 0.701942 0.952076
vt 0.650649 0.952076
vt 0.650649 0.900784
vt 0.670833 0.209654
vt 0.619540 0.209654
vt 0.370213 0.619822
vt 0.370213 0.568530
vt 0.421506 0.568530
vt 0.421506 0.619822
vt 0.215213 0.995088
vt 0.163921 0.995088
vt 0.163921 0.943795
vt 0.215213 0.943795
vt 0.421506 0.671115
vt 0.421506 0.722407
vt 0.370213 0.722407
vt 0.370213 0.671115
vt 0.803236 0.895967
vt 0.803236 0.947259
vt 0.751944 0.947259
vt 0.751944 0.895967
vt 0.421506 0.773700
vt 0.370213 0.773700
vt 0.691683 0.535349
vt 0.691684 0.484056
vt 0.742976 0.484056
vt 0.742976 0.535348
vt 0.984958 0.350677
vt 0.933666 0.350677
vt 0.933666 0.299384
vt 0.984958 0.299384
vt 0.742975 0.586641
vt 0.742976 0.637933
vt 0.691684 0.637933
vt 0.691683 0.586641
vt 0.004484 0.931764
vt 0.055776 0.931764
vt 0.055776 0.983056
vt 0.004484 0.983056
vt 0.742976 0.689226
vt 0.691684 0.689226
vt 0.679800 0.295561
vt 0.679800 0.244269
vt 0.731093 0.244268
vt 0.731093 0.295561
vt 0.275474 0.995088
vt 0.224181 0.995088
vt 0.224181 0.943795
vt 0.275474 0.943795
vt 0.731093 0.346853
vt 0.731093 0.398146
vt 0.679801 0.398145
vt 0.679800 0.346853
vt 0.933666 0.359645
vt 0.984958 0.359645
vt 0.984958 0.410937
vt 0.933666 0.410937
vt 0.731093 0.449438
vt 0.679800 0.449438
vt 0.308368 0.619823
vt 0.308368 0.568530
vt 0.359661 0.568530
vt 0.359661 0.619823
vt 0.426333 0.995516
vt 0.375040 0.995516
vt 0.375040 0.944223
vt 0.426333 0.944223
vt 0.359661 0.671115
vt 0.359661 0.722407
vt 0.308368 0.722407
vt 0.308368 0.671115
vt 0.426333 0.883963
vt 0.426333 0.935255
vt 0.375040 0.935255
vt 0.375040 0.883963
vt 0.359660 0.773700
vt 0.308368 0.773700
vt 0.740061 0.055776
vt 0.740061 0.004484
vt 0.791354 0.004484
vt 0.791354 0.055777
vt 0.984958 0.471198
vt 0.933666 0.471198
vt 0.933666 0.419905
vt 0.984958 0.419905
vt 0.791354 0.107069
vt 0.791354 0.158361
vt 0.740061 0.158362
vt 0.740062 0.107070
vt 0.526777 0.940159
vt 0.578069 0.940159
vt 0.578069 0.991452
vt 0.526777 0.991452
vt 0.791354 0.209654
vt 0.740061 0.209654
vt 0.105779 0.281464
vt 0.105779 0.189137
vt 0.198105 0.189137
vt 0.198105 0.281464
vt 0.844271 0.886999
vt 0.751944 0.886999
vt 0.751944 0.794672
vt 0.844271 0.794672
vt 0.198105 0.004484
vt 0.198105 0.096811
vt 0.105779 0.096811
vt 0.105779 0.004484
vt 0.742976 0.799489
vt 0.742976 0.891815
vt 0.650649 0.891815
vt 0.650649 0.799489
vt 0.198105 0.373791
vt 0.105779 0.373791
vt 0.004484 0.281464
vt 0.004484 0.189137
vt 0.096811 0.189137
vt 0.096811 0.281464
vt 0.892649 0.004484
vt 0.892649 0.096811
vt 0.800322 0.096811
vt 0.800322 0.004484
vt 0.096811 0.004484
vt 0.096811 0.096811
vt 0.004484 0.096811
vt 0.004484 0.004484
vt 0.400695 0.782668
vt 0.400695 0.874995
vt 0.308368 0.874995
vt 0.308368 0.782668
vt 0.096811 0.373791
vt 0.004484 0.373791
vt 0.207074 0.281464
vt 0.207074 0.189137
vt 0.299400 0.189137
vt 0.299400 0.281464
vt 0.409663 0.782668
vt 0.501990 0.782668
vt 0.501990 0.874995
vt 0.409663 0.874995
vt 0.299400 0.004484
vt 0.299400 0.096811
vt 0.207074 0.096811
vt 0.207074 0.004484
vt 0.742976 0.698194
vt 0.742976 0.790521
vt 0.650649 0.790521
vt 0.650649 0.698194
vt 0.299400 0.373791
vt 0.207074 0.373791
vt 0.308368 0.262367
vt 0.408604 0.262367
vt 0.408604 0.319777
vt 0.308368 0.319777
vt 0.308368 0.004484
vt 0.408604 0.004484
vt 0.408604 0.104720
vt 0.308368 0.104720
vt 0.526777 0.797847
vt 0.526777 0.697611
vt 0.584187 0.697611
vt 0.584187 0.797847
vt 0.123659 0.507555
vt 0.142576 0.559808
vt 0.127254 0.569864
vt 0.099098 0.515843
vt 0.408604 0.162131
vt 0.308368 0.162131
vt 0.167176 0.392107
vt 0.097249 0.515836
vt 0.165836 0.390338
vt 0.238604 0.412426
vt 0.171604 0.414482
vt 0.253187 0.385050
vt 0.229977 0.568157
vt 0.253187 0.585901
vt 0.835761 0.639364
vt 0.835761 0.785704
vt 0.751944 0.785704
vt 0.751944 0.639364
vt 0.253002 0.587345
vt 0.126452 0.571128
vt 0.252999 0.382759
vt 0.517808 0.262367
vt 0.517808 0.319777
vt 0.417572 0.319777
vt 0.417572 0.262367
vt 0.517808 0.004484
vt 0.517808 0.104720
vt 0.417572 0.104720
vt 0.417572 0.004484
vt 0.061895 0.722779
vt 0.004484 0.722779
vt 0.004484 0.622543
vt 0.061895 0.622543
vt 0.553187 0.563846
vt 0.528626 0.555558
vt 0.556782 0.501537
vt 0.572104 0.511593
vt 0.517808 0.162131
vt 0.417572 0.162131
vt 0.596704 0.679294
vt 0.595364 0.681063
vt 0.526777 0.555565
vt 0.668132 0.658975
vt 0.682715 0.686351
vt 0.601132 0.656919
vt 0.682715 0.485500
vt 0.659505 0.503244
vt 0.835761 0.630396
vt 0.751944 0.630396
vt 0.751944 0.484056
vt 0.835761 0.484056
vt 0.555980 0.500273
vt 0.682530 0.484056
vt 0.682527 0.688643
s 0
usemtl Материал
f 1/1/1 2/2/1 4/3/1 3/4/1
f 3/5/2 4/6/2 8/7/2 7/8/2
f 7/9/3 8/10/3 6/11/3 5/12/3
f 5/13/4 6/14/4 2/15/4 1/16/4
f 3/4/5 7/9/5 5/12/5 1/1/5
f 8/10/6 4/17/6 2/18/6 6/11/6
f 9/19/1 10/20/1 12/21/1 11/22/1
f 11/23/2 12/24/2 16/25/2 15/26/2
f 15/27/3 16/28/3 14/29/3 13/30/3
f 13/31/4 14/32/4 10/33/4 9/34/4
f 11/22/5 15/27/5 13/30/5 9/19/5
f 16/28/6 12/35/6 10/36/6 14/29/6
f 17/37/1 18/38/1 20/39/1 19/40/1
f 19/41/2 20/42/2 24/43/2 23/44/2
f 23/45/3 24/46/3 22/47/3 21/48/3
f 21/49/4 22/50/4 18/51/4 17/52/4
f 19/40/5 23/45/5 21/48/5 17/37/5
f 24/46/6 20/53/6 18/54/6 22/47/6
f 25/55/1 26/56/1 28/57/1 27/58/1
f 27/59/2 28/60/2 32/61/2 31/62/2
f 31/63/3 32/64/3 30/65/3 29/66/3
f 29/67/4 30/68/4 26/69/4 25/70/4
f 27/58/5 31/63/5 29/66/5 25/55/5
f 32/64/6 28/71/6 26/72/6 30/65/6
f 33/73/1 34/74/1 36/75/1 35/76/1
f 35/77/2 36/78/2 40/79/2 39/80/2
f 39/81/3 40/82/3 38/83/3 37/84/3
f 37/85/4 38/86/4 34/87/4 33/88/4
f 35/76/5 39/81/5 37/84/5 33/73/5
f 40/82/6 36/89/6 34/90/6 38/83/6
f 41/91/1 42/92/1 44/93/1 43/94/1
f 43/95/2 44/96/2 48/97/2 47/98/2
f 47/99/3 48/100/3 46/101/3 45/102/3
f 45/103/4 46/104/4 42/105/4 41/106/4
f 43/94/5 47/99/5 45/102/5 41/91/5
f 48/100/6 44/107/6 42/108/6 46/101/6
f 49/109/1 50/110/1 52/111/1 51/112/1
f 51/113/2 52/114/2 56/115/2 55/116/2
f 55/117/3 56/118/3 54/119/3 53/120/3
f 53/121/4 54/122/4 50/123/4 49/124/4
f 51/112/5 55/117/5 53/120/5 49/109/5
f 56/118/6 52/125/6 50/126/6 54/119/6
f 57/127/1 58/128/1 60/129/1 59/130/1
f 59/131/2 60/132/2 64/133/2 63/134/2
f 63/135/3 64/136/3 62/137/3 61/138/3
f 61/139/4 62/140/4 58/141/4 57/142/4
f 59/130/5 63/135/5 61/138/5 57/127/5
f 64/136/6 60/143/6 58/144/6 62/137/6
f 65/145/1 66/146/1 68/147/1 67/148/1
f 67/149/2 68/150/2 72/151/2 71/152/2
f 71/153/3 72/154/3 70/155/3 69/156/3
f 69/157/4 70/158/4 66/159/4 65/160/4
f 67/148/5 71/153/5 69/156/5 65/145/5
f 72/154/6 68/161/6 66/162/6 70/155/6
f 73/163/1 74/164/1 76/165/1 75/166/1
f 75/167/2 76/168/2 80/169/2 79/170/2
f 79/171/3 80/172/3 78/173/3 77/174/3
f 77/175/4 78/176/4 74/177/4 73/178/4
f 75/166/5 79/171/5 77/174/5 73/163/5
f 80/172/6 76/179/6 74/180/6 78/173/6
f 81/181/1 82/182/1 84/183/1 83/184/1
f 83/185/2 84/186/2 88/187/2 87/188/2
f 87/189/3 88/190/3 86/191/3 85/192/3
f 85/193/4 86/194/4 82/195/4 81/196/4
f 83/184/5 87/189/5 85/192/5 81/181/5
f 88/190/6 84/197/6 82/198/6 86/191/6
f 89/199/1 90/200/1 92/201/1 91/202/1
f 91/203/2 92/204/2 96/205/2 95/206/2
f 95/207/3 96/208/3 94/209/3 93/210/3
f 93/211/4 94/212/4 90/213/4 89/214/4
f 91/202/5 95/207/5 93/210/5 89/199/5
f 96/208/6 92/215/6 90/216/6 94/209/6
f 97/217/1 98/218/1 100/219/1 99/220/1
f 99/221/2 100/222/2 104/223/2 103/224/2
f 103/225/3 104/226/3 102/227/3 101/228/3
f 101/229/4 102/230/4 98/231/4 97/232/4
f 99/220/5 103/225/5 101/228/5 97/217/5
f 104/226/6 100/233/6 98/234/6 102/227/6
f 105/235/1 106/236/1 108/237/1 107/238/1
f 107/239/2 108/240/2 112/241/2 111/242/2
f 111/243/3 112/244/3 110/245/3 109/246/3
f 109/247/4 110/248/4 106/249/4 105/250/4
f 107/238/5 111/243/5 109/246/5 105/235/5
f 112/244/6 108/251/6 106/252/6 110/245/6
f 113/253/1 114/254/1 116/255/1 115/256/1
f 115/257/2 116/258/2 120/259/2 119/260/2
f 119/261/3 120/262/3 118/263/3 117/264/3
f 117/265/4 118/266/4 114/267/4 113/268/4
f 115/256/5 119/261/5 117/264/5 113/253/5
f 120/262/6 116/269/6 114/270/6 118/263/6
f 121/271/1 122/272/1 124/273/1 123/274/1
f 123/275/2 124/276/2 128/277/2 127/278/2
f 127/279/3 128/280/3 126/281/3 125/282/3
f 125/283/4 126/284/4 122/285/4 121/286/4
f 123/274/5 127/279/5 125/282/5 121/271/5
f 128/280/6 124/287/6 122/288/6 126/281/6
f 129/289/1 130/290/1 132/291/1 131/292/1
f 131/293/2 132/294/2 136/295/2 135/296/2
f 135/297/3 136/298/3 134/299/3 133/300/3
f 133/301/4 134/302/4 130/303/4 129/304/4
f 131/292/5 135/297/5 133/300/5 129/289/5
f 136/298/6 132/305/6 130/306/6 134/299/6
f 137/307/1 138/308/1 140/309/1 139/310/1
f 139/311/2 140/312/2 144/313/2 143/314/2
f 143/315/3 144/316/3 142/317/3 141/318/3
f 141/319/4 142/320/4 138/321/4 137/322/4
f 139/310/5 143/315/5 141/318/5 137/307/5
f 144/316/6 140/323/6 138/324/6 142/317/6
f 145/325/1 146/326/1 148/327/1 147/328/1
f 147/329/2 148/330/2 152/331/2 151/332/2
f 151/333/3 152/334/3 150/335/3 149/336/3
f 149/337/4 150/338/4 146/339/4 145/340/4
f 147/328/5 151/333/5 149/336/5 145/325/5
f 152/334/6 148/341/6 146/342/6 150/335/6
f 153/343/1 154/344/1 156/345/1 155/346/1
f 155/347/2 156/348/2 160/349/2 159/350/2
f 159/351/3 160/352/3 158/353/3 157/354/3
f 157/355/4 158/356/4 154/357/4 153/358/4
f 155/346/5 159/351/5 157/354/5 153/343/5
f 160/352/6 156/359/6 154/360/6 158/353/6
f 161/361/1 162/362/1 164/363/1 163/364/1
f 163/365/2 164/366/2 168/367/2 167/368/2
f 167/369/3 168/370/3 166/371/3 165/372/3
f 165/373/4 166/374/4 162/375/4 161/376/4
f 163/364/5 167/369/5 165/372/5 161/361/5
f 168/370/6 164/377/6 162/378/6 166/371/6
f 169/379/1 170/380/1 172/381/1 171/382/1
f 171/383/2 172/384/2 176/385/2 175/386/2
f 175/387/3 176/388/3 174/389/3 173/390/3
f 173/391/4 174/392/4 170/393/4 169/394/4
f 171/382/5 175/387/5 173/390/5 169/379/5
f 176/388/6 172/395/6 170/396/6 174/389/6
f 177/397/1 178/398/1 180/399/1 179/400/1
f 179/401/2 180/402/2 184/403/2 183/404/2
f 183/405/3 184/406/3 182/407/3 181/408/3
f 181/409/4 182/410/4 178/411/4 177/412/4
f 179/400/5 183/405/5 181/408/5 177/397/5
f 184/406/6 180/413/6 178/414/6 182/407/6
f 185/415/1 186/416/1 188/417/1 187/418/1
f 187/419/2 188/420/2 192/421/2 191/422/2
f 191/423/3 192/424/3 190/425/3 189/426/3
f 189/427/4 190/428/4 186/429/4 185/430/4
f 187/418/5 191/423/5 189/426/5 185/415/5
f 192/424/6 188/431/6 186/432/6 190/425/6
f 193/433/1 194/434/1 196/435/1 195/436/1
f 195/437/2 196/438/2 200/439/2 199/440/2
f 199/441/3 200/442/3 198/443/3 197/444/3
f 197/445/4 198/446/4 194/447/4 193/448/4
f 195/436/5 199/441/5 197/444/5 193/433/5
f 200/442/6 196/449/6 194/450/6 198/443/6
f 201/451/1 202/452/1 204/453/1 203/454/1
f 203/455/2 204/456/2 208/457/2 207/458/2
f 207/459/3 208/460/3 206/461/3 205/462/3
f 205/463/4 206/464/4 202/465/4 201/466/4
f 203/454/5 207/459/5 205/462/5 201/451/5
f 208/460/6 204/467/6 202/468/6 206/461/6
f 209/469/1 210/470/1 212/471/1 211/472/1
f 211/473/2 212/474/2 216/475/2 215/476/2
f 215/477/3 216/478/3 214/479/3 213/480/3
f 213/481/4 214/482/4 210/483/4 209/484/4
f 211/472/5 215/477/5 213/480/5 209/469/5
f 216/478/6 212/485/6 210/486/6 214/479/6
f 217/487/1 218/488/1 220/489/1 219/490/1
f 219/491/5 220/492/5 224/493/5 223/494/5
f 223/495/3 224/496/3 222/497/3 221/498/3
f 221/499/6 222/500/6 218/501/6 217/502/6
f 219/490/4 223/503/4 221/504/4 217/487/4
f 224/496/2 220/489/2 218/488/2 222/497/2
f 225/505/1 226/506/1 228/507/1 227/508/1
f 227/509/5 228/510/5 232/511/5 231/512/5
f 231/513/3 232/514/3 230/515/3 229/516/3
f 229/517/6 230/518/6 226/519/6 225/520/6
f 227/508/4 231/521/4 229/522/4 225/505/4
f 232/514/2 228/507/2 226/506/2 230/515/2
f 233/523/1 234/524/1 236/525/1 235/526/1
f 235/527/5 236/528/5 240/529/5 239/530/5
f 239/531/3 240/532/3 238/533/3 237/534/3
f 237/535/6 238/536/6 234/537/6 233/538/6
f 235/526/4 239/539/4 237/540/4 233/523/4
f 240/532/2 236/525/2 234/524/2 238/533/2
f 247/541/3 248/542/3 244/543/3 243/544/3
f 243/545/6 244/546/6 242/547/6 241/548/6
f 245/549/4 247/550/4 243/551/4 241/552/4
f 246/553/7 242/554/7 251/555/7 252/556/7
f 241/548/1 242/547/1 246/557/1 245/558/1
f 246/557/5 248/542/5 247/541/5 245/558/5
f 249/559/5 252/556/5 256/560/5 253/561/5
f 244/562/8 248/563/8 249/559/8 250/564/8
f 242/554/9 244/565/9 250/566/9 251/555/9
f 248/563/10 246/553/10 252/556/10 249/559/10
f 253/567/2 256/568/2 255/569/2 254/570/2
f 251/555/6 250/566/6 254/571/6 255/572/6
f 252/556/1 251/555/1 255/572/1 256/560/1
f 250/564/3 249/559/3 253/561/3 254/573/3
f 263/574/3 259/575/3 260/576/3 264/577/3
f 259/578/5 257/579/5 258/580/5 260/581/5
f 261/582/4 257/583/4 259/584/4 263/585/4
f 262/586/7 268/587/7 267/588/7 258/589/7
f 257/579/1 261/590/1 262/591/1 258/580/1
f 262/591/6 261/590/6 263/574/6 264/577/6
f 265/592/6 269/593/6 272/594/6 268/587/6
f 260/595/11 266/596/11 265/592/11 264/597/11
f 258/589/10 267/588/10 266/598/10 260/599/10
f 264/597/9 265/592/9 268/587/9 262/586/9
f 269/600/2 270/601/2 271/602/2 272/603/2
f 267/588/5 271/604/5 270/605/5 266/598/5
f 268/587/1 272/594/1 271/604/1 267/588/1
f 266/596/3 270/606/3 269/593/3 265/592/3
