# Blender 4.2.2 LTS
# www.blender.org
mtllib fire extinguisher.mtl
o fire_extinguisher
v -0.256357 4.368517 -0.208355
v -0.256357 4.548694 -0.178110
v 0.155902 4.548694 -0.178110
v 0.155902 4.368517 -0.208355
v 0.155902 4.474539 0.291037
v 0.155902 4.668666 0.271507
v 0.155902 4.878868 1.059278
v 0.155902 4.652620 0.955619
v 0.155902 4.804692 1.187658
v 0.155902 4.693621 1.030249
v -0.256357 4.474539 0.291037
v -0.256357 4.668666 0.271507
v 0.116046 4.652620 0.955619
v 0.116047 4.693621 1.030249
v 0.095228 4.750040 0.984359
v 0.095228 4.714172 0.919073
v -0.256357 4.878868 1.059278
v -0.256357 4.214652 0.303336
v 0.155902 4.214652 0.303336
v -0.256357 4.652620 0.955619
v 0.155902 4.315263 -0.214633
v -0.256357 4.315263 -0.214633
v 0.116046 4.491131 0.352960
v 0.095228 4.572903 0.391871
v -0.256357 4.693621 1.030249
v -0.256357 4.804692 1.187658
v 0.116046 4.787400 1.163152
v 0.095228 4.832078 1.100621
v -0.216502 4.491131 0.352960
v -0.216502 4.652620 0.955619
v -0.216502 4.787400 1.163152
v -0.216502 4.693621 1.030249
v -0.195683 4.714172 0.919073
v -0.195683 4.572903 0.391871
v -0.195683 4.832078 1.100621
v -0.195683 4.750040 0.984359
v -0.235626 4.414587 -0.116682
v -0.235626 4.562170 -0.012367
v 0.135170 4.562170 -0.012367
v 0.135170 4.414587 -0.116682
v 0.135170 3.945934 1.308829
v 0.135170 3.727364 1.362578
v -0.235626 3.945934 1.308829
v -0.235626 3.727364 1.362578
v 0.082328 3.752616 1.308223
v -0.182783 3.752616 1.308223
v -0.182783 3.901621 1.246926
v 0.082328 3.901621 1.246926
v 0.082328 4.389336 -0.062326
v -0.182783 4.389336 -0.062326
v 0.082328 4.507352 -0.007499
v -0.182783 4.507352 -0.007499
v 0.081036 4.259337 -0.502381
v 0.081036 4.259337 -0.154565
v 0.044697 4.171608 -0.154565
v 0.044697 4.171608 -0.502381
v -0.043032 4.135270 -0.154565
v -0.043032 4.135270 -0.502381
v -0.130761 4.171608 -0.154565
v -0.130761 4.171608 -0.502381
v -0.167099 4.259337 -0.154565
v -0.167099 4.259337 -0.502381
v -0.130761 4.347066 -0.154565
v -0.130761 4.347066 -0.502381
v -0.043032 4.383404 -0.154565
v -0.043032 4.383404 -0.502381
v 0.044697 4.347066 -0.154565
v 0.044697 4.347066 -0.502381
v 0.024591 4.191714 -0.502381
v -0.043032 4.163704 -0.502381
v -0.043032 4.134790 -0.644456
v 0.024591 4.161823 -0.651790
v 0.052601 4.259337 -0.502381
v -0.110654 4.191714 -0.502381
v -0.138665 4.259337 -0.502381
v -0.110654 4.326960 -0.502381
v -0.043032 4.354970 -0.502381
v 0.024591 4.326960 -0.502381
v 0.024591 4.292351 -0.687198
v 0.052601 4.227087 -0.669494
v 0.052601 4.158324 -0.789984
v 0.024591 4.217798 -0.822165
v -0.043032 4.319385 -0.694531
v -0.110654 4.292351 -0.687198
v -0.138665 4.227087 -0.669494
v -0.110654 4.161823 -0.651790
v -0.043032 4.074215 -0.744471
v -0.110654 4.098850 -0.757802
v -0.110654 4.011256 -0.852600
v -0.043032 3.990084 -0.834261
v -0.043032 4.242433 -0.835496
v -0.110654 4.217798 -0.822165
v -0.138665 4.158324 -0.789984
v 0.024591 4.098850 -0.757802
v -0.043032 4.134658 -0.959486
v 0.024591 4.113486 -0.941147
v 0.024591 3.927714 -1.086997
v -0.043032 3.941568 -1.111341
v 0.024591 4.011257 -0.852600
v 0.052601 4.062371 -0.896874
v -0.110654 4.113485 -0.941147
v -0.138665 4.062371 -0.896874
v -0.110654 3.860821 -0.969452
v -0.138665 3.894268 -1.028225
v -0.138664 3.671631 -1.135866
v -0.110654 3.642535 -1.074823
v -0.110654 3.927714 -1.086997
v -0.043032 3.846968 -0.945108
v 0.024591 3.860821 -0.969452
v 0.052601 3.894268 -1.028225
v 0.024591 3.700727 -1.196909
v 0.052601 3.671631 -1.135866
v 0.052601 3.412723 -1.205036
v 0.024591 3.421345 -1.272106
v -0.043032 3.630483 -1.049538
v 0.024591 3.642535 -1.074823
v -0.043032 3.712779 -1.222194
v -0.110654 3.700727 -1.196909
v -0.138664 3.412723 -1.205036
v -0.110654 3.421345 -1.272106
v -0.110654 3.162509 -1.269002
v -0.138664 3.166540 -1.201500
v -0.043032 3.424916 -1.299888
v -0.110654 3.404101 -1.137965
v -0.043032 3.400530 -1.110183
v 0.024591 3.404101 -1.137965
v -0.043031 3.160840 -1.296963
v 0.024591 3.162509 -1.269002
v 0.024591 2.922546 -1.230925
v -0.043031 2.918277 -1.258609
v -0.110654 3.170570 -1.133997
v -0.043031 3.172240 -1.106037
v 0.024591 3.170570 -1.133997
v 0.052601 3.166540 -1.201500
v -0.110654 2.922546 -1.230925
v -0.043031 2.654569 -1.188409
v -0.110654 2.660705 -1.161079
v -0.138664 2.932850 -1.164092
v -0.110654 2.943154 -1.097259
v -0.043031 2.947423 -1.069576
v 0.024591 2.943154 -1.097259
v 0.052602 2.932850 -1.164092
v 0.052602 2.675519 -1.095099
v 0.024591 2.690332 -1.029118
v 0.024591 2.416148 -0.933844
v 0.052602 2.401334 -0.999824
v -0.138664 2.675519 -1.095099
v -0.110654 2.690332 -1.029118
v -0.043031 2.696468 -1.001788
v 0.024591 2.660705 -1.161079
v -0.043031 2.380384 -1.093134
v 0.024591 2.386521 -1.065804
v 0.024592 2.116721 -0.981775
v -0.043031 2.110585 -1.009105
v -0.110654 2.386521 -1.065804
v -0.138664 2.401334 -0.999824
v -0.110654 2.416148 -0.933844
v -0.043031 2.422284 -0.906514
v 0.024592 2.146348 -0.849815
v -0.043031 2.152484 -0.822485
v -0.043031 1.903433 -0.767103
v 0.024592 1.900180 -0.794923
v -0.110654 2.116721 -0.981775
v -0.138664 2.131534 -0.915795
v -0.110654 2.146348 -0.849815
v 0.052602 2.131534 -0.915795
v 0.024592 1.884468 -0.929253
v 0.052602 1.892324 -0.862088
v 0.052602 1.798097 -0.846670
v 0.024592 1.790241 -0.913834
v -0.043031 1.881214 -0.957074
v -0.110654 1.884468 -0.929253
v -0.138664 1.892324 -0.862088
v -0.110654 1.900180 -0.794923
v -0.043031 1.792862 -0.739773
v -0.117676 1.789270 -0.770483
v -0.117403 1.572509 -0.730747
v -0.043031 1.576207 -0.700164
v -0.043031 1.786988 -0.941655
v -0.110654 1.790241 -0.913834
v -0.138664 1.798097 -0.846670
v -0.110654 1.805953 -0.779505
v -0.043031 1.809207 -0.751684
v 0.024592 1.805953 -0.779505
v -0.043031 1.550954 -0.908998
v 0.031341 1.554653 -0.878415
v 0.045532 1.535961 -0.890450
v -0.043031 1.531557 -0.926868
v 0.062534 1.780598 -0.844623
v 0.031615 1.789270 -0.770483
v 0.031341 1.572509 -0.730747
v 0.062147 1.563581 -0.804581
v 0.031615 1.771927 -0.918763
v -0.117676 1.771927 -0.918763
v -0.043031 1.768335 -0.949473
v -0.117403 1.554653 -0.878415
v -0.148596 1.780598 -0.844623
v -0.148209 1.563581 -0.804581
v 0.082217 1.546593 -0.802527
v 0.062147 0.965820 -0.735922
v 0.031341 0.956218 -0.809671
v -0.131594 1.535961 -0.890450
v -0.168278 1.546593 -0.802527
v -0.131594 1.557225 -0.714604
v -0.043031 1.561629 -0.678185
v 0.045532 1.557225 -0.714604
v 0.031341 0.975423 -0.662173
v -0.043031 0.979400 -0.631625
v -0.117403 0.975423 -0.662173
v -0.148209 0.965820 -0.735922
v -0.117403 0.956218 -0.809671
v -0.043031 0.952240 -0.840219
v 0.128398 3.988490 0.033244
v 0.215395 3.988582 0.027143
v 0.226522 4.041793 0.186608
v 0.139524 4.041701 0.192708
v 0.231625 4.192046 0.261638
v 0.144627 4.191954 0.267739
v 0.227715 4.351324 0.208284
v 0.140718 4.351232 0.214384
v 0.217083 4.426324 0.057798
v 0.130086 4.426232 0.063898
v 0.205957 4.373113 -0.101667
v 0.118959 4.373021 -0.095566
v 0.200853 4.222860 -0.176698
v 0.113856 4.222768 -0.170597
v 0.204763 4.063582 -0.123343
v 0.117765 4.063490 -0.117242
v 0.612214 0.068292 0.045521
v 0.612214 3.448844 0.045521
v 0.420297 3.448844 0.508850
v 0.420297 0.068292 0.508850
v -0.043032 3.448844 0.700767
v -0.043032 0.068292 0.700767
v -0.506361 3.448844 0.508850
v -0.506360 0.068292 0.508850
v -0.698278 3.448844 0.045521
v -0.698278 0.068292 0.045521
v -0.506361 3.448844 -0.417808
v -0.506361 0.068292 -0.417808
v -0.043032 3.448844 -0.609725
v -0.043032 0.068292 -0.609725
v -0.043032 3.747369 0.548135
v 0.312371 3.747369 0.400923
v 0.104074 3.843918 0.192627
v -0.043032 3.843918 0.253560
v 0.420297 3.448844 -0.417808
v 0.420297 0.068292 -0.417808
v -0.043032 3.843918 -0.162519
v -0.190138 3.843918 -0.101585
v -0.190138 4.373754 -0.101585
v -0.043032 4.373754 -0.162519
v -0.398434 3.747369 -0.309881
v -0.545646 3.747369 0.045521
v -0.251071 3.843918 0.045521
v 0.459583 3.747369 0.045521
v 0.312371 3.747369 -0.309881
v 0.104074 3.843918 -0.101585
v 0.165008 3.843918 0.045521
v -0.398434 3.747369 0.400923
v -0.190138 3.843918 0.192627
v -0.043032 3.747369 -0.457094
v -0.043032 3.668192 -0.563613
v 0.387691 3.668192 -0.385202
v -0.473755 3.668192 0.476244
v -0.652166 3.668192 0.045521
v -0.473755 3.668192 -0.385202
v -0.043032 3.668192 0.654655
v 0.566103 3.668192 0.045521
v 0.387691 3.668192 0.476244
v 0.104074 4.373754 0.192627
v 0.165008 4.373754 0.045521
v 0.104074 4.373754 -0.101585
v -0.251071 4.373754 0.045521
v -0.190138 4.373754 0.192627
v -0.043032 4.373754 0.253560
v -0.294860 1.619581 -0.876004
v -0.294860 1.835092 -0.876004
v -0.176100 1.835092 -0.876004
v -0.176100 1.619581 -0.876004
v -0.176100 1.835092 -0.501800
v -0.176100 1.619581 -0.501800
v -0.294860 1.835092 -0.501800
v -0.294860 1.619581 -0.501800
v -0.011455 1.599305 -0.658368
v -0.011020 1.842607 -0.681944
v -0.130184 1.839775 -0.700554
v -0.130184 1.595031 -0.700554
v -0.193698 1.839775 -0.807978
v -0.193698 1.595031 -0.807978
v -0.164577 1.839775 -0.929329
v -0.164577 1.595031 -0.929329
v -0.059881 1.839775 -0.993520
v -0.059881 1.595031 -0.993520
v 0.059259 1.836586 -0.973585
v 0.058862 1.593040 -0.952087
v -0.096044 1.839775 -0.747890
v -0.019801 1.835466 -0.739964
v -0.020148 1.592235 -0.715809
v -0.096386 1.595031 -0.747417
v -0.136642 1.839775 -0.816556
v -0.137213 1.595031 -0.816470
v 0.025123 1.841792 -0.926479
v -0.051106 1.839775 -0.935155
v -0.051194 1.595031 -0.935738
v 0.025068 1.598195 -0.905451
v -0.118028 1.839775 -0.894123
v -0.118494 1.595031 -0.894475
v 0.694763 1.592566 0.045521
v 0.694763 1.842642 0.045521
v 0.478668 1.842642 0.567220
v 0.478668 1.592566 0.567220
v -0.043031 1.842642 0.783315
v -0.043031 1.592566 0.783315
v -0.564730 1.842642 0.567220
v -0.564730 1.592566 0.567220
v -0.780825 1.842642 0.045521
v -0.780825 1.592566 0.045521
v -0.564731 1.842642 -0.476178
v -0.564730 1.592566 -0.476178
v -0.043031 1.842642 -0.692273
v -0.043031 1.592566 -0.692273
v 0.478668 1.842642 -0.476178
v 0.478668 1.592566 -0.476178
vn -0.0000 0.1414 -0.9900
vn -0.0000 0.6729 -0.7397
vn -0.0000 0.6730 -0.7397
vn 1.0000 -0.0000 -0.0000
vn -1.0000 -0.0000 -0.0000
vn -0.9592 -0.2638 0.1021
vn -0.9594 -0.2605 0.1078
vn -0.9609 -0.2344 0.1478
vn -0.9608 -0.2359 0.1459
vn -0.0000 0.9662 -0.2578
vn -0.0000 0.0473 0.9989
vn -0.0000 -0.5898 0.8075
vn -0.0000 -0.5898 -0.8076
vn -0.0000 -0.9817 -0.1907
vn -0.9573 -0.2793 0.0749
vn -0.9612 -0.2253 0.1590
vn -0.0000 0.0452 0.9990
vn -0.0000 0.8659 0.5003
vn -0.0000 0.0453 0.9990
vn -0.0000 -0.9035 0.4287
vn -0.0000 -0.9279 0.3729
vn -0.0000 -0.8171 0.5765
vn -0.0000 -0.8481 0.5299
vn -0.0000 -0.7484 0.6633
vn -0.0000 -0.8137 -0.5813
vn 0.9592 -0.2638 0.1021
vn 0.9594 -0.2605 0.1078
vn 0.9573 -0.2793 0.0749
vn 0.9608 -0.2359 0.1459
vn 0.9609 -0.2344 0.1478
vn 0.9612 -0.2254 0.1590
vn -0.0000 -0.2574 -0.9663
vn -0.0000 0.5772 -0.8166
vn -0.0000 0.2388 0.9711
vn -0.0000 0.6348 0.7727
vn -0.0000 -0.6857 -0.7279
vn -0.0000 -0.8170 -0.5766
vn -0.0000 0.9063 0.4227
vn -0.0000 -0.9069 -0.4213
vn -0.0000 -0.9005 -0.4348
vn -0.0000 -0.4213 0.9069
vn 0.5490 -0.5490 -0.6303
vn 0.7764 -0.0000 -0.6303
vn 0.7764 -0.0000 0.6303
vn 0.5490 -0.5490 0.6303
vn -0.0000 -0.7764 -0.6303
vn -0.0000 -0.7764 0.6302
vn -0.5490 -0.5490 -0.6303
vn -0.5490 -0.5490 0.6303
vn -0.7764 -0.0000 -0.6303
vn -0.7764 -0.0000 0.6303
vn -0.5490 0.5490 -0.6303
vn -0.5490 0.5490 0.6303
vn -0.0000 0.7764 -0.6303
vn -0.0000 0.7764 0.6303
vn 0.5490 0.5490 0.6303
vn 0.5490 0.5490 -0.6303
vn 0.7271 -0.6399 0.2488
vn 0.4717 -0.4395 -0.7644
vn 0.0011 -0.6686 -0.7437
vn 0.0051 -0.9303 0.3667
vn 0.5910 0.0263 -0.8062
vn -0.4724 -0.4401 -0.7637
vn -0.5907 0.0271 -0.8064
vn -0.3726 0.3944 -0.8400
vn -0.0010 0.5244 -0.8515
vn 0.3720 0.3959 -0.8396
vn 0.6926 0.5922 -0.4118
vn 0.6899 0.6812 -0.2448
vn 0.9992 0.0357 -0.0184
vn 0.9996 0.0226 -0.0171
vn -0.0009 0.9438 -0.3305
vn -0.9992 0.0386 -0.0133
vn -0.6900 0.6808 -0.2457
vn -0.7250 -0.6425 0.2481
vn 0.0011 -0.6706 0.7418
vn -0.0020 -0.7959 0.6054
vn -0.7158 -0.5618 0.4148
vn -0.7134 -0.4744 0.5157
vn -0.6927 0.5924 -0.4113
vn -0.0050 0.8216 -0.5701
vn -0.9997 0.0180 -0.0155
vn 0.7170 -0.5561 0.4203
vn -0.0001 0.5296 -0.8483
vn 0.0016 0.6903 -0.7235
vn 0.6940 0.4929 -0.5248
vn 0.6936 0.3816 -0.6110
vn 0.9998 0.0149 -0.0141
vn 0.7167 -0.4706 0.5146
vn -0.6946 0.4968 -0.5203
vn -0.9998 0.0126 -0.0156
vn -0.7179 -0.2405 0.6533
vn -0.7203 -0.3659 0.5893
vn -0.9997 0.0143 -0.0216
vn -0.9997 0.0060 -0.0218
vn -0.6945 0.3814 -0.6101
vn 0.0002 -0.5269 0.8499
vn 0.9997 0.0153 -0.0208
vn 0.7204 -0.3655 0.5895
vn 0.6909 0.0918 -0.7171
vn 0.6954 0.2510 -0.6734
vn 0.9997 0.0058 -0.0226
vn 0.9994 0.0045 -0.0343
vn 0.7179 -0.2408 0.6532
vn 0.0008 -0.3445 0.9388
vn -0.0001 0.3522 -0.9359
vn -0.6954 0.2508 -0.6735
vn -0.9998 -0.0008 -0.0177
vn -0.9994 0.0046 -0.0349
vn -0.6911 0.0892 -0.7172
vn -0.6990 -0.0604 -0.7126
vn -0.0014 0.1257 -0.9921
vn -0.7242 -0.0819 0.6847
vn 0.7242 -0.0819 0.6847
vn 0.0016 -0.1197 0.9928
vn -0.0001 -0.2060 -0.9786
vn 0.0008 -0.0837 -0.9965
vn 0.6981 -0.0617 -0.7134
vn 0.6999 -0.1482 -0.6987
vn 0.0003 0.0905 0.9959
vn -0.7150 0.0617 0.6963
vn 0.9999 -0.0006 -0.0173
vn 0.7165 0.0619 0.6949
vn -0.7019 -0.2085 -0.6811
vn -0.7001 -0.1482 -0.6985
vn -0.0003 -0.2924 -0.9563
vn -0.9999 -0.0024 -0.0125
vn 0.0002 0.2119 0.9773
vn -0.7125 0.1475 0.6860
vn 0.9999 -0.0023 -0.0122
vn 0.7135 0.1473 0.6850
vn 1.0000 0.0080 0.0015
vn 1.0000 -0.0031 -0.0079
vn 0.7107 0.2069 0.6724
vn 0.7063 0.2220 0.6722
vn -0.7106 0.2075 0.6723
vn -1.0000 -0.0031 -0.0081
vn 0.0005 0.2952 0.9554
vn 0.7016 -0.2090 -0.6812
vn 0.0001 -0.2594 -0.9658
vn -0.0000 -0.3132 -0.9497
vn 0.7073 -0.2243 -0.6704
vn 0.7114 -0.1823 -0.6787
vn -0.7077 -0.2244 -0.6700
vn -0.7040 0.2255 0.6735
vn -1.0000 0.0011 -0.0033
vn -0.0000 0.3125 0.9499
vn 0.7030 0.1351 0.6982
vn 0.7017 0.1838 0.6884
vn -0.0000 0.2569 0.9664
vn 0.0003 0.1890 0.9820
vn -1.0000 0.0031 0.0095
vn -0.7119 -0.1819 -0.6783
vn -0.7016 0.1835 0.6885
vn 1.0000 0.0032 0.0093
vn 0.6865 0.1742 -0.7060
vn 0.7104 -0.1344 -0.6909
vn 1.0000 0.0014 0.0067
vn 0.9626 0.2695 -0.0261
vn 0.0001 -0.1916 -0.9815
vn -1.0000 0.0022 0.0070
vn -0.7104 -0.1347 -0.6908
vn -0.7028 0.1350 0.6985
vn -0.0000 0.5907 0.8069
vn -0.0000 0.3810 0.9246
vn -0.6870 0.3384 0.6431
vn -0.6159 0.5534 0.5608
vn -0.6865 0.1742 -0.7060
vn -0.0000 0.1342 -0.9910
vn -0.6749 0.3631 0.6424
vn -0.9626 0.2695 -0.0261
vn 0.6749 0.3631 0.6424
vn -0.0000 0.4013 0.9159
vn -0.0000 0.2575 -0.9663
vn -0.0000 0.3243 -0.9459
vn 0.6375 0.3650 -0.6785
vn 0.6571 0.2894 -0.6960
vn 0.8861 0.4609 -0.0482
vn 0.9711 0.2359 -0.0364
vn 0.6870 0.3384 0.6431
vn 0.6159 0.5534 0.5607
vn 0.6861 0.1341 -0.7151
vn -0.6374 0.3650 -0.6785
vn -0.6861 0.1341 -0.7151
vn -0.0000 0.0922 -0.9957
vn -0.9711 0.2359 -0.0364
vn -0.8861 0.4609 -0.0483
vn 0.5424 -0.7041 -0.4583
vn 0.9295 0.3663 -0.0434
vn 0.7658 -0.6381 0.0802
vn -0.9295 0.3662 -0.0434
vn -0.6571 0.2893 -0.6960
vn -0.0000 0.4751 0.8799
vn -0.6574 0.4432 0.6095
vn 0.6574 0.4432 0.6095
vn 0.5405 -0.5723 0.6167
vn -0.0000 -0.5451 0.8383
vn -0.5405 -0.5723 0.6167
vn -0.7658 -0.6381 0.0802
vn -0.5424 -0.7041 -0.4583
vn -0.0000 -0.7315 -0.6818
vn -0.5925 -0.5874 0.5512
vn -0.6319 -0.7750 -0.0101
vn 0.6260 -0.7736 -0.0983
vn 0.6649 -0.5861 0.4631
vn -0.5743 -0.0550 0.8168
vn 0.6827 -0.0537 0.7287
vn -0.5883 0.5094 0.6281
vn 0.6691 0.5107 0.5399
vn -0.6260 0.7736 0.0983
vn 0.6319 0.7750 0.0101
vn -0.6649 0.5861 -0.4631
vn 0.5925 0.5874 -0.5512
vn -0.6827 0.0537 -0.7287
vn 0.5742 0.0550 -0.8168
vn 0.5883 -0.5094 -0.6280
vn -0.6691 -0.5107 -0.5399
vn 0.9239 -0.0000 0.3827
vn 0.9198 0.0933 0.3810
vn 0.3827 -0.0000 0.9239
vn 0.3810 0.0933 0.9198
vn -0.3827 -0.0000 0.9239
vn -0.3810 0.0933 0.9198
vn -0.9239 -0.0000 0.3827
vn -0.9198 0.0933 0.3810
vn -0.9239 -0.0000 -0.3827
vn -0.9198 0.0933 -0.3810
vn -0.3827 -0.0000 -0.9239
vn -0.3810 0.0933 -0.9198
vn -0.0000 0.9503 0.3115
vn -0.0000 0.8716 0.4903
vn 0.3467 0.8716 0.3467
vn 0.2202 0.9503 0.2202
vn 0.3827 -0.0000 -0.9239
vn 0.3810 0.0933 -0.9198
vn 0.9239 -0.0000 -0.3827
vn 0.9198 0.0933 -0.3810
vn -0.0000 -1.0000 -0.0000
vn -0.2202 0.9503 -0.2202
vn -0.3467 0.8716 -0.3467
vn -0.4903 0.8716 -0.0000
vn -0.3115 0.9503 -0.0000
vn 0.3115 0.9503 -0.0000
vn 0.4903 0.8716 -0.0000
vn 0.3467 0.8716 -0.3467
vn 0.2202 0.9503 -0.2202
vn -0.2202 0.9503 0.2202
vn -0.3467 0.8716 0.3467
vn -0.0000 0.9503 -0.3115
vn -0.0000 0.8716 -0.4903
vn 0.3757 0.1907 -0.9069
vn -0.9069 0.1907 0.3757
vn -0.3757 0.1907 -0.9069
vn -0.3757 0.1907 0.9069
vn 0.9069 0.1907 0.3757
vn 0.9069 0.1907 -0.3757
vn -0.9069 0.1907 -0.3757
vn 0.3757 0.1907 0.9069
vn 0.4218 0.8026 -0.4218
vn -0.0000 0.8026 -0.5966
vn -0.5966 0.8026 -0.0000
vn -0.4218 0.8026 0.4218
vn -0.4218 0.8026 -0.4218
vn -0.0000 0.8026 0.5966
vn 0.4218 0.8026 0.4218
vn 0.5966 0.8026 -0.0000
vn -0.0000 1.0000 -0.0000
vn -0.0000 -0.0000 -1.0000
vn -0.0000 -0.0000 1.0000
vn -0.6167 0.0338 0.7865
vn -0.3062 0.0643 0.9498
vn -0.2127 0.0299 0.9767
vn -0.5702 0.0080 0.8214
vn -0.8608 -0.0000 0.5089
vn -0.9724 -0.0000 -0.2333
vn -0.1176 -0.0073 -0.9930
vn -0.5227 -0.0000 -0.8525
vn -0.1677 -0.0319 -0.9853
vn 0.2793 -0.0276 -0.9598
vn 0.1910 -0.0616 -0.9797
vn 0.6223 -0.0466 -0.7814
vn 0.5593 -0.0083 -0.8289
vn 0.1766 -0.0300 -0.9838
vn 0.3342 -0.0643 -0.9403
vn 0.8608 -0.0022 -0.5089
vn 0.3161 0.0362 0.9480
vn 0.3782 0.0639 0.9235
vn 0.1775 0.0400 0.9833
vn 0.1051 0.0028 0.9945
vn 0.0008 1.0000 -0.0076
vn 0.0162 0.9996 -0.0241
vn 0.0187 0.9976 -0.0671
vn -0.0024 0.9998 0.0199
vn 0.0092 0.9998 -0.0179
vn -0.0095 0.9984 -0.0560
vn 0.0177 0.9998 -0.0082
vn 0.0513 0.9985 -0.0202
vn 0.5227 -0.0022 0.8525
vn 0.9724 -0.0022 0.2333
vn 0.8114 0.0501 0.5824
vn -0.0406 -0.9977 0.0545
vn 0.0096 -0.9994 0.0326
vn 0.0054 -1.0000 0.0069
vn 0.0159 -0.9996 0.0242
vn 0.0071 -0.9998 -0.0186
vn -0.0088 -0.9984 0.0558
vn -0.0082 -0.9998 0.0163
vn -0.0245 -0.9997 0.0046
vn 0.9889 -0.0161 -0.1477
vn 0.7071 -0.0000 0.7071
vn -0.7071 -0.0000 0.7071
vn -0.7071 -0.0000 -0.7071
vn 0.7071 -0.0000 -0.7071
vt 0.381762 0.697406
vt 0.299870 0.704414
vt 0.296430 0.624831
vt 0.367269 0.615628
vt 0.367425 0.559065
vt 0.397834 0.638963
vt 0.350398 0.568364
vt 0.329348 0.515728
vt 0.358057 0.544874
vt 0.331849 0.515612
vt 0.274578 0.653566
vt 0.298076 0.577828
vt 0.365099 0.529504
vt 0.372738 0.556188
vt 0.364100 0.540361
vt 0.350197 0.519828
vt 0.296825 0.526316
vt 0.638892 0.863564
vt 0.638892 0.961055
vt 0.571302 0.961055
vt 0.571302 0.863564
vt 0.279759 0.574731
vt 0.300662 0.730502
vt 0.386040 0.726127
vt 0.396764 0.786911
vt 0.297215 0.786911
vt 0.400007 0.588973
vt 0.403164 0.627911
vt 0.293749 0.525839
vt 0.282594 0.559313
vt 0.334127 0.514135
vt 0.327408 0.500900
vt 0.267073 0.645339
vt 0.273873 0.573944
vt 0.632357 0.967590
vt 0.577837 0.967590
vt 0.291290 0.524925
vt 0.276067 0.557568
vt 0.776611 0.869196
vt 0.728917 0.869196
vt 0.728917 0.813564
vt 0.776611 0.813564
vt 0.776611 0.799947
vt 0.728917 0.799947
vt 0.728917 0.768947
vt 0.776611 0.768947
vt 0.290974 0.510491
vt 0.780024 0.899896
vt 0.725504 0.899896
vt 0.271748 0.548651
vt 0.259328 0.610435
vt 0.280267 0.535750
vt 0.155503 0.736235
vt 0.210407 0.730204
vt 0.215909 0.780296
vt 0.161005 0.786326
vt 0.132250 0.512836
vt 0.141413 0.817764
vt 0.126664 0.542862
vt 0.108238 0.511312
vt 0.105596 0.542047
vt 0.023702 0.732300
vt 0.019061 0.804460
vt 0.846458 0.406117
vt 0.846458 0.350187
vt 0.889922 0.350187
vt 0.889922 0.406117
vt 0.162372 0.726676
vt 0.201627 0.722364
vt 0.138279 0.507328
vt 0.101253 0.499086
vt 0.019061 0.720584
vt 0.820668 0.488982
vt 0.864132 0.488982
vt 0.864132 0.719750
vt 0.820668 0.719750
vt 0.820668 0.444676
vt 0.864132 0.444676
vt 0.734964 0.675444
vt 0.727146 0.730825
vt 0.725504 0.487961
vt 0.734964 0.444676
vt 0.773086 0.444676
vt 0.782546 0.487961
vt 0.780904 0.730825
vt 0.773086 0.675444
vt 0.903263 0.046247
vt 0.899864 0.058868
vt 0.850417 0.049293
vt 0.854261 0.033292
vt 0.910406 0.033777
vt 0.858278 0.019061
vt 0.903229 0.122719
vt 0.910095 0.136109
vt 0.854670 0.148704
vt 0.851231 0.133572
vt 0.900209 0.109520
vt 0.848078 0.116583
vt 0.898351 0.096728
vt 0.846547 0.099441
vt 0.897739 0.084020
vt 0.846458 0.082436
vt 0.925627 0.868932
vt 0.915333 0.858638
vt 0.915333 0.844081
vt 0.925627 0.833788
vt 0.940184 0.833788
vt 0.950477 0.844081
vt 0.950477 0.858638
vt 0.940184 0.868932
vt 0.898136 0.071406
vt 0.847770 0.065688
vt 0.383908 0.054416
vt 0.388049 0.027813
vt 0.400490 0.030707
vt 0.396634 0.056108
vt 0.907073 0.047854
vt 0.904426 0.059810
vt 0.913205 0.037515
vt 0.907273 0.121201
vt 0.913205 0.132326
vt 0.904945 0.108616
vt 0.902292 0.096333
vt 0.902419 0.083979
vt 0.902014 0.071732
vt 0.360575 0.072964
vt 0.360711 0.050763
vt 0.371844 0.052358
vt 0.371446 0.074238
vt 0.350084 0.050072
vt 0.349987 0.019061
vt 0.362975 0.020270
vt 0.328338 0.052494
vt 0.324338 0.023873
vt 0.337006 0.020351
vt 0.339461 0.050830
vt 0.303573 0.056400
vt 0.299557 0.031023
vt 0.311980 0.028051
vt 0.316287 0.054628
vt 0.375665 0.023712
vt 0.305200 0.098407
vt 0.304635 0.077074
vt 0.317178 0.076003
vt 0.317380 0.097679
vt 0.339736 0.073029
vt 0.350154 0.072437
vt 0.328873 0.074371
vt 0.383151 0.075796
vt 0.395701 0.076789
vt 0.350332 0.129414
vt 0.350225 0.095152
vt 0.360718 0.095517
vt 0.360706 0.129297
vt 0.371577 0.096414
vt 0.383085 0.097473
vt 0.339735 0.095583
vt 0.328882 0.096548
vt 0.395269 0.098125
vt 0.318488 0.166881
vt 0.317977 0.128636
vt 0.329253 0.129012
vt 0.329468 0.165831
vt 0.339958 0.129362
vt 0.306162 0.128670
vt 0.371408 0.128880
vt 0.382682 0.128433
vt 0.394497 0.128394
vt 0.360530 0.204972
vt 0.360828 0.164816
vt 0.371424 0.165700
vt 0.370800 0.204991
vt 0.382410 0.166681
vt 0.393877 0.167249
vt 0.350442 0.164457
vt 0.340058 0.164882
vt 0.307026 0.167521
vt 0.329889 0.240822
vt 0.330338 0.205117
vt 0.340607 0.205035
vt 0.340376 0.240641
vt 0.350569 0.204904
vt 0.319519 0.205163
vt 0.381619 0.204969
vt 0.392974 0.204998
vt 0.308164 0.205263
vt 0.350787 0.274764
vt 0.350680 0.240510
vt 0.360985 0.240577
vt 0.361306 0.274941
vt 0.307849 0.240954
vt 0.319075 0.240952
vt 0.371473 0.240691
vt 0.382287 0.240754
vt 0.393513 0.240685
vt 0.340158 0.314311
vt 0.340270 0.275007
vt 0.350910 0.313990
vt 0.329623 0.275494
vt 0.307607 0.276084
vt 0.318749 0.275950
vt 0.371956 0.275361
vt 0.382833 0.275749
vt 0.393975 0.275814
vt 0.373574 0.358764
vt 0.372485 0.314852
vt 0.383450 0.315407
vt 0.384718 0.359471
vt 0.318380 0.315611
vt 0.329341 0.314987
vt 0.394588 0.315485
vt 0.361664 0.314244
vt 0.307243 0.315758
vt 0.351187 0.402514
vt 0.351047 0.357664
vt 0.362358 0.357973
vt 0.363031 0.402548
vt 0.339738 0.358044
vt 0.317388 0.359682
vt 0.328527 0.358905
vt 0.395881 0.359553
vt 0.306226 0.359834
vt 0.388252 0.441969
vt 0.386092 0.402684
vt 0.397269 0.402386
vt 0.399375 0.440907
vt 0.327688 0.402823
vt 0.339344 0.402622
vt 0.305106 0.402675
vt 0.316285 0.402903
vt 0.374688 0.402676
vt 0.364497 0.459328
vt 0.364008 0.442143
vt 0.376368 0.442247
vt 0.377554 0.458661
vt 0.351311 0.442085
vt 0.326256 0.442404
vt 0.338616 0.442223
vt 0.303241 0.441208
vt 0.314371 0.442201
vt 0.919209 0.447455
vt 0.947594 0.457127
vt 0.944799 0.467093
vt 0.913089 0.458034
vt 0.338234 0.459410
vt 0.351365 0.459302
vt 0.312434 0.457844
vt 0.325173 0.458825
vt 0.390287 0.457600
vt 0.401815 0.454727
vt 0.300887 0.455043
vt 0.902254 0.498971
vt 0.906637 0.499047
vt 0.906659 0.513368
vt 0.902826 0.513709
vt 0.909078 0.527327
vt 0.943175 0.521117
vt 0.944795 0.531798
vt 0.912237 0.540754
vt 0.942507 0.510262
vt 0.907367 0.484593
vt 0.942530 0.488172
vt 0.942438 0.499199
vt 0.943191 0.477472
vt 0.909543 0.470810
vt 0.947594 0.542076
vt 0.918371 0.551768
vt 0.324963 0.462258
vt 0.338171 0.462618
vt 0.351376 0.462778
vt 0.364580 0.462535
vt 0.390835 0.460738
vt 0.403164 0.457611
vt 0.311905 0.460985
vt 0.377785 0.462093
vt 0.299557 0.457936
vt 0.443293 0.934592
vt 0.533022 0.936946
vt 0.532528 0.951634
vt 0.442982 0.946929
vt 0.905753 0.469787
vt 0.903304 0.483960
vt 0.916640 0.444676
vt 0.909697 0.456552
vt 0.904886 0.528183
vt 0.908657 0.542215
vt 0.915671 0.554608
vt 0.949111 0.379980
vt 0.936770 0.379980
vt 0.928044 0.371253
vt 0.928044 0.358913
vt 0.936770 0.350187
vt 0.949111 0.350187
vt 0.957837 0.358913
vt 0.957837 0.371253
vt 0.443293 0.909912
vt 0.533022 0.907557
vt 0.533181 0.922252
vt 0.443383 0.922252
vt 0.442347 0.885251
vt 0.531647 0.878201
vt 0.532528 0.892870
vt 0.442982 0.897575
vt 0.442346 0.959253
vt 0.531647 0.966303
vt 0.530333 0.980939
vt 0.441286 0.971548
vt 0.441286 0.872956
vt 0.530333 0.863564
vt 0.550937 0.457781
vt 0.627564 0.444676
vt 0.641224 0.570102
vt 0.608902 0.569143
vt 0.482303 0.505542
vt 0.590028 0.587685
vt 0.441286 0.584581
vt 0.579619 0.607441
vt 0.445242 0.679826
vt 0.586772 0.627814
vt 0.498257 0.764052
vt 0.606932 0.647774
vt 0.586679 0.814296
vt 0.642667 0.646749
vt 0.669957 0.607657
vt 0.687382 0.825443
vt 0.687382 0.451344
vt 0.387973 0.915998
vt 0.350294 0.953677
vt 0.297007 0.953677
vt 0.259328 0.915998
vt 0.259328 0.862712
vt 0.297007 0.825033
vt 0.350294 0.825033
vt 0.387973 0.862712
vt 0.249576 0.311681
vt 0.230140 0.364842
vt 0.099024 0.310075
vt 0.112757 0.277461
vt 0.260471 0.255015
vt 0.117759 0.244802
vt 0.261435 0.195876
vt 0.113853 0.211492
vt 0.252084 0.135903
vt 0.100999 0.176761
vt 0.233250 0.076716
vt 0.076376 0.141319
vt 0.207109 0.019061
vt 0.031294 0.107282
vt 0.071197 0.244733
vt 0.102129 0.244428
vt 0.097391 0.272576
vt 0.065487 0.264115
vt 0.204272 0.414537
vt 0.176393 0.460964
vt 0.029022 0.372470
vt 0.073574 0.342156
vt 0.019061 0.940058
vt 0.019061 0.890751
vt 0.053926 0.855886
vt 0.103233 0.855886
vt 0.138099 0.890751
vt 0.138099 0.940058
vt 0.103233 0.974924
vt 0.053926 0.974924
vt 0.846458 0.186825
vt 0.870988 0.186825
vt 0.870988 0.202480
vt 0.846458 0.202480
vt 0.039655 0.187560
vt 0.061352 0.157318
vt 0.084591 0.185795
vt 0.052445 0.206441
vt 0.054826 0.281767
vt 0.084221 0.300438
vt 0.060526 0.326241
vt 0.038963 0.295428
vt 0.064500 0.224974
vt 0.097735 0.215699
vt 0.019061 0.177676
vt 0.021610 0.134990
vt 0.021526 0.346235
vt 0.019061 0.304982
vt 0.066707 0.334244
vt 0.023347 0.359694
vt 0.092824 0.181180
vt 0.105797 0.213612
vt 0.024619 0.120322
vt 0.068715 0.149220
vt 0.109965 0.244677
vt 0.105007 0.275145
vt 0.091498 0.305478
vt 0.953128 0.784596
vt 0.942058 0.795666
vt 0.926403 0.795666
vt 0.915333 0.784596
vt 0.915333 0.768941
vt 0.926403 0.757872
vt 0.942058 0.757872
vt 0.953128 0.768941
vt 0.846458 0.218135
vt 0.870988 0.218135
vt 0.870988 0.233790
vt 0.846458 0.233790
vt 0.846458 0.249445
vt 0.870988 0.249445
vt 0.870988 0.265100
vt 0.846458 0.265100
vt 0.846458 0.296410
vt 0.870988 0.296410
vt 0.870988 0.312065
vt 0.846458 0.312065
vt 0.870988 0.280755
vt 0.846458 0.280755
vt 0.938521 0.630337
vt 0.968384 0.661278
vt 0.902254 0.665396
vt 0.935408 0.633080
vt 0.936018 0.626354
vt 0.931510 0.628643
vt 0.968384 0.598883
vt 0.902254 0.592729
vt 0.915333 0.907053
vt 0.945253 0.907053
vt 0.945253 0.936973
vt 0.915333 0.936973
vt 0.865363 0.861727
vt 0.840522 0.889951
vt 0.825153 0.867575
vt 0.837185 0.844477
vt 0.875018 0.842308
vt 0.845538 0.834900
vt 0.877212 0.825164
vt 0.843296 0.828501
vt 0.867854 0.785039
vt 0.828887 0.808101
vt 0.832551 0.758411
vt 0.825686 0.781889
vt 0.176435 0.912017
vt 0.210412 0.911701
vt 0.210041 0.930925
vt 0.176221 0.931392
vt 0.176307 0.900344
vt 0.210284 0.900093
vt 0.176613 0.855886
vt 0.210474 0.855924
vt 0.210199 0.875142
vt 0.176221 0.875252
vt 0.820668 0.867203
vt 0.828276 0.849395
vt 0.833192 0.834677
vt 0.832798 0.823941
vt 0.823887 0.807724
vt 0.821104 0.786877
vt 0.210248 0.892318
vt 0.176270 0.892525
vt 0.820668 0.757872
vt 0.934309 0.232005
vt 0.929665 0.223944
vt 0.930004 0.204571
vt 0.934444 0.201898
vt 0.927497 0.248840
vt 0.925286 0.234766
vt 0.917059 0.242593
vt 0.918576 0.230750
vt 0.909110 0.216925
vt 0.913466 0.214250
vt 0.909110 0.186825
vt 0.913797 0.194883
vt 0.836961 0.892974
vt 0.606660 0.371291
vt 0.532064 0.406555
vt 0.541892 0.370765
vt 0.577550 0.343168
vt 0.653239 0.229463
vt 0.615689 0.222912
vt 0.653239 0.086223
vt 0.617897 0.096835
vt 0.609243 0.019061
vt 0.591882 0.054224
vt 0.524162 0.040401
vt 0.549566 0.075961
vt 0.441286 0.183030
vt 0.480863 0.204351
vt 0.508839 0.334850
vt 0.477941 0.351926
vt 0.444507 0.213107
vt 0.725622 0.067602
vt 0.774075 0.019061
vt 0.808336 0.078475
vt 0.808336 0.211040
vt 0.774075 0.339100
vt 0.725622 0.387641
vt 0.691361 0.328227
vt 0.691361 0.195662
s 1
usemtl DefaultMaterial
f 4/1/1 1/2/1 2/3/2
f 2/3/2 3/4/3 4/1/1
f 8/5/4 5/6/4 6/7/4
f 6/7/4 7/8/4 8/5/4
f 10/9/4 8/5/4 7/8/4
f 7/8/4 9/10/4 10/9/4
f 1/2/5 11/11/5 12/12/5
f 12/12/5 2/3/5 1/2/5
f 16/13/6 13/14/7 14/15/8
f 14/15/8 15/16/9 16/13/6
f 12/12/10 6/7/10 3/4/3
f 3/4/3 2/3/2 12/12/10
f 17/17/10 7/8/10 6/7/10
f 6/7/10 12/12/10 17/17/10
f 19/18/11 5/19/12 11/20/12
f 11/20/12 18/21/11 19/18/11
f 11/11/5 20/22/5 17/17/5
f 17/17/5 12/12/5 11/11/5
f 5/6/4 4/1/4 3/4/4
f 3/4/4 6/7/4 5/6/4
f 22/23/13 21/24/13 19/25/14
f 19/25/14 18/26/14 22/23/13
f 21/24/4 4/1/4 5/6/4
f 5/6/4 19/25/4 21/24/4
f 22/23/13 1/2/1 4/1/1
f 4/1/1 21/24/13 22/23/13
f 18/26/5 11/11/5 1/2/5
f 1/2/5 22/23/5 18/26/5
f 24/27/15 23/28/15 13/14/7
f 13/14/7 16/13/6 24/27/15
f 26/29/5 17/17/5 20/22/5
f 20/22/5 25/30/5 26/29/5
f 15/16/9 14/15/8 27/31/16
f 27/31/16 28/32/16 15/16/9
f 9/10/17 7/8/18 17/17/18
f 17/17/18 26/29/19 9/10/17
f 11/11/12 29/33/20 30/34/21
f 30/34/21 20/22/21 11/11/12
f 8/5/21 13/14/21 23/28/20
f 23/28/20 5/6/12 8/5/21
f 5/19/12 23/35/20 29/36/20
f 29/36/20 11/20/12 5/19/12
f 9/10/17 27/31/22 14/15/23
f 14/15/23 10/9/23 9/10/17
f 26/29/19 31/37/22 27/31/22
f 27/31/22 9/10/17 26/29/19
f 25/30/23 32/38/23 31/37/22
f 31/37/22 26/29/19 25/30/23
f 10/9/23 14/15/23 13/14/21
f 13/14/21 8/5/21 10/9/23
f 20/22/21 30/34/21 32/38/23
f 32/38/23 25/30/23 20/22/21
f 34/39/24 24/40/24 16/41/21
f 16/41/21 33/42/21 34/39/24
f 36/43/23 15/44/23 28/45/22
f 28/45/22 35/46/22 36/43/23
f 36/43/23 33/42/21 16/41/21
f 16/41/21 15/44/23 36/43/23
f 28/32/25 27/31/25 31/37/25
f 31/37/25 35/47/25 28/32/25
f 34/39/24 29/48/20 23/49/20
f 23/49/20 24/40/24 34/39/24
f 33/50/26 30/34/27 29/33/28
f 29/33/28 34/51/28 33/50/26
f 36/52/29 32/38/30 30/34/27
f 30/34/27 33/50/26 36/52/29
f 35/47/31 31/37/31 32/38/30
f 32/38/30 36/52/29 35/47/31
f 40/53/32 37/54/32 38/55/33
f 38/55/33 39/56/33 40/53/32
f 42/57/4 40/53/4 39/58/4
f 39/58/4 41/59/4 42/57/4
f 44/60/34 42/57/34 41/59/35
f 41/59/35 43/61/35 44/60/34
f 37/62/5 44/60/5 43/61/5
f 43/61/5 38/63/5 37/62/5
f 48/64/36 45/65/37 46/66/37
f 46/66/37 47/67/36 48/64/36
f 43/61/35 41/59/35 39/58/38
f 39/58/38 38/63/38 43/61/35
f 40/53/32 49/68/39 50/69/39
f 50/69/39 37/54/32 40/53/32
f 42/57/39 45/70/37 49/68/39
f 49/68/39 40/53/32 42/57/39
f 44/60/39 46/71/37 45/70/37
f 45/70/37 42/57/39 44/60/39
f 37/62/32 50/72/39 46/71/37
f 46/71/37 44/60/39 37/62/32
f 52/73/40 51/74/40 48/75/36
f 48/75/36 47/76/36 52/73/40
f 52/73/41 50/77/41 49/78/41
f 49/78/41 51/74/41 52/73/41
f 47/79/4 46/80/4 50/81/4
f 50/81/4 52/82/4 47/79/4
f 51/83/5 49/84/5 45/85/5
f 45/85/5 48/86/5 51/83/5
f 56/87/42 53/88/43 54/89/44
f 54/89/44 55/90/45 56/87/42
f 58/91/46 56/87/42 55/90/45
f 55/90/45 57/92/47 58/91/46
f 60/93/48 58/94/46 57/95/47
f 57/95/47 59/96/49 60/93/48
f 62/97/50 60/93/48 59/96/49
f 59/96/49 61/98/51 62/97/50
f 64/99/52 62/97/50 61/98/51
f 61/98/51 63/100/53 64/99/52
f 66/101/54 64/99/52 63/100/53
f 63/100/53 65/102/55 66/101/54
f 57/103/47 55/104/45 54/105/44
f 57/103/47 54/105/44 67/106/56
f 57/103/47 67/106/56 65/107/55
f 57/103/47 65/107/55 63/108/53
f 57/103/47 63/108/53 61/109/51
f 61/109/51 59/110/49 57/103/47
f 68/111/57 66/101/54 65/102/55
f 65/102/55 67/112/56 68/111/57
f 53/88/43 68/111/57 67/112/56
f 67/112/56 54/89/44 53/88/43
f 72/113/58 69/114/59 70/115/60
f 70/115/60 71/116/61 72/113/58
f 56/87/42 69/117/59 73/118/62
f 73/118/62 53/88/43 56/87/42
f 58/91/46 70/119/60 69/117/59
f 69/117/59 56/87/42 58/91/46
f 60/93/48 74/120/63 70/121/60
f 70/121/60 58/94/46 60/93/48
f 62/97/50 75/122/64 74/120/63
f 74/120/63 60/93/48 62/97/50
f 64/99/52 76/123/65 75/122/64
f 75/122/64 62/97/50 64/99/52
f 66/101/54 77/124/66 76/123/65
f 76/123/65 64/99/52 66/101/54
f 68/111/57 78/125/67 77/124/66
f 77/124/66 66/101/54 68/111/57
f 53/88/43 73/118/62 78/125/67
f 78/125/67 68/111/57 53/88/43
f 82/126/68 79/127/69 80/128/70
f 80/128/70 81/129/71 82/126/68
f 83/130/72 77/131/66 78/132/67
f 78/132/67 79/127/69 83/130/72
f 85/133/73 75/134/64 76/135/65
f 76/135/65 84/136/74 85/133/73
f 71/137/61 70/138/60 74/139/63
f 74/139/63 86/140/75 71/137/61
f 80/128/70 73/141/62 69/114/59
f 69/114/59 72/113/58 80/128/70
f 79/127/69 78/132/67 73/141/62
f 73/141/62 80/128/70 79/127/69
f 84/136/74 76/135/65 77/131/66
f 77/131/66 83/130/72 84/136/74
f 86/140/75 74/139/63 75/134/64
f 75/134/64 85/133/73 86/140/75
f 90/142/76 87/143/77 88/144/78
f 88/144/78 89/145/79 90/142/76
f 92/146/80 84/136/74 83/130/72
f 83/130/72 91/147/81 92/146/80
f 88/144/78 86/140/75 85/133/73
f 85/133/73 93/148/82 88/144/78
f 94/149/83 72/113/58 71/116/61
f 71/116/61 87/150/77 94/149/83
f 91/147/81 83/130/72 79/127/69
f 79/127/69 82/126/68 91/147/81
f 93/148/82 85/133/73 84/136/74
f 84/136/74 92/146/80 93/148/82
f 87/143/77 71/137/61 86/140/75
f 86/140/75 88/144/78 87/143/77
f 81/129/71 80/128/70 72/113/58
f 72/113/58 94/149/83 81/129/71
f 98/151/84 95/152/85 96/153/86
f 96/153/86 97/154/87 98/151/84
f 100/155/88 81/129/71 94/149/83
f 94/149/83 99/156/89 100/155/88
f 96/153/86 82/126/68 81/129/71
f 81/129/71 100/155/88 96/153/86
f 101/157/90 92/146/80 91/147/81
f 91/147/81 95/152/85 101/157/90
f 89/145/79 88/144/78 93/148/82
f 93/148/82 102/158/91 89/145/79
f 99/156/89 94/149/83 87/150/77
f 87/150/77 90/159/76 99/156/89
f 95/152/85 91/147/81 82/126/68
f 82/126/68 96/153/86 95/152/85
f 102/158/91 93/148/82 92/146/80
f 92/146/80 101/157/90 102/158/91
f 106/160/92 103/161/93 104/162/94
f 104/162/94 105/163/95 106/160/92
f 104/162/94 102/158/91 101/157/90
f 101/157/90 107/164/96 104/162/94
f 108/165/97 90/142/76 89/145/79
f 89/145/79 103/161/93 108/165/97
f 110/166/98 100/155/88 99/156/89
f 99/156/89 109/167/99 110/166/98
f 97/154/87 96/153/86 100/155/88
f 100/155/88 110/166/98 97/154/87
f 107/164/96 101/157/90 95/152/85
f 95/152/85 98/151/84 107/164/96
f 103/161/93 89/145/79 102/158/91
f 102/158/91 104/162/94 103/161/93
f 109/167/99 99/156/89 90/159/76
f 90/159/76 108/168/97 109/167/99
f 114/169/100 111/170/101 112/171/102
f 112/171/102 113/172/103 114/169/100
f 116/173/104 109/167/99 108/168/97
f 108/168/97 115/174/105 116/173/104
f 117/175/106 98/151/84 97/154/87
f 97/154/87 111/170/101 117/175/106
f 105/163/95 104/162/94 107/164/96
f 107/164/96 118/176/107 105/163/95
f 115/177/105 108/165/97 103/161/93
f 103/161/93 106/160/92 115/177/105
f 112/171/102 110/166/98 109/167/99
f 109/167/99 116/173/104 112/171/102
f 111/170/101 97/154/87 110/166/98
f 110/166/98 112/171/102 111/170/101
f 118/176/107 107/164/96 98/151/84
f 98/151/84 117/175/106 118/176/107
f 122/178/108 119/179/109 120/180/110
f 120/180/110 121/181/111 122/178/108
f 120/180/110 118/176/107 117/175/106
f 117/175/106 123/182/112 120/180/110
f 124/183/113 106/160/92 105/163/95
f 105/163/95 119/179/109 124/183/113
f 126/184/114 116/173/104 115/174/105
f 115/174/105 125/185/115 126/184/114
f 123/182/112 117/175/106 111/170/101
f 111/170/101 114/169/100 123/182/112
f 119/179/109 105/163/95 118/176/107
f 118/176/107 120/180/110 119/179/109
f 125/186/115 115/177/105 106/160/92
f 106/160/92 124/183/113 125/186/115
f 113/172/103 112/171/102 116/173/104
f 116/173/104 126/184/114 113/172/103
f 130/187/116 127/188/117 128/189/118
f 128/189/118 129/190/119 130/187/116
f 132/191/120 125/186/115 124/183/113
f 124/183/113 131/192/121 132/191/120
f 134/193/122 113/172/103 126/184/114
f 126/184/114 133/194/123 134/193/122
f 128/189/118 114/169/100 113/172/103
f 113/172/103 134/193/122 128/189/118
f 121/181/111 120/180/110 123/182/112
f 123/182/112 127/188/117 121/181/111
f 131/192/121 124/183/113 119/179/109
f 119/179/109 122/178/108 131/192/121
f 133/194/123 126/184/114 125/185/115
f 125/185/115 132/195/120 133/194/123
f 127/188/117 123/182/112 114/169/100
f 114/169/100 128/189/118 127/188/117
f 137/196/124 135/197/125 130/187/116
f 130/187/116 136/198/126 137/196/124
f 138/199/127 122/178/108 121/181/111
f 121/181/111 135/197/125 138/199/127
f 140/200/128 132/191/120 131/192/121
f 131/192/121 139/201/129 140/200/128
f 142/202/130 134/193/122 133/194/123
f 133/194/123 141/203/131 142/202/130
f 129/190/119 128/189/118 134/193/122
f 134/193/122 142/202/130 129/190/119
f 135/197/125 121/181/111 127/188/117
f 127/188/117 130/187/116 135/197/125
f 139/201/129 131/192/121 122/178/108
f 122/178/108 138/199/127 139/201/129
f 141/203/131 133/194/123 132/195/120
f 132/195/120 140/204/128 141/203/131
f 146/205/132 143/206/133 144/207/134
f 144/207/134 145/208/135 146/205/132
f 148/209/136 139/201/129 138/199/127
f 138/199/127 147/210/137 148/209/136
f 144/207/134 141/203/131 140/204/128
f 140/204/128 149/211/138 144/207/134
f 136/198/126 130/187/116 129/190/119
f 129/190/119 150/212/139 136/198/126
f 147/210/137 138/199/127 135/197/125
f 135/197/125 137/196/124 147/210/137
f 149/213/138 140/200/128 139/201/129
f 139/201/129 148/209/136 149/213/138
f 143/206/133 142/202/130 141/203/131
f 141/203/131 144/207/134 143/206/133
f 150/212/139 129/190/119 142/202/130
f 142/202/130 143/206/133 150/212/139
f 154/214/140 151/215/141 152/216/142
f 152/216/142 153/217/143 154/214/140
f 152/216/142 150/212/139 143/206/133
f 143/206/133 146/205/132 152/216/142
f 155/218/144 137/196/124 136/198/126
f 136/198/126 151/215/141 155/218/144
f 157/219/145 148/209/136 147/210/137
f 147/210/137 156/220/146 157/219/145
f 145/208/135 144/207/134 149/211/138
f 149/211/138 158/221/147 145/208/135
f 151/215/141 136/198/126 150/212/139
f 150/212/139 152/216/142 151/215/141
f 156/220/146 147/210/137 137/196/124
f 137/196/124 155/218/144 156/220/146
f 158/222/147 149/213/138 148/209/136
f 148/209/136 157/219/145 158/222/147
f 162/223/148 159/224/149 160/225/150
f 160/225/150 161/226/151 162/223/148
f 164/227/152 156/220/146 155/218/144
f 155/218/144 163/228/153 164/227/152
f 160/229/150 158/222/147 157/219/145
f 157/219/145 165/230/154 160/229/150
f 166/231/155 146/205/132 145/208/135
f 145/208/135 159/224/149 166/231/155
f 153/217/143 152/216/142 146/205/132
f 146/205/132 166/231/155 153/217/143
f 163/228/153 155/218/144 151/215/141
f 151/215/141 154/214/140 163/228/153
f 165/230/154 157/219/145 156/220/146
f 156/220/146 164/227/152 165/230/154
f 159/224/149 145/208/135 158/221/147
f 158/221/147 160/225/150 159/224/149
f 170/232/156 167/233/157 168/234/158
f 168/234/158 169/235/159 170/232/156
f 171/236/160 154/214/140 153/217/143
f 153/217/143 167/233/157 171/236/160
f 173/237/161 164/227/152 163/228/153
f 163/228/153 172/238/162 173/237/161
f 161/239/151 160/229/150 165/230/154
f 165/230/154 174/240/163 161/239/151
f 168/234/158 166/231/155 159/224/149
f 159/224/149 162/223/148 168/234/158
f 167/233/157 153/217/143 166/231/155
f 166/231/155 168/234/158 167/233/157
f 172/238/162 163/228/153 154/214/140
f 154/214/140 171/236/160 172/238/162
f 174/240/163 165/230/154 164/227/152
f 164/227/152 173/237/161 174/240/163
f 178/241/164 175/242/165 176/243/166
f 176/243/166 177/244/167 178/241/164
f 180/245/168 172/238/162 171/236/160
f 171/236/160 179/246/169 180/245/168
f 182/247/170 174/240/163 173/237/161
f 173/237/161 181/248/171 182/247/170
f 184/249/172 162/223/148 161/226/151
f 161/226/151 183/250/173 184/249/172
f 179/246/169 171/236/160 167/233/157
f 167/233/157 170/232/156 179/246/169
f 181/248/171 173/237/161 172/238/162
f 172/238/162 180/245/168 181/248/171
f 183/251/173 161/239/151 174/240/163
f 174/240/163 182/247/170 183/251/173
f 169/235/159 168/234/158 162/223/148
f 162/223/148 184/249/172 169/235/159
f 188/252/174 185/253/175 186/254/176
f 186/254/176 187/255/177 188/252/174
f 192/256/178 189/257/179 190/258/180
f 190/258/180 191/259/181 192/256/178
f 186/254/176 193/260/182 189/257/179
f 189/257/179 192/256/178 186/254/176
f 196/261/183 194/262/184 195/263/185
f 195/263/185 185/253/175 196/261/183
f 177/244/167 176/243/166 197/264/186
f 197/264/186 198/265/187 177/244/167
f 191/259/181 190/258/180 175/266/165
f 175/266/165 178/267/164 191/259/181
f 185/253/175 195/263/185 193/260/182
f 193/260/182 186/254/176 185/253/175
f 198/265/187 197/264/186 194/262/184
f 194/262/184 196/261/183 198/265/187
f 197/268/186 181/248/171 180/245/168
f 180/245/168 194/269/184 197/268/186
f 195/270/185 179/246/169 170/232/156
f 170/232/156 193/271/182 195/270/185
f 190/272/180 184/249/172 183/250/173
f 183/250/173 175/273/165 190/272/180
f 176/274/166 182/247/170 181/248/171
f 181/248/171 197/268/186 176/274/166
f 194/269/184 180/245/168 179/246/169
f 179/246/169 195/270/185 194/269/184
f 193/271/182 170/232/156 169/235/159
f 169/235/159 189/275/179 193/271/182
f 189/275/179 169/235/159 184/249/172
f 184/249/172 190/272/180 189/275/179
f 175/276/165 183/251/173 182/247/170
f 182/247/170 176/274/166 175/276/165
f 201/277/188 187/278/177 199/279/189
f 199/279/189 200/280/190 201/277/188
f 203/281/191 198/265/187 196/261/183
f 196/261/183 202/282/192 203/281/191
f 205/283/193 178/241/164 177/244/167
f 177/244/167 204/284/194 205/283/193
f 199/285/189 192/256/178 191/259/181
f 191/259/181 206/286/195 199/285/189
f 187/255/177 186/254/176 192/256/178
f 192/256/178 199/285/189 187/255/177
f 202/282/192 196/261/183 185/253/175
f 185/253/175 188/252/174 202/282/192
f 204/284/194 177/244/167 198/265/187
f 198/265/187 203/281/191 204/284/194
f 206/286/195 191/259/181 178/267/164
f 178/267/164 205/287/193 206/286/195
f 201/288/188 200/289/190 207/290/196
f 201/288/188 207/290/196 208/291/197
f 201/288/188 208/291/197 209/292/198
f 201/288/188 209/292/198 210/293/199
f 201/288/188 210/293/199 211/294/200
f 211/294/200 212/295/201 201/288/188
f 211/296/200 202/297/192 188/298/174
f 188/298/174 212/299/201 211/296/200
f 209/300/198 204/301/194 203/302/191
f 203/302/191 210/303/199 209/300/198
f 207/304/196 206/305/195 205/306/193
f 205/306/193 208/307/197 207/304/196
f 212/299/201 188/298/174 187/278/177
f 187/278/177 201/277/188 212/299/201
f 210/303/199 203/302/191 202/297/192
f 202/297/192 211/296/200 210/303/199
f 208/308/197 205/309/193 204/301/194
f 204/301/194 209/300/198 208/308/197
f 200/280/190 199/279/189 206/305/195
f 206/305/195 207/304/196 200/280/190
f 216/310/202 213/311/203 214/312/204
f 214/312/204 215/313/205 216/310/202
f 218/314/206 216/310/202 215/313/205
f 215/313/205 217/315/207 218/314/206
f 220/316/208 218/314/206 217/315/207
f 217/315/207 219/317/209 220/316/208
f 222/318/210 220/316/208 219/317/209
f 219/317/209 221/319/211 222/318/210
f 224/320/212 222/318/210 221/319/211
f 221/319/211 223/321/213 224/320/212
f 226/322/214 224/320/212 223/321/213
f 223/321/213 225/323/215 226/322/214
f 217/315/207 215/313/205 214/312/204
f 217/315/207 214/312/204 227/324/216
f 217/315/207 227/324/216 225/323/215
f 217/315/207 225/323/215 223/321/213
f 217/315/207 223/321/213 221/319/211
f 221/319/211 219/317/209 217/315/207
f 228/325/217 226/322/214 225/323/215
f 225/323/215 227/324/216 228/325/217
f 213/311/203 228/326/217 227/324/216
f 227/324/216 214/312/204 213/311/203
f 228/327/217 213/328/203 216/329/202
f 228/327/217 216/329/202 218/330/206
f 228/327/217 218/330/206 220/331/208
f 228/327/217 220/331/208 222/332/210
f 228/327/217 222/332/210 224/333/212
f 224/333/212 226/334/214 228/327/217
f 232/335/218 229/336/218 230/337/219
f 230/337/219 231/338/219 232/335/218
f 234/339/220 232/335/220 231/338/221
f 231/338/221 233/340/221 234/339/220
f 236/341/222 234/339/222 233/340/223
f 233/340/223 235/342/223 236/341/222
f 238/343/224 236/341/224 235/342/225
f 235/342/225 237/344/225 238/343/224
f 240/345/226 238/343/226 237/344/227
f 237/344/227 239/346/227 240/345/226
f 242/347/228 240/345/228 239/346/229
f 239/346/229 241/348/229 242/347/228
f 246/349/230 243/350/231 244/351/232
f 244/351/232 245/352/233 246/349/230
f 248/353/234 242/354/234 241/355/235
f 241/355/235 247/356/235 248/353/234
f 229/336/236 248/353/236 247/356/237
f 247/356/237 230/337/237 229/336/236
f 248/357/238 229/358/238 232/359/238
f 248/357/238 232/359/238 234/360/238
f 248/357/238 234/360/238 236/361/238
f 248/357/238 236/361/238 238/362/238
f 248/357/238 238/362/238 240/363/238
f 240/363/238 242/364/238 248/357/238
f 252/365/228 249/366/228 250/367/228
f 250/367/228 251/368/228 252/365/228
f 250/369/239 253/370/240 254/371/241
f 254/371/241 255/372/242 250/369/239
f 259/373/243 256/374/244 257/375/245
f 257/375/245 258/376/246 259/373/243
f 245/352/233 244/351/232 256/374/244
f 256/374/244 259/373/243 245/352/233
f 261/377/247 260/378/248 243/350/231
f 243/350/231 246/349/230 261/377/247
f 249/379/249 262/380/250 253/370/240
f 253/370/240 250/369/239 249/379/249
f 255/372/242 254/371/241 260/378/248
f 260/378/248 261/377/247 255/372/242
f 258/376/246 257/375/245 262/381/250
f 262/381/250 249/382/249 258/376/246
f 264/383/251 247/356/235 241/355/235
f 241/355/235 263/384/251 264/383/251
f 266/385/252 237/344/225 235/342/225
f 235/342/225 265/386/252 266/385/252
f 263/387/253 241/348/229 239/346/229
f 239/346/229 267/388/253 263/387/253
f 265/386/254 235/342/223 233/340/223
f 233/340/223 268/389/254 265/386/254
f 270/390/255 231/338/219 230/337/219
f 230/337/219 269/391/255 270/390/255
f 269/391/256 230/337/237 247/356/237
f 247/356/237 264/383/256 269/391/256
f 267/388/257 239/346/227 237/344/227
f 237/344/227 266/385/257 267/388/257
f 268/389/258 233/340/221 231/338/221
f 231/338/221 270/390/258 268/389/258
f 257/375/245 264/383/259 263/384/260
f 263/384/260 262/381/250 257/375/245
f 254/371/241 266/385/261 265/386/262
f 265/386/262 260/378/248 254/371/241
f 262/380/250 263/387/260 267/388/263
f 267/388/263 253/370/240 262/380/250
f 260/378/248 265/386/262 268/389/264
f 268/389/264 243/350/231 260/378/248
f 244/351/232 270/390/265 269/391/266
f 269/391/266 256/374/244 244/351/232
f 256/374/244 269/391/266 264/383/259
f 264/383/259 257/375/245 256/374/244
f 253/370/240 267/388/263 266/385/261
f 266/385/261 254/371/241 253/370/240
f 243/350/231 268/389/264 270/390/265
f 270/390/265 244/351/232 243/350/231
f 276/392/267 271/393/267 272/394/267
f 276/392/267 272/394/267 273/395/267
f 276/392/267 273/395/267 252/396/267
f 276/392/267 252/396/267 251/397/267
f 276/392/267 251/397/267 274/398/267
f 274/398/267 275/399/267 276/392/267
f 274/400/224 255/401/224 261/402/224
f 261/402/224 275/403/224 274/400/224
f 276/404/220 246/405/220 245/406/220
f 245/406/220 271/407/220 276/404/220
f 273/408/234 258/409/234 249/410/234
f 249/410/234 252/411/234 273/408/234
f 251/368/226 250/367/226 255/401/226
f 255/401/226 274/400/226 251/368/226
f 275/403/222 261/402/222 246/405/222
f 246/405/222 276/404/222 275/403/222
f 271/407/218 245/406/218 259/412/218
f 259/412/218 272/413/218 271/407/218
f 272/413/236 259/412/236 258/409/236
f 258/409/236 273/408/236 272/413/236
f 280/414/268 277/415/268 278/416/268
f 278/416/268 279/417/268 280/414/268
f 282/418/4 280/414/4 279/417/4
f 279/417/4 281/419/4 282/418/4
f 284/420/269 282/418/269 281/419/269
f 281/419/269 283/421/269 284/420/269
f 277/422/5 284/423/5 283/424/5
f 283/424/5 278/425/5 277/422/5
f 277/415/238 280/414/238 282/418/238
f 282/418/238 284/420/238 277/415/238
f 283/421/267 281/419/267 279/417/267
f 279/417/267 278/416/267 283/421/267
f 288/426/270 285/427/271 286/428/272
f 286/428/272 287/429/273 288/426/270
f 290/430/274 288/426/270 287/429/273
f 287/429/273 289/431/274 290/430/274
f 292/432/275 290/430/275 289/431/275
f 289/431/275 291/433/275 292/432/275
f 294/434/276 292/432/277 291/433/277
f 291/433/277 293/435/278 294/434/276
f 296/436/279 294/434/276 293/435/278
f 293/435/278 295/437/280 296/436/279
f 300/438/281 297/439/282 298/440/283
f 298/440/283 299/441/284 300/438/281
f 302/442/285 301/443/285 297/439/282
f 297/439/282 300/438/281 302/442/285
f 306/444/286 303/445/287 304/446/288
f 304/446/288 305/447/289 306/444/286
f 286/428/290 298/448/291 297/449/292
f 297/449/292 287/429/293 286/428/290
f 287/429/293 297/449/292 301/450/267
f 301/450/267 289/431/267 287/429/293
f 289/431/267 301/450/267 307/451/267
f 307/451/267 291/433/267 289/431/267
f 291/433/267 307/451/267 304/452/294
f 304/452/294 293/435/295 291/433/267
f 293/435/295 304/452/294 303/453/296
f 303/453/296 295/437/297 293/435/295
f 305/447/289 304/446/288 307/454/298
f 307/454/298 308/455/298 305/447/289
f 308/455/299 307/454/299 301/443/299
f 301/443/299 302/442/299 308/455/299
f 306/456/286 296/436/300 295/437/300
f 295/437/300 303/453/287 306/456/286
f 288/457/301 300/458/302 299/459/303
f 299/459/303 285/460/304 288/457/301
f 290/461/238 302/462/238 300/458/302
f 300/458/302 288/457/301 290/461/238
f 292/463/238 308/464/238 302/462/238
f 302/462/238 290/461/238 292/463/238
f 294/465/305 305/466/306 308/464/238
f 308/464/238 292/463/238 294/465/305
f 296/467/307 306/468/308 305/466/306
f 305/466/306 294/465/305 296/467/307
f 286/428/309 285/427/309 299/469/309
f 299/469/309 298/448/309 286/428/309
f 312/470/310 309/471/218 310/472/218
f 310/472/218 311/473/310 312/470/310
f 314/474/269 312/470/310 311/473/310
f 311/473/310 313/475/269 314/474/269
f 316/476/311 314/474/269 313/475/269
f 313/475/269 315/477/311 316/476/311
f 318/478/224 316/476/311 315/477/311
f 315/477/311 317/479/224 318/478/224
f 320/480/312 318/478/226 317/479/226
f 317/479/226 319/481/312 320/480/312
f 322/482/268 320/480/312 319/481/312
f 319/481/312 321/483/268 322/482/268
f 313/475/267 311/473/267 310/472/267
f 313/475/267 310/472/267 323/484/267
f 313/475/267 323/484/267 321/483/267
f 313/475/267 321/483/267 319/481/267
f 313/475/267 319/481/267 317/479/267
f 317/479/267 315/477/267 313/475/267
f 324/485/313 322/486/268 321/483/268
f 321/483/268 323/484/313 324/485/313
f 309/471/236 324/485/313 323/484/313
f 323/484/313 310/472/236 309/471/236
f 324/487/238 309/488/238 312/489/238
f 324/487/238 312/489/238 314/490/238
f 324/487/238 314/490/238 316/491/238
f 324/487/238 316/491/238 318/492/238
f 324/487/238 318/492/238 320/493/238
f 320/493/238 322/494/238 324/487/238
