# Blender 4.2.2 LTS
# www.blender.org
mtllib first aid kit.mtl
o first_aid_kit
v -0.580061 0.009830 -0.790493
v -0.696770 0.061708 -0.790494
v -0.580061 0.061708 -0.940493
v -0.696770 0.649661 -0.790494
v -0.580061 0.701539 -0.790493
v -0.580061 0.649661 -0.940493
v 0.742641 0.009830 -0.790493
v 0.742641 0.061708 -0.940493
v 0.859350 0.061708 -0.790493
v 0.742641 0.701539 -0.790493
v 0.859350 0.649661 -0.790493
v 0.742641 0.649661 -0.940493
v -0.580061 0.009830 0.909507
v -0.580061 0.061708 1.059507
v -0.696770 0.061708 0.909506
v -0.580061 0.701539 0.909507
v -0.696770 0.649661 0.909506
v -0.580061 0.649661 1.059507
v 0.742641 0.009830 0.909507
v 0.859350 0.061708 0.909507
v 0.742641 0.061708 1.059507
v 0.742641 0.701539 0.909507
v 0.742641 0.649661 1.059507
v 0.859350 0.649661 0.909507
v 0.865139 0.265026 -0.594438
v 0.865139 0.455746 -0.594438
v 0.865139 0.265026 -0.514527
v 0.865139 0.455746 -0.514527
v 0.905991 0.455746 -0.594438
v 0.930839 0.383615 -0.594438
v 0.923561 0.434619 -0.594438
v 0.930839 0.383615 -0.514527
v 0.905991 0.455746 -0.514527
v 0.923561 0.434619 -0.514527
v 0.930839 0.326445 -0.594438
v 0.909681 0.265026 -0.594438
v 0.924642 0.283016 -0.594438
v 0.909681 0.265026 -0.514527
v 0.930839 0.326445 -0.514527
v 0.924642 0.283016 -0.514527
v 0.865139 0.265026 0.713452
v 0.865139 0.455746 0.713452
v 0.865139 0.265026 0.633540
v 0.865139 0.455746 0.633540
v 0.905991 0.455746 0.713452
v 0.930839 0.383615 0.713452
v 0.923561 0.434619 0.713452
v 0.930839 0.383615 0.633540
v 0.905991 0.455746 0.633540
v 0.923561 0.434619 0.633540
v 0.930839 0.326445 0.713452
v 0.909681 0.265026 0.713452
v 0.924642 0.283016 0.713452
v 0.909681 0.265026 0.633540
v 0.930839 0.326445 0.633540
v 0.924642 0.283016 0.633540
v 0.875495 0.513675 -0.489273
v 0.875495 0.384876 -0.489273
v 0.843072 0.513675 -0.489273
v 0.843072 0.384876 -0.489273
v 0.875495 0.513675 -0.618073
v 0.875495 0.384876 -0.618073
v 0.843072 0.513675 -0.618073
v 0.843072 0.384876 -0.618073
v 0.875495 0.513675 0.608286
v 0.875495 0.384876 0.608286
v 0.843072 0.513675 0.608286
v 0.843072 0.384876 0.608286
v 0.875495 0.513675 0.737085
v 0.875495 0.384876 0.737085
v 0.843072 0.513675 0.737085
v 0.843072 0.384876 0.737085
v 0.875495 0.335541 -0.489273
v 0.875495 0.206741 -0.489273
v 0.843072 0.335541 -0.489273
v 0.843072 0.206741 -0.489273
v 0.875495 0.335541 -0.618073
v 0.875495 0.206741 -0.618073
v 0.843072 0.335541 -0.618073
v 0.843072 0.206741 -0.618073
v 0.875495 0.335541 0.608286
v 0.875495 0.206741 0.608286
v 0.843072 0.335541 0.608286
v 0.843072 0.206741 0.608286
v 0.875495 0.335541 0.737085
v 0.875495 0.206741 0.737085
v 0.843072 0.335541 0.737085
v 0.843072 0.206741 0.737085
v 0.851163 0.328018 -0.235724
v 0.848035 0.328018 -0.206201
v 0.848035 0.250222 -0.206201
v 0.851163 0.246127 -0.206201
v 0.851163 0.250222 -0.235724
v 0.910598 0.328018 -0.206201
v 0.907470 0.328018 -0.235724
v 0.907470 0.246127 -0.206201
v 0.910598 0.250222 -0.206201
v 0.907470 0.250222 -0.235724
v 0.910598 0.323924 0.059507
v 0.907470 0.328018 0.059507
v 0.907470 0.246127 0.059507
v 0.910598 0.250222 0.059507
v 0.851163 0.328018 0.059507
v 0.848035 0.323924 0.059507
v 0.848035 0.250222 0.059507
v 0.851163 0.246127 0.059507
v 0.907470 0.328018 -0.124342
v 0.907470 0.332113 -0.153865
v 0.910598 0.323924 -0.183388
v 0.848035 0.250222 -0.153865
v 0.851163 0.246127 -0.153865
v 0.910598 0.250222 -0.153865
v 0.907470 0.246127 -0.153865
v 0.848035 0.323924 -0.183388
v 0.851163 0.332113 -0.153865
v 0.851163 0.328018 -0.124342
v 0.907470 0.438537 -0.235724
v 0.910598 0.434442 -0.235724
v 0.848035 0.434442 -0.235724
v 0.851163 0.438537 -0.235724
v 0.910598 0.434442 -0.183388
v 0.907470 0.434442 -0.153865
v 0.907470 0.438537 -0.183388
v 0.848035 0.434442 -0.183388
v 0.851163 0.438537 -0.183388
v 0.851163 0.434442 -0.153865
v 0.851163 0.372495 -0.153865
v 0.848035 0.372495 -0.183388
v 0.907470 0.372495 -0.153865
v 0.910598 0.372495 -0.183388
v 0.910598 0.376590 -0.206201
v 0.907470 0.372495 -0.265247
v 0.907470 0.368401 -0.235724
v 0.851163 0.368401 -0.235724
v 0.851163 0.372495 -0.265247
v 0.848035 0.376590 -0.206201
v 0.907470 0.438537 -0.289423
v 0.907470 0.434442 -0.318946
v 0.910598 0.434442 -0.289423
v 0.851163 0.438537 -0.289423
v 0.848035 0.434442 -0.289423
v 0.851163 0.434442 -0.318946
v 0.848035 0.376590 -0.289423
v 0.851163 0.372495 -0.289423
v 0.851163 0.376590 -0.318946
v 0.910598 0.376590 -0.289423
v 0.907470 0.376590 -0.318946
v 0.907470 0.372495 -0.289423
v 0.848035 0.328018 0.325214
v 0.851163 0.328018 0.354737
v 0.848035 0.250222 0.325214
v 0.851163 0.250222 0.354737
v 0.851163 0.246127 0.325214
v 0.907470 0.328018 0.354737
v 0.910598 0.328018 0.325214
v 0.907470 0.246127 0.325214
v 0.907470 0.250222 0.354737
v 0.910598 0.250222 0.325214
v 0.907470 0.328018 0.243355
v 0.910598 0.323924 0.302401
v 0.907470 0.332113 0.272878
v 0.851163 0.246127 0.272878
v 0.848035 0.250222 0.272878
v 0.907470 0.246127 0.272878
v 0.910598 0.250222 0.272878
v 0.851163 0.328018 0.243355
v 0.851163 0.332113 0.272878
v 0.848035 0.323924 0.302401
v 0.910598 0.434442 0.354737
v 0.907470 0.438537 0.354737
v 0.851163 0.438537 0.354737
v 0.848035 0.434442 0.354737
v 0.910598 0.434442 0.302401
v 0.907470 0.438537 0.302401
v 0.907470 0.434442 0.272878
v 0.848035 0.434442 0.302401
v 0.851163 0.434442 0.272878
v 0.851163 0.438537 0.302401
v 0.848035 0.372495 0.302401
v 0.851163 0.372495 0.272878
v 0.910598 0.372495 0.302401
v 0.907470 0.372495 0.272878
v 0.907470 0.368401 0.354737
v 0.907470 0.372495 0.384260
v 0.910598 0.376590 0.325214
v 0.848035 0.376590 0.325214
v 0.851163 0.372495 0.384260
v 0.851163 0.368401 0.354737
v 0.907470 0.438537 0.408436
v 0.910598 0.434442 0.408436
v 0.907470 0.434442 0.437959
v 0.851163 0.438537 0.408436
v 0.851163 0.434442 0.437959
v 0.848035 0.434442 0.408436
v 0.848035 0.376590 0.408436
v 0.851163 0.376590 0.437959
v 0.851163 0.372495 0.408436
v 0.910598 0.376590 0.408436
v 0.907470 0.372495 0.408436
v 0.907470 0.376590 0.437959
vn -0.9458 -0.0000 0.3246
vn -0.9458 -0.0000 -0.3246
vn 0.4393 -0.0000 0.8984
vn -0.4393 -0.0000 0.8984
vn 0.2011 0.9665 0.1593
vn 0.2011 0.9665 -0.1593
vn -0.2011 0.9665 -0.1593
vn -0.2011 0.9665 0.1593
vn -0.4393 -0.0000 -0.8984
vn 0.4393 -0.0000 -0.8984
vn 0.9458 -0.0000 -0.3246
vn 0.9458 -0.0000 0.3246
vn -0.2011 -0.9665 -0.1593
vn -0.4034 -0.9075 -0.1167
vn -0.1249 -0.9377 -0.3243
vn -0.4034 0.9075 -0.1167
vn -0.1249 0.9377 -0.3243
vn 0.2011 -0.9665 -0.1593
vn 0.1249 -0.9377 -0.3243
vn 0.4034 -0.9075 -0.1167
vn 0.4034 0.9075 -0.1167
vn 0.1249 0.9377 -0.3243
vn -0.2011 -0.9665 0.1593
vn -0.1249 -0.9377 0.3243
vn -0.4034 -0.9075 0.1167
vn -0.4034 0.9075 0.1167
vn -0.1249 0.9377 0.3243
vn 0.2011 -0.9665 0.1593
vn 0.4034 -0.9075 0.1167
vn 0.1249 -0.9377 0.3243
vn 0.1249 0.9377 0.3243
vn 0.4034 0.9075 0.1167
vn 0.3322 -0.7083 0.6229
vn 0.6941 -0.3081 0.6506
vn 0.7205 -0.0511 0.6915
vn 0.7205 0.0511 0.6915
vn 0.6941 0.3081 0.6506
vn 0.3322 0.7083 0.6229
vn -0.0000 0.7071 0.7071
vn -0.0000 -0.7071 0.7071
vn -1.0000 -0.0000 -0.0000
vn 0.7205 -0.0511 -0.6915
vn 0.7205 0.0511 -0.6915
vn 0.3322 -0.7083 -0.6229
vn -0.0000 -0.7071 -0.7071
vn 0.3322 0.7083 -0.6229
vn 0.6941 0.3081 -0.6506
vn -0.0000 0.7071 -0.7071
vn 0.6941 -0.3081 -0.6506
vn -0.0000 -0.0000 1.0000
vn -0.0000 -0.0000 -1.0000
vn 1.0000 -0.0000 -0.0000
vn -0.0000 1.0000 -0.0000
vn -0.0000 -1.0000 -0.0000
vn 0.9996 -0.0165 -0.0230
vn 0.9473 0.3204 -0.0000
vn 0.9472 0.3169 0.0496
vn 0.9986 -0.0000 0.0528
vn 0.9996 0.0165 0.0230
vn 0.9986 -0.0000 -0.0528
vn -0.9986 -0.0000 0.0528
vn -0.9472 0.3169 0.0496
vn -0.9473 0.3204 -0.0000
vn -0.9996 -0.0165 -0.0230
vn -0.9996 -0.0165 0.0230
vn -0.9473 -0.3204 -0.0000
vn -0.9986 -0.0000 -0.0528
vn -0.9996 0.0165 0.0230
vn -0.0000 0.9976 0.0689
vn 0.9473 -0.3204 -0.0000
vn 0.9996 -0.0165 0.0230
vn -0.9472 -0.3169 -0.0496
vn -0.9472 -0.3169 0.0496
vn 0.9472 -0.3169 0.0496
vn -0.0000 -0.6567 -0.7541
vn -0.0000 0.6567 0.7541
vn -0.0000 -0.9976 0.0689
vn -0.0000 0.6567 -0.7541
vn -0.0000 -0.6567 0.7541
vn 0.9472 -0.3169 -0.0496
vn -0.0000 -0.9976 -0.0689
vn 0.9472 0.3169 -0.0496
vn 0.9996 0.0165 -0.0230
vn -0.9472 0.3169 -0.0496
vn -0.9996 0.0165 -0.0230
vn -0.0000 0.9976 -0.0689
vn 0.7940 0.6066 0.0405
vn 0.9926 0.0613 0.1052
vn -0.7940 0.6066 0.0405
vn -0.9926 0.0613 0.1052
vn -0.8100 -0.5864 -0.0022
vn -0.9869 -0.1483 -0.0634
vn 0.9869 -0.1483 -0.0634
vn 0.8100 -0.5864 -0.0022
vn -0.9926 -0.0613 -0.1052
vn -0.7940 -0.6066 -0.0405
vn 0.7940 -0.6066 -0.0405
vn 0.9926 -0.0613 -0.1052
vn -0.8100 0.5864 0.0022
vn -0.9869 0.1483 0.0634
vn 0.9869 0.1483 0.0634
vn 0.8100 0.5864 0.0022
vn -0.7940 -0.6066 0.0405
vn -0.9926 -0.0613 0.1052
vn 0.7940 -0.6066 0.0405
vn 0.9926 -0.0613 0.1052
vn 0.9926 0.0613 -0.1052
vn 0.7940 0.6066 -0.0405
vn -0.7940 0.6066 -0.0405
vn -0.9926 0.0613 -0.1052
vn -0.8100 -0.5864 0.0022
vn -0.9869 -0.1483 0.0634
vn 0.8100 -0.5864 0.0022
vn 0.9869 -0.1483 0.0634
vn -0.9869 0.1483 -0.0634
vn -0.8100 0.5864 -0.0022
vn 0.8100 0.5864 -0.0022
vn 0.9869 0.1483 -0.0634
vn 0.9944 -0.0000 0.1054
vn -0.9944 -0.0000 0.1054
vn 0.7946 0.6071 -0.0000
vn -0.7946 0.6071 -0.0000
vn 0.7946 -0.6071 -0.0000
vn -0.7946 -0.6071 -0.0000
vn 0.9944 -0.0000 -0.1054
vn -0.9944 -0.0000 -0.1054
vn -0.0000 0.9905 0.1374
vt 0.544239 0.001563
vt 0.383804 0.166251
vt 0.310940 0.176835
vt 0.165853 0.000153
vt 0.569336 0.407553
vt 0.405049 0.246799
vt 0.392907 0.174289
vt 0.569336 0.028759
vt 0.394256 0.246093
vt 0.324856 0.255718
vt 0.313649 0.186677
vt 0.383048 0.177052
vt 0.138569 0.025217
vt 0.302855 0.185971
vt 0.314998 0.258481
vt 0.138569 0.404011
vt 0.163665 0.431207
vt 0.324101 0.266519
vt 0.396965 0.255935
vt 0.542051 0.432617
vt 0.306853 0.967377
vt 0.302152 0.990591
vt 0.284332 0.971684
vt 0.307647 0.795537
vt 0.284332 0.791025
vt 0.303479 0.772959
vt 0.478638 0.973516
vt 0.501953 0.978028
vt 0.482807 0.996094
vt 0.479433 0.801675
vt 0.484133 0.778462
vt 0.501953 0.797368
vt 0.851024 0.088757
vt 0.842604 0.095389
vt 0.835841 0.095008
vt 0.828166 0.092439
vt 0.819654 0.091145
vt 0.809645 0.079852
vt 0.736763 0.005311
vt 0.943359 0.004471
vt 0.261719 0.949219
vt 0.163375 0.949219
vt 0.163375 0.850875
vt 0.261719 0.850875
vt 0.832250 0.118085
vt 0.823970 0.118680
vt 0.845300 0.127525
vt 0.943359 0.244141
vt 0.803388 0.126982
vt 0.814919 0.118111
vt 0.734112 0.186413
vt 0.838411 0.119187
vt 0.864696 0.876651
vt 0.957031 0.960938
vt 0.750435 0.960098
vt 0.823317 0.885557
vt 0.833326 0.874264
vt 0.841838 0.872970
vt 0.849512 0.870400
vt 0.856275 0.870020
vt 0.671875 0.298141
vt 0.671875 0.396484
vt 0.573531 0.396484
vt 0.573531 0.298141
vt 0.845922 0.847324
vt 0.837642 0.846729
vt 0.858971 0.837884
vt 0.957031 0.721268
vt 0.817060 0.838427
vt 0.828591 0.847298
vt 0.747784 0.778996
vt 0.852083 0.846222
vt 0.211170 0.790580
vt 0.242463 0.756908
vt 0.281250 0.817360
vt 0.237075 0.845703
vt 0.001648 0.849897
vt 0.160156 0.849897
vt 0.160156 0.916312
vt 0.001648 0.916312
vt 0.087373 0.716871
vt 0.105976 0.774926
vt 0.065416 0.845703
vt 0.001842 0.787836
vt 0.160156 0.964844
vt 0.001648 0.964844
vt 0.451805 0.719291
vt 0.425900 0.774414
vt 0.381725 0.746071
vt 0.420511 0.685619
vt 0.664062 0.830365
vt 0.664062 0.896780
vt 0.505554 0.896780
vt 0.505554 0.830365
vt 0.575602 0.645582
vt 0.661133 0.716547
vt 0.597559 0.774414
vt 0.556998 0.703637
vt 0.664062 0.945312
vt 0.505554 0.945312
vt 0.765190 0.310204
vt 0.731517 0.278910
vt 0.791970 0.240123
vt 0.820312 0.284298
vt 0.841492 0.570600
vt 1.000000 0.570600
vt 1.000000 0.637015
vt 0.841492 0.637015
vt 0.691480 0.434001
vt 0.749535 0.415397
vt 0.820312 0.455957
vt 0.762445 0.519531
vt 1.000000 0.685547
vt 0.841492 0.685547
vt 0.730033 0.703357
vt 0.785156 0.729263
vt 0.756814 0.773438
vt 0.696361 0.734651
vt 0.953125 0.566406
vt 0.886710 0.566406
vt 0.886710 0.407898
vt 0.953125 0.407898
vt 0.656324 0.579560
vt 0.727289 0.494029
vt 0.785156 0.557604
vt 0.714379 0.598164
vt 0.838178 0.566406
vt 0.838178 0.407898
vt 0.841653 0.257658
vt 0.850754 0.392295
vt 0.837824 0.391083
vt 0.835238 0.249656
vt 0.825377 0.701172
vt 0.819435 0.693648
vt 0.818544 0.603419
vt 0.824423 0.611146
vt 0.722071 0.145172
vt 0.718472 0.282718
vt 0.705992 0.283607
vt 0.715777 0.152886
vt 0.587921 0.152640
vt 0.651936 0.147360
vt 0.652108 0.285263
vt 0.598634 0.284293
vt 0.136719 0.324243
vt 0.136719 0.378829
vt 0.000769 0.378829
vt 0.000769 0.324243
vt 0.368186 0.708975
vt 0.365058 0.719374
vt 0.330766 0.627735
vt 0.332810 0.618981
vt 0.000769 0.631572
vt 0.136719 0.631572
vt 0.136719 0.637756
vt 0.000769 0.637756
vt 0.000769 0.269658
vt 0.136719 0.269658
vt 0.904587 0.257314
vt 0.967492 0.257646
vt 0.959781 0.391381
vt 0.905071 0.393483
vt 0.288029 0.547442
vt 0.295110 0.543515
vt 0.302490 0.538733
vt 0.350419 0.605900
vt 0.812294 0.496251
vt 0.797698 0.600129
vt 0.797630 0.496192
vt 0.320893 0.631722
vt 0.137701 0.610191
vt 0.220714 0.458495
vt 0.280073 0.548585
vt 0.000769 0.546402
vt 0.000769 0.402900
vt 0.136719 0.402900
vt 0.136719 0.546402
vt 0.136719 0.392218
vt 0.000769 0.392218
vt 0.601520 0.139705
vt 0.607174 0.001042
vt 0.652031 0.001448
vt 0.651960 0.137231
vt 0.291612 0.537667
vt 0.240922 0.448286
vt 0.252697 0.442739
vt 0.298869 0.533407
vt 0.000769 0.102085
vt 0.000769 0.027596
vt 0.136719 0.027596
vt 0.136719 0.102085
vt 0.378906 0.450717
vt 0.360325 0.601211
vt 0.306700 0.532170
vt 0.260777 0.436132
vt 0.825216 0.496359
vt 0.284539 0.542007
vt 0.230405 0.454892
vt 0.973790 0.249654
vt 0.972493 0.390288
vt 0.710938 0.817505
vt 0.620534 0.816630
vt 0.612780 0.810736
vt 0.703378 0.811544
vt 0.581538 0.144896
vt 0.585944 0.283247
vt 0.702374 0.139960
vt 0.696915 0.001035
vt 0.649635 0.660287
vt 0.560641 0.624498
vt 0.569384 0.622521
vt 0.659968 0.657270
vt 0.000769 0.016915
vt 0.000769 0.010731
vt 0.136719 0.010731
vt 0.136719 0.016915
vt 0.347861 0.707991
vt 0.139489 0.727539
vt 0.485784 0.587175
vt 0.489818 0.579916
vt 0.547531 0.641781
vt 0.481154 0.594435
vt 0.505421 0.804432
vt 0.505371 0.789744
vt 0.609414 0.789837
vt 0.573434 0.612859
vt 0.490638 0.571761
vt 0.399726 0.512273
vt 0.552420 0.429414
vt 0.136719 0.245587
vt 0.000769 0.245587
vt 0.000769 0.256269
vt 0.136719 0.256269
vt 0.648814 0.640124
vt 0.669922 0.431875
vt 0.479835 0.583797
vt 0.475506 0.591283
vt 0.383518 0.544581
vt 0.389236 0.533012
vt 0.392387 0.670898
vt 0.377105 0.552787
vt 0.474729 0.599097
vt 0.542857 0.651430
vt 0.505522 0.817381
vt 0.396254 0.522297
vt 0.484048 0.576789
vt 0.835752 0.401589
vt 0.827364 0.393214
vt 0.720797 0.292626
vt 0.728605 0.284526
vt 0.712916 0.136730
vt 0.848334 0.240133
vt 0.856907 0.246747
vt 0.223469 0.447189
vt 0.353402 0.618418
vt 0.349892 0.630052
vt 0.807969 0.619645
vt 0.800870 0.611510
vt 0.249282 0.432428
vt 0.794628 0.609827
vt 0.787495 0.601419
vt 0.358525 0.613330
vt 0.982873 0.391978
vt 0.975008 0.400370
vt 0.584026 0.293552
vt 0.575733 0.285454
vt 0.590884 0.136353
vt 0.952245 0.246744
vt 0.960813 0.240133
vt 0.387825 0.515212
vt 0.571416 0.641497
vt 0.559849 0.644842
vt 0.620880 0.792962
vt 0.629067 0.800093
vt 0.373477 0.541630
vt 0.610611 0.779535
vt 0.619152 0.786682
vt 0.554768 0.649830
vt 0.823686 0.249907
vt 0.732422 0.145456
vt 0.849850 0.403128
vt 0.706946 0.294468
vt 0.652152 0.295898
vt 0.904586 0.246505
vt 0.905138 0.404297
vt 0.707609 0.000618
vt 0.235432 0.438652
vt 0.835938 0.496432
vt 0.835156 0.611126
vt 0.378906 0.704814
vt 0.835938 0.685896
vt 0.808806 0.693768
vt 0.000769 0.620890
vt 0.136719 0.620890
vt 0.786245 0.496274
vt 0.136719 0.648438
vt 0.000769 0.648438
vt 0.984375 0.249766
vt 0.570239 0.145295
vt 0.960884 0.402433
vt 0.597830 0.294931
vt 0.597457 0.000618
vt 0.379408 0.527603
vt 0.620516 0.827400
vt 0.505590 0.828125
vt 0.645419 0.670898
vt 0.695604 0.828125
vt 0.703490 0.800872
vt 0.505403 0.779213
vt 0.000769 0.000049
vt 0.136719 0.000049
s 1
usemtl Материал
f 15/1/1 17/2/1 4/3/2 2/4/2
f 21/5/3 23/6/3 18/7/4 14/8/4
f 22/9/5 10/10/6 5/11/7 16/12/8
f 3/13/9 6/14/9 12/15/10 8/16/10
f 9/17/11 11/18/11 24/19/12 20/20/12
f 1/21/13 2/22/14 3/23/15
f 4/3/16 5/11/7 6/14/17
f 7/24/18 8/25/19 9/26/20
f 10/10/6 11/18/21 12/15/22
f 13/27/23 14/28/24 15/29/25
f 16/12/8 17/2/26 18/7/27
f 19/30/28 20/31/29 21/32/30
f 22/9/5 23/6/31 24/19/32
f 7/24/18 1/21/13 3/23/15 8/25/19
f 2/4/2 4/3/2 6/14/9 3/13/9
f 5/11/7 10/10/6 12/15/22 6/14/17
f 11/18/11 9/17/11 8/16/10 12/15/10
f 19/30/28 7/24/18 9/26/20 20/31/29
f 10/10/6 22/9/5 24/19/32 11/18/21
f 23/6/3 21/5/3 20/20/12 24/19/12
f 13/27/23 19/30/28 21/32/30 14/28/24
f 22/9/5 16/12/8 18/7/27 23/6/31
f 17/2/1 15/1/1 14/8/4 18/7/4
f 1/21/13 13/27/23 15/29/25 2/22/14
f 16/12/8 5/11/7 4/3/16 17/2/26
f 7/24/18 19/30/28 13/27/23 1/21/13
f 38/33/33 40/34/34 39/35/35 32/36/36 34/37/37 33/38/38 28/39/39 27/40/40
f 27/41/41 28/42/41 26/43/41 25/44/41
f 35/45/42 30/46/43 32/36/36 39/35/35
f 36/47/44 38/33/33 27/40/40 25/48/45
f 29/49/46 33/38/38 34/37/37 31/50/47
f 31/50/47 34/37/37 32/36/36 30/46/43
f 33/38/38 29/49/46 26/51/48 28/39/39
f 38/33/33 36/47/44 37/52/49 40/34/34
f 40/34/34 37/52/49 35/45/42 39/35/35
f 25/48/45 26/51/48 29/49/46 31/50/47 30/46/43 35/45/42 37/52/49 36/47/44
f 54/53/44 43/54/45 44/55/48 49/56/46 50/57/47 48/58/43 55/59/42 56/60/49
f 43/61/41 41/62/41 42/63/41 44/64/41
f 51/65/35 55/59/42 48/58/43 46/66/36
f 52/67/33 41/68/40 43/54/45 54/53/44
f 45/69/38 47/70/37 50/57/47 49/56/46
f 47/70/37 46/66/36 48/58/43 50/57/47
f 49/56/46 44/55/48 42/71/39 45/69/38
f 54/53/44 56/60/49 53/72/34 52/67/33
f 56/60/49 55/59/42 51/65/35 53/72/34
f 41/68/40 52/67/33 53/72/34 51/65/35 46/66/36 47/70/37 45/69/38 42/71/39
f 57/73/50 59/74/50 60/75/50 58/76/50
f 59/77/41 63/78/41 64/79/41 60/80/41
f 63/81/51 61/82/51 62/83/51 64/84/51
f 61/82/52 57/73/52 58/76/52 62/83/52
f 59/74/53 57/73/53 61/82/53 63/81/53
f 64/79/54 62/85/54 58/86/54 60/80/54
f 65/87/51 66/88/51 68/89/51 67/90/51
f 67/91/41 68/92/41 72/93/41 71/94/41
f 71/95/50 72/96/50 70/97/50 69/98/50
f 69/98/52 70/97/52 66/88/52 65/87/52
f 67/90/53 71/95/53 69/98/53 65/87/53
f 72/93/54 68/92/54 66/99/54 70/100/54
f 73/101/50 75/102/50 76/103/50 74/104/50
f 75/105/41 79/106/41 80/107/41 76/108/41
f 79/109/51 77/110/51 78/111/51 80/112/51
f 77/110/52 73/101/52 74/104/52 78/111/52
f 75/102/53 73/101/53 77/110/53 79/109/53
f 80/107/54 78/113/54 74/114/54 76/108/54
f 81/115/51 82/116/51 84/117/51 83/118/51
f 83/119/41 84/120/41 88/121/41 87/122/41
f 87/123/50 88/124/50 86/125/50 85/126/50
f 85/126/52 86/125/52 82/116/52 81/115/52
f 83/118/53 87/123/53 85/126/53 81/115/53
f 88/121/54 84/120/54 82/127/54 86/128/54
f 114/129/55 110/130/56 91/131/57 90/132/58
f 114/133/55 90/134/58 136/135/59 128/136/60
f 94/137/61 97/138/62 112/139/63 109/140/64
f 160/141/65 99/142/66 102/143/63 165/144/63
f 101/145/53 113/146/53 111/147/53 106/148/53
f 94/149/61 109/150/64 130/151/67 131/152/68
f 135/153/69 132/154/69 148/155/69 144/156/69
f 101/145/53 106/148/53 162/157/53 164/158/53
f 104/159/70 168/160/71 163/161/56 105/162/56
f 131/152/68 130/151/67 121/163/72 118/164/66
f 131/152/68 118/164/66 139/165/73 146/166/62
f 119/167/70 136/135/59 143/168/57 141/169/74
f 129/170/51 127/171/51 126/172/75 122/173/75
f 89/174/50 93/175/76 98/176/76 95/177/50
f 113/146/53 96/178/69 92/179/69 111/147/53
f 159/180/77 166/181/77 103/182/54 100/183/54
f 117/184/54 120/185/54 140/186/77 137/187/77
f 150/188/51 188/189/78 183/190/78 154/191/51
f 145/192/50 147/193/50 138/194/79 142/195/79
f 128/136/60 136/135/59 119/167/70 124/196/80
f 117/184/54 123/197/81 125/198/81 120/185/54
f 168/160/71 149/199/60 151/200/82 163/161/56
f 168/201/71 179/202/58 186/203/83 149/204/60
f 155/205/67 160/141/65 165/144/63 158/206/84
f 107/207/81 100/183/54 103/182/54 116/208/81
f 109/140/64 112/139/63 102/143/63 99/142/66
f 155/209/67 185/210/85 181/211/61 160/212/65
f 187/213/86 197/214/86 199/215/86 184/216/86
f 104/159/70 105/162/56 110/130/56 114/129/55
f 108/217/75 115/218/75 127/171/51 129/170/51
f 185/210/85 169/219/66 173/220/73 181/211/61
f 185/210/85 198/221/84 190/222/72 169/219/66
f 172/223/70 194/224/80 195/225/82 186/203/83
f 182/226/50 175/227/79 177/228/79 180/229/50
f 150/188/51 154/191/51 157/230/78 152/231/78
f 164/158/53 162/157/53 153/232/86 156/233/86
f 161/234/79 182/226/50 180/229/50 167/235/79
f 170/236/54 189/237/81 192/238/81 171/239/54
f 196/240/78 193/241/75 191/242/75 200/243/78
f 179/202/58 176/244/74 172/223/70 186/203/83
f 170/236/54 171/239/54 178/245/77 174/246/77
f 91/131/57 92/247/87 93/248/88
f 96/249/89 97/138/62 98/250/90
f 107/207/91 108/251/92 109/140/64
f 114/129/55 115/252/93 116/253/94
f 121/163/72 122/173/95 123/197/96
f 124/254/80 125/198/97 126/172/98
f 131/152/68 132/255/99 133/256/100
f 134/257/101 135/258/102 136/135/59
f 137/187/103 138/194/104 139/165/73
f 140/186/105 141/259/74 142/195/106
f 143/168/57 144/260/87 145/261/88
f 146/166/62 147/193/90 148/262/89
f 151/200/82 152/263/107 153/264/108
f 156/265/109 157/266/110 158/206/84
f 159/180/111 160/141/65 161/267/112
f 166/268/113 167/269/114 168/160/71
f 173/220/73 174/246/103 175/227/104
f 176/270/74 177/228/106 178/245/105
f 183/271/115 184/272/116 185/210/85
f 186/203/83 187/273/117 188/274/118
f 189/237/96 190/222/72 191/242/95
f 192/238/97 193/241/98 194/275/80
f 195/225/82 196/276/107 197/277/108
f 198/221/84 199/278/109 200/243/110
f 90/132/58 91/131/57 93/248/88 89/279/119
f 92/179/69 96/178/69 98/176/76 93/175/76
f 97/138/62 94/137/61 95/280/120 98/250/90
f 111/281/121 92/247/87 91/131/57 110/130/56
f 113/282/122 101/283/122 102/143/63 112/139/63
f 116/253/94 103/284/123 104/159/70 114/129/55
f 100/183/124 107/207/91 109/140/64 99/142/66
f 106/285/121 111/281/121 110/130/56 105/162/56
f 96/249/89 113/282/122 112/139/63 97/138/62
f 107/207/81 116/208/81 115/286/75 108/251/75
f 123/197/96 117/184/124 118/164/66 121/163/72
f 120/185/123 125/198/97 124/254/80 119/287/70
f 122/173/75 126/172/75 125/198/81 123/197/81
f 128/136/60 124/196/80 126/288/98 127/289/125
f 130/151/67 109/150/64 108/217/92 129/170/126
f 133/256/100 95/290/120 94/149/61 131/152/68
f 114/133/55 128/136/60 127/289/125 115/291/93
f 121/163/72 130/151/67 129/170/126 122/173/95
f 89/292/119 134/257/101 136/135/59 90/134/58
f 132/154/69 135/153/69 134/293/76 133/294/76
f 137/187/77 140/186/77 142/195/79 138/194/79
f 145/261/88 142/295/106 141/169/74 143/168/57
f 138/194/104 147/193/90 146/166/62 139/165/73
f 147/296/127 145/297/127 144/156/69 148/155/69
f 135/258/102 144/260/87 143/168/57 136/135/59
f 140/186/105 120/185/123 119/287/70 141/259/74
f 131/152/68 146/166/62 148/262/89 132/255/99
f 117/184/124 137/187/103 139/165/73 118/164/66
f 150/298/125 152/263/107 151/200/82 149/199/60
f 152/231/78 157/230/78 156/233/86 153/232/86
f 157/266/110 154/299/126 155/205/67 158/206/84
f 163/161/56 151/200/82 153/264/108 162/300/121
f 165/144/63 102/143/63 101/283/122 164/301/122
f 168/160/71 104/159/70 103/284/123 166/268/113
f 99/142/66 160/141/65 159/180/111 100/183/124
f 105/162/56 163/161/56 162/300/121 106/285/121
f 158/206/84 165/144/63 164/301/122 156/265/109
f 161/267/79 167/302/79 166/181/77 159/180/77
f 173/220/73 169/219/66 170/236/124 174/246/103
f 172/303/70 176/270/74 178/245/105 171/239/123
f 174/246/77 178/245/77 177/228/79 175/227/79
f 180/304/119 177/305/106 176/244/74 179/202/58
f 182/226/120 161/234/112 160/212/65 181/211/61
f 185/210/85 155/209/67 154/306/126 183/271/115
f 167/307/114 180/304/119 179/202/58 168/201/71
f 175/227/104 182/226/120 181/211/61 173/220/73
f 149/204/60 186/203/83 188/274/118 150/308/125
f 183/190/78 188/189/78 187/213/86 184/216/86
f 191/242/75 193/241/75 192/238/81 189/237/81
f 195/225/82 194/224/80 193/309/98 196/276/107
f 190/222/72 198/221/84 200/243/110 191/242/95
f 199/215/86 197/214/86 196/310/78 200/311/78
f 186/203/83 195/225/82 197/277/108 187/273/117
f 194/275/80 172/303/70 171/239/123 192/238/97
f 184/272/116 199/278/109 198/221/84 185/210/85
f 169/219/66 190/222/72 189/237/96 170/236/124
f 89/174/50 95/177/50 133/294/76 134/293/76
