# Blender 4.2.2 LTS
# www.blender.org
mtllib floor lamp.mtl
o floor_lamp
v 0.967255 0.129701 -0.017843
v 0.247464 0.270160 -0.017843
v 0.685252 0.129701 0.662970
v 0.176284 0.270160 0.154002
v 0.004439 0.129701 0.944972
v 0.004439 0.270160 0.225182
v -0.676374 0.129701 0.662970
v -0.167406 0.270160 0.154002
v -0.958376 0.129701 -0.017843
v -0.238586 0.270160 -0.017843
v -0.676374 0.129701 -0.698656
v -0.167406 0.270160 -0.189688
v 0.004439 0.129701 -0.980659
v 0.004439 0.270160 -0.260868
v 0.685252 0.129701 -0.698656
v 0.176284 0.270160 -0.189688
v 0.685252 0.270160 0.662970
v 0.967255 0.270160 -0.017843
v 0.004439 0.270160 0.944972
v -0.676374 0.270160 0.662970
v -0.958376 0.270160 -0.017843
v -0.676374 0.270160 -0.698656
v 0.004439 0.270160 -0.980659
v 0.685252 0.270160 -0.698656
v 0.109153 0.538905 0.086871
v 0.152527 0.538905 -0.017843
v 0.004439 0.538905 0.130245
v -0.100275 0.538905 0.086871
v -0.143649 0.538905 -0.017843
v -0.100275 0.538905 -0.122557
v 0.004439 0.538905 -0.165931
v 0.109153 0.538905 -0.122557
v -0.175150 0.389602 -0.017843
v -0.122549 0.389602 -0.144832
v 0.004439 0.389602 0.161746
v -0.122549 0.389602 0.109145
v 0.184028 0.389602 -0.017843
v 0.131428 0.389602 0.109145
v 0.131428 0.389602 -0.144832
v 0.004439 0.389602 -0.197432
v 0.073095 6.971354 0.050813
v 0.101533 6.971354 -0.017843
v 0.004439 6.971354 0.079251
v -0.064217 6.971354 0.050813
v -0.092655 6.971354 -0.017843
v -0.064217 6.971354 -0.086499
v 0.004439 6.971354 -0.114937
v 0.073095 6.971354 -0.086499
v 0.109153 6.971354 0.086871
v 0.152527 6.971354 -0.017843
v 0.004439 6.971354 0.130245
v -0.100275 6.971354 0.086871
v -0.143649 6.971354 -0.017843
v -0.100275 6.971354 -0.122557
v 0.004439 6.971354 -0.165931
v 0.109153 6.971354 -0.122557
v 0.073095 10.410700 0.050813
v 0.101533 10.410700 -0.017843
v 0.004439 10.410700 0.079251
v -0.064217 10.410700 0.050813
v -0.092655 10.410700 -0.017843
v -0.064217 10.410700 -0.086499
v 0.004439 10.410700 -0.114937
v 0.073095 10.410700 -0.086499
v 0.242777 10.372206 0.220495
v 0.341500 10.372206 -0.017843
v 0.004439 10.372206 0.319218
v -0.233899 10.372206 0.220495
v -0.332622 10.372206 -0.017843
v -0.233899 10.372206 -0.256181
v 0.004439 10.372206 -0.354904
v 0.242777 10.372206 -0.256181
v 0.199475 10.448109 0.177193
v 0.280261 10.448109 -0.017843
v 0.004439 10.448109 0.257979
v -0.190597 10.448109 0.177193
v -0.271383 10.448109 -0.017843
v -0.190597 10.448109 -0.212879
v 0.004439 10.448109 -0.293665
v 0.199475 10.448109 -0.212879
v 0.114890 10.446769 0.092608
v 0.160640 10.446769 -0.017843
v 0.004439 10.446769 0.138358
v -0.106012 10.446769 0.092608
v -0.151762 10.446769 -0.017843
v -0.106012 10.446769 -0.128294
v 0.004439 10.446769 -0.174044
v 0.114890 10.446769 -0.128294
v 0.032816 10.491834 0.010534
v 0.044570 10.491834 -0.017843
v 0.004439 10.491834 0.022288
v -0.023938 10.491834 0.010534
v -0.035692 10.491834 -0.017843
v -0.023938 10.491834 -0.046220
v 0.004439 10.491834 -0.057974
v 0.032816 10.491834 -0.046220
v 0.114890 10.491834 0.092608
v 0.160640 10.491834 -0.017843
v 0.004439 10.491834 0.138358
v -0.106012 10.491834 0.092608
v -0.151762 10.491834 -0.017843
v -0.106012 10.491834 -0.128294
v 0.004439 10.491834 -0.174044
v 0.114890 10.491834 -0.128294
v 0.032816 10.545533 0.010534
v 0.044570 10.545533 -0.017843
v 0.004439 10.545533 0.022288
v -0.023938 10.545533 0.010534
v -0.035692 10.545533 -0.017843
v -0.023938 10.545533 -0.046220
v 0.004439 10.545533 -0.057974
v 0.032816 10.545533 -0.046220
v 0.009484 8.795511 -0.287121
v 0.009484 10.407887 -0.287121
v 0.002826 8.795511 -0.271047
v 0.002826 10.407887 -0.271047
v -0.013248 8.795511 -0.264389
v -0.013248 10.407887 -0.264389
v -0.029322 8.795511 -0.271047
v -0.029322 10.407887 -0.271047
v -0.035980 8.795511 -0.287121
v -0.035980 10.407887 -0.287121
v -0.029322 8.795511 -0.303195
v -0.029322 10.407887 -0.303195
v -0.013248 8.795511 -0.309853
v -0.013248 10.407887 -0.309853
v 0.002826 8.795511 -0.303195
v 0.002826 10.407887 -0.303195
v 0.032104 8.791797 -0.287121
v 0.018821 8.791797 -0.255052
v -0.013248 8.791797 -0.241769
v -0.045316 8.791797 -0.255052
v -0.058600 8.791797 -0.287121
v -0.045316 8.791797 -0.319189
v -0.013248 8.791797 -0.332473
v 0.018821 8.791797 -0.319189
v 0.032104 8.460891 -0.287121
v 0.018821 8.460891 -0.255052
v -0.013248 8.460891 -0.241769
v -0.045316 8.460891 -0.255052
v -0.058600 8.460891 -0.287121
v -0.045316 8.460891 -0.319189
v -0.013248 8.460891 -0.332473
v 0.018821 8.460891 -0.319189
v -0.789256 9.957944 -1.517464
v -0.089286 10.457996 -0.271666
v -0.792316 9.940842 -1.507123
v -0.092346 10.440894 -0.261325
v -0.807787 9.933433 -1.494707
v -0.107818 10.433487 -0.248909
v -0.826607 9.940060 -1.487489
v -0.126638 10.440113 -0.241692
v -0.837751 9.956839 -1.489698
v -0.137781 10.456892 -0.243900
v -0.834691 9.973941 -1.500039
v -0.134721 10.473994 -0.254242
v -0.819220 9.981348 -1.512455
v -0.119250 10.481402 -0.266657
v -0.800400 9.974723 -1.519672
v -0.100430 10.474775 -0.273875
v -0.436346 10.292119 -0.885739
v -0.439406 10.275017 -0.875398
v -0.454877 10.267609 -0.862982
v -0.473697 10.274235 -0.855764
v -0.484841 10.291014 -0.857973
v -0.481781 10.308116 -0.868314
v -0.466309 10.315524 -0.880730
v -0.447489 10.308898 -0.887948
v -1.601378 9.957944 0.601358
v -0.248057 10.457996 0.142566
v -1.596743 9.940842 0.591620
v -0.243421 10.440894 0.132829
v -1.599952 9.933433 0.572044
v -0.246631 10.433487 0.113253
v -1.609127 9.940060 0.554097
v -0.255805 10.440113 0.095305
v -1.618891 9.956839 0.548291
v -0.265570 10.456892 0.089500
v -1.623527 9.973941 0.558029
v -0.270206 10.473994 0.099237
v -1.620318 9.981348 0.577605
v -0.266997 10.481402 0.118813
v -1.611144 9.974723 0.595552
v -0.257822 10.474775 0.136761
v -0.916643 10.292119 0.367352
v -0.912007 10.275017 0.357615
v -0.915216 10.267609 0.338039
v -0.924391 10.274235 0.320091
v -0.934156 10.291014 0.314286
v -0.938792 10.308116 0.324023
v -0.935582 10.315524 0.343599
v -0.926408 10.308898 0.361547
v 1.560821 9.957944 -0.616703
v 0.207499 10.457996 -0.157912
v 1.556185 9.940842 -0.606966
v 0.202863 10.440895 -0.148174
v 1.559394 9.933434 -0.587390
v 0.206073 10.433487 -0.128598
v 1.568569 9.940061 -0.569442
v 0.215247 10.440113 -0.110651
v 1.578334 9.956840 -0.563637
v 0.225012 10.456892 -0.104845
v 1.582969 9.973942 -0.573374
v 0.229648 10.473994 -0.114583
v 1.579760 9.981349 -0.592950
v 0.226438 10.481402 -0.134159
v 1.570586 9.974723 -0.610898
v 0.217264 10.474775 -0.152106
v 0.876085 10.292120 -0.382698
v 0.871449 10.275018 -0.372960
v 0.874658 10.267609 -0.353384
v 0.883833 10.274236 -0.335437
v 0.893598 10.291014 -0.329631
v 0.898234 10.308117 -0.339368
v 0.895024 10.315524 -0.358945
v 0.885850 10.308898 -0.376892
v 0.748698 9.957944 1.502118
v 0.048728 10.457996 0.256321
v 0.751758 9.940842 1.491777
v 0.051788 10.440895 0.245980
v 0.767229 9.933434 1.479361
v 0.067259 10.433487 0.233564
v 0.786049 9.940061 1.472144
v 0.086079 10.440113 0.226346
v 0.797193 9.956840 1.474352
v 0.097223 10.456892 0.228555
v 0.794133 9.973942 1.484693
v 0.094163 10.473994 0.238896
v 0.778662 9.981349 1.497109
v 0.078691 10.481402 0.251312
v 0.759842 9.974723 1.504327
v 0.059872 10.474775 0.258529
v 0.395788 10.292120 0.870394
v 0.398848 10.275018 0.860052
v 0.414319 10.267609 0.847636
v 0.433139 10.274236 0.840419
v 0.444283 10.291014 0.842627
v 0.441223 10.308117 0.852968
v 0.425751 10.315524 0.865385
v 0.406931 10.308899 0.872602
v 0.734364 12.572366 -0.017843
v 0.699524 12.641623 -0.017843
v 0.520574 12.572366 0.498292
v 0.495938 12.641623 0.473656
v 0.004439 12.572366 0.712082
v 0.004439 12.641623 0.677242
v -0.511696 12.572366 0.498292
v -0.487060 12.641623 0.473656
v -0.725486 12.572366 -0.017843
v -0.690646 12.641623 -0.017843
v -0.511696 12.572366 -0.533978
v -0.487060 12.641623 -0.509342
v 0.004439 12.572366 -0.747768
v 0.004439 12.641623 -0.712928
v 0.520574 12.572366 -0.533978
v 0.495938 12.641623 -0.509342
v 1.858581 9.864489 -0.017843
v 1.315516 9.864489 1.293233
v 0.004439 9.864489 1.836299
v -1.306637 9.864489 1.293233
v -1.849703 9.864489 -0.017843
v -1.306637 9.864489 -1.328920
v 0.004439 9.864489 -1.871985
v 1.315516 9.864489 -1.328920
v 0.004439 11.037786 1.481907
v 1.064922 11.037786 1.042640
v -1.056044 11.037786 -1.078326
v -1.495311 11.037786 -0.017843
v 1.504189 11.037786 -0.017843
v 1.064922 11.037786 -1.078326
v -1.056044 11.037786 1.042640
v 0.004439 11.037786 -1.517593
v 0.819622 11.808661 0.797340
v -1.148404 11.808661 -0.017843
v 0.819622 11.808661 -0.833026
v 0.004439 11.808661 1.135000
v -0.810744 11.808661 -0.833026
v 1.157282 11.808661 -0.017843
v -0.810744 11.808661 0.797340
v 0.004439 11.808661 -1.170686
v 1.944560 9.894206 -0.017843
v 1.376312 9.894206 1.354030
v 0.004439 9.894206 1.922278
v -1.367434 9.894206 1.354030
v -1.935682 9.894206 -0.017843
v -1.367434 9.894206 -1.389716
v 0.004439 9.894206 -1.957964
v 1.376312 9.894206 -1.389716
v -0.083608 10.749099 -0.017717
v -0.026743 10.490781 -0.017717
v -0.057496 10.749099 0.045324
v -0.017286 10.490781 0.005114
v 0.005545 10.749100 0.071436
v 0.005545 10.490781 0.014571
v 0.068586 10.749100 0.045324
v 0.028376 10.490781 0.005114
v 0.094699 10.749100 -0.017717
v 0.037833 10.490781 -0.017717
v 0.068586 10.749100 -0.080758
v 0.028376 10.490781 -0.040548
v 0.005545 10.749100 -0.106871
v 0.005545 10.490781 -0.050005
v -0.057496 10.749099 -0.080758
v -0.017286 10.490781 -0.040548
v -0.061170 10.537383 0.048998
v -0.088805 10.537383 -0.017717
v 0.005545 10.537383 0.076633
v 0.072261 10.537383 0.048998
v 0.099895 10.537383 -0.017717
v 0.072261 10.537383 -0.084433
v 0.005545 10.537383 -0.112067
v -0.061170 10.537383 -0.084433
v -0.021810 10.537383 0.009638
v -0.033141 10.537383 -0.017717
v 0.005545 10.537383 0.020969
v 0.032901 10.537383 0.009638
v 0.044232 10.537383 -0.017717
v 0.032901 10.537383 -0.045073
v 0.005545 10.537383 -0.056404
v -0.021810 10.537383 -0.045073
v -0.100313 10.749099 -0.017717
v -0.069308 10.749099 0.057136
v 0.005545 10.749100 0.088141
v 0.080398 10.749100 0.057136
v 0.111403 10.749100 -0.017717
v 0.080398 10.749100 -0.092570
v 0.005545 10.749100 -0.123575
v -0.069308 10.749099 -0.092570
v -0.099939 10.797531 -0.017717
v -0.069043 10.797531 0.056871
v 0.005545 10.797531 0.087767
v 0.080134 10.797531 0.056871
v 0.111029 10.797531 -0.017717
v 0.080134 10.797531 -0.092306
v 0.005545 10.797531 -0.123201
v -0.069043 10.797531 -0.092306
v -0.024769 11.271666 -0.017717
v -0.015890 11.271666 0.003718
v 0.005545 11.271666 0.012597
v 0.026980 11.271666 0.003718
v 0.035859 11.271666 -0.017717
v 0.026980 11.271666 -0.039153
v 0.005545 11.271666 -0.048031
v -0.015890 11.271666 -0.039153
v -0.234633 11.050227 -0.017717
v -0.164286 11.050227 -0.187549
v 0.005545 11.050227 -0.257895
v 0.175376 11.050227 -0.187549
v 0.245723 11.050227 -0.017717
v 0.175376 11.050227 0.152114
v 0.005545 11.050227 0.222460
v -0.164286 11.050227 0.152114
v -0.129511 10.906368 -0.152774
v 0.140602 10.906369 -0.152774
v 0.140602 10.906369 0.117339
v -0.129511 10.906368 0.117339
v -0.185454 10.906368 -0.017717
v 0.005545 10.906368 -0.208716
v 0.196544 10.906369 -0.017717
v 0.005545 10.906368 0.173282
v -0.154847 11.198571 -0.017717
v 0.005545 11.198571 -0.178109
v 0.165937 11.198571 -0.017717
v 0.005545 11.198571 0.142674
v -0.107869 11.198571 -0.131131
v 0.118959 11.198571 -0.131131
v 0.118959 11.198571 0.095697
v -0.107869 11.198571 0.095697
v -0.147445 11.122156 -0.170707
v 0.158535 11.122156 -0.170707
v 0.158535 11.122156 0.135273
v -0.147445 11.122156 0.135273
v -0.210816 11.122156 -0.017717
v 0.005545 11.122156 -0.234078
v 0.221906 11.122156 -0.017717
v 0.005545 11.122156 0.198643
v -0.222019 10.973812 -0.017717
v 0.005545 10.973812 -0.245281
v 0.233109 10.973812 -0.017717
v 0.005545 10.973812 0.209847
v -0.155367 10.973812 -0.178629
v 0.166457 10.973812 -0.178629
v 0.166457 10.973812 0.143195
v -0.155367 10.973812 0.143195
v -0.098165 10.851951 -0.121427
v 0.109255 10.851951 -0.121427
v 0.109255 10.851951 0.085993
v -0.098165 10.851951 0.085993
v -0.141123 10.851951 -0.017717
v 0.005545 10.851951 -0.164385
v 0.152213 10.851951 -0.017717
v 0.005545 10.851951 0.128951
v -0.106473 11.235118 -0.017717
v 0.005545 11.235118 -0.129735
v 0.117563 11.235119 -0.017717
v 0.005545 11.235118 0.094301
v -0.073664 11.235118 -0.096926
v 0.084754 11.235119 -0.096926
v 0.084754 11.235119 0.061492
v -0.073664 11.235118 0.061492
vn 0.9239 -0.0000 0.3827
vn 0.3827 -0.0000 0.9239
vn -0.3827 -0.0000 0.9239
vn -0.9239 -0.0000 0.3827
vn -0.9239 -0.0000 -0.3827
vn -0.3827 -0.0000 -0.9239
vn -0.9068 0.1913 -0.3756
vn 0.3827 -0.0000 -0.9239
vn 0.9239 -0.0000 -0.3827
vn -0.0000 -1.0000 -0.0000
vn -0.0000 1.0000 -0.0000
vn -0.3756 0.1913 0.9068
vn 0.9068 0.1913 0.3756
vn 0.9068 0.1913 -0.3756
vn -0.3756 0.1913 -0.9068
vn -0.9068 0.1913 0.3756
vn 0.3756 0.1913 0.9068
vn 0.3756 0.1913 -0.9068
vn 0.3436 0.4405 -0.8294
vn 0.3436 0.4405 0.8294
vn -0.8294 0.4405 0.3436
vn -0.3436 0.4405 -0.8294
vn 0.8294 0.4405 -0.3436
vn 0.8294 0.4405 0.3436
vn -0.3436 0.4405 0.8294
vn -0.8294 0.4405 -0.3436
vn -0.0655 -0.9853 -0.1580
vn 0.7407 0.5976 -0.3068
vn -0.0655 -0.9853 0.1580
vn 0.1580 -0.9853 0.0655
vn 0.0655 -0.9853 -0.1580
vn -0.1580 -0.9853 -0.0655
vn -0.1580 -0.9853 0.0655
vn 0.0655 -0.9853 0.1580
vn 0.1580 -0.9853 -0.0655
vn 0.0046 0.9999 -0.0112
vn -0.3068 0.5976 -0.7407
vn -0.7407 0.5976 0.3068
vn 0.3068 0.5976 0.7407
vn 0.3068 0.5976 -0.7407
vn -0.7407 0.5976 -0.3068
vn -0.3068 0.5976 0.7407
vn 0.7407 0.5976 0.3068
vn -0.0112 0.9999 -0.0046
vn -0.0112 0.9999 0.0046
vn 0.0046 0.9999 0.0112
vn 0.0112 0.9999 -0.0046
vn -0.0046 0.9999 -0.0112
vn -0.0046 0.9999 0.0112
vn 0.0112 0.9999 0.0046
vn -0.1617 0.9846 -0.0670
vn 0.1617 0.9846 -0.0670
vn 0.1617 0.9846 0.0670
vn -0.0670 0.9846 0.1617
vn -0.0670 0.9846 -0.1617
vn -0.1617 0.9846 0.0670
vn 0.0670 0.9846 -0.1617
vn 0.0670 0.9846 0.1617
vn 0.8458 -0.3786 -0.3758
vn 0.4317 -0.9020 -0.0003
vn -0.1872 -0.9166 0.3534
vn -0.7369 -0.4197 0.5299
vn -0.8458 0.3786 0.3758
vn -0.4317 0.9020 0.0003
vn 0.4479 0.4026 0.7983
vn 0.1872 0.9165 -0.3534
vn 0.7369 0.4197 -0.5299
vn -0.4479 -0.4026 -0.7983
vn 0.7021 0.3877 -0.5973
vn 0.1049 0.8537 -0.5102
vn -0.5231 0.8387 -0.1514
vn -0.8850 0.3465 0.3111
vn -0.7021 -0.3877 0.5973
vn -0.1049 -0.8536 0.5102
vn 0.5231 -0.8387 0.1514
vn 0.8850 -0.3465 -0.3111
vn 0.3780 -0.3786 0.8449
vn 0.3209 -0.9020 0.2887
vn 0.0970 -0.9166 -0.3879
vn -0.1940 -0.4197 -0.8867
vn -0.3780 0.3786 -0.8449
vn -0.3209 0.9020 -0.2887
vn 0.8667 0.4026 -0.2944
vn -0.0970 0.9165 0.3880
vn 0.1940 0.4197 0.8867
vn -0.8667 -0.4026 0.2944
vn 0.1230 0.3877 0.9136
vn -0.2630 0.8537 0.4496
vn -0.4903 0.8387 -0.2370
vn -0.4503 0.3465 -0.8229
vn -0.1230 -0.3877 -0.9136
vn 0.2630 -0.8536 -0.4496
vn 0.4903 -0.8387 0.2370
vn 0.4503 -0.3465 0.8229
vn -0.3780 -0.3786 -0.8449
vn -0.3209 -0.9020 -0.2887
vn -0.0970 -0.9166 0.3880
vn 0.1940 -0.4197 0.8867
vn 0.3780 0.3786 0.8449
vn 0.3209 0.9020 0.2887
vn -0.8667 0.4026 0.2944
vn 0.0970 0.9166 -0.3880
vn -0.1940 0.4197 -0.8867
vn 0.8667 -0.4026 -0.2944
vn -0.1230 0.3877 -0.9135
vn 0.2630 0.8537 -0.4496
vn 0.4903 0.8387 0.2370
vn 0.4503 0.3465 0.8229
vn 0.1230 -0.3877 0.9136
vn -0.2630 -0.8537 0.4496
vn -0.4903 -0.8387 -0.2370
vn -0.4503 -0.3464 -0.8229
vn -0.8459 -0.3786 0.3758
vn -0.4317 -0.9020 0.0003
vn 0.1872 -0.9166 -0.3534
vn 0.7369 -0.4197 -0.5299
vn 0.8459 0.3786 -0.3758
vn 0.4317 0.9020 -0.0003
vn -0.4479 0.4026 -0.7983
vn -0.1872 0.9166 0.3534
vn -0.7369 0.4197 0.5299
vn 0.4479 -0.4026 0.7983
vn -0.7021 0.3877 0.5973
vn -0.1049 0.8537 0.5102
vn 0.5231 0.8387 0.1515
vn 0.8850 0.3465 -0.3111
vn 0.7021 -0.3877 -0.5973
vn 0.1049 -0.8537 -0.5102
vn -0.5231 -0.8387 -0.1514
vn -0.8850 -0.3465 0.3111
vn 0.8378 0.4215 0.3470
vn 0.3470 0.4215 0.8378
vn -0.3470 0.4215 0.8378
vn -0.8378 0.4215 0.3470
vn -0.8378 0.4215 -0.3470
vn -0.3470 0.4215 -0.8378
vn 0.3470 0.4215 -0.8378
vn 0.8378 0.4215 -0.3470
vn 0.3605 0.3352 0.8704
vn -0.3571 -0.3598 0.8620
vn -0.8704 0.3352 -0.3605
vn 0.8704 0.3352 -0.3605
vn 0.8704 0.3352 0.3605
vn -0.3605 0.3352 0.8704
vn -0.3605 0.3352 -0.8704
vn -0.8704 0.3352 0.3605
vn 0.3605 0.3352 -0.8704
vn 0.3534 0.3839 -0.8531
vn -0.8531 0.3839 0.3534
vn -0.3534 0.3839 -0.8531
vn -0.3534 0.3839 0.8531
vn 0.8531 0.3839 0.3534
vn 0.8531 0.3839 -0.3534
vn -0.8531 0.3839 -0.3534
vn 0.3534 0.3839 0.8531
vn 0.3407 0.4555 0.8225
vn -0.8225 0.4555 -0.3407
vn 0.8225 0.4555 -0.3407
vn 0.8225 0.4555 0.3407
vn -0.3407 0.4555 0.8225
vn -0.3407 0.4555 -0.8225
vn -0.8225 0.4555 0.3407
vn 0.3407 0.4555 -0.8225
vn 0.3237 -0.9366 0.1341
vn 0.1341 -0.9366 0.3237
vn -0.1341 -0.9366 0.3237
vn -0.3237 -0.9366 0.1341
vn -0.3237 -0.9366 -0.1341
vn -0.1341 -0.9366 -0.3237
vn 0.1341 -0.9366 -0.3237
vn 0.3237 -0.9366 -0.1341
vn 0.8620 -0.3598 0.3571
vn 0.3571 -0.3598 -0.8620
vn -0.8620 -0.3598 -0.3571
vn -0.8620 -0.3598 0.3571
vn 0.3571 -0.3598 0.8620
vn 0.8620 -0.3598 -0.3571
vn -0.3571 -0.3598 -0.8620
vn -0.9227 -0.0502 0.3822
vn -0.3822 -0.0502 0.9227
vn 0.3822 -0.0502 0.9227
vn 0.9227 -0.0502 0.3822
vn 0.9227 -0.0502 -0.3822
vn 0.3822 -0.0502 -0.9227
vn -0.3822 -0.0502 -0.9227
vn -0.9227 -0.0502 -0.3822
vn -0.3654 -0.2974 0.8821
vn -0.9165 -0.1258 0.3797
vn -0.3796 -0.1258 0.9165
vn 0.3796 -0.1258 0.9165
vn 0.9165 -0.1258 0.3796
vn 0.9165 -0.1258 -0.3797
vn 0.3796 -0.1258 -0.9165
vn -0.3796 -0.1258 -0.9165
vn -0.9165 -0.1258 -0.3797
vn -0.0000 1.0000 0.0001
vn -0.0000 1.0000 -0.0001
vn -0.4026 0.9001 -0.1668
vn -0.3654 -0.2974 -0.8821
vn 0.8821 -0.2974 -0.3654
vn 0.3654 -0.2974 0.8821
vn -0.8821 -0.2974 0.3654
vn -0.8821 -0.2974 -0.3654
vn 0.3654 -0.2974 -0.8821
vn 0.8821 -0.2974 0.3654
vn 0.1668 0.9001 -0.4026
vn 0.4026 0.9001 0.1668
vn -0.1668 0.9001 0.4026
vn -0.1668 0.9001 -0.4026
vn 0.4026 0.9001 -0.1668
vn 0.1668 0.9001 0.4026
vn -0.4026 0.9001 0.1668
vn -0.9133 -0.1508 0.3783
vn 0.3783 -0.1508 0.9133
vn 0.9133 -0.1508 -0.3783
vn -0.3783 -0.1508 -0.9133
vn -0.3783 -0.1508 0.9133
vn 0.9133 -0.1508 0.3783
vn 0.3783 -0.1508 -0.9133
vn -0.9133 -0.1508 -0.3783
vn -0.7382 -0.6013 -0.3058
vn 0.3058 -0.6013 -0.7382
vn 0.7382 -0.6013 0.3058
vn -0.3058 -0.6013 0.7382
vn -0.3058 -0.6013 -0.7382
vn 0.7382 -0.6013 -0.3058
vn 0.3058 -0.6013 0.7382
vn -0.7382 -0.6013 0.3058
vn -0.7652 0.5604 0.3169
vn 0.3169 0.5604 0.7652
vn 0.7652 0.5604 -0.3169
vn -0.3169 0.5604 -0.7652
vn -0.3169 0.5604 0.7652
vn 0.7652 0.5604 0.3169
vn 0.3169 0.5604 -0.7652
vn -0.7652 0.5604 -0.3169
vn -0.8835 0.2925 -0.3659
vn 0.3659 0.2925 -0.8835
vn 0.8835 0.2925 0.3659
vn -0.3659 0.2925 0.8835
vn -0.3659 0.2925 -0.8835
vn 0.8835 0.2925 -0.3659
vn 0.3659 0.2925 0.8835
vn -0.8835 0.2925 0.3659
vn -0.8261 -0.4479 -0.3422
vn 0.3422 -0.4478 -0.8260
vn 0.8260 -0.4479 0.3422
vn -0.3422 -0.4479 0.8260
vn -0.3422 -0.4479 -0.8260
vn 0.8260 -0.4479 -0.3422
vn 0.3422 -0.4478 0.8260
vn -0.8261 -0.4479 0.3422
vn -0.7572 -0.5730 0.3136
vn 0.3136 -0.5730 0.7572
vn 0.7572 -0.5730 -0.3136
vn -0.3136 -0.5730 -0.7572
vn -0.3136 -0.5730 0.7572
vn 0.7572 -0.5730 0.3136
vn 0.3136 -0.5730 -0.7572
vn -0.7572 -0.5730 -0.3136
vn -0.5849 0.7741 0.2423
vn 0.2423 0.7741 0.5848
vn 0.5849 0.7741 -0.2423
vn -0.2423 0.7741 -0.5849
vn -0.2423 0.7741 0.5849
vn 0.5849 0.7741 0.2423
vn 0.2423 0.7741 -0.5848
vn -0.5849 0.7741 -0.2422
vt 0.004449 0.023391
vt 0.017106 0.023391
vt 0.017106 0.028235
vt 0.004449 0.028235
vt 0.017106 0.033078
vt 0.004449 0.033078
vt 0.017106 0.037922
vt 0.004449 0.037922
vt 0.017106 0.042765
vt 0.004449 0.042765
vt 0.004449 0.004017
vt 0.017106 0.004017
vt 0.017106 0.008861
vt 0.004449 0.008861
vt 0.017106 0.013704
vt 0.004449 0.013704
vt 0.744667 0.015650
vt 0.745643 0.015674
vt 0.745382 0.030192
vt 0.744566 0.030187
vt 0.017106 0.018548
vt 0.004449 0.018548
vt 0.098360 0.013681
vt 0.094935 0.017106
vt 0.090091 0.017106
vt 0.086666 0.013681
vt 0.086666 0.008838
vt 0.090091 0.005413
vt 0.094935 0.005413
vt 0.098360 0.008838
vt 0.009180 0.053543
vt 0.009648 0.054672
vt 0.006303 0.058018
vt 0.004449 0.053543
vt 0.010778 0.055140
vt 0.010778 0.059871
vt 0.011907 0.054672
vt 0.015253 0.058018
vt 0.012375 0.053543
vt 0.017106 0.053543
vt 0.070649 0.012375
vt 0.071778 0.011907
vt 0.075124 0.015253
vt 0.070649 0.017106
vt 0.072246 0.010778
vt 0.076977 0.010778
vt 0.071778 0.009648
vt 0.075124 0.006303
vt 0.070649 0.009180
vt 0.070649 0.004449
vt 0.742935 0.030189
vt 0.743751 0.030186
vt 0.744860 0.592669
vt 0.744138 0.592754
vt 0.729883 0.015406
vt 0.730856 0.015390
vt 0.730892 0.029915
vt 0.730076 0.029918
vt 0.731830 0.015396
vt 0.732803 0.015421
vt 0.732524 0.029921
vt 0.731708 0.029916
vt 0.741743 0.015698
vt 0.742717 0.015662
vt 0.742177 0.030198
vt 0.743692 0.015646
vt 0.728912 0.015441
vt 0.729317 0.029927
vt 0.742311 0.004050
vt 0.743625 0.004023
vt 0.730801 0.003794
vt 0.732112 0.003806
vt 0.728177 0.003883
vt 0.729490 0.003819
vt 0.744938 0.004035
vt 0.740995 0.004115
vt 0.733421 0.003857
vt 0.746251 0.004085
vt 0.008065 0.113457
vt 0.008553 0.113457
vt 0.008553 0.423374
vt 0.008065 0.423374
vt 0.746251 0.592991
vt 0.745537 0.592726
vt 0.732038 0.592622
vt 0.731329 0.592706
vt 0.733421 0.592947
vt 0.732710 0.592680
vt 0.743369 0.593057
vt 0.730542 0.593035
vt 0.733147 0.593221
vt 0.732625 0.593005
vt 0.732037 0.592980
vt 0.731430 0.593079
vt 0.730868 0.593366
vt 0.745977 0.593267
vt 0.745453 0.593053
vt 0.744861 0.593033
vt 0.744243 0.593142
vt 0.743664 0.593366
vt 0.068588 0.031158
vt 0.068240 0.030816
vt 0.070442 0.027707
vt 0.071653 0.028893
vt 0.497725 0.190434
vt 0.498213 0.190434
vt 0.498213 0.500352
vt 0.497725 0.500352
vt 0.006111 0.113457
vt 0.006599 0.113457
vt 0.006599 0.423374
vt 0.006111 0.423374
vt 0.007088 0.113457
vt 0.007576 0.113457
vt 0.007576 0.423374
vt 0.007088 0.423374
vt 0.497236 0.190434
vt 0.497236 0.500352
vt 0.005622 0.113457
vt 0.005622 0.423374
vt 0.023521 0.251891
vt 0.021831 0.252160
vt 0.020970 0.245714
vt 0.022280 0.245090
vt 0.029578 0.043154
vt 0.030012 0.042930
vt 0.032277 0.045994
vt 0.030770 0.046773
vt 0.030354 0.042581
vt 0.030570 0.042142
vt 0.034212 0.043262
vt 0.033463 0.044783
vt 0.068813 0.031592
vt 0.072432 0.030400
vt 0.067801 0.030600
vt 0.068921 0.026958
vt 0.029096 0.043231
vt 0.029096 0.047042
vt 0.068890 0.032074
vt 0.072701 0.032074
vt 0.118478 0.010279
vt 0.118324 0.009075
vt 0.119198 0.009081
vt 0.119233 0.010036
vt 0.019951 0.252314
vt 0.018046 0.252278
vt 0.018575 0.245691
vt 0.019766 0.245868
vt 0.112301 0.012830
vt 0.112031 0.011140
vt 0.119102 0.011589
vt 0.111878 0.009260
vt 0.111913 0.007355
vt 0.118501 0.007883
vt 0.016133 0.252051
vt 0.017307 0.245074
vt 0.112141 0.005442
vt 0.119118 0.006615
vt 0.016597 0.174755
vt 0.017477 0.174782
vt 0.017258 0.178527
vt 0.016604 0.178574
vt 0.119742 0.007370
vt 0.119241 0.008130
vt 0.020727 0.244958
vt 0.021509 0.244449
vt 0.018822 0.244951
vt 0.019772 0.244993
vt 0.119742 0.010818
vt 0.018061 0.244449
vt 0.016299 0.149115
vt 0.016500 0.149115
vt 0.016500 0.153954
vt 0.016299 0.153954
vt 0.018358 0.174857
vt 0.019244 0.174980
vt 0.018560 0.179149
vt 0.017872 0.178685
vt 0.018724 0.196195
vt 0.019604 0.196174
vt 0.019572 0.199929
vt 0.018922 0.200007
vt 0.020489 0.196202
vt 0.021383 0.196277
vt 0.020923 0.200487
vt 0.020208 0.200059
vt 0.015786 0.174755
vt 0.015786 0.178948
vt 0.017918 0.196238
vt 0.018140 0.200401
vt 0.020030 0.200996
vt 0.019815 0.200829
vt 0.019538 0.200799
vt 0.019259 0.200809
vt 0.019057 0.200996
vt 0.017618 0.179603
vt 0.017451 0.179400
vt 0.017187 0.179356
vt 0.016926 0.179427
vt 0.016708 0.179613
vt 0.025314 0.003789
vt 0.025516 0.003789
vt 0.025659 0.003932
vt 0.025659 0.004134
vt 0.025516 0.004277
vt 0.025314 0.004277
vt 0.025172 0.004134
vt 0.025172 0.003932
vt 0.016702 0.149115
vt 0.016904 0.149115
vt 0.016904 0.153954
vt 0.016702 0.153954
vt 0.016299 0.213263
vt 0.016500 0.213263
vt 0.016500 0.218102
vt 0.016299 0.218102
vt 0.016702 0.213263
vt 0.016904 0.213263
vt 0.016904 0.218102
vt 0.016702 0.218102
vt 0.017106 0.149115
vt 0.017106 0.153954
vt 0.017106 0.213263
vt 0.017106 0.218102
vt 0.910896 0.142052
vt 0.756466 0.142052
vt 0.756466 0.096051
vt 0.910896 0.096051
vt 0.756466 0.050050
vt 0.910896 0.050050
vt 0.756466 0.004049
vt 0.910896 0.004049
vt 0.910896 0.372056
vt 0.756466 0.372056
vt 0.756466 0.326055
vt 0.910896 0.326055
vt 0.756466 0.280055
vt 0.910896 0.280055
vt 0.756466 0.234054
vt 0.910896 0.234054
vt 0.868131 0.413270
vt 0.868131 0.459271
vt 0.835604 0.491798
vt 0.789603 0.491798
vt 0.757075 0.459271
vt 0.757075 0.413270
vt 0.789603 0.380743
vt 0.835604 0.380743
vt 0.756466 0.188053
vt 0.910896 0.188053
vt 0.892274 0.615879
vt 0.847205 0.653111
vt 0.794978 0.609880
vt 0.866992 0.555030
vt 0.786116 0.845099
vt 0.838698 0.889033
vt 0.827882 0.912973
vt 0.763684 0.863912
vt 0.815490 0.764659
vt 0.830924 0.813164
vt 0.754410 0.775275
vt 0.862140 0.846037
vt 0.900260 0.859923
vt 0.937934 0.849195
vt 0.967322 0.893159
vt 0.899020 0.904122
vt 0.823572 0.707677
vt 0.755218 0.690182
vt 0.950696 0.608390
vt 0.970768 0.534489
vt 0.270811 0.774862
vt 0.335706 0.839756
vt 0.335706 0.931532
vt 0.270811 0.996427
vt 0.179036 0.996427
vt 0.114141 0.931532
vt 0.114141 0.839756
vt 0.179036 0.774861
vt 0.722905 0.783417
vt 0.720687 0.683667
vt 0.765619 0.588259
vt 0.849411 0.520962
vt 0.961455 0.492222
vt 0.898763 0.928002
vt 0.970767 0.918025
vt 0.526278 0.313144
vt 0.525969 0.591910
vt 0.517964 0.592935
vt 0.518145 0.313392
vt 0.509750 0.593366
vt 0.509947 0.313493
vt 0.574994 0.313493
vt 0.575190 0.593366
vt 0.566977 0.592937
vt 0.566796 0.313393
vt 0.558972 0.591914
vt 0.558663 0.313145
vt 0.550826 0.590872
vt 0.550570 0.312903
vt 0.542471 0.590433
vt 0.542471 0.312806
vt 0.372056 0.314960
vt 0.366278 0.320738
vt 0.358106 0.320731
vt 0.352326 0.314942
vt 0.352326 0.306762
vt 0.358104 0.300984
vt 0.366277 0.300991
vt 0.372056 0.306780
vt 0.534115 0.590870
vt 0.534371 0.312902
vt 0.362001 0.292941
vt 0.353829 0.292934
vt 0.348050 0.287145
vt 0.348050 0.278965
vt 0.353829 0.273186
vt 0.362001 0.273194
vt 0.367779 0.278983
vt 0.367780 0.287162
vt 0.534140 0.005132
vt 0.525978 0.004574
vt 0.542471 0.005366
vt 0.550802 0.005131
vt 0.558963 0.004572
vt 0.566983 0.004023
vt 0.575173 0.003794
vt 0.517958 0.004024
vt 0.509769 0.003794
vt 0.631363 0.313144
vt 0.639496 0.313392
vt 0.639677 0.592935
vt 0.631672 0.591910
vt 0.647694 0.313493
vt 0.647891 0.593366
vt 0.582647 0.313493
vt 0.590845 0.313393
vt 0.590665 0.592937
vt 0.582451 0.593366
vt 0.598978 0.313145
vt 0.598670 0.591914
vt 0.607071 0.312903
vt 0.606816 0.590872
vt 0.615171 0.312806
vt 0.615170 0.590433
vt 0.385908 0.487522
vt 0.380125 0.481738
vt 0.380117 0.473558
vt 0.385891 0.467774
vt 0.394063 0.467775
vt 0.399847 0.473559
vt 0.399854 0.481738
vt 0.394081 0.487522
vt 0.623270 0.312903
vt 0.623526 0.590870
vt 0.357725 0.057223
vt 0.363503 0.063001
vt 0.363503 0.071181
vt 0.357725 0.076970
vt 0.349552 0.076977
vt 0.343774 0.071199
vt 0.343774 0.063019
vt 0.349553 0.057230
vt 0.623501 0.005132
vt 0.631663 0.004574
vt 0.615170 0.005366
vt 0.606839 0.005131
vt 0.598678 0.004572
vt 0.590658 0.004023
vt 0.582469 0.003794
vt 0.639683 0.004024
vt 0.647873 0.003794
vt 0.671680 0.284015
vt 0.663547 0.283767
vt 0.663365 0.004224
vt 0.671370 0.005249
vt 0.655349 0.283666
vt 0.655152 0.003794
vt 0.720396 0.283666
vt 0.712198 0.283766
vt 0.712378 0.004222
vt 0.720592 0.003794
vt 0.704064 0.284014
vt 0.704373 0.005246
vt 0.695972 0.284256
vt 0.696227 0.006287
vt 0.687872 0.284353
vt 0.687872 0.006727
vt 0.395577 0.503494
vt 0.395570 0.511673
vt 0.389786 0.517458
vt 0.381614 0.517457
vt 0.375841 0.511673
vt 0.375848 0.503494
vt 0.381632 0.497710
vt 0.389804 0.497710
vt 0.679772 0.284257
vt 0.679517 0.006290
vt 0.479973 0.510540
vt 0.488146 0.510540
vt 0.493930 0.516324
vt 0.493937 0.524503
vt 0.488164 0.530287
vt 0.479991 0.530287
vt 0.474208 0.524503
vt 0.474200 0.516324
vt 0.679541 0.592027
vt 0.671380 0.592585
vt 0.687872 0.591793
vt 0.696203 0.592029
vt 0.704364 0.592587
vt 0.712384 0.593136
vt 0.720574 0.593366
vt 0.663360 0.593135
vt 0.655170 0.593366
vt 0.284015 0.619292
vt 0.005249 0.618983
vt 0.004224 0.610978
vt 0.283767 0.611159
vt 0.003794 0.602764
vt 0.283666 0.602961
vt 0.283666 0.668008
vt 0.003794 0.668205
vt 0.004222 0.659991
vt 0.283766 0.659810
vt 0.005246 0.651986
vt 0.284014 0.651677
vt 0.006287 0.643840
vt 0.284256 0.643584
vt 0.006727 0.635485
vt 0.284353 0.635484
vt 0.350666 0.035229
vt 0.350674 0.043401
vt 0.344896 0.049179
vt 0.336716 0.049180
vt 0.330926 0.043402
vt 0.330919 0.035230
vt 0.336697 0.029451
vt 0.344876 0.029451
vt 0.006290 0.627129
vt 0.284257 0.627385
vt 0.370922 0.326650
vt 0.379094 0.326650
vt 0.384878 0.332434
vt 0.384886 0.340613
vt 0.379112 0.346397
vt 0.370940 0.346397
vt 0.365156 0.340613
vt 0.365149 0.332433
vt 0.592028 0.627153
vt 0.592585 0.618992
vt 0.591794 0.635485
vt 0.592029 0.643816
vt 0.592587 0.651977
vt 0.593137 0.659996
vt 0.593366 0.668186
vt 0.593135 0.610972
vt 0.593366 0.602782
vt 0.460883 0.578650
vt 0.459788 0.593366
vt 0.454425 0.593017
vt 0.455247 0.578277
vt 0.449055 0.592767
vt 0.449603 0.578012
vt 0.443681 0.592618
vt 0.443955 0.577856
vt 0.438304 0.592569
vt 0.438306 0.577808
vt 0.432928 0.592618
vt 0.432657 0.577854
vt 0.427553 0.592767
vt 0.427006 0.578008
vt 0.422181 0.593017
vt 0.421360 0.578270
vt 0.416814 0.593366
vt 0.415722 0.578641
vt 0.473440 0.251888
vt 0.461829 0.251362
vt 0.470840 0.011962
vt 0.485530 0.012393
vt 0.709900 0.700647
vt 0.709792 0.714897
vt 0.121899 0.705989
vt 0.121939 0.700647
vt 0.438150 0.250748
vt 0.426622 0.250913
vt 0.420945 0.011118
vt 0.435741 0.010157
vt 0.403385 0.251757
vt 0.391778 0.252438
vt 0.376723 0.012325
vt 0.391572 0.012157
vt 0.484944 0.252577
vt 0.500351 0.012533
vt 0.450212 0.251008
vt 0.456176 0.011234
vt 0.415002 0.251248
vt 0.406260 0.011781
vt 0.438589 0.250828
vt 0.441361 0.010296
vt 0.421008 0.415323
vt 0.412101 0.415733
vt 0.446759 0.415129
vt 0.437842 0.415040
vt 0.429922 0.415076
vt 0.455669 0.415380
vt 0.473469 0.416369
vt 0.464574 0.415794
vt 0.403199 0.416305
vt 0.438837 0.414991
vt 0.485672 0.006051
vt 0.500054 0.006132
vt 0.471093 0.005492
vt 0.456542 0.004925
vt 0.442143 0.003839
vt 0.420616 0.004780
vt 0.434970 0.003794
vt 0.406028 0.005307
vt 0.391466 0.005835
vt 0.377022 0.005826
vt 0.709469 0.672149
vt 0.709792 0.686396
vt 0.121899 0.695305
vt 0.121777 0.689964
vt 0.004173 0.744481
vt 0.004281 0.730231
vt 0.592175 0.739139
vt 0.592135 0.744481
vt 0.004605 0.772979
vt 0.004281 0.758732
vt 0.592175 0.749823
vt 0.592296 0.755164
vt 0.709469 0.729145
vt 0.121777 0.711330
vt 0.004605 0.715983
vt 0.592296 0.733798
vt 0.377598 0.929319
vt 0.416623 0.787695
vt 0.460154 0.822076
vt 0.430535 0.925307
vt 0.495226 0.836532
vt 0.474788 0.928804
vt 0.527295 0.843102
vt 0.515294 0.931644
vt 0.558000 0.845546
vt 0.554120 0.932058
vt 0.588151 0.843476
vt 0.592065 0.929778
vt 0.618204 0.837566
vt 0.629763 0.925266
vt 0.037731 0.005039
vt 0.050700 0.005039
vt 0.059871 0.014210
vt 0.059871 0.027179
vt 0.050700 0.036350
vt 0.037731 0.036350
vt 0.028560 0.027179
vt 0.028560 0.014210
vt 0.649624 0.824676
vt 0.668537 0.920502
vt 0.683870 0.798896
vt 0.716315 0.922559
vt 0.023072 0.455065
vt 0.033736 0.404483
vt 0.071202 0.409391
vt 0.059131 0.466236
vt 0.465351 0.765881
vt 0.485990 0.785388
vt 0.507437 0.800536
vt 0.533904 0.801423
vt 0.558758 0.809560
vt 0.583046 0.803496
vt 0.608278 0.804363
vt 0.627821 0.792304
vt 0.645873 0.777903
vt 0.717016 0.639338
vt 0.704899 0.634714
vt 0.712488 0.611222
vt 0.727006 0.616762
vt 0.692366 0.631375
vt 0.697472 0.607221
vt 0.679554 0.629357
vt 0.682121 0.604803
vt 0.666602 0.628682
vt 0.666602 0.603994
vt 0.653650 0.629357
vt 0.651083 0.604803
vt 0.640839 0.631375
vt 0.635733 0.607221
vt 0.628306 0.634714
vt 0.620717 0.611222
vt 0.616189 0.639338
vt 0.606198 0.616762
vt 0.430453 0.935748
vt 0.383410 0.940832
vt 0.473915 0.938317
vt 0.514748 0.940677
vt 0.554144 0.940832
vt 0.592641 0.938402
vt 0.630620 0.933854
vt 0.668697 0.929161
vt 0.711648 0.932007
vt 0.319085 0.196627
vt 0.373428 0.172428
vt 0.370474 0.247932
vt 0.351867 0.254052
vt 0.030009 0.186489
vt 0.021740 0.129744
vt 0.062834 0.120959
vt 0.071433 0.184307
vt 0.033628 0.299050
vt 0.030874 0.243255
vt 0.069278 0.243091
vt 0.071656 0.298759
vt 0.035238 0.352858
vt 0.072053 0.353766
vt 0.003832 0.503280
vt 0.037914 0.521999
vt 0.003832 0.074375
vt 0.043158 0.056369
vt 0.308504 0.004815
vt 0.320681 0.004815
vt 0.329291 0.013425
vt 0.329291 0.025602
vt 0.320681 0.034212
vt 0.308504 0.034212
vt 0.299894 0.025602
vt 0.299894 0.013425
vt 0.273416 0.266688
vt 0.288437 0.230791
vt 0.339831 0.268529
vt 0.334528 0.286600
vt 0.273560 0.340297
vt 0.268603 0.303179
vt 0.334845 0.305808
vt 0.340212 0.324745
vt 0.320020 0.418266
vt 0.288699 0.378546
vt 0.350402 0.342034
vt 0.365617 0.355849
vt 0.379857 0.454509
vt 0.385955 0.362567
vt 0.182622 0.593366
vt 0.181806 0.484207
vt 0.216930 0.478504
vt 0.244294 0.592807
vt 0.175317 0.413448
vt 0.170732 0.355186
vt 0.194665 0.353001
vt 0.202571 0.409304
vt 0.169507 0.301576
vt 0.172667 0.247683
vt 0.196735 0.250176
vt 0.192760 0.301558
vt 0.181066 0.188941
vt 0.195791 0.117847
vt 0.231009 0.127813
vt 0.208386 0.194479
vt 0.218769 0.003794
vt 0.280481 0.022100
vt 0.112638 0.114108
vt 0.096920 0.029603
vt 0.152950 0.007623
vt 0.156058 0.113151
vt 0.112210 0.243578
vt 0.115792 0.183152
vt 0.149926 0.184457
vt 0.145193 0.245076
vt 0.111585 0.356290
vt 0.113341 0.300728
vt 0.142944 0.300793
vt 0.143612 0.355805
vt 0.103909 0.477618
vt 0.112252 0.413385
vt 0.144889 0.414535
vt 0.144153 0.483272
vt 0.080654 0.550554
vt 0.126718 0.576080
vt 0.303337 0.567770
vt 0.250396 0.466604
vt 0.293189 0.442915
vt 0.356768 0.504265
vt 0.228569 0.403021
vt 0.217355 0.350028
vt 0.249258 0.344918
vt 0.262516 0.390683
vt 0.214808 0.301626
vt 0.219306 0.253485
vt 0.250406 0.259792
vt 0.244700 0.302049
vt 0.233646 0.202074
vt 0.261827 0.143069
vt 0.298606 0.170986
vt 0.265507 0.216561
vt 0.327024 0.060130
vt 0.364364 0.126290
s 0
usemtl Материал
f 1/1/1 18/2/1 17/3/1 3/4/1
f 3/4/2 17/3/2 19/5/2 5/6/2
f 5/6/3 19/5/3 20/7/3 7/8/3
f 7/8/4 20/7/4 21/9/4 9/10/4
f 9/11/5 21/12/5 22/13/5 11/14/5
f 11/14/6 22/13/6 23/15/6 13/16/6
f 34/17/7 33/18/7 29/19/7 30/20/7
f 13/16/8 23/15/8 24/21/8 15/22/8
f 15/22/9 24/21/9 18/2/9 1/1/9
f 1/23/10 3/24/10 5/25/10 7/26/10 9/27/10 11/28/10 13/29/10 15/30/10
f 2/31/11 4/32/11 17/33/11 18/34/11
f 4/32/11 6/35/11 19/36/11 17/33/11
f 6/35/11 8/37/11 20/38/11 19/36/11
f 8/37/11 10/39/11 21/40/11 20/38/11
f 10/41/11 12/42/11 22/43/11 21/44/11
f 12/42/11 14/45/11 23/46/11 22/43/11
f 14/45/11 16/47/11 24/48/11 23/46/11
f 16/47/11 2/49/11 18/50/11 24/48/11
f 32/51/8 31/52/8 55/53/8 56/54/8
f 36/55/12 35/56/12 27/57/12 28/58/12
f 38/59/13 37/60/13 26/61/13 25/62/13
f 37/63/14 39/64/14 32/51/14 26/65/14
f 40/66/15 34/17/15 30/20/15 31/52/15
f 33/67/16 36/55/16 28/58/16 29/68/16
f 35/56/17 38/59/17 25/62/17 27/57/17
f 39/64/18 40/66/18 31/52/18 32/51/18
f 16/69/19 14/70/19 40/66/19 39/64/19
f 6/71/20 4/72/20 38/59/20 35/56/20
f 10/73/21 8/74/21 36/55/21 33/67/21
f 14/70/22 12/75/22 34/17/22 40/66/22
f 2/76/23 16/69/23 39/64/23 37/63/23
f 4/72/24 2/77/24 37/60/24 38/59/24
f 8/74/25 6/71/25 35/56/25 36/55/25
f 12/75/26 10/78/26 33/18/26 34/17/26
f 48/79/8 47/80/8 63/81/8 64/82/8
f 30/20/5 29/19/5 53/83/5 54/84/5
f 28/58/3 27/57/3 51/85/3 52/86/3
f 25/62/1 26/61/1 50/87/1 49/88/1
f 26/65/9 32/51/9 56/54/9 50/89/9
f 31/52/6 30/20/6 54/84/6 55/53/6
f 29/68/4 28/58/4 52/86/4 53/90/4
f 27/57/2 25/62/2 49/88/2 51/85/2
f 42/91/11 41/92/11 49/88/11 50/87/11
f 41/92/11 43/93/11 51/85/11 49/88/11
f 43/93/11 44/94/11 52/86/11 51/85/11
f 44/94/11 45/95/11 53/90/11 52/86/11
f 45/96/11 46/97/11 54/84/11 53/83/11
f 46/97/11 47/98/11 55/53/11 54/84/11
f 47/98/11 48/99/11 56/54/11 55/53/11
f 48/99/11 42/100/11 50/89/11 56/54/11
f 59/101/27 57/102/27 65/103/27 67/104/27
f 46/105/5 45/106/5 61/107/5 62/108/5
f 44/109/3 43/110/3 59/111/3 60/112/3
f 41/113/1 42/114/1 58/115/1 57/116/1
f 42/114/9 48/79/9 64/82/9 58/115/9
f 47/117/6 46/105/6 62/108/6 63/118/6
f 45/119/4 44/109/4 60/112/4 61/120/4
f 43/110/2 41/113/2 57/116/2 59/111/2
f 66/121/28 72/122/28 80/123/28 74/124/28
f 64/125/29 63/126/29 71/127/29 72/128/29
f 62/129/30 61/130/30 69/131/30 70/132/30
f 60/133/31 59/101/31 67/104/31 68/134/31
f 57/102/32 58/135/32 66/136/32 65/103/32
f 58/137/33 64/125/33 72/128/33 66/138/33
f 63/126/34 62/129/34 70/132/34 71/127/34
f 61/139/35 60/133/35 68/134/35 69/140/35
f 76/141/36 75/142/36 83/143/36 84/144/36
f 71/145/37 70/146/37 78/147/37 79/148/37
f 69/149/38 68/150/38 76/141/38 77/151/38
f 67/152/39 65/153/39 73/154/39 75/142/39
f 72/122/40 71/145/40 79/148/40 80/123/40
f 70/146/41 69/155/41 77/156/41 78/147/41
f 68/150/42 67/152/42 75/142/42 76/141/42
f 65/153/43 66/157/43 74/158/43 73/154/43
f 88/159/8 87/160/8 103/161/8 104/162/8
f 73/154/44 74/158/44 82/163/44 81/164/44
f 74/124/45 80/123/45 88/165/45 82/166/45
f 79/148/46 78/147/46 86/167/46 87/168/46
f 77/151/47 76/141/47 84/144/47 85/169/47
f 75/142/48 73/154/48 81/164/48 83/143/48
f 80/123/49 79/148/49 87/168/49 88/165/49
f 78/147/50 77/156/50 85/170/50 86/167/50
f 90/171/9 96/172/9 112/173/9 106/174/9
f 86/175/5 85/176/5 101/177/5 102/178/5
f 84/179/3 83/180/3 99/181/3 100/182/3
f 81/183/1 82/184/1 98/185/1 97/186/1
f 82/187/9 88/159/9 104/162/9 98/188/9
f 87/160/6 86/175/6 102/178/6 103/161/6
f 85/189/4 84/179/4 100/182/4 101/190/4
f 83/180/2 81/183/2 97/186/2 99/181/2
f 90/191/11 89/192/11 97/186/11 98/185/11
f 89/192/11 91/193/11 99/181/11 97/186/11
f 91/193/11 92/194/11 100/182/11 99/181/11
f 92/194/11 93/195/11 101/190/11 100/182/11
f 93/196/11 94/197/11 102/178/11 101/177/11
f 94/197/11 95/198/11 103/161/11 102/178/11
f 95/198/11 96/199/11 104/162/11 103/161/11
f 96/199/11 90/200/11 98/188/11 104/162/11
f 105/201/11 106/202/11 112/203/11 111/204/11 110/205/11 109/206/11 108/207/11 107/208/11
f 95/209/6 94/210/6 110/211/6 111/212/6
f 93/213/4 92/214/4 108/215/4 109/216/4
f 91/217/2 89/218/2 105/219/2 107/220/2
f 96/172/8 95/209/8 111/212/8 112/173/8
f 94/210/5 93/221/5 109/222/5 110/211/5
f 92/214/3 91/217/3 107/220/3 108/215/3
f 89/218/1 90/223/1 106/224/1 105/219/1
f 113/225/1 114/226/1 116/227/1 115/228/1
f 115/228/2 116/227/2 118/229/2 117/230/2
f 117/230/3 118/229/3 120/231/3 119/232/3
f 119/233/4 120/234/4 122/235/4 121/236/4
f 121/236/5 122/235/5 124/237/5 123/238/5
f 123/238/6 124/237/6 126/239/6 125/240/6
f 116/241/11 114/242/11 128/243/11 126/244/11 124/245/11 122/246/11 120/247/11 118/248/11
f 125/240/8 126/239/8 128/249/8 127/250/8
f 127/250/9 128/249/9 114/226/9 113/225/9
f 121/251/51 123/252/51 134/253/51 133/254/51
f 129/255/1 130/256/1 138/257/1 137/258/1
f 127/259/52 113/260/52 129/255/52 136/261/52
f 113/260/53 115/262/53 130/256/53 129/255/53
f 117/263/54 119/264/54 132/265/54 131/266/54
f 123/252/55 125/267/55 135/268/55 134/253/55
f 119/269/56 121/251/56 133/254/56 132/270/56
f 125/267/57 127/259/57 136/261/57 135/268/57
f 115/262/58 117/263/58 131/266/58 130/256/58
f 137/271/10 138/272/10 139/273/10 140/274/10 141/275/10 142/276/10 143/277/10 144/278/10
f 136/261/9 129/255/9 137/258/9 144/279/9
f 134/253/6 135/268/6 143/280/6 142/281/6
f 132/270/4 133/254/4 141/282/4 140/283/4
f 130/256/2 131/266/2 139/284/2 138/257/2
f 135/268/8 136/261/8 144/279/8 143/280/8
f 133/254/5 134/253/5 142/281/5 141/282/5
f 131/266/3 132/265/3 140/285/3 139/284/3
f 161/286/59 146/287/59 148/288/59 162/289/59
f 162/289/60 148/288/60 150/290/60 163/291/60
f 163/292/61 150/293/61 152/294/61 164/295/61
f 164/295/62 152/294/62 154/296/62 165/297/62
f 165/297/63 154/296/63 156/298/63 166/299/63
f 166/299/64 156/298/64 158/300/64 167/301/64
f 148/302/65 146/303/65 160/304/65 158/305/65 156/306/65 154/307/65 152/308/65 150/309/65
f 167/301/66 158/300/66 160/310/66 168/311/66
f 168/311/67 160/310/67 146/287/67 161/286/67
f 145/312/68 147/313/68 149/314/68 151/315/68 153/316/68 155/317/68 157/318/68 159/319/68
f 159/320/69 168/311/69 161/286/69 145/321/69
f 157/322/70 167/301/70 168/311/70 159/320/70
f 155/323/71 166/299/71 167/301/71 157/322/71
f 153/324/72 165/297/72 166/299/72 155/323/72
f 151/325/73 164/295/73 165/297/73 153/324/73
f 149/326/74 163/292/74 164/295/74 151/325/74
f 147/327/75 162/289/75 163/291/75 149/328/75
f 145/321/76 161/286/76 162/289/76 147/327/76
f 185/329/77 186/330/77 172/331/77 170/332/77
f 186/330/78 187/333/78 174/334/78 172/331/78
f 187/335/79 188/336/79 176/337/79 174/338/79
f 188/336/80 189/339/80 178/340/80 176/337/80
f 189/339/81 190/341/81 180/342/81 178/340/81
f 190/341/82 191/343/82 182/344/82 180/342/82
f 172/345/83 174/346/83 176/347/83 178/348/83 180/349/83 182/350/83 184/351/83 170/352/83
f 191/343/84 192/353/84 184/354/84 182/344/84
f 192/353/85 185/329/85 170/332/85 184/354/85
f 169/355/86 183/356/86 181/357/86 179/358/86 177/359/86 175/360/86 173/361/86 171/362/86
f 183/363/87 169/364/87 185/329/87 192/353/87
f 181/365/88 183/363/88 192/353/88 191/343/88
f 179/366/89 181/365/89 191/343/89 190/341/89
f 177/367/90 179/366/90 190/341/90 189/339/90
f 175/368/91 177/367/91 189/339/91 188/336/91
f 173/369/92 175/368/92 188/336/92 187/335/92
f 171/370/93 173/371/93 187/333/93 186/330/93
f 169/364/94 171/370/94 186/330/94 185/329/94
f 209/372/95 210/373/95 196/374/95 194/375/95
f 210/373/96 211/376/96 198/377/96 196/374/96
f 211/378/97 212/379/97 200/380/97 198/381/97
f 212/379/98 213/382/98 202/383/98 200/380/98
f 213/382/99 214/384/99 204/385/99 202/383/99
f 214/384/100 215/386/100 206/387/100 204/385/100
f 196/388/101 198/389/101 200/390/101 202/391/101 204/392/101 206/393/101 208/394/101 194/395/101
f 215/386/102 216/396/102 208/397/102 206/387/102
f 216/396/103 209/372/103 194/375/103 208/397/103
f 193/398/104 207/399/104 205/400/104 203/401/104 201/402/104 199/403/104 197/404/104 195/405/104
f 207/406/105 193/407/105 209/372/105 216/396/105
f 205/408/106 207/406/106 216/396/106 215/386/106
f 203/409/107 205/408/107 215/386/107 214/384/107
f 201/410/108 203/409/108 214/384/108 213/382/108
f 199/411/109 201/410/109 213/382/109 212/379/109
f 197/412/110 199/411/110 212/379/110 211/378/110
f 195/413/111 197/414/111 211/376/111 210/373/111
f 193/407/112 195/413/112 210/373/112 209/372/112
f 233/415/113 218/416/113 220/417/113 234/418/113
f 234/418/114 220/417/114 222/419/114 235/420/114
f 235/421/115 222/422/115 224/423/115 236/424/115
f 236/424/116 224/423/116 226/425/116 237/426/116
f 237/426/117 226/425/117 228/427/117 238/428/117
f 238/428/118 228/427/118 230/429/118 239/430/118
f 220/431/119 218/432/119 232/433/119 230/434/119 228/435/119 226/436/119 224/437/119 222/438/119
f 239/430/120 230/429/120 232/439/120 240/440/120
f 240/440/121 232/439/121 218/416/121 233/415/121
f 217/441/122 219/442/122 221/443/122 223/444/122 225/445/122 227/446/122 229/447/122 231/448/122
f 231/449/123 240/440/123 233/415/123 217/450/123
f 229/451/124 239/430/124 240/440/124 231/449/124
f 227/452/125 238/428/125 239/430/125 229/451/125
f 225/453/126 237/426/126 238/428/126 227/452/126
f 223/454/127 236/424/127 237/426/127 225/453/127
f 221/455/128 235/421/128 236/424/128 223/454/128
f 219/456/129 234/418/129 235/420/129 221/457/129
f 217/450/130 233/415/130 234/418/130 219/456/130
f 241/458/131 242/459/131 244/460/131 243/461/131
f 243/461/132 244/460/132 246/462/132 245/463/132
f 245/463/133 246/462/133 248/464/133 247/465/133
f 247/465/134 248/464/134 250/466/134 249/467/134
f 249/467/135 250/466/135 252/468/135 251/469/135
f 251/469/136 252/468/136 254/470/136 253/471/136
f 253/471/137 254/470/137 256/472/137 255/473/137
f 255/473/138 256/472/138 242/474/138 241/475/138
f 266/476/139 265/477/139 283/478/139 282/479/139
f 263/480/140 264/481/140 256/482/140 254/483/140
f 268/484/141 267/485/141 286/486/141 285/487/141
f 270/488/142 269/489/142 281/490/142 288/491/142
f 269/492/143 266/476/143 282/479/143 281/493/143
f 265/477/144 271/494/144 284/495/144 283/478/144
f 267/485/145 272/496/145 287/497/145 286/486/145
f 271/494/146 268/498/146 285/499/146 284/495/146
f 272/496/147 270/488/147 288/491/147 287/497/147
f 280/500/148 275/501/148 270/488/148 272/496/148
f 279/502/149 274/503/149 268/498/149 271/494/149
f 277/504/150 280/500/150 272/496/150 267/485/150
f 276/505/151 279/502/151 271/494/151 265/477/151
f 278/506/152 273/507/152 266/476/152 269/492/152
f 275/501/153 278/508/153 269/489/153 270/488/153
f 274/509/154 277/504/154 267/485/154 268/484/154
f 273/507/155 276/505/155 265/477/155 266/476/155
f 243/461/156 245/463/156 276/505/156 273/507/156
f 249/467/157 251/469/157 277/504/157 274/509/157
f 255/473/158 241/475/158 278/508/158 275/501/158
f 241/458/159 243/461/159 273/507/159 278/506/159
f 245/463/160 247/465/160 279/502/160 276/505/160
f 251/469/161 253/471/161 280/500/161 277/504/161
f 247/465/162 249/467/162 274/503/162 279/502/162
f 253/471/163 255/473/163 275/501/163 280/500/163
f 258/510/164 257/511/164 281/493/164 282/479/164
f 259/512/165 258/510/165 282/479/165 283/478/165
f 260/513/166 259/512/166 283/478/166 284/495/166
f 261/514/167 260/513/167 284/495/167 285/499/167
f 262/515/168 261/516/168 285/487/168 286/486/168
f 263/517/169 262/515/169 286/486/169 287/497/169
f 264/518/170 263/517/170 287/497/170 288/491/170
f 257/519/171 264/518/171 288/491/171 281/490/171
f 261/520/172 262/521/172 252/522/172 250/523/172
f 259/524/173 260/525/173 248/526/173 246/527/173
f 257/528/174 258/529/174 244/530/174 242/531/174
f 264/481/175 257/532/175 242/533/175 256/482/175
f 262/521/176 263/480/176 254/483/176 252/522/176
f 260/525/177 261/534/177 250/535/177 248/526/177
f 258/529/178 259/524/178 246/527/178 244/530/178
f 321/536/179 306/537/179 305/538/179 322/539/179
f 322/539/180 305/538/180 307/540/180 323/541/180
f 323/541/181 307/540/181 308/542/181 324/543/181
f 324/543/182 308/542/182 309/544/182 325/545/182
f 325/545/183 309/544/183 310/546/183 326/547/183
f 326/547/184 310/546/184 311/548/184 327/549/184
f 292/550/10 290/551/10 304/552/10 302/553/10 300/554/10 298/555/10 296/556/10 294/557/10
f 327/549/185 311/548/185 312/558/185 328/559/185
f 328/559/186 312/558/186 306/560/186 321/561/186
f 291/562/187 293/563/187 331/564/187 330/565/187
f 314/566/10 313/567/10 305/538/10 306/537/10
f 313/567/10 315/568/10 307/540/10 305/538/10
f 315/568/10 316/569/10 308/542/10 307/540/10
f 316/569/10 317/570/10 309/544/10 308/542/10
f 317/570/10 318/571/10 310/546/10 309/544/10
f 318/571/10 319/572/10 311/548/10 310/546/10
f 319/572/10 320/573/10 312/558/10 311/548/10
f 320/573/10 314/574/10 306/560/10 312/558/10
f 290/575/188 292/576/188 313/577/188 314/578/188
f 292/576/189 294/579/189 315/580/189 313/577/189
f 294/579/190 296/581/190 316/582/190 315/580/190
f 296/581/191 298/583/191 317/584/191 316/582/191
f 298/583/192 300/585/192 318/586/192 317/584/192
f 300/585/193 302/587/193 319/588/193 318/586/193
f 302/587/194 304/589/194 320/590/194 319/588/194
f 304/589/195 290/591/195 314/592/195 320/590/195
f 291/593/11 289/594/11 321/536/11 322/539/11
f 293/595/196 291/593/196 322/539/196 323/541/196
f 295/596/196 293/595/196 323/541/196 324/543/196
f 297/597/11 295/596/11 324/543/11 325/545/11
f 299/598/11 297/597/11 325/545/11 326/547/11
f 301/599/197 299/598/197 326/547/197 327/549/197
f 303/600/197 301/599/197 327/549/197 328/559/197
f 289/601/11 303/600/11 328/559/11 321/561/11
f 397/602/198 393/603/198 337/604/198 344/605/198
f 301/606/199 303/607/199 336/608/199 335/609/199
f 297/610/200 299/611/200 334/612/200 333/613/200
f 293/563/201 295/614/201 332/615/201 331/564/201
f 289/616/202 291/562/202 330/565/202 329/617/202
f 303/607/203 289/618/203 329/619/203 336/608/203
f 299/611/204 301/606/204 335/609/204 334/612/204
f 295/614/205 297/610/205 333/613/205 332/615/205
f 337/620/11 338/621/11 339/622/11 340/623/11 341/624/11 342/625/11 343/626/11 344/627/11
f 398/628/206 394/629/206 343/630/206 342/631/206
f 399/632/207 395/633/207 341/634/207 340/635/207
f 400/636/208 396/637/208 339/638/208 338/639/208
f 394/629/209 397/602/209 344/605/209 343/630/209
f 395/633/210 398/628/210 342/631/210 341/634/210
f 396/637/211 399/632/211 340/635/211 339/638/211
f 393/640/212 400/636/212 338/639/212 337/641/212
f 377/642/213 384/643/213 352/644/213 345/645/213
f 380/646/214 383/647/214 350/648/214 351/649/214
f 379/650/215 382/651/215 348/652/215 349/653/215
f 378/654/216 381/655/216 346/656/216 347/657/216
f 384/643/217 380/646/217 351/649/217 352/644/217
f 383/647/218 379/650/218 349/653/218 350/648/218
f 382/651/219 378/654/219 347/657/219 348/652/219
f 381/655/220 377/658/220 345/659/220 346/656/220
f 385/660/221 389/661/221 357/662/221 353/663/221
f 386/664/222 390/665/222 358/666/222 354/667/222
f 387/668/223 391/669/223 359/670/223 355/671/223
f 388/672/224 392/673/224 360/674/224 356/675/224
f 390/665/225 385/660/225 353/663/225 358/666/225
f 391/669/226 386/664/226 354/667/226 359/670/226
f 392/673/227 387/668/227 355/671/227 360/674/227
f 389/676/228 388/672/228 356/675/228 357/677/228
f 373/678/229 372/679/229 368/680/229 361/681/229
f 376/682/230 371/683/230 367/684/230 364/685/230
f 375/686/231 370/687/231 366/688/231 363/689/231
f 374/690/232 369/691/232 365/692/232 362/693/232
f 372/679/233 376/682/233 364/685/233 368/680/233
f 371/683/234 375/686/234 363/689/234 367/684/234
f 370/687/235 374/690/235 362/693/235 366/688/235
f 369/691/236 373/694/236 361/695/236 365/692/236
f 346/656/237 345/659/237 373/694/237 369/691/237
f 348/652/238 347/657/238 374/690/238 370/687/238
f 350/648/239 349/653/239 375/686/239 371/683/239
f 352/644/240 351/649/240 376/682/240 372/679/240
f 347/657/241 346/656/241 369/691/241 374/690/241
f 349/653/242 348/652/242 370/687/242 375/686/242
f 351/649/243 350/648/243 371/683/243 376/682/243
f 345/645/244 352/644/244 372/679/244 373/678/244
f 353/663/245 357/662/245 377/658/245 381/655/245
f 354/667/246 358/666/246 378/654/246 382/651/246
f 355/671/247 359/670/247 379/650/247 383/647/247
f 356/675/248 360/674/248 380/646/248 384/643/248
f 358/666/249 353/663/249 381/655/249 378/654/249
f 359/670/250 354/667/250 382/651/250 379/650/250
f 360/674/251 355/671/251 383/647/251 380/646/251
f 357/677/252 356/675/252 384/643/252 377/642/252
f 329/617/253 330/565/253 388/672/253 389/676/253
f 331/564/254 332/615/254 387/668/254 392/673/254
f 333/613/255 334/612/255 386/664/255 391/669/255
f 335/609/256 336/608/256 385/660/256 390/665/256
f 330/565/257 331/564/257 392/673/257 388/672/257
f 332/615/258 333/613/258 391/669/258 387/668/258
f 334/612/259 335/609/259 390/665/259 386/664/259
f 336/608/260 329/619/260 389/661/260 385/660/260
f 361/681/261 368/680/261 400/636/261 393/640/261
f 364/685/262 367/684/262 399/632/262 396/637/262
f 363/689/263 366/688/263 398/628/263 395/633/263
f 362/693/264 365/692/264 397/602/264 394/629/264
f 368/680/265 364/685/265 396/637/265 400/636/265
f 367/684/266 363/689/266 395/633/266 399/632/266
f 366/688/267 362/693/267 394/629/267 398/628/267
f 365/692/268 361/695/268 393/603/268 397/602/268
