# Blender 4.2.2 LTS
# www.blender.org
mtllib generator.mtl
o generator
v -0.944220 1.330313 -1.392436
v -0.944220 1.554603 -1.392436
v -0.944220 1.330313 -1.472295
v -0.944220 1.554603 -1.472295
v 1.023111 1.330313 -1.392436
v 1.023111 1.554603 -1.392436
v 1.023111 1.330313 -1.472295
v 1.023111 1.554603 -1.472295
v -0.944220 1.330313 1.397174
v -0.944220 1.554603 1.397174
v -0.944220 1.330313 1.477034
v -0.944220 1.554603 1.477034
v 1.023111 1.330313 1.397174
v 1.023111 1.554603 1.397174
v 1.023111 1.330313 1.477034
v 1.023111 1.554603 1.477034
v -0.669517 2.045154 1.351460
v -0.674515 2.070283 1.388257
v -0.676345 2.079481 1.438522
v -0.674515 2.070283 1.488788
v -0.669517 2.045154 1.525585
v -0.662688 2.010826 1.539053
v -0.655860 1.976499 1.525585
v -0.650862 1.951369 1.488788
v -0.649032 1.942171 1.438522
v -0.650862 1.951369 1.388257
v -0.655860 1.976499 1.351460
v -0.662688 2.010826 1.337992
v 0.748408 2.045154 1.351460
v 0.753407 2.070283 1.388257
v 0.755236 2.079481 1.438522
v 0.753407 2.070283 1.488788
v 0.748408 2.045154 1.525585
v 0.741580 2.010826 1.539053
v 0.734752 1.976499 1.525585
v 0.729753 1.951369 1.488788
v 0.727924 1.942171 1.438522
v 0.729753 1.951369 1.388257
v 0.734752 1.976499 1.351460
v 0.741580 2.010826 1.337992
v 0.976952 1.948332 1.351460
v 0.995069 1.966449 1.388257
v 1.001701 1.973081 1.438522
v 0.995069 1.966449 1.488788
v 0.976952 1.948332 1.525585
v 0.952203 1.923583 1.539053
v 0.927454 1.898835 1.525585
v 0.909337 1.880717 1.488788
v 0.902706 1.874086 1.438522
v 0.909337 1.880717 1.388257
v 0.927454 1.898834 1.351460
v 0.952203 1.923583 1.337992
v 1.073773 1.719789 1.351460
v 1.098903 1.724787 1.388257
v 1.108101 1.726617 1.438522
v 1.098903 1.724787 1.488788
v 1.073773 1.719789 1.525585
v 1.039446 1.712960 1.539053
v 1.005118 1.706132 1.525585
v 0.979989 1.701134 1.488788
v 0.970791 1.699304 1.438522
v 0.979989 1.701134 1.388257
v 1.005118 1.706132 1.351460
v 1.039446 1.712960 1.337992
v 1.073263 0.320649 1.352193
v 1.099377 0.315748 1.387576
v 1.109433 0.308957 1.436609
v 1.100735 0.302094 1.486156
v 1.075615 0.297000 1.522939
v 1.040804 0.295038 1.537103
v 1.005629 0.296735 1.524852
v 0.979515 0.301636 1.489469
v 0.969459 0.308427 1.440435
v 0.978157 0.315289 1.390889
v 1.003276 0.320384 1.354105
v 1.038088 0.322346 1.339942
v 1.073263 0.141407 1.250988
v 1.099377 0.123645 1.276497
v 1.109433 0.099029 1.311849
v 1.100735 0.074157 1.347570
v 1.075615 0.055691 1.374089
v 1.040804 0.048581 1.384301
v 1.005629 0.054731 1.375468
v 0.979515 0.072493 1.349959
v 0.969459 0.097109 1.314607
v 0.978157 0.121981 1.278886
v 1.003276 0.140447 1.252367
v 1.038088 0.147557 1.242155
v 1.073263 0.070938 0.993569
v 1.099377 0.046301 1.000607
v 1.109433 0.012158 1.010360
v 1.100735 -0.022341 1.020216
v 1.075615 -0.047954 1.027532
v 1.040804 -0.057816 1.030350
v 1.005629 -0.049286 1.027913
v 0.979515 -0.024648 1.020875
v 0.969459 0.009494 1.011121
v 0.978157 0.043994 1.001266
v 1.003276 0.069606 0.993949
v 1.038088 0.079468 0.991132
v 1.073263 0.070938 -0.988835
v 1.099377 0.046301 -0.995873
v 1.109433 0.012158 -1.005627
v 1.100735 -0.022341 -1.015482
v 1.075615 -0.047954 -1.022799
v 1.040804 -0.057816 -1.025616
v 1.005629 -0.049286 -1.023179
v 0.979515 -0.024648 -1.016141
v 0.969459 0.009494 -1.006388
v 0.978157 0.043994 -0.996532
v 1.003276 0.069606 -0.989216
v 1.038088 0.079468 -0.986398
v 1.073263 0.141407 -1.246254
v 1.099377 0.123645 -1.271764
v 1.109433 0.099029 -1.307115
v 1.100735 0.074157 -1.342836
v 1.075615 0.055691 -1.369356
v 1.040804 0.048581 -1.379567
v 1.005629 0.054731 -1.370735
v 0.979515 0.072493 -1.345225
v 0.969459 0.097109 -1.309873
v 0.978157 0.121982 -1.274152
v 1.003276 0.140447 -1.247633
v 1.038088 0.147557 -1.237422
v 1.073263 0.320649 -1.347459
v 1.099377 0.315748 -1.382842
v 1.109433 0.308957 -1.431876
v 1.100735 0.302094 -1.481423
v 1.075615 0.297000 -1.518206
v 1.040804 0.295038 -1.532369
v 1.005629 0.296735 -1.520118
v 0.979515 0.301636 -1.484736
v 0.969459 0.308427 -1.435701
v 0.978157 0.315289 -1.386155
v 1.003276 0.320384 -1.349372
v 1.038088 0.322346 -1.335208
v 1.073773 1.719789 -1.346726
v 1.098903 1.724787 -1.383523
v 1.108101 1.726617 -1.433789
v 1.098903 1.724787 -1.484054
v 1.073773 1.719789 -1.520851
v 1.039446 1.712960 -1.534319
v 1.005118 1.706132 -1.520851
v 0.979989 1.701134 -1.484054
v 0.970791 1.699304 -1.433789
v 0.979989 1.701134 -1.383523
v 1.005118 1.706132 -1.346726
v 1.039446 1.712960 -1.333258
v 0.976952 1.948332 -1.346726
v 0.995069 1.966449 -1.383523
v 1.001701 1.973081 -1.433789
v 0.995069 1.966449 -1.484054
v 0.976952 1.948332 -1.520851
v 0.952203 1.923583 -1.534319
v 0.927454 1.898835 -1.520851
v 0.909337 1.880717 -1.484054
v 0.902706 1.874086 -1.433789
v 0.909337 1.880717 -1.383523
v 0.927454 1.898834 -1.346726
v 0.952203 1.923583 -1.333258
v 0.748408 2.045154 -1.346726
v 0.753407 2.070283 -1.383523
v 0.755236 2.079481 -1.433789
v 0.753407 2.070283 -1.484054
v 0.748408 2.045154 -1.520851
v 0.741580 2.010826 -1.534320
v 0.734752 1.976499 -1.520851
v 0.729753 1.951369 -1.484054
v 0.727924 1.942171 -1.433789
v 0.729753 1.951369 -1.383523
v 0.734752 1.976499 -1.346726
v 0.741580 2.010826 -1.333258
v -0.669517 2.045154 -1.346726
v -0.674515 2.070283 -1.383523
v -0.676345 2.079481 -1.433789
v -0.674515 2.070283 -1.484054
v -0.669517 2.045154 -1.520851
v -0.662688 2.010826 -1.534319
v -0.655860 1.976499 -1.520851
v -0.650862 1.951369 -1.484054
v -0.649032 1.942171 -1.433789
v -0.650862 1.951369 -1.383523
v -0.655860 1.976499 -1.346726
v -0.662688 2.010826 -1.333258
v -0.898060 1.948332 -1.346726
v -0.916177 1.966449 -1.383523
v -0.922809 1.973081 -1.433789
v -0.916177 1.966449 -1.484054
v -0.898060 1.948332 -1.520851
v -0.873311 1.923583 -1.534319
v -0.848563 1.898835 -1.520851
v -0.830445 1.880717 -1.484054
v -0.823814 1.874086 -1.433789
v -0.830445 1.880717 -1.383523
v -0.848563 1.898834 -1.346726
v -0.873311 1.923583 -1.333258
v -0.994882 1.719789 -1.346726
v -1.020011 1.724787 -1.383523
v -1.029209 1.726617 -1.433789
v -1.020011 1.724787 -1.484054
v -0.994882 1.719789 -1.520851
v -0.960554 1.712960 -1.534320
v -0.926227 1.706132 -1.520851
v -0.901097 1.701134 -1.484054
v -0.891899 1.699304 -1.433789
v -0.901097 1.701134 -1.383523
v -0.926227 1.706132 -1.346726
v -0.960554 1.712960 -1.333258
v -0.994372 0.320649 -1.347459
v -1.020486 0.315748 -1.382842
v -1.030541 0.308957 -1.431876
v -1.021844 0.302094 -1.481423
v -0.996724 0.297000 -1.518206
v -0.961912 0.295038 -1.532369
v -0.926737 0.296735 -1.520118
v -0.900623 0.301636 -1.484736
v -0.890567 0.308427 -1.435701
v -0.899265 0.315289 -1.386155
v -0.924385 0.320384 -1.349372
v -0.959196 0.322346 -1.335208
v -0.994372 0.141407 -1.246254
v -1.020486 0.123645 -1.271764
v -1.030541 0.099029 -1.307115
v -1.021844 0.074157 -1.342836
v -0.996724 0.055691 -1.369356
v -0.961912 0.048581 -1.379567
v -0.926737 0.054731 -1.370735
v -0.900623 0.072493 -1.345225
v -0.890567 0.097109 -1.309873
v -0.899265 0.121981 -1.274152
v -0.924385 0.140447 -1.247633
v -0.959196 0.147557 -1.237422
v -0.994372 0.070938 -0.988835
v -1.020486 0.046301 -0.995873
v -1.030541 0.012158 -1.005627
v -1.021844 -0.022341 -1.015482
v -0.996724 -0.047954 -1.022799
v -0.961912 -0.057816 -1.025616
v -0.926737 -0.049286 -1.023179
v -0.900623 -0.024648 -1.016141
v -0.890567 0.009494 -1.006388
v -0.899265 0.043994 -0.996532
v -0.924385 0.069606 -0.989215
v -0.959196 0.079468 -0.986398
v -0.994372 0.070938 0.993569
v -1.020486 0.046301 1.000607
v -1.030541 0.012158 1.010360
v -1.021844 -0.022341 1.020216
v -0.996724 -0.047954 1.027532
v -0.961912 -0.057816 1.030350
v -0.926737 -0.049286 1.027913
v -0.900623 -0.024648 1.020875
v -0.890567 0.009494 1.011121
v -0.899265 0.043994 1.001266
v -0.924385 0.069606 0.993949
v -0.959196 0.079468 0.991132
v -0.994372 0.141407 1.250988
v -1.020486 0.123645 1.276497
v -1.030541 0.099029 1.311849
v -1.021844 0.074157 1.347570
v -0.996724 0.055691 1.374089
v -0.961912 0.048581 1.384301
v -0.926737 0.054731 1.375468
v -0.900623 0.072493 1.349959
v -0.890567 0.097109 1.314607
v -0.899265 0.121982 1.278886
v -0.924385 0.140447 1.252367
v -0.959196 0.147557 1.242155
v -0.994372 0.320649 1.352193
v -1.020486 0.315748 1.387576
v -1.030541 0.308957 1.436609
v -1.021844 0.302094 1.486156
v -0.996724 0.297000 1.522939
v -0.961912 0.295038 1.537103
v -0.926737 0.296735 1.524852
v -0.900623 0.301636 1.489469
v -0.890567 0.308427 1.440435
v -0.899265 0.315289 1.390889
v -0.924385 0.320384 1.354105
v -0.959196 0.322346 1.339942
v -0.994882 1.719789 1.351460
v -1.020011 1.724787 1.388257
v -1.029209 1.726617 1.438522
v -1.020011 1.724787 1.488788
v -0.994882 1.719789 1.525585
v -0.960554 1.712960 1.539053
v -0.926227 1.706132 1.525585
v -0.901097 1.701134 1.488788
v -0.891899 1.699304 1.438522
v -0.901097 1.701134 1.388257
v -0.926227 1.706132 1.351460
v -0.960554 1.712960 1.337992
v -0.898060 1.948332 1.351460
v -0.916177 1.966449 1.388257
v -0.922809 1.973081 1.438522
v -0.916177 1.966449 1.488788
v -0.898060 1.948332 1.525585
v -0.873311 1.923583 1.539053
v -0.848563 1.898835 1.525585
v -0.830445 1.880717 1.488788
v -0.823814 1.874086 1.438522
v -0.830445 1.880717 1.388257
v -0.848562 1.898834 1.351460
v -0.873311 1.923583 1.337992
v -0.974685 -0.021569 -0.760795
v -0.974685 0.041796 -0.760795
v -0.974685 -0.021569 -0.944658
v -0.974685 0.041796 -0.944658
v 1.053577 -0.021569 -0.760795
v 1.053577 0.041796 -0.760795
v 1.053577 -0.021569 -0.944658
v 1.053577 0.041796 -0.944658
v -0.974685 -0.021569 0.765537
v -0.974685 0.041796 0.765537
v -0.974685 -0.021569 0.949401
v -0.974685 0.041796 0.949401
v 1.053577 -0.021569 0.765537
v 1.053577 0.041796 0.765537
v 1.053577 -0.021569 0.949401
v 1.053577 0.041796 0.949401
v 0.654571 1.961803 1.470518
v 0.654571 2.047024 1.470518
v 0.654571 1.961803 -1.465784
v 0.654571 2.047024 -1.465784
v 0.739791 1.961803 1.470518
v 0.739791 2.047024 1.470518
v 0.739791 1.961803 -1.465784
v 0.739791 2.047024 -1.465784
v -0.575678 1.961803 1.470518
v -0.575678 2.047024 1.470518
v -0.575678 1.961803 -1.465784
v -0.575678 2.047024 -1.465784
v -0.660898 1.961803 1.470518
v -0.660898 2.047024 1.470518
v -0.660898 1.961803 -1.465784
v -0.660898 2.047024 -1.465784
v 0.988948 1.058665 -1.011802
v 1.162428 1.058665 -1.011802
v 0.988948 0.930377 -0.958663
v 1.162428 0.930377 -0.958663
v 0.988948 0.877239 -0.830376
v 1.162428 0.877239 -0.830376
v 0.988948 0.930377 -0.702088
v 1.162428 0.930377 -0.702088
v 0.988948 1.058665 -0.648950
v 1.162428 1.058665 -0.648950
v 0.988948 1.186952 -0.702088
v 1.162428 1.186952 -0.702088
v 0.988948 1.240091 -0.830376
v 1.162428 1.240091 -0.830376
v 0.988948 1.186952 -0.958663
v 1.162428 1.186952 -0.958663
v 0.995062 1.058589 0.525175
v 1.050403 1.058589 0.525175
v 0.995062 0.946559 0.571579
v 1.050403 0.946559 0.571579
v 0.995062 0.900155 0.683609
v 1.050403 0.900155 0.683609
v 0.995062 0.946559 0.795639
v 1.050403 0.946559 0.795639
v 0.995062 1.058589 0.842043
v 1.050403 1.058589 0.842043
v 0.995062 1.170619 0.795639
v 1.050403 1.170619 0.795639
v 0.995062 1.217023 0.683609
v 1.050403 1.217023 0.683609
v 0.995062 1.170619 0.571579
v 1.050403 1.170619 0.571579
v 0.995062 1.058589 0.144932
v 1.050403 1.058589 0.144932
v 0.995062 0.946559 0.191337
v 1.050403 0.946559 0.191337
v 0.995062 0.900155 0.303367
v 1.050403 0.900155 0.303367
v 0.995062 0.946559 0.415397
v 1.050403 0.946559 0.415397
v 0.995062 1.058589 0.461801
v 1.050403 1.058589 0.461801
v 0.995062 1.170619 0.415397
v 1.050403 1.170619 0.415397
v 0.995062 1.217023 0.303367
v 1.050403 1.217023 0.303367
v 0.995062 1.170619 0.191337
v 1.050403 1.170619 0.191337
v 0.995062 1.058589 -0.235310
v 1.050403 1.058589 -0.235310
v 0.995062 0.946559 -0.188905
v 1.050403 0.946559 -0.188905
v 0.995062 0.900155 -0.076875
v 1.050403 0.900155 -0.076875
v 0.995062 0.946559 0.035155
v 1.050403 0.946559 0.035155
v 0.995062 1.058589 0.081559
v 1.050403 1.058589 0.081559
v 0.995062 1.170619 0.035155
v 1.050403 1.170619 0.035155
v 0.995062 1.217023 -0.076875
v 1.050403 1.217023 -0.076875
v 0.995062 1.170619 -0.188905
v 1.050403 1.170619 -0.188905
v 0.522960 0.969676 -1.377301
v 0.522960 0.969676 1.382038
v 0.866856 0.827230 -1.377301
v 0.866856 0.827230 1.382038
v 1.009303 0.483334 -1.377301
v 1.009303 0.483334 1.382038
v 0.866856 0.139438 -1.377301
v 0.866856 0.139438 1.382038
v 0.522960 -0.003009 -1.377301
v 0.522960 -0.003009 1.382038
v 0.179064 0.139438 -1.377301
v 0.179064 0.139438 1.382038
v 0.036618 0.483334 -1.377301
v 0.036618 0.483334 1.382038
v 0.179064 0.827230 -1.377301
v 0.179064 0.827230 1.382038
v -0.444069 0.969676 -1.377301
v -0.444069 0.969676 1.382038
v -0.787965 0.827230 -1.377301
v -0.787965 0.827230 1.382038
v -0.930412 0.483334 -1.377301
v -0.930412 0.483334 1.382038
v -0.787965 0.139438 -1.377301
v -0.787965 0.139438 1.382038
v -0.444069 -0.003009 -1.377301
v -0.444069 -0.003009 1.382038
v -0.100173 0.139438 -1.377301
v -0.100173 0.139438 1.382038
v 0.042273 0.483334 -1.377301
v 0.042273 0.483334 1.382038
v -0.100173 0.827230 -1.377301
v -0.100173 0.827230 1.382038
v -0.935577 0.810177 1.317104
v -0.768639 1.557878 1.092001
v -0.935577 0.810177 -1.312366
v -0.768639 1.557878 -1.087263
v 1.014468 0.810177 1.317104
v 0.847530 1.557878 1.092001
v 1.014468 0.810177 -1.312366
v 0.847530 1.557878 -1.087263
v -0.998001 1.557878 1.401276
v -0.998001 1.557878 -1.396538
v 1.076891 1.254151 -1.216525
v 1.076891 1.254151 1.221262
v -0.821463 1.557878 1.163230
v -0.821463 1.557878 -1.158492
v 0.900354 1.557878 -1.158492
v 0.900354 1.557878 1.163230
v -0.626259 1.783738 0.900014
v -0.626259 1.783738 -0.895277
v 0.705150 1.783738 -0.895277
v 0.705150 1.783738 0.900014
v -0.998001 0.810177 -1.396538
v -0.998001 0.810177 1.401276
v 1.076891 0.858284 -1.216525
v 1.076891 0.858284 1.221262
v -0.935577 0.921347 -1.312366
v -0.935577 0.921347 1.317104
v 1.014468 0.921347 -1.312366
v 1.014468 0.921347 1.317104
v 1.076891 1.557878 -1.396538
v 1.076891 0.810177 -1.396538
v 1.076891 0.810177 1.401276
v 1.076891 1.557878 1.401276
v 1.027784 1.254151 -1.216525
v 1.027784 0.858284 -1.216525
v 1.027784 0.858284 1.221262
v 1.027784 1.254151 1.221262
vn -1.0000 -0.0000 -0.0000
vn -0.0000 -0.0000 -1.0000
vn 1.0000 -0.0000 -0.0000
vn -0.0000 -0.0000 1.0000
vn -0.0000 -1.0000 -0.0000
vn -0.0000 1.0000 -0.0000
vn -0.0000 0.3652 -0.9309
vn -0.0000 0.8258 -0.5640
vn -0.0000 0.9837 -0.1800
vn -0.0000 0.9837 0.1800
vn -0.0000 0.8258 0.5640
vn -0.0000 0.3652 0.9309
vn -0.0000 -0.3652 0.9309
vn -0.0000 -0.8258 0.5640
vn -0.0000 -0.9837 0.1800
vn -0.0000 -0.9837 -0.1800
vn -0.0000 -0.8258 -0.5640
vn -0.0000 -0.3652 -0.9309
vn 0.1448 0.3454 -0.9272
vn 0.3270 0.7663 -0.5530
vn 0.3895 0.9042 -0.1752
vn 0.3895 0.9042 0.1752
vn 0.3270 0.7663 0.5530
vn 0.1448 0.3454 0.9272
vn -0.1418 -0.3469 0.9271
vn -0.3086 -0.7746 0.5521
vn -0.3590 -0.9169 0.1746
vn -0.3590 -0.9169 -0.1746
vn -0.3086 -0.7746 -0.5521
vn -0.1418 -0.3469 -0.9271
vn 0.3454 0.1448 -0.9272
vn 0.7663 0.3270 -0.5530
vn 0.9042 0.3895 -0.1752
vn 0.9042 0.3895 0.1752
vn 0.7663 0.3270 0.5530
vn 0.3454 0.1448 0.9272
vn -0.3469 -0.1418 0.9271
vn -0.7746 -0.3086 0.5521
vn -0.9169 -0.3590 0.1746
vn -0.9169 -0.3590 -0.1746
vn -0.7746 -0.3086 -0.5521
vn -0.3469 -0.1418 -0.9271
vn 0.3471 -0.0011 -0.9378
vn 0.8154 -0.0000 -0.5789
vn 0.9817 0.0008 -0.1903
vn 0.9843 0.0008 0.1765
vn 0.8258 -0.0000 0.5640
vn 0.3712 -0.0011 0.9285
vn -0.3470 -0.0011 0.9379
vn -0.8154 -0.0000 0.5789
vn -0.9817 0.0008 0.1904
vn -0.9843 0.0008 -0.1764
vn -0.8258 -0.0000 -0.5640
vn -0.3710 -0.0011 -0.9286
vn 0.3012 0.4672 -0.8312
vn 0.7753 0.3135 -0.5483
vn 0.9752 0.1119 -0.1908
vn 0.9816 -0.0984 0.1636
vn 0.7970 -0.3155 0.5151
vn 0.3440 -0.4939 0.7986
vn -0.2992 -0.5020 0.8115
vn -0.7736 -0.3313 0.5402
vn -0.9751 -0.1144 0.1898
vn -0.9817 0.0966 -0.1643
vn -0.7985 0.2992 -0.5224
vn -0.3462 0.4599 -0.8177
vn 0.2365 0.9374 -0.2555
vn 0.6883 0.6991 -0.1938
vn 0.9599 0.2697 -0.0767
vn 0.9703 -0.2323 0.0677
vn 0.7184 -0.6668 0.1980
vn 0.2761 -0.9206 0.2760
vn -0.2388 -0.9301 0.2790
vn -0.6909 -0.6930 0.2060
vn -0.9601 -0.2684 0.0784
vn -0.9702 0.2332 -0.0665
vn -0.7160 0.6727 -0.1868
vn -0.2736 0.9280 -0.2531
vn 0.2357 0.9718 -0.0000
vn 0.6862 0.7274 -0.0000
vn 0.9593 0.2825 -0.0000
vn 0.9697 -0.2445 -0.0000
vn 0.7139 -0.7002 -0.0000
vn 0.2726 -0.9621 -0.0000
vn -0.2357 -0.9718 -0.0000
vn -0.6862 -0.7274 -0.0000
vn -0.9593 -0.2825 -0.0000
vn -0.9697 0.2445 -0.0000
vn -0.7139 0.7002 -0.0000
vn -0.2726 0.9621 -0.0000
vn 0.2365 0.9374 0.2555
vn 0.6883 0.6991 0.1938
vn 0.9599 0.2697 0.0767
vn 0.9703 -0.2323 -0.0677
vn 0.7184 -0.6668 -0.1980
vn 0.2761 -0.9206 -0.2760
vn -0.2388 -0.9301 -0.2790
vn -0.6909 -0.6930 -0.2060
vn -0.9601 -0.2684 -0.0784
vn -0.9702 0.2332 0.0665
vn -0.7160 0.6727 0.1868
vn -0.2736 0.9280 0.2531
vn 0.3012 0.4672 0.8312
vn 0.7753 0.3135 0.5483
vn 0.9752 0.1119 0.1908
vn 0.9816 -0.0984 -0.1636
vn 0.7970 -0.3155 -0.5151
vn 0.3439 -0.4939 -0.7986
vn -0.2992 -0.5020 -0.8115
vn -0.7736 -0.3313 -0.5402
vn -0.9751 -0.1144 -0.1898
vn -0.9817 0.0966 0.1643
vn -0.7985 0.2992 0.5224
vn -0.3462 0.4599 0.8177
vn 0.3471 -0.0011 0.9378
vn 0.8154 -0.0000 0.5789
vn 0.9817 0.0008 0.1903
vn 0.9843 0.0008 -0.1765
vn 0.8258 -0.0000 -0.5640
vn 0.3712 -0.0011 -0.9285
vn -0.3470 -0.0011 -0.9379
vn -0.8154 -0.0000 -0.5789
vn -0.9817 0.0008 -0.1904
vn -0.9843 0.0008 0.1764
vn -0.8258 -0.0000 0.5640
vn -0.3710 -0.0011 0.9286
vn -0.0000 0.3653 0.9309
vn -0.0000 -0.3653 0.9309
vn -0.1448 0.3454 0.9272
vn -0.3270 0.7663 0.5530
vn -0.3895 0.9042 0.1752
vn -0.3895 0.9042 -0.1752
vn -0.3270 0.7663 -0.5530
vn -0.1448 0.3454 -0.9272
vn 0.1418 -0.3469 -0.9271
vn 0.3086 -0.7746 -0.5521
vn 0.3590 -0.9169 -0.1746
vn 0.3590 -0.9169 0.1746
vn 0.3086 -0.7746 0.5521
vn 0.1418 -0.3469 0.9271
vn -0.3454 0.1448 0.9272
vn -0.7663 0.3270 0.5530
vn -0.9042 0.3895 0.1752
vn -0.9042 0.3895 -0.1752
vn -0.7663 0.3270 -0.5530
vn -0.3454 0.1448 -0.9272
vn 0.3469 -0.1418 -0.9271
vn 0.7746 -0.3086 -0.5521
vn 0.9169 -0.3590 -0.1746
vn 0.9169 -0.3590 0.1746
vn 0.7746 -0.3086 0.5521
vn 0.3469 -0.1418 0.9271
vn -0.3471 -0.0011 0.9378
vn -0.9817 0.0008 0.1903
vn -0.9843 0.0008 -0.1765
vn -0.3712 -0.0011 -0.9285
vn 0.3470 -0.0011 -0.9379
vn 0.9817 0.0008 -0.1904
vn 0.9843 0.0008 0.1764
vn 0.3710 -0.0011 0.9286
vn -0.3012 0.4672 0.8312
vn -0.7753 0.3135 0.5483
vn -0.9752 0.1119 0.1908
vn -0.9816 -0.0984 -0.1636
vn -0.7970 -0.3155 -0.5151
vn -0.3439 -0.4939 -0.7986
vn 0.2992 -0.5020 -0.8115
vn 0.7736 -0.3313 -0.5402
vn 0.9751 -0.1144 -0.1898
vn 0.9817 0.0966 0.1643
vn 0.7985 0.2992 0.5224
vn 0.3462 0.4599 0.8177
vn -0.2365 0.9374 0.2555
vn -0.6883 0.6991 0.1938
vn -0.9599 0.2697 0.0767
vn -0.9703 -0.2323 -0.0677
vn -0.7184 -0.6668 -0.1980
vn -0.2761 -0.9206 -0.2760
vn 0.2388 -0.9301 -0.2790
vn 0.6909 -0.6929 -0.2060
vn 0.9601 -0.2684 -0.0784
vn 0.9702 0.2332 0.0665
vn 0.7160 0.6727 0.1868
vn 0.2736 0.9280 0.2531
vn -0.2357 0.9718 -0.0000
vn -0.6862 0.7274 -0.0000
vn -0.9593 0.2825 -0.0000
vn -0.9697 -0.2445 -0.0000
vn -0.7139 -0.7002 -0.0000
vn -0.2726 -0.9621 -0.0000
vn 0.2357 -0.9718 -0.0000
vn 0.6862 -0.7274 -0.0000
vn 0.9593 -0.2825 -0.0000
vn 0.9697 0.2445 -0.0000
vn 0.7139 0.7002 -0.0000
vn 0.2726 0.9621 -0.0000
vn -0.2365 0.9374 -0.2555
vn -0.6883 0.6991 -0.1938
vn -0.9599 0.2697 -0.0767
vn -0.9703 -0.2323 0.0677
vn -0.7184 -0.6668 0.1980
vn -0.2761 -0.9206 0.2760
vn 0.2388 -0.9301 0.2790
vn 0.6909 -0.6929 0.2060
vn 0.9601 -0.2684 0.0784
vn 0.9702 0.2332 -0.0665
vn 0.7160 0.6727 -0.1868
vn 0.2736 0.9280 -0.2531
vn -0.3012 0.4672 -0.8312
vn -0.7753 0.3135 -0.5483
vn -0.9752 0.1119 -0.1908
vn -0.9816 -0.0984 0.1636
vn -0.7970 -0.3155 0.5151
vn -0.3440 -0.4939 0.7986
vn 0.2992 -0.5020 0.8115
vn 0.7736 -0.3313 0.5402
vn 0.9751 -0.1144 0.1898
vn 0.9817 0.0966 -0.1643
vn 0.7985 0.2992 -0.5224
vn 0.3462 0.4599 -0.8177
vn -0.3471 -0.0011 -0.9378
vn -0.9817 0.0008 -0.1903
vn -0.9843 0.0008 0.1765
vn -0.3712 -0.0011 0.9285
vn 0.3470 -0.0011 0.9379
vn 0.9817 0.0008 0.1904
vn 0.9843 0.0008 -0.1764
vn 0.3710 -0.0011 -0.9286
vn -0.0000 -0.3827 -0.9239
vn -0.0000 -0.9239 -0.3827
vn -0.0000 -0.9239 0.3827
vn -0.0000 -0.3827 0.9239
vn -0.0000 0.3827 0.9239
vn -0.0000 0.9239 0.3827
vn -0.0000 0.9239 -0.3827
vn -0.0000 0.3827 -0.9239
vn 0.3827 0.9239 -0.0000
vn 0.9239 0.3827 -0.0000
vn 0.9239 -0.3827 -0.0000
vn 0.3827 -0.9239 -0.0000
vn -0.3827 -0.9239 -0.0000
vn -0.9239 -0.3827 -0.0000
vn -0.9239 0.3827 -0.0000
vn -0.3827 0.9239 -0.0000
vn -0.0000 0.6477 0.7619
vn -0.0000 0.6477 -0.7619
vn 0.8459 0.5333 -0.0000
vn -0.8459 0.5333 -0.0000
vt 0.018374 0.159007
vt 0.005282 0.148436
vt 0.017373 0.142188
vt 0.021326 0.147800
vt 0.022095 0.130884
vt 0.034380 0.143001
vt 0.088099 0.223470
vt 0.074838 0.223470
vt 0.074838 0.210209
vt 0.088099 0.210209
vt 0.074838 0.196948
vt 0.088099 0.196948
vt 0.034380 0.159007
vt 0.003479 0.129350
vt 0.150838 0.019486
vt 0.162045 0.016534
vt 0.167657 0.020486
vt 0.161409 0.032577
vt 0.166844 0.003480
vt 0.178961 0.015764
vt 0.219172 0.161156
vt 0.205911 0.161156
vt 0.205911 0.147895
vt 0.219172 0.147895
vt 0.192650 0.161156
vt 0.192650 0.147895
vt 0.150838 0.003480
vt 0.180495 0.034380
vt 0.010320 0.068877
vt 0.018445 0.069117
vt 0.018729 0.071750
vt 0.010002 0.071672
vt 0.010050 0.063433
vt 0.018678 0.063584
vt 0.009921 0.055688
vt 0.018876 0.055797
vt 0.010038 0.047886
vt 0.018816 0.047959
vt 0.010309 0.042333
vt 0.018781 0.042239
vt 0.009897 0.039419
vt 0.019240 0.039480
vt 0.009400 0.036343
vt 0.019841 0.036259
vt 0.009699 0.029319
vt 0.019838 0.029322
vt 0.010014 0.020271
vt 0.019817 0.020339
vt 0.010222 0.011431
vt 0.019969 0.011525
vt 0.010637 0.005023
vt 0.019852 0.005257
vt 0.018967 0.074667
vt 0.009711 0.074659
vt 0.023323 0.071780
vt 0.023263 0.074561
vt 0.024920 0.065151
vt 0.025785 0.055882
vt 0.025168 0.046617
vt 0.023971 0.039892
vt 0.024209 0.037124
vt 0.024632 0.034626
vt 0.024269 0.028663
vt 0.024166 0.020348
vt 0.024298 0.012050
vt 0.024308 0.006097
vt 0.023163 0.077355
vt 0.007753 0.171219
vt 0.007997 0.184147
vt 0.005795 0.184563
vt 0.005619 0.172680
vt 0.013662 0.170016
vt 0.013959 0.183785
vt 0.021814 0.169492
vt 0.022043 0.183540
vt 0.029940 0.169801
vt 0.029999 0.183556
vt 0.035868 0.170842
vt 0.035638 0.183887
vt 0.038021 0.172276
vt 0.037586 0.184301
vt 0.040146 0.173695
vt 0.040029 0.184799
vt 0.046115 0.174940
vt 0.045656 0.185274
vt 0.054311 0.175738
vt 0.053650 0.185883
vt 0.062609 0.175905
vt 0.061851 0.186406
vt 0.068760 0.175278
vt 0.067956 0.186614
vt 0.003843 0.184963
vt 0.003484 0.174153
vt 0.010349 0.269209
vt 0.008087 0.270938
vt 0.016743 0.264189
vt 0.024360 0.257695
vt 0.030539 0.251946
vt 0.034441 0.248166
vt 0.035978 0.247047
vt 0.037270 0.248053
vt 0.040839 0.251756
vt 0.046528 0.257393
vt 0.053659 0.263699
vt 0.059908 0.268527
vt 0.005574 0.268467
vt 0.006596 0.303896
vt 0.005011 0.305122
vt 0.012406 0.299527
vt 0.020627 0.293627
vt 0.028668 0.287514
vt 0.033880 0.282885
vt 0.035555 0.281242
vt 0.036953 0.282677
vt 0.041815 0.287235
vt 0.049788 0.293528
vt 0.058582 0.299765
vt 0.065347 0.304546
vt 0.003484 0.303423
vt 0.470385 0.023755
vt 0.470084 0.064800
vt 0.469517 0.065178
vt 0.469843 0.025112
vt 0.471819 0.019823
vt 0.471581 0.063721
vt 0.473801 0.014362
vt 0.473634 0.062234
vt 0.475809 0.008846
vt 0.475702 0.060736
vt 0.477307 0.004761
vt 0.477247 0.059624
vt 0.477939 0.003152
vt 0.477893 0.059196
vt 0.478497 0.004545
vt 0.478455 0.059561
vt 0.479931 0.008469
vt 0.479941 0.060632
vt 0.481907 0.013916
vt 0.481988 0.062119
vt 0.483898 0.019423
vt 0.484063 0.063625
vt 0.485381 0.023507
vt 0.485617 0.064749
vt 0.468889 0.064741
vt 0.469257 0.023533
vt 0.470085 0.399238
vt 0.469527 0.398863
vt 0.471578 0.400319
vt 0.473628 0.401810
vt 0.475693 0.403313
vt 0.477235 0.404427
vt 0.477869 0.404850
vt 0.478442 0.404480
vt 0.479931 0.403412
vt 0.481981 0.401930
vt 0.484057 0.400427
vt 0.485614 0.399306
vt 0.468889 0.399305
vt 0.470226 0.440280
vt 0.469689 0.438921
vt 0.471644 0.444218
vt 0.473604 0.449684
vt 0.475589 0.455204
vt 0.477071 0.459293
vt 0.477697 0.460906
vt 0.478260 0.459516
vt 0.479712 0.455592
vt 0.481711 0.450145
vt 0.483725 0.444640
vt 0.485224 0.440559
vt 0.469096 0.440498
vt 0.213912 0.308193
vt 0.210159 0.273506
vt 0.212421 0.275236
vt 0.215497 0.309420
vt 0.208102 0.303824
vt 0.203765 0.268487
vt 0.199881 0.297925
vt 0.196148 0.261992
vt 0.191840 0.291812
vt 0.189969 0.256244
vt 0.186628 0.287183
vt 0.186067 0.252463
vt 0.184953 0.285539
vt 0.184530 0.251345
vt 0.183555 0.286975
vt 0.183238 0.252351
vt 0.178693 0.291533
vt 0.179669 0.256054
vt 0.170720 0.297826
vt 0.173980 0.261691
vt 0.161926 0.304062
vt 0.166849 0.267996
vt 0.155161 0.308843
vt 0.160599 0.272824
vt 0.214934 0.272765
vt 0.217024 0.307720
vt 0.212511 0.188444
vt 0.214713 0.188861
vt 0.206549 0.188083
vt 0.198465 0.187837
vt 0.190509 0.187853
vt 0.184870 0.188184
vt 0.182922 0.188598
vt 0.180479 0.189097
vt 0.174852 0.189572
vt 0.166858 0.190181
vt 0.158657 0.190704
vt 0.152552 0.190912
vt 0.216665 0.189260
vt 0.212755 0.175517
vt 0.214889 0.176977
vt 0.206846 0.174314
vt 0.198694 0.173789
vt 0.190568 0.174098
vt 0.184640 0.175140
vt 0.182487 0.176574
vt 0.180362 0.177993
vt 0.174393 0.179237
vt 0.166197 0.180036
vt 0.157899 0.180202
vt 0.151748 0.179575
vt 0.217024 0.178451
vt 0.212084 0.010637
vt 0.207211 0.013365
vt 0.207486 0.010705
vt 0.212019 0.007853
vt 0.213750 0.017134
vt 0.207627 0.018816
vt 0.214875 0.026258
vt 0.208041 0.026538
vt 0.214541 0.035477
vt 0.208260 0.034333
vt 0.213526 0.042143
vt 0.208263 0.039938
vt 0.213853 0.044900
vt 0.208821 0.042691
vt 0.214341 0.047407
vt 0.209525 0.045868
vt 0.214077 0.053450
vt 0.209581 0.052881
vt 0.214151 0.061808
vt 0.209790 0.061892
vt 0.214396 0.070157
vt 0.210010 0.070716
vt 0.214459 0.076243
vt 0.209908 0.077140
vt 0.207729 0.007748
vt 0.211918 0.005063
vt 0.199090 0.013476
vt 0.198766 0.010707
vt 0.199007 0.018994
vt 0.199092 0.026792
vt 0.199492 0.034617
vt 0.199798 0.040286
vt 0.199488 0.043204
vt 0.199090 0.046311
vt 0.199445 0.053245
vt 0.199987 0.062254
vt 0.200258 0.071091
vt 0.200681 0.077355
vt 0.198485 0.007767
vt 0.194057 0.010777
vt 0.194079 0.007931
vt 0.192628 0.017611
vt 0.192131 0.026991
vt 0.193169 0.036281
vt 0.194755 0.043004
vt 0.194693 0.045730
vt 0.194417 0.048225
vt 0.195068 0.054139
vt 0.195623 0.062470
vt 0.195903 0.070778
vt 0.196183 0.076732
vt 0.194147 0.005063
vt 0.457713 0.780416
vt 0.457469 0.767489
vt 0.459670 0.767073
vt 0.459846 0.778956
vt 0.451803 0.781620
vt 0.451506 0.767851
vt 0.443651 0.782144
vt 0.443422 0.768096
vt 0.435526 0.781835
vt 0.435467 0.768080
vt 0.429597 0.780794
vt 0.429827 0.767749
vt 0.427444 0.779360
vt 0.427880 0.767335
vt 0.425319 0.777941
vt 0.425437 0.766837
vt 0.419350 0.776696
vt 0.419809 0.766362
vt 0.411154 0.775898
vt 0.411816 0.765753
vt 0.402856 0.775731
vt 0.403614 0.765230
vt 0.396705 0.776358
vt 0.397509 0.765022
vt 0.461623 0.766673
vt 0.461981 0.777483
vt 0.455116 0.682427
vt 0.457378 0.680698
vt 0.448722 0.687447
vt 0.441105 0.693941
vt 0.434926 0.699690
vt 0.431024 0.703470
vt 0.429488 0.704589
vt 0.428195 0.703583
vt 0.424626 0.699880
vt 0.418937 0.694243
vt 0.411806 0.687937
vt 0.405557 0.683109
vt 0.459891 0.683169
vt 0.458870 0.647740
vt 0.460454 0.646514
vt 0.453059 0.652109
vt 0.444838 0.658009
vt 0.436797 0.664122
vt 0.431585 0.668751
vt 0.429910 0.670394
vt 0.428512 0.668959
vt 0.423651 0.664401
vt 0.415677 0.658108
vt 0.406883 0.651871
vt 0.400118 0.647090
vt 0.461981 0.648213
vt 0.460460 0.440380
vt 0.460730 0.399437
vt 0.461296 0.399059
vt 0.460999 0.439027
vt 0.459033 0.444301
vt 0.459236 0.400515
vt 0.457064 0.449740
vt 0.457185 0.402002
vt 0.455070 0.455233
vt 0.455120 0.403500
vt 0.453581 0.459301
vt 0.453578 0.404611
vt 0.452953 0.460906
vt 0.452943 0.405032
vt 0.452396 0.459519
vt 0.452381 0.404668
vt 0.450962 0.455610
vt 0.450896 0.403599
vt 0.448987 0.450183
vt 0.448851 0.402115
vt 0.446995 0.444696
vt 0.446779 0.400611
vt 0.445511 0.440625
vt 0.445226 0.399490
vt 0.461924 0.399495
vt 0.461586 0.440601
vt 0.460784 0.064998
vt 0.461343 0.065373
vt 0.459288 0.063916
vt 0.457236 0.062424
vt 0.455167 0.060921
vt 0.453623 0.059807
vt 0.452977 0.059377
vt 0.452404 0.059747
vt 0.450915 0.060818
vt 0.448863 0.062302
vt 0.446784 0.063808
vt 0.445226 0.064931
vt 0.461981 0.064931
vt 0.460612 0.023854
vt 0.461151 0.025216
vt 0.459186 0.019904
vt 0.457214 0.014417
vt 0.455216 0.008874
vt 0.453724 0.004768
vt 0.453094 0.003151
vt 0.452531 0.004546
vt 0.451078 0.008486
vt 0.449079 0.013954
vt 0.447065 0.019478
vt 0.445567 0.023572
vt 0.461744 0.023636
vt 0.421304 0.505923
vt 0.425058 0.540610
vt 0.422796 0.538880
vt 0.419720 0.504696
vt 0.427115 0.510292
vt 0.431452 0.545630
vt 0.435336 0.516191
vt 0.439069 0.552124
vt 0.443377 0.522304
vt 0.445248 0.557872
vt 0.448589 0.526933
vt 0.449150 0.561653
vt 0.450263 0.528577
vt 0.450686 0.562771
vt 0.451662 0.527142
vt 0.451979 0.561765
vt 0.456523 0.522583
vt 0.455548 0.558062
vt 0.464497 0.516290
vt 0.461236 0.552426
vt 0.473291 0.510054
vt 0.468367 0.546120
vt 0.480056 0.505273
vt 0.474617 0.541292
vt 0.420283 0.541351
vt 0.418193 0.506396
vt 0.422705 0.625672
vt 0.420504 0.625255
vt 0.428668 0.626033
vt 0.436751 0.626279
vt 0.444707 0.626263
vt 0.450346 0.625932
vt 0.452294 0.625518
vt 0.454737 0.625019
vt 0.460365 0.624544
vt 0.468358 0.623935
vt 0.476559 0.623412
vt 0.482664 0.623205
vt 0.418551 0.624856
vt 0.422461 0.638599
vt 0.420328 0.637139
vt 0.428370 0.639802
vt 0.436522 0.640327
vt 0.444648 0.640018
vt 0.450577 0.638976
vt 0.452730 0.637543
vt 0.454855 0.636124
vt 0.460823 0.634879
vt 0.469020 0.634080
vt 0.477318 0.633914
vt 0.483468 0.634541
vt 0.418193 0.635665
vt 0.005286 0.071638
vt 0.005309 0.074489
vt 0.003784 0.064933
vt 0.003023 0.055684
vt 0.003778 0.046424
vt 0.005180 0.039751
vt 0.005031 0.037028
vt 0.004691 0.034518
vt 0.005251 0.028509
vt 0.005638 0.020127
vt 0.005813 0.011773
vt 0.006049 0.005695
vt 0.005372 0.077355
vt 0.048306 0.022224
vt 0.052117 0.019961
vt 0.053719 0.047554
vt 0.050302 0.044868
vt 0.037835 0.055867
vt 0.035557 0.051515
vt 0.132994 0.240211
vt 0.136741 0.240211
vt 0.136741 0.270742
vt 0.132994 0.270742
vt 0.035557 0.016213
vt 0.038065 0.011450
vt 0.150412 0.240211
vt 0.150412 0.270742
vt 0.069496 0.016075
vt 0.092140 0.018071
vt 0.094827 0.021487
vt 0.067233 0.019886
vt 0.098787 0.003325
vt 0.103140 0.005603
vt 0.199834 0.326610
vt 0.169302 0.326610
vt 0.169302 0.322863
vt 0.199834 0.322863
vt 0.063485 0.003325
vt 0.058723 0.005834
vt 0.169302 0.309192
vt 0.199834 0.309192
vt 0.439419 0.493100
vt 0.434361 0.493124
vt 0.432464 0.058991
vt 0.437064 0.003593
vt 0.431923 0.059004
vt 0.427631 0.003150
vt 0.433678 0.493127
vt 0.427631 0.493138
vt 0.395370 0.491322
vt 0.395370 0.496361
vt 0.394795 0.496361
vt 0.394795 0.491322
vt 0.394795 0.003739
vt 0.395370 0.003739
vt 0.421155 0.003187
vt 0.418800 0.492694
vt 0.414199 0.437297
vt 0.416096 0.003162
vt 0.409366 0.493138
vt 0.413659 0.437283
vt 0.409366 0.003149
vt 0.415413 0.003160
vt 0.402890 0.008778
vt 0.402316 0.008778
vt 0.402316 0.003739
vt 0.402890 0.003739
vt 0.402316 0.496361
vt 0.402890 0.496361
vt 0.386775 0.126894
vt 0.225864 0.126894
vt 0.225864 0.065317
vt 0.386775 0.065317
vt 0.225864 0.003739
vt 0.386775 0.003739
vt 0.386775 0.496361
vt 0.225864 0.496361
vt 0.225864 0.434783
vt 0.386775 0.434783
vt 0.225864 0.373205
vt 0.386775 0.373205
vt 0.225864 0.311628
vt 0.386775 0.311628
vt 0.225864 0.250050
vt 0.386775 0.250050
vt 0.738602 0.169353
vt 0.782144 0.212895
vt 0.782144 0.274473
vt 0.738602 0.318015
vt 0.677025 0.318015
vt 0.633483 0.274473
vt 0.633483 0.212895
vt 0.677025 0.169353
vt 0.225864 0.188472
vt 0.386775 0.188472
vt 0.780164 0.740920
vt 0.841742 0.740920
vt 0.885284 0.784462
vt 0.885284 0.846040
vt 0.841742 0.889582
vt 0.780164 0.889582
vt 0.736622 0.846040
vt 0.736622 0.784462
vt 0.615616 0.513369
vt 0.492008 0.513369
vt 0.492008 0.466066
vt 0.615616 0.466066
vt 0.492008 0.418763
vt 0.615616 0.418763
vt 0.615616 0.797186
vt 0.492008 0.797186
vt 0.492008 0.749883
vt 0.615616 0.749883
vt 0.492008 0.702580
vt 0.615616 0.702580
vt 0.492008 0.655277
vt 0.615616 0.655277
vt 0.492008 0.607974
vt 0.615616 0.607974
vt 0.929191 0.444475
vt 0.962639 0.477923
vt 0.962639 0.525226
vt 0.929191 0.558674
vt 0.881888 0.558674
vt 0.848440 0.525226
vt 0.848440 0.477923
vt 0.881888 0.444475
vt 0.492008 0.560671
vt 0.615616 0.560671
vt 0.826021 0.003982
vt 0.873324 0.003982
vt 0.906772 0.037430
vt 0.906772 0.084733
vt 0.873324 0.118181
vt 0.826021 0.118181
vt 0.792573 0.084733
vt 0.792573 0.037430
vt 0.098660 0.647792
vt 0.098660 0.771401
vt 0.051357 0.771401
vt 0.051357 0.647792
vt 0.004055 0.771401
vt 0.004055 0.647792
vt 0.382477 0.647792
vt 0.382477 0.771401
vt 0.335174 0.771401
vt 0.335174 0.647792
vt 0.287872 0.771401
vt 0.287872 0.647792
vt 0.240569 0.771401
vt 0.240569 0.647792
vt 0.193266 0.771401
vt 0.193266 0.647792
vt 0.003982 0.886216
vt 0.003982 0.838913
vt 0.037430 0.805465
vt 0.084733 0.805465
vt 0.118181 0.838913
vt 0.118181 0.886216
vt 0.084733 0.919664
vt 0.037430 0.919664
vt 0.145963 0.771401
vt 0.145963 0.647792
vt 0.447841 0.805465
vt 0.495144 0.805465
vt 0.528592 0.838913
vt 0.528592 0.886216
vt 0.495144 0.919664
vt 0.447841 0.919664
vt 0.414393 0.886216
vt 0.414393 0.838913
vt 0.756359 0.465022
vt 0.632751 0.465022
vt 0.632751 0.417719
vt 0.756359 0.417719
vt 0.632751 0.370416
vt 0.756359 0.370416
vt 0.756359 0.748839
vt 0.632751 0.748839
vt 0.632751 0.701536
vt 0.756359 0.701536
vt 0.632751 0.654233
vt 0.756359 0.654233
vt 0.632751 0.606930
vt 0.756359 0.606930
vt 0.632751 0.559627
vt 0.756359 0.559627
vt 0.966937 0.890483
vt 0.966937 0.937786
vt 0.933489 0.971234
vt 0.886186 0.971234
vt 0.852738 0.937786
vt 0.852738 0.890483
vt 0.886186 0.857035
vt 0.933489 0.857035
vt 0.632751 0.512325
vt 0.756359 0.512325
vt 0.511087 0.916268
vt 0.544535 0.882820
vt 0.591838 0.882820
vt 0.625286 0.916268
vt 0.625286 0.963571
vt 0.591838 0.997019
vt 0.544535 0.997019
vt 0.511087 0.963571
vt 0.207435 0.638178
vt 0.207435 0.504876
vt 0.258447 0.504876
vt 0.258447 0.638178
vt 0.309460 0.504876
vt 0.309460 0.638178
vt 0.360473 0.504876
vt 0.360473 0.638178
vt 0.411485 0.504876
vt 0.411485 0.638178
vt 0.003384 0.638178
vt 0.003384 0.504876
vt 0.054397 0.504876
vt 0.054397 0.638178
vt 0.105409 0.504876
vt 0.105409 0.638178
vt 0.887890 0.575188
vt 0.923962 0.611259
vt 0.923962 0.662272
vt 0.887890 0.698343
vt 0.836878 0.698343
vt 0.800806 0.662272
vt 0.800806 0.611259
vt 0.836878 0.575188
vt 0.156422 0.504876
vt 0.156422 0.638178
vt 0.367893 0.783616
vt 0.403965 0.819688
vt 0.403965 0.870700
vt 0.367893 0.906772
vt 0.316881 0.906772
vt 0.280809 0.870700
vt 0.280809 0.819688
vt 0.316881 0.783616
vt 0.626360 0.207435
vt 0.626360 0.258447
vt 0.493058 0.258447
vt 0.493058 0.207435
vt 0.626360 0.309460
vt 0.493058 0.309460
vt 0.626360 0.360473
vt 0.493058 0.360473
vt 0.626360 0.411485
vt 0.493058 0.411485
vt 0.626360 0.003384
vt 0.626360 0.054397
vt 0.493058 0.054397
vt 0.493058 0.003384
vt 0.626360 0.105409
vt 0.493058 0.105409
vt 0.724128 0.874998
vt 0.688057 0.911069
vt 0.637044 0.911069
vt 0.600973 0.874998
vt 0.600973 0.823985
vt 0.637044 0.787914
vt 0.688057 0.787914
vt 0.724128 0.823985
vt 0.626360 0.156422
vt 0.493058 0.156422
vt 0.792211 0.168617
vt 0.828283 0.132546
vt 0.879295 0.132546
vt 0.915367 0.168617
vt 0.915367 0.219630
vt 0.879295 0.255701
vt 0.828283 0.255701
vt 0.792211 0.219630
vt 0.765298 0.434047
vt 0.765298 0.301169
vt 0.898177 0.301169
vt 0.898177 0.434047
vt 0.023855 0.097886
vt 0.129760 0.003739
vt 0.218098 0.114488
vt 0.118867 0.181046
vt 0.175208 0.154012
vt 0.176303 0.155755
vt 0.128089 0.186378
vt 0.125575 0.184910
vt 0.111624 0.304405
vt 0.218098 0.405776
vt 0.104857 0.496361
vt 0.014272 0.383120
vt 0.108317 0.302599
vt 0.014738 0.378814
vt 0.003399 0.365003
vt 0.090704 0.293326
vt 0.635995 0.162230
vt 0.635995 0.010616
vt 0.683837 0.049769
vt 0.675661 0.112339
vt 0.776604 0.289863
vt 0.886871 0.289863
vt 0.472163 0.762244
vt 0.472163 0.651977
vt 0.483468 0.640671
vt 0.483468 0.773549
vt 0.834629 0.452143
vt 0.834629 0.562410
vt 0.823323 0.573716
vt 0.823323 0.440837
vt 0.015947 0.783731
vt 0.126214 0.783731
vt 0.137520 0.795037
vt 0.004642 0.795037
vt 0.779987 0.286480
vt 0.883488 0.286480
vt 0.468780 0.758861
vt 0.468780 0.655360
vt 0.838012 0.455526
vt 0.838012 0.559027
vt 0.019330 0.780348
vt 0.122831 0.780348
vt 0.746776 0.053777
vt 0.738600 0.116347
vt 0.786442 0.003886
vt 0.786442 0.155501
vt 0.770983 0.578057
vt 0.770983 0.702940
vt 0.766985 0.706938
vt 0.766985 0.574060
vt 0.114216 0.182743
vt 0.024317 0.104925
vt 0.272891 0.906772
vt 0.148008 0.906772
vt 0.148008 0.781889
vt 0.272891 0.781889
vt 0.097519 0.190371
vt 0.014962 0.115624
vt 0.790739 0.578057
vt 0.790739 0.702940
vt 0.122063 0.300754
vt 0.769346 0.565166
vt 0.769346 0.449387
vt 0.176934 0.351177
vt 0.966937 0.814376
vt 0.896585 0.814376
vt 0.896585 0.698596
vt 0.966937 0.698596
vt 0.125285 0.299331
vt 0.179144 0.348770
vt 0.766201 0.565166
vt 0.766201 0.449387
s 0
usemtl Материал
f 1/1/1 2/2/1 4/3/1 3/4/1
f 3/4/2 4/3/2 8/5/2 7/6/2
f 7/7/3 8/8/3 6/9/3 5/10/3
f 5/10/4 6/9/4 2/11/4 1/12/4
f 3/4/5 7/6/5 5/13/5 1/1/5
f 8/5/6 4/3/6 2/2/6 6/14/6
f 9/15/1 11/16/1 12/17/1 10/18/1
f 11/16/4 15/19/4 16/20/4 12/17/4
f 15/21/3 13/22/3 14/23/3 16/24/3
f 13/22/2 9/25/2 10/26/2 14/23/2
f 11/16/5 9/15/5 13/27/5 15/19/5
f 16/20/6 14/28/6 10/18/6 12/17/6
f 17/29/7 29/30/7 40/31/7 28/32/7
f 18/33/8 30/34/8 29/30/8 17/29/8
f 19/35/9 31/36/9 30/34/9 18/33/9
f 20/37/10 32/38/10 31/36/10 19/35/10
f 21/39/11 33/40/11 32/38/11 20/37/11
f 22/41/12 34/42/12 33/40/12 21/39/12
f 23/43/13 35/44/13 34/42/13 22/41/13
f 24/45/14 36/46/14 35/44/14 23/43/14
f 25/47/15 37/48/15 36/46/15 24/45/15
f 26/49/16 38/50/16 37/48/16 25/47/16
f 27/51/17 39/52/17 38/50/17 26/49/17
f 28/32/18 40/31/18 39/53/18 27/54/18
f 29/30/19 41/55/19 52/56/19 40/31/19
f 30/34/20 42/57/20 41/55/20 29/30/20
f 31/36/21 43/58/21 42/57/21 30/34/21
f 32/38/22 44/59/22 43/58/22 31/36/22
f 33/40/23 45/60/23 44/59/23 32/38/23
f 34/42/24 46/61/24 45/60/24 33/40/24
f 35/44/25 47/62/25 46/61/25 34/42/25
f 36/46/26 48/63/26 47/62/26 35/44/26
f 37/48/27 49/64/27 48/63/27 36/46/27
f 38/50/28 50/65/28 49/64/28 37/48/28
f 39/52/29 51/66/29 50/65/29 38/50/29
f 40/31/30 52/56/30 51/67/30 39/53/30
f 41/68/31 53/69/31 64/70/31 52/71/31
f 42/72/32 54/73/32 53/69/32 41/68/32
f 43/74/33 55/75/33 54/73/33 42/72/33
f 44/76/34 56/77/34 55/75/34 43/74/34
f 45/78/35 57/79/35 56/77/35 44/76/35
f 46/80/36 58/81/36 57/79/36 45/78/36
f 47/82/37 59/83/37 58/81/37 46/80/37
f 48/84/38 60/85/38 59/83/38 47/82/38
f 49/86/39 61/87/39 60/85/39 48/84/39
f 50/88/40 62/89/40 61/87/40 49/86/40
f 51/90/41 63/91/41 62/89/41 50/88/41
f 52/71/42 64/70/42 63/92/42 51/93/42
f 53/69/43 65/94/43 76/95/43 64/70/43
f 54/73/44 66/96/44 65/94/44 53/69/44
f 55/75/45 67/97/45 66/96/45 54/73/45
f 56/77/46 68/98/46 67/97/46 55/75/46
f 57/79/47 69/99/47 68/98/47 56/77/47
f 58/81/48 70/100/48 69/99/48 57/79/48
f 59/83/49 71/101/49 70/100/49 58/81/49
f 60/85/50 72/102/50 71/101/50 59/83/50
f 61/87/51 73/103/51 72/102/51 60/85/51
f 62/89/52 74/104/52 73/103/52 61/87/52
f 63/91/53 75/105/53 74/104/53 62/89/53
f 64/70/54 76/95/54 75/106/54 63/92/54
f 65/94/55 77/107/55 88/108/55 76/95/55
f 66/96/56 78/109/56 77/107/56 65/94/56
f 67/97/57 79/110/57 78/109/57 66/96/57
f 68/98/58 80/111/58 79/110/58 67/97/58
f 69/99/59 81/112/59 80/111/59 68/98/59
f 70/100/60 82/113/60 81/112/60 69/99/60
f 71/101/61 83/114/61 82/113/61 70/100/61
f 72/102/62 84/115/62 83/114/62 71/101/62
f 73/103/63 85/116/63 84/115/63 72/102/63
f 74/104/64 86/117/64 85/116/64 73/103/64
f 75/105/65 87/118/65 86/117/65 74/104/65
f 76/95/66 88/108/66 87/119/66 75/106/66
f 77/120/67 89/121/67 100/122/67 88/123/67
f 78/124/68 90/125/68 89/121/68 77/120/68
f 79/126/69 91/127/69 90/125/69 78/124/69
f 80/128/70 92/129/70 91/127/70 79/126/70
f 81/130/71 93/131/71 92/129/71 80/128/71
f 82/132/72 94/133/72 93/131/72 81/130/72
f 83/134/73 95/135/73 94/133/73 82/132/73
f 84/136/74 96/137/74 95/135/74 83/134/74
f 85/138/75 97/139/75 96/137/75 84/136/75
f 86/140/76 98/141/76 97/139/76 85/138/76
f 87/142/77 99/143/77 98/141/77 86/140/77
f 88/123/78 100/122/78 99/144/78 87/145/78
f 89/121/79 101/146/79 112/147/79 100/122/79
f 90/125/80 102/148/80 101/146/80 89/121/80
f 91/127/81 103/149/81 102/148/81 90/125/81
f 92/129/82 104/150/82 103/149/82 91/127/82
f 93/131/83 105/151/83 104/150/83 92/129/83
f 94/133/84 106/152/84 105/151/84 93/131/84
f 95/135/85 107/153/85 106/152/85 94/133/85
f 96/137/86 108/154/86 107/153/86 95/135/86
f 97/139/87 109/155/87 108/154/87 96/137/87
f 98/141/88 110/156/88 109/155/88 97/139/88
f 99/143/89 111/157/89 110/156/89 98/141/89
f 100/122/90 112/147/90 111/158/90 99/144/90
f 101/146/91 113/159/91 124/160/91 112/147/91
f 102/148/92 114/161/92 113/159/92 101/146/92
f 103/149/93 115/162/93 114/161/93 102/148/93
f 104/150/94 116/163/94 115/162/94 103/149/94
f 105/151/95 117/164/95 116/163/95 104/150/95
f 106/152/96 118/165/96 117/164/96 105/151/96
f 107/153/97 119/166/97 118/165/97 106/152/97
f 108/154/98 120/167/98 119/166/98 107/153/98
f 109/155/99 121/168/99 120/167/99 108/154/99
f 110/156/100 122/169/100 121/168/100 109/155/100
f 111/157/101 123/170/101 122/169/101 110/156/101
f 112/147/102 124/160/102 123/171/102 111/158/102
f 113/172/103 125/173/103 136/174/103 124/175/103
f 114/176/104 126/177/104 125/173/104 113/172/104
f 115/178/105 127/179/105 126/177/105 114/176/105
f 116/180/106 128/181/106 127/179/106 115/178/106
f 117/182/107 129/183/107 128/181/107 116/180/107
f 118/184/108 130/185/108 129/183/108 117/182/108
f 119/186/109 131/187/109 130/185/109 118/184/109
f 120/188/110 132/189/110 131/187/110 119/186/110
f 121/190/111 133/191/111 132/189/111 120/188/111
f 122/192/112 134/193/112 133/191/112 121/190/112
f 123/194/113 135/195/113 134/193/113 122/192/113
f 124/175/114 136/174/114 135/196/114 123/197/114
f 125/173/115 137/198/115 148/199/115 136/174/115
f 126/177/116 138/200/116 137/198/116 125/173/116
f 127/179/117 139/201/117 138/200/117 126/177/117
f 128/181/118 140/202/118 139/201/118 127/179/118
f 129/183/119 141/203/119 140/202/119 128/181/119
f 130/185/120 142/204/120 141/203/120 129/183/120
f 131/187/121 143/205/121 142/204/121 130/185/121
f 132/189/122 144/206/122 143/205/122 131/187/122
f 133/191/123 145/207/123 144/206/123 132/189/123
f 134/193/124 146/208/124 145/207/124 133/191/124
f 135/195/125 147/209/125 146/208/125 134/193/125
f 136/174/126 148/199/126 147/210/126 135/196/126
f 137/198/36 149/211/36 160/212/36 148/199/36
f 138/200/35 150/213/35 149/211/35 137/198/35
f 139/201/34 151/214/34 150/213/34 138/200/34
f 140/202/33 152/215/33 151/214/33 139/201/33
f 141/203/32 153/216/32 152/215/32 140/202/32
f 142/204/31 154/217/31 153/216/31 141/203/31
f 143/205/42 155/218/42 154/217/42 142/204/42
f 144/206/41 156/219/41 155/218/41 143/205/41
f 145/207/40 157/220/40 156/219/40 144/206/40
f 146/208/39 158/221/39 157/220/39 145/207/39
f 147/209/38 159/222/38 158/221/38 146/208/38
f 148/199/37 160/212/37 159/223/37 147/210/37
f 149/224/24 161/225/24 172/226/24 160/227/24
f 150/228/23 162/229/23 161/225/23 149/224/23
f 151/230/22 163/231/22 162/229/22 150/228/22
f 152/232/21 164/233/21 163/231/21 151/230/21
f 153/234/20 165/235/20 164/233/20 152/232/20
f 154/236/19 166/237/19 165/235/19 153/234/19
f 155/238/30 167/239/30 166/237/30 154/236/30
f 156/240/29 168/241/29 167/239/29 155/238/29
f 157/242/28 169/243/28 168/241/28 156/240/28
f 158/244/27 170/245/27 169/243/27 157/242/27
f 159/246/26 171/247/26 170/245/26 158/244/26
f 160/227/25 172/226/25 171/248/25 159/249/25
f 161/225/127 173/250/127 184/251/127 172/226/127
f 162/229/11 174/252/11 173/250/11 161/225/11
f 163/231/10 175/253/10 174/252/10 162/229/10
f 164/233/9 176/254/9 175/253/9 163/231/9
f 165/235/8 177/255/8 176/254/8 164/233/8
f 166/237/7 178/256/7 177/255/7 165/235/7
f 167/239/18 179/257/18 178/256/18 166/237/18
f 168/241/17 180/258/17 179/257/17 167/239/17
f 169/243/16 181/259/16 180/258/16 168/241/16
f 170/245/15 182/260/15 181/259/15 169/243/15
f 171/247/14 183/261/14 182/260/14 170/245/14
f 172/226/128 184/251/128 183/262/128 171/248/128
f 173/250/129 185/263/129 196/264/129 184/251/129
f 174/252/130 186/265/130 185/263/130 173/250/130
f 175/253/131 187/266/131 186/265/131 174/252/131
f 176/254/132 188/267/132 187/266/132 175/253/132
f 177/255/133 189/268/133 188/267/133 176/254/133
f 178/256/134 190/269/134 189/268/134 177/255/134
f 179/257/135 191/270/135 190/269/135 178/256/135
f 180/258/136 192/271/136 191/270/136 179/257/136
f 181/259/137 193/272/137 192/271/137 180/258/137
f 182/260/138 194/273/138 193/272/138 181/259/138
f 183/261/139 195/274/139 194/273/139 182/260/139
f 184/251/140 196/264/140 195/275/140 183/262/140
f 185/276/141 197/277/141 208/278/141 196/279/141
f 186/280/142 198/281/142 197/277/142 185/276/142
f 187/282/143 199/283/143 198/281/143 186/280/143
f 188/284/144 200/285/144 199/283/144 187/282/144
f 189/286/145 201/287/145 200/285/145 188/284/145
f 190/288/146 202/289/146 201/287/146 189/286/146
f 191/290/147 203/291/147 202/289/147 190/288/147
f 192/292/148 204/293/148 203/291/148 191/290/148
f 193/294/149 205/295/149 204/293/149 192/292/149
f 194/296/150 206/297/150 205/295/150 193/294/150
f 195/298/151 207/299/151 206/297/151 194/296/151
f 196/279/152 208/278/152 207/300/152 195/301/152
f 197/277/153 209/302/153 220/303/153 208/278/153
f 198/281/50 210/304/50 209/302/50 197/277/50
f 199/283/154 211/305/154 210/304/154 198/281/154
f 200/285/155 212/306/155 211/305/155 199/283/155
f 201/287/53 213/307/53 212/306/53 200/285/53
f 202/289/156 214/308/156 213/307/156 201/287/156
f 203/291/157 215/309/157 214/308/157 202/289/157
f 204/293/44 216/310/44 215/309/44 203/291/44
f 205/295/158 217/311/158 216/310/158 204/293/158
f 206/297/159 218/312/159 217/311/159 205/295/159
f 207/299/47 219/313/47 218/312/47 206/297/47
f 208/278/160 220/303/160 219/314/160 207/300/160
f 209/302/161 221/315/161 232/316/161 220/303/161
f 210/304/162 222/317/162 221/315/162 209/302/162
f 211/305/163 223/318/163 222/317/163 210/304/163
f 212/306/164 224/319/164 223/318/164 211/305/164
f 213/307/165 225/320/165 224/319/165 212/306/165
f 214/308/166 226/321/166 225/320/166 213/307/166
f 215/309/167 227/322/167 226/321/167 214/308/167
f 216/310/168 228/323/168 227/322/168 215/309/168
f 217/311/169 229/324/169 228/323/169 216/310/169
f 218/312/170 230/325/170 229/324/170 217/311/170
f 219/313/171 231/326/171 230/325/171 218/312/171
f 220/303/172 232/316/172 231/327/172 219/314/172
f 221/328/173 233/329/173 244/330/173 232/331/173
f 222/332/174 234/333/174 233/329/174 221/328/174
f 223/334/175 235/335/175 234/333/175 222/332/175
f 224/336/176 236/337/176 235/335/176 223/334/176
f 225/338/177 237/339/177 236/337/177 224/336/177
f 226/340/178 238/341/178 237/339/178 225/338/178
f 227/342/179 239/343/179 238/341/179 226/340/179
f 228/344/180 240/345/180 239/343/180 227/342/180
f 229/346/181 241/347/181 240/345/181 228/344/181
f 230/348/182 242/349/182 241/347/182 229/346/182
f 231/350/183 243/351/183 242/349/183 230/348/183
f 232/331/184 244/330/184 243/352/184 231/353/184
f 233/329/185 245/354/185 256/355/185 244/330/185
f 234/333/186 246/356/186 245/354/186 233/329/186
f 235/335/187 247/357/187 246/356/187 234/333/187
f 236/337/188 248/358/188 247/357/188 235/335/188
f 237/339/189 249/359/189 248/358/189 236/337/189
f 238/341/190 250/360/190 249/359/190 237/339/190
f 239/343/191 251/361/191 250/360/191 238/341/191
f 240/345/192 252/362/192 251/361/192 239/343/192
f 241/347/193 253/363/193 252/362/193 240/345/193
f 242/349/194 254/364/194 253/363/194 241/347/194
f 243/351/195 255/365/195 254/364/195 242/349/195
f 244/330/196 256/355/196 255/366/196 243/352/196
f 245/354/197 257/367/197 268/368/197 256/355/197
f 246/356/198 258/369/198 257/367/198 245/354/198
f 247/357/199 259/370/199 258/369/199 246/356/199
f 248/358/200 260/371/200 259/370/200 247/357/200
f 249/359/201 261/372/201 260/371/201 248/358/201
f 250/360/202 262/373/202 261/372/202 249/359/202
f 251/361/203 263/374/203 262/373/203 250/360/203
f 252/362/204 264/375/204 263/374/204 251/361/204
f 253/363/205 265/376/205 264/375/205 252/362/205
f 254/364/206 266/377/206 265/376/206 253/363/206
f 255/365/207 267/378/207 266/377/207 254/364/207
f 256/355/208 268/368/208 267/379/208 255/366/208
f 257/380/209 269/381/209 280/382/209 268/383/209
f 258/384/210 270/385/210 269/381/210 257/380/210
f 259/386/211 271/387/211 270/385/211 258/384/211
f 260/388/212 272/389/212 271/387/212 259/386/212
f 261/390/213 273/391/213 272/389/213 260/388/213
f 262/392/214 274/393/214 273/391/214 261/390/214
f 263/394/215 275/395/215 274/393/215 262/392/215
f 264/396/216 276/397/216 275/395/216 263/394/216
f 265/398/217 277/399/217 276/397/217 264/396/217
f 266/400/218 278/401/218 277/399/218 265/398/218
f 267/402/219 279/403/219 278/401/219 266/400/219
f 268/383/220 280/382/220 279/404/220 267/405/220
f 269/381/221 281/406/221 292/407/221 280/382/221
f 270/385/122 282/408/122 281/406/122 269/381/122
f 271/387/222 283/409/222 282/408/222 270/385/222
f 272/389/223 284/410/223 283/409/223 271/387/223
f 273/391/125 285/411/125 284/410/125 272/389/125
f 274/393/224 286/412/224 285/411/224 273/391/224
f 275/395/225 287/413/225 286/412/225 274/393/225
f 276/397/116 288/414/116 287/413/116 275/395/116
f 277/399/226 289/415/226 288/414/226 276/397/226
f 278/401/227 290/416/227 289/415/227 277/399/227
f 279/403/119 291/417/119 290/416/119 278/401/119
f 280/382/228 292/407/228 291/418/228 279/404/228
f 281/406/146 293/419/146 304/420/146 292/407/146
f 282/408/145 294/421/145 293/419/145 281/406/145
f 283/409/144 295/422/144 294/421/144 282/408/144
f 284/410/143 296/423/143 295/422/143 283/409/143
f 285/411/142 297/424/142 296/423/142 284/410/142
f 286/412/141 298/425/141 297/424/141 285/411/141
f 287/413/152 299/426/152 298/425/152 286/412/152
f 288/414/151 300/427/151 299/426/151 287/413/151
f 289/415/150 301/428/150 300/427/150 288/414/150
f 290/416/149 302/429/149 301/428/149 289/415/149
f 291/417/148 303/430/148 302/429/148 290/416/148
f 292/407/147 304/420/147 303/431/147 291/418/147
f 293/432/134 17/29/134 28/32/134 304/433/134
f 294/434/133 18/33/133 17/29/133 293/432/133
f 295/435/132 19/35/132 18/33/132 294/434/132
f 296/436/131 20/37/131 19/35/131 295/435/131
f 297/437/130 21/39/130 20/37/130 296/436/130
f 298/438/129 22/41/129 21/39/129 297/437/129
f 299/439/140 23/43/140 22/41/140 298/438/140
f 300/440/139 24/45/139 23/43/139 299/439/139
f 301/441/138 25/47/138 24/45/138 300/440/138
f 302/442/137 26/49/137 25/47/137 301/441/137
f 303/443/136 27/51/136 26/49/136 302/442/136
f 304/433/135 28/32/135 27/54/135 303/444/135
f 305/445/1 306/446/1 308/447/1 307/448/1
f 307/448/2 308/447/2 312/449/2 311/450/2
f 311/451/3 312/452/3 310/453/3 309/454/3
f 309/455/4 310/456/4 306/446/4 305/445/4
f 307/448/5 311/450/5 309/455/5 305/445/5
f 312/452/6 308/457/6 306/458/6 310/453/6
f 313/459/1 315/460/1 316/461/1 314/462/1
f 315/460/4 319/463/4 320/464/4 316/461/4
f 319/465/3 317/466/3 318/467/3 320/468/3
f 317/469/2 313/459/2 314/462/2 318/470/2
f 315/460/5 313/459/5 317/469/5 319/463/5
f 320/468/6 318/467/6 314/471/6 316/472/6
f 321/473/1 322/474/1 324/475/1 323/476/1
f 323/476/2 324/475/2 328/477/2 327/478/2
f 327/478/3 328/477/3 326/479/3 325/480/3
f 325/481/4 326/482/4 322/483/4 321/484/4
f 323/485/5 327/486/5 325/481/5 321/484/5
f 328/477/6 324/475/6 322/474/6 326/479/6
f 329/487/3 331/488/3 332/489/3 330/490/3
f 331/488/2 335/491/2 336/492/2 332/489/2
f 335/491/1 333/493/1 334/494/1 336/492/1
f 333/495/4 329/496/4 330/497/4 334/498/4
f 331/499/5 329/496/5 333/495/5 335/500/5
f 336/492/6 334/494/6 330/490/6 332/489/6
f 337/501/229 338/502/229 340/503/229 339/504/229
f 339/504/230 340/503/230 342/505/230 341/506/230
f 341/507/231 342/508/231 344/509/231 343/510/231
f 343/510/232 344/509/232 346/511/232 345/512/232
f 345/512/233 346/511/233 348/513/233 347/514/233
f 347/514/234 348/513/234 350/515/234 349/516/234
f 340/517/3 338/518/3 352/519/3 350/520/3 348/521/3 346/522/3 344/523/3 342/524/3
f 349/516/235 350/515/235 352/525/235 351/526/235
f 351/526/236 352/525/236 338/502/236 337/501/236
f 337/527/1 339/528/1 341/529/1 343/530/1 345/531/1 347/532/1 349/533/1 351/534/1
f 353/535/229 354/536/229 356/537/229 355/538/229
f 355/538/230 356/537/230 358/539/230 357/540/230
f 357/541/231 358/542/231 360/543/231 359/544/231
f 359/544/232 360/543/232 362/545/232 361/546/232
f 361/546/233 362/545/233 364/547/233 363/548/233
f 363/548/234 364/547/234 366/549/234 365/550/234
f 356/551/3 354/552/3 368/553/3 366/554/3 364/555/3 362/556/3 360/557/3 358/558/3
f 365/550/235 366/549/235 368/559/235 367/560/235
f 367/560/236 368/559/236 354/536/236 353/535/236
f 353/561/1 355/562/1 357/563/1 359/564/1 361/565/1 363/566/1 365/567/1 367/568/1
f 369/569/229 370/570/229 372/571/229 371/572/229
f 371/572/230 372/571/230 374/573/230 373/574/230
f 373/575/231 374/576/231 376/577/231 375/578/231
f 375/578/232 376/577/232 378/579/232 377/580/232
f 377/580/233 378/579/233 380/581/233 379/582/233
f 379/582/234 380/581/234 382/583/234 381/584/234
f 372/585/3 370/586/3 384/587/3 382/588/3 380/589/3 378/590/3 376/591/3 374/592/3
f 381/584/235 382/583/235 384/593/235 383/594/235
f 383/594/236 384/593/236 370/570/236 369/569/236
f 369/595/1 371/596/1 373/597/1 375/598/1 377/599/1 379/600/1 381/601/1 383/602/1
f 385/603/229 386/604/229 388/605/229 387/606/229
f 387/606/230 388/605/230 390/607/230 389/608/230
f 389/609/231 390/610/231 392/611/231 391/612/231
f 391/612/232 392/611/232 394/613/232 393/614/232
f 393/614/233 394/613/233 396/615/233 395/616/233
f 395/616/234 396/615/234 398/617/234 397/618/234
f 388/619/3 386/620/3 400/621/3 398/622/3 396/623/3 394/624/3 392/625/3 390/626/3
f 397/618/235 398/617/235 400/627/235 399/628/235
f 399/628/236 400/627/236 386/604/236 385/603/236
f 385/629/1 387/630/1 389/631/1 391/632/1 393/633/1 395/634/1 397/635/1 399/636/1
f 401/637/237 402/638/237 404/639/237 403/640/237
f 403/640/238 404/639/238 406/641/238 405/642/238
f 405/642/239 406/641/239 408/643/239 407/644/239
f 407/644/240 408/643/240 410/645/240 409/646/240
f 409/647/241 410/648/241 412/649/241 411/650/241
f 411/650/242 412/649/242 414/651/242 413/652/242
f 404/653/4 402/654/4 416/655/4 414/656/4 412/657/4 410/658/4 408/659/4 406/660/4
f 413/652/243 414/651/243 416/661/243 415/662/243
f 415/662/244 416/661/244 402/638/244 401/637/244
f 401/663/2 403/664/2 405/665/2 407/666/2 409/667/2 411/668/2 413/669/2 415/670/2
f 417/671/244 419/672/244 420/673/244 418/674/244
f 419/672/243 421/675/243 422/676/243 420/673/243
f 421/675/242 423/677/242 424/678/242 422/676/242
f 423/677/241 425/679/241 426/680/241 424/678/241
f 425/681/240 427/682/240 428/683/240 426/684/240
f 427/682/239 429/685/239 430/686/239 428/683/239
f 420/687/4 422/688/4 424/689/4 426/690/4 428/691/4 430/692/4 432/693/4 418/694/4
f 429/685/238 431/695/238 432/696/238 430/686/238
f 431/695/237 417/671/237 418/674/237 432/696/237
f 417/697/2 431/698/2 429/699/2 427/700/2 425/701/2 423/702/2 421/703/2 419/704/2
f 454/705/1 441/706/1 442/707/1 453/708/1
f 453/709/2 442/710/2 461/711/2 462/712/2
f 443/713/4 465/714/4 466/715/4 455/716/4
f 463/717/4 464/718/4 441/719/4 454/720/4
f 437/721/2 433/722/2 458/723/2 460/724/2
f 434/725/245 438/726/245 452/727/245 449/728/245
f 445/729/6 446/730/6 442/707/6 441/706/6
f 446/731/6 447/732/6 461/733/6 442/734/6
f 447/735/6 448/736/6 464/737/6 461/738/6
f 448/739/6 445/740/6 441/741/6 464/742/6
f 434/743/6 436/744/6 446/730/6 445/729/6
f 436/745/6 440/746/6 447/732/6 446/731/6
f 440/747/6 438/748/6 448/736/6 447/735/6
f 438/749/6 434/750/6 445/740/6 448/739/6
f 451/751/6 450/752/6 449/728/6 452/727/6
f 440/753/246 436/754/246 450/752/246 451/751/246
f 438/726/247 440/753/247 451/751/247 452/727/247
f 436/754/248 434/725/248 449/728/248 450/752/248
f 435/755/5 433/756/5 454/757/5 453/758/5
f 439/759/5 435/760/5 453/709/5 462/712/5
f 437/721/5 439/759/5 462/712/5 463/717/5
f 433/722/5 437/721/5 463/717/5 454/720/5
f 457/761/5 459/762/5 460/763/5 458/764/5
f 435/760/4 439/759/4 459/765/4 457/766/4
f 439/759/1 437/721/1 460/724/1 459/765/1
f 433/756/3 435/755/3 457/767/3 458/768/3
f 443/713/3 455/716/3 462/712/3 461/711/3
f 455/716/3 456/769/3 463/717/3 462/712/3
f 444/770/3 443/771/3 461/738/3 464/737/3
f 456/769/3 444/772/3 464/718/3 463/717/3
f 466/773/3 465/774/3 468/775/3 467/776/3
f 456/769/2 467/777/2 468/778/2 444/772/2
f 455/716/6 466/715/6 467/777/6 456/769/6
f 444/770/5 468/779/5 465/780/5 443/771/5
