# Blender 4.2.2 LTS
# www.blender.org
mtllib nightstand.mtl
o nightstand
v -0.927522 0.741540 -1.672186
v -0.927522 3.145296 -1.672186
v 0.959769 0.920390 -1.493336
v 0.959769 2.966446 -1.493336
v -0.927522 0.741540 1.646201
v -0.927522 3.145296 1.646201
v 0.959768 0.920390 1.467352
v 0.959768 2.966446 1.467352
v 0.959769 3.145296 -1.672186
v 0.959769 0.741540 -1.672186
v 0.959768 0.741540 1.646201
v 0.959768 3.145296 1.646201
v -0.921302 2.966446 -1.493336
v -0.921302 0.920390 -1.493336
v -0.921302 0.920390 1.467352
v -0.921302 2.966446 1.467352
v -0.692154 0.519843 -1.396265
v -0.692154 0.800672 -1.396265
v 0.724400 0.519843 -1.396265
v 0.724400 0.800672 -1.396265
v -0.692154 0.519843 1.370281
v -0.692154 0.800672 1.370281
v 0.724400 0.519843 1.370281
v 0.724400 0.800672 1.370281
v 0.515257 0.002188 -1.392999
v 0.515257 0.564164 -1.392999
v 0.718788 0.002188 -1.392999
v 0.718788 0.564164 -1.392999
v 0.515257 0.002188 -1.189467
v 0.515257 0.564164 -1.115291
v 0.718788 0.002188 -1.189467
v 0.718788 0.564164 -1.115291
v 0.515257 0.002188 1.367015
v 0.515257 0.564164 1.367015
v 0.718788 0.002188 1.367015
v 0.718788 0.564164 1.367015
v 0.515257 0.002188 1.163483
v 0.515257 0.564164 1.089307
v 0.718788 0.002188 1.163483
v 0.718788 0.564164 1.089307
v -0.483010 0.002188 -1.392999
v -0.483010 0.564164 -1.392999
v -0.686542 0.002188 -1.392999
v -0.686542 0.564164 -1.392999
v -0.483010 0.002188 -1.189467
v -0.483010 0.564164 -1.115291
v -0.686542 0.002188 -1.189467
v -0.686542 0.564164 -1.115291
v -0.483010 0.002188 1.367015
v -0.483010 0.564164 1.367015
v -0.686542 0.002188 1.367015
v -0.686542 0.564164 1.367015
v -0.483010 0.002188 1.163484
v -0.483010 0.564164 1.089307
v -0.686542 0.002188 1.163484
v -0.686542 0.564164 1.089307
v -0.933351 0.741133 -1.493052
v -0.933351 2.219026 -1.493052
v 1.066649 0.741133 -1.493052
v 1.066649 2.219026 -1.493052
v -0.933351 0.741133 1.467067
v -0.933351 2.219026 1.467067
v 1.066649 0.741133 1.467067
v 1.066649 2.219026 1.467067
vn -0.0000 -0.0000 -1.0000
vn -0.0000 -0.0000 1.0000
vn -0.9994 -0.0348 -0.0000
vn -0.0000 -1.0000 -0.0000
vn -0.0000 1.0000 -0.0000
vn 1.0000 -0.0000 -0.0000
vn -0.9994 -0.0000 -0.0348
vn -0.9994 -0.0000 0.0348
vn -0.9994 0.0348 -0.0000
vn -1.0000 -0.0000 -0.0000
vn -0.0000 -0.1309 0.9914
vn -0.0000 -0.1309 -0.9914
vt 0.003376 0.190127
vt 0.126703 0.003613
vt 0.266262 0.127318
vt 0.149505 0.221681
vt 0.323960 0.996682
vt 0.181353 0.996682
vt 0.181353 0.857745
vt 0.323960 0.857745
vt 0.146788 0.386037
vt 0.266262 0.489372
vt 0.151173 0.586495
vt 0.034442 0.448172
vt 0.967897 0.254461
vt 0.967897 0.485748
vt 0.955423 0.473282
vt 0.955423 0.266927
vt 0.935642 0.025980
vt 0.935642 0.257266
vt 0.796245 0.257266
vt 0.796245 0.025980
vt 0.263767 0.148302
vt 0.159236 0.226668
vt 0.158861 0.380813
vt 0.948107 0.038445
vt 0.948108 0.244801
vt 0.264671 0.467539
vt 0.834476 0.701764
vt 0.834476 0.495408
vt 0.973414 0.495408
vt 0.973414 0.701764
vt 0.816486 0.473282
vt 0.816486 0.266927
vt 0.015839 0.845271
vt 0.158446 0.845271
vt 0.158446 0.984208
vt 0.015839 0.984208
vt 0.168887 0.845271
vt 0.336425 0.845271
vt 0.003373 0.996682
vt 0.170911 0.996682
vt 0.985888 0.482942
vt 0.985888 0.714229
vt 0.725024 0.365598
vt 0.725024 0.533715
vt 0.591248 0.499373
vt 0.556907 0.365598
vt 0.534842 0.555779
vt 0.390453 0.477008
vt 0.613613 0.700168
vt 0.365598 0.725024
vt 0.161161 0.596535
vt 0.318435 0.596535
vt 0.318435 0.753808
vt 0.161161 0.753808
vt 0.003888 0.753808
vt 0.003888 0.596535
vt 0.764371 0.318232
vt 0.767194 0.003520
vt 0.789790 0.003723
vt 0.786968 0.318435
vt 0.718636 0.318435
vt 0.713025 0.003760
vt 0.728810 0.003479
vt 0.730205 0.318228
vt 0.751407 0.003379
vt 0.752801 0.318128
vt 0.004621 0.070954
vt 0.016192 0.070954
vt 0.016192 0.093551
vt 0.004621 0.093551
vt 0.004003 0.006188
vt 0.019790 0.006188
vt 0.019790 0.028785
vt 0.004003 0.028785
vt 0.683413 0.003581
vt 0.706010 0.003379
vt 0.708832 0.318090
vt 0.686236 0.318293
vt 0.637678 0.003379
vt 0.649247 0.003585
vt 0.647852 0.318334
vt 0.632067 0.318053
vt 0.671844 0.003685
vt 0.670449 0.318435
vt 0.029576 0.060392
vt 0.052173 0.060392
vt 0.052173 0.071963
vt 0.029576 0.071963
vt 0.044977 0.024179
vt 0.044977 0.046776
vt 0.029189 0.046776
vt 0.029189 0.024179
vt 0.784161 0.329212
vt 0.806757 0.329010
vt 0.809580 0.643721
vt 0.786983 0.643924
vt 0.738426 0.329010
vt 0.749994 0.329216
vt 0.748600 0.643965
vt 0.732815 0.643684
vt 0.772591 0.329316
vt 0.771197 0.644065
vt 0.046776 0.093551
vt 0.024179 0.093551
vt 0.024179 0.081981
vt 0.046776 0.081981
vt 0.052577 0.048575
vt 0.052577 0.025978
vt 0.068364 0.025978
vt 0.068364 0.048575
vt 0.154703 0.812946
vt 0.469415 0.815768
vt 0.469212 0.838365
vt 0.154500 0.835542
vt 0.154500 0.767211
vt 0.469175 0.761600
vt 0.469456 0.777385
vt 0.154707 0.778779
vt 0.469556 0.799982
vt 0.154807 0.801376
vt 0.089953 0.026986
vt 0.078383 0.026986
vt 0.078383 0.004389
vt 0.089953 0.004389
vt 0.019790 0.061168
vt 0.004003 0.061168
vt 0.004003 0.038571
vt 0.019790 0.038571
vt 0.195517 0.401834
vt 0.226948 0.245591
vt 0.391741 0.307272
vt 0.406957 0.444369
vt 0.473853 0.237396
vt 0.622477 0.319361
vt 0.383905 0.046263
vt 0.622477 0.003362
vt 0.760209 0.712572
vt 0.910327 0.712572
vt 0.910327 0.915724
vt 0.760209 0.915724
vt 0.557057 0.915724
vt 0.557056 0.712572
s 0
usemtl Материал
f 1/1/1 2/2/1 9/3/1 10/4/1
f 8/5/1 7/6/1 15/7/1 16/8/1
f 11/9/2 12/10/2 6/11/2 5/12/2
f 6/13/3 2/14/3 13/15/3 16/16/3
f 10/4/4 11/9/4 5/12/4 1/1/4
f 12/17/5 9/18/5 2/19/5 6/20/5
f 4/21/6 3/22/6 10/4/6 9/3/6
f 3/22/6 7/23/6 11/9/6 10/4/6
f 8/24/6 4/25/6 9/18/6 12/17/6
f 7/23/6 8/26/6 12/10/6 11/9/6
f 7/27/5 3/28/5 14/29/5 15/30/5
f 4/31/4 8/32/4 16/16/4 13/15/4
f 3/33/2 4/34/2 13/35/2 14/36/2
f 5/37/7 6/38/7 16/8/7 15/7/7
f 1/39/8 14/36/8 13/35/8 2/40/8
f 1/41/9 5/42/9 15/30/9 14/29/9
f 17/43/1 18/44/1 20/45/1 19/46/1
f 19/46/6 20/45/6 24/47/6 23/48/6
f 23/48/2 24/47/2 22/49/2 21/50/2
f 21/51/10 22/52/10 18/53/10 17/54/10
f 19/55/4 23/56/4 21/51/4 17/54/4
f 24/47/5 20/45/5 18/44/5 22/49/5
f 25/57/1 26/58/1 28/59/1 27/60/1
f 27/61/6 28/62/6 32/63/6 31/64/6
f 31/64/11 32/63/11 30/65/11 29/66/11
f 29/66/10 30/65/10 26/58/10 25/57/10
f 27/67/4 31/68/4 29/69/4 25/70/4
f 32/71/5 28/72/5 26/73/5 30/74/5
f 33/75/2 35/76/2 36/77/2 34/78/2
f 35/79/6 39/80/6 40/81/6 36/82/6
f 39/80/12 37/83/12 38/84/12 40/81/12
f 37/83/10 33/75/10 34/78/10 38/84/10
f 35/85/4 33/86/4 37/87/4 39/88/4
f 40/89/5 38/90/5 34/91/5 36/92/5
f 41/93/1 43/94/1 44/95/1 42/96/1
f 43/97/10 47/98/10 48/99/10 44/100/10
f 47/98/11 45/101/11 46/102/11 48/99/11
f 45/101/6 41/93/6 42/96/6 46/102/6
f 43/103/4 41/104/4 45/105/4 47/106/4
f 48/107/5 46/108/5 42/109/5 44/110/5
f 49/111/2 50/112/2 52/113/2 51/114/2
f 51/115/10 52/116/10 56/117/10 55/118/10
f 55/118/12 56/117/12 54/119/12 53/120/12
f 53/120/6 54/119/6 50/112/6 49/111/6
f 51/121/4 55/122/4 53/123/4 49/124/4
f 56/125/5 52/126/5 50/127/5 54/128/5
f 57/129/1 58/130/1 60/131/1 59/132/1
f 59/132/6 60/131/6 64/133/6 63/134/6
f 63/134/2 64/133/2 62/135/2 61/136/2
f 61/137/10 62/138/10 58/139/10 57/140/10
f 59/141/4 63/142/4 61/137/4 57/140/4
f 64/133/5 60/131/5 58/130/5 62/135/5
