# Blender 4.2.2 LTS
# www.blender.org
mtllib open safe.mtl
o open_safe
v 1.719738 1.092442 -0.311106
v 1.422253 1.381787 -0.698579
v 1.719138 1.120789 -0.289478
v 1.421653 1.410133 -0.676951
v 1.697242 1.132530 -0.263899
v 1.399757 1.421874 -0.651372
v 1.666875 1.120789 -0.249352
v 1.369390 1.410133 -0.636825
v 1.645826 1.092442 -0.254359
v 1.348341 1.381787 -0.641832
v 1.646426 1.064096 -0.275987
v 1.348941 1.353441 -0.663460
v 1.668322 1.052355 -0.301566
v 1.370837 1.341699 -0.689039
v 1.698689 1.064096 -0.316113
v 1.401204 1.353441 -0.703586
v 2.096289 1.287567 0.179351
v 1.771162 1.094404 -0.244126
v 2.078640 1.318547 0.178771
v 1.753512 1.125384 -0.244707
v 2.049680 1.331380 0.195151
v 1.724553 1.138216 -0.228326
v 2.026376 1.318547 0.218897
v 1.701248 1.125384 -0.204581
v 2.022377 1.287567 0.236097
v 1.697250 1.094404 -0.187380
v 2.040027 1.256587 0.236678
v 1.714900 1.063424 -0.186800
v 2.068986 1.243755 0.220297
v 1.743859 1.050591 -0.203180
v 2.092291 1.256587 0.196552
v 1.767164 1.063424 -0.226926
v 1.796491 0.456418 -0.211136
v 1.743403 1.017447 -0.280282
v 1.765842 0.451359 -0.228647
v 1.712754 1.012388 -0.297794
v 1.731498 0.449264 -0.219280
v 1.678410 1.010293 -0.288427
v 1.713578 0.451359 -0.188521
v 1.660490 1.012388 -0.257668
v 1.722579 0.456418 -0.154389
v 1.669491 1.017447 -0.223535
v 1.753228 0.461476 -0.136877
v 1.700140 1.022505 -0.206024
v 1.787572 0.463572 -0.146245
v 1.734484 1.024601 -0.215391
v 1.805492 0.461476 -0.177003
v 1.752404 1.022505 -0.246150
v 1.545262 1.412459 -0.132404
v 1.575139 1.232049 -0.155342
v 1.693059 1.311930 0.060100
v 1.645249 1.184361 -0.064024
v 1.754279 1.069233 0.139839
v 1.674290 1.069233 -0.026199
v 1.693059 0.826536 0.060101
v 1.645249 0.954105 -0.064024
v 1.545262 0.726007 -0.132404
v 1.575139 0.906417 -0.155342
v 1.397466 0.826536 -0.324909
v 1.505029 0.954105 -0.246661
v 1.336246 1.069233 -0.404647
v 1.475988 1.069233 -0.284486
v 1.397466 1.311930 -0.324909
v 1.505029 1.184361 -0.246661
v 1.722936 1.311930 0.037163
v 1.575139 1.412459 -0.155342
v 1.784155 1.069233 0.116901
v 1.722936 0.826536 0.037163
v 1.575139 0.726007 -0.155342
v 1.427342 0.826536 -0.347847
v 1.366123 1.069233 -0.427585
v 1.427342 1.311930 -0.347847
v 1.670326 1.140499 -0.138575
v 1.626927 1.170018 -0.195102
v 1.688302 1.069233 -0.115161
v 1.670326 0.997967 -0.138575
v 1.626927 0.968448 -0.195102
v 1.583527 0.997967 -0.251630
v 1.565551 1.069233 -0.275044
v 1.583527 1.140499 -0.251630
v 1.697037 1.184361 -0.103784
v 1.626927 1.232049 -0.195102
v 1.726077 1.069233 -0.065959
v 1.697037 0.954105 -0.103784
v 1.626927 0.906417 -0.195102
v 1.556816 0.954105 -0.286421
v 1.527776 1.069233 -0.324246
v 1.556816 1.184361 -0.286421
v 1.812403 1.140499 -0.247656
v 1.769004 1.170018 -0.304183
v 1.830379 1.069233 -0.224241
v 1.812403 0.997967 -0.247656
v 1.769004 0.968448 -0.304183
v 1.725604 0.997967 -0.360710
v 1.707628 1.069233 -0.384125
v 1.725604 1.140499 -0.360710
v 1.610588 1.858775 -0.127037
v 1.527579 1.820099 -0.044024
v 1.684040 1.944464 -0.039423
v 1.616918 1.924321 0.062540
v 1.696688 2.084043 -0.023928
v 1.632302 2.094088 0.081385
v 1.641123 2.195748 -0.089631
v 1.564719 2.229953 0.001473
v 1.549894 2.214144 -0.198042
v 1.453758 2.252328 -0.130386
v 1.476442 2.128454 -0.285656
v 1.364419 2.148106 -0.236950
v 1.463793 1.988876 -0.301151
v 1.349035 1.978338 -0.255796
v 1.519359 1.877171 -0.235448
v 1.416618 1.842474 -0.175883
v 1.617151 1.820345 -0.119359
v 1.706490 1.924567 -0.012794
v 1.721874 2.094334 0.006051
v 1.654291 2.230199 -0.073862
v 1.543331 2.252574 -0.205720
v 1.453992 2.148352 -0.312284
v 1.438608 1.978584 -0.331130
v 1.506191 1.842719 -0.251217
v 1.590799 1.951744 -0.141594
v 1.625804 1.992580 -0.099841
v 1.631831 2.059097 -0.092457
v 1.605351 2.112331 -0.123768
v 1.561875 2.121098 -0.175432
v 1.526871 2.080262 -0.217186
v 1.520843 2.013745 -0.224569
v 1.547323 1.960511 -0.193259
v 1.596545 1.858736 -0.115226
v 1.669997 1.944426 -0.027612
v 1.682645 2.084004 -0.012117
v 1.627080 2.195709 -0.077820
v 1.535851 2.214105 -0.186231
v 1.462399 2.128416 -0.273845
v 1.449750 1.988837 -0.289340
v 1.505315 1.877132 -0.223638
v 1.636479 1.958129 -0.182400
v 1.668900 1.995952 -0.143727
v 1.674483 2.057561 -0.136888
v 1.649957 2.106867 -0.165889
v 1.609689 2.114987 -0.213741
v 1.577267 2.077164 -0.252413
v 1.571685 2.015555 -0.259252
v 1.596211 1.966249 -0.230252
v 1.746442 2.194474 0.343912
v 1.883578 2.194474 0.522532
v 1.725025 2.129287 0.360356
v 1.862161 2.129287 0.538975
v 1.673319 2.102285 0.400053
v 1.810455 2.102285 0.578673
v 1.621613 2.129287 0.439750
v 1.758749 2.129287 0.618370
v 1.600196 2.194474 0.456194
v 1.737332 2.194474 0.634813
v 1.621613 2.259661 0.439750
v 1.758749 2.259661 0.618370
v 1.673319 2.286662 0.400053
v 1.810455 2.286663 0.578673
v 1.725025 2.259661 0.360355
v 1.862161 2.259661 0.538975
v 1.746442 1.825719 0.343912
v 1.883578 1.825719 0.522532
v 1.725025 1.760532 0.360355
v 1.862161 1.760532 0.538975
v 1.673319 1.733531 0.400053
v 1.810455 1.733531 0.578673
v 1.621613 1.760532 0.439750
v 1.758749 1.760532 0.618370
v 1.600196 1.825719 0.456194
v 1.737332 1.825719 0.634813
v 1.621613 1.890906 0.439750
v 1.758749 1.890906 0.618370
v 1.673319 1.917908 0.400053
v 1.810455 1.917908 0.578673
v 1.725025 1.890906 0.360356
v 1.862161 1.890906 0.538975
v 1.746442 1.456964 0.343912
v 1.883578 1.456965 0.522532
v 1.725025 1.391777 0.360356
v 1.862161 1.391777 0.538975
v 1.673319 1.364776 0.400053
v 1.810455 1.364776 0.578673
v 1.621613 1.391777 0.439750
v 1.758749 1.391777 0.618370
v 1.600196 1.456964 0.456194
v 1.737332 1.456965 0.634813
v 1.621613 1.522152 0.439750
v 1.758749 1.522152 0.618370
v 1.673319 1.549153 0.400053
v 1.810455 1.549153 0.578673
v 1.725025 1.522152 0.360355
v 1.862161 1.522152 0.538975
v 1.746442 1.088210 0.343912
v 1.883578 1.088210 0.522532
v 1.725025 1.023023 0.360356
v 1.862161 1.023023 0.538975
v 1.673319 0.996021 0.400053
v 1.810455 0.996021 0.578673
v 1.621613 1.023023 0.439750
v 1.758749 1.023023 0.618370
v 1.600196 1.088210 0.456194
v 1.737332 1.088210 0.634813
v 1.621613 1.153397 0.439750
v 1.758749 1.153397 0.618370
v 1.673319 1.180399 0.400053
v 1.810455 1.180399 0.578673
v 1.725025 1.153397 0.360355
v 1.862161 1.153397 0.538975
v 1.746442 0.719455 0.343912
v 1.883578 0.719455 0.522532
v 1.725025 0.654268 0.360356
v 1.862161 0.654268 0.538975
v 1.673319 0.627267 0.400053
v 1.810455 0.627267 0.578672
v 1.621613 0.654268 0.439750
v 1.758750 0.654268 0.618370
v 1.600196 0.719455 0.456194
v 1.737332 0.719455 0.634813
v 1.621613 0.784643 0.439750
v 1.758750 0.784643 0.618370
v 1.673319 0.811644 0.400053
v 1.810455 0.811644 0.578673
v 1.725025 0.784643 0.360356
v 1.862161 0.784643 0.538975
v -0.926277 1.863214 -0.846065
v -0.926277 1.771660 -0.846064
v 0.573602 1.863213 -0.846064
v 0.573602 1.771660 -0.846064
v -0.926277 1.863213 0.948493
v -0.926277 1.771660 0.948493
v 0.573602 1.863213 0.948493
v 0.573602 1.771659 0.948493
v 0.955351 1.979729 -0.807461
v 0.955351 2.165479 -0.807461
v 1.037704 1.979729 -0.870688
v 1.037704 2.165479 -0.870688
v 1.208002 1.979729 -0.478383
v 1.208002 2.165479 -0.478383
v 1.290356 1.979729 -0.541611
v 1.290356 2.165479 -0.541611
v 0.955351 1.422479 -0.807461
v 0.955351 1.608229 -0.807461
v 1.037704 1.422479 -0.870688
v 1.037704 1.608229 -0.870688
v 1.208002 1.422479 -0.478383
v 1.208002 1.608229 -0.478383
v 1.290356 1.422479 -0.541611
v 1.290356 1.608229 -0.541611
v 0.955351 0.865229 -0.807461
v 0.955351 1.050979 -0.807461
v 1.037704 0.865229 -0.870688
v 1.037704 1.050979 -0.870688
v 1.208002 0.865229 -0.478383
v 1.208002 1.050979 -0.478383
v 1.290356 0.865229 -0.541611
v 1.290356 1.050979 -0.541611
v -1.097322 0.034184 -0.948786
v -1.097322 2.969273 -0.948786
v -1.097322 0.034183 1.051214
v -1.097322 2.969272 1.051214
v 1.020153 2.969272 -0.948786
v 1.020153 0.034183 -0.948786
v 1.020153 0.034183 1.051214
v 1.020153 2.969272 1.051214
v 1.020153 2.730037 -0.709550
v 1.020153 0.273419 -0.709550
v 1.020153 0.273419 0.811979
v 1.020153 2.730037 0.811979
v -0.326420 2.730037 -0.709550
v -0.326420 0.273419 -0.709550
v -0.326420 0.273419 0.811979
v -0.326420 2.730037 0.811979
v 1.111548 0.475245 -0.531959
v 1.111548 2.544348 -0.531959
v 1.046408 0.302875 -0.698072
v 1.046408 2.716718 -0.698072
v 1.819233 0.475245 0.389798
v 1.819233 2.544348 0.389798
v 1.962884 0.302875 0.495634
v 1.962884 2.716718 0.495634
v 1.007153 0.302875 -0.667933
v 1.007153 2.716718 -0.667933
v 1.923629 2.716718 0.525773
v 1.923629 0.302875 0.525773
v 0.878860 0.475356 -0.421299
v 0.878860 2.544459 -0.421299
v 1.586545 2.544459 0.500458
v 1.586545 0.475356 0.500458
vn 0.8516 0.3293 -0.4079
vn 0.5903 0.7949 0.1404
vn -0.0168 0.7949 0.6065
vn -0.6140 0.3293 0.7173
vn -0.8516 -0.3293 0.4079
vn -0.5903 -0.7949 -0.1404
vn -0.5240 0.5096 -0.6825
vn 0.0168 -0.7949 -0.6065
vn 0.6140 -0.3293 -0.7173
vn 0.5240 -0.5096 0.6825
vn 0.6535 0.3599 -0.6659
vn 0.1121 0.8688 -0.4824
vn -0.4949 0.8688 -0.0163
vn -0.8121 0.3599 0.4593
vn -0.6535 -0.3599 0.6659
vn -0.1121 -0.8688 0.4824
vn -0.5726 -0.3402 -0.7459
vn 0.4950 -0.8688 0.0163
vn 0.8121 -0.3599 -0.4593
vn 0.5726 0.3402 0.7459
vn 0.5025 -0.0588 -0.8626
vn -0.2524 -0.1419 -0.9572
vn -0.8595 -0.1419 -0.4911
vn -0.9631 -0.0588 0.2627
vn -0.5025 0.0588 0.8626
vn 0.2524 0.1419 0.9572
vn -0.0935 0.9881 -0.1218
vn 0.8595 0.1419 0.4911
vn 0.9631 0.0588 -0.2627
vn 0.0935 -0.9881 0.1218
vn -0.2330 -0.9239 -0.3035
vn -0.5626 -0.3827 -0.7328
vn -0.5626 0.3827 -0.7328
vn -0.2330 0.9239 -0.3035
vn 0.2330 0.9239 0.3035
vn 0.5626 0.3827 0.7328
vn 0.2330 -0.9239 0.3035
vn 0.5626 -0.3827 0.7328
vn 0.7932 -0.0000 -0.6090
vn -0.7932 -0.0000 0.6090
vn -0.3873 0.8002 -0.4579
vn -0.6374 0.1418 -0.7574
vn -0.5089 -0.6102 -0.6071
vn -0.0813 -0.9917 -0.0999
vn 0.3873 -0.8002 0.4579
vn 0.6374 -0.1418 0.7574
vn 0.7653 0.0021 -0.6437
vn 0.5089 0.6102 0.6071
vn 0.0813 0.9917 0.0999
vn -0.7653 -0.0021 0.6437
vn -0.8127 0.1119 0.5719
vn -0.8475 0.0179 0.5305
vn -0.8293 -0.0880 0.5518
vn -0.7691 -0.1429 0.6230
vn -0.7029 -0.1152 0.7019
vn -0.6691 -0.0218 0.7428
vn -0.6869 0.0830 0.7220
vn -0.7460 0.1386 0.6513
vn 0.0066 0.9868 0.1619
vn 0.5613 -0.1414 0.8154
vn -0.1555 -0.9872 -0.0366
vn -0.7118 0.1409 -0.6881
vn 0.4329 0.6072 0.6663
vn 0.3126 -0.7967 0.5172
vn -0.5835 -0.6073 -0.5391
vn -0.4613 0.7960 -0.3918
vn 0.7328 -0.3827 -0.5626
vn 0.3035 -0.9239 -0.2330
vn -0.3035 -0.9239 0.2330
vn -0.7328 -0.3827 0.5626
vn -0.7328 0.3827 0.5626
vn -0.3035 0.9239 0.2330
vn 0.6090 -0.0000 0.7932
vn 0.3035 0.9239 -0.2330
vn 0.7328 0.3827 -0.5626
vn -0.6090 -0.0000 -0.7932
vn -0.0000 -0.0000 1.0000
vn -1.0000 -0.0000 -0.0000
vn -0.0000 -0.0000 -1.0000
vn 1.0000 -0.0000 -0.0000
vn -0.0000 -1.0000 -0.0000
vn -0.0000 1.0000 -0.0000
vn 0.4295 -0.0000 0.9031
vn -0.0004 -1.0000 0.0003
vn -0.4295 -0.0000 -0.9031
vn 0.0004 1.0000 -0.0003
vt 0.104823 0.757143
vt 0.104823 0.689133
vt 0.130849 0.689133
vt 0.130849 0.757143
vt 0.156876 0.689133
vt 0.156876 0.757143
vt 0.182902 0.689133
vt 0.182902 0.757143
vt 0.208929 0.689133
vt 0.208929 0.757143
vt 0.000718 0.757143
vt 0.000718 0.689133
vt 0.026744 0.689133
vt 0.026744 0.757143
vt 0.052770 0.689133
vt 0.052770 0.757143
vt 0.359142 0.347881
vt 0.385168 0.347881
vt 0.403571 0.366284
vt 0.403571 0.392311
vt 0.385168 0.410714
vt 0.359142 0.410714
vt 0.340738 0.392311
vt 0.340738 0.366284
vt 0.078797 0.689133
vt 0.078797 0.757143
vt 0.538740 0.199667
vt 0.557143 0.218070
vt 0.557143 0.244097
vt 0.538740 0.262500
vt 0.512713 0.262500
vt 0.494310 0.244097
vt 0.494310 0.218070
vt 0.512713 0.199667
vt 0.344334 0.474914
vt 0.021545 0.474914
vt 0.036284 0.463739
vt 0.359073 0.463739
vt 0.042390 0.439603
vt 0.365179 0.439603
vt 0.036284 0.415466
vt 0.359073 0.415466
vt 0.021545 0.404292
vt 0.344334 0.404292
vt 0.344334 0.545536
vt 0.021545 0.545536
vt 0.006806 0.534361
vt 0.329594 0.534361
vt 0.000700 0.510225
vt 0.323489 0.510225
vt 0.147977 0.042857
vt 0.134316 0.030387
vt 0.139894 0.012752
vt 0.161442 0.000281
vt 0.186339 0.000281
vt 0.200000 0.012752
vt 0.194422 0.030387
vt 0.172874 0.042857
vt 0.006806 0.486088
vt 0.329594 0.486088
vt 0.012752 0.002173
vt 0.030387 0.007751
vt 0.042857 0.029300
vt 0.042857 0.054196
vt 0.030387 0.067857
vt 0.012752 0.062279
vt 0.000281 0.040731
vt 0.000281 0.015834
vt 0.356164 0.021545
vt 0.367338 0.006805
vt 0.367338 0.329594
vt 0.356164 0.344334
vt 0.391475 0.000700
vt 0.391475 0.323489
vt 0.415611 0.006805
vt 0.415611 0.329594
vt 0.426786 0.021545
vt 0.426786 0.344334
vt 0.285542 0.021545
vt 0.296716 0.036284
vt 0.296716 0.359073
vt 0.285542 0.344334
vt 0.320853 0.042390
vt 0.320853 0.365179
vt 0.155120 0.346710
vt 0.180016 0.346710
vt 0.201565 0.359180
vt 0.207143 0.376816
vt 0.193482 0.389286
vt 0.168585 0.389286
vt 0.147037 0.376816
vt 0.141459 0.359180
vt 0.344990 0.036284
vt 0.344989 0.359073
vt 0.177037 0.217857
vt 0.164567 0.204196
vt 0.164567 0.179300
vt 0.177037 0.157751
vt 0.194673 0.152173
vt 0.207143 0.165834
vt 0.207143 0.190731
vt 0.194673 0.212279
vt 0.734168 0.447497
vt 0.664767 0.440368
vt 0.664987 0.416277
vt 0.735714 0.416504
vt 0.662595 0.391690
vt 0.734554 0.384780
vt 0.656678 0.367212
vt 0.730434 0.352325
vt 0.643188 0.339519
vt 0.723195 0.319010
vt 0.704147 0.564286
vt 0.632777 0.537793
vt 0.649068 0.511455
vt 0.714285 0.536974
vt 0.657190 0.488003
vt 0.723404 0.507710
vt 0.637360 0.438750
vt 0.638813 0.460536
vt 0.474681 0.444768
vt 0.475737 0.431652
vt 0.662210 0.464186
vt 0.730060 0.477871
vt 0.552102 0.000392
vt 0.575000 0.023290
vt 0.575000 0.055673
vt 0.552102 0.078571
vt 0.519719 0.078571
vt 0.496820 0.055673
vt 0.496820 0.023290
vt 0.519719 0.000392
vt 0.641199 0.417256
vt 0.636045 0.396128
vt 0.635015 0.374966
vt 0.626970 0.358562
vt 0.618064 0.517405
vt 0.628150 0.501415
vt 0.631428 0.480726
vt 0.256294 0.000267
vt 0.265803 0.000267
vt 0.265803 0.402679
vt 0.256294 0.402679
vt 0.468484 0.469779
vt 0.472470 0.457452
vt 0.471003 0.389296
vt 0.462321 0.372683
vt 0.475749 0.418141
vt 0.474471 0.404121
vt 0.459634 0.483483
vt 0.467163 0.430818
vt 0.466918 0.418059
vt 0.465466 0.405214
vt 0.462013 0.392641
vt 0.454817 0.381377
vt 0.454817 0.475493
vt 0.461705 0.466155
vt 0.464847 0.455183
vt 0.466489 0.443281
vt 0.044481 0.000258
vt 0.053990 0.000258
vt 0.060714 0.006981
vt 0.060714 0.016490
vt 0.053990 0.023214
vt 0.044481 0.023214
vt 0.037758 0.016490
vt 0.037758 0.006981
vt 0.275312 0.000267
vt 0.284821 0.000267
vt 0.284821 0.402679
vt 0.275312 0.402679
vt 0.218258 0.000267
vt 0.227767 0.000267
vt 0.227767 0.402679
vt 0.218258 0.402679
vt 0.237276 0.000267
vt 0.246785 0.000267
vt 0.246785 0.402679
vt 0.237276 0.402679
vt 0.208749 0.000267
vt 0.208749 0.402679
vt 0.148066 0.293204
vt 0.035253 0.351223
vt 0.013491 0.297565
vt 0.125577 0.260912
vt 0.001845 0.242627
vt 0.113601 0.228445
vt 0.000771 0.187947
vt 0.109962 0.195797
vt 0.009867 0.135142
vt 0.114133 0.162936
vt 0.028004 0.085604
vt 0.126302 0.130272
vt 0.053257 0.039955
vt 0.147638 0.098434
vt 0.032487 0.838324
vt 0.077265 0.838324
vt 0.108929 0.869987
vt 0.108929 0.914765
vt 0.077265 0.946428
vt 0.032487 0.946428
vt 0.000824 0.914765
vt 0.000824 0.869987
vt 0.079512 0.000267
vt 0.183223 0.068874
vt 0.186709 0.323492
vt 0.065378 0.402679
vt 0.190146 0.310363
vt 0.155731 0.285956
vt 0.167235 0.272763
vt 0.201765 0.293806
vt 0.133402 0.256994
vt 0.121468 0.226825
vt 0.117796 0.196160
vt 0.121847 0.165201
vt 0.133729 0.134532
vt 0.154133 0.104715
vt 0.186194 0.078939
vt 0.167679 0.117980
vt 0.147899 0.142481
vt 0.136463 0.169000
vt 0.132430 0.196146
vt 0.135739 0.222792
vt 0.146767 0.248549
vt 0.200086 0.096774
vt 0.170400 0.232968
vt 0.186094 0.247516
vt 0.160121 0.215771
vt 0.159340 0.196209
vt 0.163725 0.176468
vt 0.173361 0.158008
vt 0.188483 0.142596
vt 0.207143 0.131263
vt 0.207143 0.256142
vt 0.670233 0.749093
vt 0.671543 0.766588
vt 0.610420 0.770470
vt 0.609207 0.754265
vt 0.672449 0.854268
vt 0.671521 0.871788
vt 0.610400 0.867907
vt 0.611259 0.851679
vt 0.673214 0.819188
vt 0.673015 0.836732
vt 0.611784 0.835438
vt 0.611968 0.819188
vt 0.672480 0.784108
vt 0.673038 0.801644
vt 0.611805 0.802939
vt 0.611288 0.786697
vt 0.670233 0.889286
vt 0.609207 0.884113
vt 0.011545 0.350054
vt 0.027795 0.350054
vt 0.039286 0.361545
vt 0.039286 0.377795
vt 0.027795 0.389286
vt 0.011545 0.389286
vt 0.000054 0.377795
vt 0.000054 0.361545
vt 0.841588 0.662959
vt 0.904119 0.631760
vt 0.903264 0.635330
vt 0.880950 0.701786
vt 0.905029 0.638555
vt 0.936761 0.701786
vt 0.908563 0.639556
vt 0.975000 0.661850
vt 0.911660 0.637589
vt 0.974191 0.606390
vt 0.912515 0.634019
vt 0.934829 0.567563
vt 0.910750 0.630794
vt 0.879018 0.567563
vt 0.907216 0.629793
vt 0.840779 0.607499
vt 0.870572 0.473274
vt 0.887559 0.456286
vt 0.911584 0.456286
vt 0.928571 0.473274
vt 0.928571 0.497298
vt 0.911584 0.514286
vt 0.887559 0.514286
vt 0.870572 0.497298
vt 0.834295 0.233887
vt 0.897025 0.202995
vt 0.896158 0.206584
vt 0.873683 0.273021
vt 0.897884 0.209890
vt 0.929374 0.273214
vt 0.901462 0.210808
vt 0.967857 0.233131
vt 0.904564 0.208887
vt 0.967145 0.177846
vt 0.905396 0.205342
vt 0.927686 0.138866
vt 0.903611 0.202124
vt 0.871917 0.138866
vt 0.900099 0.201081
vt 0.833768 0.178471
vt 0.692857 0.285774
vt 0.692857 0.309798
vt 0.675869 0.326786
vt 0.651845 0.326786
vt 0.634858 0.309798
vt 0.634858 0.285774
vt 0.651845 0.268786
vt 0.675869 0.268786
vt 0.848937 0.096305
vt 0.907007 0.065110
vt 0.903614 0.072479
vt 0.886046 0.135428
vt 0.902577 0.080590
vt 0.939588 0.135714
vt 0.910823 0.077913
vt 0.975000 0.095209
vt 0.916930 0.072321
vt 0.975000 0.041126
vt 0.920323 0.064952
vt 0.937891 0.002003
vt 0.921361 0.056841
vt 0.884349 0.001717
vt 0.913114 0.059518
vt 0.848937 0.042222
vt 0.650000 0.266941
vt 0.633012 0.283929
vt 0.608988 0.283929
vt 0.592000 0.266941
vt 0.592000 0.242917
vt 0.608988 0.225929
vt 0.633012 0.225929
vt 0.650000 0.242917
vt 0.151576 0.967857
vt 0.175120 0.902284
vt 0.177390 0.905684
vt 0.206889 0.967857
vt 0.181604 0.906707
vt 0.245842 0.929240
vt 0.184186 0.904484
vt 0.246429 0.875448
vt 0.184685 0.900978
vt 0.208903 0.835759
vt 0.182778 0.897887
vt 0.153200 0.833591
vt 0.179355 0.896507
vt 0.111260 0.872075
vt 0.175973 0.898427
vt 0.111926 0.928638
vt 0.150929 0.776845
vt 0.167917 0.759858
vt 0.191941 0.759858
vt 0.208929 0.776845
vt 0.208929 0.800869
vt 0.191941 0.817857
vt 0.167917 0.817857
vt 0.150929 0.800869
vt 0.933692 0.898013
vt 0.868385 0.873964
vt 0.871473 0.872009
vt 0.935714 0.842280
vt 0.872846 0.868533
vt 0.897280 0.800476
vt 0.871131 0.865151
vt 0.841061 0.800992
vt 0.867275 0.864372
vt 0.801612 0.840810
vt 0.863793 0.866724
vt 0.801612 0.896203
vt 0.862684 0.870986
vt 0.839971 0.935077
vt 0.864888 0.873510
vt 0.893985 0.935714
vt 0.897298 0.706286
vt 0.914286 0.723274
vt 0.914286 0.747298
vt 0.897298 0.764286
vt 0.873274 0.764286
vt 0.856286 0.747298
vt 0.856286 0.723274
vt 0.873274 0.706286
vt 0.466267 0.728184
vt 0.581360 0.592584
vt 0.607143 0.869643
vt 0.456678 0.747070
vt 0.302695 0.869643
vt 0.438089 0.730739
vt 0.319948 0.592584
vt 0.449579 0.717700
vt 0.375000 0.874647
vt 0.375000 1.000000
vt 0.249647 1.000000
vt 0.249647 0.874647
vt 0.074685 0.835714
vt 0.074685 0.762185
vt 0.148214 0.762185
vt 0.148214 0.835714
vt 0.778922 0.371850
vt 0.710808 0.304667
vt 0.783191 0.278057
vt 0.805104 0.309176
vt 0.799559 0.215916
vt 0.872148 0.274531
vt 0.001157 0.835714
vt 0.001157 0.762185
vt 0.882143 0.380357
vt 0.710808 0.215916
vt 0.210400 0.762185
vt 0.283929 0.762185
vt 0.283929 0.835714
vt 0.210400 0.835714
vt 0.711922 0.548565
vt 0.779105 0.480450
vt 0.805715 0.552834
vt 0.774596 0.574747
vt 0.867857 0.569202
vt 0.809242 0.641791
vt 0.210400 0.688656
vt 0.283929 0.688656
vt 0.703416 0.651786
vt 0.867857 0.480450
vt 0.812185 0.381828
vt 0.812185 0.455357
vt 0.738657 0.455357
vt 0.738657 0.381828
vt 0.697636 0.750351
vt 0.764820 0.682236
vt 0.791430 0.754620
vt 0.760311 0.776533
vt 0.853571 0.770988
vt 0.794956 0.843577
vt 0.885714 0.381828
vt 0.885714 0.455357
vt 0.689130 0.853571
vt 0.853571 0.682236
vt 0.203607 0.683928
vt 0.203607 0.547200
vt 0.302248 0.547200
vt 0.302248 0.683928
vt 0.011798 0.683929
vt 0.011798 0.547200
vt 0.110439 0.547200
vt 0.110439 0.683929
vt 0.503145 0.196705
vt 0.503145 0.103536
vt 0.601786 0.103536
vt 0.601786 0.196705
vt 0.846429 0.099341
vt 0.753260 0.099341
vt 0.753260 0.000700
vt 0.846429 0.000700
vt 0.313393 0.558344
vt 0.313393 0.672784
vt 0.492000 0.185560
vt 0.492000 0.114681
vt 0.835284 0.110485
vt 0.764405 0.110485
vt 0.000653 0.672784
vt 0.000653 0.558344
vt 0.492000 0.000241
vt 0.429271 0.114681
vt 0.429271 0.000241
vt 0.789286 0.857692
vt 0.789286 0.928571
vt 0.674846 0.928571
vt 0.674846 0.857692
vt 0.429271 0.185560
vt 0.835284 0.173214
vt 0.764405 0.173214
vt 0.492000 0.300000
vt 0.429271 0.300000
vt 0.750000 0.001605
vt 0.750000 0.210042
vt 0.744623 0.205730
vt 0.745533 0.007947
vt 0.609254 0.218658
vt 0.610164 0.020874
vt 0.604787 0.225000
vt 0.604787 0.016562
vt 0.586328 0.574026
vt 0.417232 0.490648
vt 0.437856 0.475577
vt 0.594643 0.557508
vt 0.587386 0.287119
vt 0.423218 0.363848
vt 0.409124 0.353221
vt 0.593104 0.272211
vt 0.593462 0.594643
vt 0.399155 0.500238
vt 0.344705 0.549372
vt 0.445801 0.549372
vt 0.460714 0.564286
vt 0.329792 0.564286
vt 0.698214 0.567412
vt 0.698214 0.746429
vt 0.597119 0.746429
vt 0.597119 0.567412
vt 0.349397 0.527454
vt 0.450492 0.527454
vt 0.594643 0.301976
vt 0.448759 0.376844
s 0
usemtl Материал
f 1/1/1 2/2/1 4/3/1 3/4/1
f 3/4/2 4/3/2 6/5/2 5/6/2
f 5/6/3 6/5/3 8/7/3 7/8/3
f 7/8/4 8/7/4 10/9/4 9/10/4
f 9/11/5 10/12/5 12/13/5 11/14/5
f 11/14/6 12/13/6 14/15/6 13/16/6
f 4/17/7 2/18/7 16/19/7 14/20/7 12/21/7 10/22/7 8/23/7 6/24/7
f 13/16/8 14/15/8 16/25/8 15/26/8
f 15/26/9 16/25/9 2/2/9 1/1/9
f 1/27/10 3/28/10 5/29/10 7/30/10 9/31/10 11/32/10 13/33/10 15/34/10
f 17/35/11 18/36/11 20/37/11 19/38/11
f 19/38/12 20/37/12 22/39/12 21/40/12
f 21/40/13 22/39/13 24/41/13 23/42/13
f 23/42/14 24/41/14 26/43/14 25/44/14
f 25/45/15 26/46/15 28/47/15 27/48/15
f 27/48/16 28/47/16 30/49/16 29/50/16
f 20/51/17 18/52/17 32/53/17 30/54/17 28/55/17 26/56/17 24/57/17 22/58/17
f 29/50/18 30/49/18 32/59/18 31/60/18
f 31/60/19 32/59/19 18/36/19 17/35/19
f 17/61/20 19/62/20 21/63/20 23/64/20 25/65/20 27/66/20 29/67/20 31/68/20
f 33/69/21 35/70/21 36/71/21 34/72/21
f 35/70/22 37/73/22 38/74/22 36/71/22
f 37/73/23 39/75/23 40/76/23 38/74/23
f 39/75/24 41/77/24 42/78/24 40/76/24
f 41/79/25 43/80/25 44/81/25 42/82/25
f 43/80/26 45/83/26 46/84/26 44/81/26
f 36/85/27 38/86/27 40/87/27 42/88/27 44/89/27 46/90/27 48/91/27 34/92/27
f 45/83/28 47/93/28 48/94/28 46/84/28
f 47/93/29 33/69/29 34/72/29 48/94/29
f 33/95/30 47/96/30 45/97/30 43/98/30 41/99/30 39/100/30 37/101/30 35/102/30
f 49/103/31 66/104/31 65/105/31 51/106/31
f 51/106/32 65/105/32 67/107/32 53/108/32
f 53/108/33 67/107/33 68/109/33 55/110/33
f 55/110/34 68/109/34 69/111/34 57/112/34
f 57/113/35 69/114/35 70/115/35 59/116/35
f 59/116/36 70/115/36 71/117/36 61/118/36
f 50/119/37 64/120/37 88/121/37 82/122/37
f 61/118/38 71/117/38 72/123/38 63/124/38
f 63/124/37 72/123/37 66/104/37 49/103/37
f 49/125/39 51/126/39 53/127/39 55/128/39 57/129/39 59/130/39 61/131/39 63/132/39
f 50/119/40 52/133/40 65/105/40 66/104/40
f 52/133/40 54/134/40 67/107/40 65/105/40
f 54/134/40 56/135/40 68/109/40 67/107/40
f 56/135/40 58/136/40 69/111/40 68/109/40
f 58/137/40 60/138/40 70/115/40 69/114/40
f 60/138/40 62/139/40 71/117/40 70/115/40
f 62/139/40 64/120/40 72/123/40 71/117/40
f 64/120/40 50/119/40 66/104/40 72/123/40
f 80/140/38 79/141/38 95/142/38 96/143/38
f 62/139/36 60/138/36 86/144/36 87/145/36
f 58/136/34 56/135/34 84/146/34 85/147/34
f 54/134/32 52/133/32 81/148/32 83/149/32
f 64/120/38 62/139/38 87/145/38 88/121/38
f 60/138/35 58/137/35 85/150/35 86/144/35
f 56/135/33 54/134/33 83/149/33 84/146/33
f 52/133/31 50/119/31 82/122/31 81/148/31
f 74/151/40 73/152/40 81/148/40 82/122/40
f 73/152/40 75/153/40 83/149/40 81/148/40
f 75/153/40 76/154/40 84/146/40 83/149/40
f 76/154/40 77/155/40 85/147/40 84/146/40
f 77/156/40 78/157/40 86/144/40 85/150/40
f 78/157/40 79/158/40 87/145/40 86/144/40
f 79/158/40 80/159/40 88/121/40 87/145/40
f 80/159/40 74/151/40 82/122/40 88/121/40
f 89/160/40 90/161/40 96/162/40 95/163/40 94/164/40 93/165/40 92/166/40 91/167/40
f 78/168/35 77/169/35 93/170/35 94/171/35
f 76/172/33 75/173/33 91/174/33 92/175/33
f 73/176/31 74/177/31 90/178/31 89/179/31
f 74/177/37 80/140/37 96/143/37 90/178/37
f 79/141/36 78/168/36 94/171/36 95/142/36
f 77/180/34 76/172/34 92/175/34 93/181/34
f 75/173/32 73/176/32 89/179/32 91/174/32
f 113/182/41 98/183/41 100/184/41 114/185/41
f 114/185/42 100/184/42 102/186/42 115/187/42
f 115/187/43 102/186/43 104/188/43 116/189/43
f 116/189/44 104/188/44 106/190/44 117/191/44
f 117/191/45 106/190/45 108/192/45 118/193/45
f 118/193/46 108/192/46 110/194/46 119/195/46
f 100/196/47 98/197/47 112/198/47 110/199/47 108/200/47 106/201/47 104/202/47 102/203/47
f 119/195/48 110/194/48 112/204/48 120/205/48
f 120/206/49 112/207/49 98/183/49 113/182/49
f 111/208/44 97/209/44 129/210/44 136/211/44
f 99/212/50 97/209/50 113/182/50 114/185/50
f 101/213/50 99/212/50 114/185/50 115/187/50
f 103/214/50 101/213/50 115/187/50 116/189/50
f 105/215/50 103/214/50 116/189/50 117/191/50
f 107/216/50 105/215/50 117/191/50 118/193/50
f 109/217/50 107/216/50 118/193/50 119/195/50
f 111/218/50 109/217/50 119/195/50 120/205/50
f 97/209/50 111/208/50 120/206/50 113/182/50
f 107/216/42 109/217/42 135/219/42 134/220/42
f 103/214/49 105/215/49 133/221/49 132/222/49
f 99/212/46 101/213/46 131/223/46 130/224/46
f 109/217/43 111/218/43 136/225/43 135/219/43
f 105/215/41 107/216/41 134/220/41 133/221/41
f 101/213/48 103/214/48 132/222/48 131/223/48
f 97/209/45 99/212/45 130/224/45 129/210/45
f 122/226/51 121/227/51 129/210/51 130/224/51
f 123/228/52 122/226/52 130/224/52 131/223/52
f 124/229/53 123/228/53 131/223/53 132/222/53
f 125/230/54 124/229/54 132/222/54 133/221/54
f 126/231/55 125/230/55 133/221/55 134/220/55
f 127/232/56 126/231/56 134/220/56 135/219/56
f 128/233/57 127/232/57 135/219/57 136/225/57
f 121/227/58 128/234/58 136/211/58 129/210/58
f 128/235/59 121/236/59 137/237/59 144/238/59
f 126/239/60 127/240/60 143/241/60 142/242/60
f 124/243/61 125/244/61 141/245/61 140/246/61
f 122/247/62 123/248/62 139/249/62 138/250/62
f 127/240/63 128/251/63 144/252/63 143/241/63
f 125/244/64 126/239/64 142/242/64 141/245/64
f 123/248/65 124/243/65 140/246/65 139/249/65
f 137/253/50 138/254/50 139/255/50 140/256/50 141/257/50 142/258/50 143/259/50 144/260/50
f 121/236/66 122/247/66 138/250/66 137/237/66
f 145/261/67 146/262/67 148/263/67 147/264/67
f 147/264/68 148/263/68 150/265/68 149/266/68
f 149/266/69 150/265/69 152/267/69 151/268/69
f 151/268/70 152/267/70 154/269/70 153/270/70
f 153/270/71 154/269/71 156/271/71 155/272/71
f 155/272/72 156/271/72 158/273/72 157/274/72
f 148/263/73 146/262/73 160/275/73 158/273/73 156/271/73 154/269/73 152/267/73 150/265/73
f 157/274/74 158/273/74 160/275/74 159/276/74
f 159/276/75 160/275/75 146/262/75 145/261/75
f 145/277/76 147/278/76 149/279/76 151/280/76 153/281/76 155/282/76 157/283/76 159/284/76
f 161/285/67 162/286/67 164/287/67 163/288/67
f 163/288/68 164/287/68 166/289/68 165/290/68
f 165/290/69 166/289/69 168/291/69 167/292/69
f 167/292/70 168/291/70 170/293/70 169/294/70
f 169/294/71 170/293/71 172/295/71 171/296/71
f 171/296/72 172/295/72 174/297/72 173/298/72
f 164/287/73 162/286/73 176/299/73 174/297/73 172/295/73 170/293/73 168/291/73 166/289/73
f 173/298/74 174/297/74 176/299/74 175/300/74
f 175/300/75 176/299/75 162/286/75 161/285/75
f 161/301/76 163/302/76 165/303/76 167/304/76 169/305/76 171/306/76 173/307/76 175/308/76
f 177/309/67 178/310/67 180/311/67 179/312/67
f 179/312/68 180/311/68 182/313/68 181/314/68
f 181/314/69 182/313/69 184/315/69 183/316/69
f 183/316/70 184/315/70 186/317/70 185/318/70
f 185/318/71 186/317/71 188/319/71 187/320/71
f 187/320/72 188/319/72 190/321/72 189/322/72
f 180/311/73 178/310/73 192/323/73 190/321/73 188/319/73 186/317/73 184/315/73 182/313/73
f 189/322/74 190/321/74 192/323/74 191/324/74
f 191/324/75 192/323/75 178/310/75 177/309/75
f 177/325/76 179/326/76 181/327/76 183/328/76 185/329/76 187/330/76 189/331/76 191/332/76
f 193/333/67 194/334/67 196/335/67 195/336/67
f 195/336/68 196/335/68 198/337/68 197/338/68
f 197/338/69 198/337/69 200/339/69 199/340/69
f 199/340/70 200/339/70 202/341/70 201/342/70
f 201/342/71 202/341/71 204/343/71 203/344/71
f 203/344/72 204/343/72 206/345/72 205/346/72
f 196/335/73 194/334/73 208/347/73 206/345/73 204/343/73 202/341/73 200/339/73 198/337/73
f 205/346/74 206/345/74 208/347/74 207/348/74
f 207/348/75 208/347/75 194/334/75 193/333/75
f 193/349/76 195/350/76 197/351/76 199/352/76 201/353/76 203/354/76 205/355/76 207/356/76
f 209/357/67 210/358/67 212/359/67 211/360/67
f 211/360/68 212/359/68 214/361/68 213/362/68
f 213/362/69 214/361/69 216/363/69 215/364/69
f 215/364/70 216/363/70 218/365/70 217/366/70
f 217/366/71 218/365/71 220/367/71 219/368/71
f 219/368/72 220/367/72 222/369/72 221/370/72
f 212/359/73 210/358/73 224/371/73 222/369/73 220/367/73 218/365/73 216/363/73 214/361/73
f 221/370/74 222/369/74 224/371/74 223/372/74
f 223/372/75 224/371/75 210/358/75 209/357/75
f 209/373/76 211/374/76 213/375/76 215/376/76 217/377/76 219/378/76 221/379/76 223/380/76
f 225/381/77 226/382/77 228/383/77 227/384/77
f 227/384/78 228/383/78 232/385/78 231/386/78
f 231/386/79 232/385/79 230/387/79 229/388/79
f 229/388/80 230/387/80 226/382/80 225/381/80
f 227/384/81 231/386/81 229/388/81 225/381/81
f 232/389/82 228/390/82 226/391/82 230/392/82
f 233/393/76 234/394/76 236/395/76 235/396/76
f 235/397/39 236/398/39 240/399/39 239/400/39
f 239/400/73 240/399/73 238/401/73 237/402/73
f 237/403/40 238/404/40 234/394/40 233/393/40
f 235/397/81 239/400/81 237/402/81 233/405/81
f 240/399/82 236/398/82 234/406/82 238/401/82
f 241/407/76 242/408/76 244/409/76 243/410/76
f 243/411/39 244/412/39 248/413/39 247/414/39
f 247/414/73 248/413/73 246/415/73 245/416/73
f 245/417/40 246/418/40 242/408/40 241/407/40
f 243/411/81 247/414/81 245/416/81 241/419/81
f 248/413/82 244/412/82 242/420/82 246/415/82
f 249/421/76 250/422/76 252/423/76 251/424/76
f 251/425/39 252/426/39 256/427/39 255/428/39
f 255/428/73 256/427/73 254/429/73 253/430/73
f 253/431/40 254/432/40 250/422/40 249/421/40
f 251/425/81 255/428/81 253/430/81 249/433/81
f 256/427/82 252/426/82 250/434/82 254/429/82
f 257/435/79 258/436/79 261/437/79 262/438/79
f 263/439/77 264/440/77 260/441/77 259/442/77
f 259/442/78 260/441/78 258/436/78 257/435/78
f 262/443/81 263/444/81 259/445/81 257/446/81
f 264/447/82 261/448/82 258/449/82 260/450/82
f 265/451/80 266/452/80 262/438/80 261/437/80
f 266/453/80 267/454/80 263/444/80 262/443/80
f 268/455/80 265/456/80 261/448/80 264/447/80
f 267/457/80 268/458/80 264/440/80 263/439/80
f 268/459/79 267/454/79 271/460/79 272/461/79
f 269/462/80 272/463/80 271/464/80 270/465/80
f 267/454/82 266/453/82 270/466/82 271/460/82
f 265/456/81 268/455/81 272/467/81 269/468/81
f 266/453/77 265/469/77 269/470/77 270/466/77
f 281/471/76 282/472/76 276/473/76 275/474/76
f 275/474/39 276/473/39 280/475/39 279/476/39
f 279/476/73 280/475/73 283/477/73 284/478/73
f 277/479/83 278/480/83 287/481/83 288/482/83
f 275/474/81 279/476/81 284/478/81 281/471/81
f 280/475/82 276/473/82 282/472/82 283/477/82
f 273/483/40 274/484/40 282/485/40 281/486/40
f 278/480/40 277/479/40 284/487/40 283/488/40
f 277/489/40 273/490/40 281/491/40 284/492/40
f 274/484/40 278/480/40 283/488/40 282/485/40
f 288/493/40 287/494/40 286/495/40 285/496/40
f 273/490/84 277/489/84 288/497/84 285/498/84
f 274/484/85 273/483/85 285/499/85 286/500/85
f 278/480/86 274/484/86 286/500/86 287/481/86
