# Blender 4.2.2 LTS
# www.blender.org
mtllib pipe 2.mtl
o pipe_2
v -0.436251 0.162319 3.377684
v -0.216636 0.162319 3.597300
v 0.083364 0.162319 3.677684
v 0.383364 0.162319 3.597300
v 0.602979 0.162319 3.377685
v 0.683364 0.162319 3.077685
v 0.602980 0.162319 2.777685
v 0.383365 0.162319 2.558069
v 0.083365 0.162319 2.477684
v -0.216635 0.162319 2.558069
v -0.436250 0.162319 2.777684
v -0.516635 0.162319 3.077684
v -0.436251 1.409743 3.375118
v -0.216636 1.438409 3.592854
v 0.083364 1.448901 3.672551
v 0.383364 1.438409 3.592854
v 0.602980 1.409743 3.375118
v 0.683364 1.370585 3.077685
v 0.602980 1.331428 2.780252
v 0.383365 1.302762 2.562515
v 0.083365 1.292270 2.482817
v -0.216635 1.302762 2.562514
v -0.436251 1.331428 2.780251
v -0.516635 1.370585 3.077684
v -0.436251 1.797144 3.263388
v -0.216636 1.906951 3.453581
v 0.083364 1.947144 3.523196
v 0.383364 1.906951 3.453581
v 0.602979 1.797144 3.263389
v 0.683364 1.647144 3.003581
v 0.602980 1.497144 2.743774
v 0.383365 1.387336 2.553581
v 0.083365 1.347144 2.483966
v -0.216635 1.387336 2.553581
v -0.436250 1.497144 2.743773
v -0.516635 1.647143 3.003580
v -0.436251 2.109406 2.951126
v -0.216636 2.299598 3.060934
v 0.083364 2.369214 3.101126
v 0.383364 2.299598 3.060934
v 0.602979 2.109406 2.951126
v 0.683364 1.849599 2.801126
v 0.602980 1.589791 2.651126
v 0.383365 1.399599 2.541319
v 0.083365 1.329983 2.501126
v -0.216635 1.399598 2.541318
v -0.436250 1.589790 2.651126
v -0.516635 1.849598 2.801126
v -0.436251 2.221135 2.563726
v -0.216636 2.438872 2.592391
v 0.083364 2.518569 2.602884
v 0.383364 2.438872 2.592391
v 0.602980 2.221136 2.563726
v 0.683365 1.923702 2.524568
v 0.602980 1.626269 2.485410
v 0.383365 1.408532 2.456744
v 0.083365 1.328835 2.446252
v -0.216635 1.408532 2.456744
v -0.436251 1.626268 2.485410
v -0.516636 1.923702 2.524568
v -0.436251 2.221135 -2.517900
v -0.216636 2.438872 -2.546566
v 0.083364 2.518569 -2.557058
v 0.383364 2.438872 -2.546566
v 0.602980 2.221136 -2.517900
v 0.683365 1.923702 -2.478742
v 0.602980 1.626269 -2.439584
v 0.383365 1.408532 -2.410919
v 0.083365 1.328835 -2.400426
v -0.216635 1.408532 -2.410919
v -0.436251 1.626268 -2.439584
v -0.516636 1.923702 -2.478742
v -0.436251 2.109406 -2.905300
v -0.216636 2.299598 -3.015108
v 0.083364 2.369214 -3.055300
v 0.383364 2.299599 -3.015108
v 0.602980 2.109406 -2.905301
v 0.683365 1.849599 -2.755301
v 0.602980 1.589791 -2.605301
v 0.383365 1.399598 -2.495493
v 0.083365 1.329983 -2.455301
v -0.216635 1.399598 -2.495493
v -0.436251 1.589790 -2.605300
v -0.516636 1.849598 -2.755300
v -0.436251 1.797143 -3.217563
v -0.216636 1.906951 -3.407756
v 0.083364 1.947143 -3.477371
v 0.383364 1.906951 -3.407756
v 0.602980 1.797144 -3.217564
v 0.683365 1.647144 -2.957756
v 0.602980 1.497144 -2.697948
v 0.383365 1.387336 -2.507756
v 0.083365 1.347144 -2.438140
v -0.216635 1.387336 -2.507755
v -0.436251 1.497144 -2.697948
v -0.516636 1.647143 -2.957755
v -0.436251 1.409743 -3.329292
v -0.216636 1.438408 -3.547028
v 0.083364 1.448900 -3.626725
v 0.383364 1.438408 -3.547029
v 0.602979 1.409743 -3.329292
v 0.683365 1.370585 -3.031859
v 0.602980 1.331428 -2.734426
v 0.383365 1.302763 -2.516689
v 0.083365 1.292270 -2.436992
v -0.216635 1.302763 -2.516688
v -0.436250 1.331428 -2.734425
v -0.516636 1.370585 -3.031858
v -0.436251 0.147040 -3.331858
v -0.216636 0.147040 -3.551474
v 0.083364 0.147040 -3.631858
v 0.383364 0.147040 -3.551474
v 0.602979 0.147040 -3.331859
v 0.683364 0.147040 -3.031859
v 0.602980 0.147040 -2.731859
v 0.383365 0.147040 -2.512243
v 0.083365 0.147040 -2.431859
v -0.216635 0.147040 -2.512243
v -0.436250 0.147040 -2.731858
v -0.516635 0.147040 -3.031858
v 0.083364 2.641164 0.037480
v 0.083364 2.641164 0.254493
v 0.588829 2.431794 0.037480
v 0.588829 2.431794 0.254493
v 0.798200 1.926329 0.037480
v 0.798200 1.926329 0.254493
v 0.588829 1.420864 0.037480
v 0.588829 1.420864 0.254493
v 0.083364 1.211493 0.037480
v 0.083364 1.211493 0.254493
v -0.422100 1.420864 0.037480
v -0.422100 1.420864 0.254493
v -0.631471 1.926329 0.037480
v -0.631471 1.926329 0.254493
v -0.422100 2.431794 0.037480
v -0.422100 2.431794 0.254493
v 0.083364 2.641165 -0.211443
v 0.083364 2.641165 0.005569
v 0.588829 2.431794 -0.211443
v 0.588829 2.431794 0.005569
v 0.798200 1.926329 -0.211443
v 0.798200 1.926329 0.005569
v 0.588829 1.420864 -0.211443
v 0.588829 1.420864 0.005569
v 0.083364 1.211494 -0.211443
v 0.083364 1.211494 0.005569
v -0.422100 1.420864 -0.211443
v -0.422100 1.420864 0.005569
v -0.631471 1.926329 -0.211443
v -0.631471 1.926329 0.005569
v -0.422100 2.431794 -0.211443
v -0.422100 2.431794 0.005569
v 0.083364 0.042459 -3.749255
v 0.083364 0.259471 -3.749255
v 0.588829 0.042459 -3.539885
v 0.588829 0.259471 -3.539885
v 0.798200 0.042459 -3.034420
v 0.798200 0.259471 -3.034420
v 0.588829 0.042459 -2.528955
v 0.588829 0.259471 -2.528955
v 0.083364 0.042459 -2.319585
v 0.083364 0.259471 -2.319585
v -0.422100 0.042459 -2.528955
v -0.422100 0.259471 -2.528955
v -0.631471 0.042459 -3.034420
v -0.631471 0.259471 -3.034420
v -0.422100 0.042459 -3.539885
v -0.422100 0.259471 -3.539885
v 0.083364 0.042459 2.339264
v 0.083364 0.259471 2.339264
v 0.588829 0.042459 2.548635
v 0.588829 0.259471 2.548635
v 0.798200 0.042459 3.054099
v 0.798200 0.259471 3.054099
v 0.588829 0.042459 3.559564
v 0.588829 0.259471 3.559564
v 0.083364 0.042459 3.768935
v 0.083364 0.259471 3.768935
v -0.422100 0.042459 3.559564
v -0.422100 0.259471 3.559564
v -0.631471 0.042459 3.054099
v -0.631471 0.259471 3.054099
v -0.422100 0.042459 2.548635
v -0.422100 0.259471 2.548635
vn -0.9657 0.0003 0.2598
vn -0.7057 0.0020 0.7086
vn -0.2578 0.0036 0.9662
vn 0.2578 0.0036 0.9662
vn 0.7057 0.0020 0.7086
vn 0.9657 0.0003 0.2598
vn 0.9656 0.0003 -0.2599
vn 0.7055 0.0022 -0.7087
vn 0.2577 0.0041 -0.9662
vn -0.2577 0.0041 -0.9662
vn -0.7055 0.0022 -0.7087
vn -0.9656 0.0003 -0.2599
vn -0.9645 0.0711 0.2541
vn -0.6999 0.2010 0.6854
vn -0.2540 0.2767 0.9268
vn 0.2540 0.2767 0.9268
vn 0.6999 0.2010 0.6854
vn 0.9645 0.0711 0.2541
vn 0.9644 -0.0641 -0.2565
vn 0.6963 -0.1281 -0.7062
vn 0.2454 -0.0540 -0.9679
vn -0.2454 -0.0540 -0.9679
vn -0.6963 -0.1281 -0.7062
vn -0.9644 -0.0641 -0.2565
vn -0.9636 0.1890 0.1890
vn -0.6947 0.5086 0.5086
vn -0.2506 0.6846 0.6846
vn 0.2506 0.6846 0.6845
vn 0.6947 0.5086 0.5086
vn 0.9636 0.1890 0.1890
vn 0.9636 -0.1890 -0.1890
vn 0.6947 -0.5086 -0.5086
vn -0.2506 0.6845 0.6846
vn 0.2505 0.6846 0.6845
vn -0.6947 -0.5086 -0.5086
vn -0.9636 -0.1890 -0.1890
vn -0.9645 0.2541 0.0711
vn -0.6999 0.6854 0.2010
vn -0.2540 0.9268 0.2767
vn 0.2540 0.9268 0.2767
vn 0.6999 0.6854 0.2010
vn 0.9645 0.2541 0.0711
vn 0.9644 -0.2565 -0.0641
vn 0.6963 -0.7062 -0.1281
vn 0.2454 -0.9679 -0.0540
vn -0.2454 -0.9679 -0.0540
vn -0.6963 -0.7062 -0.1281
vn -0.9644 -0.2565 -0.0641
vn -0.9654 0.2609 -0.0000
vn -0.7041 0.7101 -0.0000
vn -0.2568 0.9665 -0.0000
vn 0.2568 0.9665 -0.0000
vn 0.7041 0.7101 -0.0000
vn 0.9654 0.2609 -0.0000
vn 0.9654 -0.2609 -0.0000
vn 0.7041 -0.7101 -0.0000
vn 0.2568 -0.9665 -0.0000
vn -0.2568 -0.9665 -0.0000
vn -0.7041 -0.7101 -0.0000
vn -0.9654 -0.2609 -0.0000
vn -0.9645 0.2541 -0.0711
vn -0.6999 0.6854 -0.2010
vn -0.2540 0.9268 -0.2767
vn 0.2540 0.9268 -0.2767
vn 0.6999 0.6854 -0.2010
vn 0.9645 0.2541 -0.0711
vn 0.9644 -0.2565 0.0641
vn 0.6963 -0.7062 0.1281
vn 0.2454 -0.9679 0.0540
vn -0.2454 -0.9679 0.0540
vn -0.6963 -0.7062 0.1281
vn -0.9644 -0.2565 0.0641
vn -0.9636 0.1890 -0.1890
vn -0.6947 0.5086 -0.5086
vn -0.2506 0.6846 -0.6846
vn 0.2506 0.6846 -0.6846
vn 0.6947 0.5086 -0.5086
vn 0.9636 0.1890 -0.1890
vn 0.9636 -0.1890 0.1890
vn 0.6947 -0.5086 0.5086
vn -0.2506 0.6845 -0.6846
vn 0.2506 0.6845 -0.6846
vn -0.6947 -0.5086 0.5086
vn -0.9636 -0.1890 0.1890
vn -0.9645 0.0711 -0.2541
vn -0.6999 0.2010 -0.6854
vn -0.2540 0.2767 -0.9268
vn 0.2540 0.2767 -0.9268
vn 0.6999 0.2010 -0.6854
vn 0.9645 0.0711 -0.2541
vn 0.9644 -0.0641 0.2565
vn 0.6963 -0.1281 0.7062
vn 0.2454 -0.0540 0.9679
vn -0.2454 -0.0540 0.9679
vn -0.6963 -0.1281 0.7062
vn -0.9644 -0.0641 0.2565
vn -0.9657 0.0003 -0.2598
vn -0.7057 0.0019 -0.7086
vn -0.2578 0.0036 -0.9662
vn 0.2578 0.0036 -0.9662
vn 0.7057 0.0019 -0.7086
vn 0.9657 0.0003 -0.2598
vn 0.9656 0.0003 0.2599
vn 0.7055 0.0021 0.7087
vn 0.2577 0.0040 0.9662
vn -0.2577 0.0040 0.9662
vn -0.7055 0.0021 0.7087
vn -0.9656 0.0003 0.2599
vn -0.0000 -1.0000 -0.0000
vn 0.3827 0.9239 -0.0000
vn 0.9239 0.3827 -0.0000
vn 0.9239 -0.3827 -0.0000
vn 0.3827 -0.9239 -0.0000
vn -0.3827 -0.9239 -0.0000
vn -0.9239 -0.3827 -0.0000
vn -0.0000 -0.0000 1.0000
vn -0.9239 0.3827 -0.0000
vn -0.3827 0.9239 -0.0000
vn -0.0000 -0.0000 -1.0000
vn 0.3827 -0.0000 -0.9239
vn 0.9239 -0.0000 -0.3827
vn 0.9239 -0.0000 0.3827
vn 0.3827 -0.0000 0.9239
vn -0.3827 -0.0000 0.9239
vn -0.9239 -0.0000 0.3827
vn -0.0000 1.0000 -0.0000
vn -0.9239 -0.0000 -0.3827
vn -0.3827 -0.0000 -0.9239
vt 0.476988 0.727100
vt 0.581083 0.722358
vt 0.580468 0.748301
vt 0.478201 0.753502
vt 0.475968 0.700532
vt 0.581371 0.697222
vt 0.475349 0.673797
vt 0.581496 0.672569
vt 0.475349 0.647055
vt 0.580800 0.647924
vt 0.475754 0.620471
vt 0.579930 0.622802
vt 0.476355 0.594048
vt 0.578715 0.596880
vt 0.476957 0.567739
vt 0.577055 0.570227
vt 0.477484 0.541369
vt 0.575290 0.543422
vt 0.478004 0.514834
vt 0.574541 0.516840
vt 0.480549 0.806140
vt 0.578281 0.801824
vt 0.578148 0.828417
vt 0.481683 0.832656
vt 0.479412 0.779790
vt 0.579426 0.774985
vt 0.615306 0.726309
vt 0.605033 0.751920
vt 0.622238 0.699482
vt 0.624319 0.672073
vt 0.621604 0.644719
vt 0.614053 0.618060
vt 0.603190 0.592693
vt 0.591619 0.568201
vt 0.582565 0.543155
vt 0.579196 0.516887
vt 0.585560 0.801923
vt 0.582801 0.828261
vt 0.594032 0.776674
vt 0.218931 0.579888
vt 0.206527 0.540828
vt 0.232944 0.535563
vt 0.244914 0.560314
vt 0.189093 0.592577
vt 0.181788 0.543829
vt 0.156878 0.597861
vt 0.157903 0.544159
vt 0.124821 0.591616
vt 0.134233 0.543023
vt 0.096415 0.577183
vt 0.109746 0.539745
vt 0.072261 0.557698
vt 0.084010 0.534020
vt 0.050799 0.536515
vt 0.056867 0.525900
vt 0.028867 0.518634
vt 0.029466 0.517205
vt 0.002073 0.513316
vt 0.002628 0.511255
vt 0.289494 0.521007
vt 0.288997 0.519521
vt 0.315930 0.512634
vt 0.316303 0.514609
vt 0.266860 0.538607
vt 0.260846 0.527661
vt 0.206730 0.508599
vt 0.232597 0.510658
vt 0.182202 0.507103
vt 0.158302 0.506509
vt 0.134425 0.506777
vt 0.110181 0.507944
vt 0.084838 0.509563
vt 0.057893 0.510564
vt 0.030062 0.509478
vt 0.002975 0.506541
vt 0.288334 0.511627
vt 0.315442 0.507929
vt 0.260117 0.512204
vt 0.208286 0.090543
vt 0.233682 0.088955
vt 0.184106 0.091716
vt 0.160229 0.092037
vt 0.136328 0.091563
vt 0.111793 0.090103
vt 0.085884 0.088064
vt 0.058317 0.086545
vt 0.030069 0.087158
vt 0.002946 0.090901
vt 0.288732 0.089252
vt 0.315874 0.092288
vt 0.260791 0.088058
vt 0.208586 0.058718
vt 0.234494 0.064383
vt 0.184243 0.055200
vt 0.160477 0.054063
vt 0.136760 0.055086
vt 0.112001 0.057915
vt 0.085519 0.063132
vt 0.057567 0.071065
vt 0.029394 0.079256
vt 0.002450 0.086192
vt 0.289359 0.081502
vt 0.316239 0.087563
vt 0.261891 0.072651
vt 0.221521 0.020756
vt 0.246698 0.040255
vt 0.192705 0.007896
vt 0.161805 0.002073
vt 0.129835 0.005641
vt 0.099638 0.018479
vt 0.073496 0.038256
vt 0.051528 0.060102
vt 0.028896 0.077769
vt 0.002073 0.084217
vt 0.289964 0.080070
vt 0.316803 0.085499
vt 0.268067 0.061985
vt 0.329984 0.726329
vt 0.364212 0.722362
vt 0.364841 0.748306
vt 0.340275 0.751940
vt 0.323038 0.699495
vt 0.363914 0.697222
vt 0.320950 0.672076
vt 0.363783 0.672563
vt 0.323661 0.644711
vt 0.364475 0.647913
vt 0.331216 0.618042
vt 0.365345 0.622787
vt 0.342087 0.592672
vt 0.366564 0.596864
vt 0.353668 0.568182
vt 0.368230 0.570213
vt 0.362731 0.543142
vt 0.370005 0.543412
vt 0.366108 0.516879
vt 0.370762 0.516833
vt 0.359786 0.801926
vt 0.367065 0.801822
vt 0.367218 0.828411
vt 0.362565 0.828259
vt 0.351296 0.776686
vt 0.365900 0.774988
vt 0.469592 0.727088
vt 0.468400 0.753489
vt 0.470594 0.700520
vt 0.471202 0.673785
vt 0.471202 0.647044
vt 0.470805 0.620459
vt 0.470214 0.594038
vt 0.469623 0.567732
vt 0.469105 0.541366
vt 0.468594 0.514834
vt 0.466093 0.806122
vt 0.464978 0.832635
vt 0.467210 0.779775
vt 0.743748 0.914979
vt 0.730618 0.892237
vt 0.730618 0.865976
vt 0.743748 0.843234
vt 0.766491 0.830104
vt 0.792751 0.830104
vt 0.815494 0.843234
vt 0.828624 0.865976
vt 0.828624 0.892237
vt 0.815494 0.914979
vt 0.792751 0.928109
vt 0.766491 0.928109
vt 0.628466 0.865976
vt 0.641596 0.843234
vt 0.664338 0.830104
vt 0.690599 0.830104
vt 0.713341 0.843234
vt 0.726471 0.865976
vt 0.726471 0.892237
vt 0.713341 0.914979
vt 0.690599 0.928109
vt 0.664338 0.928109
vt 0.641596 0.914979
vt 0.628466 0.892237
vt 0.831792 0.256380
vt 0.997926 0.256380
vt 0.997926 0.319957
vt 0.831792 0.319957
vt 0.997926 0.383534
vt 0.831792 0.383534
vt 0.997926 0.447110
vt 0.831792 0.447110
vt 0.997926 0.510687
vt 0.831792 0.510687
vt 0.831792 0.002073
vt 0.997926 0.002073
vt 0.997926 0.065650
vt 0.831792 0.065650
vt 0.997926 0.129227
vt 0.831792 0.129227
vt 0.673421 0.672469
vt 0.736998 0.672469
vt 0.781953 0.717424
vt 0.781953 0.781001
vt 0.736998 0.825957
vt 0.673421 0.825957
vt 0.628465 0.781001
vt 0.628465 0.717424
vt 0.997926 0.192804
vt 0.831792 0.192804
vt 0.313196 0.804598
vt 0.313196 0.868175
vt 0.268240 0.913131
vt 0.204664 0.913131
vt 0.159708 0.868175
vt 0.159708 0.804598
vt 0.204664 0.759643
vt 0.268240 0.759643
vt 0.487084 0.256380
vt 0.320950 0.256380
vt 0.320950 0.192804
vt 0.487084 0.192804
vt 0.320950 0.129227
vt 0.487084 0.129227
vt 0.320950 0.065650
vt 0.487084 0.065650
vt 0.320950 0.002073
vt 0.487084 0.002073
vt 0.487084 0.510687
vt 0.320950 0.510687
vt 0.320950 0.447111
vt 0.487084 0.447111
vt 0.320950 0.383534
vt 0.487084 0.383534
vt 0.204664 0.602008
vt 0.268240 0.602008
vt 0.313196 0.646964
vt 0.313196 0.710540
vt 0.268241 0.755496
vt 0.204664 0.755496
vt 0.159708 0.710540
vt 0.159708 0.646964
vt 0.320950 0.319957
vt 0.487084 0.319957
vt 0.628465 0.623366
vt 0.628465 0.559790
vt 0.673421 0.514834
vt 0.736998 0.514834
vt 0.781953 0.559790
vt 0.781953 0.623366
vt 0.736998 0.668322
vt 0.673421 0.668322
vt 0.657364 0.256380
vt 0.491230 0.256380
vt 0.491230 0.192804
vt 0.657364 0.192804
vt 0.491230 0.129227
vt 0.657364 0.129227
vt 0.491230 0.065650
vt 0.657364 0.065650
vt 0.491230 0.002073
vt 0.657364 0.002073
vt 0.657364 0.510687
vt 0.491230 0.510687
vt 0.491230 0.447110
vt 0.657364 0.447110
vt 0.491230 0.383534
vt 0.657364 0.383534
vt 0.939588 0.559790
vt 0.939588 0.623366
vt 0.894632 0.668322
vt 0.831056 0.668322
vt 0.786100 0.623366
vt 0.786100 0.559790
vt 0.831056 0.514834
vt 0.894632 0.514834
vt 0.491230 0.319957
vt 0.657364 0.319957
vt 0.155561 0.710540
vt 0.110606 0.755496
vt 0.047029 0.755496
vt 0.002073 0.710540
vt 0.002073 0.646964
vt 0.047029 0.602008
vt 0.110606 0.602008
vt 0.155561 0.646964
vt 0.827645 0.510687
vt 0.661511 0.510687
vt 0.661511 0.447110
vt 0.827645 0.447110
vt 0.661511 0.383534
vt 0.827645 0.383534
vt 0.661512 0.319957
vt 0.827645 0.319957
vt 0.661512 0.256380
vt 0.827645 0.256380
vt 0.661512 0.192804
vt 0.827645 0.192804
vt 0.661512 0.129227
vt 0.827645 0.129227
vt 0.831056 0.825957
vt 0.786100 0.781001
vt 0.786100 0.717424
vt 0.831056 0.672469
vt 0.894632 0.672469
vt 0.939588 0.717424
vt 0.939588 0.781001
vt 0.894632 0.825957
vt 0.661512 0.065650
vt 0.827646 0.065650
vt 0.661512 0.002073
vt 0.827646 0.002073
vt 0.002073 0.804598
vt 0.047029 0.759643
vt 0.110606 0.759643
vt 0.155561 0.804598
vt 0.155561 0.868175
vt 0.110606 0.913131
vt 0.047029 0.913131
vt 0.002073 0.868175
s 0
usemtl Материал
f 1/1/1 13/2/1 24/3/1 12/4/1
f 2/5/2 14/6/2 13/2/2 1/1/2
f 3/7/3 15/8/3 14/6/3 2/5/3
f 4/9/4 16/10/4 15/8/4 3/7/4
f 5/11/5 17/12/5 16/10/5 4/9/5
f 6/13/6 18/14/6 17/12/6 5/11/6
f 7/15/7 19/16/7 18/14/7 6/13/7
f 8/17/8 20/18/8 19/16/8 7/15/8
f 9/19/9 21/20/9 20/18/9 8/17/9
f 10/21/10 22/22/10 21/23/10 9/24/10
f 11/25/11 23/26/11 22/22/11 10/21/11
f 12/4/12 24/3/12 23/26/12 11/25/12
f 13/2/13 25/27/13 36/28/13 24/3/13
f 14/6/14 26/29/14 25/27/14 13/2/14
f 15/8/15 27/30/15 26/29/15 14/6/15
f 16/10/16 28/31/16 27/30/16 15/8/16
f 17/12/17 29/32/17 28/31/17 16/10/17
f 18/14/18 30/33/18 29/32/18 17/12/18
f 19/16/19 31/34/19 30/33/19 18/14/19
f 20/18/20 32/35/20 31/34/20 19/16/20
f 21/20/21 33/36/21 32/35/21 20/18/21
f 22/22/22 34/37/22 33/38/22 21/23/22
f 23/26/23 35/39/23 34/37/23 22/22/23
f 24/3/24 36/28/24 35/39/24 23/26/24
f 25/40/25 37/41/25 48/42/25 36/43/25
f 26/44/26 38/45/26 37/41/26 25/40/26
f 27/46/27 39/47/27 38/45/27 26/44/27
f 28/48/28 40/49/28 39/47/28 27/46/28
f 29/50/29 41/51/29 40/49/29 28/48/29
f 30/52/30 42/53/30 41/51/30 29/50/30
f 31/54/31 43/55/31 42/53/31 30/52/31
f 32/56/32 44/57/32 43/55/32 31/54/32
f 33/58/33 45/59/33 44/57/33 32/56/33
f 34/60/34 46/61/34 45/62/34 33/63/34
f 35/64/35 47/65/35 46/61/35 34/60/35
f 36/43/36 48/42/36 47/65/36 35/64/36
f 37/41/37 49/66/37 60/67/37 48/42/37
f 38/45/38 50/68/38 49/66/38 37/41/38
f 39/47/39 51/69/39 50/68/39 38/45/39
f 40/49/40 52/70/40 51/69/40 39/47/40
f 41/51/41 53/71/41 52/70/41 40/49/41
f 42/53/42 54/72/42 53/71/42 41/51/42
f 43/55/43 55/73/43 54/72/43 42/53/43
f 44/57/44 56/74/44 55/73/44 43/55/44
f 45/59/45 57/75/45 56/74/45 44/57/45
f 46/61/46 58/76/46 57/77/46 45/62/46
f 47/65/47 59/78/47 58/76/47 46/61/47
f 48/42/48 60/67/48 59/78/48 47/65/48
f 49/66/49 61/79/49 72/80/49 60/67/49
f 50/68/50 62/81/50 61/79/50 49/66/50
f 51/69/51 63/82/51 62/81/51 50/68/51
f 52/70/52 64/83/52 63/82/52 51/69/52
f 53/71/53 65/84/53 64/83/53 52/70/53
f 54/72/54 66/85/54 65/84/54 53/71/54
f 55/73/55 67/86/55 66/85/55 54/72/55
f 56/74/56 68/87/56 67/86/56 55/73/56
f 57/75/57 69/88/57 68/87/57 56/74/57
f 58/76/58 70/89/58 69/90/58 57/77/58
f 59/78/59 71/91/59 70/89/59 58/76/59
f 60/67/60 72/80/60 71/91/60 59/78/60
f 61/79/61 73/92/61 84/93/61 72/80/61
f 62/81/62 74/94/62 73/92/62 61/79/62
f 63/82/63 75/95/63 74/94/63 62/81/63
f 64/83/64 76/96/64 75/95/64 63/82/64
f 65/84/65 77/97/65 76/96/65 64/83/65
f 66/85/66 78/98/66 77/97/66 65/84/66
f 67/86/67 79/99/67 78/98/67 66/85/67
f 68/87/68 80/100/68 79/99/68 67/86/68
f 69/88/69 81/101/69 80/100/69 68/87/69
f 70/89/70 82/102/70 81/103/70 69/90/70
f 71/91/71 83/104/71 82/102/71 70/89/71
f 72/80/72 84/93/72 83/104/72 71/91/72
f 73/92/73 85/105/73 96/106/73 84/93/73
f 74/94/74 86/107/74 85/105/74 73/92/74
f 75/95/75 87/108/75 86/107/75 74/94/75
f 76/96/76 88/109/76 87/108/76 75/95/76
f 77/97/77 89/110/77 88/109/77 76/96/77
f 78/98/78 90/111/78 89/110/78 77/97/78
f 79/99/79 91/112/79 90/111/79 78/98/79
f 80/100/80 92/113/80 91/112/80 79/99/80
f 81/101/81 93/114/81 92/113/81 80/100/81
f 82/102/82 94/115/82 93/116/82 81/103/82
f 83/104/83 95/117/83 94/115/83 82/102/83
f 84/93/84 96/106/84 95/117/84 83/104/84
f 85/118/85 97/119/85 108/120/85 96/121/85
f 86/122/86 98/123/86 97/119/86 85/118/86
f 87/124/87 99/125/87 98/123/87 86/122/87
f 88/126/88 100/127/88 99/125/88 87/124/88
f 89/128/89 101/129/89 100/127/89 88/126/89
f 90/130/90 102/131/90 101/129/90 89/128/90
f 91/132/91 103/133/91 102/131/91 90/130/91
f 92/134/92 104/135/92 103/133/92 91/132/92
f 93/136/93 105/137/93 104/135/93 92/134/93
f 94/138/94 106/139/94 105/140/94 93/141/94
f 95/142/95 107/143/95 106/139/95 94/138/95
f 96/121/96 108/120/96 107/143/96 95/142/96
f 97/119/97 109/144/97 120/145/97 108/120/97
f 98/123/98 110/146/98 109/144/98 97/119/98
f 99/125/99 111/147/99 110/146/99 98/123/99
f 100/127/100 112/148/100 111/147/100 99/125/100
f 101/129/101 113/149/101 112/148/101 100/127/101
f 102/131/102 114/150/102 113/149/102 101/129/102
f 103/133/103 115/151/103 114/150/103 102/131/103
f 104/135/104 116/152/104 115/151/104 103/133/104
f 105/137/105 117/153/105 116/152/105 104/135/105
f 106/139/106 118/154/106 117/155/106 105/140/106
f 107/143/107 119/156/107 118/154/107 106/139/107
f 108/120/108 120/145/108 119/156/108 107/143/108
f 12/157/109 11/158/109 10/159/109 9/160/109 8/161/109 7/162/109 6/163/109 5/164/109 4/165/109 3/166/109 2/167/109 1/168/109
f 120/169/109 109/170/109 110/171/109 111/172/109 112/173/109 113/174/109 114/175/109 115/176/109 116/177/109 117/178/109 118/179/109 119/180/109
f 121/181/110 122/182/110 124/183/110 123/184/110
f 123/184/111 124/183/111 126/185/111 125/186/111
f 125/186/112 126/185/112 128/187/112 127/188/112
f 127/188/113 128/187/113 130/189/113 129/190/113
f 129/191/114 130/192/114 132/193/114 131/194/114
f 131/194/115 132/193/115 134/195/115 133/196/115
f 124/197/116 122/198/116 136/199/116 134/200/116 132/201/116 130/202/116 128/203/116 126/204/116
f 133/196/117 134/195/117 136/205/117 135/206/117
f 135/206/118 136/205/118 122/182/118 121/181/118
f 121/207/119 123/208/119 125/209/119 127/210/119 129/211/119 131/212/119 133/213/119 135/214/119
f 137/215/110 138/216/110 140/217/110 139/218/110
f 139/218/111 140/217/111 142/219/111 141/220/111
f 141/220/112 142/219/112 144/221/112 143/222/112
f 143/222/113 144/221/113 146/223/113 145/224/113
f 145/225/114 146/226/114 148/227/114 147/228/114
f 147/228/115 148/227/115 150/229/115 149/230/115
f 140/231/116 138/232/116 152/233/116 150/234/116 148/235/116 146/236/116 144/237/116 142/238/116
f 149/230/117 150/229/117 152/239/117 151/240/117
f 151/240/118 152/239/118 138/216/118 137/215/118
f 137/241/119 139/242/119 141/243/119 143/244/119 145/245/119 147/246/119 149/247/119 151/248/119
f 153/249/120 154/250/120 156/251/120 155/252/120
f 155/252/121 156/251/121 158/253/121 157/254/121
f 157/254/122 158/253/122 160/255/122 159/256/122
f 159/256/123 160/255/123 162/257/123 161/258/123
f 161/259/124 162/260/124 164/261/124 163/262/124
f 163/262/125 164/261/125 166/263/125 165/264/125
f 156/265/126 154/266/126 168/267/126 166/268/126 164/269/126 162/270/126 160/271/126 158/272/126
f 165/264/127 166/263/127 168/273/127 167/274/127
f 167/274/128 168/273/128 154/250/128 153/249/128
f 153/275/109 155/276/109 157/277/109 159/278/109 161/279/109 163/280/109 165/281/109 167/282/109
f 169/283/120 170/284/120 172/285/120 171/286/120
f 171/286/121 172/285/121 174/287/121 173/288/121
f 173/288/122 174/287/122 176/289/122 175/290/122
f 175/290/123 176/289/123 178/291/123 177/292/123
f 177/292/124 178/291/124 180/293/124 179/294/124
f 179/294/125 180/293/125 182/295/125 181/296/125
f 172/297/126 170/298/126 184/299/126 182/300/126 180/301/126 178/302/126 176/303/126 174/304/126
f 181/296/127 182/295/127 184/305/127 183/306/127
f 183/306/128 184/305/128 170/307/128 169/308/128
f 169/309/109 171/310/109 173/311/109 175/312/109 177/313/109 179/314/109 181/315/109 183/316/109
