# Blender 4.2.2 LTS
# www.blender.org
mtllib road sign 3.mtl
o road_sign_3
v 0.590403 10.935294 -1.137956
v 0.723892 10.959077 -1.123009
v 0.367380 11.010708 0.733757
v 0.500869 11.034490 0.748705
v -0.015221 12.376451 1.977584
v 0.118268 12.400234 1.992531
v -0.333276 14.232493 1.864907
v -0.199788 14.256275 1.879854
v -0.400474 15.491588 0.461731
v -0.266986 15.515370 0.476678
v -0.177451 15.416175 -1.409982
v -0.043962 15.439957 -1.395035
v 0.171854 14.050430 -2.653809
v 0.308643 14.074213 -2.638861
v 0.489909 12.194389 -2.541132
v 0.626699 12.218171 -2.526184
v 0.442484 14.340072 -2.281148
v 0.827646 10.993797 -0.145675
v 0.548426 12.728244 -0.573767
v 0.291069 14.237321 -2.325824
v 0.739873 10.954556 -0.544286
v 0.356508 12.992031 -0.659743
v 0.627075 12.211433 -2.518676
v -0.158825 0.060577 0.175227
v 1.506280 5.165257 0.023964
v -0.062225 0.060578 0.297744
v 1.512677 5.220924 0.171541
v -0.080551 0.060577 0.452683
v 1.415726 5.216559 0.293716
v -0.203067 0.060577 0.549283
v 1.272220 5.154722 0.318922
v -0.358006 0.060576 0.530958
v 1.166221 5.071633 0.232393
v -0.454606 0.060576 0.408440
v 1.159824 5.015968 0.084817
v -0.436280 0.060578 0.253502
v 1.256774 5.020333 -0.037359
v -0.313764 0.060578 0.156901
v 1.400282 5.082170 -0.062565
v -1.269548 7.655258 0.620141
v -1.366151 7.654526 0.497628
v -1.287870 7.657025 0.775072
v -1.410382 7.658792 0.871665
v -1.565319 7.659523 0.853336
v -1.661921 7.658792 0.730823
v -1.643600 7.657025 0.575892
v -1.521088 7.655258 0.479299
v -0.505712 10.138319 0.218756
v -0.603214 10.128752 0.097262
v -0.522566 10.139847 0.373856
v -0.643903 10.132441 0.471706
v -0.798645 10.120436 0.454987
v -0.896146 10.110867 0.333492
v -0.879292 10.109339 0.178392
v -0.757955 10.116747 0.080543
v 0.260961 11.443827 1.484401
v 0.148912 11.462189 1.377106
v 0.264022 11.432608 1.640062
v 0.156301 11.435100 1.752902
v 0.000900 11.449844 1.756823
v -0.111150 11.468205 1.649526
v -0.114210 11.479426 1.493867
v -0.006489 11.476933 1.381026
v 0.023438 14.789121 -2.349270
v -0.100999 14.734605 -2.429508
v 0.046663 14.901255 -2.232786
v -0.044927 15.005318 -2.148293
v -0.197681 15.040352 -2.145284
v -0.322118 14.985832 -2.225524
v -0.345344 14.873700 -2.342006
v -0.253753 14.769637 -2.426500
v 0.190332 6.672822 0.303567
v 0.169425 6.653011 0.457140
v -0.056225 6.466292 0.518889
v -0.128784 6.408760 0.390893
v -0.005749 6.514116 0.148130
v 0.117774 6.615289 0.175571
v 0.067297 6.567464 0.546329
v -0.107876 6.428569 0.237320
v 0.769113 3.737619 0.604425
v 0.796147 3.793998 0.735393
v 0.712803 3.825736 0.857705
v 0.567903 3.814246 0.899709
v 0.446327 3.766256 0.836803
v 0.419293 3.709879 0.705834
v 0.502637 3.678140 0.583523
v 0.647537 3.689631 0.541518
vn 0.3010 -0.9535 -0.0158
vn 0.0356 -0.6674 0.7438
vn -0.1182 0.0400 0.9922
vn -0.2028 0.7240 0.6593
vn -0.1686 0.9839 -0.0597
vn -0.0957 0.5924 -0.7999
vn 0.9633 0.2070 0.1709
vn 0.1155 -0.0405 -0.9925
vn 0.1981 -0.7246 -0.6601
vn -0.9912 -0.1237 0.0473
vn 0.9942 0.0926 -0.0548
vn -0.9655 -0.2018 -0.1644
vn -0.9942 -0.1008 0.0385
vn -0.2769 0.8457 -0.4562
vn 0.9938 0.1075 -0.0288
vn 0.2004 -0.7221 -0.6621
vn 0.1244 -0.9887 0.0841
vn 0.8996 -0.4318 0.0657
vn 0.7864 -0.1570 0.5975
vn 0.1363 0.3224 0.9367
vn -0.6542 0.5732 0.4935
vn -0.8853 0.4584 -0.0781
vn -0.7852 0.1631 -0.5973
vn 0.5765 0.8081 0.1206
vn -0.1288 -0.3454 -0.9296
vn 0.6554 -0.5594 -0.5074
vn -0.0000 -1.0000 -0.0000
vn -0.9537 0.2795 -0.1112
vn -0.4766 -0.7290 0.4914
vn 0.0355 0.3313 -0.9429
vn 0.4286 0.7722 -0.4690
vn 0.4750 0.4295 0.7680
vn -0.6400 -0.7580 -0.1257
vn -0.0387 -0.3236 0.9454
vn -0.4866 -0.4082 -0.7724
vn 0.7243 0.2151 -0.6551
vn -0.1173 0.1940 0.9740
vn 0.9547 -0.2760 0.1113
vn -0.6230 0.0674 -0.7793
vn -0.7463 0.3267 0.5799
vn 0.6230 -0.0666 0.7794
vn 0.7470 -0.3240 -0.5806
vn 0.1173 -0.1940 -0.9740
vn -0.1363 -0.7547 -0.6418
vn 0.0362 0.6807 -0.7317
vn -0.8598 0.5101 -0.0223
vn -0.0360 -0.6888 0.7241
vn 0.8489 -0.5281 0.0212
vn -0.4691 0.7328 -0.4929
vn -0.7248 -0.2114 0.6557
vn 0.4568 -0.7495 0.4791
vn 0.1463 0.6980 -0.7011
vn -0.9959 0.0309 0.0848
vn 0.1335 0.7336 0.6663
vn 0.9959 -0.0298 -0.0851
vn -0.7188 -0.5449 -0.4317
vn -0.5509 0.6014 0.5787
vn 0.7223 0.5316 0.4424
vn 0.5450 -0.6162 -0.5685
vn -0.3327 -0.1660 -0.9283
vn -0.1905 -0.3337 0.9232
vn -0.7138 -0.6020 -0.3579
vn 0.3355 0.1613 0.9281
vn 0.6334 0.6349 -0.4423
vn 0.2060 0.3162 -0.9261
vn -0.6169 -0.6500 0.4438
vn 0.7155 0.5997 0.3584
vn 0.2760 0.0356 -0.9605
vn -0.4573 0.2053 -0.8653
vn -0.8980 0.2550 -0.3585
vn -0.8999 0.1725 0.4005
vn -0.2776 -0.0259 0.9603
vn 0.4586 -0.1828 0.8696
vn 0.9025 -0.2391 0.3583
vn 0.9001 -0.1700 -0.4012
vt 0.592476 0.972176
vt 0.737696 0.961203
vt 0.968371 0.972176
vt 0.822291 0.971807
vt 0.563771 0.581975
vt 0.709022 0.571424
vt 0.713060 0.627009
vt 0.567809 0.637560
vt 0.717097 0.682594
vt 0.571846 0.693145
vt 0.721135 0.738180
vt 0.575884 0.748731
vt 0.725173 0.793765
vt 0.579922 0.804316
vt 0.927641 0.822951
vt 0.745743 0.838394
vt 0.684264 0.053686
vt 0.736803 0.279547
vt 0.679253 0.277960
vt 0.606400 0.281456
vt 0.549385 0.086588
vt 0.557505 0.034082
vt 0.600374 0.002697
vt 0.652879 0.010817
vt 0.549385 0.863616
vt 0.698043 0.852386
vt 0.702247 0.907959
vt 0.553589 0.919188
vt 0.702287 0.908255
vt 0.852802 0.003344
vt 0.997303 0.182315
vt 0.927608 0.193077
vt 0.786683 0.002697
vt 0.603336 0.521230
vt 0.603039 0.521197
vt 0.549385 0.505973
vt 0.858873 0.197081
vt 0.913601 0.399095
vt 0.861634 0.419268
vt 0.810623 0.396787
vt 0.760465 0.372462
vt 0.742197 0.319795
vt 0.742197 0.036508
vt 0.661756 0.501381
vt 0.789544 0.526624
vt 0.935622 0.527462
vt 0.267535 0.755379
vt 0.269847 0.949007
vt 0.244888 0.931875
vt 0.242771 0.743631
vt 0.236227 0.901121
vt 0.232426 0.715127
vt 0.221157 0.875338
vt 0.219541 0.687036
vt 0.193611 0.869975
vt 0.193658 0.676221
vt 0.169430 0.888188
vt 0.169430 0.689041
vt 0.312916 0.685686
vt 0.317583 0.884779
vt 0.311094 0.916063
vt 0.304584 0.714842
vt 0.282102 0.386833
vt 0.252062 0.396403
vt 0.257308 0.089140
vt 0.287981 0.079192
vt 0.297137 0.942465
vt 0.292932 0.743467
vt 0.828199 0.501820
vt 0.805600 0.479221
vt 0.805600 0.447261
vt 0.828199 0.424662
vt 0.860159 0.424662
vt 0.882758 0.447261
vt 0.882758 0.479221
vt 0.860159 0.501820
vt 0.508518 0.014822
vt 0.543991 0.002697
vt 0.491438 0.208774
vt 0.467144 0.197485
vt 0.337319 0.330892
vt 0.308353 0.339494
vt 0.313632 0.021042
vt 0.342746 0.007630
vt 0.223918 0.386490
vt 0.213569 0.363275
vt 0.217939 0.043014
vt 0.228476 0.074539
vt 0.296696 0.362945
vt 0.302412 0.051032
vt 0.199487 0.339999
vt 0.169430 0.329792
vt 0.173671 0.002697
vt 0.204157 0.013763
vt 0.429051 0.255217
vt 0.435069 0.230956
vt 0.430828 0.538672
vt 0.420339 0.572473
vt 0.365335 0.029473
vt 0.373138 0.040653
vt 0.386607 0.232243
vt 0.357014 0.191897
vt 0.381979 0.063381
vt 0.412345 0.079555
vt 0.404355 0.266488
vt 0.491536 0.044351
vt 0.451606 0.218646
vt 0.348141 0.026279
vt 0.348202 0.125489
vt 0.458565 0.073450
vt 0.103638 0.079602
vt 0.135463 0.080726
vt 0.139212 0.864207
vt 0.107937 0.862907
vt 0.472738 0.514426
vt 0.530033 0.548576
vt 0.509431 0.520705
vt 0.377885 0.606605
vt 0.355743 0.593500
vt 0.402933 0.600765
vt 0.348141 0.566377
vt 0.759187 0.500233
vt 0.742197 0.475092
vt 0.742197 0.443790
vt 0.759188 0.424662
vt 0.783216 0.428914
vt 0.800206 0.454055
vt 0.800206 0.485358
vt 0.783215 0.504485
vt 0.158926 0.059030
vt 0.161221 0.027220
vt 0.164036 0.824300
vt 0.159181 0.848213
vt 0.024465 0.003643
vt 0.056296 0.002697
vt 0.058637 0.805071
vt 0.027354 0.806199
vt 0.079646 0.024514
vt 0.082006 0.056320
vt 0.083385 0.845076
vt 0.078526 0.821163
vt 0.002697 0.026798
vt 0.002697 0.823884
vt 0.215180 0.652237
vt 0.211455 0.622082
vt 0.312986 0.597566
vt 0.291335 0.614568
vt 0.189964 0.598922
vt 0.288066 0.644148
vt 0.266267 0.667470
vt 0.236178 0.670827
vt 0.342746 0.602723
vt 0.469885 0.626379
vt 0.462016 0.846637
vt 0.454562 0.873680
vt 0.457027 0.655638
vt 0.498428 0.612000
vt 0.482918 0.823873
vt 0.529121 0.620911
vt 0.512798 0.818704
vt 0.367337 0.649409
vt 0.371926 0.835944
vt 0.348141 0.822322
vt 0.348141 0.623856
vt 0.380850 0.678371
vt 0.380696 0.862590
vt 0.409663 0.692200
vt 0.402161 0.884824
vt 0.440215 0.682819
vt 0.432132 0.889434
s 0
usemtl Материал
f 1/1/1 2/2/1 18/3/1 21/4/1
f 3/5/2 4/6/2 6/7/2 5/8/2
f 5/8/3 6/7/3 8/9/3 7/10/3
f 7/10/4 8/9/4 10/11/4 9/12/4
f 9/12/5 10/11/5 12/13/5 11/14/5
f 11/14/6 12/13/6 17/15/6 20/16/6
f 4/17/7 18/18/7 19/19/7 17/20/7 12/21/7 10/22/7 8/23/7 6/24/7
f 13/25/8 14/26/8 16/27/8 15/28/8
f 15/28/9 16/27/9 23/29/9
f 1/30/10 21/31/10 22/32/10 15/33/10
f 17/20/11 19/19/11 23/34/11 16/35/11 14/36/11
f 20/37/12 22/32/12 21/31/12 3/38/12 5/39/12 7/40/12 9/41/12 11/42/12
f 15/33/13 22/32/13 20/37/13 13/43/13
f 20/16/14 17/15/14 14/26/14 13/25/14
f 23/34/15 19/19/15 18/18/15 2/44/15
f 23/29/16 2/2/16 1/1/16 15/28/16
f 21/45/17 18/46/17 4/6/17 3/5/17
f 80/47/18 25/48/18 27/49/18 81/50/18
f 81/50/19 27/49/19 29/51/19 82/52/19
f 82/52/20 29/51/20 31/53/20 83/54/20
f 83/54/21 31/53/21 33/55/21 84/56/21
f 84/56/22 33/55/22 35/57/22 85/58/22
f 85/59/23 35/60/23 37/61/23 86/62/23
f 73/63/24 72/64/24 40/65/24 42/66/24
f 86/62/25 37/61/25 39/67/25 87/68/25
f 87/68/26 39/67/26 25/48/26 80/47/26
f 24/69/27 26/70/27 28/71/27 30/72/27 32/73/27 34/74/27 36/75/27 38/76/27
f 46/77/28 45/78/28 53/79/28 54/80/28
f 75/81/29 74/82/29 44/83/29 45/84/29
f 77/85/30 76/86/30 47/87/30 41/88/30
f 72/64/31 77/85/31 41/88/31 40/65/31
f 78/89/32 73/63/32 42/66/32 43/90/32
f 79/91/33 75/92/33 45/93/33 46/94/33
f 74/82/34 78/89/34 43/90/34 44/83/34
f 76/86/35 79/91/35 46/94/35 47/87/35
f 48/95/36 49/96/36 57/97/36 56/98/36
f 44/99/37 43/100/37 51/101/37 52/102/37
f 42/103/38 40/104/38 48/95/38 50/105/38
f 47/106/39 46/77/39 54/80/39 55/107/39
f 45/108/40 44/99/40 52/102/40 53/109/40
f 43/100/41 42/103/41 50/105/41 51/101/41
f 40/104/42 41/110/42 49/96/42 48/95/42
f 41/110/43 47/106/43 55/107/43 49/96/43
f 57/111/44 63/112/44 71/113/44 65/114/44
f 49/96/45 55/107/45 63/115/45 57/97/45
f 54/80/46 53/79/46 61/116/46 62/117/46
f 52/102/47 51/101/47 59/118/47 60/119/47
f 50/105/48 48/95/48 56/98/48 58/120/48
f 55/107/49 54/80/49 62/117/49 63/115/49
f 53/109/50 52/102/50 60/119/50 61/121/50
f 51/101/51 50/105/51 58/120/51 59/118/51
f 64/122/52 65/123/52 71/124/52 70/125/52 69/126/52 68/127/52 67/128/52 66/129/52
f 62/130/53 61/131/53 69/132/53 70/133/53
f 60/134/54 59/135/54 67/136/54 68/137/54
f 58/138/55 56/139/55 64/140/55 66/141/55
f 63/112/56 62/130/56 70/133/56 71/113/56
f 61/142/57 60/134/57 68/137/57 69/143/57
f 59/135/58 58/138/58 66/141/58 67/136/58
f 56/139/59 57/111/59 65/114/59 64/140/59
f 39/144/60 37/145/60 79/91/60 76/86/60
f 33/146/61 31/147/61 78/89/61 74/82/61
f 37/145/62 35/148/62 75/92/62 79/91/62
f 31/147/63 29/149/63 73/63/63 78/89/63
f 27/150/64 25/151/64 77/85/64 72/64/64
f 25/151/65 39/144/65 76/86/65 77/85/65
f 35/152/66 33/146/66 74/82/66 75/81/66
f 29/149/67 27/150/67 72/64/67 73/63/67
f 38/153/68 87/154/68 80/155/68 24/156/68
f 36/157/69 86/158/69 87/154/69 38/153/69
f 34/159/70 85/160/70 86/158/70 36/157/70
f 32/161/71 84/162/71 85/163/71 34/164/71
f 30/165/72 83/166/72 84/162/72 32/161/72
f 28/167/73 82/168/73 83/166/73 30/165/73
f 26/169/74 81/170/74 82/168/74 28/167/74
f 24/156/75 80/155/75 81/170/75 26/169/75
