# Blender 4.2.2 LTS
# www.blender.org
mtllib road sign 1.mtl
o road_sign_1
v -0.186964 0.078586 -0.201212
v -0.186964 21.245892 -0.201212
v -0.042821 0.078586 -0.141507
v -0.042821 21.245892 -0.141507
v 0.016884 0.078586 0.002636
v 0.016884 21.245892 0.002636
v -0.042821 0.078586 0.146779
v -0.042821 21.245892 0.146779
v -0.186964 0.078586 0.206484
v -0.186964 21.245892 0.206484
v -0.331107 0.078586 0.146779
v -0.331107 21.245892 0.146779
v -0.390812 0.078586 0.002636
v -0.390812 21.245892 0.002636
v -0.331107 0.078586 -0.141507
v -0.331107 21.245892 -0.141507
v 0.023848 19.506878 -2.274925
v 0.160260 19.506878 -2.274925
v 0.023848 17.620419 -2.274128
v 0.160260 17.620419 -2.274128
v 0.023849 16.287050 -0.939633
v 0.160261 16.287050 -0.939633
v 0.023849 16.287846 0.946830
v 0.160260 16.287846 0.946830
v 0.023848 17.622337 2.280197
v 0.160260 17.622337 2.280197
v 0.023848 19.508797 2.279400
v 0.160260 19.508797 2.279400
v 0.023848 20.842167 0.944905
v 0.160260 20.842167 0.944905
v 0.023848 20.841370 -0.941558
v 0.160260 20.841370 -0.941558
vn 0.3827 -0.0000 -0.9239
vn 0.9239 -0.0000 -0.3827
vn 0.9239 -0.0000 0.3827
vn 0.3827 -0.0000 0.9239
vn -0.3827 -0.0000 0.9239
vn -0.9239 -0.0000 0.3827
vn -0.0000 1.0000 -0.0000
vn -0.9239 -0.0000 -0.3827
vn -0.3827 -0.0000 -0.9239
vn -0.0000 -1.0000 -0.0000
vn -0.0000 -0.0004 -1.0000
vn -0.0000 -0.7074 -0.7068
vn -0.0000 -1.0000 0.0004
vn -0.0000 -0.7068 0.7074
vn -0.0000 0.0004 1.0000
vn -0.0000 0.7074 0.7068
vn 1.0000 -0.0000 -0.0000
vn -0.0000 1.0000 -0.0004
vn -0.0000 0.7068 -0.7074
vn -1.0000 -0.0000 -0.0000
vt 0.538647 0.613708
vt 0.272199 0.613708
vt 0.272199 0.511743
vt 0.538647 0.511743
vt 0.272199 0.409778
vt 0.538647 0.409778
vt 0.272199 0.307813
vt 0.538647 0.307813
vt 0.272199 0.205848
vt 0.538647 0.205848
vt 0.272199 0.103882
vt 0.538647 0.103882
vt 0.272199 0.001917
vt 0.538647 0.001917
vt 0.542481 0.425983
vt 0.542481 0.324017
vt 0.614582 0.251917
vt 0.716547 0.251917
vt 0.788647 0.324017
vt 0.788647 0.425983
vt 0.716547 0.498083
vt 0.614582 0.498083
vt 0.538647 0.817639
vt 0.272199 0.817639
vt 0.272199 0.715674
vt 0.538647 0.715674
vt 0.788647 0.574017
vt 0.788647 0.675983
vt 0.716547 0.748083
vt 0.614582 0.748083
vt 0.542481 0.675983
vt 0.542481 0.574017
vt 0.614582 0.501917
vt 0.716547 0.501917
vt 0.268365 0.307813
vt 0.001917 0.307813
vt 0.001917 0.205848
vt 0.268365 0.205848
vt 0.001917 0.103882
vt 0.268365 0.103882
vt 0.001917 0.001917
vt 0.268365 0.001917
vt 0.268365 0.817639
vt 0.001917 0.817639
vt 0.001917 0.715674
vt 0.268365 0.715674
vt 0.001917 0.613708
vt 0.268365 0.613708
vt 0.001917 0.511743
vt 0.268365 0.511743
vt 0.716547 0.998083
vt 0.614582 0.998083
vt 0.542481 0.925983
vt 0.542481 0.824017
vt 0.614582 0.751917
vt 0.716547 0.751917
vt 0.788647 0.824017
vt 0.788647 0.925983
vt 0.001917 0.409778
vt 0.268365 0.409778
vt 0.716547 0.001917
vt 0.788647 0.074017
vt 0.788647 0.175983
vt 0.716547 0.248083
vt 0.614582 0.248083
vt 0.542481 0.175983
vt 0.542481 0.074017
vt 0.614582 0.001917
s 0
usemtl Материал
f 1/1/1 2/2/1 4/3/1 3/4/1
f 3/4/2 4/3/2 6/5/2 5/6/2
f 5/6/3 6/5/3 8/7/3 7/8/3
f 7/8/4 8/7/4 10/9/4 9/10/4
f 9/10/5 10/9/5 12/11/5 11/12/5
f 11/12/6 12/11/6 14/13/6 13/14/6
f 4/15/7 2/16/7 16/17/7 14/18/7 12/19/7 10/20/7 8/21/7 6/22/7
f 13/23/8 14/24/8 16/25/8 15/26/8
f 15/26/9 16/25/9 2/2/9 1/1/9
f 1/27/10 3/28/10 5/29/10 7/30/10 9/31/10 11/32/10 13/33/10 15/34/10
f 17/35/11 18/36/11 20/37/11 19/38/11
f 19/38/12 20/37/12 22/39/12 21/40/12
f 21/40/13 22/39/13 24/41/13 23/42/13
f 23/43/14 24/44/14 26/45/14 25/46/14
f 25/46/15 26/45/15 28/47/15 27/48/15
f 27/48/16 28/47/16 30/49/16 29/50/16
f 20/51/17 18/52/17 32/53/17 30/54/17 28/55/17 26/56/17 24/57/17 22/58/17
f 29/50/18 30/49/18 32/59/18 31/60/18
f 31/60/19 32/59/19 18/36/19 17/35/19
f 17/61/20 19/62/20 21/63/20 23/64/20 25/65/20 27/66/20 29/67/20 31/68/20
