# Blender 4.2.2 LTS
# www.blender.org
mtllib stool.mtl
o stool
v -0.810075 3.610864 -0.807929
v -1.008513 3.787020 -1.006367
v 0.793048 3.610864 -0.807929
v 0.991487 3.787020 -1.006367
v -0.810075 3.610864 0.795195
v -1.008513 3.787020 0.993633
v 0.793048 3.610864 0.795195
v 0.991486 3.787020 0.993633
v 0.991487 3.610864 -1.006367
v -1.008513 3.610864 -1.006367
v 0.991486 3.610864 0.993633
v -1.008513 3.610864 0.993633
v 0.810784 3.382686 -0.825664
v -0.827811 3.382686 -0.825664
v 0.810784 3.382686 0.812931
v -0.827811 3.382686 0.812930
v 0.991487 3.610864 -0.006367
v 0.991487 3.787020 -0.006367
v -1.008513 3.610864 -0.006367
v -1.008513 3.787020 -0.006367
v 0.793048 3.610864 -0.006367
v -0.810075 3.610864 -0.006367
v 0.810784 3.382686 -0.006367
v -0.827811 3.382686 -0.006367
v -0.008513 3.610864 -1.006367
v -0.008513 3.787020 -1.006367
v -0.008513 3.610864 0.993633
v -0.008513 3.787020 0.993633
v -0.008513 3.610864 -0.807929
v -0.008513 3.610864 0.795195
v -0.008513 3.382686 -0.825664
v -0.008513 3.382686 0.812930
v -0.008513 3.382686 -0.006367
v -0.008513 3.787020 -0.006367
v 0.991487 3.787020 0.493633
v -1.008513 3.610864 0.493633
v -0.810075 3.610864 0.394414
v -0.827811 3.382686 0.403282
v 0.991487 3.610864 0.493633
v -1.008513 3.787020 0.493633
v 0.793048 3.610864 0.394414
v 0.810784 3.382686 0.403282
v -0.008513 3.787020 0.493633
v -0.008513 3.382686 0.403282
v 0.991487 3.610864 -0.506367
v -1.008513 3.787020 -0.506367
v 0.793048 3.610864 -0.407148
v 0.810784 3.382686 -0.416015
v 0.991487 3.787020 -0.506367
v -1.008513 3.610864 -0.506367
v -0.810075 3.610864 -0.407148
v -0.827811 3.382686 -0.416016
v -0.008513 3.382686 -0.416016
v -0.008513 3.787020 -0.506367
v 0.491487 3.787020 -1.006367
v 0.491487 3.610864 0.993633
v 0.392267 3.610864 0.795195
v 0.401135 3.382686 0.812930
v 0.491487 3.610864 -1.006367
v 0.491487 3.787020 0.993633
v 0.392267 3.610864 -0.807929
v 0.401135 3.382686 -0.825664
v 0.401135 3.382686 -0.006367
v 0.491487 3.787020 -0.006367
v 0.401135 3.382686 0.403282
v 0.491487 3.787020 0.493633
v 0.491487 3.787020 -0.506367
v 0.401135 3.382686 -0.416015
v -0.508513 3.610864 -1.006367
v -0.508514 3.787020 0.993633
v -0.409294 3.610864 -0.807929
v -0.418162 3.382686 -0.825664
v -0.418162 3.382686 -0.006367
v -0.508513 3.787020 -0.006367
v -0.508513 3.787020 -1.006367
v -0.508514 3.610864 0.993633
v -0.409294 3.610864 0.795195
v -0.418162 3.382686 0.812930
v -0.508513 3.787020 0.493633
v -0.418162 3.382686 0.403282
v -0.418162 3.382686 -0.416016
v -0.508513 3.787020 -0.506367
v -0.647997 1.165146 -0.645850
v -0.630824 1.410458 -0.628677
v 0.630970 1.165146 -0.645850
v 0.613797 1.410458 -0.628677
v -0.647997 1.165146 0.633117
v -0.630824 1.410458 0.615943
v 0.630970 1.165146 0.633117
v 0.613797 1.410458 0.615943
v -0.941979 1.410458 -0.939832
v 0.924952 1.410458 -0.939832
v 0.924952 1.410458 0.927098
v -0.941979 1.410458 0.927098
v 0.945939 1.165146 -0.960820
v -0.962966 1.165146 -0.960820
v 0.945939 1.165146 0.948086
v -0.962966 1.165146 0.948086
v 0.674532 0.021026 -1.092952
v 0.431648 3.421174 -0.811807
v 1.045639 0.021026 -1.092952
v 0.802755 3.421174 -0.811807
v 0.674532 0.021026 -0.721845
v 0.431648 3.421174 -0.440700
v 1.045639 0.021026 -0.721845
v 0.802755 3.421174 -0.440700
v 0.674532 0.021026 1.080217
v 0.431648 3.421174 0.799071
v 1.045639 0.021026 1.080217
v 0.802755 3.421174 0.799071
v 0.674532 0.021026 0.709109
v 0.431648 3.421174 0.427964
v 1.045639 0.021026 0.709109
v 0.802755 3.421174 0.427964
v -0.691562 0.021026 -1.092952
v -0.448678 3.421174 -0.811807
v -1.062669 0.021026 -1.092952
v -0.819786 3.421174 -0.811807
v -0.691562 0.021026 -0.721845
v -0.448678 3.421174 -0.440700
v -1.062669 0.021026 -0.721845
v -0.819786 3.421174 -0.440700
v -0.691562 0.021027 1.080217
v -0.448678 3.421174 0.799071
v -1.062669 0.021027 1.080217
v -0.819786 3.421174 0.799071
v -0.691562 0.021027 0.709109
v -0.448678 3.421174 0.427964
v -1.062669 0.021027 0.709109
v -0.819786 3.421174 0.427964
vn -0.0000 -0.0000 -1.0000
vn 1.0000 -0.0000 -0.0000
vn -0.0000 -0.0000 1.0000
vn -1.0000 -0.0000 -0.0000
vn 0.9970 0.0775 -0.0000
vn -0.0000 1.0000 -0.0000
vn -0.0000 -1.0000 -0.0000
vn -0.0000 0.0775 0.9970
vn -0.0000 0.0775 -0.9970
vn -0.9970 0.0775 -0.0000
vn -0.0000 0.0852 -0.9964
vn 0.9964 0.0852 -0.0000
vn -0.0000 0.0852 0.9964
vn -0.9964 0.0852 -0.0000
vn 0.9976 -0.0698 -0.0000
vn -0.0000 -0.0698 0.9976
vn -0.9976 -0.0698 -0.0000
vn -0.0000 -0.0698 -0.9976
vn -0.0000 0.0824 -0.9966
vn 0.9975 0.0713 -0.0000
vn -0.0000 -0.0824 0.9966
vn -0.9975 -0.0713 -0.0000
vn -0.0000 0.0824 0.9966
vn -0.0000 -0.0824 -0.9966
vn -0.9975 0.0713 -0.0000
vn 0.9975 -0.0713 -0.0000
vt 0.924769 0.968748
vt 0.924769 0.805984
vt 0.965460 0.805984
vt 0.965460 0.968748
vt 0.877927 0.000000
vt 0.877927 0.162764
vt 0.837236 0.162764
vt 0.837236 0.000000
vt 0.122073 0.948545
vt 0.122073 0.785781
vt 0.162764 0.785781
vt 0.162764 0.948545
vt 0.781749 0.867622
vt 0.618985 0.867622
vt 0.618985 0.826931
vt 0.781749 0.826931
vt 0.210312 0.526940
vt 0.205622 0.558402
vt 0.000000 0.532425
vt 0.004330 0.499941
vt 0.924769 0.765293
vt 0.965460 0.765293
vt 0.965460 0.805984
vt 0.924769 0.805984
vt 0.233934 0.325050
vt 0.247329 0.288077
vt 0.273405 0.288077
vt 0.250163 0.322025
vt 0.223734 0.463635
vt 0.240985 0.428022
vt 0.267085 0.430514
vt 0.240474 0.462391
vt 0.210312 0.049214
vt 0.205622 0.017752
vt 0.218853 0.000000
vt 0.224549 0.039034
vt 0.231033 0.186213
vt 0.240985 0.148132
vt 0.267085 0.145640
vt 0.246943 0.181740
vt 0.870574 0.262778
vt 0.870574 0.296116
vt 0.837236 0.296116
vt 0.837236 0.262778
vt 0.223734 0.112519
vt 0.015571 0.168245
vt 0.012802 0.141321
vt 0.231033 0.389941
vt 0.015571 0.407909
vt 0.017582 0.380910
vt 0.233934 0.251103
vt 0.020878 0.288077
vt 0.020496 0.261016
vt 0.230116 0.218767
vt 0.019209 0.228122
vt 0.017582 0.195244
vt 0.870574 0.196102
vt 0.870574 0.229440
vt 0.837236 0.229440
vt 0.837236 0.196102
vt 0.244956 0.218105
vt 0.250163 0.254129
vt 0.215787 0.495437
vt 0.230824 0.498620
vt 0.224549 0.537120
vt 0.843387 0.765293
vt 0.884078 0.765293
vt 0.884078 0.805984
vt 0.843387 0.805984
vt 0.008647 0.467429
vt 0.012802 0.434833
vt 0.781749 0.949004
vt 0.618985 0.949004
vt 0.618985 0.908313
vt 0.781749 0.908313
vt 0.959309 0.000000
vt 0.959309 0.162764
vt 0.918618 0.162764
vt 0.918618 0.000000
vt 0.843387 0.683911
vt 0.884078 0.683911
vt 0.884078 0.724602
vt 0.843387 0.724602
vt 0.937250 0.196102
vt 0.937250 0.229440
vt 0.903912 0.229440
vt 0.903912 0.196102
vt 0.230116 0.357387
vt 0.019209 0.348031
vt 0.020496 0.315138
vt 0.215787 0.080717
vt 0.008647 0.108725
vt 0.004330 0.076213
vt 0.937250 0.262778
vt 0.937250 0.296116
vt 0.903912 0.296116
vt 0.903912 0.262778
vt 0.230824 0.077533
vt 0.240474 0.113763
vt 0.244956 0.358049
vt 0.246943 0.394414
vt 0.924769 0.683911
vt 0.965460 0.683911
vt 0.965460 0.724602
vt 0.924769 0.724602
vt 0.040691 0.948545
vt 0.040691 0.785781
vt 0.081382 0.785781
vt 0.081382 0.948545
vt 0.843387 0.968748
vt 0.843387 0.805984
vt 0.884078 0.805984
vt 0.884078 0.968748
vt 0.802696 0.683911
vt 0.802696 0.724602
vt 0.781749 0.989695
vt 0.618985 0.989695
vt 0.802696 0.765293
vt 0.802696 0.805984
vt 0.218853 0.576154
vt 0.937250 0.162764
vt 0.903912 0.162764
vt 1.000000 0.000000
vt 1.000000 0.162764
vt 0.870574 0.162764
vt 0.837236 0.162764
vt 0.970588 0.162764
vt 0.970588 0.196102
vt 0.884078 0.643220
vt 0.924769 0.643220
vt 0.802696 0.643220
vt 0.843387 0.643220
vt 0.970588 0.229440
vt 0.970588 0.262778
vt 0.000000 0.948545
vt -0.000000 0.785781
vt 0.965460 0.643220
vt 0.970588 0.296116
vt 0.000000 0.043729
vt 0.802696 0.968748
vt 0.802696 0.805984
vt 0.000000 0.785781
vt 0.002020 0.606099
vt 0.181691 0.606099
vt 0.183711 0.785781
vt 0.653525 0.209627
vt 0.655545 0.029945
vt 0.835216 0.029945
vt 0.837236 0.209627
vt 0.835216 0.389310
vt 0.655545 0.389310
vt 0.837236 0.419255
vt 0.835216 0.598937
vt 0.655545 0.598937
vt 0.653525 0.419255
vt 0.031965 0.576154
vt 0.151746 0.576154
vt 0.685490 0.000000
vt 0.805271 0.000000
vt 0.805271 0.419255
vt 0.685490 0.419255
vt 0.805271 0.628883
vt 0.685490 0.628883
vt 0.772384 0.673532
vt 0.649297 0.673532
vt 0.618985 0.643220
vt 0.802696 0.643220
vt 0.772383 0.796618
vt 0.802696 0.826931
vt 0.649297 0.796618
vt 0.649297 0.796619
vt 0.618985 0.826931
vt 0.424791 0.541098
vt 0.423139 0.361419
vt 0.546225 0.361419
vt 0.544572 0.541098
vt 0.275058 0.902517
vt 0.273405 0.722838
vt 0.396491 0.722838
vt 0.394839 0.902517
vt 0.424791 0.900455
vt 0.423139 0.720776
vt 0.546225 0.720776
vt 0.544572 0.900455
vt 0.424791 0.720776
vt 0.423139 0.541098
vt 0.546225 0.541098
vt 0.544572 0.720776
vt 0.349331 0.076748
vt 0.359068 0.296230
vt 0.327748 0.299394
vt 0.319326 0.080694
vt 0.299487 0.350868
vt 0.273405 -0.000000
vt 0.653525 0.321610
vt 0.653525 0.640761
vt 0.618985 0.643220
vt 0.618985 0.324069
vt 0.388598 0.014975
vt 0.388598 0.361419
vt 0.312672 0.438167
vt 0.342677 0.442113
vt 0.334256 0.660813
vt 0.302936 0.657649
vt 0.388599 0.361419
vt 0.362517 0.712287
vt 0.618985 0.000000
vt 0.653525 0.002459
vt 0.618985 0.319151
vt 0.273405 0.376394
vt 0.273405 0.722838
vt 0.427866 0.076748
vt 0.457871 0.080694
vt 0.449449 0.299394
vt 0.418129 0.296230
vt 0.503792 0.000000
vt 0.477710 0.350868
vt 0.584445 0.361419
vt 0.618985 0.363878
vt 0.618985 0.683029
vt 0.584445 0.680570
vt 0.388598 0.014975
vt 0.388598 0.361419
vt 0.579718 0.076748
vt 0.589454 0.296230
vt 0.558135 0.299394
vt 0.549713 0.080694
vt 0.529874 0.350868
vt 0.503792 0.000000
vt 0.423139 0.361419
vt 0.423138 0.680570
vt 0.388598 0.683029
vt 0.388598 0.363878
vt 0.618985 0.014975
vt 0.618985 0.361419
s 0
usemtl Материал
f 59/1/1 55/2/1 4/3/1 9/4/1
f 39/5/2 35/6/2 8/7/2 11/8/2
f 76/9/3 70/10/3 6/11/3 12/12/3
f 50/13/4 46/14/4 2/15/4 10/16/4
f 41/17/5 7/18/5 15/19/5 42/20/5
f 82/21/6 75/22/6 2/23/6 46/24/6
f 71/25/7 1/26/7 10/27/7 69/28/7
f 47/29/7 3/30/7 9/31/7 45/32/7
f 57/33/7 7/34/7 11/35/7 56/36/7
f 37/37/7 5/38/7 12/39/7 36/40/7
f 80/41/7 78/42/7 16/43/7 38/44/7
f 77/45/8 5/38/8 16/46/8 78/47/8
f 61/48/9 3/30/9 13/49/9 62/50/9
f 51/51/10 1/26/10 14/52/10 52/53/10
f 37/37/10 22/54/10 24/55/10 38/56/10
f 81/57/7 73/58/7 24/59/7 52/60/7
f 51/51/7 22/54/7 19/61/7 50/62/7
f 41/17/7 21/63/7 17/64/7 39/65/7
f 79/66/6 74/67/6 20/68/6 40/69/6
f 47/29/5 21/63/5 23/70/5 48/71/5
f 36/72/4 40/73/4 20/74/4 19/75/4
f 45/76/2 49/77/2 18/78/2 17/79/2
f 66/80/6 64/81/6 34/82/6 43/83/6
f 68/84/7 63/85/7 33/86/7 53/87/7
f 71/25/9 29/88/9 31/89/9 72/90/9
f 57/33/8 30/91/8 32/92/8 58/93/8
f 65/94/7 58/95/7 32/96/7 44/97/7
f 77/45/7 30/91/7 27/98/7 76/99/7
f 61/48/7 29/88/7 25/100/7 59/101/7
f 67/102/6 55/103/6 26/104/6 54/105/6
f 56/106/3 60/107/3 28/108/3 27/109/3
f 69/110/1 75/111/1 26/112/1 25/113/1
f 63/85/7 65/94/7 44/97/7 33/86/7
f 60/114/6 66/80/6 43/83/6 28/115/6
f 12/116/4 6/117/4 40/73/4 36/72/4
f 70/118/6 79/66/6 40/69/6 6/119/6
f 7/18/7 41/17/7 39/65/7 11/120/7
f 5/38/10 37/37/10 38/56/10 16/46/10
f 73/58/7 80/41/7 38/44/7 24/59/7
f 22/54/7 37/37/7 36/40/7 19/61/7
f 21/63/5 41/17/5 42/20/5 23/70/5
f 17/79/2 18/78/2 35/6/2 39/5/2
f 64/81/6 67/102/6 54/105/6 34/82/6
f 62/121/7 68/84/7 53/87/7 31/122/7
f 9/123/2 4/124/2 49/77/2 45/76/2
f 3/30/5 47/29/5 48/71/5 13/49/5
f 1/26/7 51/51/7 50/62/7 10/27/7
f 72/125/7 81/57/7 52/60/7 14/126/7
f 22/54/10 51/51/10 52/53/10 24/55/10
f 21/63/7 47/29/7 45/32/7 17/64/7
f 74/67/6 82/21/6 46/24/6 20/68/6
f 19/75/4 20/74/4 46/14/4 50/13/4
f 13/127/7 48/128/7 68/84/7 62/121/7
f 18/129/6 49/130/6 67/102/6 64/81/6
f 8/131/6 35/132/6 66/80/6 60/114/6
f 23/133/7 42/134/7 65/94/7 63/85/7
f 11/135/3 8/136/3 60/107/3 56/106/3
f 49/130/6 4/137/6 55/103/6 67/102/6
f 3/30/7 61/48/7 59/101/7 9/31/7
f 42/134/7 15/138/7 58/95/7 65/94/7
f 7/34/8 57/33/8 58/93/8 15/139/8
f 48/128/7 23/133/7 63/85/7 68/84/7
f 35/132/6 18/129/6 64/81/6 66/80/6
f 29/88/9 61/48/9 62/50/9 31/89/9
f 30/91/7 57/33/7 56/36/7 27/98/7
f 25/113/1 26/112/1 55/2/1 59/1/1
f 34/82/6 54/105/6 82/21/6 74/67/6
f 31/122/7 53/87/7 81/57/7 72/125/7
f 33/86/7 44/97/7 80/41/7 73/58/7
f 28/115/6 43/83/6 79/66/6 70/118/6
f 10/140/1 2/141/1 75/111/1 69/110/1
f 5/38/7 77/45/7 76/99/7 12/39/7
f 1/26/9 71/25/9 72/90/9 14/52/9
f 43/83/6 34/82/6 74/67/6 79/66/6
f 53/87/7 33/86/7 73/58/7 81/57/7
f 30/91/8 77/45/8 78/47/8 32/92/8
f 44/97/7 32/96/7 78/42/7 80/41/7
f 29/88/7 71/25/7 69/28/7 25/100/7
f 54/105/6 26/104/6 75/22/6 82/21/6
f 27/109/3 28/108/3 70/10/3 76/9/3
f 96/142/11 91/143/11 92/144/11 95/145/11
f 95/146/12 92/147/12 93/148/12 97/149/12
f 97/149/13 93/150/13 94/151/13 98/146/13
f 98/152/14 94/153/14 91/154/14 96/155/14
f 84/156/6 86/157/6 92/144/6 91/143/6
f 86/158/6 90/159/6 93/148/6 92/147/6
f 90/160/6 88/161/6 94/151/6 93/150/6
f 88/162/6 84/163/6 91/154/6 94/153/6
f 85/164/7 83/165/7 96/166/7 95/167/7
f 89/168/7 85/164/7 95/167/7 97/169/7
f 87/170/7 89/168/7 97/169/7 98/15/7
f 83/165/7 87/171/7 98/172/7 96/166/7
f 88/173/15 87/174/15 83/175/15 84/176/15
f 84/177/16 83/178/16 85/179/16 86/180/16
f 86/181/17 85/182/17 89/183/17 90/184/17
f 90/185/18 89/186/18 87/187/18 88/188/18
f 99/189/19 100/190/19 102/191/19 101/192/19
f 101/192/20 102/191/20 106/193/20 105/194/20
f 105/195/21 106/196/21 104/197/21 103/198/21
f 103/199/22 104/200/22 100/190/22 99/189/22
f 101/192/7 105/194/7 103/199/7 99/189/7
f 106/193/6 102/191/6 100/190/6 104/200/6
f 107/201/23 109/202/23 110/203/23 108/204/23
f 109/202/20 113/205/20 114/206/20 110/203/20
f 113/207/24 111/208/24 112/195/24 114/209/24
f 111/210/22 107/201/22 108/204/22 112/211/22
f 109/202/7 107/201/7 111/210/7 113/205/7
f 114/206/6 112/211/6 108/204/6 110/203/6
f 115/212/19 117/213/19 118/214/19 116/215/19
f 117/213/25 121/216/25 122/217/25 118/214/25
f 121/218/21 119/219/21 120/220/21 122/221/21
f 119/222/26 115/212/26 116/215/26 120/223/26
f 117/213/7 115/212/7 119/222/7 121/216/7
f 122/217/6 120/223/6 116/215/6 118/214/6
f 123/224/23 124/225/23 126/226/23 125/227/23
f 125/227/25 126/226/25 130/228/25 129/229/25
f 129/230/24 130/231/24 128/232/24 127/233/24
f 127/234/26 128/235/26 124/225/26 123/224/26
f 125/227/7 129/229/7 127/234/7 123/224/7
f 130/228/6 126/226/6 124/225/6 128/235/6
