# Blender 4.2.2 LTS
# www.blender.org
mtllib streetlight.mtl
o streetlight
v 0.092382 35.769302 11.327322
v 0.567930 36.026936 11.976467
v -0.039647 35.979771 12.362932
v -0.536291 36.125771 11.473545
v -0.061370 36.868599 10.489616
v 0.551852 36.331554 10.911499
v 0.220461 36.353374 12.429297
v -0.287093 36.377331 12.116856
v -0.435232 36.941673 10.897689
v 0.317909 36.901451 10.537482
v 0.773485 36.658646 11.452040
v 0.090172 36.907875 11.501946
v -0.010464 35.848076 11.991215
v 0.387014 35.795403 11.670567
v 0.214288 35.956478 12.317851
v 0.665195 36.049026 11.362898
v 0.359949 35.876575 11.089214
v -0.329509 35.873486 11.351874
v -0.364327 35.969009 12.015585
v -0.014787 35.977665 10.903503
v -0.319113 36.116093 11.000651
v 0.273062 36.799118 10.524773
v 0.688788 36.281925 11.753079
v 0.595483 36.644024 11.048829
v 0.090348 36.170567 12.541111
v 0.369115 36.163349 12.357521
v -0.509491 36.252190 11.742214
v -0.188048 36.161556 12.357224
v -0.258081 36.695408 10.612363
v -0.546928 36.555710 11.090631
v 0.477834 36.929497 10.559047
v 0.093343 36.752609 10.333841
v 0.450414 36.425312 12.099882
v -0.033327 36.395279 12.395666
v -0.567572 36.698902 11.458055
v -0.115790 36.808823 10.637134
v 0.616934 36.736015 11.017137
v 0.173970 36.580441 12.125253
v 0.496255 36.818726 11.487395
v -0.208517 36.785820 11.836969
v -0.250075 36.793720 11.140699
v 0.250206 36.969242 10.962976
v 0.078331 37.235016 9.224087
v 0.078331 37.266590 9.683006
v 0.229487 37.163006 9.215474
v 0.253386 37.183605 9.679995
v 0.291709 36.990139 9.154877
v 0.325870 36.983337 9.672784
v 0.229487 36.817150 9.079453
v 0.253386 36.783066 9.665654
v 0.078331 36.742020 9.074873
v 0.078331 36.680878 9.662039
v -0.072825 36.817150 9.079453
v -0.096725 36.783066 9.665654
v -0.135047 36.990139 9.154877
v -0.169208 36.983337 9.672784
v -0.072825 37.163006 9.215474
v -0.096725 37.183605 9.679995
v 0.765667 37.241112 11.147787
v 0.078138 37.442051 11.167402
v 1.050451 36.756004 11.100431
v 0.765667 36.270901 11.053076
v -0.609391 36.270901 11.053076
v -0.894175 36.756004 11.100431
v -0.609391 37.241112 11.147787
v 0.231247 36.367149 12.568161
v 0.078331 36.402287 12.580164
v 0.294587 36.186615 12.529181
v 0.095528 36.173050 10.332904
v 0.078331 36.164284 12.624944
v -0.137925 36.186615 12.529181
v 0.110892 36.143314 10.757684
v -0.074585 36.367149 12.568161
v -0.392372 36.507885 10.247890
v 0.549196 36.507431 10.248990
v 0.078138 36.842026 11.138859
v 0.573186 36.728161 11.127408
v -0.416910 36.728161 11.127408
v 0.078331 36.998474 9.938555
v 0.078331 36.277901 12.483359
v 0.212293 37.082008 9.930053
v -0.055631 37.082008 9.930053
v -0.370227 36.838001 11.974929
v 0.712687 36.505177 11.931762
v 0.078331 36.975861 11.992809
v 0.526888 36.838001 11.974929
v -0.556025 36.505177 11.931762
v 0.749617 36.966892 10.417947
v -0.593260 36.966892 10.417959
v -0.396891 37.349934 10.446955
v 0.553253 37.349930 10.446946
v 0.078184 37.507889 10.457610
v -0.560337 36.223122 11.889795
v 0.752807 36.229561 11.777067
v 0.075511 25.495491 -3.826348
v 0.075512 37.143494 9.636624
v 0.210015 25.497093 -3.770658
v 0.210016 37.088188 9.629901
v 0.265729 25.500957 -3.636210
v 0.265729 36.954666 9.613667
v 0.210015 25.504822 -3.501762
v 0.210016 36.821144 9.597432
v 0.075511 25.506420 -3.446072
v 0.075513 36.765842 9.590708
v -0.058992 25.504820 -3.501760
v -0.058991 36.821148 9.597431
v -0.114705 25.500957 -3.636210
v -0.114704 36.954666 9.613667
v -0.058992 25.497093 -3.770658
v -0.058991 37.088188 9.629901
v 0.075512 35.319145 0.237510
v 0.210015 35.274021 0.270186
v 0.265729 35.165081 0.349074
v 0.210015 35.056141 0.427963
v 0.075512 35.011017 0.460640
v -0.058991 35.056141 0.427963
v -0.114704 35.165081 0.349074
v -0.058991 35.274021 0.270186
v 0.075512 37.222458 5.581085
v 0.210016 37.167065 5.587077
v 0.265729 37.033344 5.601542
v 0.210016 36.899620 5.616008
v 0.075512 36.844231 5.621999
v -0.058991 36.899620 5.616008
v -0.114704 37.033344 5.601542
v -0.058991 37.167065 5.587077
v 0.210016 29.864054 -3.373883
v 0.265729 29.829426 -3.243913
v 0.210016 29.794800 -3.113942
v 0.075513 29.780457 -3.060106
v -0.058991 29.794800 -3.113942
v -0.114704 29.829426 -3.243913
v -0.058991 29.864054 -3.373883
v 0.075512 29.878399 -3.427717
v 0.210016 27.465960 -3.777822
v 0.265728 27.455772 -3.643703
v 0.210016 27.445587 -3.509586
v 0.075512 27.441368 -3.454034
v -0.058991 27.445587 -3.509585
v -0.114704 27.455772 -3.643703
v -0.058991 27.465960 -3.777822
v 0.075512 27.470179 -3.833373
v 0.075512 32.752083 -2.205485
v 0.210015 32.722256 -2.158428
v 0.265728 32.650249 -2.044822
v 0.210015 32.578247 -1.931215
v 0.075512 32.548420 -1.884158
v -0.058992 32.578247 -1.931215
v -0.114705 32.650249 -2.044822
v -0.058992 32.722256 -2.158428
v 0.210016 36.668442 3.089573
v 0.265729 36.540531 3.131153
v 0.210016 36.412613 3.172733
v 0.075512 36.359631 3.189957
v -0.058991 36.412613 3.172733
v -0.114704 36.540531 3.131153
v -0.058991 36.668442 3.089573
v 0.075512 36.721428 3.072349
v 0.075512 37.294720 7.740964
v 0.210016 37.239029 7.739332
v 0.265729 37.104584 7.735392
v 0.210016 36.970139 7.731451
v 0.075513 36.914448 7.729819
v -0.058991 36.970139 7.731452
v -0.114704 37.104584 7.735392
v -0.058991 37.239029 7.739332
v 0.075512 28.610502 -3.728910
v 0.210015 28.601866 -3.673870
v 0.265728 28.581013 -3.540993
v 0.210016 28.560162 -3.408115
v 0.075512 28.551525 -3.353077
v -0.058991 28.560162 -3.408114
v -0.114705 28.581013 -3.540993
v -0.058992 28.601866 -3.673870
v 0.210016 31.348009 -2.854061
v 0.265728 31.294420 -2.730694
v 0.210016 31.240833 -2.607326
v 0.075513 31.218637 -2.556226
v -0.058991 31.240833 -2.607326
v -0.114704 31.294420 -2.730694
v -0.058991 31.348009 -2.854061
v 0.075512 31.370205 -2.905161
v 0.075512 34.172955 -1.091889
v 0.210015 34.134651 -1.051435
v 0.265728 34.042171 -0.953768
v 0.210015 33.949688 -0.856102
v 0.075512 33.911385 -0.815647
v -0.058992 33.949688 -0.856102
v -0.114705 34.042171 -0.953768
v -0.058992 34.134651 -1.051435
v 0.075512 37.102699 4.448916
v 0.210016 37.047947 4.459220
v 0.265729 36.915764 4.484096
v 0.210016 36.783577 4.508972
v 0.075512 36.728828 4.519276
v -0.058991 36.783577 4.508972
v -0.114704 36.915764 4.484096
v -0.058991 37.047947 4.459220
v 0.210016 36.186317 1.738934
v 0.265729 36.064903 1.796817
v 0.210016 35.943493 1.854701
v 0.075512 35.893204 1.878677
v -0.058991 35.943493 1.854701
v -0.114704 36.064903 1.796817
v -0.058991 36.186317 1.738934
v 0.075512 36.236607 1.714956
v 0.210016 37.251163 6.718722
v 0.265729 37.116722 6.722688
v 0.210016 36.982273 6.726654
v 0.075512 36.926586 6.728296
v -0.058991 36.982273 6.726654
v -0.114704 37.116722 6.722688
v -0.058991 37.251163 6.718722
v 0.075512 37.306854 6.717079
v 0.075513 37.225193 8.689253
v 0.210016 37.169640 8.685071
v 0.265729 37.035515 8.674973
v 0.210016 36.901390 8.664874
v 0.075512 36.845833 8.660692
v -0.058991 36.901390 8.664874
v -0.114704 37.035515 8.674973
v -0.058991 37.169640 8.685071
v 0.210015 26.413467 -3.792042
v 0.265729 26.411898 -3.657549
v 0.210015 26.410330 -3.523055
v 0.075512 26.409679 -3.467344
v -0.058991 26.410330 -3.523055
v -0.114704 26.411898 -3.657549
v -0.058991 26.413467 -3.792043
v 0.075512 26.414118 -3.847754
v 0.075514 0.411522 -4.873056
v 0.075514 27.947733 -4.708950
v 0.465125 0.411510 -4.711676
v 0.349083 27.947735 -4.595634
v 0.626507 0.411514 -4.322063
v 0.462399 27.947733 -4.322064
v 0.465125 0.411514 -3.932453
v 0.349083 27.947733 -4.048496
v 0.075514 0.411514 -3.771070
v 0.075514 27.947735 -3.935181
v -0.314097 0.411514 -3.932453
v -0.198055 27.947733 -4.048496
v -0.475480 0.411514 -4.322063
v -0.311371 27.947733 -4.322064
v -0.314097 0.411510 -4.711676
v -0.198055 27.947735 -4.595634
v 0.075514 0.007076 -5.306665
v 0.075514 2.512047 -5.082844
v 0.771732 0.007080 -5.018284
v 0.613466 2.512051 -4.860018
v 1.060115 0.007080 -4.322065
v 0.836293 2.512047 -4.322065
v 0.771732 0.007080 -3.625847
v 0.613466 2.512051 -3.784113
v 0.075514 0.007080 -3.337463
v 0.075514 2.512047 -3.561286
v -0.620704 0.007080 -3.625847
v -0.462439 2.512051 -3.784113
v -0.909087 0.007080 -4.322065
v -0.685266 2.512047 -4.322065
v -0.620704 0.007080 -5.018284
v -0.462439 2.512051 -4.860018
v 0.075514 0.345867 -5.082844
v 0.613466 0.345867 -4.860018
v 0.836293 0.345867 -4.322064
v 0.613466 0.345863 -3.784113
v 0.075514 0.345867 -3.561285
v -0.462439 0.345863 -3.784113
v -0.685266 0.345867 -4.322064
v -0.462439 0.345867 -4.860018
v -0.364596 26.237888 -3.383737
v -0.364596 27.062920 -3.383738
v -0.364596 26.237888 -4.897087
v -0.364596 27.062920 -4.897087
v 0.515623 26.237888 -3.383737
v 0.515623 27.062920 -3.383738
v 0.515623 26.237888 -4.897087
v 0.515623 27.062920 -4.897087
vn -0.0418 -0.9929 0.1113
vn 0.7235 -0.6844 0.0901
vn -0.2347 -0.9689 0.0786
vn -0.2427 -0.8935 -0.3779
vn -0.0269 -0.8998 -0.4356
vn 0.9362 -0.3239 0.1367
vn 0.0613 -0.7032 0.7083
vn -0.9378 -0.2685 0.2199
vn -0.0311 -0.5542 -0.8318
vn 0.4065 -0.4261 -0.8082
vn 0.8849 -0.0114 0.4657
vn -0.5002 -0.3840 0.7761
vn -0.9959 0.0450 0.0782
vn 0.6288 -0.1778 0.7569
vn 0.9684 -0.0263 -0.2479
vn 0.4615 0.7432 0.4845
vn -0.6523 0.5098 0.5609
vn 0.1570 0.8922 0.4236
vn -0.2467 0.9501 -0.1906
vn 0.4975 0.8671 -0.0248
vn 0.2171 0.9605 0.1738
vn 0.5377 0.8431 -0.0103
vn 0.5410 0.8396 -0.0477
vn -0.3278 0.9447 0.0102
vn -0.3510 0.9341 -0.0656
vn 0.4845 0.8609 0.1550
vn -0.3477 0.9371 0.0314
vn -0.2616 0.9648 0.0266
vn -0.6838 0.4973 0.5339
vn 0.1388 0.8843 0.4459
vn 0.0109 0.8212 0.5706
vn 0.0543 0.8040 0.5921
vn 0.2081 0.8771 0.4328
vn 0.4573 0.7323 0.5046
vn 0.4801 0.7213 0.4992
vn 0.8679 -0.3303 -0.3712
vn 0.8520 -0.3368 -0.4009
vn -0.2121 0.8755 0.4342
vn -0.2724 0.8948 -0.3537
vn -0.4958 0.7261 -0.4764
vn -0.3462 0.5931 -0.7269
vn -0.9677 0.2116 -0.1368
vn -0.9913 -0.1317 -0.0044
vn -0.8711 0.1779 0.4577
vn -0.7007 0.3628 0.6144
vn -0.5420 0.2256 0.8095
vn -0.0238 0.5339 0.8452
vn 0.7305 0.3500 0.5864
vn 0.8440 0.2194 0.4894
vn 0.8441 0.2058 0.4951
vn -0.0761 0.8431 -0.5323
vn 0.5459 -0.7718 -0.3259
vn -0.2268 -0.8755 0.4267
vn -0.8543 -0.0125 -0.5196
vn -0.7793 -0.2902 -0.5554
vn -0.8499 -0.3621 -0.3829
vn -0.8710 0.1284 0.4742
vn -0.8867 -0.0083 0.4622
vn -0.6277 -0.4935 0.6020
vn 0.5484 0.1162 0.8281
vn 0.4699 -0.4922 0.7328
vn 0.6264 -0.5706 0.5311
vn 0.8186 -0.4595 -0.3447
vn 0.9931 0.0644 -0.0985
vn 0.9663 -0.0222 -0.2565
vn 0.3489 -0.4650 -0.8137
vn 0.2815 -0.4814 -0.8301
vn 0.0079 -0.4210 -0.9070
vn -0.4382 -0.3975 -0.8063
vn -0.4857 -0.7124 -0.5065
vn -0.7994 -0.4830 -0.3573
vn -0.7595 -0.6483 0.0535
vn -0.3138 -0.9420 0.1191
vn -0.2900 -0.9090 0.2993
vn 0.7183 -0.4942 -0.4897
vn 0.5787 -0.8036 -0.1391
vn 0.2540 -0.9562 -0.1453
vn -0.0276 -0.9429 0.3319
vn 0.0836 -0.9616 0.2616
vn 0.4808 -0.8122 0.3304
vn 0.4265 0.9024 -0.0620
vn 0.9353 0.3486 -0.0602
vn 0.9431 -0.3267 -0.0617
vn 0.4776 -0.8749 -0.0807
vn -0.4776 -0.8749 -0.0807
vn -0.9431 -0.3267 -0.0617
vn 0.8387 -0.2132 -0.5011
vn -0.9353 0.3486 -0.0602
vn -0.4265 0.9024 -0.0620
vn -0.0000 0.3285 -0.9445
vn -0.7417 0.2611 0.6178
vn -0.8386 -0.2129 -0.5015
vn -0.3709 -0.5984 0.7102
vn -0.8489 0.4883 -0.2022
vn 0.8489 0.4883 -0.2021
vn 0.8947 -0.4161 0.1622
vn -0.2959 0.9524 0.0733
vn 0.2959 0.9524 0.0734
vn 0.2816 0.0559 0.9579
vn 0.1929 -0.7653 -0.6141
vn 0.9298 -0.3379 0.1461
vn 0.2344 0.6982 0.6764
vn -0.2344 0.6982 0.6764
vn -0.9227 -0.3549 0.1507
vn -0.7377 -0.6185 -0.2707
vn 0.7417 0.2611 0.6178
vn -0.2816 0.0559 0.9579
vn 0.4137 -0.8705 -0.2667
vn -0.4130 -0.7283 -0.5468
vn 0.4262 -0.7156 -0.5534
vn -0.3841 -0.8873 -0.2554
vn -0.0535 -0.9783 -0.2002
vn 0.0535 -0.9783 -0.2001
vn 0.2388 -0.8922 -0.3835
vn -0.2388 -0.8922 -0.3834
vn 0.7376 -0.6184 -0.2709
vn -0.1929 -0.7653 -0.6141
vn -0.8948 -0.4159 0.1621
vn 0.3709 -0.5984 0.7102
vn 0.7987 0.4109 0.4397
vn -0.2654 0.8369 0.4787
vn 0.2654 0.8370 0.4786
vn -0.7986 0.4108 0.4399
vn 0.3259 0.8964 -0.3004
vn -0.3259 0.8964 -0.3005
vn 0.8106 0.4001 -0.4276
vn -0.8105 0.4001 -0.4278
vn 0.8494 -0.3449 -0.3994
vn -0.8494 -0.3449 -0.3995
vn -0.8342 -0.0687 0.5472
vn 0.8469 -0.1612 0.5068
vn 0.3826 0.9205 0.0794
vn 0.9238 0.3814 0.0329
vn 0.9238 -0.3814 -0.0328
vn 0.3826 -0.9205 -0.0792
vn -0.3826 -0.9205 -0.0792
vn -0.9238 -0.3814 -0.0328
vn -0.0000 -0.1207 0.9927
vn -0.9238 0.3814 0.0329
vn -0.3826 0.9205 0.0794
vn -0.0000 -0.9996 0.0287
vn -0.3812 0.7002 -0.6037
vn -0.9233 0.2909 -0.2508
vn -0.9233 -0.2910 0.2508
vn -0.3813 -0.7003 0.6034
vn 0.3813 -0.7003 0.6034
vn 0.9233 -0.2910 0.2508
vn 0.9233 0.2909 -0.2508
vn 0.3812 0.7002 -0.6037
vn -0.3822 0.9190 -0.0971
vn -0.9237 0.3811 -0.0402
vn -0.9237 -0.3811 0.0400
vn -0.3821 -0.9191 0.0963
vn 0.3821 -0.9191 0.0963
vn 0.9237 -0.3811 0.0400
vn 0.9237 0.3811 -0.0402
vn 0.3822 0.9190 -0.0971
vn 0.3821 0.2136 -0.8991
vn 0.9237 0.0887 -0.3728
vn 0.9236 -0.0888 0.3728
vn 0.3821 -0.2142 0.8989
vn -0.3821 -0.2142 0.8989
vn -0.9236 -0.0888 0.3728
vn -0.9237 0.0887 -0.3728
vn -0.3821 0.2136 -0.8991
vn -0.3824 0.0125 -0.9239
vn -0.9237 0.0051 -0.3830
vn -0.9237 -0.0050 0.3830
vn -0.3824 -0.0120 0.9239
vn 0.3824 -0.0120 0.9239
vn 0.9237 -0.0050 0.3830
vn 0.9237 0.0051 -0.3830
vn 0.3824 0.0125 -0.9239
vn 0.3816 0.4175 -0.8247
vn 0.9234 0.1733 -0.3424
vn 0.9234 -0.1732 0.3424
vn 0.3816 -0.4170 0.8249
vn -0.3816 -0.4170 0.8249
vn -0.9234 -0.1732 0.3424
vn -0.9234 0.1733 -0.3424
vn -0.3816 0.4175 -0.8247
vn 0.3818 0.8704 -0.3108
vn 0.9235 0.3613 -0.1289
vn 0.9235 -0.3614 0.1287
vn 0.3817 -0.8708 0.3098
vn -0.3817 -0.8708 0.3098
vn -0.9235 -0.3614 0.1287
vn -0.9235 0.3613 -0.1289
vn -0.3818 0.8704 -0.3108
vn -0.3826 0.9239 0.0110
vn -0.9238 0.3828 0.0046
vn -0.9238 -0.3828 -0.0046
vn -0.3825 -0.9239 -0.0112
vn 0.3825 -0.9239 -0.0112
vn 0.9238 -0.3828 -0.0046
vn 0.9238 0.3828 0.0046
vn 0.3826 0.9239 0.0110
vn -0.3823 0.0843 -0.9202
vn -0.9237 0.0349 -0.3815
vn -0.9237 -0.0348 0.3815
vn -0.3823 -0.0837 0.9202
vn 0.3823 -0.0837 0.9202
vn 0.9237 -0.0348 0.3815
vn 0.9237 0.0349 -0.3815
vn 0.3823 0.0843 -0.9202
vn -0.3818 0.3056 -0.8723
vn -0.9235 0.1268 -0.3620
vn -0.9235 -0.1268 0.3620
vn -0.3818 -0.3056 0.8723
vn 0.3818 -0.3056 0.8723
vn 0.9235 -0.1268 0.3620
vn 0.9235 0.1268 -0.3620
vn 0.3818 0.3056 -0.8723
vn 0.3812 0.5703 -0.7277
vn 0.9232 0.2370 -0.3024
vn 0.9232 -0.2370 0.3024
vn 0.3811 -0.5704 0.7276
vn -0.3811 -0.5704 0.7276
vn -0.9232 -0.2370 0.3024
vn -0.9232 0.2370 -0.3024
vn -0.3812 0.5703 -0.7276
vn 0.3820 0.8906 -0.2467
vn 0.9236 0.3695 -0.1024
vn 0.9236 -0.3695 0.1025
vn 0.3819 -0.8905 0.2473
vn -0.3819 -0.8905 0.2473
vn -0.9236 -0.3695 0.1025
vn -0.9236 0.3695 -0.1024
vn -0.3820 0.8906 -0.2467
vn -0.3813 0.7853 -0.4877
vn -0.9233 0.3262 -0.2027
vn -0.9233 -0.3262 0.2028
vn -0.3813 -0.7850 0.4883
vn 0.3813 -0.7850 0.4883
vn 0.9233 -0.3262 0.2028
vn 0.9233 0.3262 -0.2027
vn 0.3813 0.7853 -0.4877
vn 0.3824 0.9214 -0.0685
vn 0.9238 0.3819 -0.0284
vn 0.9238 -0.3819 0.0284
vn 0.3825 -0.9214 0.0686
vn -0.3825 -0.9214 0.0686
vn -0.9238 -0.3819 0.0284
vn -0.9238 0.3819 -0.0284
vn -0.3824 0.9214 -0.0685
vn -0.3825 0.9215 0.0676
vn -0.9238 0.3818 0.0280
vn -0.9238 -0.3818 -0.0281
vn -0.3825 -0.9214 -0.0679
vn 0.3825 -0.9215 -0.0679
vn 0.9238 -0.3818 -0.0281
vn 0.9238 0.3818 0.0280
vn 0.3825 0.9215 0.0676
vn 0.3826 -0.0215 -0.9237
vn 0.9238 -0.0089 -0.3827
vn 0.9238 0.0090 0.3827
vn 0.3826 0.0217 0.9237
vn -0.3826 0.0217 0.9237
vn -0.9238 0.0090 0.3827
vn -0.9238 -0.0089 -0.3827
vn -0.3826 -0.0215 -0.9237
vn 0.3827 0.0055 -0.9239
vn 0.9239 0.0055 -0.3827
vn 0.9239 0.0055 0.3827
vn 0.3827 0.0055 0.9239
vn -0.3827 0.0055 0.9239
vn -0.9239 0.0055 0.3827
vn -0.0000 1.0000 -0.0000
vn -0.9239 0.0055 -0.3827
vn -0.3827 0.0055 -0.9239
vn -0.0000 -1.0000 -0.0000
vn 0.3827 -0.0000 -0.9239
vn 0.9239 -0.0000 -0.3827
vn 0.9239 -0.0000 0.3827
vn 0.3827 -0.0000 0.9239
vn -0.3827 -0.0000 0.9239
vn -0.9239 -0.0000 0.3827
vn -0.9239 -0.0000 -0.3827
vn -0.3827 -0.0000 -0.9239
vn -0.3266 0.5210 -0.7886
vn -0.7886 0.5210 -0.3266
vn -0.7886 0.5210 0.3266
vn -0.3266 0.5210 0.7886
vn 0.3266 0.5210 0.7886
vn 0.7886 0.5210 0.3266
vn 0.7886 0.5210 -0.3266
vn 0.3266 0.5210 -0.7886
vn -1.0000 -0.0000 -0.0000
vn -0.0000 -0.0000 -1.0000
vn 1.0000 -0.0000 -0.0000
vn -0.0000 -0.0000 1.0000
vt 0.741158 0.166004
vt 0.751684 0.181099
vt 0.725321 0.190835
vt 0.769580 0.206365
vt 0.778018 0.175342
vt 0.719029 0.157287
vt 0.743055 0.146565
vt 0.755985 0.162458
vt 0.811174 0.209877
vt 0.713958 0.218355
vt 0.736990 0.218342
vt 0.719480 0.258471
vt 0.682122 0.143453
vt 0.693595 0.186920
vt 0.625399 0.156546
vt 0.783733 0.035740
vt 0.718239 0.128182
vt 0.756996 0.042578
vt 0.797996 0.139506
vt 0.837748 0.034813
vt 0.896205 0.039445
vt 0.757918 0.249230
vt 0.683206 0.237077
vt 0.676169 0.049233
vt 0.792637 0.003191
vt 0.874474 0.130890
vt 0.991048 0.739602
vt 0.951792 0.766882
vt 0.947842 0.718531
vt 0.993269 0.654005
vt 0.993776 0.701532
vt 0.924837 0.670375
vt 0.885794 0.620728
vt 0.920647 0.625127
vt 0.887013 0.642591
vt 0.805722 0.679544
vt 0.845652 0.624909
vt 0.851980 0.689119
vt 0.870365 0.776952
vt 0.827851 0.749009
vt 0.879913 0.731268
vt 0.893624 0.689166
vt 0.820818 0.767616
vt 0.792636 0.700875
vt 0.799649 0.623425
vt 0.848491 0.591449
vt 0.913785 0.576173
vt 0.993776 0.591650
vt 0.678860 0.310781
vt 0.623384 0.254728
vt 0.743109 0.308417
vt 0.816034 0.286139
vt 0.896205 0.193941
vt 0.410276 0.628157
vt 0.410276 0.580509
vt 0.425990 0.580953
vt 0.423843 0.629163
vt 0.441658 0.582220
vt 0.437035 0.635888
vt 0.457263 0.584107
vt 0.449808 0.644666
vt 0.473399 0.586449
vt 0.463307 0.646858
vt 0.357244 0.646858
vt 0.347152 0.586449
vt 0.363288 0.584107
vt 0.370743 0.644666
vt 0.378893 0.582220
vt 0.383516 0.635888
vt 0.003231 0.592592
vt 0.009920 0.577010
vt 0.095569 0.598301
vt 0.067746 0.629298
vt 0.394561 0.580953
vt 0.396708 0.629163
vt 0.057698 0.499418
vt 0.058133 0.485820
vt 0.069456 0.476279
vt 0.084949 0.475887
vt 0.093957 0.486178
vt 0.093700 0.499851
vt 0.081600 0.509536
vt 0.066793 0.509536
vt 0.322118 0.512870
vt 0.327256 0.541142
vt 0.251397 0.545314
vt 0.250681 0.530275
vt 0.564297 0.490403
vt 0.570969 0.506094
vt 0.506080 0.542709
vt 0.478129 0.511344
vt 0.396290 0.003188
vt 0.401124 0.018759
vt 0.364791 0.018759
vt 0.361742 0.006431
vt 0.475497 0.478949
vt 0.411852 0.531394
vt 0.407333 0.495434
vt 0.098372 0.565976
vt 0.166534 0.582836
vt 0.161812 0.619463
vt 0.163529 0.724189
vt 0.250704 0.732807
vt 0.318008 0.752190
vt 0.293347 0.777560
vt 0.164416 0.760851
vt 0.478642 0.436305
vt 0.397239 0.436305
vt 0.095343 0.523395
vt 0.176704 0.523395
vt 0.323323 0.618540
vt 0.332121 0.608664
vt 0.343304 0.625054
vt 0.322283 0.633605
vt 0.002698 0.801305
vt 0.013480 0.783097
vt 0.020179 0.802248
vt 0.154403 0.659506
vt 0.247133 0.627561
vt 0.234743 0.651068
vt 0.252384 0.599602
vt 0.269496 0.562588
vt 0.305297 0.475716
vt 0.242128 0.520268
vt 0.418032 0.572776
vt 0.326737 0.562362
vt 0.290626 0.651937
vt 0.364142 0.667489
vt 0.440936 0.710821
vt 0.289882 0.688564
vt 0.230646 0.536347
vt 0.849227 0.583617
vt 0.799435 0.545105
vt 0.803766 0.501083
vt 0.849227 0.496078
vt 0.023881 0.611456
vt 0.050887 0.686399
vt 0.002945 0.682059
vt 0.007709 0.613534
vt 0.828404 0.425329
vt 0.844573 0.427429
vt 0.057820 0.730087
vt 0.002945 0.769724
vt 0.161473 0.718310
vt 0.161058 0.705564
vt 0.286903 0.729973
vt 0.292961 0.790319
vt 0.167445 0.802248
vt 0.434231 0.729973
vt 0.078960 0.743853
vt 0.451716 0.729034
vt 0.136364 0.680271
vt 0.203681 0.660738
vt 0.396290 0.034330
vt 0.361742 0.031087
vt 0.011669 0.560167
vt 0.009360 0.543373
vt 0.564973 0.456607
vt 0.562603 0.473473
vt 0.575830 0.108945
vt 0.575830 0.004177
vt 0.590706 0.004920
vt 0.590706 0.109408
vt 0.596889 0.006714
vt 0.596889 0.110523
vt 0.603072 0.008508
vt 0.603072 0.111638
vt 0.617948 0.009251
vt 0.617948 0.112100
vt 0.533712 0.112100
vt 0.533712 0.009251
vt 0.548588 0.008508
vt 0.548588 0.111638
vt 0.554771 0.006714
vt 0.554771 0.110523
vt 0.236846 0.038922
vt 0.236846 0.024027
vt 0.238391 0.009213
vt 0.240575 0.003157
vt 0.242120 0.009407
vt 0.242120 0.024301
vt 0.240575 0.039116
vt 0.238391 0.045172
vt 0.560954 0.004920
vt 0.560954 0.109408
vt 0.247164 0.480626
vt 0.235777 0.469246
vt 0.235772 0.453151
vt 0.247153 0.441771
vt 0.263252 0.441771
vt 0.274639 0.453151
vt 0.274644 0.469246
vt 0.263263 0.480626
vt 0.029883 0.471743
vt 0.029888 0.325591
vt 0.044758 0.329197
vt 0.044758 0.476210
vt 0.023687 0.460960
vt 0.023695 0.316883
vt 0.017492 0.450178
vt 0.017502 0.308175
vt 0.002623 0.445713
vt 0.002629 0.304567
vt 0.072025 0.450178
vt 0.072015 0.308174
vt 0.086888 0.304567
vt 0.086894 0.445713
vt 0.065830 0.460960
vt 0.065822 0.316883
vt 0.059633 0.471743
vt 0.059629 0.325591
vt 0.500359 0.156510
vt 0.500361 0.281239
vt 0.485484 0.280577
vt 0.485484 0.155372
vt 0.506542 0.159257
vt 0.506544 0.282837
vt 0.512726 0.162005
vt 0.512727 0.284435
vt 0.527601 0.163143
vt 0.527604 0.285097
vt 0.458242 0.162005
vt 0.458240 0.284435
vt 0.443364 0.285097
vt 0.443367 0.163143
vt 0.464426 0.159257
vt 0.464424 0.282837
vt 0.470609 0.156510
vt 0.470607 0.281239
vt 0.557848 0.808942
vt 0.557848 0.841441
vt 0.539626 0.846159
vt 0.545450 0.811935
vt 0.530214 0.860540
vt 0.535821 0.824162
vt 0.522051 0.873937
vt 0.525867 0.839835
vt 0.506784 0.878136
vt 0.510260 0.845966
vt 0.605436 0.845966
vt 0.608911 0.878136
vt 0.593644 0.873937
vt 0.589828 0.839835
vt 0.585481 0.860540
vt 0.579874 0.824162
vt 0.576070 0.846159
vt 0.570245 0.811935
vt 0.568496 0.799923
vt 0.567813 0.803046
vt 0.557847 0.800391
vt 0.557847 0.797351
vt 0.579376 0.807853
vt 0.577757 0.811622
vt 0.592450 0.820471
vt 0.590073 0.825119
vt 0.607534 0.830646
vt 0.605838 0.834489
vt 0.523246 0.820472
vt 0.525623 0.825119
vt 0.509857 0.834489
vt 0.508162 0.830646
vt 0.536319 0.807853
vt 0.537939 0.811622
vt 0.547199 0.799923
vt 0.547882 0.803047
vt 0.592613 0.376796
vt 0.669979 0.376796
vt 0.675159 0.391660
vt 0.598221 0.391620
vt 0.687677 0.397902
vt 0.611760 0.397895
vt 0.700206 0.404144
vt 0.625322 0.404166
vt 0.705395 0.419036
vt 0.630962 0.419016
vt 0.630962 0.334575
vt 0.705395 0.334556
vt 0.700206 0.349448
vt 0.625322 0.349426
vt 0.687677 0.355690
vt 0.611760 0.355697
vt 0.675159 0.361932
vt 0.598221 0.361972
vt 0.044758 0.165789
vt 0.044758 0.015603
vt 0.059645 0.013700
vt 0.059637 0.163141
vt 0.065834 0.009106
vt 0.065827 0.156748
vt 0.072022 0.004513
vt 0.072016 0.150354
vt 0.086906 0.002611
vt 0.086896 0.147706
vt 0.002620 0.147706
vt 0.002611 0.002611
vt 0.017494 0.004513
vt 0.017501 0.150354
vt 0.023682 0.009106
vt 0.023690 0.156748
vt 0.029871 0.013700
vt 0.029879 0.163141
vt 0.560953 0.326861
vt 0.560954 0.213994
vt 0.575830 0.213814
vt 0.575830 0.327043
vt 0.554770 0.326422
vt 0.554771 0.214429
vt 0.548587 0.325983
vt 0.548588 0.214864
vt 0.533712 0.325801
vt 0.533712 0.215044
vt 0.603072 0.325983
vt 0.603071 0.214864
vt 0.617947 0.215044
vt 0.617947 0.325801
vt 0.596889 0.326422
vt 0.596888 0.214429
vt 0.590706 0.326861
vt 0.590705 0.213994
vt 0.540522 0.361851
vt 0.534573 0.376796
vt 0.554854 0.355519
vt 0.569149 0.349219
vt 0.575100 0.334399
vt 0.569149 0.404373
vt 0.575100 0.419193
vt 0.554854 0.398073
vt 0.540522 0.391741
vt 0.793416 0.376796
vt 0.797890 0.391738
vt 0.808683 0.397976
vt 0.819469 0.404209
vt 0.823930 0.419123
vt 0.823930 0.334469
vt 0.819469 0.349383
vt 0.808683 0.355616
vt 0.797890 0.361854
vt 0.485484 0.003146
vt 0.470608 0.005049
vt 0.464424 0.009642
vt 0.458239 0.014235
vt 0.443365 0.016138
vt 0.527603 0.016138
vt 0.512729 0.014235
vt 0.506545 0.009642
vt 0.500360 0.005049
vt 0.485484 0.406211
vt 0.470607 0.406392
vt 0.464424 0.406830
vt 0.458240 0.407267
vt 0.443363 0.407448
vt 0.527605 0.407448
vt 0.512728 0.407267
vt 0.506544 0.406830
vt 0.500361 0.406392
vt 0.557847 0.793631
vt 0.544581 0.797618
vt 0.532516 0.806544
vt 0.519012 0.818154
vt 0.504975 0.827604
vt 0.610720 0.827604
vt 0.596683 0.818154
vt 0.583180 0.806543
vt 0.571114 0.797618
vt 0.267397 0.419695
vt 0.419976 0.365999
vt 0.436510 0.405681
vt 0.290944 0.476210
vt 0.290944 0.002611
vt 0.436510 0.073139
vt 0.419976 0.112822
vt 0.267397 0.059126
vt 0.408014 0.154114
vt 0.250360 0.117932
vt 0.400775 0.196489
vt 0.240051 0.178283
vt 0.398352 0.239410
vt 0.236600 0.239410
vt 0.400775 0.282331
vt 0.240051 0.300538
vt 0.887864 0.445501
vt 0.930854 0.445501
vt 0.961252 0.475899
vt 0.961252 0.518889
vt 0.930854 0.549287
vt 0.887864 0.549287
vt 0.857466 0.518889
vt 0.857466 0.475899
vt 0.408014 0.324707
vt 0.250360 0.360888
vt 0.393969 0.820670
vt 0.437261 0.863963
vt 0.437261 0.925187
vt 0.393969 0.968480
vt 0.332744 0.968480
vt 0.289452 0.925187
vt 0.289452 0.863963
vt 0.332744 0.820670
vt 0.229439 0.476210
vt 0.095664 0.476210
vt 0.095664 0.417010
vt 0.229439 0.417010
vt 0.095664 0.357810
vt 0.229439 0.357810
vt 0.095664 0.298610
vt 0.229439 0.298610
vt 0.095664 0.239410
vt 0.229439 0.239410
vt 0.095664 0.180210
vt 0.229439 0.180210
vt 0.095664 0.121010
vt 0.229439 0.121010
vt 0.829172 0.395401
vt 0.829172 0.336201
vt 0.871033 0.294340
vt 0.930233 0.294340
vt 0.972093 0.336201
vt 0.972093 0.395401
vt 0.930233 0.437261
vt 0.871033 0.437261
vt 0.095664 0.061811
vt 0.229439 0.061811
vt 0.095664 0.002611
vt 0.229439 0.002611
vt 0.133738 0.808807
vt 0.187914 0.862983
vt 0.187914 0.939600
vt 0.133738 0.993776
vt 0.057121 0.993776
vt 0.002945 0.939600
vt 0.002945 0.862983
vt 0.057121 0.808807
vt 0.238523 0.927692
vt 0.269121 0.923296
vt 0.293705 0.977150
vt 0.270340 0.997389
vt 0.249435 0.851856
vt 0.277553 0.864700
vt 0.299613 0.793957
vt 0.316324 0.819962
vt 0.373126 0.772373
vt 0.373126 0.803285
vt 0.446640 0.793957
vt 0.429928 0.819962
vt 0.496817 0.851856
vt 0.468699 0.864700
vt 0.507729 0.927691
vt 0.477131 0.923296
vt 0.475913 0.997389
vt 0.452547 0.977150
vt 0.486551 0.569500
vt 0.618896 0.641700
vt 0.691096 0.774045
vt 0.463769 0.796827
vt 0.784574 0.928729
vt 0.640420 0.928729
vt 0.640419 0.784574
vt 0.784574 0.784574
vt 0.793214 0.467382
vt 0.793214 0.621476
vt 0.670597 0.589999
vt 0.639120 0.467382
vt 0.928729 0.784574
vt 0.928729 0.928729
s 0
usemtl Материал
f 1/1/1 14/2/1 13/3/1
f 2/4/2 14/2/2 16/5/2
f 1/1/3 13/3/3 18/6/3
f 1/1/4 18/6/4 20/7/4
f 1/1/5 20/7/5 17/8/5
f 2/4/6 16/5/6 23/9/6
f 3/10/7 15/11/7 25/12/7
f 4/13/8 19/14/8 27/15/8
f 5/16/9 21/17/9 29/18/9
f 6/19/10 22/20/10 31/21/10
f 2/4/11 23/9/11 26/22/11
f 3/10/12 25/12/12 28/23/12
f 4/13/13 27/15/13 30/24/13
f 5/16/14 29/18/14 32/25/14
f 6/19/15 31/21/15 24/26/15
f 7/27/16 33/28/16 38/29/16
f 8/30/17 34/31/17 40/32/17
f 9/33/18 35/34/18 41/35/18
f 10/36/19 36/37/19 42/38/19
f 11/39/20 37/40/20 39/41/20
f 39/41/21 42/38/21 12/42/21
f 39/41/22 37/40/22 42/38/22
f 37/40/23 10/36/23 42/38/23
f 42/38/24 41/35/24 12/42/24
f 42/38/25 36/37/25 41/35/25
f 36/37/26 9/33/26 41/35/26
f 41/35/27 40/32/27 12/42/27
f 41/35/28 35/34/28 40/32/28
f 35/34/29 8/30/29 40/32/29
f 40/32/30 38/29/30 12/42/30
f 40/32/31 34/31/31 38/29/31
f 34/31/32 7/27/32 38/29/32
f 38/29/33 39/41/33 12/42/33
f 38/29/34 33/28/34 39/41/34
f 33/28/35 11/39/35 39/41/35
f 24/43/36 37/40/36 11/39/36
f 24/43/37 31/44/37 37/40/37
f 31/44/38 10/36/38 37/40/38
f 32/45/39 36/37/39 10/36/39
f 32/45/40 29/46/40 36/37/40
f 29/46/41 9/33/41 36/37/41
f 30/47/42 35/34/42 9/33/42
f 30/47/43 27/48/43 35/34/43
f 27/48/44 8/30/44 35/34/44
f 28/23/45 34/49/45 8/50/45
f 28/23/46 25/12/46 34/49/46
f 25/12/47 7/51/47 34/49/47
f 26/22/48 33/52/48 7/51/48
f 26/22/49 23/9/49 33/52/49
f 23/9/50 11/53/50 33/52/50
f 31/44/51 32/45/51 10/36/51
f 31/21/52 22/20/52 32/25/52
f 22/20/53 5/16/53 32/25/53
f 29/46/54 30/47/54 9/33/54
f 29/18/55 21/17/55 30/24/55
f 21/17/56 4/13/56 30/24/56
f 27/15/57 28/23/57 8/50/57
f 27/15/58 19/14/58 28/23/58
f 19/14/59 3/10/59 28/23/59
f 25/12/60 26/22/60 7/51/60
f 25/12/61 15/11/61 26/22/61
f 15/11/62 2/4/62 26/22/62
f 23/9/63 24/26/63 11/53/63
f 23/9/64 16/5/64 24/26/64
f 16/5/65 6/19/65 24/26/65
f 17/8/66 22/20/66 6/19/66
f 17/8/67 20/7/67 22/20/67
f 20/7/68 5/16/68 22/20/68
f 20/7/69 21/17/69 5/16/69
f 20/7/70 18/6/70 21/17/70
f 18/6/71 4/13/71 21/17/71
f 18/6/72 19/14/72 4/13/72
f 18/6/73 13/3/73 19/14/73
f 13/3/74 3/10/74 19/14/74
f 16/5/75 17/8/75 6/19/75
f 16/5/76 14/2/76 17/8/76
f 14/2/77 1/1/77 17/8/77
f 13/3/78 15/11/78 3/10/78
f 13/3/79 14/2/79 15/11/79
f 14/2/80 2/4/80 15/11/80
f 43/54/81 44/55/81 46/56/81 45/57/81
f 45/57/82 46/56/82 48/58/82 47/59/82
f 47/59/83 48/58/83 50/60/83 49/61/83
f 49/61/84 50/60/84 52/62/84 51/63/84
f 51/64/85 52/65/85 54/66/85 53/67/85
f 53/67/86 54/66/86 56/68/86 55/69/86
f 50/70/87 48/71/87 88/72/87 75/73/87
f 55/69/88 56/68/88 58/74/88 57/75/88
f 57/75/89 58/74/89 44/55/89 43/54/89
f 43/76/90 45/77/90 47/78/90 49/79/90 51/80/90 53/81/90 55/82/90 57/83/90
f 83/84/91 87/85/91 71/86/91 73/87/91
f 56/88/92 54/89/92 74/90/92 89/91/92
f 54/92/93 52/93/93 79/94/93 82/95/93
f 90/96/94 89/91/94 64/97/94 65/98/94
f 88/72/95 91/99/95 59/100/95 61/101/95
f 63/102/96 74/103/96 54/104/96 82/105/96 78/106/96
f 92/107/97 90/96/97 65/98/97 60/108/97
f 91/99/98 92/109/98 60/110/98 59/100/98
f 66/111/99 67/112/99 70/113/99 68/114/99
f 70/115/100 71/116/100 80/117/100
f 62/118/101 61/101/101 84/119/101 94/120/101
f 86/121/102 85/122/102 67/112/102 66/111/102
f 85/123/103 83/84/103 73/87/103 67/124/103
f 64/97/104 63/125/104 93/126/104 87/85/104
f 62/127/105 94/128/105 68/129/105 77/130/105
f 84/119/106 86/121/106 66/111/106 68/114/106
f 70/131/107 67/124/107 73/87/107 71/86/107
f 62/132/108 72/133/108 69/134/108 75/135/108
f 52/136/109 69/137/109 74/138/109 54/139/109
f 75/135/110 69/134/110 52/140/110 50/141/110
f 74/138/111 69/137/111 72/142/111 63/143/111
f 79/144/112 81/145/112 77/130/112 76/146/112
f 82/105/113 79/147/113 76/148/113 78/106/113
f 78/106/114 76/148/114 80/117/114 71/116/114
f 76/146/115 77/130/115 68/129/115 80/149/115
f 71/116/116 93/150/116 63/102/116 78/106/116
f 68/129/117 70/151/117 80/149/117
f 50/152/118 75/153/118 62/127/118 77/130/118 81/145/118
f 52/93/119 50/154/119 81/155/119 79/94/119
f 61/101/120 59/100/120 86/121/120 84/119/120
f 60/108/121 65/98/121 83/84/121 85/123/121
f 59/100/122 60/110/122 85/122/122 86/121/122
f 65/98/123 64/97/123 87/85/123 83/84/123
f 46/156/124 44/157/124 92/109/124 91/99/124
f 44/158/125 58/159/125 90/96/125 92/107/125
f 48/71/126 46/156/126 91/99/126 88/72/126
f 58/159/127 56/88/127 89/91/127 90/96/127
f 75/73/128 88/72/128 61/101/128 62/118/128
f 89/91/129 74/90/129 63/125/129 64/97/129
f 87/85/130 93/126/130 71/86/130
f 94/120/131 84/119/131 68/114/131
f 215/160/132 96/161/132 98/162/132 216/163/132
f 216/163/133 98/162/133 100/164/133 217/165/133
f 217/165/134 100/164/134 102/166/134 218/167/134
f 218/167/135 102/166/135 104/168/135 219/169/135
f 219/170/136 104/171/136 106/172/136 220/173/136
f 220/173/137 106/172/137 108/174/137 221/175/137
f 98/176/138 96/177/138 110/178/138 108/179/138 106/180/138 104/181/138 102/182/138 100/183/138
f 221/175/139 108/174/139 110/184/139 222/185/139
f 222/185/140 110/184/140 96/161/140 215/160/140
f 95/186/141 97/187/141 99/188/141 101/189/141 103/190/141 105/191/141 107/192/141 109/193/141
f 190/194/142 118/195/142 111/196/142 183/197/142
f 189/198/143 117/199/143 118/195/143 190/194/143
f 188/200/144 116/201/144 117/199/144 189/198/144
f 187/202/145 115/203/145 116/201/145 188/200/145
f 186/204/146 114/205/146 115/206/146 187/207/146
f 185/208/147 113/209/147 114/205/147 186/204/147
f 184/210/148 112/211/148 113/209/148 185/208/148
f 183/197/149 111/196/149 112/211/149 184/210/149
f 198/212/150 126/213/150 119/214/150 191/215/150
f 197/216/151 125/217/151 126/213/151 198/212/151
f 196/218/152 124/219/152 125/217/152 197/216/152
f 195/220/153 123/221/153 124/219/153 196/218/153
f 194/222/154 122/223/154 123/224/154 195/225/154
f 193/226/155 121/227/155 122/223/155 194/222/155
f 192/228/156 120/229/156 121/227/156 193/226/156
f 191/215/157 119/214/157 120/229/157 192/228/157
f 167/230/158 134/231/158 127/232/158 168/233/158
f 168/233/159 127/232/159 128/234/159 169/235/159
f 169/235/160 128/234/160 129/236/160 170/237/160
f 170/237/161 129/236/161 130/238/161 171/239/161
f 171/240/162 130/241/162 131/242/162 172/243/162
f 172/243/163 131/242/163 132/244/163 173/245/163
f 173/245/164 132/244/164 133/246/164 174/247/164
f 174/247/165 133/246/165 134/231/165 167/230/165
f 229/248/166 141/249/166 142/250/166 230/251/166
f 228/252/167 140/253/167 141/249/167 229/248/167
f 227/254/168 139/255/168 140/253/168 228/252/168
f 226/256/169 138/257/169 139/255/169 227/254/169
f 225/258/170 137/259/170 138/260/170 226/261/170
f 224/262/171 136/263/171 137/259/171 225/258/171
f 223/264/172 135/265/172 136/263/172 224/262/172
f 230/251/173 142/250/173 135/265/173 223/264/173
f 182/266/174 143/267/174 144/268/174 175/269/174
f 175/269/175 144/268/175 145/270/175 176/271/175
f 176/271/176 145/270/176 146/272/176 177/273/176
f 177/273/177 146/272/177 147/274/177 178/275/177
f 178/276/178 147/277/178 148/278/178 179/279/178
f 179/279/179 148/278/179 149/280/179 180/281/179
f 180/281/180 149/280/180 150/282/180 181/283/180
f 181/283/181 150/282/181 143/267/181 182/266/181
f 206/284/182 158/285/182 151/286/182 199/287/182
f 199/287/183 151/286/183 152/288/183 200/289/183
f 200/289/184 152/288/184 153/290/184 201/291/184
f 201/291/185 153/290/185 154/292/185 202/293/185
f 202/294/186 154/295/186 155/296/186 203/297/186
f 203/297/187 155/296/187 156/298/187 204/299/187
f 204/299/188 156/298/188 157/300/188 205/301/188
f 205/301/189 157/300/189 158/285/189 206/284/189
f 213/302/190 166/303/190 159/304/190 214/305/190
f 212/306/191 165/307/191 166/303/191 213/302/191
f 211/308/192 164/309/192 165/307/192 212/306/192
f 210/310/193 163/311/193 164/309/193 211/308/193
f 209/312/194 162/313/194 163/314/194 210/315/194
f 208/316/195 161/317/195 162/313/195 209/312/195
f 207/318/196 160/319/196 161/317/196 208/316/196
f 214/305/197 159/304/197 160/319/197 207/318/197
f 141/249/198 174/247/198 167/230/198 142/250/198
f 140/253/199 173/245/199 174/247/199 141/249/199
f 139/255/200 172/243/200 173/245/200 140/253/200
f 138/257/201 171/240/201 172/243/201 139/255/201
f 137/259/202 170/237/202 171/239/202 138/260/202
f 136/263/203 169/235/203 170/237/203 137/259/203
f 135/265/204 168/233/204 169/235/204 136/263/204
f 142/250/205 167/230/205 168/233/205 135/265/205
f 133/320/206 181/283/206 182/266/206 134/321/206
f 132/322/207 180/281/207 181/283/207 133/320/207
f 131/323/208 179/279/208 180/281/208 132/322/208
f 130/324/209 178/276/209 179/279/209 131/323/209
f 129/325/210 177/273/210 178/275/210 130/326/210
f 128/327/211 176/271/211 177/273/211 129/325/211
f 127/328/212 175/269/212 176/271/212 128/327/212
f 134/321/213 182/266/213 175/269/213 127/328/213
f 143/267/214 183/329/214 184/330/214 144/268/214
f 144/268/215 184/330/215 185/331/215 145/270/215
f 145/270/216 185/331/216 186/332/216 146/272/216
f 146/272/217 186/332/217 187/333/217 147/274/217
f 147/277/218 187/334/218 188/335/218 148/278/218
f 148/278/219 188/335/219 189/336/219 149/280/219
f 149/280/220 189/336/220 190/337/220 150/282/220
f 150/282/221 190/337/221 183/329/221 143/267/221
f 158/338/222 191/215/222 192/228/222 151/339/222
f 151/339/223 192/228/223 193/226/223 152/340/223
f 152/340/224 193/226/224 194/222/224 153/341/224
f 153/341/225 194/222/225 195/225/225 154/342/225
f 154/343/226 195/220/226 196/218/226 155/344/226
f 155/344/227 196/218/227 197/216/227 156/345/227
f 156/345/228 197/216/228 198/212/228 157/346/228
f 157/346/229 198/212/229 191/215/229 158/338/229
f 118/195/230 205/301/230 206/284/230 111/196/230
f 117/199/231 204/299/231 205/301/231 118/195/231
f 116/201/232 203/297/232 204/299/232 117/199/232
f 115/203/233 202/294/233 203/297/233 116/201/233
f 114/205/234 201/291/234 202/293/234 115/206/234
f 113/209/235 200/289/235 201/291/235 114/205/235
f 112/211/236 199/287/236 200/289/236 113/209/236
f 111/196/237 206/284/237 199/287/237 112/211/237
f 119/214/238 214/347/238 207/348/238 120/229/238
f 120/229/239 207/348/239 208/349/239 121/227/239
f 121/227/240 208/349/240 209/350/240 122/223/240
f 122/223/241 209/350/241 210/351/241 123/224/241
f 123/221/242 210/352/242 211/353/242 124/219/242
f 124/219/243 211/353/243 212/354/243 125/217/243
f 125/217/244 212/354/244 213/355/244 126/213/244
f 126/213/245 213/355/245 214/347/245 119/214/245
f 166/303/246 222/185/246 215/160/246 159/304/246
f 165/307/247 221/175/247 222/185/247 166/303/247
f 164/309/248 220/173/248 221/175/248 165/307/248
f 163/311/249 219/170/249 220/173/249 164/309/249
f 162/313/250 218/167/250 219/169/250 163/314/250
f 161/317/251 217/165/251 218/167/251 162/313/251
f 160/319/252 216/163/252 217/165/252 161/317/252
f 159/304/253 215/160/253 216/163/253 160/319/253
f 95/356/254 230/251/254 223/264/254 97/357/254
f 97/357/255 223/264/255 224/262/255 99/358/255
f 99/358/256 224/262/256 225/258/256 101/359/256
f 101/359/257 225/258/257 226/261/257 103/360/257
f 103/361/258 226/256/258 227/254/258 105/362/258
f 105/362/259 227/254/259 228/252/259 107/363/259
f 107/363/260 228/252/260 229/248/260 109/364/260
f 109/364/261 229/248/261 230/251/261 95/356/261
f 231/365/262 232/366/262 234/367/262 233/368/262
f 233/369/263 234/370/263 236/371/263 235/372/263
f 235/372/264 236/371/264 238/373/264 237/374/264
f 237/374/265 238/373/265 240/375/265 239/376/265
f 239/376/266 240/375/266 242/377/266 241/378/266
f 241/378/267 242/377/267 244/379/267 243/380/267
f 234/381/268 232/382/268 246/383/268 244/384/268 242/385/268 240/386/268 238/387/268 236/388/268
f 243/380/269 244/379/269 246/389/269 245/390/269
f 245/390/270 246/389/270 232/366/270 231/365/270
f 231/391/271 233/392/271 235/393/271 237/394/271 239/395/271 241/396/271 243/397/271 245/398/271
f 263/399/272 248/400/272 250/401/272 264/402/272
f 264/402/273 250/401/273 252/403/273 265/404/273
f 265/404/274 252/403/274 254/405/274 266/406/274
f 266/406/275 254/405/275 256/407/275 267/408/275
f 267/408/276 256/407/276 258/409/276 268/410/276
f 268/410/277 258/409/277 260/411/277 269/412/277
f 250/413/268 248/414/268 262/415/268 260/416/268 258/417/268 256/418/268 254/419/268 252/420/268
f 269/412/278 260/411/278 262/421/278 270/422/278
f 270/422/279 262/421/279 248/423/279 263/424/279
f 247/425/271 249/426/271 251/427/271 253/428/271 255/429/271 257/430/271 259/431/271 261/432/271
f 261/433/280 270/434/280 263/435/280 247/436/280
f 259/437/281 269/438/281 270/434/281 261/433/281
f 257/439/282 268/440/282 269/438/282 259/437/282
f 255/441/283 267/442/283 268/440/283 257/439/283
f 253/443/284 266/444/284 267/442/284 255/441/284
f 251/445/285 265/446/285 266/444/285 253/443/285
f 249/447/286 264/448/286 265/446/286 251/445/286
f 247/449/287 263/450/287 264/448/287 249/447/287
f 271/451/288 272/452/288 274/453/288 273/454/288
f 273/455/289 274/456/289 278/457/289 277/458/289
f 277/459/290 278/460/290 276/461/290 275/462/290
f 275/462/291 276/461/291 272/452/291 271/451/291
f 273/455/271 277/458/271 275/463/271 271/464/271
f 278/460/268 274/453/268 272/452/268 276/461/268
