# Blender 4.2.2 LTS
# www.blender.org
mtllib traffic cone.mtl
o traffic_cone
v 0.024041 0.021045 -0.802285
v 0.024041 3.285142 -0.144729
v 0.599752 0.021045 -0.563818
v 0.134789 3.285142 -0.098855
v 0.838219 0.021045 0.011892
v 0.180662 3.285142 0.011892
v 0.599752 0.021045 0.587602
v 0.134789 3.285142 0.122639
v 0.024041 0.021045 0.826069
v 0.024041 3.285142 0.168512
v -0.551669 0.021045 0.587602
v -0.086706 3.285142 0.122639
v -0.790136 0.021045 0.011892
v -0.132579 3.285142 0.011892
v -0.551669 0.021045 -0.563818
v -0.086706 3.285142 -0.098855
v 0.024041 0.140322 -0.670889
v 0.506840 0.140322 -0.470907
v 0.706822 0.140322 0.011892
v 0.506840 0.140322 0.494691
v 0.024041 0.140322 0.694673
v -0.458758 0.140322 0.494691
v -0.658740 0.140322 0.011892
v -0.458758 0.140322 -0.470907
v -0.975959 -0.055995 1.011892
v -0.975959 0.055996 1.011892
v -0.975959 -0.055995 -0.988108
v -0.975959 0.055996 -0.988108
v 1.024041 -0.055995 1.011892
v 1.024041 0.055996 1.011892
v 1.024041 -0.055995 -0.988108
v 1.024041 0.055996 -0.988108
v -0.975959 -0.055995 0.011892
v -0.975959 0.055996 0.011892
v 1.024041 -0.055995 0.011892
v 1.024041 0.055996 0.011892
vn 0.3782 0.1528 -0.9130
vn 0.9130 0.1528 -0.3782
vn 0.9130 0.1528 0.3782
vn 0.3782 0.1528 0.9130
vn -0.3782 0.1528 0.9130
vn -0.9130 0.1528 0.3782
vn -0.0000 1.0000 -0.0000
vn -0.9130 0.1528 -0.3782
vn -0.3782 0.1528 -0.9130
vn -0.0000 -1.0000 -0.0000
vn -0.2682 0.7133 -0.6475
vn -0.6475 0.7133 -0.2682
vn -0.6475 0.7133 0.2682
vn -0.2682 0.7133 0.6475
vn 0.2682 0.7133 0.6475
vn 0.6475 0.7133 0.2682
vn 0.6475 0.7133 -0.2682
vn 0.2682 0.7133 -0.6475
vn -1.0000 -0.0000 -0.0000
vn -0.0000 -0.0000 -1.0000
vn 1.0000 -0.0000 -0.0000
vn -0.0000 -0.0000 1.0000
vt 0.871383 0.308870
vt 0.587555 0.072413
vt 0.598445 0.056757
vt 0.918860 0.240618
vt 0.606467 0.039454
vt 0.953830 0.165190
vt 0.611379 0.021026
vt 0.975242 0.084854
vt 0.613032 0.002027
vt 0.982451 0.002027
vt 0.589644 0.473528
vt 0.522928 0.110183
vt 0.541316 0.105125
vt 0.669808 0.451478
vt 0.558554 0.096966
vt 0.744955 0.415910
vt 0.002027 0.808514
vt 0.002027 0.789443
vt 0.015513 0.775957
vt 0.034584 0.775957
vt 0.048069 0.789443
vt 0.048069 0.808514
vt 0.034584 0.821999
vt 0.015512 0.821999
vt 0.574123 0.085952
vt 0.812828 0.367892
vt 0.072130 0.771903
vt 0.002027 0.701800
vt 0.002027 0.602660
vt 0.072130 0.532557
vt 0.171270 0.532557
vt 0.241373 0.602660
vt 0.241373 0.701800
vt 0.171270 0.771903
vt 0.779162 0.720745
vt 0.759324 0.705589
vt 0.785966 0.626832
vt 0.810931 0.626832
vt 0.696904 0.776083
vt 0.690341 0.751996
vt 0.597943 0.770118
vt 0.607352 0.746994
vt 0.522928 0.705300
vt 0.544442 0.692636
vt 0.597943 0.483547
vt 0.607352 0.506671
vt 0.544442 0.561029
vt 0.522928 0.548365
vt 0.696904 0.477582
vt 0.690341 0.501669
vt 0.779162 0.532920
vt 0.759324 0.548076
vt 0.081493 0.404919
vt 0.243249 0.252440
vt 0.301945 0.300672
vt 0.190227 0.495868
vt 0.486790 0.207243
vt 0.518874 0.528503
vt 0.360767 0.997973
vt 0.360767 0.767292
vt 0.476107 0.767292
vt 0.476107 0.997973
vt 0.002027 0.002027
vt 0.271580 0.002027
vt 0.186955 0.207024
vt 0.002027 0.271580
vt 0.245427 0.647898
vt 0.476107 0.647898
vt 0.476107 0.763238
vt 0.245427 0.763238
vt 0.390350 0.082370
vt 0.245427 0.532557
vt 0.476107 0.532557
vt 0.245427 0.997973
vt 0.245427 0.767292
s 0
usemtl Материал
f 17/1/1 2/2/1 4/3/1 18/4/1
f 18/4/2 4/3/2 6/5/2 19/6/2
f 19/6/3 6/5/3 8/7/3 20/8/3
f 20/8/4 8/7/4 10/9/4 21/10/4
f 21/11/5 10/12/5 12/13/5 22/14/5
f 22/14/6 12/13/6 14/15/6 23/16/6
f 4/17/7 2/18/7 16/19/7 14/20/7 12/21/7 10/22/7 8/23/7 6/24/7
f 23/16/8 14/15/8 16/25/8 24/26/8
f 24/26/9 16/25/9 2/2/9 17/1/9
f 1/27/10 3/28/10 5/29/10 7/30/10 9/31/10 11/32/10 13/33/10 15/34/10
f 15/35/11 24/36/11 17/37/11 1/38/11
f 13/39/12 23/40/12 24/36/12 15/35/12
f 11/41/13 22/42/13 23/40/13 13/39/13
f 9/43/14 21/44/14 22/42/14 11/41/14
f 7/45/15 20/46/15 21/47/15 9/48/15
f 5/49/16 19/50/16 20/46/16 7/45/16
f 3/51/17 18/52/17 19/50/17 5/49/17
f 1/38/18 17/37/18 18/52/18 3/51/18
f 33/53/19 34/54/19 28/55/19 27/56/19
f 27/56/20 28/55/20 32/57/20 31/58/20
f 35/59/21 36/60/21 30/61/21 29/62/21
f 29/63/22 30/64/22 26/65/22 25/66/22
f 33/67/10 35/68/10 29/69/10 25/70/10
f 36/71/7 34/54/7 26/65/7 30/64/7
f 32/57/7 28/55/7 34/54/7 36/71/7
f 27/72/10 31/73/10 35/68/10 33/67/10
f 31/74/21 32/75/21 36/60/21 35/59/21
f 25/66/19 26/65/19 34/54/19 33/53/19
