# Blender 4.2.2 LTS
# www.blender.org
mtllib ventilation unit.mtl
o ventilation_unit
v 0.086370 0.550193 3.008235
v -1.017751 0.004898 3.746970
v 0.086370 0.673411 3.008235
v 0.743983 3.059141 1.063271
v 0.086370 0.550193 -3.620839
v 0.743983 3.596603 1.063271
v 0.086370 0.673411 -3.620839
v 0.743983 3.059141 -0.023955
v -1.017751 0.004898 -4.359574
v 0.743983 3.596603 -0.023955
v 0.477314 0.810904 -4.359574
v 0.477314 0.810904 3.746970
v 0.086370 0.353045 3.008235
v 0.743983 3.059141 -0.241401
v 0.743983 3.596603 -0.241401
v 0.086370 0.476263 3.008235
v 0.743983 3.059141 -1.328627
v 0.086370 0.353045 -3.620839
v 0.743983 3.596603 -1.328627
v 0.086370 0.476263 -3.620839
v 0.743983 3.059141 -1.546072
v 0.743983 3.596603 -1.546072
v 0.086370 0.155897 3.008235
v 0.086370 0.279115 3.008235
v 0.743983 3.059141 -2.633299
v 0.743983 3.596603 -2.633299
v 0.086370 0.155897 -3.620839
v 0.743983 3.059141 -2.850744
v 0.086370 0.279115 -3.620839
v 0.743983 3.596603 -2.850744
v 0.743983 3.059141 -3.937971
v 0.743983 3.596603 -3.937971
v 0.743983 2.414186 1.063271
v 0.743983 2.951648 1.063271
v 0.743983 2.414186 -0.023955
v 0.743983 2.951648 -0.023955
v 0.743983 2.414186 -0.241401
v 0.743983 2.951648 -0.241401
v 0.743983 2.414186 -1.328627
v 0.743983 2.951648 -1.328627
v 0.743983 2.414186 -1.546072
v 0.743983 2.951648 -1.546072
v 0.743983 2.414186 -2.633299
v 0.743983 2.951648 -2.633299
v 0.743983 2.414186 -2.850744
v 0.743983 2.951648 -2.850744
v 0.743983 2.414186 -3.937971
v 0.743983 2.951648 -3.937971
v 0.743983 1.769231 1.063271
v 0.743983 2.306694 1.063271
v 0.743983 1.769231 -0.023955
v 0.743983 2.306694 -0.023955
v 0.743983 1.769231 -0.241401
v 0.743983 2.306694 -0.241401
v 0.743983 1.769231 -1.328627
v 0.743983 2.306694 -1.328627
v 0.743983 1.769231 -1.546072
v 0.743983 2.306694 -1.546072
v 0.743983 1.769231 -2.633299
v 0.743983 2.306694 -2.633299
v 0.743983 1.769231 -2.850744
v 0.743983 2.306694 -2.850744
v 0.743983 1.769231 -3.937971
v 0.743983 2.306694 -3.937971
v 0.743983 1.124276 1.063271
v 0.743983 1.661739 1.063271
v 0.743983 1.124276 -0.023955
v 0.743983 1.661739 -0.023955
v 0.743983 1.124276 -0.241401
v 0.743983 1.661739 -0.241401
v 0.743983 1.124276 -1.328627
v 0.743983 1.661739 -1.328627
v 0.743983 1.124276 -1.546072
v 0.743983 1.661739 -1.546072
v 0.743983 1.124276 -2.633299
v 0.743983 1.661739 -2.633299
v 0.743983 1.124276 -2.850744
v 0.743983 1.661739 -2.850744
v 0.743983 1.124276 -3.937971
v 0.743983 1.661739 -3.937971
v 0.883114 2.951648 1.063271
v 0.883114 3.059141 1.063271
v 0.883114 3.596603 1.063271
v 0.883114 2.951648 -0.023955
v 0.883114 2.951648 -0.241401
v 0.883114 3.059141 -0.241401
v 0.883114 3.059141 -0.023955
v 0.883114 3.596603 -0.023955
v 0.883114 3.596603 -0.241401
v 0.883114 2.414186 -0.241401
v 0.883114 2.306694 -1.328627
v 0.883114 2.414186 -1.328627
v 0.883114 2.951648 -1.328627
v 0.883114 3.059141 -1.328627
v 0.883114 3.596603 -1.328627
v 0.883114 3.596603 -1.546072
v 0.883114 2.306694 -1.546072
v 0.883114 2.414186 -1.546072
v 0.883114 2.951648 -1.546072
v 0.883114 3.059141 -1.546072
v 0.883114 1.661739 -2.633299
v 0.883114 1.769231 -2.633299
v 0.883114 2.306694 -2.633299
v 0.883114 2.414186 -2.633299
v 0.883114 1.661739 -2.850744
v 0.883114 1.769231 -2.850744
v 0.883114 2.306694 -2.850744
v 0.883114 2.414186 -2.850744
v 0.883114 2.951648 -2.633299
v 0.883114 2.951648 -2.850744
v 0.883114 3.059141 -2.633299
v 0.883114 3.059141 -2.850744
v 0.883114 3.596603 -2.850744
v 0.883114 3.596603 -3.937971
v 0.883114 2.951648 -3.937971
v 0.883114 3.059141 -3.937971
v 0.883114 1.661739 -3.937971
v 0.883114 1.769231 -3.937971
v 0.883114 2.306694 -3.937971
v 0.883114 2.414186 -3.937971
v 0.883114 1.124276 -3.937971
v 0.883114 3.596603 -2.633299
v 0.883114 1.124276 1.063271
v 0.883114 1.661739 1.063271
v 0.883114 1.769231 1.063271
v 0.883114 2.414186 1.063271
v 0.883114 2.306694 1.063271
v 0.883114 1.661739 -0.023955
v 0.883114 1.769231 -0.023955
v 0.883114 1.124276 -0.023955
v 0.883114 1.124276 -0.241401
v 0.883114 1.661739 -0.241401
v 0.883114 1.769231 -0.241401
v 0.883114 2.306694 -0.023955
v 0.883114 2.414186 -0.023955
v 0.883114 2.306694 -0.241401
v 0.883114 1.124276 -1.546072
v 0.883114 1.661739 -1.328627
v 0.883114 1.661739 -1.546072
v 0.883114 1.769231 -1.328627
v 0.883114 1.124276 -1.328627
v 0.883114 1.769231 -1.546072
v 0.883114 1.124276 -2.850744
v 0.883114 1.124276 -2.633299
v 0.883114 0.942559 -4.178813
v 0.744810 0.806173 -4.359574
v 0.883114 0.942559 -4.359574
v 0.744811 0.806913 3.746970
v 0.883114 0.942559 3.746970
v -1.017751 3.835539 3.746970
v -1.017751 3.930847 3.550173
v -1.017751 3.930847 -4.162777
v -1.017751 3.835539 -4.359574
v 0.477314 3.835539 3.746970
v 0.477314 3.930847 3.550173
v 0.477314 3.835539 -4.359574
v 0.477314 3.930847 -4.162777
v 0.883114 3.835539 -4.359574
v 0.883114 3.930847 -4.162777
v 0.883114 3.849514 -4.256984
v 0.883114 3.930847 3.550173
v 0.883114 3.835539 3.746970
v 0.172545 0.155897 -3.620839
v 0.229877 0.279115 -3.620839
v 0.413339 0.673411 -3.620839
v 0.356007 0.550193 -3.620839
v 0.321608 0.476263 -3.620839
v 0.264276 0.353045 -3.620839
v 0.229877 0.279115 3.008235
v 0.172545 0.155897 3.008235
v 0.264276 0.353045 3.008235
v 0.321608 0.476263 3.008235
v 0.356007 0.550193 3.008235
v 0.413339 0.673411 3.008235
v -0.065781 0.004898 3.746970
v 0.136871 0.079229 3.746970
v 0.136871 0.079229 -4.359574
v -0.065781 0.004898 -4.359574
v -0.786884 3.062235 4.297050
v -0.786884 3.062235 3.610275
v -0.786884 3.468105 3.610275
v 0.292469 3.062235 4.297050
v 0.292469 3.062235 3.610275
v 0.292469 3.468105 3.610275
v -0.786884 3.069730 4.297050
v -0.786884 3.620321 3.622957
v -0.786884 3.268918 4.206739
v -0.786884 3.433812 4.008103
v 0.292469 3.620321 3.622957
v 0.292469 3.069730 4.297050
v 0.292469 3.433812 4.008103
v 0.292469 3.268918 4.206739
v -0.786884 2.392531 4.297050
v -0.786884 2.392531 3.610275
v -0.786884 2.798402 3.610275
v 0.292469 2.392531 4.297050
v 0.292469 2.392531 3.610275
v 0.292469 2.798402 3.610275
v -0.786884 2.400026 4.297050
v -0.786884 2.950618 3.622957
v -0.786884 2.599214 4.206739
v -0.786884 2.764108 4.008103
v 0.292469 2.950618 3.622957
v 0.292469 2.400026 4.297050
v 0.292469 2.764108 4.008103
v 0.292469 2.599214 4.206739
v -0.786884 1.722828 4.297050
v -0.786884 1.722828 3.610275
v -0.786884 2.128698 3.610275
v 0.292469 1.722828 4.297050
v 0.292469 1.722828 3.610275
v 0.292469 2.128698 3.610275
v -0.786884 1.730323 4.297050
v -0.786884 2.280914 3.622957
v -0.786884 1.929510 4.206739
v -0.786884 2.094405 4.008103
v 0.292469 2.280914 3.622957
v 0.292469 1.730323 4.297050
v 0.292469 2.094405 4.008103
v 0.292469 1.929510 4.206739
v -0.786884 1.053124 4.297050
v -0.786884 1.053124 3.610275
v -0.786884 1.458995 3.610275
v 0.292469 1.053124 4.297050
v 0.292469 1.053124 3.610275
v 0.292469 1.458995 3.610275
v -0.786884 1.060619 4.297050
v -0.786884 1.611210 3.622957
v -0.786884 1.259807 4.206739
v -0.786884 1.424701 4.008103
v 0.292469 1.611210 3.622957
v 0.292469 1.060619 4.297050
v 0.292469 1.424701 4.008103
v 0.292469 1.259807 4.206739
vn -0.0000 1.0000 -0.0000
vn 1.0000 -0.0000 -0.0000
vn -0.0000 -0.0000 1.0000
vn -1.0000 -0.0000 -0.0000
vn -0.0000 -0.0000 -1.0000
vn 0.9067 -0.4219 -0.0000
vn -0.0000 -1.0000 -0.0000
vn 0.7022 -0.7120 -0.0000
vn 0.7012 -0.7130 -0.0000
vn -0.0163 -0.9999 -0.0000
vn -0.0000 0.9000 -0.4359
vn -0.0000 0.9000 0.4359
vn 0.3444 -0.9388 -0.0000
vn -0.0000 0.0830 -0.9965
vn -0.0000 0.9000 0.4358
vn -0.0000 0.7694 0.6387
vn -0.0000 0.4129 0.9108
vt 0.175149 0.328212
vt 0.009565 0.178630
vt 0.227962 0.005444
vt 0.280683 0.175817
vt 0.249104 0.326534
vt 0.277656 0.340205
vt 0.275343 0.346079
vt 0.246055 0.331592
vt 0.231842 0.355542
vt 0.217175 0.353195
vt 0.216471 0.348925
vt 0.295396 0.214804
vt 0.299880 0.213283
vt 0.392765 0.240223
vt 0.371489 0.390439
vt 0.364601 0.384467
vt 0.367618 0.361967
vt 0.368255 0.357375
vt 0.371488 0.334626
vt 0.372135 0.330067
vt 0.375441 0.306727
vt 0.376064 0.302733
vt 0.378591 0.286380
vt 0.359576 0.277139
vt 0.354711 0.301104
vt 0.353835 0.305200
vt 0.349563 0.304321
vt 0.350563 0.300279
vt 0.355026 0.276435
vt 0.334661 0.272251
vt 0.329647 0.294221
vt 0.328423 0.298476
vt 0.319305 0.321318
vt 0.344358 0.325891
vt 0.343465 0.330551
vt 0.318393 0.325718
vt 0.314177 0.349616
vt 0.339627 0.353507
vt 0.338947 0.358327
vt 0.313413 0.354619
vt 0.310579 0.380350
vt 0.305082 0.379979
vt 0.308197 0.353822
vt 0.281523 0.347731
vt 0.283172 0.342297
vt 0.309122 0.348751
vt 0.313733 0.324458
vt 0.294604 0.316340
vt 0.296682 0.311984
vt 0.314811 0.320203
vt 0.324126 0.297039
vt 0.298884 0.286930
vt 0.300627 0.283017
vt 0.325366 0.292973
vt 0.330234 0.271105
vt 0.309632 0.263774
vt 0.305830 0.262085
vt 0.287552 0.254407
vt 0.278099 0.272984
vt 0.296563 0.281451
vt 0.294838 0.285489
vt 0.276184 0.276657
vt 0.264787 0.297991
vt 0.291681 0.310092
vt 0.289658 0.314573
vt 0.262049 0.302898
vt 0.287969 0.173482
vt 0.235322 0.003173
vt 0.491475 0.003173
vt 0.491475 0.139986
vt 0.486504 0.169110
vt 0.437577 0.218036
vt 0.173177 0.863048
vt 0.168004 0.857876
vt 0.168004 0.649982
vt 0.381071 0.649982
vt 0.381071 0.857876
vt 0.375898 0.863048
vt 0.276799 0.378497
vt 0.336509 0.382151
vt 0.348961 0.326812
vt 0.348167 0.331364
vt 0.344431 0.354226
vt 0.343805 0.358924
vt 0.341539 0.382552
vt 0.370617 0.393932
vt 0.224982 0.387948
vt 0.224306 0.385038
vt 0.239341 0.376774
vt 0.270422 0.378200
vt 0.407200 0.238647
vt 0.228358 0.448178
vt 0.384433 0.397972
vt 0.411033 0.424050
vt 0.407041 0.801168
vt 0.387625 0.790615
vt 0.600691 0.790615
vt 0.581275 0.801168
vt 0.655917 0.555580
vt 0.655917 0.444543
vt 0.868984 0.444543
vt 0.868984 0.555580
vt 0.670256 0.826849
vt 0.670256 0.821175
vt 0.844490 0.821175
vt 0.844490 0.826849
vt 0.516096 0.010208
vt 0.521771 0.010208
vt 0.521771 0.184442
vt 0.516096 0.184442
vt 0.016535 0.336469
vt 0.045111 0.336469
vt 0.045111 0.365638
vt 0.016535 0.365638
vt 0.729752 0.783510
vt 0.729752 0.767282
vt 0.758921 0.767282
vt 0.758921 0.783510
vt 0.787497 0.783510
vt 0.787497 0.767282
vt 0.816665 0.767282
vt 0.816665 0.783510
vt 0.845241 0.767282
vt 0.845241 0.783510
vt 0.631472 0.004071
vt 0.660048 0.004071
vt 0.660048 0.033240
vt 0.631472 0.033240
vt 0.849990 0.351784
vt 0.849990 0.368012
vt 0.820821 0.368012
vt 0.820821 0.351784
vt 0.792245 0.351784
vt 0.792245 0.368012
vt 0.763076 0.368012
vt 0.763076 0.351784
vt 0.734500 0.368012
vt 0.734500 0.351784
vt 0.631472 0.042059
vt 0.660048 0.042059
vt 0.660048 0.071228
vt 0.631472 0.071228
vt 0.622060 0.118714
vt 0.605831 0.118714
vt 0.605831 0.089545
vt 0.622060 0.089545
vt 0.622060 0.060969
vt 0.605831 0.060969
vt 0.605831 0.031800
vt 0.622060 0.031800
vt 0.605831 0.003224
vt 0.622060 0.003224
vt 0.113880 0.336469
vt 0.142456 0.336469
vt 0.142456 0.365638
vt 0.113880 0.365638
vt 0.003224 0.073602
vt 0.003224 0.057374
vt 0.032393 0.057374
vt 0.032393 0.073602
vt 0.060969 0.073602
vt 0.060969 0.057374
vt 0.090138 0.057374
vt 0.090138 0.073602
vt 0.118714 0.057374
vt 0.118714 0.073602
vt 0.424910 0.626131
vt 0.453486 0.626131
vt 0.453486 0.655299
vt 0.424910 0.655299
vt 0.406001 0.745522
vt 0.389772 0.745522
vt 0.389772 0.716353
vt 0.406001 0.716353
vt 0.406001 0.687777
vt 0.389772 0.687777
vt 0.389772 0.658608
vt 0.406001 0.658608
vt 0.389772 0.630032
vt 0.406001 0.630032
vt 0.151869 0.350715
vt 0.180445 0.350715
vt 0.180445 0.379884
vt 0.151869 0.379884
vt 0.296729 0.311962
vt 0.301610 0.305927
vt 0.309006 0.307586
vt 0.314800 0.320174
vt 0.312745 0.301275
vt 0.305743 0.299730
vt 0.301600 0.305920
vt 0.296703 0.311973
vt 0.479519 0.488423
vt 0.508094 0.488423
vt 0.508094 0.517592
vt 0.479519 0.517592
vt 0.682266 0.394129
vt 0.682266 0.377901
vt 0.711435 0.377901
vt 0.711435 0.394129
vt 0.740011 0.394129
vt 0.740011 0.377901
vt 0.769180 0.377901
vt 0.769180 0.394129
vt 0.797756 0.377901
vt 0.797756 0.394129
vt 0.053931 0.294410
vt 0.053931 0.265834
vt 0.083100 0.265834
vt 0.083100 0.294410
vt 0.132959 0.311422
vt 0.132959 0.327650
vt 0.103790 0.327650
vt 0.103790 0.311422
vt 0.075215 0.311422
vt 0.075215 0.327650
vt 0.046046 0.327650
vt 0.046046 0.311422
vt 0.017470 0.327650
vt 0.017470 0.311422
vt 0.707449 0.562025
vt 0.736025 0.562025
vt 0.736025 0.591194
vt 0.707449 0.591194
vt 0.548849 0.003224
vt 0.565077 0.003224
vt 0.565077 0.032393
vt 0.548849 0.032393
vt 0.548849 0.060969
vt 0.565077 0.060969
vt 0.565077 0.090138
vt 0.548849 0.090138
vt 0.565077 0.118714
vt 0.548849 0.118714
vt 0.413039 0.744844
vt 0.441615 0.744844
vt 0.441615 0.774013
vt 0.413039 0.774013
vt 0.593568 0.118714
vt 0.577340 0.118714
vt 0.577340 0.089545
vt 0.593568 0.089545
vt 0.593568 0.060969
vt 0.577340 0.060969
vt 0.577340 0.031800
vt 0.593568 0.031800
vt 0.577340 0.003224
vt 0.593568 0.003224
vt 0.550747 0.129907
vt 0.579323 0.129907
vt 0.579323 0.159076
vt 0.550747 0.159076
vt 0.161451 0.778762
vt 0.145222 0.778762
vt 0.145222 0.749593
vt 0.161451 0.749593
vt 0.145222 0.721017
vt 0.145222 0.691848
vt 0.161451 0.691848
vt 0.161451 0.721017
vt 0.145222 0.663272
vt 0.161451 0.663272
vt 0.004664 0.673616
vt 0.033240 0.673616
vt 0.033240 0.702785
vt 0.004664 0.702785
vt 0.603065 0.539352
vt 0.603065 0.555580
vt 0.573897 0.555580
vt 0.573897 0.539352
vt 0.545321 0.539352
vt 0.545321 0.555580
vt 0.516152 0.555580
vt 0.516152 0.539352
vt 0.487576 0.555580
vt 0.487576 0.539352
vt 0.045111 0.270583
vt 0.045111 0.299158
vt 0.015942 0.299158
vt 0.015942 0.270583
vt 0.366635 0.295542
vt 0.368318 0.293695
vt 0.370897 0.294093
vt 0.376048 0.302706
vt 0.378574 0.286389
vt 0.371833 0.290043
vt 0.365788 0.289418
vt 0.362225 0.296748
vt 0.612478 0.505043
vt 0.641054 0.505043
vt 0.641054 0.534211
vt 0.612478 0.534211
vt 0.778762 0.679042
vt 0.762533 0.679042
vt 0.762533 0.649873
vt 0.778762 0.649873
vt 0.778762 0.621297
vt 0.762533 0.621297
vt 0.762533 0.592129
vt 0.778762 0.592129
vt 0.762533 0.563553
vt 0.778762 0.563553
vt 0.004664 0.108539
vt 0.033240 0.108539
vt 0.033240 0.137708
vt 0.004664 0.137708
vt 0.003224 0.047485
vt 0.003224 0.031257
vt 0.032393 0.031257
vt 0.032393 0.047485
vt 0.060969 0.047485
vt 0.060969 0.031257
vt 0.090138 0.031257
vt 0.090138 0.047485
vt 0.118714 0.031257
vt 0.118714 0.047485
vt 0.016535 0.232001
vt 0.045111 0.232001
vt 0.045111 0.261170
vt 0.016535 0.261170
vt 0.206562 0.389381
vt 0.190334 0.389381
vt 0.190334 0.360212
vt 0.206562 0.360212
vt 0.032478 0.083491
vt 0.061646 0.083491
vt 0.061646 0.099719
vt 0.032478 0.099719
vt 0.003902 0.083491
vt 0.003902 0.099719
vt 0.090222 0.083491
vt 0.090222 0.099719
vt 0.215352 0.355565
vt 0.170213 0.335583
vt 0.003278 0.185631
vt 0.461060 0.462404
vt 0.469024 0.488116
vt 0.485345 0.611683
vt 0.253990 0.642241
vt 0.180445 0.009497
vt 0.006211 0.009497
vt 0.006211 0.002810
vt 0.180445 0.002810
vt 0.851177 0.820162
vt 0.851177 0.858300
vt 0.844490 0.858300
vt 0.663569 0.858300
vt 0.663569 0.820162
vt 0.670256 0.858300
vt 0.581275 0.839306
vt 0.407041 0.839306
vt 0.180445 0.023743
vt 0.006211 0.023743
vt 0.006211 0.017056
vt 0.180445 0.017056
vt 0.844490 0.793737
vt 0.851177 0.793737
vt 0.851177 0.814488
vt 0.670256 0.793737
vt 0.663569 0.814488
vt 0.663569 0.793737
vt 0.542521 0.010208
vt 0.542521 0.184442
vt 0.002810 0.375135
vt 0.002810 0.200901
vt 0.009497 0.200901
vt 0.009497 0.375135
vt 0.499358 0.010208
vt 0.499358 0.003521
vt 0.509409 0.003521
vt 0.499358 0.184442
vt 0.509409 0.191129
vt 0.499358 0.191129
vt 0.675334 0.404628
vt 0.849568 0.404628
vt 0.849568 0.414679
vt 0.675334 0.414679
vt 0.655917 0.420563
vt 0.868984 0.420563
vt 0.849568 0.374959
vt 0.868984 0.364406
vt 0.655917 0.364407
vt 0.675334 0.374959
vt 0.675334 0.384416
vt 0.675334 0.390091
vt 0.675334 0.399548
vt 0.675334 0.405222
vt 0.849568 0.405222
vt 0.849568 0.399548
vt 0.849568 0.390091
vt 0.849568 0.384416
vt 0.857682 0.867059
vt 0.982949 0.867059
vt 0.982949 0.914095
vt 0.857682 0.914095
vt 0.982949 0.741791
vt 0.857682 0.741791
vt 0.652925 0.289564
vt 0.650507 0.290002
vt 0.591333 0.294441
vt 0.532807 0.289694
vt 0.435934 0.275446
vt 0.476487 0.236537
vt 0.602576 0.166034
vt 0.992446 0.246924
vt 0.867179 0.246924
vt 0.867179 0.121657
vt 0.992446 0.121657
vt 0.591773 0.530650
vt 0.472954 0.456540
vt 0.435934 0.418520
vt 0.528305 0.407161
vt 0.585813 0.404683
vt 0.645788 0.411761
vt 0.648091 0.412348
vt 0.795951 0.686614
vt 0.921218 0.686614
vt 0.921218 0.733650
vt 0.795951 0.733650
vt 0.921218 0.561346
vt 0.795951 0.561346
vt 0.664729 0.787072
vt 0.664291 0.784654
vt 0.659852 0.725479
vt 0.664600 0.666953
vt 0.678847 0.570081
vt 0.717756 0.610633
vt 0.788259 0.736722
vt 0.705728 0.867179
vt 0.830996 0.867179
vt 0.830996 0.992446
vt 0.705728 0.992446
vt 0.423643 0.725919
vt 0.497753 0.607100
vt 0.535773 0.570081
vt 0.547132 0.662452
vt 0.549610 0.719959
vt 0.542532 0.779935
vt 0.541945 0.782237
vt 0.002943 0.840941
vt 0.128211 0.840941
vt 0.128211 0.887978
vt 0.002943 0.887978
vt 0.128211 0.715674
vt 0.002943 0.715674
vt 0.642496 0.244483
vt 0.644914 0.244045
vt 0.704089 0.239606
vt 0.762614 0.244353
vt 0.859487 0.258601
vt 0.818934 0.297509
vt 0.692845 0.368012
vt 0.695662 0.867179
vt 0.695662 0.992446
vt 0.570395 0.992446
vt 0.570395 0.867179
vt 0.703648 0.003397
vt 0.822467 0.077507
vt 0.859487 0.115526
vt 0.767116 0.126885
vt 0.709608 0.129364
vt 0.649633 0.122286
vt 0.647330 0.121699
vt 0.515666 0.973452
vt 0.515666 0.848185
vt 0.562703 0.848185
vt 0.562703 0.973452
vt 0.390399 0.848185
vt 0.390399 0.973452
vt 0.003816 0.582816
vt 0.006234 0.582379
vt 0.065409 0.577940
vt 0.123935 0.582687
vt 0.220807 0.596935
vt 0.180255 0.635843
vt 0.054166 0.706346
vt 0.263544 0.997195
vt 0.138277 0.997195
vt 0.138277 0.871927
vt 0.263544 0.871927
vt 0.064969 0.341731
vt 0.183788 0.415840
vt 0.220807 0.453860
vt 0.128436 0.465219
vt 0.070929 0.467698
vt 0.010953 0.460620
vt 0.008651 0.460033
s 0
usemtl Материал
f 157/1/1 152/2/1 151/3/1 155/4/1
f 122/5/2 111/6/2 112/7/2 113/8/2 114/9/2 160/10/2 159/11/2 161/12/2 162/13/2 149/14/2 145/15/2 121/16/2 143/17/2 144/18/2 137/19/2 141/20/2 131/21/2 130/22/2 123/23/2 124/24/2 128/25/2 132/26/2 133/27/2 129/28/2 125/29/2 127/30/2 134/31/2 136/32/2 91/33/2 140/34/2 142/35/2 97/36/2 103/37/2 102/38/2 106/39/2 107/40/2 119/41/2 120/42/2 108/43/2 110/44/2 109/45/2 104/46/2 98/47/2 99/48/2 93/49/2 92/50/2 90/51/2 85/52/2 84/53/2 135/54/2 126/55/2 81/56/2 82/57/2 83/58/2 88/59/2 87/60/2 86/61/2 89/62/2 95/63/2 94/64/2 100/65/2 96/66/2
f 154/67/3 150/68/3 2/69/3 175/70/3 176/71/3 12/72/3
f 157/1/1 155/4/1 161/12/1 159/11/1
f 152/73/4 153/74/4 9/75/4 2/76/4 150/77/4 151/78/4
f 132/26/2 128/25/2 130/22/2 131/21/2
f 136/32/2 134/31/2 129/28/2 133/27/2
f 87/60/2 82/57/2 81/56/2 84/53/2 85/52/2 93/49/2 99/48/2 109/45/2 110/44/2 115/79/2 120/42/2 119/41/2 118/80/2 106/39/2 102/38/2 142/35/2 140/34/2 133/27/2 132/26/2 138/81/2 141/20/2 137/19/2 139/82/2 101/83/2 144/18/2 143/17/2 105/84/2 117/85/2 121/16/2 145/15/2 147/86/2 158/87/2 160/88/2 114/89/2 116/90/2 112/7/2 111/6/2 100/65/2 94/64/2 86/61/2
f 162/13/3 154/67/3 12/72/3 148/91/3 149/14/3
f 156/92/5 158/87/5 147/86/5 146/93/5 11/94/5
f 165/95/6 11/96/6 12/97/6 174/98/6
f 9/99/7 178/100/7 175/101/7 2/102/7
f 173/103/6 172/104/6 167/105/6 166/106/6
f 164/107/6 168/108/6 171/109/6 169/110/6
f 4/111/2 8/112/2 10/113/2 6/114/2
f 88/115/3 10/116/3 8/117/3 87/118/3
f 82/119/5 4/120/5 6/121/5 83/122/5
f 8/117/1 4/120/1 82/119/1 87/118/1
f 6/121/7 10/123/7 88/124/7 83/122/7
f 14/125/2 17/126/2 19/127/2 15/128/2
f 95/129/3 19/130/3 17/131/3 94/132/3
f 86/133/5 14/134/5 15/135/5 89/136/5
f 17/131/1 14/134/1 86/133/1 94/132/1
f 15/135/7 19/137/7 95/138/7 89/136/7
f 21/139/2 25/140/2 26/141/2 22/142/2
f 122/143/3 26/144/3 25/145/3 111/146/3
f 100/147/5 21/148/5 22/149/5 96/150/5
f 25/145/1 21/148/1 100/147/1 111/146/1
f 22/149/7 26/151/7 122/152/7 96/150/7
f 28/153/2 31/154/2 32/155/2 30/156/2
f 114/157/3 32/158/3 31/159/3 116/160/3
f 112/161/5 28/162/5 30/163/5 113/164/5
f 31/159/1 28/162/1 112/161/1 116/160/1
f 30/163/7 32/165/7 114/166/7 113/164/7
f 33/167/2 35/168/2 36/169/2 34/170/2
f 84/171/3 36/172/3 35/173/3 135/174/3
f 126/175/5 33/176/5 34/177/5 81/178/5
f 35/173/1 33/176/1 126/175/1 135/174/1
f 34/177/7 36/179/7 84/180/7 81/178/7
f 37/181/2 39/182/2 40/183/2 38/184/2
f 93/185/3 40/186/3 39/187/3 92/188/3
f 90/51/5 37/189/5 38/190/5 85/52/5
f 39/187/1 37/189/1 90/51/1 92/188/1
f 38/190/7 40/191/7 93/192/7 85/52/7
f 41/193/2 43/194/2 44/195/2 42/196/2
f 109/197/3 44/198/3 43/199/3 104/200/3
f 98/201/5 41/202/5 42/203/5 99/204/5
f 43/199/1 41/202/1 98/201/1 104/200/1
f 42/203/7 44/205/7 109/206/7 99/204/7
f 45/207/2 47/208/2 48/209/2 46/210/2
f 115/211/3 48/212/3 47/213/3 120/214/3
f 108/215/5 45/216/5 46/217/5 110/218/5
f 47/213/1 45/216/1 108/215/1 120/214/1
f 46/217/7 48/219/7 115/220/7 110/218/7
f 49/221/2 51/222/2 52/223/2 50/224/2
f 134/225/3 52/226/3 51/227/3 129/228/3
f 125/229/5 49/230/5 50/231/5 127/232/5
f 51/227/1 49/230/1 125/229/1 129/228/1
f 50/231/7 52/233/7 134/234/7 127/232/7
f 53/235/2 55/236/2 56/237/2 54/238/2
f 91/239/3 56/240/3 55/241/3 140/242/3
f 133/243/5 53/244/5 54/245/5 136/246/5
f 55/241/1 53/244/1 133/243/1 140/242/1
f 54/245/7 56/247/7 91/248/7 136/246/7
f 57/249/2 59/250/2 60/251/2 58/252/2
f 103/253/3 60/254/3 59/255/3 102/256/3
f 57/257/5 58/258/5 97/259/5 142/260/5
f 59/255/1 57/257/1 142/260/1 102/256/1
f 58/258/7 60/261/7 103/262/7 97/259/7
f 61/263/2 63/264/2 64/265/2 62/266/2
f 119/267/3 64/268/3 63/269/3 118/270/3
f 106/271/5 61/272/5 62/273/5 107/274/5
f 63/269/1 61/272/1 106/271/1 118/270/1
f 62/273/7 64/275/7 119/276/7 107/274/7
f 65/277/2 67/278/2 68/279/2 66/280/2
f 128/281/3 68/282/3 67/283/3 130/284/3
f 123/285/5 65/286/5 66/287/5 124/24/5
f 67/283/1 65/286/1 123/285/1 130/284/1
f 66/287/7 68/288/7 128/25/7 124/24/7
f 69/289/2 71/290/2 72/291/2 70/292/2
f 138/293/3 72/294/3 71/295/3 141/296/3
f 131/297/5 69/298/5 70/299/5 132/300/5
f 71/295/1 69/298/1 131/297/1 141/296/1
f 70/299/7 72/301/7 138/302/7 132/300/7
f 73/303/2 75/304/2 76/305/2 74/306/2
f 101/307/3 76/308/3 75/309/3 144/310/3
f 137/311/5 73/312/5 74/313/5 139/314/5
f 75/309/1 73/312/1 137/311/1 144/310/1
f 74/313/7 76/315/7 101/316/7 139/314/7
f 77/317/2 79/318/2 80/319/2 78/320/2
f 117/321/3 80/322/3 79/323/3 121/324/3
f 77/325/5 78/326/5 105/327/5 143/328/5
f 79/329/1 77/325/1 143/328/1 121/330/1
f 78/326/7 80/331/7 117/332/7 105/327/7
f 145/15/8 146/93/8 147/86/8
f 145/15/9 149/14/9 148/91/9 146/93/9
f 12/72/10 11/94/10 146/93/10 148/91/10
f 158/333/2 159/11/2 160/10/2
f 157/1/11 159/11/11 158/333/11 156/334/11
f 152/2/11 157/1/11 156/334/11 153/335/11
f 150/68/12 154/67/12 155/4/12 151/3/12
f 154/67/12 162/13/12 161/12/12 155/4/12
f 11/94/5 177/336/5 178/337/5 9/338/5 153/339/5 156/92/5
f 1/340/2 5/341/2 7/342/2 3/343/2
f 165/344/3 7/345/3 5/346/3 166/106/3
f 3/347/5 174/348/5 173/103/5 1/349/5
f 5/346/1 1/349/1 173/103/1 166/106/1
f 3/350/7 7/351/7 165/95/7 174/98/7
f 13/352/2 18/353/2 20/354/2 16/355/2
f 167/105/3 20/356/3 18/357/3 168/358/3
f 16/359/5 172/104/5 171/360/5 13/361/5
f 18/362/1 13/363/1 171/109/1 168/108/1
f 16/359/7 20/356/7 167/105/7 172/104/7
f 23/364/2 27/365/2 29/366/2 24/367/2
f 164/107/3 29/368/3 27/369/3 163/370/3
f 24/371/5 169/110/5 170/372/5 23/373/5
f 27/374/1 23/375/1 170/376/1 163/377/1
f 24/371/7 29/368/7 164/107/7 169/110/7
f 175/101/13 178/100/13 177/378/13 176/379/13
f 174/380/6 12/381/6 176/379/6 177/378/6 11/382/6 165/383/6 166/384/6 167/385/6 168/386/6 164/387/6 163/377/6 170/376/6 169/388/6 171/389/6 172/390/6 173/391/6
f 184/392/14 181/393/14 186/394/14 189/395/14
f 180/396/5 181/393/5 184/392/5 183/397/5
f 179/398/4 185/399/4 187/400/4 188/401/4 186/402/4 181/403/4 180/404/4
f 180/405/7 183/406/7 182/407/7 179/408/7
f 183/409/2 184/410/2 189/411/2 191/412/2 192/413/2 190/414/2 182/415/2
f 189/411/15 186/402/15 188/401/15 191/412/15
f 191/412/16 188/401/16 187/400/16 192/413/16
f 192/413/17 187/400/17 185/399/17 190/414/17
f 182/415/3 190/414/3 185/399/3 179/398/3
f 198/416/14 195/417/14 200/418/14 203/419/14
f 194/420/5 195/417/5 198/416/5 197/421/5
f 193/422/4 199/423/4 201/424/4 202/425/4 200/426/4 195/427/4 194/428/4
f 194/429/7 197/430/7 196/431/7 193/432/7
f 197/433/2 198/434/2 203/435/2 205/436/2 206/437/2 204/438/2 196/439/2
f 203/435/15 200/426/15 202/425/15 205/436/15
f 205/436/16 202/425/16 201/424/16 206/437/16
f 206/437/17 201/424/17 199/423/17 204/438/17
f 196/439/3 204/438/3 199/423/3 193/422/3
f 212/440/14 209/441/14 214/442/14 217/443/14
f 208/444/5 209/441/5 212/440/5 211/445/5
f 207/446/4 213/447/4 215/448/4 216/449/4 214/450/4 209/451/4 208/452/4
f 208/453/7 211/454/7 210/455/7 207/456/7
f 211/457/2 212/458/2 217/459/2 219/460/2 220/461/2 218/462/2 210/463/2
f 217/459/15 214/450/15 216/449/15 219/460/15
f 219/460/16 216/449/16 215/448/16 220/461/16
f 220/461/17 215/448/17 213/447/17 218/462/17
f 210/463/3 218/462/3 213/447/3 207/446/3
f 226/464/14 223/465/14 228/466/14 231/467/14
f 222/468/5 223/465/5 226/464/5 225/469/5
f 221/470/4 227/471/4 229/472/4 230/473/4 228/474/4 223/475/4 222/476/4
f 222/477/7 225/478/7 224/479/7 221/480/7
f 225/481/2 226/482/2 231/483/2 233/484/2 234/485/2 232/486/2 224/487/2
f 231/483/15 228/474/15 230/473/15 233/484/15
f 233/484/16 230/473/16 229/472/16 234/485/16
f 234/485/17 229/472/17 227/471/17 232/486/17
f 224/487/3 232/486/3 227/471/3 221/470/3
