{
  "accessors": [
    {
      "bufferView": 2,
      "componentType": 5126,
      "count": 6697,
      "max": [
        0.16158810257911682,
        0.5481876134872437,
        0.2254575788974762
      ],
      "min": [
        -0.16161805391311646,
        4.257797263562679e-05,
        -0.22568988800048828
      ],
      "type": "VEC3"
    },
    {
      "bufferView": 2,
      "byteOffset": 80364,
      "componentType": 5126,
      "count": 6697,
      "max": [
        0.9999460577964783,
        0.9987761974334717,
        0.9999751448631287
      ],
      "min": [
        -0.9998761415481567,
        -0.9999997615814209,
        -0.9999039173126221
      ],
      "type": "VEC3"
    },
    {
      "bufferView": 3,
      "componentType": 5126,
      "count": 6697,
      "max": [
        0.9984012842178345,
        0.9998395442962646,
        0.9990769028663635,
        1.0
      ],
      "min": [
        -0.9998733997344971,
        -0.9999756813049316,
        -0.9997225999832153,
        -1.0
      ],
      "type": "VEC4"
    },
    {
      "bufferView": 1,
      "componentType": 5126,
      "count": 6697,
      "max": [
        0.9973328709602356,
        0.9809461832046509
      ],
      "min": [
        0.000974658876657486,
        0.0009746579453349113
      ],
      "type": "VEC2"
    },
    {
      "bufferView": 1,
      "byteOffset": 53576,
      "componentType": 5126,
      "count": 6697,
      "max": [
        0.9973328709602356,
        0.9809461832046509
      ],
      "min": [
        0.000974658876657486,
        0.0009746579453349113
      ],
      "type": "VEC2"
    },
    {
      "bufferView": 0,
      "componentType": 5125,
      "count": 30192,
      "type": "SCALAR"
    }
  ],
  "asset": {
    "extras": {
      "author": "David Wigforss (https://sketchfab.com/dwigfor)",
      "license": "CC-BY-NC-4.0 (http://creativecommons.org/licenses/by-nc/4.0/)",
      "source": "https://sketchfab.com/3d-models/golden-retriever-sitting-58088fde80bb449c9da4e595ef8ea0d6",
      "title": "Golden Retriever (Sitting)"
    },
    "generator": "Sketchfab-12.66.0",
    "version": "2.0"
  },
  "bufferViews": [
    {
      "buffer": 0,
      "byteLength": 120768,
      "name": "floatBufferViews",
      "target": 34963
    },
    {
      "buffer": 0,
      "byteLength": 107152,
      "byteOffset": 120768,
      "byteStride": 8,
      "name": "floatBufferViews",
      "target": 34962
    },
    {
      "buffer": 0,
      "byteLength": 160728,
      "byteOffset": 227920,
      "byteStride": 12,
      "name": "floatBufferViews",
      "target": 34962
    },
    {
      "buffer": 0,
      "byteLength": 107152,
      "byteOffset": 388648,
      "byteStride": 16,
      "name": "floatBufferViews",
      "target": 34962
    }
  ],
  "buffers": [
    {
      "byteLength": 495800,
      "uri": "scene.bin"
    }
  ],
  "images": [
    {
      "uri": "textures/MAT_Dog_GoldenRetriever_Sitting_baseColor.jpeg"
    },
    {
      "uri": "textures/MAT_Dog_GoldenRetriever_Sitting_normal.png"
    }
  ],
  "materials": [
    {
      "doubleSided": true,
      "name": "MAT_Dog_GoldenRetriever_Sitting",
      "normalTexture": {
        "index": 1
      },
      "pbrMetallicRoughness": {
        "baseColorTexture": {
          "index": 0
        },
        "metallicFactor": 0.0,
        "roughnessFactor": 0.9577051495
      }
    }
  ],
  "meshes": [
    {
      "name": "geo1_MAT_Dog_GoldenRetriever_Sitting_0",
      "primitives": [
        {
          "attributes": {
            "NORMAL": 1,
            "POSITION": 0,
            "TANGENT": 2,
            "TEXCOORD_0": 3,
            "TEXCOORD_1": 4
          },
          "indices": 5,
          "material": 0,
          "mode": 4
        }
      ]
    }
  ],
  "nodes": [
    {
      "children": [
        1
      ],
      "matrix": [
        1.0,
        0.0,
        0.0,
        0.0,
        0.0,
        2.220446049250313e-16,
        -1.0,
        0.0,
        0.0,
        1.0,
        2.220446049250313e-16,
        0.0,
        0.0,
        0.0,
        0.0,
        1.0
      ],
      "name": "Sketchfab_model"
    },
    {
      "children": [
        2
      ],
      "matrix": [
        1.0,
        0.0,
        0.0,
        0.0,
        0.0,
        0.0,
        1.0,
        0.0,
        0.0,
        -1.0,
        0.0,
        0.0,
        0.0,
        0.0,
        0.0,
        1.0
      ],
      "name": "mesh.fbx"
    },
    {
      "children": [
        3
      ],
      "name": "RootNode"
    },
    {
      "children": [
        4
      ],
      "name": "geo1"
    },
    {
      "mesh": 0,
      "name": "geo1_MAT_Dog_GoldenRetriever_Sitting_0"
    }
  ],
  "samplers": [
    {
      "magFilter": 9729,
      "minFilter": 9987,
      "wrapS": 10497,
      "wrapT": 10497
    }
  ],
  "scene": 0,
  "scenes": [
    {
      "name": "Sketchfab_Scene",
      "nodes": [
        0
      ]
    }
  ],
  "textures": [
    {
      "sampler": 0,
      "source": 0
    },
    {
      "sampler": 0,
      "source": 1
    }
  ]
}
