# This file is brought to you by Roblox Corporation
# Generated by Roblox Studio

mtllib bush bush.mtl

g 1

v 71.0429 -12.2172 104.167 
v 61.1818 -16.9603 93.6427 
v 68.677 -9.21378 93.3662 
v 63.5478 -19.9637 104.443 
v 63.396 -14.7041 110.193 
v 68.5872 -15.4025 97.5107 
v 68.4129 -10.2327 104.012 
v 63.5703 -19.8738 103.691 
v 61.2663 -10.5199 107.67 
v 73.2289 -17.076 95.8382 
v 71.1048 -7.56763 99.5931 
v 63.3904 -20.0283 103.915 
v 67.3428 -11.9637 110.382 
v 71.1899 -16.7069 93.8385 
v 74.7101 -8.96034 99.9132 
v 63.8226 -19.7102 104.308 
v 59.2786 -14.4506 108.696 
v 71.4432 -15.149 103.093 
v 66.3033 -9.97929 108.053 
v 64.4184 -19.6204 103.736 
v 61.5395 -9.63755 104.256 
v 74.5168 -17.6999 106.511 
v 72.1648 -7.84607 107.032 
v 63.8915 -19.4913 103.735 
v 59.4452 -11.9187 111.749 
v 74.7411 -16.6619 103.813 
v 70.6862 -8.91531 111.252 
v 63.5001 -19.6652 104.31 
v 58.3274 -14.4056 103.182 
v 66.9461 -15.104 110.459 
v 61.0981 -9.93426 109.181 
v 64.1754 -19.5754 104.46 
v 64.8505 -9.36058 103.734 
v 64.8236 -19.4488 115.823 
v 65.7064 -9.42604 115.643 
v 63.9677 -19.3833 103.914 
v 57.0396 -11.944 102.228 
v 64.1481 -16.6872 115.129 
v 57.0864 -8.94061 113.793 
v 64.1013 -19.6905 103.564 
v 65.3956 -14.4309 97.713 
v 58.001 -15.1293 109.571 
v 59.4672 -9.95955 102.954 
v 63.9295 -19.6007 104.329 
v 65.3807 -9.69816 105.358 
v 52.8096 -19.1502 109.362 
v 53.7862 -9.23181 110.834 
v 64.404 -19.6165 103.886 
v 61.0109 -11.9637 97.0269 
v 55.7171 -16.7069 113.451 
v 52.852 -8.96034 106.924 
v 63.876 -19.7102 103.554 
v 68.7152 -14.4506 99.5516 
v 56.3335 -15.149 104.021 
v 61.8069 -9.97929 99.4981 
v 63.2418 -19.6204 104.075 
v 66.3719 -9.66343 103.361 
v 53.6529 -17.6491 100.267 
v 56.2703 -7.84414 99.4877 
v 63.7546 -19.4684 104.14 
v 60.1766 -6.42232 108.719 
v 74.9247 -13.0209 102.81 
v 71.6872 -3.84465 107.226 
v 63.4141 -15.5986 104.303 
v 58.731 -10.7226 101.365 
v 67.3559 -9.89462 108.619 
v 61.9879 -5.12734 105.566 
v 64.099 -15.4899 104.418 
v 64.9109 -5.46041 103.186 
v 64.7697 -15.2098 115.698 
v 65.768 -5.19983 115.091 
v 63.9126 -15.4703 103.793 
v 58.9404 -6.42232 103.323 
v 66.0102 -13.0209 115.153 
v 61.5366 -3.84465 114.173 
v 65.6794 -10.7226 98.0509 
v 59.7813 -9.89462 110.521 
v 62.0829 -5.12734 103.518 
v 63.3779 -15.4899 105.054 
v 64.6168 -5.46041 105.236 
v 52.8799 -15.2098 111.579 
v 53.553 -5.19983 112.272 
v 63.9436 -15.4703 104.542 
v 63.4196 -6.42232 99.3548 
v 54.1091 -13.0209 113.315 
v 54.1147 -3.84465 108.366 
v 69.517 -10.7226 102.779 
v 57.0731 -9.89462 104.474 
v 63.8627 -5.12734 102.536 
v 62.7274 -15.4899 104.717 
v 62.8076 -5.46041 106.033 
v 54.7561 -15.2098 98.3747 
v 54.2616 -5.19983 99.4452 
v 63.3021 -15.4703 104.963 
v 68.1662 -6.42232 102.141 
v 54.6352 -13.0209 98.6197 
v 59.3874 -3.84465 96.457 
v 64.96 -10.7226 109.953 
v 63.1654 -9.89462 97.8136 
v 65.1175 -5.12734 103.993 
v 63.008 -15.4899 103.773 
v 61.7449 -5.46041 104.433 
v 68.9912 -15.2098 92.7425 
v 67.9566 -5.19983 92.6997 
v 62.7795 -15.4703 104.476 
v 66.4199 -6.42232 107.534 
v 66.5041 -13.0209 92.3226 
v 69.5098 -3.84465 95.5537 
v 58.7188 -10.7226 109.301 
v 69.1528 -9.89462 100.033 
v 64.0762 -5.12734 105.75 
v 63.7953 -15.4899 103.583 
v 62.9204 -5.46041 102.777 
v 74.9983 -15.2098 102.491 
v 74.8027 -5.19983 101.469 
v 63.1161 -15.4703 103.8 
v 72.4357 -3.79775 102.46 
v 57.1353 -5.42012 98.8067 
v 65.4217 1.82522 96.9085 
v 64.1493 -11.043 104.358 
v 67.5155 -7.46152 110.144 
v 66.4063 -5.1045 98.0561 
v 70.0965 -1.79581 104.366 
v 63.8253 -10.7702 103.835 
v 66.8041 -1.08979 104.812 
v 69.7233 -11.4464 92.7973 
v 72.9199 -1.79616 93.071 
v 63.6075 -10.7399 104.538 
v 56.6625 -5.14877 112.246 
v 70.5149 -2.97257 99.7013 
v 63.0281 2.92169 107.59 
v 55.8364 -10.1702 105.32 
v 64.6786 -3.95011 108.33 
v 55.8749 -3.54789 109.417 
v 64.6402 -10.5725 104.233 
v 57.4348 -2.50962 106.263 
v 69.3474 -8.60572 113.329 
v 62.543 -0.380027 115.795 
v 64.2392 -10.7353 103.797 
v 79.5885 -12.2172 92.4786 
v 73.3049 -16.9603 79.007 
v 80.1922 -9.21378 80.7858 
v 72.7011 -19.9637 90.6998 
v 71.0962 -14.7041 96.536 
v 79.0532 -15.4025 84.9983 
v 77.2359 -10.2327 91.5974 
v 72.9135 -19.8738 89.9369 
v 69.8028 -10.5199 93.3715 
v 83.7015 -17.076 84.565 
v 80.8117 -7.56763 87.8196 
v 72.6926 -20.0283 90.1168 
v 74.6374 -11.9637 97.8152 
v 82.3573 -16.7069 81.9599 
v 84.009 -8.96034 89.1385 
v 72.9857 -19.7102 90.6366 
v 67.7334 -14.4506 93.8731 
v 80.2264 -15.149 91.4908 
v 74.2863 -9.97929 95.1482 
v 73.6735 -19.6204 90.2157 
v 70.9224 -9.63755 89.9557 
v 82.1498 -17.6999 95.8308 
v 79.8778 -7.84607 95.7163 
v 73.1944 -19.4913 90.0702 
v 67.106 -11.9187 97.04 
v 83.0422 -16.6619 93.134 
v 77.4564 -8.91531 99.6239 
v 72.6918 -19.6652 90.5501 
v 68.2749 -14.4056 87.9748 
v 74.2572 -15.104 97.7842 
v 69.2643 -9.93426 94.8697 
v 73.2677 -19.5754 90.8893 
v 74.067 -9.36058 90.3325 
v 70.958 -19.4488 102.685 
v 71.807 -9.42604 102.743 
v 73.218 -19.3833 90.2742 
v 67.3472 -11.944 86.6448 
v 70.5207 -16.6872 101.79 
v 64.4391 -8.94061 98.4813 
v 73.4288 -19.6905 89.9535 
v 76.0988 -14.4309 84.3273 
v 66.3482 -15.1293 94.4161 
v 69.3697 -9.95955 88.055 
v 73.0773 -19.6007 90.6884 
v 74.1347 -9.69816 92.1392 
v 61.6799 -19.1502 92.7747 
v 62.1925 -9.23181 94.5486 
v 73.622 -19.6165 90.3653 
v 72.2859 -11.9637 82.4199 
v 63.281 -16.7069 97.7549 
v 62.3404 -8.96034 90.2943 
v 73.2266 -19.7102 89.8805 
v 78.6489 -14.4506 87.1199 
v 66.2474 -15.149 88.2844 
v 72.3795 -9.97929 85.1652 
v 72.5168 -19.6204 90.2391 
v 75.5458 -9.66343 90.37 
v 64.7673 -17.6491 83.7086 
v 67.3465 -7.84414 83.6319 
v 72.9665 -19.4684 90.4467 
v 68.5441 -6.42232 94.1441 
v 83.4651 -13.0209 92.1588 
v 79.394 -3.84465 95.783 
v 72.6152 -15.5986 90.5199 
v 69.1055 -10.7226 86.2283 
v 75.0993 -9.89462 96.0158 
v 70.996 -5.12734 91.4185 
v 73.2089 -15.4899 90.8255 
v 74.2618 -5.46041 89.7889 
v 70.9408 -15.2098 102.542 
v 72.0039 -5.19983 102.196 
v 73.1987 -15.4703 90.1356 
v 68.7966 -6.42232 88.2872 
v 72.2081 -13.0209 102.327 
v 68.3895 -3.84465 100.094 
v 76.2707 -10.7226 84.7508 
v 67.7249 -9.89462 95.8775 
v 71.605 -5.12734 89.3504 
v 72.3906 -15.4899 91.2779 
v 73.4712 -5.46041 91.8038 
v 61.178 -15.2098 95.0612 
v 61.6134 -5.19983 95.9551 
v 73.0359 -15.4703 90.91 
v 73.8828 -6.42232 85.4623 
v 61.8532 -13.0209 97.1739 
v 63.1208 -3.84465 92.1163 
v 78.5548 -10.7226 90.6397 
v 66.8046 -9.89462 88.95 
v 73.4742 -5.12734 88.8362 
v 71.8852 -15.4899 90.7535 
v 71.6223 -5.46041 92.1215 
v 66.2534 -15.2098 82.0775 
v 65.5306 -5.19983 83.0359 
v 72.3452 -15.4703 91.1631 
v 77.4891 -6.42232 89.6159 
v 66.0809 -13.0209 82.2947 
v 70.9548 -3.84465 81.3907 
v 72.5798 -10.7226 96.7211 
v 74.0448 -9.89462 83.8168 
v 74.2436 -5.12734 90.6713 
v 72.3811 -15.4899 89.8665 
v 71.0639 -5.46041 90.1938 
v 80.6371 -15.2098 80.2346 
v 79.7071 -5.19983 79.9063 
v 71.9939 -15.4703 90.5222 
v 74.5246 -6.42232 94.6499 
v 78.4823 -13.0209 79.1212 
v 80.3916 -3.84465 83.2513 
v 67.0699 -10.7226 94.3375 
v 78.924 -9.89462 87.7326 
v 72.8482 -5.12734 92.1814 
v 73.1456 -15.4899 89.8887 
v 72.5556 -5.46041 88.824 
v 83.6135 -15.2098 91.8533 
v 83.6963 -5.19983 90.7542 
v 72.4727 -15.4703 89.9233 
v 81.2906 -3.79775 91.1166 
v 68.3071 -5.42012 83.1736 
v 76.3278 1.82522 83.5119 
v 73.2699 -11.043 90.7783 
v 74.8552 -7.46152 97.6194 
v 76.9305 -5.1045 84.956 
v 78.6769 -1.79581 92.4215 
v 73.1088 -10.7702 90.1538 
v 75.5687 -1.08979 91.9723 
v 81.289 -11.4464 80.492 
v 84.1265 -1.79616 81.651 
v 72.7312 -10.7399 90.8133 
v 64.4481 -5.14877 96.7837 
v 80.2475 -2.97257 87.7681 
v 71.4257 2.92169 93.7735 
v 65.464 -10.1702 89.4752 
v 72.738 -3.95011 94.9842 
v 64.4538 -3.54789 93.6739 
v 73.7482 -10.5725 90.7854 
v 66.677 -2.50962 90.8793 
v 75.7087 -8.60572 101.379 
v 68.8909 -0.380027 102.029 
v 73.4949 -10.7353 90.2291 
v 70.2135 -12.5081 106.853 
v 75.8477 -17.0255 91.3061 
v 78.2938 -9.6478 97.6939 
v 67.7675 -19.8858 100.465 
v 63.0479 -14.8766 104.104 
v 74.8975 -15.5418 100.334 
v 69.5596 -10.6182 104.447 
v 68.3858 -19.8002 99.9913 
v 64.4676 -10.8918 100.582 
v 77.633 -17.1356 103.305 
v 73.9506 -8.08 103.907 
v 68.15 -19.9474 99.9808 
v 64.0636 -12.2667 107.687 
v 78.6545 -16.7841 100.206 
v 74.7588 -9.40643 107.277 
v 67.9593 -19.6444 100.617 
v 63.0448 -14.6353 99.513 
v 71.2053 -15.3004 106.499 
v 65.6491 -10.3768 105.248 
v 68.6009 -19.5588 100.764 
v 67.3247 -10.0514 98.5819 
v 69.337 -17.7298 111.436 
v 68.2166 -8.3452 109.716 
v 68.4452 -19.4359 100.302 
v 60.612 -12.2239 101.662 
v 71.5972 -16.7412 109.862 
v 64.3473 -9.36351 111.188 
v 67.8619 -19.6015 100.336 
v 67.2456 -14.5924 95.0624 
v 63.8839 -15.2575 107.39 
v 63.1894 -10.334 101.426 
v 67.94 -19.516 101.026 
v 68.7306 -9.78757 101.141 
v 58.8932 -19.3954 109.049 
v 59.3015 -9.84994 109.704 
v 68.3222 -19.333 100.486 
v 67.64 -12.248 93.3075 
v 59.257 -16.7653 108.002 
v 58.2509 -9.38763 100.935 
v 68.6461 -19.6256 100.374 
v 73.7872 -14.6165 97.6695 
v 61.9549 -15.2816 98.9671 
v 67.7689 -10.358 95.9116 
v 67.9731 -19.5401 100.725 
v 67.5669 -10.1091 102.672 
v 60.5862 -19.1111 94.28 
v 59.6785 -9.66496 96.1019 
v 68.4745 -19.5552 100.85 
v 73.0455 -12.2667 93.3764 
v 58.1232 -16.7841 99.5108 
v 62.5806 -9.40637 92.7181 
v 68.5881 -19.6444 100.169 
v 73.2761 -14.6352 101.785 
v 65.9724 -15.3004 93.8654 
v 71.2722 -10.3768 95.6952 
v 67.9763 -19.5588 99.9553 
v 69.4845 -10.076 102.23 
v 68.2306 -17.6815 89.0529 
v 69.6398 -8.34333 90.8357 
v 68.0752 -19.4141 100.447 
v 63.2918 -6.98927 100.316 
v 72.4674 -13.2736 109.365 
v 67.9175 -4.53433 109.424 
v 67.8417 -15.7285 100.256 
v 68.8424 -11.0848 94.2242 
v 65.5014 -10.2962 106.542 
v 66.3924 -5.75594 99.8344 
v 67.9514 -15.625 100.932 
v 69.194 -6.07315 100.835 
v 58.9787 -15.3582 108.919 
v 59.7687 -5.82498 109.396 
v 68.404 -15.6064 100.358 
v 67.3128 -6.98927 95.692 
v 59.7893 -13.2736 109.649 
v 59.2605 -4.53433 105.085 
v 73.5966 -11.0848 98.1399 
v 61.7096 -10.2962 101.151 
v 68.086 -5.75594 98.5739 
v 67.2202 -15.625 100.717 
v 67.4401 -6.07315 101.922 
v 58.804 -15.3582 95.7964 
v 58.4399 -5.82498 96.8411 
v 67.8042 -15.6064 100.877 
v 71.8667 -6.98927 97.0146 
v 57.757 -13.2736 98.0124 
v 61.7821 -4.53433 94.7711 
v 70.8899 -11.0848 104.605 
v 65.8239 -10.2962 94.8102 
v 69.4117 -5.75594 99.4897 
v 67.3021 -15.625 99.9253 
v 66.2556 -6.07315 100.859 
v 70.096 -15.3582 88.7785 
v 69.0791 -5.82498 89.0473 
v 67.2725 -15.6064 100.59 
v 71.0084 -6.98927 103.002 
v 69.861 -13.2736 88.8332 
v 73.0277 -4.53433 91.5796 
v 63.7063 -11.0848 105.317 
v 73.0444 -10.2962 95.7808 
v 68.5987 -5.75594 101.546 
v 68.1521 -15.625 99.5526 
v 67.2412 -6.07315 98.8784 
v 78.894 -15.3582 97.5602 
v 78.6222 -5.82498 96.6253 
v 67.513 -15.6064 99.8134 
v 66.1054 -6.98927 105.01 
v 78.4983 -13.2736 95.1049 
v 76.7621 -4.53433 99.8589 
v 62.3871 -11.0848 99.4191 
v 73.0143 -10.2962 102.485 
v 66.8614 -5.75594 101.786 
v 68.54 -15.625 100.118 
v 68.9361 -6.07315 98.8224 
v 72.7482 -15.3582 109.22 
v 73.5216 -5.82498 108.378 
v 68.1627 -15.6064 99.6647 
v 72.014 -4.48966 106.954 
v 70.4498 -6.03473 91.1472 
v 74.449 0.865533 97.1646 
v 68.0149 -11.3899 100.937 
v 64.3083 -7.97899 107.682 
v 73.8078 -5.73416 98.7804 
v 69.7714 -2.58305 106.154 
v 68.3446 -11.1301 100.309 
v 68.4328 -1.91064 103.561 
v 79.0664 -11.7741 98.2377 
v 79.7913 -2.5834 101.219 
v 67.708 -11.1013 100.58 
v 59.3825 -5.77632 99.5494 
v 73.6878 -3.70376 103.461 
v 65.0554 1.90977 102.074 
v 64.7693 -10.5586 94.2815 
v 64.9427 -4.63482 104.006 
v 61.45 -4.25168 97.0026 
v 68.262 -10.9417 101.285 
v 64.476 -3.26283 96.3013 
v 62.2618 -9.06867 111.377 
v 58.2398 -1.23466 107.032 
v 68.4979 -11.0968 100.647 
v 72.7106 -12.5081 93.3264 
v 87.7364 -17.0255 87.8025 
v 83.0442 -9.6478 94.4537 
v 77.4028 -19.8858 86.6753 
v 72.8278 -14.8766 84.8384 
v 79.7334 -15.5418 93.1467 
v 74.5616 -10.6182 91.0671 
v 77.9997 -19.8002 86.9179 
v 76.2758 -10.8918 83.7192 
v 78.0483 -17.1356 97.7107 
v 76.3888 -8.08 94.7362 
v 77.9353 -19.9474 86.6938 
v 70.0847 -12.2667 88.2414 
v 81.0117 -16.7841 96.5162 
v 73.7634 -9.40643 97.8012 
v 77.3329 -19.6444 86.9564 
v 76.7461 -14.6353 81.6732 
v 73.3213 -15.3004 93.9955 
v 72.6602 -10.3768 88.0206 
v 77.4072 -19.5588 87.6481 
v 78.8727 -10.0514 84.9707 
v 68.5257 -17.7298 95.6764 
v 69.6453 -8.3452 93.4606 
v 77.7533 -19.4359 87.1864 
v 74.1546 -12.2239 80.9145 
v 70.5723 -16.7412 96.6726 
v 67.1842 -9.36351 90.914 
v 77.5427 -19.6015 86.6731 
v 81.8527 -14.5924 82.4735 
v 70.2827 -15.2575 87.8711 
v 75.1578 -10.334 83.1241 
v 76.9776 -19.516 87.2205 
v 77.1253 -9.78757 88.0274 
v 67.3134 -19.3954 84.4209 
v 66.8811 -9.84994 85.2481 
v 77.5577 -19.333 87.2002 
v 83.4736 -12.248 81.6277 
v 68.3207 -16.7653 84.0344 
v 74.04 -9.38763 78.2412 
v 77.7543 -19.6256 87.4209 
v 81.6627 -14.6165 90.2895 
v 76.8729 -15.2816 80.2942 
v 81.2906 -10.358 83.5401 
v 77.245 -19.5401 87.0436 
v 75.4566 -10.1091 88.0106 
v 80.4484 -19.1111 75.806 
v 78.6106 -9.66496 76.2257 
v 77.2945 -19.5552 87.5909 
v 85.097 -12.2667 86.6497 
v 75.2164 -16.7841 77.1424 
v 82.4024 -9.40637 76.5656 
v 77.9109 -19.6444 87.2266 
v 77.9902 -14.6352 92.6541 
v 82.4785 -15.3004 80.4773 
v 82.5656 -10.3768 86.615 
v 77.903 -19.5588 86.5163 
v 76.4302 -10.076 89.4713 
v 87.2896 -17.6815 79.2406 
v 86.2062 -8.34333 81.7654 
v 77.5136 -19.4141 86.9464 
v 76.1378 -6.98927 82.4533 
v 71.2676 -13.2736 97.1309 
v 69.801 -4.53433 92.9846 
v 77.6044 -15.7285 86.5996 
v 83.0652 -11.0848 83.3657 
v 71.5099 -10.2962 88.7756 
v 77.5133 -5.75594 84.9754 
v 77.0618 -15.625 87.1659 
v 77.5312 -6.07315 88.2428 
v 67.4504 -15.3582 84.4106 
v 67.2896 -5.82498 85.4657 
v 77.692 -15.6064 87.1876 
v 81.3362 -6.98927 82.9691 
v 67.0795 -13.2736 85.6594 
v 70.8113 -4.53433 82.0289 
v 81.2018 -11.0848 90.4381 
v 74.9321 -10.2962 81.5729 
v 79.1165 -5.75594 85.6657 
v 77.0174 -15.625 86.3453 
v 76.0574 -6.07315 87.3774 
v 78.5993 -15.3582 75.2104 
v 77.5941 -5.82498 75.5949 
v 77.0626 -15.6064 86.9929 
v 81.6241 -6.98927 88.071 
v 76.3816 -13.2736 75.7734 
v 80.4013 -4.53433 77.2448 
v 74.8404 -11.0848 92.4004 
v 81.6257 -10.2962 80.9915 
v 78.7472 -5.75594 87.5166 
v 77.7189 -15.625 85.8752 
v 76.5959 -6.07315 85.5554 
v 88.1044 -15.3582 80.7682 
v 87.5584 -5.82498 80.0175 
v 77.1419 -15.6064 86.306 
v 76.2453 -6.98927 91.4056 
v 87.9845 -13.2736 80.5896 
v 86.6254 -4.53433 85.3957 
v 71.9967 -11.0848 86.2802 
v 83.0439 -10.2962 88.3049 
v 76.7391 -5.75594 88.1845 
v 78.3015 -15.625 86.4007 
v 78.5936 -6.07315 85.098 
v 83.3452 -15.3582 94.9139 
v 84.0587 -5.82498 94.0198 
v 77.8801 -15.6064 85.9921 
v 73.0055 -6.98927 88.2765 
v 85.3182 -13.2736 92.8585 
v 80.7193 -4.53433 94.5354 
v 76.6215 -11.0848 81.0033 
v 77.3116 -10.2962 92.8949 
v 75.9935 -5.75594 86.7511 
v 77.9396 -15.625 87.1471 
v 79.1689 -6.07315 86.6192 
v 71.4783 -15.3582 97.2898 
v 72.438 -5.82498 97.4214 
v 78.2092 -15.6064 86.4876 
v 73.1848 -4.48966 95.053 
v 86.1923 -6.03473 82.7254 
v 82.2997 0.865533 90.5508 
v 77.0773 -11.3899 87.2277 
v 70.1649 -7.97899 88.4633 
v 80.7207 -5.73416 91.0736 
v 73.17 -2.58305 92.438 
v 77.7157 -11.1301 87.0989 
v 74.9669 -1.91064 89.4201 
v 82.8204 -11.7741 95.5393 
v 80.5008 -2.5834 98.2599 
v 77.2865 -11.1013 86.6995 
v 75.5753 -5.77632 78.3279 
v 76.6877 -3.70376 94.1871 
v 75.1857 1.90977 85.2874 
v 81.7488 -10.5586 79.6568 
v 73.5011 -4.63482 86.5146 
v 78.3929 -4.25168 78.4763 
v 76.857 -10.9417 87.695 
v 79.9332 -3.26283 80.7781 
v 66.3737 -9.06867 89.125 
v 68.8322 -1.23466 82.4302 
v 77.4748 -11.0968 87.4729 

vn 0.330709 -0.76378 -0.559055 
vn -0.307087 -0.80315 -0.503937 
vn 0.669291 -0.661417 -0.330709 
vn -0.708661 -0.645669 0.299213 
vn -0.0708661 0.992126 -0.0708661 
vn -0.866142 0.480315 -0.133858 
vn 0.826772 -0.425197 0.362205 
vn 0.826772 -0.425197 0.362205 
vn 0.653543 -0.149606 0.740157 
vn 0.653543 -0.149606 0.740157 
vn 0.653543 -0.149606 0.740157 
vn -0.330709 -0.795276 0.503937 
vn 0.724409 -0.598425 0.338583 
vn 0.724409 -0.598425 0.338583 
vn 0.724409 -0.598425 0.338583 
vn -0.779528 0.409449 -0.472441 
vn 0.354331 -0.440945 0.826772 
vn 0.354331 -0.440945 0.826772 
vn 0.354331 -0.440945 0.826772 
vn 0.354331 -0.440945 0.826772 
vn 0.944882 -0.149606 -0.291339 
vn 0.984252 -0.015748 -0.181102 
vn 0.417323 -0.0393701 0.905512 
vn 0.645669 -0.0866142 -0.755906 
vn 0.19685 -0.622047 0.755906 
vn 0.19685 -0.622047 0.755906 
vn 0.023622 0.929134 0.377953 
vn 0.692913 0.299213 0.653543 
vn -0.582677 -0.503937 0.637795 
vn -0.582677 -0.503937 0.637795 
vn -0.582677 -0.503937 0.637795 
vn -0.535433 -0.590551 0.606299 
vn -0.992126 0.0866142 0.0708661 
vn -0.944882 0.322835 0.0472441 
vn -0.850394 0.110236 -0.511811 
vn 0.992126 -0.00787402 0.149606 
vn 0.708661 0.653543 -0.259843 
vn -0.291339 0.952756 0.0708661 
vn 0.141732 0.984252 0.125984 
vn -0.740157 -0.645669 0.173228 
vn -0.755906 -0.425197 -0.496063 
vn -0.755906 -0.425197 -0.496063 
vn -0.76378 0.275591 -0.582677 
vn -0.755906 -0.425197 -0.496063 
vn -0.417323 0.173228 -0.889764 
vn -0.417323 0.173228 -0.889764 
vn -0.417323 0.173228 -0.889764 
vn -0.417323 0.173228 -0.889764 
vn 0.377953 -0.834646 -0.401575 
vn 0.858268 0.330709 0.385827 
vn 0.834646 -0.307087 0.456693 
vn -0.700787 -0.590551 -0.393701 
vn 0.952756 0.251969 0.181102 
vn -0.283465 -0.448819 -0.850394 
vn -0.283465 -0.448819 -0.850394 
vn -0.582677 0.787402 0.181102 
vn 0.330709 -0.165354 -0.929134 
vn 0.330709 -0.165354 -0.929134 
vn 0.330709 -0.165354 -0.929134 
vn 0.330709 -0.165354 -0.929134 
vn 0.19685 -0.370079 0.905512 
vn 0.19685 -0.370079 0.905512 
vn 0.19685 -0.370079 0.905512 
vn 0.19685 -0.370079 0.905512 
vn 0.629921 0.110236 -0.76378 
vn 0.629921 0.141732 -0.76378 
vn 0.629921 0.102362 -0.76378 
vn 0.614173 0.244094 -0.748031 
vn -0.88189 -0.464567 0.0551181 
vn -0.992126 0.102362 0.0708661 
vn -0.992126 0.102362 0.0708661 
vn 0.472441 0.0314961 0.88189 
vn -0.779528 -0.133858 0.614173 
vn 0.866142 -0.417323 0.275591 
vn -0.897638 0.251969 0.354331 
vn -0.897638 -0.173228 -0.409449 
vn -0.897638 -0.173228 -0.409449 
vn -0.897638 -0.173228 -0.409449 
vn -0.771654 0.472441 -0.425197 
vn -0.84252 -0.181102 -0.503937 
vn -0.535433 0.0944882 -0.84252 
vn -0.535433 0.0944882 -0.84252 
vn 0.338583 -0.0944882 0.937008 
vn -0.700787 -0.338583 -0.629921 
vn -0.700787 -0.338583 -0.629921 
vn -0.700787 -0.338583 -0.629921 
vn -0.141732 -0.188976 -0.968504 
vn -0.141732 -0.188976 -0.968504 
vn -0.141732 -0.188976 -0.968504 
vn 0.574803 0.472441 0.669291 
vn 0.606299 0.110236 -0.787402 
vn 0.606299 0.110236 -0.787402 
vn 0.653543 -0.023622 -0.755906 
vn 0.606299 0.110236 -0.787402 
vn -0.692913 0.622047 0.370079 
vn 0.409449 -0.409449 -0.818898 
vn 0.409449 -0.409449 -0.818898 
vn 0.968504 -0.19685 -0.15748 
vn 0.968504 -0.19685 -0.15748 
vn 0.818898 0.0708661 0.574803 
vn 0.968504 -0.19685 -0.15748 
vn 0.181102 -0.0708661 0.984252 
vn 0.472441 -0.0866142 0.874016 
vn 0.645669 -0.322835 0.692913 
vn 0.393701 -0.0629921 0.913386 
vn 0.92126 -0.362205 0.15748 
vn 0.0708661 -0.0708661 0.992126 
vn 0.92126 -0.362205 0.15748 
vn 0.779528 0.165354 0.606299 
vn 0.661417 -0.173228 0.732283 
vn 0.88189 -0.204724 0.417323 
vn 0.661417 -0.173228 0.732283 
vn 0.110236 0.102362 0.992126 
vn 0.110236 0.102362 0.992126 
vn 0.110236 0.102362 0.992126 
vn 0.110236 0.102362 0.992126 
vn 0.251969 -0.503937 -0.826772 
vn 0.251969 -0.503937 -0.826772 
vn 0.251969 -0.503937 -0.826772 
vn 0.551181 -0.834646 0.015748 
vn 0.811024 -0.559055 -0.181102 
vn 0.811024 -0.559055 -0.181102 
vn 0.811024 -0.559055 -0.181102 
vn 0.811024 -0.559055 -0.181102 
vn 0.84252 -0.291339 0.456693 
vn 0.84252 -0.291339 0.456693 
vn 0.84252 -0.291339 0.456693 
vn 0.92126 0.23622 0.307087 
vn -0.76378 -0.0787402 -0.637795 
vn -0.598425 -0.165354 -0.779528 
vn 0.677165 -0.472441 0.559055 
vn 0.472441 0.606299 0.645669 
vn -0.11811 -0.826772 0.551181 
vn 0.0787402 -0.527559 0.850394 
vn 0.0787402 -0.527559 0.850394 
vn -0.401575 -0.84252 -0.354331 
vn -0.606299 -0.645669 0.464567 
vn -0.511811 0.787402 0.346457 
vn -0.244094 -0.937008 0.251969 
vn -0.913386 -0.251969 0.322835 
vn 0.0393701 -0.425197 0.905512 
vn 0.96063 -0.149606 -0.220472 
vn -0.582677 -0.685039 0.440945 
vn 0.732283 -0.417323 0.535433 
vn -0.448819 -0.740157 -0.503937 
vn 0.732283 -0.417323 0.535433 
vn 0.732283 -0.417323 0.535433 
vn 0.480315 -0.149606 0.866142 
vn 0.480315 -0.149606 0.866142 
vn 0.480315 -0.149606 0.866142 
vn 0.96063 0.0787402 0.259843 
vn -0.346457 0.874016 -0.338583 
vn 0.401575 0.897638 0.188976 
vn 0.299213 0.952756 -0.0708661 
vn -0.685039 0.377953 -0.622047 
vn 0.330709 0.84252 0.425197 
vn 0.141732 -0.456693 0.874016 
vn 0.393701 0.905512 -0.173228 
vn 0.614173 0.527559 0.590551 
vn -0.519685 -0.110236 0.84252 
vn -0.519685 -0.110236 0.84252 
vn -0.519685 -0.110236 0.84252 
vn -0.519685 -0.110236 0.84252 
vn 0.889764 -0.283465 -0.354331 
vn -0.00787402 -0.645669 0.76378 
vn -0.00787402 -0.645669 0.76378 
vn -0.00787402 -0.645669 0.76378 
vn -0.755906 -0.488189 0.425197 
vn -0.755906 -0.488189 0.425197 
vn -0.535433 -0.700787 0.472441 
vn -0.755906 -0.488189 0.425197 
vn -0.984252 0.0866142 -0.181102 
vn -0.984252 0.0866142 -0.181102 
vn -0.984252 0.0866142 -0.181102 
vn -0.826772 -0.19685 -0.527559 
vn 0.976378 -0.00787402 0.19685 
vn -0.283465 -0.11811 -0.952756 
vn -0.779528 -0.622047 -0.0314961 
vn -0.889764 -0.204724 -0.401575 
vn -0.637795 -0.425197 -0.645669 
vn -0.637795 -0.425197 -0.645669 
vn -0.637795 -0.425197 -0.645669 
vn -0.637795 -0.425197 -0.645669 
vn -0.188976 0.181102 -0.968504 
vn -0.188976 0.181102 -0.968504 
vn -0.188976 0.181102 -0.968504 
vn -0.188976 0.181102 -0.968504 
vn -0.606299 -0.590551 -0.535433 
vn 0.866142 -0.173228 0.472441 
vn 0.204724 -0.968504 0.11811 
vn -0.606299 -0.590551 -0.535433 
vn -0.0551181 -0.464567 -0.88189 
vn -0.0551181 -0.464567 -0.88189 
vn 0.133858 0.944882 -0.299213 
vn -0.0551181 -0.464567 -0.88189 
vn 0.606299 -0.165354 -0.779528 
vn 0.606299 -0.165354 -0.779528 
vn 0.606299 -0.165354 -0.779528 
vn -0.582677 -0.212598 0.779528 
vn 0.307087 -0.401575 -0.866142 
vn -0.0472441 -0.385827 0.92126 
vn 0.653543 0.00787402 -0.76378 
vn -0.0472441 -0.385827 0.92126 
vn -0.826772 -0.204724 0.519685 
vn -0.826772 -0.204724 0.519685 
vn 0.976378 0.181102 -0.133858 
vn 0.322835 0.291339 -0.897638 
vn -0.976378 0.0944882 -0.181102 
vn 0.795276 0.188976 0.574803 
vn -0.976378 0.0944882 -0.181102 
vn 0.653543 0.015748 0.755906 
vn -0.929134 -0.370079 0.0472441 
vn -0.929134 -0.370079 0.0472441 
vn 0.511811 0.362205 0.779528 
vn -0.787402 -0.173228 -0.590551 
vn -0.787402 -0.173228 -0.590551 
vn -0.787402 -0.173228 -0.590551 
vn -0.755906 0.188976 -0.629921 
vn -0.330709 0.0944882 -0.937008 
vn -0.330709 0.0944882 -0.937008 
vn -0.330709 0.0944882 -0.937008 
vn -0.330709 0.0944882 -0.937008 
vn -0.551181 -0.346457 -0.76378 
vn -0.551181 -0.346457 -0.76378 
vn -0.551181 -0.346457 -0.76378 
vn 0.251969 0.76378 0.590551 
vn 0.125984 -0.19685 -0.968504 
vn 0.125984 -0.19685 -0.968504 
vn 0.125984 -0.19685 -0.968504 
vn 0.826772 0.110236 -0.551181 
vn 0.826772 0.110236 -0.551181 
vn 0.826772 0.110236 -0.551181 
vn -0.314961 -0.377953 0.874016 
vn 0.645669 -0.409449 -0.645669 
vn 0.645669 -0.409449 -0.645669 
vn 0.645669 -0.409449 -0.645669 
vn 0.976378 -0.181102 0.102362 
vn 0.976378 -0.181102 0.102362 
vn 0.976378 -0.181102 0.102362 
vn -0.653543 0.519685 -0.551181 
vn 0.76378 0.0944882 0.645669 
vn 0.76378 0.0944882 0.645669 
vn 0.76378 0.0944882 0.645669 
vn 0.299213 0.858268 -0.425197 
vn 0.866142 -0.346457 0.370079 
vn -0.614173 0.748031 -0.251969 
vn -0.866142 0.0393701 -0.496063 
vn 0.488189 -0.173228 0.858268 
vn 0.488189 -0.173228 0.858268 
vn 0.330709 -0.889764 -0.307087 
vn 0.488189 -0.173228 0.858268 
vn -0.173228 0.110236 0.976378 
vn -0.173228 0.110236 0.976378 
vn -0.173228 0.110236 0.976378 
vn -0.173228 0.110236 0.976378 
vn 0.496063 -0.511811 -0.700787 
vn 0.496063 -0.511811 -0.700787 
vn 0.440945 0.677165 0.590551 
vn 0.834646 -0.503937 0.212598 
vn 0.84252 -0.535433 0.0393701 
vn 0.291339 0.0708661 0.952756 
vn -0.677165 0.456693 0.574803 
vn 0.76378 0.275591 0.590551 
vn -0.748031 -0.0866142 -0.653543 
vn -0.748031 -0.149606 -0.653543 
vn 0.692913 -0.433071 0.574803 
vn -0.755906 0.0393701 -0.653543 
vn -0.267717 -0.944882 0.173228 
vn -0.653543 -0.204724 -0.732283 
vn -0.787402 0.0551181 -0.614173 
vn -0.968504 0.181102 0.165354 
vn -0.425197 0.590551 0.685039 
vn -0.929134 -0.346457 -0.149606 
vn -0.15748 -0.543307 0.826772 
vn -0.732283 -0.629921 0.267717 
vn -0.314961 0.755906 0.574803 
vn -0.897638 0.377953 0.220472 
vn -0.732283 -0.629921 0.267717 
vn 0.685039 -0.590551 0.417323 
vn 0.401575 0.889764 0.204724 
vn -0.606299 0.551181 -0.574803 
vn -0.251969 -0.629921 -0.732283 
vn 0.661417 -0.0944882 0.748031 
vn 0.244094 -0.448819 0.858268 
vn 0.244094 -0.448819 0.858268 
vn 0.244094 -0.448819 0.858268 
vn -0.275591 -0.173228 0.944882 
vn -0.275591 -0.173228 0.944882 
vn -0.275591 -0.173228 0.944882 
vn -0.275591 -0.173228 0.944882 
vn -0.220472 -0.84252 0.488189 
vn 0.19685 -0.622047 0.755906 
vn -0.354331 -0.724409 -0.590551 
vn 0.251969 -0.110236 0.96063 
vn -0.582677 -0.503937 0.637795 
vn -0.582677 -0.503937 0.637795 
vn -0.582677 -0.503937 0.637795 
vn -0.582677 -0.503937 0.637795 
vn -0.952756 -0.244094 -0.19685 
vn -0.992126 -0.102362 0.0944882 
vn 0.330709 -0.937008 0.110236 
vn -0.992126 -0.102362 0.0944882 
vn 0.551181 0.417323 -0.724409 
vn 0.582677 -0.244094 -0.779528 
vn -0.385827 0.92126 -0.0551181 
vn -0.598425 -0.669291 0.433071 
vn -0.866142 -0.433071 -0.259843 
vn -0.866142 -0.433071 -0.259843 
vn -0.866142 -0.433071 -0.259843 
vn -0.866142 -0.433071 -0.259843 
vn -0.669291 0.0787402 -0.740157 
vn -0.669291 0.0787402 -0.740157 
vn 0.551181 0.700787 0.448819 
vn -0.669291 0.0787402 -0.740157 
vn 0.590551 0.519685 0.622047 
vn -0.606299 -0.590551 -0.527559 
vn -0.535433 0.629921 -0.559055 
vn -0.606299 -0.590551 -0.527559 
vn -0.0708661 -0.464567 -0.88189 
vn 0.76378 0.425197 -0.488189 
vn 0.354331 0.606299 -0.708661 
vn 0.370079 -0.125984 -0.92126 
vn 0.629921 0.204724 -0.748031 
vn 0.629921 0.204724 -0.748031 
vn 0.629921 0.204724 -0.748031 
vn 0.692913 0 -0.716535 
vn -0.125984 -0.629921 -0.76378 
vn -0.125984 -0.629921 -0.76378 
vn -0.125984 -0.629921 -0.76378 
vn 0.125984 -0.92126 -0.362205 
vn 0.661417 -0.496063 -0.566929 
vn 0.661417 -0.496063 -0.566929 
vn 0.661417 -0.496063 -0.566929 
vn -0.590551 0.15748 0.795276 
vn 0.992126 -0.149606 -0.00787402 
vn -0.11811 -0.992126 0.0472441 
vn 0.354331 -0.92126 0.181102 
vn 0.968504 -0.173228 0.181102 
vn -0.76378 -0.401575 0.496063 
vn -0.76378 -0.401575 0.496063 
vn 0.480315 -0.480315 -0.740157 
vn 0.00787402 -1 -0.0393701 
vn -0.952756 -0.181102 -0.244094 
vn 0.811024 0.173228 0.566929 
vn -0.952756 -0.181102 -0.244094 
vn -0.952756 -0.181102 -0.244094 
vn -0.669291 0.0944882 -0.740157 
vn -0.669291 0.0944882 -0.740157 
vn -0.669291 0.0944882 -0.740157 
vn -0.535433 -0.181102 -0.826772 
vn -0.755906 -0.338583 -0.559055 
vn -0.755906 -0.338583 -0.559055 
vn -0.755906 -0.338583 -0.559055 
vn -0.251969 -0.181102 -0.952756 
vn -0.251969 -0.181102 -0.952756 
vn 0.795276 -0.0708661 0.598425 
vn -0.251969 -0.181102 -0.952756 
vn 0.488189 0.110236 -0.866142 
vn 0.488189 0.110236 -0.866142 
vn 0.488189 0.110236 -0.866142 
vn 0.622047 0.023622 -0.779528 
vn 0.110236 -0.393701 -0.913386 
vn 0.110236 -0.393701 -0.913386 
vn 0.110236 -0.393701 -0.913386 
vn 0.866142 -0.204724 -0.464567 
vn -0.755906 0.629921 0.173228 
vn -0.267717 0.251969 0.929134 
vn -0.787402 0.015748 0.614173 
vn 0.968504 0.0944882 0.23622 
vn -0.15748 -0.251969 -0.952756 
vn 0.968504 0.0944882 0.23622 
vn 0.968504 0.0944882 0.23622 
vn 0.929134 -0.362205 0.0866142 
vn -0.133858 0.566929 0.811024 
vn -0.188976 -0.976378 -0.0787402 
vn 0.708661 -0.173228 0.685039 
vn 0.708661 -0.173228 0.685039 
vn 0.708661 -0.173228 0.685039 
vn 0.748031 0.0629921 0.661417 
vn 0.188976 0.102362 0.976378 
vn 0.188976 0.102362 0.976378 
vn 0.188976 0.102362 0.976378 
vn -0.937008 -0.00787402 -0.354331 
vn -0.629921 0.740157 -0.23622 
vn 0.472441 -0.346457 0.811024 
vn 0.488189 0.866142 0.0787402 
vn 0.314961 0.354331 -0.88189 
vn 0.732283 0.023622 -0.685039 
vn -0.653543 -0.755906 0.023622 
vn -0.259843 -0.204724 0.944882 
vn -0.850394 -0.496063 0.181102 
vn 0.11811 -0.637795 -0.76378 
vn -0.267717 -0.937008 -0.228346 
vn 0.984252 0.0472441 0.181102 
vn 0.283465 0.212598 0.937008 
vn -0.952756 -0.0393701 0.307087 
vn 0.88189 -0.472441 -0.0393701 
vn -0.496063 0.307087 0.811024 
vn 0.653543 -0.496063 0.566929 
vn -0.716535 0.385827 -0.582677 
vn 0.0708661 -0.992126 0.0866142 
vn 0.653543 -0.496063 0.566929 
vn 0.173228 -0.314961 0.929134 
vn 0.173228 -0.314961 0.929134 
vn 0.173228 -0.314961 0.929134 
vn 0.173228 -0.314961 0.929134 
vn -0.244094 -0.133858 0.96063 
vn -0.889764 -0.440945 0.110236 
vn -0.88189 -0.015748 -0.472441 
vn -0.755906 -0.551181 0.346457 
vn 0.661417 -0.740157 -0.110236 
vn -0.755906 -0.551181 0.346457 
vn -0.755906 -0.551181 0.346457 
vn 0.417323 0.850394 0.314961 
vn -0.755906 -0.566929 -0.330709 
vn -0.370079 -0.929134 -0.00787402 
vn -0.125984 0.984252 0.102362 
vn 0.0944882 -0.629921 0.771654 
vn 0.0944882 -0.629921 0.771654 
vn 0.0944882 -0.629921 0.771654 
vn 0.015748 -0.716535 -0.700787 
vn -0.685039 -0.496063 0.527559 
vn -0.685039 -0.496063 0.527559 
vn -0.685039 -0.496063 0.527559 
vn -0.669291 0.19685 0.716535 
vn -0.984252 -0.165354 0.0551181 
vn 0.897638 0.401575 0.15748 
vn -0.984252 -0.165354 0.0551181 
vn 0.929134 0.338583 0.15748 
vn -0.606299 -0.669291 0.433071 
vn -0.606299 -0.669291 0.433071 
vn 0.0472441 0.984252 -0.149606 
vn 0.559055 -0.0393701 -0.826772 
vn 0.181102 0.543307 0.818898 
vn -0.779528 -0.283465 -0.559055 
vn 0.96063 -0.141732 0.251969 
vn -0.858268 -0.433071 -0.259843 
vn -0.748031 0.015748 -0.661417 
vn -0.748031 0.015748 -0.661417 
vn -0.795276 -0.0314961 -0.598425 
vn 0.204724 0.275591 0.937008 
vn 0.590551 -0.755906 0.275591 
vn -0.724409 -0.598425 -0.338583 
vn -0.724409 -0.598425 -0.338583 
vn -0.724409 -0.598425 -0.338583 
vn -0.362205 -0.440945 -0.826772 
vn -0.362205 -0.440945 -0.826772 
vn -0.362205 -0.440945 -0.826772 
vn -0.488189 0.874016 -0.015748 
vn 0.259843 0.0944882 -0.96063 
vn 0.259843 0.0944882 -0.96063 
vn 0.259843 0.0944882 -0.96063 
vn -0.976378 0.0472441 -0.212598 
vn 0.299213 -0.0393701 -0.952756 
vn 0.0708661 -0.653543 -0.755906 
vn 0.377953 0.76378 -0.519685 
vn 0.0708661 -0.653543 -0.755906 
vn 0.80315 -0.488189 -0.354331 
vn 0.80315 -0.488189 -0.354331 
vn -0.748031 0.141732 0.653543 
vn 0.80315 -0.488189 -0.354331 
vn 0.952756 0.173228 0.259843 
vn 0.952756 0.173228 0.259843 
vn 0.952756 0.173228 0.259843 
vn -0.944882 -0.110236 0.299213 
vn 0.653543 -0.661417 -0.362205 
vn 0.653543 -0.661417 -0.362205 
vn 0.653543 -0.661417 -0.362205 
vn 0.653543 -0.661417 -0.362205 
vn 0.84252 -0.433071 0.330709 
vn 0.84252 -0.433071 0.330709 
vn 0.84252 -0.433071 0.330709 
vn 0.84252 -0.433071 0.330709 
vn 0.88189 -0.259843 0.401575 
vn -0.76378 -0.133858 -0.629921 
vn -0.740157 -0.0629921 -0.669291 
vn 0.692913 -0.141732 0.708661 
vn -0.149606 -0.976378 -0.15748 
vn -0.834646 -0.346457 -0.425197 
vn -0.834646 -0.346457 -0.425197 
vn 0.88189 -0.417323 0.204724 
vn -0.425197 -0.181102 -0.889764 
vn -0.425197 -0.181102 -0.889764 
vn -0.472441 -0.283465 0.834646 
vn -0.425197 -0.181102 -0.889764 
vn 0.259843 0.110236 -0.96063 
vn 0.259843 0.110236 -0.96063 
vn 0.771654 -0.19685 -0.614173 
vn 0.0708661 -0.338583 0.937008 
vn 0.858268 -0.503937 -0.0866142 
vn -0.00787402 -0.377953 -0.92126 
vn -0.645669 -0.527559 0.543307 
vn 0.787402 -0.204724 -0.574803 
vn 0.787402 -0.204724 -0.574803 
vn 0.614173 0.472441 -0.629921 
vn 0.787402 -0.204724 -0.574803 
vn 0.338583 -0.614173 -0.716535 
vn 0.952756 -0.299213 0.0944882 
vn 0.984252 0.102362 0.133858 
vn 0.519685 0.244094 -0.818898 
vn 0.905512 -0.385827 -0.188976 
vn 0.905512 -0.385827 -0.188976 
vn -0.19685 0.968504 -0.181102 
vn 0.850394 -0.173228 0.496063 
vn 0.850394 -0.173228 0.496063 
vn 0.850394 -0.173228 0.496063 
vn 0.133858 -0.937008 0.322835 
vn 0.448819 0.0944882 0.889764 
vn 0.448819 0.0944882 0.889764 
vn -0.00787402 -0.968504 0.259843 
vn 0.448819 0.0944882 0.889764 
vn 0.527559 -0.346457 0.771654 
vn 0.929134 0.19685 0.307087 
vn 0.527559 -0.346457 0.771654 
vn -0.165354 -0.19685 0.968504 
vn -0.165354 -0.19685 0.968504 
vn -0.165354 -0.19685 0.968504 
vn -0.165354 -0.19685 0.968504 
vn -0.850394 0.110236 0.519685 
vn -0.850394 0.110236 0.519685 
vn -0.850394 0.110236 0.519685 
vn -0.314961 -0.110236 0.944882 
vn -0.496063 -0.409449 0.771654 
vn -0.251969 0.15748 0.952756 
vn -0.165354 0.88189 0.433071 
vn -0.976378 -0.188976 0.0708661 
vn -0.976378 -0.188976 0.0708661 
vn -0.976378 -0.188976 0.0708661 
vn -0.976378 -0.188976 0.0708661 
vn -0.84252 0.0944882 -0.527559 
vn -0.84252 0.0944882 -0.527559 
vn -0.84252 0.0944882 -0.527559 
vn -0.84252 0.0944882 -0.527559 
vn 0.590551 -0.433071 0.677165 
vn -0.614173 -0.102362 0.787402 
vn 0.84252 0.23622 0.480315 
vn 1 -0.015748 -0.00787402 
vn -0.0866142 -0.559055 0.826772 
vn 0.464567 0.488189 0.740157 
vn -0.0866142 -0.559055 0.826772 
vn -0.0866142 -0.559055 0.826772 
vn -0.80315 -0.346457 0.480315 
vn -0.015748 0 -1 
vn 0.622047 -0.15748 -0.76378 
vn -0.80315 -0.346457 0.480315 
vn -0.984252 -0.125984 0.0866142 
vn -0.716535 0.015748 0.692913 
vn -0.559055 0.267717 0.787402 
vn -0.740157 -0.480315 -0.472441 
vn -0.740157 -0.480315 -0.472441 
vn -0.740157 -0.480315 -0.472441 
vn 0.582677 -0.425197 0.692913 
vn -0.220472 -0.590551 -0.771654 
vn -0.220472 -0.590551 -0.771654 
vn -0.220472 -0.590551 -0.771654 
vn -0.220472 -0.590551 -0.771654 

vt 0 0 
vt 1 1 
vt 0 1 
vt 1 0 
vt 0 0 
vt 1 1 
vt 0 1 
vt 1 0 
vt 0 0 
vt 1 1 
vt 0 1 
vt 1 0 
vt 0 0 
vt 1 1 
vt 0 1 
vt 1 0 
vt 0 0 
vt 1 1 
vt 0 1 
vt 1 0 
vt 0 0 
vt 1 1 
vt 0 1 
vt 1 0 
vt 0 0 
vt 1 1 
vt 0 1 
vt 1 0 
vt 0 0 
vt 1 1 
vt 0 1 
vt 1 0 
vt 0 0 
vt 1 1 
vt 0 1 
vt 1 0 
vt 0 0 
vt 1 1 
vt 0 1 
vt 1 0 
vt 0 0 
vt 1 1 
vt 0 1 
vt 1 0 
vt 0 0 
vt 1 1 
vt 0 1 
vt 1 0 
vt 0 0 
vt 1 1 
vt 0 1 
vt 1 0 
vt 0 0 
vt 1 1 
vt 0 1 
vt 1 0 
vt 0 0 
vt 1 1 
vt 0 1 
vt 1 0 
vt 0 0 
vt 1 1 
vt 0 1 
vt 1 0 
vt 0 0 
vt 1 1 
vt 0 1 
vt 1 0 
vt 0 0 
vt 1 1 
vt 0 1 
vt 1 0 
vt 0 0 
vt 1 1 
vt 0 1 
vt 0 0 
vt 1 1 
vt 0 1 
vt 1 0 
vt 0 0 
vt 1 1 
vt 0 1 
vt 1 0 
vt 0 0 
vt 1 1 
vt 0 1 
vt 0 0 
vt 1 1 
vt 0 1 
vt 1 0 
vt 0 0 
vt 1 1 
vt 0 1 
vt 1 0 
vt 0 0 
vt 1 1 
vt 0 1 
vt 0 0 
vt 1 1 
vt 0 1 
vt 1 0 
vt 0 0 
vt 1 1 
vt 0 1 
vt 1 0 
vt 0 0 
vt 1 1 
vt 0 1 
vt 0 0 
vt 1 1 
vt 0 1 
vt 1 0 
vt 0 0 
vt 1 1 
vt 0 1 
vt 1 0 
vt 0 0 
vt 1 1 
vt 0 1 
vt 1 0 
vt 0 0 
vt 1 1 
vt 0 1 
vt 1 0 
vt 0 0 
vt 1 1 
vt 0 1 
vt 1 0 
vt 0 0 
vt 1 1 
vt 0 1 
vt 0 0 
vt 1 1 
vt 0 1 
vt 1 0 
vt 0 0 
vt 1 1 
vt 0 1 
vt 1 0 
vt 0 0 
vt 1 1 
vt 0 1 
vt 1 0 
vt 0 0 
vt 1 1 
vt 0 1 
vt 1 0 
vt 0 0 
vt 1 1 
vt 0 1 
vt 1 0 
vt 0 0 
vt 1 1 
vt 0 1 
vt 1 0 
vt 0 0 
vt 1 1 
vt 0 1 
vt 1 0 
vt 0 0 
vt 1 1 
vt 0 1 
vt 1 0 
vt 0 0 
vt 1 1 
vt 0 1 
vt 1 0 
vt 0 0 
vt 1 1 
vt 0 1 
vt 1 0 
vt 0 0 
vt 1 1 
vt 0 1 
vt 1 0 
vt 0 0 
vt 1 1 
vt 0 1 
vt 1 0 
vt 0 0 
vt 1 1 
vt 0 1 
vt 1 0 
vt 0 0 
vt 1 1 
vt 0 1 
vt 1 0 
vt 0 0 
vt 1 1 
vt 0 1 
vt 1 0 
vt 0 0 
vt 1 1 
vt 0 1 
vt 1 0 
vt 0 0 
vt 1 1 
vt 0 1 
vt 1 0 
vt 0 0 
vt 1 1 
vt 0 1 
vt 1 0 
vt 0 0 
vt 1 1 
vt 0 1 
vt 1 0 
vt 0 0 
vt 1 1 
vt 0 1 
vt 1 0 
vt 0 0 
vt 1 1 
vt 0 1 
vt 0 0 
vt 1 1 
vt 0 1 
vt 1 0 
vt 0 0 
vt 1 1 
vt 0 1 
vt 1 0 
vt 0 0 
vt 1 1 
vt 0 1 
vt 0 0 
vt 1 1 
vt 0 1 
vt 1 0 
vt 0 0 
vt 1 1 
vt 0 1 
vt 1 0 
vt 0 0 
vt 1 1 
vt 0 1 
vt 0 0 
vt 1 1 
vt 0 1 
vt 1 0 
vt 0 0 
vt 1 1 
vt 0 1 
vt 1 0 
vt 0 0 
vt 1 1 
vt 0 1 
vt 0 0 
vt 1 1 
vt 0 1 
vt 1 0 
vt 0 0 
vt 1 1 
vt 0 1 
vt 1 0 
vt 0 0 
vt 1 1 
vt 0 1 
vt 1 0 
vt 0 0 
vt 1 1 
vt 0 1 
vt 1 0 
vt 0 0 
vt 1 1 
vt 0 1 
vt 1 0 
vt 0 0 
vt 1 1 
vt 0 1 
vt 0 0 
vt 1 1 
vt 0 1 
vt 1 0 
vt 0 0 
vt 1 1 
vt 0 1 
vt 1 0 
vt 0 0 
vt 1 1 
vt 0 1 
vt 1 0 
vt 0 0 
vt 1 1 
vt 0 1 
vt 1 0 
vt 0 0 
vt 1 1 
vt 0 1 
vt 1 0 
vt 0 0 
vt 1 1 
vt 0 1 
vt 1 0 
vt 0 0 
vt 1 1 
vt 0 1 
vt 1 0 
vt 0 0 
vt 1 1 
vt 0 1 
vt 1 0 
vt 0 0 
vt 1 1 
vt 0 1 
vt 1 0 
vt 0 0 
vt 1 1 
vt 0 1 
vt 1 0 
vt 0 0 
vt 1 1 
vt 0 1 
vt 1 0 
vt 0 0 
vt 1 1 
vt 0 1 
vt 1 0 
vt 0 0 
vt 1 1 
vt 0 1 
vt 1 0 
vt 0 0 
vt 1 1 
vt 0 1 
vt 1 0 
vt 0 0 
vt 1 1 
vt 0 1 
vt 1 0 
vt 0 0 
vt 1 1 
vt 0 1 
vt 1 0 
vt 0 0 
vt 1 1 
vt 0 1 
vt 1 0 
vt 0 0 
vt 1 1 
vt 0 1 
vt 1 0 
vt 0 0 
vt 1 1 
vt 0 1 
vt 1 0 
vt 0 0 
vt 1 1 
vt 0 1 
vt 1 0 
vt 0 0 
vt 1 1 
vt 0 1 
vt 0 0 
vt 1 1 
vt 0 1 
vt 1 0 
vt 0 0 
vt 1 1 
vt 0 1 
vt 1 0 
vt 0 0 
vt 1 1 
vt 0 1 
vt 0 0 
vt 1 1 
vt 0 1 
vt 1 0 
vt 0 0 
vt 1 1 
vt 0 1 
vt 1 0 
vt 0 0 
vt 1 1 
vt 0 1 
vt 0 0 
vt 1 1 
vt 0 1 
vt 1 0 
vt 0 0 
vt 1 1 
vt 0 1 
vt 1 0 
vt 0 0 
vt 1 1 
vt 0 1 
vt 0 0 
vt 1 1 
vt 0 1 
vt 1 0 
vt 0 0 
vt 1 1 
vt 0 1 
vt 1 0 
vt 0 0 
vt 1 1 
vt 0 1 
vt 1 0 
vt 0 0 
vt 1 1 
vt 0 1 
vt 1 0 
vt 0 0 
vt 1 1 
vt 0 1 
vt 1 0 
vt 0 0 
vt 1 1 
vt 0 1 
vt 0 0 
vt 1 1 
vt 0 1 
vt 1 0 
vt 0 0 
vt 1 1 
vt 0 1 
vt 1 0 
vt 0 0 
vt 1 1 
vt 0 1 
vt 1 0 
vt 0 0 
vt 1 1 
vt 0 1 
vt 1 0 
vt 0 0 
vt 1 1 
vt 0 1 
vt 1 0 
vt 0 0 
vt 1 1 
vt 0 1 
vt 1 0 
vt 0 0 
vt 1 1 
vt 0 1 
vt 1 0 
vt 0 0 
vt 1 1 
vt 0 1 
vt 1 0 
vt 0 0 
vt 1 1 
vt 0 1 
vt 1 0 
vt 0 0 
vt 1 1 
vt 0 1 
vt 1 0 
vt 0 0 
vt 1 1 
vt 0 1 
vt 1 0 
vt 0 0 
vt 1 1 
vt 0 1 
vt 1 0 
vt 0 0 
vt 1 1 
vt 0 1 
vt 1 0 
vt 0 0 
vt 1 1 
vt 0 1 
vt 1 0 
vt 0 0 
vt 1 1 
vt 0 1 
vt 1 0 
vt 0 0 
vt 1 1 
vt 0 1 
vt 1 0 
vt 0 0 
vt 1 1 
vt 0 1 
vt 1 0 
vt 0 0 
vt 1 1 
vt 0 1 
vt 1 0 
vt 0 0 
vt 1 1 
vt 0 1 
vt 1 0 
vt 0 0 
vt 1 1 
vt 0 1 
vt 1 0 
vt 0 0 
vt 1 1 
vt 0 1 
vt 0 0 
vt 1 1 
vt 0 1 
vt 1 0 
vt 0 0 
vt 1 1 
vt 0 1 
vt 1 0 
vt 0 0 
vt 1 1 
vt 0 1 
vt 0 0 
vt 1 1 
vt 0 1 
vt 1 0 
vt 0 0 
vt 1 1 
vt 0 1 
vt 1 0 
vt 0 0 
vt 1 1 
vt 0 1 
vt 0 0 
vt 1 1 
vt 0 1 
vt 1 0 
vt 0 0 
vt 1 1 
vt 0 1 
vt 1 0 
vt 0 0 
vt 1 1 
vt 0 1 
vt 0 0 
vt 1 1 
vt 0 1 
vt 1 0 
vt 0 0 
vt 1 1 
vt 0 1 
vt 1 0 
vt 0 0 
vt 1 1 
vt 0 1 
vt 1 0 
vt 0 0 
vt 1 1 
vt 0 1 
vt 1 0 
vt 0 0 
vt 1 1 
vt 0 1 
vt 1 0 
vt 0 0 
vt 1 1 
vt 0 1 
vt 0 0 
vt 1 1 
vt 0 1 
vt 1 0 
vt 0 0 
vt 1 1 
vt 0 1 
vt 1 0 

usemtl 1Mtl

f 1/1/1 2/2/2 3/3/3 
f 1/1/1 4/4/4 2/2/2 
f 5/5/5 6/6/6 7/7/7 
f 5/5/5 8/8/8 6/6/6 
f 9/9/9 10/10/10 11/11/11 
f 9/9/9 12/12/12 10/10/10 
f 13/13/13 14/14/14 15/15/15 
f 13/13/13 16/16/16 14/14/14 
f 17/17/17 18/18/18 19/19/19 
f 17/17/17 20/20/20 18/18/18 
f 21/21/21 22/22/22 23/23/23 
f 21/21/21 24/24/24 22/22/22 
f 25/25/25 26/26/26 27/27/27 
f 25/25/25 28/28/28 26/26/26 
f 29/29/29 30/30/30 31/31/31 
f 29/29/29 32/32/32 30/30/30 
f 33/33/33 34/34/34 35/35/35 
f 33/33/33 36/36/36 34/34/34 
f 37/37/37 38/38/38 39/39/39 
f 37/37/37 40/40/40 38/38/38 
f 41/41/41 42/42/42 43/43/43 
f 41/41/41 44/44/44 42/42/42 
f 45/45/45 46/46/46 47/47/47 
f 45/45/45 48/48/48 46/46/46 
f 49/49/49 50/50/50 51/51/51 
f 49/49/49 52/52/52 50/50/50 
f 53/53/53 54/54/54 55/55/55 
f 53/53/53 56/56/56 54/54/54 
f 57/57/57 58/58/58 59/59/59 
f 57/57/57 60/60/60 58/58/58 
f 61/61/61 62/62/62 63/63/63 
f 61/61/61 64/64/64 62/62/62 
f 65/65/65 66/66/66 67/67/67 
f 65/65/65 68/68/68 66/66/66 
f 69/69/69 70/70/70 71/71/71 
f 69/69/69 72/72/72 70/70/70 
f 73/73/73 74/74/74 75/75/75 
f 73/73/73 64/64/64 74/74/74 
f 76/76/76 77/77/77 78/78/78 
f 76/76/76 79/79/79 77/77/77 
f 80/80/80 81/81/81 82/82/82 
f 80/80/80 83/83/83 81/81/81 
f 84/84/84 85/85/85 86/86/86 
f 84/84/84 64/64/64 85/85/85 
f 87/87/87 88/88/88 89/89/89 
f 87/87/87 90/90/90 88/88/88 
f 91/91/91 92/92/92 93/93/93 
f 91/91/91 94/94/94 92/92/92 
f 95/95/95 96/96/96 97/97/97 
f 95/95/95 64/64/64 96/96/96 
f 98/98/98 99/99/99 100/100/100 
f 98/98/98 101/101/101 99/99/99 
f 102/102/102 103/103/103 104/104/104 
f 102/102/102 105/105/105 103/103/103 
f 106/106/106 107/107/107 108/108/108 
f 106/106/106 64/64/64 107/107/107 
f 109/109/109 110/110/110 111/111/111 
f 109/109/109 112/112/112 110/110/110 
f 113/113/113 114/114/114 115/115/115 
f 113/113/113 116/116/116 114/114/114 
f 117/117/117 118/118/118 119/119/119 
f 117/117/117 120/120/120 118/118/118 
f 121/121/121 122/122/122 123/123/123 
f 121/121/121 124/124/124 122/122/122 
f 125/125/125 126/126/126 127/127/127 
f 125/125/125 128/128/128 126/126/126 
f 129/129/129 130/130/130 131/131/131 
f 129/129/129 120/120/120 130/130/130 
f 132/132/132 133/133/133 134/134/134 
f 132/132/132 135/135/135 133/133/133 
f 136/136/136 137/137/137 138/138/138 
f 136/136/136 139/139/139 137/137/137 
f 1/1/1 3/3/3 2/2/2 
f 1/1/1 2/2/2 4/4/4 
f 5/5/5 7/7/7 6/6/6 
f 5/5/5 6/6/6 8/8/8 
f 9/9/9 11/11/11 10/10/10 
f 9/9/9 10/10/10 12/12/12 
f 13/13/13 15/15/15 14/14/14 
f 13/13/13 14/14/14 16/16/16 
f 17/17/17 19/19/19 18/18/18 
f 17/17/17 18/18/18 20/20/20 
f 21/21/21 23/23/23 22/22/22 
f 21/21/21 22/22/22 24/24/24 
f 25/25/25 27/27/27 26/26/26 
f 25/25/25 26/26/26 28/28/28 
f 29/29/29 31/31/31 30/30/30 
f 29/29/29 30/30/30 32/32/32 
f 33/33/33 35/35/35 34/34/34 
f 33/33/33 34/34/34 36/36/36 
f 37/37/37 39/39/39 38/38/38 
f 37/37/37 38/38/38 40/40/40 
f 41/41/41 43/43/43 42/42/42 
f 41/41/41 42/42/42 44/44/44 
f 45/45/45 47/47/47 46/46/46 
f 45/45/45 46/46/46 48/48/48 
f 49/49/49 51/51/51 50/50/50 
f 49/49/49 50/50/50 52/52/52 
f 53/53/53 55/55/55 54/54/54 
f 53/53/53 54/54/54 56/56/56 
f 57/57/57 59/59/59 58/58/58 
f 57/57/57 58/58/58 60/60/60 
f 61/61/61 63/63/63 62/62/62 
f 61/61/61 62/62/62 64/64/64 
f 65/65/65 67/67/67 66/66/66 
f 65/65/65 66/66/66 68/68/68 
f 69/69/69 71/71/71 70/70/70 
f 69/69/69 70/70/70 72/72/72 
f 73/73/73 75/75/75 74/74/74 
f 73/73/73 74/74/74 64/64/64 
f 76/76/76 78/78/78 77/77/77 
f 76/76/76 77/77/77 79/79/79 
f 80/80/80 82/82/82 81/81/81 
f 80/80/80 81/81/81 83/83/83 
f 84/84/84 86/86/86 85/85/85 
f 84/84/84 85/85/85 64/64/64 
f 87/87/87 89/89/89 88/88/88 
f 87/87/87 88/88/88 90/90/90 
f 91/91/91 93/93/93 92/92/92 
f 91/91/91 92/92/92 94/94/94 
f 95/95/95 97/97/97 96/96/96 
f 95/95/95 96/96/96 64/64/64 
f 98/98/98 100/100/100 99/99/99 
f 98/98/98 99/99/99 101/101/101 
f 102/102/102 104/104/104 103/103/103 
f 102/102/102 103/103/103 105/105/105 
f 106/106/106 108/108/108 107/107/107 
f 106/106/106 107/107/107 64/64/64 
f 109/109/109 111/111/111 110/110/110 
f 109/109/109 110/110/110 112/112/112 
f 113/113/113 115/115/115 114/114/114 
f 113/113/113 114/114/114 116/116/116 
f 117/117/117 119/119/119 118/118/118 
f 117/117/117 118/118/118 120/120/120 
f 121/121/121 123/123/123 122/122/122 
f 121/121/121 122/122/122 124/124/124 
f 125/125/125 127/127/127 126/126/126 
f 125/125/125 126/126/126 128/128/128 
f 129/129/129 131/131/131 130/130/130 
f 129/129/129 130/130/130 120/120/120 
f 132/132/132 134/134/134 133/133/133 
f 132/132/132 133/133/133 135/135/135 
f 136/136/136 138/138/138 137/137/137 
f 136/136/136 137/137/137 139/139/139 
f 140/140/140 141/141/141 142/142/142 
f 140/140/140 143/143/143 141/141/141 
f 144/144/144 145/145/145 146/146/146 
f 144/144/144 147/147/147 145/145/145 
f 148/148/148 149/149/149 150/150/150 
f 148/148/148 151/151/151 149/149/149 
f 152/152/152 153/153/153 154/154/154 
f 152/152/152 155/155/155 153/153/153 
f 156/156/156 157/157/157 158/158/158 
f 156/156/156 159/159/159 157/157/157 
f 160/160/160 161/161/161 162/162/162 
f 160/160/160 163/163/163 161/161/161 
f 164/164/164 165/165/165 166/166/166 
f 164/164/164 167/167/167 165/165/165 
f 168/168/168 169/169/169 170/170/170 
f 168/168/168 171/171/171 169/169/169 
f 172/172/172 173/173/173 174/174/174 
f 172/172/172 175/175/175 173/173/173 
f 176/176/176 177/177/177 178/178/178 
f 176/176/176 179/179/179 177/177/177 
f 180/180/180 181/181/181 182/182/182 
f 180/180/180 183/183/183 181/181/181 
f 184/184/184 185/185/185 186/186/186 
f 184/184/184 187/187/187 185/185/185 
f 188/188/188 189/189/189 190/190/190 
f 188/188/188 191/191/191 189/189/189 
f 192/192/192 193/193/193 194/194/194 
f 192/192/192 195/195/195 193/193/193 
f 196/196/196 197/197/197 198/198/198 
f 196/196/196 199/199/199 197/197/197 
f 200/200/200 201/201/201 202/202/202 
f 200/200/200 203/203/203 201/201/201 
f 204/204/204 205/205/205 206/206/206 
f 204/204/204 207/207/207 205/205/205 
f 208/208/208 209/209/209 210/210/210 
f 208/208/208 211/211/211 209/209/209 
f 212/212/212 213/213/213 214/214/214 
f 212/212/212 203/203/203 213/213/213 
f 215/215/215 216/216/216 217/217/217 
f 215/215/215 218/218/218 216/216/216 
f 219/219/219 220/220/220 221/221/221 
f 219/219/219 222/222/222 220/220/220 
f 223/223/223 224/224/224 225/225/225 
f 223/223/223 203/203/203 224/224/224 
f 226/226/226 227/227/227 228/228/228 
f 226/226/226 229/229/229 227/227/227 
f 230/230/230 231/231/231 232/232/232 
f 230/230/230 233/233/233 231/231/231 
f 234/234/234 235/235/235 236/236/236 
f 234/234/234 203/203/203 235/235/235 
f 237/237/237 238/238/238 239/239/239 
f 237/237/237 240/240/240 238/238/238 
f 241/241/241 242/242/242 243/243/243 
f 241/241/241 244/244/244 242/242/242 
f 245/245/245 246/246/246 247/247/247 
f 245/245/245 203/203/203 246/246/246 
f 248/248/248 249/249/249 250/250/250 
f 248/248/248 251/251/251 249/249/249 
f 252/252/252 253/253/253 254/254/254 
f 252/252/252 255/255/255 253/253/253 
f 256/256/256 257/257/257 258/258/258 
f 256/256/256 259/259/259 257/257/257 
f 260/260/260 261/261/261 262/262/262 
f 260/260/260 263/263/263 261/261/261 
f 264/264/264 265/265/265 266/266/266 
f 264/264/264 267/267/267 265/265/265 
f 268/268/268 269/269/269 270/270/270 
f 268/268/268 259/259/259 269/269/269 
f 271/271/271 272/272/272 273/273/273 
f 271/271/271 274/274/274 272/272/272 
f 275/275/275 276/276/276 277/277/277 
f 275/275/275 278/278/278 276/276/276 
f 140/140/140 142/142/142 141/141/141 
f 140/140/140 141/141/141 143/143/143 
f 144/144/144 146/146/146 145/145/145 
f 144/144/144 145/145/145 147/147/147 
f 148/148/148 150/150/150 149/149/149 
f 148/148/148 149/149/149 151/151/151 
f 152/152/152 154/154/154 153/153/153 
f 152/152/152 153/153/153 155/155/155 
f 156/156/156 158/158/158 157/157/157 
f 156/156/156 157/157/157 159/159/159 
f 160/160/160 162/162/162 161/161/161 
f 160/160/160 161/161/161 163/163/163 
f 164/164/164 166/166/166 165/165/165 
f 164/164/164 165/165/165 167/167/167 
f 168/168/168 170/170/170 169/169/169 
f 168/168/168 169/169/169 171/171/171 
f 172/172/172 174/174/174 173/173/173 
f 172/172/172 173/173/173 175/175/175 
f 176/176/176 178/178/178 177/177/177 
f 176/176/176 177/177/177 179/179/179 
f 180/180/180 182/182/182 181/181/181 
f 180/180/180 181/181/181 183/183/183 
f 184/184/184 186/186/186 185/185/185 
f 184/184/184 185/185/185 187/187/187 
f 188/188/188 190/190/190 189/189/189 
f 188/188/188 189/189/189 191/191/191 
f 192/192/192 194/194/194 193/193/193 
f 192/192/192 193/193/193 195/195/195 
f 196/196/196 198/198/198 197/197/197 
f 196/196/196 197/197/197 199/199/199 
f 200/200/200 202/202/202 201/201/201 
f 200/200/200 201/201/201 203/203/203 
f 204/204/204 206/206/206 205/205/205 
f 204/204/204 205/205/205 207/207/207 
f 208/208/208 210/210/210 209/209/209 
f 208/208/208 209/209/209 211/211/211 
f 212/212/212 214/214/214 213/213/213 
f 212/212/212 213/213/213 203/203/203 
f 215/215/215 217/217/217 216/216/216 
f 215/215/215 216/216/216 218/218/218 
f 219/219/219 221/221/221 220/220/220 
f 219/219/219 220/220/220 222/222/222 
f 223/223/223 225/225/225 224/224/224 
f 223/223/223 224/224/224 203/203/203 
f 226/226/226 228/228/228 227/227/227 
f 226/226/226 227/227/227 229/229/229 
f 230/230/230 232/232/232 231/231/231 
f 230/230/230 231/231/231 233/233/233 
f 234/234/234 236/236/236 235/235/235 
f 234/234/234 235/235/235 203/203/203 
f 237/237/237 239/239/239 238/238/238 
f 237/237/237 238/238/238 240/240/240 
f 241/241/241 243/243/243 242/242/242 
f 241/241/241 242/242/242 244/244/244 
f 245/245/245 247/247/247 246/246/246 
f 245/245/245 246/246/246 203/203/203 
f 248/248/248 250/250/250 249/249/249 
f 248/248/248 249/249/249 251/251/251 
f 252/252/252 254/254/254 253/253/253 
f 252/252/252 253/253/253 255/255/255 
f 256/256/256 258/258/258 257/257/257 
f 256/256/256 257/257/257 259/259/259 
f 260/260/260 262/262/262 261/261/261 
f 260/260/260 261/261/261 263/263/263 
f 264/264/264 266/266/266 265/265/265 
f 264/264/264 265/265/265 267/267/267 
f 268/268/268 270/270/270 269/269/269 
f 268/268/268 269/269/269 259/259/259 
f 271/271/271 273/273/273 272/272/272 
f 271/271/271 272/272/272 274/274/274 
f 275/275/275 277/277/277 276/276/276 
f 275/275/275 276/276/276 278/278/278 
f 279/279/279 280/280/280 281/281/281 
f 279/279/279 282/282/282 280/280/280 
f 283/283/283 284/284/284 285/285/285 
f 283/283/283 286/286/286 284/284/284 
f 287/287/287 288/288/288 289/289/289 
f 287/287/287 290/290/290 288/288/288 
f 291/291/291 292/292/292 293/293/293 
f 291/291/291 294/294/294 292/292/292 
f 295/295/295 296/296/296 297/297/297 
f 295/295/295 298/298/298 296/296/296 
f 299/299/299 300/300/300 301/301/301 
f 299/299/299 302/302/302 300/300/300 
f 303/303/303 304/304/304 305/305/305 
f 303/303/303 306/306/306 304/304/304 
f 307/307/307 308/308/308 309/309/309 
f 307/307/307 310/310/310 308/308/308 
f 311/311/311 312/312/312 313/313/313 
f 311/311/311 314/314/314 312/312/312 
f 315/315/315 316/316/316 317/317/317 
f 315/315/315 318/318/318 316/316/316 
f 319/319/319 320/320/320 321/321/321 
f 319/319/319 322/322/322 320/320/320 
f 323/323/323 324/324/324 325/325/325 
f 323/323/323 326/326/326 324/324/324 
f 327/327/327 328/328/328 329/329/329 
f 327/327/327 330/330/330 328/328/328 
f 331/331/331 332/332/332 333/333/333 
f 331/331/331 334/334/334 332/332/332 
f 335/335/335 336/336/336 337/337/337 
f 335/335/335 338/338/338 336/336/336 
f 339/339/339 340/340/340 341/341/341 
f 339/339/339 342/342/342 340/340/340 
f 343/343/343 344/344/344 345/345/345 
f 343/343/343 346/346/346 344/344/344 
f 347/347/347 348/348/348 349/349/349 
f 347/347/347 350/350/350 348/348/348 
f 351/351/351 352/352/352 353/353/353 
f 351/351/351 342/342/342 352/352/352 
f 354/354/354 355/355/355 356/356/356 
f 354/354/354 357/357/357 355/355/355 
f 358/358/358 359/359/359 360/360/360 
f 358/358/358 361/361/361 359/359/359 
f 362/362/362 363/363/363 364/364/364 
f 362/362/362 342/342/342 363/363/363 
f 365/365/365 366/366/366 367/367/367 
f 365/365/365 368/368/368 366/366/366 
f 369/369/369 370/370/370 371/371/371 
f 369/369/369 372/372/372 370/370/370 
f 373/373/373 374/374/374 375/375/375 
f 373/373/373 342/342/342 374/374/374 
f 376/376/376 377/377/377 378/378/378 
f 376/376/376 379/379/379 377/377/377 
f 380/380/380 381/381/381 382/382/382 
f 380/380/380 383/383/383 381/381/381 
f 384/384/384 385/385/385 386/386/386 
f 384/384/384 342/342/342 385/385/385 
f 387/387/387 388/388/388 389/389/389 
f 387/387/387 390/390/390 388/388/388 
f 391/391/391 392/392/392 393/393/393 
f 391/391/391 394/394/394 392/392/392 
f 395/395/395 396/396/396 397/397/397 
f 395/395/395 398/398/398 396/396/396 
f 399/399/399 400/400/400 401/401/401 
f 399/399/399 402/402/402 400/400/400 
f 403/403/403 404/404/404 405/405/405 
f 403/403/403 406/406/406 404/404/404 
f 407/407/407 408/408/408 409/409/409 
f 407/407/407 398/398/398 408/408/408 
f 410/410/410 411/411/411 412/412/412 
f 410/410/410 413/413/413 411/411/411 
f 414/414/414 415/415/415 416/416/416 
f 414/414/414 417/417/417 415/415/415 
f 279/279/279 281/281/281 280/280/280 
f 279/279/279 280/280/280 282/282/282 
f 283/283/283 285/285/285 284/284/284 
f 283/283/283 284/284/284 286/286/286 
f 287/287/287 289/289/289 288/288/288 
f 287/287/287 288/288/288 290/290/290 
f 291/291/291 293/293/293 292/292/292 
f 291/291/291 292/292/292 294/294/294 
f 295/295/295 297/297/297 296/296/296 
f 295/295/295 296/296/296 298/298/298 
f 299/299/299 301/301/301 300/300/300 
f 299/299/299 300/300/300 302/302/302 
f 303/303/303 305/305/305 304/304/304 
f 303/303/303 304/304/304 306/306/306 
f 307/307/307 309/309/309 308/308/308 
f 307/307/307 308/308/308 310/310/310 
f 311/311/311 313/313/313 312/312/312 
f 311/311/311 312/312/312 314/314/314 
f 315/315/315 317/317/317 316/316/316 
f 315/315/315 316/316/316 318/318/318 
f 319/319/319 321/321/321 320/320/320 
f 319/319/319 320/320/320 322/322/322 
f 323/323/323 325/325/325 324/324/324 
f 323/323/323 324/324/324 326/326/326 
f 327/327/327 329/329/329 328/328/328 
f 327/327/327 328/328/328 330/330/330 
f 331/331/331 333/333/333 332/332/332 
f 331/331/331 332/332/332 334/334/334 
f 335/335/335 337/337/337 336/336/336 
f 335/335/335 336/336/336 338/338/338 
f 339/339/339 341/341/341 340/340/340 
f 339/339/339 340/340/340 342/342/342 
f 343/343/343 345/345/345 344/344/344 
f 343/343/343 344/344/344 346/346/346 
f 347/347/347 349/349/349 348/348/348 
f 347/347/347 348/348/348 350/350/350 
f 351/351/351 353/353/353 352/352/352 
f 351/351/351 352/352/352 342/342/342 
f 354/354/354 356/356/356 355/355/355 
f 354/354/354 355/355/355 357/357/357 
f 358/358/358 360/360/360 359/359/359 
f 358/358/358 359/359/359 361/361/361 
f 362/362/362 364/364/364 363/363/363 
f 362/362/362 363/363/363 342/342/342 
f 365/365/365 367/367/367 366/366/366 
f 365/365/365 366/366/366 368/368/368 
f 369/369/369 371/371/371 370/370/370 
f 369/369/369 370/370/370 372/372/372 
f 373/373/373 375/375/375 374/374/374 
f 373/373/373 374/374/374 342/342/342 
f 376/376/376 378/378/378 377/377/377 
f 376/376/376 377/377/377 379/379/379 
f 380/380/380 382/382/382 381/381/381 
f 380/380/380 381/381/381 383/383/383 
f 384/384/384 386/386/386 385/385/385 
f 384/384/384 385/385/385 342/342/342 
f 387/387/387 389/389/389 388/388/388 
f 387/387/387 388/388/388 390/390/390 
f 391/391/391 393/393/393 392/392/392 
f 391/391/391 392/392/392 394/394/394 
f 395/395/395 397/397/397 396/396/396 
f 395/395/395 396/396/396 398/398/398 
f 399/399/399 401/401/401 400/400/400 
f 399/399/399 400/400/400 402/402/402 
f 403/403/403 405/405/405 404/404/404 
f 403/403/403 404/404/404 406/406/406 
f 407/407/407 409/409/409 408/408/408 
f 407/407/407 408/408/408 398/398/398 
f 410/410/410 412/412/412 411/411/411 
f 410/410/410 411/411/411 413/413/413 
f 414/414/414 416/416/416 415/415/415 
f 414/414/414 415/415/415 417/417/417 
f 418/418/418 419/419/419 420/420/420 
f 418/418/418 421/421/421 419/419/419 
f 422/422/422 423/423/423 424/424/424 
f 422/422/422 425/425/425 423/423/423 
f 426/426/426 427/427/427 428/428/428 
f 426/426/426 429/429/429 427/427/427 
f 430/430/430 431/431/431 432/432/432 
f 430/430/430 433/433/433 431/431/431 
f 434/434/434 435/435/435 436/436/436 
f 434/434/434 437/437/437 435/435/435 
f 438/438/438 439/439/439 440/440/440 
f 438/438/438 441/441/441 439/439/439 
f 442/442/442 443/443/443 444/444/444 
f 442/442/442 445/445/445 443/443/443 
f 446/446/446 447/447/447 448/448/448 
f 446/446/446 449/449/449 447/447/447 
f 450/450/450 451/451/451 452/452/452 
f 450/450/450 453/453/453 451/451/451 
f 454/454/454 455/455/455 456/456/456 
f 454/454/454 457/457/457 455/455/455 
f 458/458/458 459/459/459 460/460/460 
f 458/458/458 461/461/461 459/459/459 
f 462/462/462 463/463/463 464/464/464 
f 462/462/462 465/465/465 463/463/463 
f 466/466/466 467/467/467 468/468/468 
f 466/466/466 469/469/469 467/467/467 
f 470/470/470 471/471/471 472/472/472 
f 470/470/470 473/473/473 471/471/471 
f 474/474/474 475/475/475 476/476/476 
f 474/474/474 477/477/477 475/475/475 
f 478/478/478 479/479/479 480/480/480 
f 478/478/478 481/481/481 479/479/479 
f 482/482/482 483/483/483 484/484/484 
f 482/482/482 485/485/485 483/483/483 
f 486/486/486 487/487/487 488/488/488 
f 486/486/486 489/489/489 487/487/487 
f 490/490/490 491/491/491 492/492/492 
f 490/490/490 481/481/481 491/491/491 
f 493/493/493 494/494/494 495/495/495 
f 493/493/493 496/496/496 494/494/494 
f 497/497/497 498/498/498 499/499/499 
f 497/497/497 500/500/500 498/498/498 
f 501/501/501 502/502/502 503/503/503 
f 501/501/501 481/481/481 502/502/502 
f 504/504/504 505/505/505 506/506/506 
f 504/504/504 507/507/507 505/505/505 
f 508/508/508 509/509/509 510/510/510 
f 508/508/508 511/511/511 509/509/509 
f 512/512/512 513/513/513 514/514/514 
f 512/512/512 481/481/481 513/513/513 
f 515/515/515 516/516/516 517/517/517 
f 515/515/515 518/518/518 516/516/516 
f 519/519/519 520/520/520 521/521/521 
f 519/519/519 522/522/522 520/520/520 
f 523/523/523 524/524/524 525/525/525 
f 523/523/523 481/481/481 524/524/524 
f 526/526/526 527/527/527 528/528/528 
f 526/526/526 529/529/529 527/527/527 
f 530/530/530 531/531/531 532/532/532 
f 530/530/530 533/533/533 531/531/531 
f 534/534/534 535/535/535 536/536/536 
f 534/534/534 537/537/537 535/535/535 
f 538/538/538 539/539/539 540/540/540 
f 538/538/538 541/541/541 539/539/539 
f 542/542/542 543/543/543 544/544/544 
f 542/542/542 545/545/545 543/543/543 
f 546/546/546 547/547/547 548/548/548 
f 546/546/546 537/537/537 547/547/547 
f 549/549/549 550/550/550 551/551/551 
f 549/549/549 552/552/552 550/550/550 
f 553/553/553 554/554/554 555/555/555 
f 553/553/553 556/556/556 554/554/554 
f 418/418/418 420/420/420 419/419/419 
f 418/418/418 419/419/419 421/421/421 
f 422/422/422 424/424/424 423/423/423 
f 422/422/422 423/423/423 425/425/425 
f 426/426/426 428/428/428 427/427/427 
f 426/426/426 427/427/427 429/429/429 
f 430/430/430 432/432/432 431/431/431 
f 430/430/430 431/431/431 433/433/433 
f 434/434/434 436/436/436 435/435/435 
f 434/434/434 435/435/435 437/437/437 
f 438/438/438 440/440/440 439/439/439 
f 438/438/438 439/439/439 441/441/441 
f 442/442/442 444/444/444 443/443/443 
f 442/442/442 443/443/443 445/445/445 
f 446/446/446 448/448/448 447/447/447 
f 446/446/446 447/447/447 449/449/449 
f 450/450/450 452/452/452 451/451/451 
f 450/450/450 451/451/451 453/453/453 
f 454/454/454 456/456/456 455/455/455 
f 454/454/454 455/455/455 457/457/457 
f 458/458/458 460/460/460 459/459/459 
f 458/458/458 459/459/459 461/461/461 
f 462/462/462 464/464/464 463/463/463 
f 462/462/462 463/463/463 465/465/465 
f 466/466/466 468/468/468 467/467/467 
f 466/466/466 467/467/467 469/469/469 
f 470/470/470 472/472/472 471/471/471 
f 470/470/470 471/471/471 473/473/473 
f 474/474/474 476/476/476 475/475/475 
f 474/474/474 475/475/475 477/477/477 
f 478/478/478 480/480/480 479/479/479 
f 478/478/478 479/479/479 481/481/481 
f 482/482/482 484/484/484 483/483/483 
f 482/482/482 483/483/483 485/485/485 
f 486/486/486 488/488/488 487/487/487 
f 486/486/486 487/487/487 489/489/489 
f 490/490/490 492/492/492 491/491/491 
f 490/490/490 491/491/491 481/481/481 
f 493/493/493 495/495/495 494/494/494 
f 493/493/493 494/494/494 496/496/496 
f 497/497/497 499/499/499 498/498/498 
f 497/497/497 498/498/498 500/500/500 
f 501/501/501 503/503/503 502/502/502 
f 501/501/501 502/502/502 481/481/481 
f 504/504/504 506/506/506 505/505/505 
f 504/504/504 505/505/505 507/507/507 
f 508/508/508 510/510/510 509/509/509 
f 508/508/508 509/509/509 511/511/511 
f 512/512/512 514/514/514 513/513/513 
f 512/512/512 513/513/513 481/481/481 
f 515/515/515 517/517/517 516/516/516 
f 515/515/515 516/516/516 518/518/518 
f 519/519/519 521/521/521 520/520/520 
f 519/519/519 520/520/520 522/522/522 
f 523/523/523 525/525/525 524/524/524 
f 523/523/523 524/524/524 481/481/481 
f 526/526/526 528/528/528 527/527/527 
f 526/526/526 527/527/527 529/529/529 
f 530/530/530 532/532/532 531/531/531 
f 530/530/530 531/531/531 533/533/533 
f 534/534/534 536/536/536 535/535/535 
f 534/534/534 535/535/535 537/537/537 
f 538/538/538 540/540/540 539/539/539 
f 538/538/538 539/539/539 541/541/541 
f 542/542/542 544/544/544 543/543/543 
f 542/542/542 543/543/543 545/545/545 
f 546/546/546 548/548/548 547/547/547 
f 546/546/546 547/547/547 537/537/537 
f 549/549/549 551/551/551 550/550/550 
f 549/549/549 550/550/550 552/552/552 
f 553/553/553 555/555/555 554/554/554 
f 553/553/553 554/554/554 556/556/556 

