# This file is brought to you by Roblox Corporation
# Generated by Roblox Studio

mtllib gr.mtl

g GrassRoad1

v -121.271 0.400012 161.843 
v -121.271 0.400012 145.843 
v -121.271 1.22339e-05 161.843 
v -121.271 1.22339e-05 145.843 
v 10.5292 0.400012 145.843 
v -121.271 0.400012 145.843 
v 10.5292 0.400012 161.843 
v -121.271 0.400012 161.843 
v -121.271 0.400012 145.843 
v 10.5292 0.400012 145.843 
v -121.271 1.22339e-05 145.843 
v 10.5292 1.22339e-05 145.843 
v 10.5292 0.400012 145.843 
v 10.5292 0.400012 161.843 
v 10.5292 1.22339e-05 145.843 
v 10.5292 1.22339e-05 161.843 
v 10.5292 1.22339e-05 161.843 
v -121.271 1.22339e-05 161.843 
v 10.5292 1.22339e-05 145.843 
v -121.271 1.22339e-05 145.843 
v 10.5292 0.400012 161.843 
v -121.271 0.400012 161.843 
v 10.5292 1.22339e-05 161.843 
v -121.271 1.22339e-05 161.843 

vn -1 0 0 
vn -1 0 0 
vn -1 0 0 
vn -1 0 0 
vn 0 1 0 
vn 0 1 0 
vn 0 1 0 
vn 0 1 0 
vn 0 0 -1 
vn 0 0 -1 
vn 0 0 -1 
vn 0 0 -1 
vn 1 0 0 
vn 1 0 0 
vn 1 0 0 
vn 1 0 0 
vn 0 -1 0 
vn 0 -1 0 
vn 0 -1 0 
vn 0 -1 0 
vn 0 0 1 
vn 0 0 1 
vn 0 0 1 
vn 0 0 1 

vt -0.314814 -5.06366 
vt -2.31481 -5.06366 
vt -0.314814 -5.11366 
vt -2.31481 -5.11366 
vt 14.1602 -5.06366 
vt -2.31481 -5.06366 
vt 14.1602 -7.06365 
vt -2.31481 -7.06365 
vt 14.1602 -5.06366 
vt -2.31481 -5.06366 
vt 14.1602 -5.11366 
vt -2.31481 -5.11366 
vt -0.314814 -5.06366 
vt -2.31481 -5.06366 
vt -0.314814 -5.11366 
vt -2.31481 -5.11366 
vt 14.1602 -5.06366 
vt -2.31481 -5.06366 
vt 14.1602 -7.06365 
vt -2.31481 -7.06365 
vt 14.1602 -5.06366 
vt -2.31481 -5.06366 
vt 14.1602 -5.11366 
vt -2.31481 -5.11366 

usemtl GrassRoad1Mtl

f 1/1/1 2/2/2 3/3/3 
f 3/3/3 2/2/2 4/4/4 
f 5/5/5 6/6/6 7/7/7 
f 7/7/7 6/6/6 8/8/8 
f 9/9/9 10/10/10 11/11/11 
f 11/11/11 10/10/10 12/12/12 
f 13/13/13 14/14/14 15/15/15 
f 15/15/15 14/14/14 16/16/16 
f 17/17/17 18/18/18 19/19/19 
f 19/19/19 18/18/18 20/20/20 
f 21/21/21 22/22/22 23/23/23 
f 23/23/23 22/22/22 24/24/24 

