{
  "accessors": [
    {
      "bufferView": 2,
      "componentType": 5126,
      "count": 32,
      "max": [
        2.140719413757324,
        1.163687825202942,
        0.9095966815948486
      ],
      "min": [
        -2.1684865951538086,
        -1.7002540826797485,
        -0.8728930354118347
      ],
      "type": "VEC3"
    },
    {
      "bufferView": 2,
      "byteOffset": 384,
      "componentType": 5126,
      "count": 32,
      "max": [
        1.0,
        1.0,
        1.0
      ],
      "min": [
        -1.0,
        -1.9685282737214038e-08,
        -1.0
      ],
      "type": "VEC3"
    },
    {
      "bufferView": 1,
      "componentType": 5126,
      "count": 32,
      "max": [
        0.9943605065345764,
        1.0
      ],
      "min": [
        0.005639554001390934,
        0.0
      ],
      "type": "VEC2"
    },
    {
      "bufferView": 0,
      "componentType": 5125,
      "count": 48,
      "type": "SCALAR"
    },
    {
      "bufferView": 2,
      "byteOffset": 768,
      "componentType": 5126,
      "count": 324,
      "max": [
        2.2676639556884766,
        1.7002540826797485,
        1.2583506107330322
      ],
      "min": [
        -2.269164562225342,
        1.0824073553085327,
        -1.2583506107330322
      ],
      "type": "VEC3"
    },
    {
      "bufferView": 2,
      "byteOffset": 4656,
      "componentType": 5126,
      "count": 324,
      "max": [
        0.5773588418960571,
        0.8617051243782043,
        0.8642964959144592
      ],
      "min": [
        -0.5773588418960571,
        -0.9085223078727722,
        -0.9456813335418701
      ],
      "type": "VEC3"
    },
    {
      "bufferView": 1,
      "byteOffset": 256,
      "componentType": 5126,
      "count": 324,
      "max": [
        0.9284279346466064,
        0.7145262360572815
      ],
      "min": [
        -0.06093981862068176,
        0.2848273813724518
      ],
      "type": "VEC2"
    },
    {
      "bufferView": 0,
      "byteOffset": 192,
      "componentType": 5125,
      "count": 1932,
      "type": "SCALAR"
    },
    {
      "bufferView": 2,
      "byteOffset": 8544,
      "componentType": 5126,
      "count": 208,
      "max": [
        2.269164562225342,
        1.5860514640808105,
        1.0603739023208618
      ],
      "min": [
        -2.226886749267578,
        -1.7002540826797485,
        -0.9175727963447571
      ],
      "type": "VEC3"
    },
    {
      "bufferView": 2,
      "byteOffset": 11040,
      "componentType": 5126,
      "count": 208,
      "max": [
        1.0,
        0.9793180227279663,
        0.9999999403953552
      ],
      "min": [
        -1.0,
        -1.0,
        -0.9999999403953552
      ],
      "type": "VEC3"
    },
    {
      "bufferView": 1,
      "byteOffset": 2848,
      "componentType": 5126,
      "count": 208,
      "max": [
        0.695881724357605,
        1.0005674362182617
      ],
      "min": [
        0.3902454972267151,
        3.7342309951782227e-05
      ],
      "type": "VEC2"
    },
    {
      "bufferView": 0,
      "byteOffset": 7920,
      "componentType": 5125,
      "count": 312,
      "type": "SCALAR"
    },
    {
      "bufferView": 2,
      "byteOffset": 13536,
      "componentType": 5126,
      "count": 4,
      "max": [
        -1.1264562606811523,
        0.6037684679031372,
        -0.8340543508529663
      ],
      "min": [
        -1.5326101779937744,
        -0.02813020348548889,
        -0.8340543508529663
      ],
      "type": "VEC3"
    },
    {
      "bufferView": 2,
      "byteOffset": 13584,
      "componentType": 5126,
      "count": 4,
      "max": [
        0.0,
        3.904202472426732e-08,
        1.0
      ],
      "min": [
        0.0,
        3.904202472426732e-08,
        1.0
      ],
      "type": "VEC3"
    },
    {
      "bufferView": 1,
      "byteOffset": 4512,
      "componentType": 5126,
      "count": 4,
      "max": [
        1.002629041671753,
        0.7898004055023193
      ],
      "min": [
        0.13383889198303223,
        0.06126119941473007
      ],
      "type": "VEC2"
    },
    {
      "bufferView": 0,
      "byteOffset": 9168,
      "componentType": 5125,
      "count": 6,
      "type": "SCALAR"
    },
    {
      "bufferView": 2,
      "byteOffset": 13632,
      "componentType": 5126,
      "count": 96,
      "max": [
        1.4264581203460693,
        0.3578268587589264,
        0.35290080308914185
      ],
      "min": [
        -1.4264581203460693,
        0.31017234921455383,
        -0.35290077328681946
      ],
      "type": "VEC3"
    },
    {
      "bufferView": 2,
      "byteOffset": 14784,
      "componentType": 5126,
      "count": 96,
      "max": [
        1.0,
        1.0,
        1.0
      ],
      "min": [
        -1.0,
        -1.0,
        -1.0
      ],
      "type": "VEC3"
    },
    {
      "bufferView": 1,
      "byteOffset": 4544,
      "componentType": 5126,
      "count": 96,
      "max": [
        1.0,
        0.9985828399658203
      ],
      "min": [
        0.0,
        0.7962501049041748
      ],
      "type": "VEC2"
    },
    {
      "bufferView": 0,
      "byteOffset": 9192,
      "componentType": 5125,
      "count": 144,
      "type": "SCALAR"
    },
    {
      "bufferView": 2,
      "byteOffset": 15936,
      "componentType": 5126,
      "count": 144,
      "max": [
        1.0413316488265991,
        0.3101726174354553,
        0.32864469289779663
      ],
      "min": [
        -1.0954608917236328,
        -0.3578268587589264,
        -0.3389189541339874
      ],
      "type": "VEC3"
    },
    {
      "bufferView": 2,
      "byteOffset": 17664,
      "componentType": 5126,
      "count": 144,
      "max": [
        1.0,
        1.0,
        1.0
      ],
      "min": [
        -1.0,
        -1.0,
        -1.0
      ],
      "type": "VEC3"
    },
    {
      "bufferView": 1,
      "byteOffset": 5312,
      "componentType": 5126,
      "count": 144,
      "max": [
        0.5573679208755493,
        1.0
      ],
      "min": [
        0.4254065752029419,
        0.0
      ],
      "type": "VEC2"
    },
    {
      "bufferView": 0,
      "byteOffset": 9768,
      "componentType": 5125,
      "count": 216,
      "type": "SCALAR"
    }
  ],
  "asset": {
    "extras": {
      "author": "ouz209 (https://sketchfab.com/ouz209)",
      "license": "CC-BY-4.0 (http://creativecommons.org/licenses/by/4.0/)",
      "source": "https://sketchfab.com/3d-models/bus-stop-low-poly-2d5af69bb7884551ba6ccfa3024e3a71",
      "title": "Bus Stop low poly"
    },
    "generator": "Sketchfab-12.78.0",
    "version": "2.0"
  },
  "bufferViews": [
    {
      "buffer": 0,
      "byteLength": 10632,
      "name": "floatBufferViews",
      "target": 34963
    },
    {
      "buffer": 0,
      "byteLength": 6464,
      "byteOffset": 10632,
      "byteStride": 8,
      "name": "floatBufferViews",
      "target": 34962
    },
    {
      "buffer": 0,
      "byteLength": 19392,
      "byteOffset": 17096,
      "byteStride": 12,
      "name": "floatBufferViews",
      "target": 34962
    }
  ],
  "buffers": [
    {
      "byteLength": 36488,
      "uri": "scene.bin"
    }
  ],
  "images": [
    {
      "uri": "textures/Material.024_baseColor.jpeg"
    },
    {
      "uri": "textures/Material.022_baseColor.jpeg"
    },
    {
      "uri": "textures/Material.023_baseColor.jpeg"
    },
    {
      "uri": "textures/Material.025_baseColor.png"
    },
    {
      "uri": "textures/Material.028_baseColor.jpeg"
    },
    {
      "uri": "textures/Material.027_baseColor.png"
    }
  ],
  "materials": [
    {
      "doubleSided": true,
      "name": "Material.024",
      "pbrMetallicRoughness": {
        "baseColorTexture": {
          "index": 0
        },
        "metallicFactor": 0.0,
        "roughnessFactor": 0.8211145618000169
      }
    },
    {
      "doubleSided": true,
      "name": "Material.022",
      "pbrMetallicRoughness": {
        "baseColorTexture": {
          "index": 1
        },
        "metallicFactor": 0.0,
        "roughnessFactor": 0.8211145618000169
      }
    },
    {
      "doubleSided": true,
      "name": "Material.023",
      "pbrMetallicRoughness": {
        "baseColorTexture": {
          "index": 2
        },
        "metallicFactor": 0.0,
        "roughnessFactor": 0.8211145618000169
      }
    },
    {
      "doubleSided": true,
      "name": "Material.025",
      "pbrMetallicRoughness": {
        "baseColorTexture": {
          "index": 3
        },
        "metallicFactor": 0.0,
        "roughnessFactor": 0.7470177871865296
      }
    },
    {
      "doubleSided": true,
      "name": "Material.028",
      "pbrMetallicRoughness": {
        "baseColorTexture": {
          "index": 4
        },
        "metallicFactor": 0.0,
        "roughnessFactor": 0.8211145618000169
      }
    },
    {
      "doubleSided": true,
      "name": "Material.027",
      "pbrMetallicRoughness": {
        "baseColorTexture": {
          "index": 5
        },
        "metallicFactor": 0.0,
        "roughnessFactor": 0.8211145618000169
      }
    }
  ],
  "meshes": [
    {
      "name": "Plane.024_Material.024_0",
      "primitives": [
        {
          "attributes": {
            "NORMAL": 1,
            "POSITION": 0,
            "TEXCOORD_0": 2
          },
          "indices": 3,
          "material": 0,
          "mode": 4
        }
      ]
    },
    {
      "name": "Plane.024_Material.022_0",
      "primitives": [
        {
          "attributes": {
            "NORMAL": 5,
            "POSITION": 4,
            "TEXCOORD_0": 6
          },
          "indices": 7,
          "material": 1,
          "mode": 4
        }
      ]
    },
    {
      "name": "Plane.024_Material.023_0",
      "primitives": [
        {
          "attributes": {
            "NORMAL": 9,
            "POSITION": 8,
            "TEXCOORD_0": 10
          },
          "indices": 11,
          "material": 2,
          "mode": 4
        }
      ]
    },
    {
      "name": "Plane.024_Material.025_0",
      "primitives": [
        {
          "attributes": {
            "NORMAL": 13,
            "POSITION": 12,
            "TEXCOORD_0": 14
          },
          "indices": 15,
          "material": 3,
          "mode": 4
        }
      ]
    },
    {
      "name": "Cube.047_Material.028_0",
      "primitives": [
        {
          "attributes": {
            "NORMAL": 17,
            "POSITION": 16,
            "TEXCOORD_0": 18
          },
          "indices": 19,
          "material": 4,
          "mode": 4
        }
      ]
    },
    {
      "name": "Cube.047_Material.027_0",
      "primitives": [
        {
          "attributes": {
            "NORMAL": 21,
            "POSITION": 20,
            "TEXCOORD_0": 22
          },
          "indices": 23,
          "material": 5,
          "mode": 4
        }
      ]
    }
  ],
  "nodes": [
    {
      "children": [
        1
      ],
      "matrix": [
        1.0,
        0.0,
        0.0,
        0.0,
        0.0,
        2.220446049250313e-16,
        -1.0,
        0.0,
        0.0,
        1.0,
        2.220446049250313e-16,
        0.0,
        0.0,
        0.0,
        0.0,
        1.0
      ],
      "name": "Sketchfab_model"
    },
    {
      "children": [
        2
      ],
      "matrix": [
        1.0,
        0.0,
        0.0,
        0.0,
        0.0,
        0.0,
        1.0,
        0.0,
        0.0,
        -1.0,
        0.0,
        0.0,
        0.0,
        0.0,
        0.0,
        1.0
      ],
      "name": "c79a7ba6f9134b3da14d3794030a9470.fbx"
    },
    {
      "children": [
        3,
        8
      ],
      "name": "RootNode"
    },
    {
      "children": [
        4,
        5,
        6,
        7
      ],
      "matrix": [
        1.0,
        0.0,
        0.0,
        0.0,
        0.0,
        1.0,
        0.0,
        0.0,
        0.0,
        0.0,
        1.0,
        0.0,
        0.0425800159573555,
        1.6277287006378174,
        0.04063105583190918,
        1.0
      ],
      "name": "Plane.024"
    },
    {
      "mesh": 0,
      "name": "Plane.024_Material.024_0"
    },
    {
      "mesh": 1,
      "name": "Plane.024_Material.022_0"
    },
    {
      "mesh": 2,
      "name": "Plane.024_Material.023_0"
    },
    {
      "mesh": 3,
      "name": "Plane.024_Material.025_0"
    },
    {
      "children": [
        9,
        10
      ],
      "matrix": [
        1.0,
        0.0,
        0.0,
        0.0,
        0.0,
        1.0,
        0.0,
        0.0,
        0.0,
        0.0,
        1.0,
        0.0,
        0.11996704339981079,
        0.28530153632164,
        0.08004364371299744,
        1.0
      ],
      "name": "Cube.047"
    },
    {
      "mesh": 4,
      "name": "Cube.047_Material.028_0"
    },
    {
      "mesh": 5,
      "name": "Cube.047_Material.027_0"
    }
  ],
  "samplers": [
    {
      "magFilter": 9729,
      "minFilter": 9987,
      "wrapS": 10497,
      "wrapT": 10497
    }
  ],
  "scene": 0,
  "scenes": [
    {
      "name": "Sketchfab_Scene",
      "nodes": [
        0
      ]
    }
  ],
  "textures": [
    {
      "sampler": 0,
      "source": 0
    },
    {
      "sampler": 0,
      "source": 1
    },
    {
      "sampler": 0,
      "source": 2
    },
    {
      "sampler": 0,
      "source": 3
    },
    {
      "sampler": 0,
      "source": 4
    },
    {
      "sampler": 0,
      "source": 5
    }
  ]
}
