# This file is brought to you by Roblox Corporation
# Generated by Roblox Studio

mtllib ground grass.mtl

g Base1

v 244.506 124.409 -66.6725 
v 244.506 124.409 405.904 
v 244.506 124.157 -66.6725 
v 244.506 124.157 405.904 
v -228.07 124.409 405.904 
v 244.506 124.409 405.904 
v -228.07 124.409 -66.6725 
v 244.506 124.409 -66.6725 
v 244.506 124.409 405.904 
v -228.07 124.409 405.904 
v 244.506 124.157 405.904 
v -228.07 124.157 405.904 
v -228.07 124.409 405.904 
v -228.07 124.409 -66.6725 
v -228.07 124.157 405.904 
v -228.07 124.157 -66.6725 
v -228.07 124.157 -66.6725 
v 244.506 124.157 -66.6725 
v -228.07 124.157 405.904 
v 244.506 124.157 405.904 
v -228.07 124.409 -66.6725 
v 244.506 124.409 -66.6725 
v -228.07 124.157 -66.6725 
v 244.506 124.157 -66.6725 

vn 1 0 0 
vn 1 0 0 
vn 1 0 0 
vn 1 0 0 
vn 0 1 0 
vn 0 1 0 
vn 0 1 0 
vn 0 1 0 
vn 0 0 1 
vn 0 0 1 
vn 0 0 1 
vn 0 0 1 
vn -1 0 0 
vn -1 0 0 
vn -1 0 0 
vn -1 0 0 
vn 0 -1 0 
vn 0 -1 0 
vn 0 -1 0 
vn 0 -1 0 
vn 0 0 -1 
vn 0 0 -1 
vn 0 0 -1 
vn 0 0 -1 

vt 117.815 -55.9761 
vt 58.7427 -55.9761 
vt 117.815 -56.0076 
vt 58.7427 -56.0076 
vt 117.815 -55.9761 
vt 58.7427 -55.9761 
vt 117.815 -115.048 
vt 58.7427 -115.048 
vt 117.815 -55.9761 
vt 58.7427 -55.9761 
vt 117.815 -56.0076 
vt 58.7427 -56.0076 
vt 117.815 -55.9761 
vt 58.7427 -55.9761 
vt 117.815 -56.0076 
vt 58.7427 -56.0076 
vt 117.815 -55.9761 
vt 58.7427 -55.9761 
vt 117.815 -115.048 
vt 58.7427 -115.048 
vt 117.815 -55.9761 
vt 58.7427 -55.9761 
vt 117.815 -56.0076 
vt 58.7427 -56.0076 

usemtl Base1Mtl

f 1/1/1 2/2/2 3/3/3 
f 3/3/3 2/2/2 4/4/4 
f 5/5/5 6/6/6 7/7/7 
f 7/7/7 6/6/6 8/8/8 
f 9/9/9 10/10/10 11/11/11 
f 11/11/11 10/10/10 12/12/12 
f 13/13/13 14/14/14 15/15/15 
f 15/15/15 14/14/14 16/16/16 
f 17/17/17 18/18/18 19/19/19 
f 19/19/19 18/18/18 20/20/20 
f 21/21/21 22/22/22 23/23/23 
f 23/23/23 22/22/22 24/24/24 

