{
  "accessors": [
    {
      "bufferView": 2,
      "componentType": 5126,
      "count": 22295,
      "max": [
        376.3094177246094,
        430.23406982421875,
        721.3953247070313
      ],
      "min": [
        -218.86968994140625,
        -385.0316162109375,
        -1.1209526062011719
      ],
      "type": "VEC3"
    },
    {
      "bufferView": 2,
      "byteOffset": 267540,
      "componentType": 5126,
      "count": 22295,
      "max": [
        1.0,
        1.0,
        1.0
      ],
      "min": [
        -1.0,
        -1.0,
        -1.0
      ],
      "type": "VEC3"
    },
    {
      "bufferView": 3,
      "componentType": 5126,
      "count": 22295,
      "max": [
        1.0,
        1.0,
        1.0,
        1.0
      ],
      "min": [
        -1.0,
        -1.0,
        -1.0,
        -1.0
      ],
      "type": "VEC4"
    },
    {
      "bufferView": 1,
      "componentType": 5126,
      "count": 22295,
      "max": [
        0.9981572031974792,
        6.454019546508789
      ],
      "min": [
        0.0037753561045974493,
        -6.454955101013184
      ],
      "type": "VEC2"
    },
    {
      "bufferView": 0,
      "componentType": 5125,
      "count": 95292,
      "type": "SCALAR"
    },
    {
      "bufferView": 2,
      "byteOffset": 535080,
      "componentType": 5126,
      "count": 4,
      "max": [
        1375.3572998046875,
        1375.3572998046875,
        0.0
      ],
      "min": [
        -1375.3572998046875,
        -1375.3572998046875,
        0.0
      ],
      "type": "VEC3"
    },
    {
      "bufferView": 2,
      "byteOffset": 535128,
      "componentType": 5126,
      "count": 4,
      "max": [
        0.0,
        0.0,
        1.0
      ],
      "min": [
        0.0,
        0.0,
        1.0
      ],
      "type": "VEC3"
    },
    {
      "bufferView": 3,
      "byteOffset": 356720,
      "componentType": 5126,
      "count": 4,
      "max": [
        1.0,
        0.0,
        0.0,
        1.0
      ],
      "min": [
        1.0,
        0.0,
        0.0,
        1.0
      ],
      "type": "VEC4"
    },
    {
      "bufferView": 1,
      "byteOffset": 178360,
      "componentType": 5126,
      "count": 4,
      "max": [
        3.5291872024536133,
        3.529186725616455
      ],
      "min": [
        -2.529186964035034,
        -2.5291874408721924
      ],
      "type": "VEC2"
    },
    {
      "bufferView": 0,
      "byteOffset": 381168,
      "componentType": 5125,
      "count": 6,
      "type": "SCALAR"
    }
  ],
  "asset": {
    "extras": {
      "author": "leolee (https://sketchfab.com/leolee)",
      "license": "CC-BY-NC-4.0 (http://creativecommons.org/licenses/by-nc/4.0/)",
      "source": "https://sketchfab.com/3d-models/tricycle-scene-37a62fb15a3c4b9881f7d1087ebd3a5a",
      "title": "Tricycle Scene"
    },
    "generator": "Sketchfab-12.68.0",
    "version": "2.0"
  },
  "bufferViews": [
    {
      "buffer": 0,
      "byteLength": 381192,
      "name": "floatBufferViews",
      "target": 34963
    },
    {
      "buffer": 0,
      "byteLength": 178392,
      "byteOffset": 381192,
      "byteStride": 8,
      "name": "floatBufferViews",
      "target": 34962
    },
    {
      "buffer": 0,
      "byteLength": 535176,
      "byteOffset": 559584,
      "byteStride": 12,
      "name": "floatBufferViews",
      "target": 34962
    },
    {
      "buffer": 0,
      "byteLength": 356784,
      "byteOffset": 1094760,
      "byteStride": 16,
      "name": "floatBufferViews",
      "target": 34962
    }
  ],
  "buffers": [
    {
      "byteLength": 1451544,
      "uri": "scene.bin"
    }
  ],
  "images": [
    {
      "uri": "textures/TriCycle_baseColor.png"
    },
    {
      "uri": "textures/TriCycle_metallicRoughness.png"
    },
    {
      "uri": "textures/TriCycle_emissive.jpeg"
    },
    {
      "uri": "textures/TriCycle_normal.png"
    },
    {
      "uri": "textures/land_baseColor.png"
    },
    {
      "uri": "textures/land_normal.png"
    }
  ],
  "materials": [
    {
      "emissiveFactor": [
        0.4,
        0.4,
        0.4
      ],
      "emissiveTexture": {
        "index": 2
      },
      "name": "TriCycle",
      "normalTexture": {
        "index": 3
      },
      "occlusionTexture": {
        "index": 1
      },
      "pbrMetallicRoughness": {
        "baseColorTexture": {
          "index": 0
        },
        "metallicFactor": 0.52,
        "metallicRoughnessTexture": {
          "index": 1
        }
      }
    },
    {
      "doubleSided": true,
      "name": "land",
      "normalTexture": {
        "index": 5
      },
      "pbrMetallicRoughness": {
        "baseColorTexture": {
          "index": 4
        },
        "metallicFactor": 0.0
      }
    }
  ],
  "meshes": [
    {
      "name": "Tricycle_TriCycle_0",
      "primitives": [
        {
          "attributes": {
            "NORMAL": 1,
            "POSITION": 0,
            "TANGENT": 2,
            "TEXCOORD_0": 3
          },
          "indices": 4,
          "material": 0,
          "mode": 4
        }
      ]
    },
    {
      "name": "Tricycle_land_0",
      "primitives": [
        {
          "attributes": {
            "NORMAL": 6,
            "POSITION": 5,
            "TANGENT": 7,
            "TEXCOORD_0": 8
          },
          "indices": 9,
          "material": 1,
          "mode": 4
        }
      ]
    }
  ],
  "nodes": [
    {
      "children": [
        1
      ],
      "matrix": [
        -1.0,
        2.220446049250312e-16,
        4.440892098500626e-16,
        0.0,
        4.440892098500626e-16,
        4.440892098500626e-16,
        1.0,
        0.0,
        2.220446049250313e-16,
        1.0,
        -4.440892098500626e-16,
        0.0,
        -0.003173828125,
        7.047314121155779e-19,
        0.003173828125,
        1.0
      ],
      "name": "Sketchfab_model"
    },
    {
      "children": [
        2
      ],
      "matrix": [
        1.0,
        0.0,
        0.0,
        0.0,
        0.0,
        0.0,
        1.0,
        0.0,
        0.0,
        -1.0,
        0.0,
        0.0,
        0.0,
        0.0,
        0.0,
        1.0
      ],
      "name": "b2a74820a1a44a08b694ce917922efe3.fbx"
    },
    {
      "children": [
        3
      ],
      "name": "RootNode"
    },
    {
      "children": [
        4,
        5
      ],
      "matrix": [
        1.0,
        0.0,
        0.0,
        0.0,
        0.0,
        2.220446049250313e-16,
        -1.0,
        0.0,
        0.0,
        1.0,
        2.220446049250313e-16,
        0.0,
        0.0,
        0.0,
        0.0,
        1.0
      ],
      "name": "Tricycle"
    },
    {
      "mesh": 0,
      "name": "Tricycle_TriCycle_0"
    },
    {
      "mesh": 1,
      "name": "Tricycle_land_0"
    }
  ],
  "samplers": [
    {
      "magFilter": 9729,
      "minFilter": 9987,
      "wrapS": 10497,
      "wrapT": 10497
    }
  ],
  "scene": 0,
  "scenes": [
    {
      "name": "Sketchfab_Scene",
      "nodes": [
        0
      ]
    }
  ],
  "textures": [
    {
      "sampler": 0,
      "source": 0
    },
    {
      "sampler": 0,
      "source": 1
    },
    {
      "sampler": 0,
      "source": 2
    },
    {
      "sampler": 0,
      "source": 3
    },
    {
      "sampler": 0,
      "source": 4
    },
    {
      "sampler": 0,
      "source": 5
    }
  ]
}
