# Blender 4.2.2 LTS
# www.blender.org
mtllib barrel of gasoline.mtl
o barrel_of_gasoline
v 0.897469 3.514905 -0.161551
v 0.897469 3.830219 -0.161551
v 1.008949 3.514905 -0.115375
v 1.008949 3.830219 -0.115375
v 1.055126 3.514905 -0.003894
v 1.055126 3.830219 -0.003894
v 1.008949 3.514905 0.107586
v 1.008949 3.830219 0.107586
v 0.897469 3.514905 0.153763
v 0.897469 3.830219 0.153763
v 0.785988 3.514905 0.107586
v 0.785988 3.830219 0.107586
v 0.739812 3.514905 -0.003894
v 0.739812 3.830219 -0.003894
v 0.785988 3.514905 -0.115375
v 0.785988 3.830219 -0.115375
v -0.028065 0.010089 -1.302937
v -0.028065 3.800261 -1.206156
v 0.890497 0.010089 -0.922456
v 0.822063 3.800261 -0.854022
v 1.270977 0.010089 -0.003894
v 1.174197 3.800261 -0.003894
v 0.890497 0.010089 0.914667
v 0.822063 3.800261 0.846233
v -0.028065 0.010089 1.295148
v -0.028065 3.800261 1.198367
v -0.946626 0.010089 0.914667
v -0.878192 3.800261 0.846233
v -1.327107 0.010089 -0.003894
v -1.230326 3.800261 -0.003894
v -0.946626 0.010089 -0.922456
v -0.878192 3.800261 -0.854022
v 0.890497 3.800261 -0.922456
v -0.028065 3.800261 -1.302937
v 1.270977 3.800261 -0.003894
v 0.890497 3.800261 0.914667
v -0.028065 3.800261 1.295148
v -0.946626 3.800261 0.914667
v -1.327107 3.800261 -0.003894
v -0.946626 3.800261 -0.922456
v 0.821378 3.758986 -0.851574
v -0.028749 3.758986 -1.203709
v 1.173512 3.758986 -0.001447
v 0.821378 3.758986 0.848680
v -0.028749 3.758986 1.200815
v -0.878877 3.758986 0.848680
v -1.231011 3.758986 -0.001447
v -0.878877 3.758986 -0.851574
vn 0.3827 -0.0000 -0.9239
vn 0.9239 -0.0000 -0.3827
vn 0.9239 -0.0000 0.3827
vn 0.3827 -0.0000 0.9239
vn -0.3827 -0.0000 0.9239
vn -0.9239 -0.0000 0.3827
vn -0.0000 1.0000 -0.0000
vn -0.9239 -0.0000 -0.3827
vn -0.3827 -0.0000 -0.9239
vn -0.0000 -1.0000 -0.0000
vn 0.9239 0.0074 0.3827
vn 0.3820 -0.0610 -0.9222
vn -0.9239 -0.0074 -0.3827
vn -0.3820 0.0610 0.9222
vn 0.3822 0.0484 0.9228
vn 0.9232 -0.0380 -0.3824
vn -0.3822 -0.0484 -0.9228
vn -0.9232 0.0380 0.3824
vt 0.653357 0.655036
vt 0.368611 0.655036
vt 0.368611 0.546069
vt 0.653357 0.546068
vt 0.368611 0.437101
vt 0.653357 0.437101
vt 0.368611 0.328134
vt 0.653357 0.328134
vt 0.368611 0.219166
vt 0.653357 0.219166
vt 0.368611 0.110199
vt 0.653357 0.110199
vt 0.368611 0.001231
vt 0.653357 0.001231
vt 0.655819 0.187250
vt 0.655819 0.078283
vt 0.732871 0.001231
vt 0.841838 0.001231
vt 0.918890 0.078283
vt 0.918890 0.187250
vt 0.841838 0.264302
vt 0.732871 0.264302
vt 0.653357 0.872971
vt 0.368611 0.872971
vt 0.368611 0.764003
vt 0.653357 0.764003
vt 0.918890 0.343817
vt 0.918890 0.452784
vt 0.841838 0.529836
vt 0.732871 0.529836
vt 0.655819 0.452784
vt 0.655819 0.343817
vt 0.732871 0.266765
vt 0.841838 0.266765
vt 0.077148 0.166147
vt 0.285931 0.243574
vt 0.268639 0.318978
vt 0.041284 0.264424
vt 0.261732 0.401636
vt 0.015343 0.372451
vt 0.265199 0.491124
vt 0.001439 0.489552
vt 0.279357 0.588579
vt 0.001231 0.614135
vt 0.306450 0.691989
vt 0.015670 0.743059
vt 0.355122 0.794712
vt 0.043600 0.872971
vt 0.364181 0.117286
vt 0.366148 0.118453
vt 0.322846 0.178556
vt 0.320759 0.177589
vt 0.162585 0.001231
vt 0.360564 0.111326
vt 0.314899 0.174210
vt 0.120453 0.076995
vt 0.655819 0.702697
vt 0.655819 0.602880
vt 0.726401 0.532299
vt 0.826218 0.532299
vt 0.896800 0.602880
vt 0.896800 0.702697
vt 0.826218 0.773279
vt 0.726401 0.773279
vt 0.292812 0.245913
vt 0.276168 0.320258
vt 0.269929 0.401933
vt 0.274095 0.490417
vt 0.288927 0.586775
vt 0.316746 0.688413
vt 0.363610 0.785269
vt 0.878846 0.841065
vt 0.878846 0.933445
vt 0.813523 0.998769
vt 0.721143 0.998769
vt 0.655819 0.933445
vt 0.655819 0.841065
vt 0.721142 0.775742
vt 0.813523 0.775742
vt 0.291990 0.586185
vt 0.319596 0.687188
vt 0.272400 0.402173
vt 0.276792 0.490344
vt 0.294808 0.246487
vt 0.278437 0.320693
vt 0.366148 0.783811
s 0
usemtl Материал
f 1/1/1 2/2/1 4/3/1 3/4/1
f 3/4/2 4/3/2 6/5/2 5/6/2
f 5/6/3 6/5/3 8/7/3 7/8/3
f 7/8/4 8/7/4 10/9/4 9/10/4
f 9/10/5 10/9/5 12/11/5 11/12/5
f 11/12/6 12/11/6 14/13/6 13/14/6
f 4/15/7 2/16/7 16/17/7 14/18/7 12/19/7 10/20/7 8/21/7 6/22/7
f 13/23/8 14/24/8 16/25/8 15/26/8
f 15/26/9 16/25/9 2/2/9 1/1/9
f 1/27/10 3/28/10 5/29/10 7/30/10 9/31/10 11/32/10 13/33/10 15/34/10
f 17/35/1 34/36/1 33/37/1 19/38/1
f 19/38/2 33/37/2 35/39/2 21/40/2
f 21/40/3 35/39/3 36/41/3 23/42/3
f 23/42/4 36/41/4 37/43/4 25/44/4
f 25/44/5 37/43/5 38/45/5 27/46/5
f 27/46/6 38/45/6 39/47/6 29/48/6
f 30/49/11 47/50/11 48/51/11 32/52/11
f 29/53/8 39/54/8 40/55/8 31/56/8
f 31/56/9 40/55/9 34/36/9 17/35/9
f 17/57/10 19/58/10 21/59/10 23/60/10 25/61/10 27/62/10 29/63/10 31/64/10
f 18/65/7 20/66/7 33/37/7 34/36/7
f 20/66/7 22/67/7 35/39/7 33/37/7
f 22/67/7 24/68/7 36/41/7 35/39/7
f 24/68/7 26/69/7 37/43/7 36/41/7
f 26/69/7 28/70/7 38/45/7 37/43/7
f 28/70/7 30/71/7 39/47/7 38/45/7
f 30/49/7 32/52/7 40/55/7 39/54/7
f 32/52/7 18/65/7 34/36/7 40/55/7
f 41/72/7 42/73/7 48/74/7 47/75/7 46/76/7 45/77/7 44/78/7 43/79/7
f 26/69/12 45/80/12 46/81/12 28/70/12
f 22/67/13 43/82/13 44/83/13 24/68/13
f 18/65/14 42/84/14 41/85/14 20/66/14
f 32/52/15 48/51/15 42/84/15 18/65/15
f 28/70/16 46/81/16 47/86/16 30/71/16
f 24/68/17 44/83/17 45/80/17 26/69/17
f 20/66/18 41/85/18 43/82/18 22/67/18
