# Blender 4.2.2 LTS
# www.blender.org
mtllib bed.mtl
o bed
v -3.081795 0.796302 -6.392904
v -3.081795 1.781823 -6.392904
v 2.872981 0.796302 -6.392904
v 2.872981 1.781823 -6.392904
v -3.081796 0.796302 6.645061
v -3.081796 1.781823 6.645061
v 2.872981 0.796302 6.645061
v 2.872981 1.781823 6.645061
v -2.752993 3.156662 -6.068259
v -2.946439 2.853464 3.776437
v -3.162508 2.508779 3.740693
v -3.263635 2.373953 -6.114165
v -0.001427 3.267028 -6.068259
v -0.001427 2.777689 3.547853
v -3.292688 1.772814 3.571078
v -3.383233 1.753388 -6.184891
v -3.222415 0.770960 3.534764
v -3.424804 0.786152 -6.199783
v -2.752994 3.216231 -1.748183
v -3.384632 2.439533 -1.794089
v -0.001427 3.480331 -1.748183
v -3.489684 1.804669 -1.864815
v -3.474279 0.786152 -1.879707
v -2.998873 3.222692 0.411855
v -3.384632 2.388253 0.365949
v -3.489684 1.753388 0.295223
v -3.474279 0.786152 0.280331
v -0.001427 3.429051 0.411855
v -0.001427 3.429051 -3.908221
v -2.752993 3.222692 -3.908221
v -3.384632 2.388253 -3.954127
v -3.489684 1.753388 -4.024853
v -3.474278 0.786152 -4.039745
v -1.562287 3.307411 -6.068259
v -1.685644 2.849631 3.544572
v -1.562287 3.424722 -1.748183
v -1.685227 3.373441 0.411855
v -1.562287 3.373441 -3.908221
v -2.999290 3.111883 1.566617
v -3.384632 2.388253 1.514857
v -3.489684 1.753388 1.444131
v -3.474279 0.784982 1.449602
v -0.001427 3.363064 1.491874
v -1.685435 3.285044 1.565488
v -2.999382 3.087210 2.203607
v -3.384632 2.388253 2.157701
v -3.489684 1.753388 2.086975
v -3.474279 0.749259 2.122890
v -0.001427 3.348371 1.924811
v -1.685482 3.265361 2.203607
v -3.428190 3.459000 2.218333
v -3.428514 3.395867 3.762684
v -3.813439 2.760043 2.172428
v -3.798379 2.801021 3.748570
v -2.114451 3.600452 3.567294
v -0.001427 3.690678 3.645424
v -3.918491 2.125178 2.101703
v -3.904593 2.136251 3.625304
v -3.903086 0.899754 2.144865
v -3.857373 0.995658 3.549490
v -0.001427 3.720161 1.939538
v -2.114289 3.637150 2.218334
v 2.750769 3.127654 -6.068259
v 2.943585 2.702341 3.643199
v 3.159654 2.382254 3.604220
v 3.260922 2.369016 -6.114165
v 3.289834 1.753073 3.529853
v 3.380380 1.753388 -6.184891
v 3.219561 0.770960 3.534764
v 3.421951 0.786152 -6.199783
v 2.750140 3.216231 -1.748183
v 3.381778 2.439533 -1.794089
v 3.486830 1.804669 -1.864814
v 3.471425 0.786152 -1.879707
v 2.996019 3.222692 0.411855
v 3.381778 2.388253 0.365950
v 3.486830 1.753388 0.295224
v 3.471425 0.786152 0.280332
v 2.750140 3.222692 -3.908221
v 3.381779 2.388253 -3.954127
v 3.486831 1.753388 -4.024853
v 3.471425 0.786152 -4.039745
v 1.560063 3.125338 -6.068259
v 1.682790 2.820100 3.544572
v 1.559434 3.424722 -1.748183
v 1.682373 3.373441 0.411855
v 1.559434 3.373441 -3.908221
v 2.996436 3.111883 1.491874
v 3.381778 2.388253 1.445969
v 3.486830 1.753388 1.375243
v 3.471425 0.784982 1.360465
v 1.682582 3.285044 1.491874
v 2.996529 3.087210 1.924811
v 3.381778 2.388253 1.878906
v 3.486830 1.753388 1.808180
v 3.471425 0.749259 1.795407
v 1.682628 3.265361 1.924811
v 3.425336 3.459000 1.939539
v 3.425659 3.290030 3.630026
v 3.810585 2.760043 1.893633
v 3.795525 2.731780 3.610920
v 2.111597 3.660941 3.559299
v 3.915637 2.125178 1.822907
v 3.901739 2.122416 3.544580
v 3.900232 0.899754 1.817382
v 3.854518 0.995658 3.549491
v 2.111435 3.637150 1.939539
v -2.589848 2.901373 -6.064279
v -2.938099 2.836532 3.323370
v -3.144711 2.516044 3.271108
v -2.976365 2.257908 -6.102144
v -0.001427 2.977342 -6.068259
v -0.144361 2.718364 3.230666
v -3.291182 1.777946 3.131253
v -3.074907 1.724221 -6.171326
v -3.148809 0.992901 3.221662
v -3.115036 0.781790 -6.188602
v -2.594027 2.950141 -1.743131
v -3.098314 2.320760 -1.790273
v -0.001427 3.170331 -1.748032
v -3.180570 1.781255 -1.864771
v -3.164316 0.790962 -1.879708
v -2.823981 2.966812 0.405663
v -3.092076 2.285741 0.367349
v -3.180518 1.730671 0.294921
v -3.164317 0.791023 0.280361
v -0.001427 3.119394 0.397281
v -0.001427 3.119072 -3.904541
v -2.594434 2.956332 -3.904915
v -3.099053 2.267830 -3.947574
v -3.180899 1.726971 -4.017519
v -3.164330 0.786331 -4.034126
v -1.537274 3.006701 -6.068259
v -1.686670 2.817785 3.167814
v -1.534590 3.115963 -1.747238
v -1.658724 3.064900 0.397719
v -1.535427 3.064619 -3.905585
v -2.820571 2.859059 1.476396
v -3.090396 2.290699 1.443120
v -3.180535 1.730435 1.375294
v -3.164317 0.789867 1.360878
v -0.001427 3.053555 1.474442
v -1.658981 2.976810 1.472075
v -2.900977 2.931869 2.244237
v -3.199594 2.299988 2.173141
v -3.273387 1.728650 2.097097
v -3.246285 0.921910 2.028654
v -0.161905 3.180444 2.087388
v -1.665405 3.041102 2.212632
v -3.293106 3.246054 2.464451
v -3.289988 3.236139 3.688472
v -3.599238 2.667612 2.422184
v -3.574755 2.767041 3.652962
v -2.099119 3.410628 3.445597
v -0.148432 3.524343 3.528682
v -3.699347 2.093927 2.328838
v -3.674553 2.150744 3.494062
v -3.696305 1.051184 2.262372
v -3.661064 1.137494 3.355328
v -0.142282 3.524199 2.106081
v -2.095977 3.403133 2.414137
v 2.587541 2.866133 -6.064279
v 2.935245 2.717519 3.245873
v 3.141857 2.424342 3.191658
v 2.973654 2.252838 -6.102144
v 0.141507 2.718364 3.230666
v 3.288327 1.767870 3.117053
v 3.072053 1.724221 -6.171326
v 3.145955 0.992901 3.221663
v 3.112183 0.781790 -6.188602
v 2.591173 2.950141 -1.743131
v 3.095460 2.320760 -1.790273
v 3.177716 1.781255 -1.864771
v 3.161462 0.790962 -1.879707
v 2.821127 2.966812 0.405664
v 3.089222 2.285741 0.367349
v 3.177664 1.730671 0.294922
v 3.161463 0.791023 0.280362
v 2.591580 2.956332 -3.904915
v 3.096200 2.267830 -3.947574
v 3.178046 1.726971 -4.017519
v 3.161476 0.786331 -4.034126
v 1.534980 2.846198 -6.068259
v 1.683816 2.767803 3.167814
v 1.531737 3.115963 -1.747238
v 1.655871 3.064900 0.397719
v 1.532573 3.064619 -3.905585
v 2.817717 2.859059 1.476396
v 3.087542 2.290699 1.443121
v 3.177681 1.730435 1.375294
v 3.161463 0.789867 1.360568
v 1.656127 2.976810 1.472076
v 2.898123 2.931869 2.174382
v 3.196740 2.299988 2.111435
v 3.270534 1.728650 2.028869
v 3.243431 0.921910 1.915033
v 0.159051 3.180444 2.087388
v 1.662551 3.040918 2.137702
v 3.290252 3.245210 2.118833
v 3.287133 3.106072 3.545289
v 3.596385 2.667576 2.097760
v 3.571900 2.668020 3.507050
v 2.096265 3.454471 3.437122
v 0.145577 3.524343 3.528682
v 3.696493 2.093927 2.039930
v 3.671699 2.119455 3.405917
v 3.693451 1.051184 1.991769
v 3.658210 1.137494 3.355329
v 0.139428 3.524199 2.106081
v 2.093123 3.403051 2.141930
v 3.595786 1.935574 3.762552
v 3.477589 2.548210 3.837291
v 1.897193 3.310568 3.879183
v 3.537039 0.883309 3.747659
v 3.685828 0.824507 1.806395
v 3.184622 2.984436 3.893133
v -3.598640 1.959786 3.847129
v -3.480444 2.660388 4.011839
v -1.900047 3.240772 3.882116
v -3.539894 0.883309 3.747659
v -3.688682 0.824507 2.241993
v -3.187476 3.127967 4.067680
v -0.001427 3.356957 3.897634
v -2.569451 4.413766 6.813015
v 2.360636 4.413766 6.813015
v -2.569451 0.540746 6.607700
v -2.569451 4.413766 6.607700
v 2.360636 0.540746 6.607700
v 2.360636 4.413766 6.607700
v 2.860636 0.040746 6.813015
v -3.069451 0.040746 6.813015
v -3.069451 4.913766 6.813015
v 2.860636 4.913766 6.813015
v -2.569789 0.040746 6.813015
v 2.360841 0.040746 6.813015
v -3.069471 0.540746 6.607700
v 2.860578 0.540746 6.607700
v 2.360841 0.440746 6.813015
v -2.569789 0.440746 6.813015
v -3.069471 0.940746 6.607700
v 2.860578 0.940746 6.607700
v 2.860636 4.913766 6.607700
v 2.860636 0.040746 6.607700
v 2.360578 0.040746 6.607700
v -3.069451 4.913766 6.607700
v -3.069451 0.040746 6.607700
v -2.569471 0.040746 6.607700
v -2.569471 0.440746 6.607700
v 2.360578 0.440746 6.607700
v 2.360636 4.413766 6.677700
v 2.360636 0.540746 6.677700
v 2.860578 0.540746 6.677700
v -2.569451 4.413766 6.677700
v -2.569451 0.540746 6.677700
v -3.069471 0.540746 6.677700
v -3.069471 0.940746 6.677700
v 2.860578 0.940746 6.677700
v -2.569451 0.940746 6.677700
v 2.360636 0.940746 6.677700
v -2.569451 2.990852 -6.560858
v 2.360636 2.990852 -6.560858
v -3.069451 0.040746 -6.355542
v -3.069451 3.490852 -6.355542
v 2.860636 0.040746 -6.355542
v 2.860636 3.490852 -6.355542
v 2.860636 0.040746 -6.560858
v -3.069451 0.040746 -6.560858
v -3.069451 3.490852 -6.560858
v 2.860636 3.490852 -6.560858
v 2.360803 0.040746 -6.560858
v -2.569847 0.040746 -6.560858
v 2.360158 0.040746 -6.355542
v -2.569034 0.040746 -6.355542
v 2.360803 0.440746 -6.560858
v -2.569847 0.440746 -6.560858
v -2.569034 0.440746 -6.355542
v 2.360158 0.440746 -6.355542
v -2.569451 2.990852 -6.490858
v 2.360636 2.990852 -6.490858
v 2.360803 0.440746 -6.490858
v -2.569847 0.440746 -6.490858
v -0.001429 3.245675 6.488145
v -0.001429 3.277820 3.966894
v -1.172002 3.191319 4.193975
v -1.256189 2.975388 4.518520
v -1.742046 3.283999 4.562333
v -1.303215 3.051303 4.302207
v -1.588467 3.124735 4.358255
v -1.623130 3.111774 4.545785
v -1.822128 3.234595 4.158432
v -1.172002 3.376680 4.193975
v -1.742046 3.283999 4.562333
v -1.256189 3.592610 4.518520
v -1.822128 3.327276 4.158432
v -1.588466 3.443263 4.358256
v -1.623130 3.456224 4.545785
v -1.303215 3.516695 4.302207
v 1.169145 3.191319 4.193975
v 1.723469 3.283999 4.562333
v 1.253331 2.975388 4.518520
v 1.769544 3.237659 4.152194
v 1.580970 3.124735 4.367815
v 1.620272 3.111774 4.545785
v 1.300357 3.051303 4.302207
v 1.169145 3.376680 4.193975
v 1.253332 3.592610 4.518520
v 1.723469 3.283999 4.562333
v 1.300358 3.516695 4.302207
v 1.580970 3.443263 4.367815
v 1.620272 3.456224 4.545785
v 1.769544 3.330339 4.152194
v -1.172003 3.191319 6.261064
v -1.728759 3.283999 5.892706
v -1.256189 2.975388 5.936519
v -1.745670 3.237659 6.254521
v -1.588467 3.124735 6.087224
v -1.623130 3.111774 5.909254
v -1.303215 3.051303 6.152833
v -1.172003 3.376680 6.261064
v -1.256189 3.592610 5.936519
v -1.728759 3.283999 5.892706
v -1.303215 3.516695 6.152833
v -1.588467 3.443263 6.087224
v -1.623130 3.456224 5.909254
v -1.745670 3.330339 6.254520
v 1.253331 2.975388 5.936519
v 1.717687 3.283999 5.892706
v 1.169145 3.191319 6.261064
v 1.620272 3.111774 5.909254
v 1.573815 3.124735 6.087224
v 1.771255 3.237659 6.224938
v 1.300357 3.051303 6.152833
v 1.717687 3.283999 5.892706
v 1.253332 3.592610 5.936519
v 1.169145 3.376680 6.261064
v 1.620272 3.456224 5.909254
v 1.573815 3.443263 6.087224
v 1.300358 3.516695 6.152833
v 1.771255 3.330339 6.224938
v -0.001429 2.986337 4.068927
v 0.421456 2.783304 4.477572
v -0.424313 2.783304 4.477572
v 0.273040 2.855105 4.223228
v -0.001429 2.822928 4.270569
v -0.001429 2.759438 4.477572
v -0.275897 2.855105 4.223228
v -0.001429 3.545309 4.068927
v -0.424313 3.782607 4.477572
v 0.421456 3.782607 4.477572
v -0.275897 3.692154 4.223228
v -0.001429 3.717834 4.270569
v -0.001429 3.796856 4.477572
v 0.273040 3.692154 4.223228
v -0.001429 2.899115 6.386112
v -0.424313 2.778501 5.977467
v 0.421456 2.778501 5.977467
v -0.275898 2.807380 6.231812
v -0.001429 2.760252 6.184470
v -0.001429 2.732505 5.977467
v 0.273040 2.807380 6.231812
v -0.001429 3.572449 6.386112
v 0.421456 3.784187 5.977467
v -0.424313 3.784187 5.977467
v 0.273040 3.707852 6.231812
v -0.001429 3.738451 6.184470
v -0.001429 3.805716 5.977467
v -0.275897 3.707852 6.231812
v -1.187126 3.283999 4.144792
v -1.742046 3.283999 4.562333
v -1.859162 3.279371 4.105218
v 1.184269 3.283999 4.144792
v 1.723469 3.283999 4.562333
v 1.798861 3.283999 4.098145
v 1.717687 3.283999 5.892706
v 1.184269 3.283999 6.310247
v 1.807859 3.283999 6.257208
v -1.187126 3.283999 6.310247
v -1.728759 3.283999 5.892706
v -1.747086 3.283999 6.303436
v 1.186623 2.991795 5.227520
v 1.534056 3.120930 5.227520
v 1.681894 3.283999 5.227520
v 1.290001 3.576203 5.227520
v 1.534056 3.447068 5.227520
v 1.681894 3.283999 5.227520
v -1.189480 2.991795 5.227520
v -1.536913 3.120930 5.227520
v -1.684752 3.283999 5.227520
v -1.292858 3.576203 5.227520
v -1.536913 3.447068 5.227520
v -1.684752 3.283999 5.227520
v -0.499475 3.843073 5.227520
v -0.001429 3.925212 5.227520
v 0.496618 3.843073 5.227520
v -0.401831 2.805375 5.227520
v -0.001429 2.761825 5.227520
v 0.398973 2.805375 5.227520
v -1.684752 3.283999 5.227520
v 1.681894 3.283999 5.227520
v -2.660966 1.749146 -6.195934
v -2.760966 1.849146 -6.195934
v -2.660966 1.849146 -6.295934
v -2.731676 1.778435 -6.195933
v -2.718701 1.791411 -6.253668
v -2.731676 1.849146 -6.266644
v -2.660966 1.778435 -6.266644
v -2.760966 2.682926 -6.195934
v -2.660966 2.782926 -6.195934
v -2.660966 2.682926 -6.295934
v -2.731676 2.753637 -6.195933
v -2.718701 2.740661 -6.253668
v -2.660966 2.753637 -6.266644
v -2.731676 2.682926 -6.266644
v 2.452152 1.749146 -6.195934
v 2.452152 1.849146 -6.295934
v 2.552151 1.849146 -6.195934
v 2.452152 1.778435 -6.266644
v 2.509887 1.791411 -6.253668
v 2.522862 1.849146 -6.266644
v 2.522862 1.778435 -6.195933
v 2.452152 2.782926 -6.195934
v 2.552151 2.682926 -6.195934
v 2.452152 2.682926 -6.295934
v 2.522862 2.753637 -6.195933
v 2.509887 2.740661 -6.253668
v 2.522862 2.682926 -6.266644
v 2.452152 2.753637 -6.266644
v -2.660966 1.749146 6.448091
v -2.660966 1.849146 6.548091
v -2.760966 1.849146 6.448091
v -2.660966 1.778435 6.518801
v -2.718701 1.791411 6.505826
v -2.731677 1.849146 6.518801
v -2.731677 1.778435 6.448091
v -2.660966 2.782926 6.448091
v -2.760966 2.682926 6.448091
v -2.660966 2.682926 6.548091
v -2.731677 2.753637 6.448091
v -2.718701 2.740661 6.505826
v -2.731677 2.682926 6.518801
v -2.660966 2.753637 6.518801
v 2.452151 1.749146 6.448091
v 2.552151 1.849146 6.448091
v 2.452151 1.849146 6.548091
v 2.522862 1.778435 6.448091
v 2.509886 1.791411 6.505826
v 2.522862 1.849146 6.518801
v 2.452151 1.778435 6.518801
v 2.452151 2.782926 6.448091
v 2.452151 2.682926 6.548091
v 2.552151 2.682926 6.448091
v 2.452151 2.753637 6.518801
v 2.509886 2.740661 6.505826
v 2.522862 2.682926 6.518801
v 2.522862 2.753637 6.448091
vn -0.0000 -0.0000 -1.0000
vn 1.0000 -0.0000 -0.0000
vn -0.0000 -0.0000 1.0000
vn -1.0000 -0.0000 -0.0000
vn -0.0000 -1.0000 -0.0000
vn -0.0000 1.0000 -0.0000
vn -0.5065 0.8619 -0.0216
vn -0.3918 0.6698 -0.6308
vn -0.6505 0.3278 -0.6852
vn -0.9193 0.3928 -0.0240
vn -0.1347 0.7273 -0.6729
vn -0.1437 0.6756 -0.7231
vn -0.0921 0.7421 -0.6640
vn -0.1360 0.6711 -0.7288
vn -0.6729 0.1104 -0.7315
vn -0.9960 0.0858 -0.0238
vn -0.5645 -0.5680 -0.5989
vn -0.7091 -0.7050 -0.0122
vn -0.9973 0.0733 0.0010
vn -0.9971 0.0755 -0.0001
vn -0.6974 -0.7167 0.0004
vn -0.6961 -0.7180 -0.0004
vn -0.9437 0.3307 -0.0049
vn -0.9236 0.3831 -0.0123
vn -0.0789 0.9964 -0.0293
vn -0.0893 0.9960 -0.0030
vn -0.0000 1.0000 -0.0005
vn 0.0145 0.9987 -0.0486
vn -0.5646 0.8252 0.0179
vn -0.5128 0.8584 -0.0163
vn -0.5773 0.8155 0.0420
vn -0.9492 0.3147 0.0078
vn -0.9973 0.0740 -0.0001
vn -0.6372 -0.7697 0.0402
vn -0.0851 0.9954 0.0436
vn 0.0004 0.9989 0.0464
vn -0.0468 0.7062 -0.7064
vn 0.0201 0.6876 -0.7258
vn 0.0138 -0.8792 0.4762
vn 0.1331 -0.8871 0.4420
vn -0.0307 0.0524 0.9982
vn 0.0462 0.0399 0.9981
vn -0.0844 0.9949 0.0550
vn -0.7171 0.0335 -0.6962
vn -0.0614 -0.9460 -0.3183
vn -0.5962 0.2845 -0.7508
vn -0.3134 0.4983 -0.8084
vn 0.0013 0.9986 0.0533
vn -0.0619 -0.1619 0.9849
vn -0.1242 -0.1066 0.9865
vn -0.8601 0.2642 0.4365
vn -0.9068 0.0056 0.4214
vn -0.6897 0.2931 -0.6621
vn -0.4358 0.6801 -0.5895
vn -0.0583 0.9185 0.3911
vn -0.0498 0.8936 0.4462
vn -0.4994 0.7526 0.4292
vn -0.7079 0.0808 -0.7016
vn -0.6960 -0.4196 -0.5827
vn -0.7918 -0.4818 0.3754
vn -0.3246 -0.8487 -0.4176
vn -0.0665 -0.6046 0.7937
vn -0.0351 0.1707 0.9847
vn 0.4906 0.8706 -0.0363
vn 0.9184 0.3947 -0.0252
vn 0.6496 0.3307 -0.6845
vn 0.3698 0.6836 -0.6292
vn 0.0345 0.7232 -0.6898
vn 0.0199 0.7292 -0.6840
vn 0.0849 0.7315 -0.6765
vn 0.0650 0.7237 -0.6870
vn 0.9960 0.0859 -0.0239
vn 0.6728 0.1109 -0.7314
vn 0.7091 -0.7050 -0.0122
vn 0.5645 -0.5680 -0.5989
vn 0.9973 0.0733 0.0010
vn 0.6960 -0.7180 -0.0004
vn 0.6974 -0.7167 0.0004
vn 0.9971 0.0755 -0.0001
vn 0.9437 0.3307 -0.0045
vn 0.9236 0.3831 -0.0123
vn 0.0776 0.9956 -0.0519
vn 0.0893 0.9960 -0.0030
vn 0.5642 0.8254 0.0200
vn 0.5128 0.8584 -0.0163
vn 0.5765 0.8156 0.0499
vn 0.9491 0.3147 0.0092
vn 0.9973 0.0740 -0.0002
vn 0.6604 -0.7497 0.0433
vn 0.0855 0.9953 0.0456
vn 0.0424 0.6619 -0.7484
vn -0.0386 -0.8519 0.5222
vn 0.0051 0.0899 0.9959
vn 0.0229 0.0683 0.9974
vn -0.1395 -0.8705 0.4720
vn 0.0855 0.9943 0.0633
vn 0.6977 0.0798 -0.7119
vn 0.1637 -0.9592 -0.2307
vn 0.5969 0.2847 -0.7501
vn 0.3174 0.5011 -0.8051
vn 0.0600 -0.0762 0.9953
vn 0.8951 0.0410 0.4440
vn 0.8379 0.2859 0.4651
vn 0.1112 -0.0712 0.9912
vn 0.4513 0.6791 -0.5789
vn 0.6901 0.3046 -0.6565
vn 0.0326 0.9000 0.4347
vn 0.1171 0.8998 0.4202
vn 0.5265 0.7129 0.4632
vn 0.7063 0.1020 -0.7005
vn 0.7868 -0.4753 0.3938
vn 0.6726 -0.4800 -0.5632
vn 0.2679 -0.6781 -0.6844
vn 0.0747 -0.5781 0.8126
vn 0.0880 0.0954 0.9915
vn 0.5048 -0.8630 0.0204
vn 0.9252 -0.3787 0.0237
vn 0.6745 -0.1965 -0.7116
vn 0.3300 -0.4952 -0.8037
vn 0.2179 -0.9200 0.3257
vn -0.5149 -0.6585 0.5489
vn 0.1140 -0.8444 0.5234
vn 0.1241 -0.7554 0.6434
vn 0.9965 -0.0796 0.0239
vn 0.7136 -0.0151 -0.7004
vn 0.7052 -0.7089 0.0135
vn 0.5881 -0.5790 -0.5647
vn 0.9976 -0.0689 -0.0012
vn 0.7187 -0.6954 -0.0003
vn 0.7174 -0.6966 0.0003
vn 0.9976 -0.0691 -0.0001
vn 0.9514 -0.3081 0.0047
vn 0.9297 -0.3681 0.0119
vn 0.0682 -0.9973 0.0266
vn -0.0130 -0.9989 0.0441
vn -0.0000 -1.0000 0.0005
vn 0.0782 -0.9969 0.0030
vn 0.5693 -0.8219 -0.0200
vn 0.5125 -0.8585 0.0166
vn 0.5815 -0.8127 0.0377
vn 0.9545 -0.2911 0.0655
vn 0.9955 -0.0710 0.0633
vn 0.7556 -0.6522 0.0605
vn -0.0000 -0.9989 -0.0471
vn 0.0716 -0.9964 -0.0454
vn 0.0381 -0.7061 -0.7071
vn -0.0189 -0.7219 -0.6917
vn -0.0548 -0.5565 -0.8291
vn 0.0070 -0.5854 -0.8107
vn -0.5419 -0.4708 -0.6962
vn 0.0082 -0.8702 -0.4926
vn 0.0753 -0.9970 0.0204
vn 0.7968 -0.0994 0.5960
vn 0.9062 -0.3213 0.2751
vn 0.7190 -0.2939 0.6298
vn 0.3767 -0.6124 0.6951
vn 0.0007 -0.9951 0.0986
vn 0.5005 -0.7267 0.4706
vn 0.7946 -0.3271 0.5114
vn 0.4239 0.0506 -0.9043
vn 0.5347 0.0965 -0.8395
vn 0.5338 -0.0534 -0.8439
vn 0.4077 -0.0049 -0.9131
vn 0.3169 -0.5045 -0.8031
vn 0.8351 -0.1316 0.5341
vn 0.4734 0.5099 -0.7183
vn 0.7574 0.5146 0.4019
vn 0.9617 0.0897 -0.2591
vn 0.0608 -0.2751 -0.9595
vn -0.4890 -0.8716 0.0343
vn -0.3116 -0.5013 -0.8072
vn -0.6724 -0.1986 -0.7130
vn -0.9241 -0.3814 0.0250
vn -0.1895 -0.9085 0.3724
vn -0.0679 -0.6549 0.7527
vn -0.0979 -0.6971 0.7103
vn 0.5745 -0.5900 0.5674
vn -0.7134 -0.0149 -0.7006
vn -0.9965 -0.0798 0.0240
vn -0.5881 -0.5790 -0.5647
vn -0.7052 -0.7089 0.0135
vn -0.9976 -0.0689 -0.0012
vn -0.9976 -0.0691 -0.0001
vn -0.7174 -0.6966 0.0003
vn -0.7187 -0.6953 -0.0003
vn -0.9514 -0.3081 0.0047
vn -0.9297 -0.3681 0.0119
vn -0.0666 -0.9967 0.0470
vn -0.0782 -0.9969 0.0030
vn -0.5693 -0.8219 -0.0200
vn -0.5125 -0.8585 0.0166
vn -0.5809 -0.8127 0.0446
vn -0.9538 -0.2917 0.0723
vn -0.9948 -0.0728 0.0711
vn -0.7533 -0.6528 0.0797
vn -0.0716 -0.9964 -0.0454
vn -0.0373 -0.7447 -0.6664
vn 0.0010 -0.5771 -0.8166
vn -0.0227 -0.8726 -0.4879
vn 0.5415 -0.4781 -0.6915
vn -0.0628 -0.6092 -0.7905
vn -0.0745 -0.9969 0.0249
vn -0.6326 -0.1143 0.7660
vn -0.9255 -0.2296 0.3013
vn -0.5231 -0.2485 0.8152
vn -0.2429 -0.3774 0.8936
vn -0.6688 -0.2980 0.6811
vn -0.4365 -0.6601 0.6114
vn -0.4388 -0.0182 -0.8984
vn -0.4063 -0.0660 -0.9114
vn -0.5597 -0.0823 -0.8246
vn -0.5604 0.0371 -0.8274
vn -0.3649 -0.4663 -0.8059
vn -0.7038 -0.1297 0.6984
vn -0.6610 0.5002 0.5594
vn -0.4836 0.4810 -0.7313
vn -0.9657 0.0922 -0.2425
vn -0.1383 -0.2918 -0.9464
vn 0.4165 -0.7204 0.5546
vn 0.7784 -0.3943 0.4885
vn 0.8772 -0.0839 0.4728
vn 0.5591 -0.7361 0.3815
vn -0.0000 -0.8367 0.5477
vn 0.9171 -0.3931 0.0662
vn -0.7735 -0.3850 0.5035
vn -0.4080 -0.7140 0.5690
vn -0.8629 -0.0551 0.5023
vn -0.5454 -0.7355 0.4019
vn -0.9171 -0.3931 0.0662
vn -1.0000 -0.0000 0.0013
vn 1.0000 -0.0000 0.0016
vn 1.0000 0.0003 -0.0040
vn -1.0000 0.0003 -0.0031
vn 1.0000 -0.0002 -0.0000
vn -1.0000 -0.0001 -0.0000
vn -0.0000 -0.5658 0.8245
vn -0.0000 0.0001 1.0000
vn -0.1025 0.0071 0.9947
vn -0.1524 -0.5269 0.8362
vn -0.0000 0.0096 -1.0000
vn -0.0000 0.5455 -0.8381
vn 0.1102 0.5557 -0.8240
vn 0.0564 0.0063 -0.9984
vn 0.1650 -0.5088 0.8449
vn 0.1293 0.0070 0.9916
vn -0.1951 0.9808 -0.0018
vn -0.1640 0.9593 -0.2297
vn -0.2960 0.9426 -0.1547
vn -0.3378 0.9412 -0.0002
vn -0.9111 0.4122 0.0040
vn -0.6500 0.7415 0.1666
vn -0.9303 -0.3271 0.1660
vn -0.0000 -0.5482 -0.8364
vn 0.1172 -0.5513 -0.8260
vn 0.4535 0.8913 0.0009
vn 0.6375 0.7648 -0.0928
vn 0.6320 0.7591 -0.1563
vn 0.3378 0.9412 -0.0002
vn 0.2971 0.9419 -0.1564
vn 0.1640 0.9593 -0.2297
vn 0.1951 0.9808 -0.0018
vn -0.4447 0.8957 0.0020
vn -0.6328 0.7667 0.1084
vn -0.1608 -0.9870 -0.0063
vn -0.1860 -0.9779 0.0952
vn -0.2854 -0.9538 0.0937
vn -0.2847 -0.9586 -0.0009
vn 0.1454 0.5097 0.8480
vn -0.0000 0.5333 0.8459
vn -0.0634 0.0054 -0.9980
vn -0.1116 0.5518 -0.8265
vn -0.1327 0.5277 0.8390
vn 0.2847 -0.9586 -0.0009
vn 0.2868 -0.9532 0.0956
vn 0.1860 -0.9779 0.0952
vn 0.1608 -0.9870 -0.0063
vn 0.9031 0.4295 0.0018
vn 0.9391 -0.3154 -0.1367
vn -0.1164 -0.5503 -0.8268
vn -0.2102 -0.8461 -0.4898
vn -0.3840 -0.8843 -0.2655
vn -0.5584 -0.7572 -0.3390
vn -0.2780 -0.9536 -0.1157
vn -0.5538 -0.8324 0.0203
vn -0.5675 0.7459 -0.3487
vn -0.3880 0.8807 -0.2718
vn -0.2068 0.8412 -0.4996
vn -0.5669 0.8237 0.0118
vn 0.5766 -0.7202 -0.3859
vn 0.4253 -0.8646 -0.2675
vn 0.2148 -0.8444 -0.4908
vn 0.9575 -0.2667 0.1096
vn 0.5815 -0.8135 0.0037
vn 0.2792 -0.9530 -0.1174
vn 0.2097 0.8417 -0.4975
vn 0.4253 0.8646 -0.2675
vn 0.5766 0.7202 -0.3859
vn 0.5927 0.8054 -0.0026
vn 0.6651 0.7428 0.0762
vn -0.7422 -0.5153 0.4284
vn -0.4468 -0.8403 0.3070
vn -0.2395 -0.8337 0.4975
vn -0.9949 -0.0831 -0.0575
vn -0.5872 -0.8094 0.0049
vn -0.2258 0.8265 0.5156
vn -0.4468 0.8403 0.3070
vn -0.7422 0.5153 0.4284
vn -0.2988 0.9427 0.1484
vn -0.5982 0.8013 0.0112
vn -0.7460 0.6645 -0.0431
vn 0.5833 -0.8123 -0.0054
vn 0.4224 -0.8444 0.3295
vn 0.2480 -0.8245 0.5086
vn 0.5707 -0.7202 0.3944
vn 0.5944 0.8042 0.0009
vn 0.4224 0.8444 0.3295
vn 0.5707 0.7202 0.3944
vn 0.3001 0.9420 0.1503
vn 0.2342 0.8171 0.5267
vn 0.1280 -0.8014 -0.5843
vn -0.0000 -0.8927 -0.4506
vn -0.1280 -0.8014 -0.5843
vn 0.1597 -0.9756 -0.1505
vn -0.0000 -0.9900 -0.1414
vn -0.1597 -0.9756 -0.1505
vn -0.1109 0.7860 -0.6082
vn -0.0000 0.8713 -0.4907
vn 0.1109 0.7860 -0.6082
vn -0.0000 0.9701 -0.2429
vn -0.1704 -0.8358 0.5220
vn -0.0000 -0.9388 0.3444
vn 0.1704 -0.8358 0.5220
vn -0.0000 -0.9982 0.0604
vn 0.1237 0.7975 0.5905
vn -0.0000 0.8874 0.4610
vn -0.1237 0.7975 0.5905
vn 0.1725 0.9618 0.2126
vn -0.0000 0.9759 0.2182
vn -0.1725 0.9618 0.2126
vn -0.6486 -0.0062 -0.7611
vn 0.6668 0.7373 0.1083
vn 0.6037 -0.0000 -0.7972
vn 0.5847 -0.8112 0.0007
vn 0.6085 0.7935 0.0007
vn 0.7791 -0.0000 0.6269
vn -0.7064 0.7072 -0.0315
vn -0.5478 -0.0000 0.8366
vn -0.5760 -0.8175 0.0015
vn -0.6000 0.8000 0.0015
vn -0.0000 1.0000 -0.0032
vn -0.0000 -0.9999 -0.0108
vn -0.3251 -0.8881 -0.3251
vn -0.8881 -0.3251 -0.3251
vn -0.3251 -0.3251 -0.8881
vn -0.8881 0.3251 -0.3251
vn -0.3251 0.8881 -0.3251
vn -0.3251 0.3251 -0.8881
vn 0.3251 -0.8881 -0.3251
vn 0.3251 -0.3251 -0.8881
vn 0.8881 -0.3251 -0.3251
vn 0.3251 0.8881 -0.3251
vn 0.8881 0.3251 -0.3251
vn 0.3251 0.3251 -0.8881
vn -0.3251 -0.8881 0.3251
vn -0.3251 -0.3251 0.8881
vn -0.8881 -0.3251 0.3251
vn -0.3251 0.8881 0.3251
vn -0.8881 0.3251 0.3251
vn -0.3251 0.3251 0.8881
vn 0.3251 -0.8881 0.3251
vn 0.8881 -0.3251 0.3251
vn 0.3251 -0.3251 0.8881
vn 0.3251 0.8881 0.3251
vn 0.3251 0.3251 0.8881
vn 0.8881 0.3251 0.3251
vn -0.0000 -0.9239 -0.3827
vn -0.0000 -0.3827 -0.9239
vn -0.9239 -0.0000 -0.3827
vn -0.3827 -0.0000 -0.9239
vn -0.0000 0.9239 -0.3827
vn -0.0000 0.3827 -0.9239
vn 0.9239 -0.0000 -0.3827
vn 0.3827 -0.0000 -0.9239
vn 0.3827 -0.9239 -0.0000
vn 0.9239 -0.3827 -0.0000
vn 0.3827 0.9239 -0.0000
vn 0.9239 0.3827 -0.0000
vn 0.3827 -0.0000 0.9239
vn 0.9239 -0.0000 0.3827
vn -0.0000 -0.9239 0.3827
vn -0.0000 -0.3827 0.9239
vn -0.0000 0.9239 0.3827
vn -0.0000 0.3827 0.9239
vn -0.9239 -0.0000 0.3827
vn -0.3827 -0.0000 0.9239
vn -0.3827 -0.9239 -0.0000
vn -0.9239 -0.3827 -0.0000
vn -0.3827 0.9239 -0.0000
vn -0.9239 0.3827 -0.0000
vt 0.000371 0.238206
vt 0.041508 0.280171
vt 0.060469 0.481715
vt 0.014419 0.517122
vt 0.451349 0.475157
vt 0.492485 0.517122
vt 0.432388 0.273613
vt 0.478438 0.238206
vt 0.497521 0.444279
vt 0.497521 0.000463
vt 0.700223 0.000463
vt 0.700223 0.444279
vt 0.664805 0.592577
vt 0.664565 0.543504
vt 0.687068 0.539234
vt 0.691425 0.590221
vt 0.854755 0.578341
vt 0.845270 0.631949
vt 0.830860 0.640828
vt 0.843181 0.575787
vt 0.702122 0.537146
vt 0.707169 0.587303
vt 0.720983 0.539129
vt 0.731231 0.584673
vt 0.714736 0.697295
vt 0.709880 0.641295
vt 0.736134 0.638649
vt 0.740210 0.695351
vt 0.697965 0.699961
vt 0.693478 0.644238
vt 0.635300 0.593014
vt 0.636451 0.647565
vt 0.596410 0.647770
vt 0.596454 0.593134
vt 0.674432 0.702298
vt 0.667672 0.646893
vt 0.677112 0.732148
vt 0.699006 0.730277
vt 0.716102 0.727816
vt 0.742533 0.726978
vt 0.640534 0.703243
vt 0.596338 0.703866
vt 0.635623 0.539316
vt 0.596474 0.538311
vt 0.759989 0.632917
vt 0.751399 0.579823
vt 0.770492 0.577346
vt 0.776755 0.635972
vt 0.641700 0.733806
vt 0.716616 0.744990
vt 0.743540 0.745352
vt 0.699481 0.747431
vt 0.678085 0.749223
vt 0.596286 0.732891
vt 0.785078 0.695069
vt 0.785450 0.681512
vt 0.793905 0.681953
vt 0.792181 0.692708
vt 0.835280 0.671095
vt 0.833592 0.696267
vt 0.820550 0.688174
vt 0.820760 0.672343
vt 0.642370 0.750929
vt 0.596590 0.744580
vt 0.793049 0.639145
vt 0.785378 0.575787
vt 0.795820 0.669933
vt 0.818489 0.701202
vt 0.805162 0.718328
vt 0.791636 0.707674
vt 0.540862 0.468336
vt 0.540862 0.513272
vt 0.532080 0.516716
vt 0.519498 0.475006
vt 0.526063 0.465144
vt 0.803562 0.722421
vt 0.788315 0.709032
vt 0.823836 0.715327
vt 0.786016 0.669664
vt 0.528143 0.592504
vt 0.501560 0.590127
vt 0.505937 0.539216
vt 0.528411 0.543483
vt 0.526778 0.872797
vt 0.528789 0.885220
vt 0.460599 0.893475
vt 0.470105 0.879131
vt 0.485844 0.587202
vt 0.490908 0.537131
vt 0.461828 0.584560
vt 0.472081 0.539108
vt 0.478140 0.696928
vt 0.452706 0.694927
vt 0.456879 0.638425
vt 0.483079 0.641090
vt 0.494865 0.699632
vt 0.499445 0.644050
vt 0.557620 0.592970
vt 0.556386 0.647478
vt 0.518328 0.702010
vt 0.525203 0.646743
vt 0.515637 0.729837
vt 0.493801 0.728082
vt 0.476764 0.725534
vt 0.450630 0.723968
vt 0.552159 0.703090
vt 0.557333 0.539303
vt 0.470414 0.971306
vt 0.467548 0.954145
vt 0.527081 0.961146
vt 0.524401 0.980573
vt 0.550955 0.731699
vt 0.476310 0.737079
vt 0.449390 0.735709
vt 0.493437 0.739621
vt 0.514834 0.741411
vt 0.407687 0.944271
vt 0.410428 0.937326
vt 0.421049 0.935932
vt 0.421295 0.944423
vt 0.430724 0.889340
vt 0.429696 0.904061
vt 0.413683 0.904419
vt 0.405530 0.891504
vt 0.550442 0.743297
vt 0.595946 0.744572
vt 0.528789 0.946018
vt 0.464601 0.937489
vt 0.433182 0.934099
vt 0.400692 0.906527
vt 0.395609 0.936662
vt 0.382799 0.920176
vt 0.378537 0.920671
vt 0.393910 0.940102
vt 0.386873 0.901263
vt 0.433309 0.944100
vt 0.792461 0.813091
vt 0.793453 0.789980
vt 0.851979 0.791139
vt 0.851139 0.812656
vt 0.631642 0.874370
vt 0.625570 0.866637
vt 0.623203 0.831463
vt 0.634058 0.839653
vt 0.795417 0.775184
vt 0.853960 0.775986
vt 0.796093 0.749639
vt 0.854755 0.750315
vt 0.679032 0.775906
vt 0.678300 0.750281
vt 0.737379 0.749639
vt 0.737112 0.776614
vt 0.677670 0.790954
vt 0.735158 0.791399
vt 0.792640 0.841977
vt 0.792736 0.883730
vt 0.733922 0.883647
vt 0.734259 0.842323
vt 0.677085 0.809898
vt 0.733897 0.813227
vt 0.649399 0.809362
vt 0.649360 0.792587
vt 0.650191 0.777520
vt 0.648116 0.752030
vt 0.675848 0.882523
vt 0.677928 0.839811
vt 0.851479 0.841486
vt 0.851749 0.883398
vt 0.581622 0.847277
vt 0.598707 0.834096
vt 0.608081 0.867110
vt 0.601777 0.880787
vt 0.650964 0.839539
vt 0.631872 0.778755
vt 0.629732 0.757925
vt 0.630678 0.792786
vt 0.628923 0.810128
vt 0.647251 0.880273
vt 0.617444 0.807889
vt 0.618868 0.796651
vt 0.588528 0.775816
vt 0.599129 0.786843
vt 0.599422 0.798544
vt 0.584629 0.796484
vt 0.600033 0.808109
vt 0.620695 0.785951
vt 0.603697 0.769176
vt 0.620894 0.766530
vt 0.600043 0.756681
vt 0.584380 0.808362
vt 0.362956 0.807680
vt 0.304285 0.808151
vt 0.303113 0.786647
vt 0.361613 0.784592
vt 0.524246 0.865943
vt 0.519736 0.831736
vt 0.529194 0.823419
vt 0.530405 0.859056
vt 0.300901 0.771524
vt 0.359427 0.769828
vt 0.299714 0.745864
vt 0.358368 0.744292
vt 0.475682 0.768966
vt 0.417728 0.770403
vt 0.417097 0.743424
vt 0.476261 0.743328
vt 0.477194 0.783959
vt 0.419883 0.785148
vt 0.363229 0.836556
vt 0.421550 0.835990
vt 0.422609 0.877222
vt 0.363807 0.878294
vt 0.478037 0.802839
vt 0.421457 0.806933
vt 0.505587 0.801931
vt 0.505278 0.785259
vt 0.504306 0.770354
vt 0.506595 0.745002
vt 0.477677 0.832620
vt 0.480556 0.875001
vt 0.304396 0.836987
vt 0.304790 0.878901
vt 0.579495 0.841742
vt 0.554307 0.878901
vt 0.548905 0.863201
vt 0.560307 0.826626
vt 0.504493 0.831933
vt 0.520528 0.771348
vt 0.521840 0.750692
vt 0.522066 0.785100
vt 0.524161 0.802193
vt 0.508928 0.872139
vt 0.532709 0.788211
vt 0.534523 0.799333
vt 0.567937 0.764504
vt 0.573797 0.785884
vt 0.558243 0.788862
vt 0.557862 0.776909
vt 0.557947 0.799049
vt 0.530913 0.777770
vt 0.529622 0.758710
vt 0.551442 0.759090
vt 0.553988 0.745599
vt 0.574825 0.798609
vt 0.636307 0.531282
vt 0.664543 0.535852
vt 0.685705 0.531094
vt 0.773160 0.670931
vt 0.774738 0.682944
vt 0.762792 0.685466
vt 0.760957 0.673984
vt 0.748267 0.635468
vt 0.742118 0.585981
vt 0.777757 0.700325
vt 0.769127 0.704752
vt 0.701835 0.528479
vt 0.786595 0.712068
vt 0.803132 0.729062
vt 0.799785 0.734027
vt 0.783359 0.716747
vt 0.726529 0.533485
vt 0.738673 0.583490
vt 0.744113 0.637970
vt 0.748439 0.694730
vt 0.596475 0.530407
vt 0.750681 0.723698
vt 0.001799 0.506967
vt 0.001681 0.495984
vt 0.006790 0.490928
vt 0.009658 0.507058
vt 0.750929 0.742223
vt 0.005456 0.451208
vt 0.009658 0.458963
vt 0.528433 0.535838
vt 0.556651 0.531273
vt 0.507298 0.531088
vt 0.419484 0.955259
vt 0.431727 0.957228
vt 0.428264 0.969708
vt 0.416424 0.967437
vt 0.518046 0.989970
vt 0.467662 0.983262
vt 0.401928 0.951381
vt 0.396852 0.959816
vt 0.491195 0.528479
vt 0.373288 0.921379
vt 0.390560 0.941740
vt 0.386050 0.944235
vt 0.371219 0.926444
vt 0.466547 0.533472
vt 0.448922 0.637738
vt 0.454400 0.583374
vt 0.444543 0.694314
vt 0.442294 0.723186
vt 0.515347 0.517261
vt 0.526258 0.518516
vt 0.526375 0.526375
vt 0.510450 0.522524
vt 0.441594 0.738646
vt 0.470708 0.522413
vt 0.478589 0.526375
vt 0.867808 0.723702
vt 0.988653 0.777322
vt 0.993474 0.789546
vt 0.985673 0.794743
vt 0.847628 0.736258
vt 0.986636 0.804049
vt 0.841206 0.740215
vt 0.496106 0.392268
vt 0.496106 0.515424
vt 0.493880 0.515424
vt 0.493880 0.404987
vt 0.493880 0.392268
vt 0.992182 0.545131
vt 0.989973 0.550839
vt 0.868031 0.576025
vt 0.861152 0.569885
vt 0.999629 0.791558
vt 0.994928 0.555764
vt 0.989614 0.565662
vt 0.881666 0.589480
vt 0.999629 0.555475
vt 0.997765 0.776088
vt 0.996394 0.566668
vt 0.871643 0.826961
vt 0.871644 0.983729
vt 0.855744 0.999629
vt 0.855743 0.811061
vt 0.458767 0.520135
vt 0.458767 0.536033
vt 0.446047 0.536033
vt 0.446047 0.520135
vt 0.496107 0.146466
vt 0.496107 0.162363
vt 0.493881 0.162363
vt 0.493881 0.146466
vt 0.496107 0.175083
vt 0.493881 0.175083
vt 0.496106 0.376368
vt 0.493880 0.376368
vt 0.873869 0.826960
vt 0.873869 0.983729
vt 0.496107 0.023310
vt 0.493881 0.133747
vt 0.493881 0.023310
vt 0.496106 0.363649
vt 0.493880 0.363649
vt 0.493880 0.347749
vt 0.493881 0.190980
vt 0.508826 0.509473
vt 0.508826 0.493573
vt 0.521545 0.493573
vt 0.521545 0.509473
vt 0.533796 0.889192
vt 0.690565 0.889192
vt 0.690565 0.999629
vt 0.533796 0.999629
vt 0.223796 0.722185
vt 0.290196 0.771912
vt 0.300613 0.779710
vt 0.290873 0.792720
vt 0.216874 0.735149
vt 0.004010 0.734630
vt 0.121294 0.708145
vt 0.121598 0.713231
vt 0.006174 0.744651
vt 0.214612 0.739347
vt 0.285987 0.798874
vt 0.273420 0.814307
vt 0.261085 0.804262
vt 0.031381 0.765696
vt 0.011292 0.769786
vt 0.000693 0.410826
vt 0.007221 0.410817
vt 0.007244 0.426731
vt 0.000715 0.426720
vt 0.001080 0.714131
vt 0.017485 0.711787
vt 0.122069 0.696833
vt 0.498087 0.494339
vt 0.504616 0.494324
vt 0.504643 0.507044
vt 0.502418 0.507049
vt 0.498115 0.507058
vt 0.498115 0.478426
vt 0.504643 0.478438
vt 0.007221 0.439450
vt 0.002919 0.439443
vt 0.000693 0.439439
vt 0.262301 0.811867
vt 0.215221 0.893388
vt 0.213757 0.891102
vt 0.260064 0.810574
vt 0.063137 0.890426
vt 0.030292 0.771996
vt 0.060684 0.893388
vt 0.025939 0.773236
vt 0.674664 0.475668
vt 0.674665 0.462948
vt 0.517897 0.462938
vt 0.517896 0.475657
vt 0.501997 0.475656
vt 0.501999 0.447038
vt 0.690565 0.447050
vt 0.690565 0.475669
vt 0.994800 0.983729
vt 0.994800 0.999629
vt 0.994799 0.811063
vt 0.994799 0.826960
vt 0.840389 0.521145
vt 0.839209 0.572251
vt 0.760540 0.551109
vt 0.767607 0.535807
vt 0.826550 0.292162
vt 0.826041 0.249323
vt 0.898665 0.254924
vt 0.903901 0.270727
vt 0.912734 0.539116
vt 0.919001 0.554869
vt 0.801479 0.150148
vt 0.806411 0.203573
vt 0.758591 0.209518
vt 0.750122 0.150370
vt 0.720469 0.430792
vt 0.720407 0.430792
vt 0.720321 0.368112
vt 0.720373 0.368113
vt 0.843943 0.335315
vt 0.845000 0.290448
vt 0.921596 0.311942
vt 0.915997 0.327446
vt 0.948923 0.148013
vt 0.948861 0.148014
vt 0.946780 0.085960
vt 0.946827 0.085956
vt 0.899912 0.148974
vt 0.892358 0.208071
vt 0.844647 0.203184
vt 0.848580 0.149687
vt 0.701106 0.149999
vt 0.701168 0.150000
vt 0.701471 0.212994
vt 0.701419 0.212996
vt 0.821863 0.431742
vt 0.822249 0.486450
vt 0.775716 0.490255
vt 0.773758 0.430983
vt 0.901478 0.027957
vt 0.895774 0.044031
vt 0.824015 0.053966
vt 0.823241 0.001448
vt 0.748760 0.272614
vt 0.753613 0.256698
vt 0.752270 0.045996
vt 0.746050 0.030270
vt 0.910357 0.433344
vt 0.906661 0.492903
vt 0.859961 0.487171
vt 0.862281 0.432480
vt 0.963701 0.434335
vt 0.963763 0.434336
vt 0.962957 0.496418
vt 0.962910 0.496416
vt 0.772109 0.324069
vt 0.772779 0.349395
vt 0.751387 0.350445
vt 0.732354 0.327751
vt 0.777239 0.370971
vt 0.748641 0.369094
vt 0.713446 0.253478
vt 0.732816 0.230284
vt 0.754178 0.231196
vt 0.729907 0.211656
vt 0.952729 0.331762
vt 0.934697 0.355212
vt 0.913837 0.352524
vt 0.964566 0.372129
vt 0.936904 0.372670
vt 0.908651 0.373624
vt 0.897155 0.229508
vt 0.918258 0.227317
vt 0.935931 0.251480
vt 0.920887 0.209723
vt 0.948871 0.210866
vt 0.733935 0.526942
vt 0.750139 0.508130
vt 0.770585 0.511039
vt 0.720369 0.492342
vt 0.748024 0.491217
vt 0.754048 0.071018
vt 0.733476 0.073033
vt 0.717977 0.053332
vt 0.758552 0.092020
vt 0.730683 0.089987
vt 0.702770 0.087789
vt 0.934559 0.494728
vt 0.931786 0.512342
vt 0.910928 0.513918
vt 0.949484 0.530327
vt 0.918615 0.088099
vt 0.915590 0.070548
vt 0.933269 0.052087
vt 0.890689 0.090508
vt 0.894686 0.069415
vt 0.856298 0.356707
vt 0.843381 0.361201
vt 0.830652 0.356175
vt 0.861722 0.377315
vt 0.843051 0.377827
vt 0.824389 0.376596
vt 0.812369 0.225828
vt 0.825721 0.221228
vt 0.839166 0.225541
vt 0.825529 0.202837
vt 0.828773 0.504538
vt 0.840841 0.499643
vt 0.852712 0.505018
vt 0.841111 0.485763
vt 0.837281 0.075669
vt 0.824345 0.080542
vt 0.811307 0.075963
vt 0.843486 0.096612
vt 0.824532 0.097672
vt 0.805575 0.097012
vt 0.706546 0.261067
vt 0.964618 0.372128
vt 0.959358 0.324545
vt 0.937522 0.433839
vt 0.922893 0.148570
vt 0.956418 0.536354
vt 0.720321 0.492345
vt 0.728044 0.534013
vt 0.746648 0.430795
vt 0.727195 0.150256
vt 0.825029 0.149869
vt 0.842072 0.432042
vt 0.725825 0.320541
vt 0.767338 0.308229
vt 0.948923 0.210868
vt 0.942471 0.258954
vt 0.940219 0.045648
vt 0.702721 0.087785
vt 0.712337 0.045911
vt 0.483474 0.003578
vt 0.456126 0.029461
vt 0.034930 0.029933
vt 0.008731 0.003540
vt 0.488978 0.227246
vt 0.462159 0.201619
vt 0.460353 0.033822
vt 0.488337 0.008784
vt 0.456874 0.200662
vt 0.037769 0.201103
vt 0.035983 0.035246
vt 0.455088 0.034805
vt 0.003878 0.008663
vt 0.030697 0.034289
vt 0.032503 0.202087
vt 0.004519 0.227124
vt 0.009383 0.232330
vt 0.036731 0.206447
vt 0.457926 0.205975
vt 0.484125 0.232368
vt 0.018948 0.692834
vt 0.018832 0.695394
vt 0.016768 0.695026
vt 0.016382 0.692965
vt 0.006201 0.005959
vt 0.003537 0.003395
vt 0.006440 0.000371
vt 0.000371 0.006343
vt 0.035815 0.032686
vt 0.033880 0.033169
vt 0.032413 0.031747
vt 0.033448 0.035109
vt 0.017961 0.520952
vt 0.015333 0.520839
vt 0.015715 0.518722
vt 0.017830 0.518333
vt 0.006832 0.229845
vt 0.004140 0.232406
vt 0.001055 0.229413
vt 0.007020 0.235537
vt 0.037615 0.203665
vt 0.035674 0.203199
vt 0.035221 0.201261
vt 0.034216 0.204632
vt 0.440444 0.692774
vt 0.443072 0.692887
vt 0.442690 0.695004
vt 0.440575 0.695394
vt 0.486024 0.006063
vt 0.488716 0.003503
vt 0.491801 0.006495
vt 0.485837 0.000371
vt 0.455242 0.032244
vt 0.457183 0.032709
vt 0.457636 0.034647
vt 0.458640 0.031276
vt 0.439457 0.520892
vt 0.439573 0.518333
vt 0.441637 0.518701
vt 0.442023 0.520762
vt 0.486655 0.229949
vt 0.489319 0.232513
vt 0.486416 0.235537
vt 0.492485 0.229565
vt 0.459409 0.200799
vt 0.458977 0.202739
vt 0.457041 0.203222
vt 0.460444 0.204161
s 0
usemtl Материал
f 1/1/1 2/2/1 4/3/1 3/4/1
f 3/4/2 4/3/2 8/5/2 7/6/2
f 7/6/3 8/5/3 6/7/3 5/8/3
f 5/8/4 6/7/4 2/2/4 1/1/4
f 3/9/5 7/10/5 5/11/5 1/12/5
f 8/5/6 4/3/6 2/2/6 6/7/6
s 1
f 30/13/7 9/14/8 12/15/9 31/16/10
f 49/17/11 50/18/12 62/19/13 61/20/14
f 31/16/10 12/15/9 16/21/15 32/22/16
f 32/22/16 16/21/15 18/23/17 33/24/18
f 26/25/19 22/26/20 23/27/21 27/28/22
f 25/29/23 20/30/24 22/26/20 26/25/19
f 38/31/25 36/32/26 21/33/27 29/34/28
f 24/35/29 19/36/30 20/30/24 25/29/23
f 39/37/31 24/35/29 25/29/23 40/38/32
f 40/38/32 25/29/23 26/25/19 41/39/33
f 41/39/33 26/25/19 27/28/22 42/40/34
f 36/32/26 37/41/35 28/42/36 21/33/27
f 34/43/37 38/31/25 29/34/28 13/44/38
f 22/26/20 32/22/16 33/24/18 23/27/21
f 20/30/24 31/16/10 32/22/16 22/26/20
f 19/36/30 30/13/7 31/16/10 20/30/24
f 9/14/8 30/13/7 38/31/25 34/43/37
f 19/36/30 24/35/29 37/41/35 36/32/26
f 30/13/7 19/36/30 36/32/26 38/31/25
f 35/45/39 14/46/40 223/47/41 219/48/42
f 24/35/29 39/37/31 44/49/43 37/41/35
f 47/50/44 41/39/33 42/40/34 48/51/45
f 46/52/46 40/38/32 41/39/33 47/50/44
f 45/53/47 39/37/31 40/38/32 46/52/46
f 37/41/35 44/49/43 43/54/48 28/42/36
f 217/55/49 218/56/50 54/57/51 58/58/52
f 45/59/47 46/60/46 53/61/53 51/62/54
f 39/37/31 45/53/47 50/63/12 44/49/43
f 44/49/43 50/63/12 49/64/11 43/54/48
f 62/19/13 55/65/55 56/66/56 61/20/14
f 51/62/54 52/67/57 55/65/55 62/19/13
f 52/67/57 51/62/54 53/61/53 54/57/51
f 54/57/51 53/61/53 57/68/58 58/58/52
f 58/58/52 57/68/58 59/69/59 60/70/60
f 50/18/12 45/59/47 51/62/54 62/19/13
f 14/71/2 49/72/2 61/73/2 56/74/2 223/75/2
f 221/76/61 220/77/62 60/70/60 59/69/59
f 46/60/46 47/78/44 57/68/58 53/61/53
f 222/79/63 219/48/42 55/65/55 52/67/57
f 218/56/50 222/79/63 52/67/57 54/57/51
f 220/77/62 217/55/49 58/58/52 60/70/60
f 79/80/64 80/81/65 66/82/66 63/83/67
f 49/84/68 61/85/69 107/86/70 97/87/71
f 80/81/65 81/88/72 68/89/73 66/82/66
f 81/88/72 82/90/74 70/91/75 68/89/73
f 77/92/76 78/93/77 74/94/78 73/95/79
f 76/96/80 77/92/76 73/95/79 72/97/81
f 87/98/82 29/34/28 21/33/27 85/99/83
f 75/100/84 76/96/80 72/97/81 71/101/85
f 88/102/86 89/103/87 76/96/80 75/100/84
f 89/103/87 90/104/88 77/92/76 76/96/80
f 90/104/88 91/105/89 78/93/77 77/92/76
f 85/99/83 21/33/27 28/42/36 86/106/90
f 83/107/91 13/44/38 29/34/28 87/98/82
f 73/95/79 74/94/78 82/90/74 81/88/72
f 72/97/81 73/95/79 81/88/72 80/81/65
f 71/101/85 72/97/81 80/81/65 79/80/64
f 63/83/67 83/107/91 87/98/82 79/80/64
f 71/101/85 85/99/83 86/106/90 75/100/84
f 79/80/64 87/98/82 85/99/83 71/101/85
f 84/108/92 213/109/93 223/110/94 14/111/95
f 75/100/84 86/106/90 92/112/96 88/102/86
f 95/113/97 96/114/98 91/105/89 90/104/88
f 94/115/99 95/113/97 90/104/88 89/103/87
f 93/116/100 94/115/99 89/103/87 88/102/86
f 86/106/90 28/42/36 43/54/48 92/112/96
f 211/117/101 104/118/102 101/119/103 212/120/104
f 93/121/100 98/122/105 100/123/106 94/124/99
f 88/102/86 92/112/96 97/125/71 93/116/100
f 92/112/96 43/54/48 49/126/68 97/125/71
f 107/86/70 61/85/69 56/127/107 102/128/108
f 98/122/105 107/86/70 102/128/108 99/129/109
f 99/129/109 101/119/103 100/123/106 98/122/105
f 101/119/103 104/118/102 103/130/110 100/123/106
f 104/118/102 106/131/111 105/132/112 103/130/110
f 97/87/71 107/86/70 98/122/105 93/121/100
f 215/133/113 105/132/112 106/131/111 214/134/114
f 94/124/99 100/123/106 103/130/110 95/135/97
f 216/136/115 99/129/109 102/128/108 213/109/93
f 212/120/104 101/119/103 99/129/109 216/136/115
f 214/134/114 106/131/111 104/118/102 211/117/101
f 129/137/116 130/138/117 111/139/118 108/140/119
f 148/141/120 160/142/121 161/143/122 149/144/123
f 130/138/117 131/145/124 115/146/125 111/139/118
f 131/145/124 132/147/126 117/148/127 115/146/125
f 125/149/128 126/150/129 122/151/130 121/152/131
f 124/153/132 125/149/128 121/152/131 119/154/133
f 137/155/134 128/156/135 120/157/136 135/158/137
f 123/159/138 124/153/132 119/154/133 118/160/139
f 138/161/140 139/162/141 124/153/132 123/159/138
f 139/162/141 140/163/142 125/149/128 124/153/132
f 140/163/142 141/164/143 126/150/129 125/149/128
f 135/158/137 120/157/136 127/165/144 136/166/145
f 133/167/146 112/168/147 128/156/135 137/155/134
f 121/152/131 122/151/130 132/147/126 131/145/124
f 119/154/133 121/152/131 131/145/124 130/138/117
f 118/160/139 119/154/133 130/138/117 129/137/116
f 108/140/119 133/167/146 137/155/134 129/137/116
f 118/160/139 135/158/137 136/166/145 123/159/138
f 129/137/116 137/155/134 135/158/137 118/160/139
f 134/169/148 154/170/149 155/171/150 113/172/151
f 123/159/138 136/166/145 143/173/152 138/161/140
f 146/174/153 147/175/154 141/164/143 140/163/142
f 145/176/155 146/174/153 140/163/142 139/162/141
f 144/177/156 145/176/155 139/162/141 138/161/140
f 136/166/145 127/165/144 142/178/157 143/173/152
f 144/177/156 150/179/158 152/180/159 145/176/155
f 114/181/160 157/182/161 153/183/162 110/184/163
f 149/144/123 161/143/122 150/179/158 144/177/156
f 138/161/140 143/173/152 149/144/123 144/177/156
f 143/173/152 142/178/157 148/141/120 149/144/123
f 161/143/122 160/142/121 155/171/150 154/170/149
f 150/179/158 161/143/122 154/170/149 151/185/164
f 151/185/164 153/183/162 152/180/159 150/179/158
f 153/183/162 157/182/161 156/186/165 152/180/159
f 157/182/161 159/187/166 158/188/167 156/186/165
f 145/176/155 152/180/159 156/186/165 146/174/153
f 113/172/151 155/171/150 160/142/121 148/141/120
f 147/175/154 158/188/167 159/187/166 116/189/168
f 146/174/153 156/186/165 158/188/167 147/175/154
f 109/190/169 151/185/164 154/170/149 134/169/148
f 110/184/163 153/183/162 151/185/164 109/190/169
f 116/189/168 159/187/166 157/182/161 114/181/160
f 179/191/170 162/192/171 165/193/172 180/194/173
f 197/195/174 198/196/175 210/197/176 209/198/177
f 180/194/173 165/193/172 168/199/178 181/200/179
f 181/200/179 168/199/178 170/201/180 182/202/181
f 177/203/182 173/204/183 174/205/184 178/206/185
f 176/207/186 172/208/187 173/204/183 177/203/182
f 187/209/188 185/210/189 120/211/136 128/212/135
f 175/213/190 171/214/191 172/208/187 176/207/186
f 188/215/192 175/213/190 176/207/186 189/216/193
f 189/216/193 176/207/186 177/203/182 190/217/194
f 190/217/194 177/203/182 178/206/185 191/218/195
f 185/210/189 186/219/196 127/220/144 120/211/136
f 183/221/197 187/209/188 128/212/135 112/222/147
f 173/204/183 181/200/179 182/202/181 174/205/184
f 172/208/187 180/194/173 181/200/179 173/204/183
f 171/214/191 179/191/170 180/194/173 172/208/187
f 162/192/171 179/191/170 187/209/188 183/221/197
f 171/214/191 175/213/190 186/219/196 185/210/189
f 179/191/170 171/214/191 185/210/189 187/209/188
f 184/223/198 166/224/199 204/225/200 203/226/201
f 175/213/190 188/215/192 192/227/202 186/219/196
f 195/228/203 190/217/194 191/218/195 196/229/204
f 194/230/205 189/216/193 190/217/194 195/228/203
f 193/231/206 188/215/192 189/216/193 194/230/205
f 186/219/196 192/227/202 142/232/157 127/220/144
f 193/231/206 194/230/205 201/233/207 199/234/208
f 167/235/209 164/236/210 202/237/211 206/238/212
f 198/196/175 193/231/206 199/234/208 210/197/176
f 188/215/192 193/231/206 198/196/175 192/227/202
f 192/227/202 198/196/175 197/195/174 142/232/157
f 210/197/176 203/226/201 204/225/200 209/198/177
f 199/234/208 200/239/213 203/226/201 210/197/176
f 200/239/213 199/234/208 201/233/207 202/237/211
f 202/237/211 201/233/207 205/240/214 206/238/212
f 206/238/212 205/240/214 207/241/215 208/242/216
f 194/230/205 195/228/203 205/240/214 201/233/207
f 166/224/199 197/195/174 209/198/177 204/225/200
f 196/229/204 169/243/217 208/242/216 207/241/215
f 195/228/203 196/229/204 207/241/215 205/240/214
f 163/244/218 184/223/198 203/226/201 200/239/213
f 164/236/210 163/244/218 200/239/213 202/237/211
f 169/243/217 167/235/209 206/238/212 208/242/216
f 9/14/8 34/43/37 133/245/146 108/246/119
f 12/15/9 9/14/8 108/246/119 111/247/118
f 10/248/219 11/249/220 110/250/163 109/251/169
f 14/46/40 35/45/39 134/252/148 113/253/151
f 11/249/220 15/254/221 114/255/160 110/250/163
f 16/21/15 12/15/9 111/247/118 115/256/125
f 17/257/222 48/258/45 147/259/154 116/260/168
f 15/254/221 17/257/222 116/260/168 114/255/160
f 18/23/17 16/21/15 115/256/125 117/261/127
f 23/27/21 33/24/18 132/262/126 122/263/130
f 27/28/22 23/27/21 122/263/130 126/264/129
f 33/24/18 18/23/17 117/261/127 132/262/126
f 34/43/37 13/44/38 112/265/147 133/245/146
f 35/45/39 10/248/219 109/251/169 134/252/148
f 42/40/34 27/28/22 126/264/129 141/266/143
f 43/267/223 49/268/224 148/269/120 142/270/157
f 48/51/45 42/40/34 141/266/143 147/271/154
f 49/268/224 14/272/40 113/273/151 148/269/120
f 83/107/91 63/83/67 162/274/171 183/275/197
f 63/83/67 66/82/66 165/276/172 162/274/171
f 65/277/225 64/278/226 163/279/218 164/280/210
f 84/108/92 14/111/95 166/281/199 184/282/198
f 67/283/227 65/277/225 164/280/210 167/284/209
f 66/82/66 68/89/73 168/285/178 165/276/172
f 96/286/98 69/287/228 169/288/217 196/289/204
f 69/287/228 67/283/227 167/284/209 169/288/217
f 68/89/73 70/91/75 170/290/180 168/285/178
f 82/90/74 74/94/78 174/291/184 182/292/181
f 74/94/78 78/93/77 178/293/185 174/291/184
f 70/91/75 82/90/74 182/292/181 170/290/180
f 13/44/38 83/107/91 183/275/197 112/265/147
f 64/278/226 84/108/92 184/282/198 163/279/218
f 78/93/77 91/105/89 191/294/195 178/293/185
f 49/295/229 43/296/223 142/297/157 197/298/174
f 91/105/89 96/114/98 196/299/204 191/294/195
f 14/300/95 49/295/229 197/298/174 166/301/199
f 69/287/228 214/134/114 211/117/101 67/283/227
f 65/277/225 212/120/104 216/136/115 64/278/226
f 64/278/226 216/136/115 213/109/93 84/108/92
f 96/286/98 215/133/113 214/134/114 69/287/228
f 67/283/227 211/117/101 212/120/104 65/277/225
f 17/257/222 15/254/221 217/55/49 220/77/62
f 11/249/220 10/248/219 222/79/63 218/56/50
f 10/248/219 35/45/39 219/48/42 222/79/63
f 48/258/45 17/257/222 220/77/62 221/76/61
f 15/254/221 11/249/220 218/56/50 217/55/49
f 219/48/42 223/47/41 56/66/56 55/65/55
f 223/110/94 213/109/93 102/128/108 56/127/107
f 47/78/44 48/258/45 221/76/61 59/69/59 57/68/58
f 95/135/97 103/130/110 105/132/112 215/133/113 96/286/98
s 0
f 225/302/3 238/303/3 235/304/3 230/305/3 233/306/3
f 230/305/2 243/307/2 242/308/2 233/306/2
f 226/309/2 227/310/2 253/311/2 258/312/2 254/313/2
f 246/314/4 231/315/4 232/316/4 245/317/4
f 230/305/5 235/304/5 244/318/5 243/307/5
f 242/308/6 245/317/6 232/316/6 233/306/6
f 234/319/3 239/320/3 224/321/3 232/316/3 231/315/3
f 224/321/3 225/302/3 233/306/3 232/316/3
f 247/322/5 234/319/5 231/315/5 246/314/5
f 244/318/230 235/304/230 238/303/230 249/323/230
f 249/323/5 238/303/5 239/320/5 248/324/5
f 234/319/231 247/322/231 248/324/231 239/320/231
f 238/303/3 225/302/3 224/321/3 239/320/3
f 229/325/1 227/326/1 245/327/1 242/328/1
f 251/329/3 252/330/3 257/331/3 259/332/3
f 228/333/5 237/334/5 252/335/5 251/336/5
f 237/334/2 241/337/2 257/338/2 252/335/2
f 236/339/5 226/309/5 254/313/5 255/340/5
f 227/326/5 229/325/5 250/341/5 253/342/5
f 229/343/4 228/333/4 251/336/4 259/344/4 250/345/4
f 240/346/4 236/339/4 255/340/4 256/347/4
f 241/337/6 240/346/6 256/347/6 258/348/6 259/349/6 257/338/6
f 258/350/3 256/351/3 255/352/3 254/353/3
f 259/354/1 258/355/1 253/356/1 250/357/1
f 260/358/1 275/359/1 271/360/1 267/361/1 268/362/1
f 266/363/2 269/364/2 265/365/2 264/366/2
f 264/366/3 265/365/3 263/367/3 262/368/3 273/369/3 276/370/3 277/371/3 272/372/3
f 262/368/4 263/367/4 268/362/4 267/361/4
f 266/373/5 264/374/5 272/375/5 270/376/5
f 265/365/6 269/364/6 268/362/6 263/367/6
f 270/377/1 274/378/1 261/379/1 269/364/1 266/363/1
f 261/379/1 260/358/1 268/362/1 269/364/1
f 273/380/232 271/381/232 275/382/232 281/383/232 276/384/232
f 271/381/5 273/380/5 262/385/5 267/386/5
f 270/376/233 272/375/233 277/387/233 280/388/233 274/389/233
f 275/390/234 260/391/234 278/392/234 281/393/234
f 281/393/1 278/392/1 279/394/1 280/395/1
f 261/396/235 274/397/235 280/395/235 279/394/235
f 260/391/5 261/396/5 279/394/5 278/392/5
f 280/395/5 277/371/5 276/370/5 281/393/5
f 244/398/1 249/399/1 248/400/1 247/401/1 246/402/1 240/403/1 241/404/1 243/405/1
f 227/326/1 226/406/1 236/407/1 245/327/1
f 229/325/1 242/328/1 237/408/1 228/409/1
s 1
f 354/410/236 282/411/237 377/412/238 312/413/239
f 283/414/240 347/415/241 305/416/242 371/417/243
f 328/418/244 375/419/245 282/411/237 354/410/236
f 392/420/246 348/421/247 293/422/248 389/423/249
f 388/424/250 398/425/6 369/426/251 286/427/252
f 340/428/253 283/429/240 371/430/243 298/431/254
f 399/432/6 385/433/255 333/434/256 374/435/257
f 383/436/258 306/437/259 349/438/260 394/439/261
f 398/440/6 391/441/262 292/442/263 369/443/251
f 395/444/264 355/445/265 314/446/266 386/447/267
f 375/448/245 335/449/268 361/450/269 282/451/237
f 368/452/270 291/453/271 347/415/241 283/414/240
f 282/451/237 361/450/269 319/454/272 377/455/238
f 380/456/273 326/457/274 356/458/275 397/459/276
f 382/460/277 399/461/6 374/462/257 327/463/278
f 284/464/279 287/465/280 288/466/281 290/467/282
f 285/468/283 289/469/284 288/466/281 287/465/280
f 286/427/252 290/467/282 288/466/281 289/469/284
f 291/453/271 294/470/285 295/471/286 297/472/287
f 292/442/263 296/473/288 295/471/286 294/470/285
f 293/422/248 297/472/287 295/471/286 296/473/288
f 298/431/254 301/474/289 302/475/290 304/476/291
f 299/477/292 303/478/293 302/475/290 301/474/289
f 300/479/294 304/476/291 302/475/290 303/478/293
f 305/416/242 308/480/295 309/481/296 311/482/297
f 306/437/259 310/483/298 309/481/296 308/480/295
f 307/484/299 311/482/297 309/481/296 310/483/298
f 312/413/239 315/485/300 316/486/301 318/487/302
f 313/488/303 317/489/304 316/486/301 315/485/300
f 314/446/266 318/487/302 316/486/301 317/489/304
f 319/454/272 322/490/305 323/491/306 325/492/307
f 320/493/308 324/494/309 323/491/306 322/490/305
f 321/495/310 325/492/307 323/491/306 324/494/309
f 326/457/274 329/496/311 330/497/312 332/498/313
f 327/463/278 331/499/314 330/497/312 329/496/311
f 328/418/244 332/498/313 330/497/312 331/499/314
f 333/434/256 336/500/315 337/501/316 339/502/317
f 334/503/318 338/504/319 337/501/316 336/500/315
f 335/449/268 339/502/317 337/501/316 338/504/319
f 340/428/253 343/505/320 344/506/321 346/507/322
f 341/508/323 345/509/324 344/506/321 343/505/320
f 342/510/325 346/507/322 344/506/321 345/509/324
f 347/415/241 350/511/326 351/512/327 353/513/328
f 348/421/247 352/514/329 351/512/327 350/511/326
f 349/438/260 353/513/328 351/512/327 352/514/329
f 354/410/236 357/515/330 358/516/331 360/517/332
f 355/445/265 359/518/333 358/516/331 357/515/330
f 356/458/275 360/517/332 358/516/331 359/518/333
f 361/450/269 364/519/334 365/520/335 367/521/336
f 362/522/337 366/523/338 365/520/335 364/519/334
f 363/524/339 367/521/336 365/520/335 366/523/338
f 342/510/325 285/468/283 287/465/280 346/507/322
f 346/507/322 287/465/280 284/464/279 340/428/253
f 369/443/251 292/442/263 294/470/285 370/525/340
f 370/525/340 294/470/285 291/453/271 368/452/270
f 349/438/260 306/437/259 308/480/295 353/513/328
f 353/513/328 308/480/295 305/416/242 347/415/241
f 372/526/341 299/477/292 301/474/289 373/527/342
f 373/527/342 301/474/289 298/431/254 371/430/243
f 380/456/273 300/479/294 303/478/293 381/528/343
f 381/528/343 303/478/293 299/477/292 382/460/277
f 383/436/258 334/503/318 336/500/315 384/529/344
f 384/529/344 336/500/315 333/434/256 385/433/255
f 375/419/245 328/418/244 331/499/314 376/530/345
f 376/530/345 331/499/314 327/463/278 374/462/257
f 356/458/275 326/457/274 332/498/313 360/517/332
f 360/517/332 332/498/313 328/418/244 354/410/236
f 363/524/339 320/493/308 322/490/305 367/521/336
f 367/521/336 322/490/305 319/454/272 361/450/269
f 378/531/346 313/488/303 315/485/300 379/532/347
f 379/532/347 315/485/300 312/413/239 377/412/238
f 386/447/267 314/446/266 317/489/304 387/533/348
f 387/533/348 317/489/304 313/488/303 388/424/250
f 389/423/249 293/422/248 296/473/288 390/534/349
f 390/534/349 296/473/288 292/442/263 391/441/262
f 300/479/294 341/508/323 343/505/320 304/476/291
f 304/476/291 343/505/320 340/428/253 298/431/254
f 293/422/248 348/421/247 350/511/326 297/472/287
f 297/472/287 350/511/326 347/415/241 291/453/271
f 314/446/266 355/445/265 357/515/330 318/487/302
f 318/487/302 357/515/330 354/410/236 312/413/239
f 334/503/318 362/522/337 364/519/334 338/504/319
f 338/504/319 364/519/334 361/450/269 335/449/268
f 392/420/246 363/524/339 366/523/338 393/535/350
f 393/535/350 366/523/338 362/522/337 394/439/261
f 395/444/264 342/510/325 345/509/324 396/536/351
f 396/536/351 345/509/324 341/508/323 397/459/276
f 286/427/252 369/426/251 370/537/340 290/467/282
f 290/467/282 370/537/340 368/538/270 284/464/279
f 307/484/299 372/539/341 373/540/342 311/482/297
f 311/482/297 373/540/342 371/417/243 305/416/242
f 335/449/268 375/448/245 376/541/345 339/502/317
f 339/502/317 376/541/345 374/435/257 333/434/256
f 321/495/310 378/542/346 379/543/347 325/492/307
f 325/492/307 379/543/347 377/455/238 319/454/272
f 284/464/279 368/538/270 283/429/240 340/428/253
f 359/518/333 396/536/351 397/459/276 356/458/275
f 355/445/265 395/444/264 396/536/351 359/518/333
f 352/514/329 393/535/350 394/439/261 349/438/260
f 348/421/247 392/420/246 393/535/350 352/514/329
f 324/494/309 390/534/349 391/441/262 321/495/310
f 320/493/308 389/423/249 390/534/349 324/494/309
f 289/469/284 387/533/348 388/424/250 286/427/252
f 285/468/283 386/447/267 387/533/348 289/469/284
f 310/483/298 384/529/344 385/433/255 307/484/299
f 306/437/259 383/436/258 384/529/344 310/483/298
f 329/496/311 381/528/343 382/460/277 327/463/278
f 326/457/274 380/456/273 381/528/343 329/496/311
f 299/477/292 372/526/341 399/461/6 382/460/277
f 300/479/294 380/456/273 397/459/276 341/508/323
f 342/510/325 395/444/264 386/447/267 285/468/283
f 378/542/346 321/495/310 391/441/262 398/440/6
f 334/503/318 383/436/258 394/439/261 362/522/337
f 372/539/341 307/484/299 385/433/255 399/432/6
f 313/488/303 378/531/346 398/425/6 388/424/250
f 363/524/339 392/420/246 389/423/249 320/493/308
s 0
f 430/544/4 436/545/4 407/546/4 401/547/4
f 444/548/3 450/549/3 437/550/3 429/551/3
f 449/552/6 421/553/6 408/554/6 435/555/6
f 402/556/1 409/557/1 423/558/1 415/559/1
f 416/560/2 422/561/2 451/562/2 443/563/2
f 400/564/352 403/565/352 404/566/352 406/567/352
f 401/547/353 405/568/353 404/569/353 403/570/353
f 402/556/354 406/571/354 404/569/354 405/568/354
f 407/546/355 410/572/355 411/573/355 413/574/355
f 408/554/356 412/575/356 411/573/356 410/572/356
f 409/557/357 413/574/357 411/573/357 412/575/357
f 414/576/358 417/577/358 418/578/358 420/579/358
f 415/559/359 419/580/359 418/581/359 417/582/359
f 416/560/360 420/583/360 418/581/360 419/580/360
f 421/553/361 424/584/361 425/585/361 427/586/361
f 422/561/362 426/587/362 425/585/362 424/584/362
f 423/558/363 427/586/363 425/585/363 426/587/363
f 428/588/364 431/589/364 432/590/364 434/591/364
f 429/551/365 433/592/365 432/593/365 431/594/365
f 430/544/366 434/595/366 432/593/366 433/592/366
f 435/555/367 438/596/367 439/597/367 441/598/367
f 436/545/368 440/599/368 439/597/368 438/596/368
f 437/550/369 441/598/369 439/597/369 440/599/369
f 442/600/370 445/601/370 446/602/370 448/603/370
f 443/563/371 447/604/371 446/605/371 445/606/371
f 444/548/372 448/607/372 446/605/372 447/604/372
f 449/552/373 452/608/373 453/609/373 455/610/373
f 450/549/374 454/611/374 453/609/374 452/608/374
f 451/562/375 455/610/375 453/609/375 454/611/375
f 414/576/376 400/564/376 406/567/376 417/577/376
f 417/582/377 406/571/377 402/556/377 415/559/377
f 401/547/378 407/546/378 413/574/378 405/568/378
f 405/568/379 413/574/379 409/557/379 402/556/379
f 408/554/380 421/553/380 427/586/380 412/575/380
f 412/575/381 427/586/381 423/558/381 409/557/381
f 422/561/382 416/560/382 419/580/382 426/587/382
f 426/587/383 419/580/383 415/559/383 423/558/383
f 442/600/384 414/576/384 420/579/384 445/601/384
f 445/606/385 420/583/385 416/560/385 443/563/385
f 421/553/386 449/552/386 455/610/386 424/584/386
f 424/584/387 455/610/387 451/562/387 422/561/387
f 450/549/388 444/548/388 447/604/388 454/611/388
f 454/611/389 447/604/389 443/563/389 451/562/389
f 428/588/390 442/600/390 448/603/390 431/589/390
f 431/594/391 448/607/391 444/548/391 429/551/391
f 449/552/392 435/555/392 441/598/392 452/608/392
f 452/608/393 441/598/393 437/550/393 450/549/393
f 436/545/394 430/544/394 433/592/394 440/599/394
f 440/599/395 433/592/395 429/551/395 437/550/395
f 400/564/396 428/588/396 434/591/396 403/565/396
f 403/570/397 434/595/397 430/544/397 401/547/397
f 435/555/398 408/554/398 410/572/398 438/596/398
f 438/596/399 410/572/399 407/546/399 436/545/399
f 414/576/5 442/600/5 428/588/5 400/564/5
