# Blender 4.2.2 LTS
# www.blender.org
mtllib bench.mtl
o bench
v -1.632279 3.962915 5.993032
v -1.719462 4.598399 5.993032
v -1.632279 3.962915 -6.027472
v -1.719462 4.598399 -6.027472
v -1.380792 3.997417 5.993032
v -1.467975 4.632901 5.993032
v -1.380792 3.997417 -6.027472
v -1.467975 4.632901 -6.027472
v -1.741258 4.757270 5.993032
v -1.828441 5.392755 5.993032
v -1.741258 4.757270 -6.027472
v -1.828441 5.392755 -6.027472
v -1.489771 4.791772 5.993032
v -1.576954 5.427257 5.993032
v -1.489771 4.791772 -6.027472
v -1.576954 5.427257 -6.027472
v -1.850237 5.551626 5.993032
v -1.937420 6.187110 5.993032
v -1.850237 5.551626 -6.027472
v -1.937420 6.187110 -6.027472
v -1.598750 5.586128 5.993032
v -1.685933 6.221612 5.993032
v -1.598750 5.586128 -6.027472
v -1.685933 6.221612 -6.027472
v -1.959216 6.345981 5.993032
v -2.046400 6.981465 5.993032
v -1.959216 6.345981 -6.027472
v -2.046400 6.981465 -6.027472
v -1.707729 6.380483 5.993032
v -1.794912 7.015967 5.993032
v -1.707729 6.380483 -6.027472
v -1.794912 7.015967 -6.027472
v 1.611634 3.343495 -6.047420
v 1.978696 4.843395 -6.116674
v 1.611634 3.343495 -6.387241
v 1.978696 4.843395 -6.317987
v 1.951457 3.343494 -6.047420
v 2.180008 4.843395 -6.116674
v 1.951457 3.343494 -6.387241
v 2.180008 4.843395 -6.317987
v -1.706616 5.192578 -6.028521
v -1.706616 5.192578 -6.399940
v 2.795657 4.824279 -6.028521
v 2.795657 4.824279 -6.399940
v 2.795657 4.984207 -6.028521
v 2.448039 5.192578 -6.028521
v 2.448039 5.192578 -6.399940
v 2.795657 4.984207 -6.399940
v -1.340218 4.142559 -6.028521
v -0.396781 4.794172 -6.028521
v -0.396781 4.794172 -6.399940
v -1.340218 4.142559 -6.399940
v -0.868500 4.586956 -6.399940
v -0.868500 4.586956 -6.028521
v 1.611634 3.343495 6.012981
v 1.978695 4.843395 6.082236
v 1.611634 3.343495 6.352803
v 1.978695 4.843395 6.283549
v 1.951457 3.343495 6.012981
v 2.180008 4.843395 6.082236
v 1.951457 3.343495 6.352803
v 2.180008 4.843395 6.283549
v -1.706616 5.192578 5.994081
v -1.706616 5.192578 6.365501
v 2.795657 4.824279 5.994081
v 2.795657 4.824279 6.365501
v 2.795657 4.984207 5.994081
v 2.448039 5.192578 5.994081
v 2.448039 5.192578 6.365501
v 2.795657 4.984207 6.365501
v -1.340218 4.142559 5.994081
v -0.396781 4.794172 5.994081
v -0.396781 4.794172 6.365501
v -1.340218 4.142559 6.365501
v -0.868500 4.586956 6.365501
v -0.868500 4.586956 5.994081
v -1.105714 3.339594 5.993032
v -0.464278 3.339594 5.993032
v -1.105714 3.339594 -6.027471
v -0.464278 3.339594 -6.027471
v -1.105714 3.085750 5.993032
v -0.464278 3.085751 5.993032
v -1.105714 3.085750 -6.027471
v -0.464278 3.085751 -6.027471
v -0.303918 3.339594 5.993032
v 0.337518 3.339594 5.993032
v -0.303918 3.339594 -6.027471
v 0.337518 3.339594 -6.027471
v -0.303918 3.085750 5.993032
v 0.337518 3.085750 5.993032
v -0.303918 3.085750 -6.027471
v 0.337518 3.085750 -6.027471
v 0.497877 3.339594 5.993032
v 1.139314 3.339594 5.993032
v 0.497877 3.339594 -6.027471
v 1.139314 3.339594 -6.027471
v 0.497877 3.085751 5.993032
v 1.139314 3.085751 5.993032
v 0.497877 3.085751 -6.027471
v 1.139314 3.085751 -6.027471
v 1.299673 3.339594 5.993032
v 1.941110 3.339594 5.993032
v 1.299673 3.339594 -6.027471
v 1.941110 3.339594 -6.027471
v 1.299673 3.085751 5.993032
v 1.941110 3.085751 5.993032
v 1.299673 3.085751 -6.027471
v 1.941110 3.085751 -6.027471
v -1.673407 3.023928 -5.983564
v -2.213085 7.627433 -5.983564
v -1.673407 3.023928 -6.438904
v -2.213085 7.627433 -6.438904
v -1.218068 3.023928 -5.983564
v -1.757746 7.627434 -5.983564
v -1.218068 3.023928 -6.438904
v -1.757746 7.627434 -6.438904
v -1.673407 3.530314 -5.983564
v -1.673407 3.530314 -6.438904
v 2.295915 3.023928 -6.438904
v 2.295915 3.023928 -5.983564
v 1.763916 3.530314 -6.438904
v 1.763916 3.023928 -6.438904
v 1.763916 3.530314 -5.983564
v 1.763916 3.023928 -5.983564
v -2.193489 0.010571 -6.438904
v -2.193489 0.010571 -5.983564
v -1.616925 0.010571 -6.438904
v -1.616925 0.010571 -5.983564
v 2.771868 0.010572 -5.983564
v 2.771868 0.010572 -6.438904
v 2.158952 0.010572 -5.983564
v 2.158952 0.010572 -6.438904
v -1.398864 4.902877 -6.438904
v -0.414794 3.530314 -6.438904
v -1.218068 3.024043 -6.438904
v -1.444162 3.530314 -6.438904
v -1.204801 3.932328 -6.438904
v -0.414794 3.530314 -5.983564
v -1.398864 4.902877 -5.983564
v -1.444162 3.530314 -5.983564
v -1.218068 3.024043 -5.983564
v -1.204801 3.932328 -5.983564
v 2.026605 3.530314 -6.438904
v 2.245796 3.265483 -6.438904
v 2.245796 3.265483 -5.983564
v 2.026605 3.530314 -5.983564
v -1.673407 3.023928 5.949125
v -2.213085 7.627433 5.949125
v -1.673407 3.023928 6.404464
v -2.213085 7.627433 6.404464
v -1.218068 3.023928 5.949125
v -1.757746 7.627433 5.949125
v -1.218068 3.023928 6.404464
v -1.757746 7.627433 6.404464
v -1.673407 3.530314 5.949125
v -1.673407 3.530314 6.404464
v 2.295915 3.023929 6.404464
v 2.295915 3.023929 5.949125
v 1.763916 3.530314 6.404464
v 1.763916 3.023928 6.404464
v 1.763916 3.530314 5.949125
v 1.763916 3.023928 5.949125
v -2.193489 0.010572 6.404464
v -2.193489 0.010572 5.949125
v -1.616925 0.010572 6.404464
v -1.616925 0.010572 5.949125
v 2.771868 0.010573 5.949125
v 2.771868 0.010573 6.404464
v 2.158952 0.010572 5.949125
v 2.158952 0.010572 6.404464
v -1.398864 4.902877 6.404464
v -0.414794 3.530314 6.404464
v -1.218068 3.024044 6.404464
v -1.444162 3.530314 6.404464
v -1.204801 3.932328 6.404464
v -0.414794 3.530314 5.949125
v -1.398864 4.902877 5.949125
v -1.444162 3.530314 5.949125
v -1.218068 3.024044 5.949125
v -1.204801 3.932328 5.949125
v 2.026605 3.530314 6.404464
v 2.245796 3.265484 6.404464
v 2.245796 3.265484 5.949125
v 2.026605 3.530314 5.949125
vn -0.9907 -0.1359 -0.0000
vn -0.0000 -0.0000 -1.0000
vn 0.9907 0.1359 -0.0000
vn -0.0000 -0.0000 1.0000
vn 0.1359 -0.9907 -0.0000
vn -0.1359 0.9907 -0.0000
vn -0.9713 0.2377 -0.0000
vn -0.0000 0.0461 -0.9989
vn 0.9886 -0.1506 -0.0000
vn -0.0000 0.0461 0.9989
vn -0.0000 -1.0000 -0.0000
vn -0.0000 1.0000 -0.0000
vn -0.9442 -0.3295 -0.0000
vn 1.0000 -0.0000 -0.0000
vn 0.5141 0.8577 -0.0000
vn 0.6857 -0.7279 -0.0000
vn 0.0094 -1.0000 -0.0000
vn 0.4022 -0.9156 -0.0000
vn -1.0000 -0.0000 -0.0000
vn -0.9914 -0.1306 -0.0000
vn 0.9878 0.1560 -0.0000
vn 0.9914 0.1306 -0.0000
vn -0.9915 -0.1300 -0.0000
vn -0.9854 0.1701 -0.0000
vn 0.9914 -0.1312 -0.0000
vn 0.9806 0.1961 -0.0000
vn 0.4535 0.8912 -0.0000
vn 0.7704 0.6376 -0.0000
vn 0.9791 0.2032 -0.0000
vt 0.314689 0.524866
vt 0.419248 0.524866
vt 0.419248 0.629425
vt 0.314689 0.629425
vt 0.878319 0.902655
vt 0.773760 0.902655
vt 0.773760 0.798096
vt 0.878319 0.798096
vt 0.210131 0.629425
vt 0.105572 0.629425
vt 0.105572 0.524866
vt 0.210131 0.524866
vt 0.846769 0.475088
vt 0.951327 0.475088
vt 0.951327 0.579646
vt 0.846769 0.579646
vt 0.001014 0.629425
vt 0.001014 0.524866
vt 0.387698 0.105572
vt 0.387698 0.001014
vt 0.492257 0.001014
vt 0.492257 0.105572
vt 0.920354 0.254425
vt 0.815795 0.254425
vt 0.815795 0.149866
vt 0.920354 0.149866
vt 0.492257 0.210131
vt 0.492257 0.314689
vt 0.387698 0.314689
vt 0.387698 0.210131
vt 0.322433 0.929204
vt 0.322433 0.824645
vt 0.426991 0.824645
vt 0.426991 0.929204
vt 0.492257 0.419248
vt 0.387698 0.419248
vt 0.281503 0.105572
vt 0.281503 0.001014
vt 0.386062 0.001014
vt 0.386062 0.105572
vt 0.920354 0.362832
vt 0.815795 0.362832
vt 0.815795 0.258273
vt 0.920354 0.258273
vt 0.386062 0.210131
vt 0.386062 0.314689
vt 0.281503 0.314689
vt 0.281503 0.210131
vt 0.539247 0.877742
vt 0.643805 0.877742
vt 0.643805 0.982301
vt 0.539247 0.982301
vt 0.386062 0.419248
vt 0.281503 0.419248
vt 0.493893 0.105572
vt 0.493893 0.001014
vt 0.598451 0.001014
vt 0.598451 0.105572
vt 0.984513 0.986726
vt 0.879955 0.986726
vt 0.879955 0.882167
vt 0.984513 0.882167
vt 0.598451 0.210131
vt 0.598451 0.314689
vt 0.493893 0.314689
vt 0.493893 0.210131
vt 0.824645 0.471239
vt 0.824645 0.366680
vt 0.929204 0.366680
vt 0.929204 0.471239
vt 0.598451 0.419248
vt 0.493893 0.419248
vt 0.269222 0.466363
vt 0.305525 0.421871
vt 0.325450 0.433934
vt 0.302857 0.486726
vt 0.346641 0.424264
vt 0.338628 0.470403
vt 0.369933 0.424264
vt 0.377946 0.470403
vt 0.391124 0.433934
vt 0.413717 0.486726
vt 0.119973 0.407584
vt 0.159292 0.407584
vt 0.159292 0.446903
vt 0.119973 0.446903
vt 0.143805 0.450159
vt 0.143805 0.473451
vt 0.120513 0.473451
vt 0.120513 0.450159
vt 0.116817 0.522712
vt 0.112488 0.522614
vt 0.108112 0.480930
vt 0.112910 0.000795
vt 0.139381 0.044146
vt 0.127444 0.099501
vt 0.121583 0.154917
vt 0.057737 0.153843
vt 0.052688 0.097623
vt 0.042166 0.042027
vt 0.068364 0.000437
vt 0.067101 0.480160
vt 0.062291 0.523170
vt 0.057819 0.523230
vt 0.603043 0.471239
vt 0.603043 0.421261
vt 0.646018 0.421261
vt 0.646018 0.471239
vt 0.011062 0.044248
vt 0.007031 0.044248
vt 0.007031 0.001273
vt 0.011062 0.001273
vt 0.009614 0.103667
vt 0.000215 0.049276
vt 0.015161 0.523230
vt 0.015161 0.156575
vt 0.860169 0.001523
vt 0.880531 0.035158
vt 0.827739 0.057751
vt 0.815676 0.037825
vt 0.864208 0.070929
vt 0.818069 0.078942
vt 0.864208 0.110247
vt 0.818069 0.102234
vt 0.880531 0.146018
vt 0.827739 0.123425
vt 0.239442 0.000504
vt 0.278761 0.000504
vt 0.278761 0.039823
vt 0.239442 0.039823
vt 0.014318 0.039823
vt 0.014318 0.016530
vt 0.037611 0.016530
vt 0.037611 0.039823
vt 0.163266 0.522712
vt 0.158500 0.154917
vt 0.152639 0.099502
vt 0.140702 0.044147
vt 0.167172 0.000795
vt 0.171970 0.480930
vt 0.167594 0.522614
vt 0.222346 0.153843
vt 0.222264 0.523230
vt 0.217791 0.523170
vt 0.212981 0.480160
vt 0.211719 0.000437
vt 0.237916 0.042027
vt 0.227394 0.097622
vt 0.376106 0.479149
vt 0.376106 0.522124
vt 0.326128 0.522124
vt 0.326128 0.479150
vt 0.000393 0.044248
vt 0.000393 0.001273
vt 0.004425 0.001273
vt 0.004425 0.044248
vt 0.279867 0.049276
vt 0.270468 0.103666
vt 0.264922 0.156575
vt 0.264922 0.523230
vt 0.810841 0.105572
vt 0.810841 0.210131
vt 0.706282 0.210131
vt 0.706282 0.105572
vt 0.986726 0.139381
vt 0.882167 0.139381
vt 0.882167 0.034822
vt 0.986726 0.034822
vt 0.706282 0.419248
vt 0.706282 0.314689
vt 0.810841 0.314689
vt 0.810841 0.419248
vt 0.824645 0.663141
vt 0.929204 0.663141
vt 0.929204 0.767699
vt 0.824645 0.767699
vt 0.706282 0.001014
vt 0.810841 0.001014
vt 0.105572 0.631061
vt 0.210131 0.631061
vt 0.210131 0.735619
vt 0.105572 0.735619
vt 0.318584 0.929203
vt 0.214026 0.929203
vt 0.214026 0.824645
vt 0.318584 0.824645
vt 0.419248 0.735619
vt 0.314689 0.735619
vt 0.314689 0.631061
vt 0.419248 0.631061
vt 0.001636 0.829070
vt 0.106195 0.829070
vt 0.106195 0.933628
vt 0.001636 0.933628
vt 0.001014 0.735619
vt 0.001014 0.631061
vt 0.600088 0.314689
vt 0.600087 0.210131
vt 0.704646 0.210131
vt 0.704646 0.314689
vt 0.986726 0.876106
vt 0.882167 0.876106
vt 0.882167 0.771548
vt 0.986726 0.771548
vt 0.704646 0.001014
vt 0.704646 0.105572
vt 0.600087 0.105572
vt 0.600087 0.001014
vt 0.645442 0.895441
vt 0.750000 0.895441
vt 0.750000 1.000000
vt 0.645442 1.000000
vt 0.704646 0.419248
vt 0.600088 0.419248
vt 0.493893 0.733937
vt 0.493893 0.629379
vt 0.598451 0.629379
vt 0.598451 0.733937
vt 0.107831 0.833494
vt 0.212389 0.833494
vt 0.212389 0.938053
vt 0.107831 0.938053
vt 0.598451 0.420262
vt 0.598451 0.524820
vt 0.493893 0.524820
vt 0.493893 0.420262
vt 0.535398 0.842344
vt 0.535398 0.946903
vt 0.430840 0.946903
vt 0.430840 0.842344
vt 0.598451 0.838496
vt 0.493893 0.838496
vt 0.111302 0.782284
vt 0.171664 0.782284
vt 0.171664 0.823009
vt 0.111302 0.823009
vt 0.651524 0.717154
vt 0.664975 0.776783
vt 0.664941 0.776784
vt 0.602022 0.561360
vt 0.605633 0.560304
vt 0.686440 0.705186
vt 0.636196 0.551201
vt 0.662696 0.804750
vt 0.655719 0.827644
vt 0.650669 0.826198
vt 0.799983 0.554246
vt 0.840708 0.554246
vt 0.840708 0.604473
vt 0.799983 0.604473
vt 0.212389 0.823009
vt 0.212389 0.782284
vt 0.135623 0.323009
vt 0.131826 0.320631
vt 0.157080 0.280304
vt 0.156512 0.285238
vt 0.148092 0.303096
vt 0.716285 0.788258
vt 0.732795 0.831049
vt 0.691824 0.846313
vt 0.676701 0.804519
vt 0.106822 0.782284
vt 0.106822 0.823009
vt 0.799983 0.506041
vt 0.840708 0.506041
vt 0.840708 0.529536
vt 0.799983 0.529536
vt 0.146601 0.400277
vt 0.142805 0.402655
vt 0.130335 0.382742
vt 0.121915 0.364884
vt 0.121347 0.359950
vt 0.267687 0.778761
vt 0.267687 0.738036
vt 0.311947 0.738036
vt 0.311947 0.778761
vt 0.000979 0.778761
vt 0.000979 0.738036
vt 0.679811 0.889381
vt 0.748620 0.792890
vt 0.770344 0.856644
vt 0.727870 0.778946
vt 0.751755 0.788423
vt 0.707210 0.757264
vt 0.707240 0.757244
vt 0.053209 0.823009
vt 0.001641 0.823009
vt 0.001641 0.782284
vt 0.053209 0.782284
vt 0.840708 0.659292
vt 0.799983 0.659292
vt 0.602022 0.873297
vt 0.620094 0.810727
vt 0.766642 0.755417
vt 0.823009 0.794898
vt 0.121347 0.309723
vt 0.150442 0.356184
vt 0.716814 0.466814
vt 0.676089 0.466814
vt 0.676089 0.422280
vt 0.716814 0.422280
vt 0.127985 0.276538
vt 0.157080 0.230077
vt 0.842925 0.631947
vt 0.862637 0.633913
vt 0.933628 0.631480
vt 0.863039 0.642111
vt 0.843037 0.643805
vt 0.933628 0.593513
vt 0.861737 0.590825
vt 0.842939 0.592616
vt 0.842950 0.581197
vt 0.862179 0.582757
vt 0.639743 0.550046
vt 0.840708 0.549280
vt 0.799983 0.549280
vt 0.325904 0.823009
vt 0.325904 0.782283
vt 0.386266 0.782283
vt 0.386266 0.823009
vt 0.736370 0.604915
vt 0.786607 0.759908
vt 0.783037 0.761062
vt 0.715616 0.552682
vt 0.715645 0.552661
vt 0.771395 0.593162
vt 0.817176 0.750440
vt 0.671374 0.521516
vt 0.674499 0.517088
vt 0.695088 0.530988
vt 0.363980 0.738036
vt 0.414208 0.738036
vt 0.414208 0.778761
vt 0.363980 0.778761
vt 0.426991 0.782283
vt 0.426991 0.823009
vt 0.133410 0.097334
vt 0.145880 0.117246
vt 0.154299 0.135105
vt 0.154867 0.140038
vt 0.129613 0.099711
vt 0.746253 0.505690
vt 0.706640 0.521721
vt 0.690224 0.479324
vt 0.730660 0.463887
vt 0.321424 0.823009
vt 0.321424 0.782283
vt 0.315776 0.738036
vt 0.339271 0.738036
vt 0.339271 0.778761
vt 0.315776 0.778761
vt 0.148814 0.188207
vt 0.123560 0.228534
vt 0.124128 0.223601
vt 0.132547 0.205742
vt 0.145017 0.185829
vt 0.462389 0.690253
vt 0.462389 0.734513
vt 0.421664 0.734513
vt 0.421664 0.690253
vt 0.462389 0.423546
vt 0.421664 0.423546
vt 0.653079 0.453925
vt 0.767154 0.482460
vt 0.760216 0.505411
vt 0.742483 0.420422
vt 0.772221 0.483902
vt 0.758019 0.533328
vt 0.757985 0.533329
vt 0.267811 0.782284
vt 0.267811 0.823009
vt 0.216243 0.823009
vt 0.216243 0.782284
vt 0.469027 0.778761
vt 0.469027 0.738036
vt 0.656461 0.554342
vt 0.600441 0.514879
vt 0.820796 0.436744
vt 0.802813 0.499329
vt 0.152655 0.232300
vt 0.123560 0.278761
vt 0.662815 0.601770
vt 0.662815 0.557236
vt 0.703540 0.557236
vt 0.703540 0.601770
vt 0.154867 0.190266
vt 0.125772 0.143805
vt 0.842920 0.957168
vt 0.842804 0.969027
vt 0.822803 0.967326
vt 0.752217 0.956669
vt 0.823208 0.959128
vt 0.752231 0.918702
vt 0.823683 0.907972
vt 0.842913 0.906418
vt 0.842920 0.917837
vt 0.824123 0.916040
vt 0.820796 0.749387
vt 0.359015 0.738036
vt 0.359015 0.778761
s 0
usemtl Материал
f 1/1/1 2/2/1 4/3/1 3/4/1
f 3/5/2 4/6/2 8/7/2 7/8/2
f 7/9/3 8/10/3 6/11/3 5/12/3
f 5/13/4 6/14/4 2/15/4 1/16/4
f 3/4/5 7/9/5 5/12/5 1/1/5
f 8/10/6 4/17/6 2/18/6 6/11/6
f 9/19/1 10/20/1 12/21/1 11/22/1
f 11/23/2 12/24/2 16/25/2 15/26/2
f 15/27/3 16/28/3 14/29/3 13/30/3
f 13/31/4 14/32/4 10/33/4 9/34/4
f 11/22/5 15/27/5 13/30/5 9/19/5
f 16/28/6 12/35/6 10/36/6 14/29/6
f 17/37/1 18/38/1 20/39/1 19/40/1
f 19/41/2 20/42/2 24/43/2 23/44/2
f 23/45/3 24/46/3 22/47/3 21/48/3
f 21/49/4 22/50/4 18/51/4 17/52/4
f 19/40/5 23/45/5 21/48/5 17/37/5
f 24/46/6 20/53/6 18/54/6 22/47/6
f 25/55/1 26/56/1 28/57/1 27/58/1
f 27/59/2 28/60/2 32/61/2 31/62/2
f 31/63/3 32/64/3 30/65/3 29/66/3
f 29/67/4 30/68/4 26/69/4 25/70/4
f 27/58/5 31/63/5 29/66/5 25/55/5
f 32/64/6 28/71/6 26/72/6 30/65/6
f 33/73/7 34/74/7 36/75/7 35/76/7
f 35/76/8 36/75/8 40/77/8 39/78/8
f 39/78/9 40/77/9 38/79/9 37/80/9
f 37/80/10 38/79/10 34/81/10 33/82/10
f 35/83/11 39/84/11 37/85/11 33/86/11
f 40/87/12 36/88/12 34/89/12 38/90/12
f 43/91/4 45/92/4 46/93/4 41/94/4 49/95/4 54/96/4 50/97/4
f 51/98/2 53/99/2 52/100/2 42/101/2 47/102/2 48/103/2 44/104/2
f 49/105/13 41/106/13 42/107/13 52/108/13
f 44/109/14 48/110/14 45/111/14 43/112/14
f 47/102/15 46/93/15 45/92/15 48/103/15
f 47/102/12 42/101/12 41/94/12 46/93/12
f 53/99/16 54/113/16 49/114/16 52/100/16
f 51/98/17 44/104/17 43/115/17 50/116/17
f 51/98/18 50/116/18 54/113/18 53/99/18
f 55/117/7 57/118/7 58/119/7 56/120/7
f 57/118/10 61/121/10 62/122/10 58/119/10
f 61/121/9 59/123/9 60/124/9 62/122/9
f 59/123/8 55/125/8 56/126/8 60/124/8
f 57/127/11 55/128/11 59/129/11 61/130/11
f 62/131/12 60/132/12 56/133/12 58/134/12
f 65/135/2 72/136/2 76/137/2 71/138/2 63/139/2 68/140/2 67/141/2
f 73/142/4 66/143/4 70/144/4 69/145/4 64/146/4 74/147/4 75/148/4
f 71/149/13 74/150/13 64/151/13 63/152/13
f 66/153/14 65/154/14 67/155/14 70/156/14
f 69/145/15 70/144/15 67/141/15 68/140/15
f 69/145/12 68/140/12 63/139/12 64/146/12
f 75/148/16 74/147/16 71/157/16 76/158/16
f 73/142/17 72/159/17 65/160/17 66/143/17
f 73/142/18 75/148/18 76/158/18 72/159/18
f 77/161/12 78/162/12 80/163/12 79/164/12
f 79/165/2 80/166/2 84/167/2 83/168/2
f 83/169/11 84/170/11 82/171/11 81/172/11
f 81/173/4 82/174/4 78/175/4 77/176/4
f 79/164/19 83/177/19 81/178/19 77/161/19
f 84/170/14 80/163/14 78/162/14 82/171/14
f 85/179/12 86/180/12 88/181/12 87/182/12
f 87/183/2 88/184/2 92/185/2 91/186/2
f 91/187/11 92/188/11 90/189/11 89/190/11
f 89/191/4 90/192/4 86/193/4 85/194/4
f 87/182/19 91/195/19 89/196/19 85/179/19
f 92/188/14 88/181/14 86/180/14 90/189/14
f 93/197/12 94/198/12 96/199/12 95/200/12
f 95/201/2 96/202/2 100/203/2 99/204/2
f 99/205/11 100/206/11 98/207/11 97/208/11
f 97/209/4 98/210/4 94/211/4 93/212/4
f 95/200/19 99/213/19 97/214/19 93/197/19
f 100/206/14 96/199/14 94/198/14 98/207/14
f 101/215/12 102/216/12 104/217/12 103/218/12
f 103/219/2 104/220/2 108/221/2 107/222/2
f 107/223/11 108/224/11 106/225/11 105/226/11
f 105/227/4 106/228/4 102/229/4 101/230/4
f 103/218/19 107/231/19 105/232/19 101/215/19
f 108/224/14 104/217/14 102/216/14 106/225/14
f 117/233/20 110/234/20 112/235/20 118/236/20
f 138/237/4 141/238/4 113/239/4 124/240/4 123/241/4
f 134/242/12 138/237/12 123/241/12 121/243/12
f 113/239/4 141/238/4 140/244/4 117/245/4 109/246/4
f 119/247/21 120/248/21 129/249/21 130/250/21
f 116/251/12 112/235/12 110/234/12 114/252/12
f 123/253/4 124/254/4 120/255/4 145/256/4 146/257/4
f 133/258/22 116/259/22 114/260/22 139/261/22
f 109/262/19 117/233/19 118/236/19 111/263/19
f 121/264/12 123/265/12 146/266/12 143/267/12
f 122/268/2 121/269/2 143/270/2 144/271/2 119/272/2
f 124/273/23 122/274/23 132/275/23 131/276/23
f 113/277/11 115/278/11 122/274/11 124/273/11
f 140/244/4 139/261/4 114/260/4 110/279/4 117/245/4
f 118/280/2 112/281/2 116/259/2 133/258/2 136/282/2
f 111/283/2 118/280/2 136/282/2 135/284/2 115/285/2
f 125/286/11 127/287/11 128/288/11 126/289/11
f 131/290/11 132/291/11 130/250/11 129/249/11
f 113/239/4 109/246/4 126/292/4 128/293/4
f 111/283/2 115/285/2 127/294/2 125/295/2
f 109/262/24 111/263/24 125/286/24 126/289/24
f 122/268/2 119/272/2 130/296/2 132/297/2
f 115/298/25 113/299/25 128/300/25 127/301/25
f 120/255/4 124/254/4 131/302/4 129/303/4
f 133/304/2 137/305/2 134/306/2 135/307/2 136/308/2
f 138/309/4 142/310/4 139/311/4 140/312/4 141/313/4
f 133/304/26 139/311/26 142/310/26 137/305/26
f 137/305/27 142/310/27 138/309/27 134/306/27
f 115/285/2 135/284/2 134/242/2 121/243/2 122/314/2
f 143/267/28 146/266/28 145/315/28 144/316/28
f 119/247/29 144/316/29 145/315/29 120/248/29
f 155/317/20 156/318/20 150/319/20 148/320/20
f 176/321/2 161/322/2 162/323/2 151/324/2 179/325/2
f 172/326/12 159/327/12 161/322/12 176/321/12
f 151/324/2 147/328/2 155/329/2 178/330/2 179/325/2
f 157/331/21 168/332/21 167/333/21 158/334/21
f 154/335/12 152/336/12 148/320/12 150/319/12
f 161/337/2 184/338/2 183/339/2 158/340/2 162/341/2
f 171/342/22 177/343/22 152/344/22 154/345/22
f 147/346/19 149/347/19 156/318/19 155/317/19
f 159/348/12 181/349/12 184/350/12 161/351/12
f 160/352/4 157/353/4 182/354/4 181/355/4 159/356/4
f 162/357/23 169/358/23 170/359/23 160/360/23
f 151/361/11 162/357/11 160/360/11 153/362/11
f 178/330/2 155/329/2 148/363/2 152/344/2 177/343/2
f 156/364/4 174/365/4 171/342/4 154/345/4 150/366/4
f 149/367/4 153/368/4 173/369/4 174/365/4 156/364/4
f 163/370/11 164/371/11 166/372/11 165/373/11
f 169/374/11 167/333/11 168/332/11 170/375/11
f 151/324/2 166/376/2 164/377/2 147/328/2
f 149/367/4 163/378/4 165/379/4 153/368/4
f 147/346/24 164/371/24 163/370/24 149/347/24
f 160/352/4 170/380/4 168/381/4 157/353/4
f 153/382/25 165/383/25 166/384/25 151/385/25
f 158/340/2 167/386/2 169/387/2 162/341/2
f 171/388/4 174/389/4 173/390/4 172/391/4 175/392/4
f 176/393/2 179/394/2 178/395/2 177/396/2 180/397/2
f 171/388/26 175/392/26 180/397/26 177/396/26
f 175/392/27 172/391/27 176/393/27 180/397/27
f 153/368/4 160/398/4 159/327/4 172/326/4 173/369/4
f 181/349/28 182/399/28 183/400/28 184/350/28
f 157/331/29 158/334/29 183/400/29 182/399/29
