# Blender 4.2.2 LTS
# www.blender.org
mtllib chest of drawers.mtl
o chest_of_drawers
v -1.034038 -0.044641 -4.811645
v -1.034038 4.198678 -4.811645
v -1.034038 -0.044641 4.656368
v -1.034038 4.198678 4.656368
v 1.328438 4.198678 -4.811645
v 1.328438 -0.044641 -4.811645
v 1.328438 -0.044641 4.656368
v 1.328438 4.198678 4.656368
v 0.807539 3.844551 -4.507215
v 0.807539 3.844551 4.273039
v 0.807539 -0.044641 4.283882
v 0.807539 -0.044641 -4.516143
v 1.216998 3.844551 -4.507215
v 1.328438 3.956317 -4.603296
v 1.328438 3.956315 4.448017
v 1.217062 3.844551 4.335069
v 1.217099 -0.044641 4.345839
v 1.328438 -0.044641 4.459065
v 1.328438 -0.044641 -4.612478
v 1.216977 -0.044641 -4.516143
v 1.040388 3.291472 -2.902254
v 1.040388 3.117952 -2.902254
v 1.149723 3.291472 -2.902254
v 1.149723 3.117952 -2.902254
v 1.040388 3.291472 -1.793769
v 1.040388 3.117952 -1.793769
v 1.149723 3.291472 -1.793769
v 1.149723 3.117952 -1.793769
v 1.149723 3.291472 -2.348012
v 1.149723 3.117952 -2.348012
v 1.040388 3.291472 -2.348012
v 1.040388 3.117952 -2.348012
v 1.149723 3.291472 -2.625133
v 1.040388 3.117952 -2.625133
v 1.149723 3.117952 -2.625133
v 1.040388 3.291472 -2.625133
v 1.149723 3.117952 -2.070891
v 1.040388 3.291472 -2.070891
v 1.149723 3.291472 -2.070891
v 1.040388 3.117952 -2.070891
v 1.149723 3.117952 -1.932330
v 1.040388 3.291472 -1.932330
v 1.149723 3.291472 -1.932330
v 1.040388 3.117952 -1.932330
v 1.149723 3.291472 -2.763693
v 1.040388 3.117952 -2.763693
v 1.149723 3.117952 -2.763693
v 1.040388 3.291472 -2.763693
v 0.920572 3.291472 -2.902254
v 0.920572 3.117952 -2.902254
v 0.920572 3.117952 -1.793769
v 0.920572 3.291472 -1.793769
v 0.920572 3.291472 -1.932330
v 0.920572 3.117952 -2.763693
v 0.920572 3.117952 -1.932330
v 0.920572 3.291472 -2.763693
v 1.040388 2.059479 -2.902254
v 1.040388 1.885959 -2.902254
v 1.149723 2.059479 -2.902254
v 1.149723 1.885959 -2.902254
v 1.040388 2.059479 -1.793769
v 1.040388 1.885959 -1.793769
v 1.149723 2.059479 -1.793769
v 1.149723 1.885959 -1.793769
v 1.149723 2.059479 -2.348012
v 1.149723 1.885959 -2.348012
v 1.040388 2.059479 -2.348012
v 1.040388 1.885959 -2.348012
v 1.149723 2.059479 -2.625133
v 1.040388 1.885959 -2.625133
v 1.149723 1.885959 -2.625133
v 1.040388 2.059479 -2.625133
v 1.149723 1.885959 -2.070891
v 1.040388 2.059479 -2.070891
v 1.149723 2.059479 -2.070891
v 1.040388 1.885959 -2.070891
v 1.149723 1.885959 -1.932330
v 1.040388 2.059479 -1.932330
v 1.149723 2.059479 -1.932330
v 1.040388 1.885959 -1.932330
v 1.149723 2.059479 -2.763693
v 1.040388 1.885959 -2.763693
v 1.149723 1.885959 -2.763693
v 1.040388 2.059479 -2.763693
v 0.920572 2.059479 -2.902254
v 0.920572 1.885959 -2.902254
v 0.920572 1.885959 -1.793769
v 0.920572 2.059479 -1.793769
v 0.920572 2.059479 -1.932330
v 0.920572 1.885959 -2.763693
v 0.920572 1.885959 -1.932330
v 0.920572 2.059479 -2.763693
v 1.040388 0.827485 -2.902254
v 1.040388 0.653965 -2.902254
v 1.149723 0.827485 -2.902254
v 1.149723 0.653965 -2.902254
v 1.040388 0.827485 -1.793769
v 1.040388 0.653965 -1.793769
v 1.149723 0.827485 -1.793769
v 1.149723 0.653965 -1.793769
v 1.149723 0.827485 -2.348012
v 1.149723 0.653965 -2.348012
v 1.040388 0.827485 -2.348012
v 1.040388 0.653965 -2.348012
v 1.149723 0.827485 -2.625133
v 1.040388 0.653965 -2.625133
v 1.149723 0.653965 -2.625133
v 1.040388 0.827485 -2.625133
v 1.149723 0.653965 -2.070891
v 1.040388 0.827485 -2.070891
v 1.149723 0.827485 -2.070891
v 1.040388 0.653965 -2.070891
v 1.149723 0.653965 -1.932330
v 1.040388 0.827485 -1.932330
v 1.149723 0.827485 -1.932330
v 1.040388 0.653965 -1.932330
v 1.149723 0.827485 -2.763693
v 1.040388 0.653965 -2.763693
v 1.149723 0.653965 -2.763693
v 1.040388 0.827485 -2.763693
v 0.920572 0.827485 -2.902254
v 0.920572 0.653965 -2.902254
v 0.920572 0.653965 -1.793769
v 0.920572 0.827485 -1.793769
v 0.920572 0.827485 -1.932330
v 0.920572 0.653965 -2.763693
v 0.920572 0.653965 -1.932330
v 0.920572 0.827485 -2.763693
v 1.040388 3.291472 2.576798
v 1.040388 3.117952 2.576798
v 1.149723 3.291472 2.576798
v 1.149723 3.117952 2.576798
v 1.040388 3.291472 1.468313
v 1.040388 3.117952 1.468313
v 1.149723 3.291472 1.468313
v 1.149723 3.117952 1.468313
v 1.149723 3.291472 2.022555
v 1.149723 3.117952 2.022555
v 1.040388 3.291472 2.022555
v 1.040388 3.117952 2.022555
v 1.149723 3.291472 2.299677
v 1.040388 3.117952 2.299677
v 1.149723 3.117952 2.299677
v 1.040388 3.291472 2.299677
v 1.149723 3.117952 1.745434
v 1.040388 3.291472 1.745434
v 1.149723 3.291472 1.745434
v 1.040388 3.117952 1.745434
v 1.149723 3.117952 1.606874
v 1.040388 3.291472 1.606874
v 1.149723 3.291472 1.606874
v 1.040388 3.117952 1.606874
v 1.149723 3.291472 2.438237
v 1.040388 3.117952 2.438237
v 1.149723 3.117952 2.438237
v 1.040388 3.291472 2.438237
v 0.920572 3.291472 2.576798
v 0.920572 3.117952 2.576798
v 0.920572 3.117952 1.468313
v 0.920572 3.291472 1.468313
v 0.920572 3.291472 1.606874
v 0.920572 3.117952 2.438237
v 0.920572 3.117952 1.606874
v 0.920572 3.291472 2.438237
v 1.040388 2.059479 2.576798
v 1.040388 1.885959 2.576798
v 1.149723 2.059479 2.576798
v 1.149723 1.885959 2.576798
v 1.040388 2.059479 1.468313
v 1.040388 1.885959 1.468313
v 1.149723 2.059479 1.468313
v 1.149723 1.885959 1.468313
v 1.149723 2.059479 2.022555
v 1.149723 1.885959 2.022555
v 1.040388 2.059479 2.022555
v 1.040388 1.885959 2.022555
v 1.149723 2.059479 2.299677
v 1.040388 1.885959 2.299677
v 1.149723 1.885959 2.299677
v 1.040388 2.059479 2.299677
v 1.149723 1.885959 1.745434
v 1.040388 2.059479 1.745434
v 1.149723 2.059479 1.745434
v 1.040388 1.885959 1.745434
v 1.149723 1.885959 1.606874
v 1.040388 2.059479 1.606874
v 1.149723 2.059479 1.606874
v 1.040388 1.885959 1.606874
v 1.149723 2.059479 2.438237
v 1.040388 1.885959 2.438237
v 1.149723 1.885959 2.438237
v 1.040388 2.059479 2.438237
v 0.920572 2.059479 2.576798
v 0.920572 1.885959 2.576798
v 0.920572 1.885959 1.468313
v 0.920572 2.059479 1.468313
v 0.920572 2.059479 1.606874
v 0.920572 1.885959 2.438237
v 0.920572 1.885959 1.606874
v 0.920572 2.059479 2.438237
v 1.040388 0.827485 2.576798
v 1.040388 0.653965 2.576798
v 1.149723 0.827485 2.576798
v 1.149723 0.653965 2.576798
v 1.040388 0.827485 1.468313
v 1.040388 0.653965 1.468313
v 1.149723 0.827485 1.468313
v 1.149723 0.653965 1.468313
v 1.149723 0.827485 2.022555
v 1.149723 0.653965 2.022555
v 1.040388 0.827485 2.022555
v 1.040388 0.653965 2.022555
v 1.149723 0.827485 2.299677
v 1.040388 0.653965 2.299677
v 1.149723 0.653965 2.299677
v 1.040388 0.827485 2.299677
v 1.149723 0.653965 1.745434
v 1.040388 0.827485 1.745434
v 1.149723 0.827485 1.745434
v 1.040388 0.653965 1.745434
v 1.149723 0.653965 1.606874
v 1.040388 0.827485 1.606874
v 1.149723 0.827485 1.606874
v 1.040388 0.653965 1.606874
v 1.149723 0.827485 2.438237
v 1.040388 0.653965 2.438237
v 1.149723 0.653965 2.438237
v 1.040388 0.827485 2.438237
v 0.920572 0.827485 2.576798
v 0.920572 0.653965 2.576798
v 0.920572 0.653965 1.468313
v 0.920572 0.827485 1.468313
v 0.920572 0.827485 1.606874
v 0.920572 0.653965 2.438237
v 0.920572 0.653965 1.606874
v 0.920572 0.827485 2.438237
v 0.615288 2.689173 -4.564706
v 0.615288 3.872551 -4.564706
v 0.997278 2.676595 -4.564706
v 0.997278 3.859973 -4.564706
v 0.615287 2.689173 -0.108187
v 0.615287 3.872551 -0.108187
v 0.997278 2.676595 -0.108187
v 0.997278 3.859973 -0.108187
v 0.615288 1.433419 -4.564706
v 0.615288 2.616797 -4.564706
v 0.997278 1.420841 -4.564706
v 0.997278 2.604219 -4.564706
v 0.615287 1.433419 -0.108187
v 0.615287 2.616797 -0.108187
v 0.997278 1.420841 -0.108187
v 0.997278 2.604219 -0.108187
v 0.615288 0.177665 -4.564706
v 0.615288 1.361043 -4.564706
v 0.997278 0.165087 -4.564706
v 0.997278 1.348465 -4.564706
v 0.615287 0.177665 -0.108187
v 0.615287 1.361043 -0.108187
v 0.997278 0.165087 -0.108187
v 0.997278 1.348465 -0.108187
v 0.615287 2.689173 4.453806
v 0.615287 3.872551 4.453806
v 0.997277 2.676595 4.453806
v 0.997277 3.859973 4.453806
v 0.615287 2.689173 -0.002714
v 0.615287 3.872551 -0.002714
v 0.997278 2.676595 -0.002714
v 0.997278 3.859973 -0.002714
v 0.615287 1.433419 4.453806
v 0.615287 2.616797 4.453806
v 0.997277 1.420841 4.453806
v 0.997277 2.604219 4.453806
v 0.615287 1.433419 -0.002714
v 0.615287 2.616797 -0.002714
v 0.997278 1.420841 -0.002714
v 0.997278 2.604219 -0.002714
v 0.615287 0.177665 4.453806
v 0.615287 1.361043 4.453806
v 0.997277 0.165087 4.453806
v 0.997277 1.348465 4.453806
v 0.615287 0.177665 -0.002714
v 0.615287 1.361043 -0.002714
v 0.997278 0.165087 -0.002714
v 0.997278 1.348465 -0.002714
vn -0.0000 -0.0000 -1.0000
vn -0.0000 -0.0023 1.0000
vn -0.0000 -0.0000 1.0000
vn -1.0000 -0.0000 -0.0000
vn -0.0000 1.0000 -0.0000
vn 0.1497 -0.0027 -0.9887
vn 1.0000 -0.0000 -0.0000
vn -0.0000 -1.0000 -0.0000
vn 0.7082 -0.7060 -0.0000
vn 0.7130 -0.0019 -0.7011
vn 0.6539 -0.0017 0.7565
vn -0.0329 -0.9995 -0.0000
vn 0.0329 0.9995 -0.0000
vt 0.472440 0.569331
vt 0.370558 0.491236
vt 0.427040 0.452150
vt 0.515920 0.512608
vt 0.315143 0.006094
vt 0.315143 0.128433
vt 0.302263 0.128433
vt 0.302263 0.006094
vt 0.513493 0.081337
vt 0.404249 0.180267
vt 0.317545 0.158406
vt 0.426729 0.005050
vt 0.138794 0.569090
vt 0.005316 0.569192
vt 0.005050 0.222749
vt 0.138528 0.222646
vt 0.276753 0.128437
vt 0.276751 0.006098
vt 0.289832 0.006105
vt 0.289833 0.128444
vt 0.432937 0.448667
vt 0.519319 0.507597
vt 0.518996 0.087446
vt 0.412812 0.183733
vt 0.196465 0.233414
vt 0.318803 0.233647
vt 0.319050 0.554925
vt 0.196712 0.555416
vt 0.212842 0.222589
vt 0.212848 0.229877
vt 0.209344 0.233405
vt 0.209597 0.557673
vt 0.213102 0.561814
vt 0.213108 0.569033
vt 0.518157 0.156385
vt 0.518411 0.487582
vt 0.513444 0.483453
vt 0.513194 0.159905
vt 0.271326 0.131939
vt 0.271326 0.006084
vt 0.320114 0.006084
vt 0.320114 0.131939
vt 0.500560 0.481193
vt 0.500315 0.159915
vt 0.775506 0.969653
vt 0.823091 0.958627
vt 0.829038 0.922443
vt 0.780261 0.907782
vt 0.922691 0.846339
vt 0.926769 0.852193
vt 0.962953 0.858141
vt 0.968399 0.852048
vt 0.912108 0.900971
vt 0.973979 0.905725
vt 0.903642 0.899100
vt 0.897260 0.972613
vt 0.905624 0.973320
vt 0.834893 0.918365
vt 0.782131 0.899316
vt 0.682187 0.747159
vt 0.682187 0.804612
vt 0.696550 0.804612
vt 0.696550 0.747159
vt 0.710913 0.689707
vt 0.710913 0.632255
vt 0.696550 0.632255
vt 0.696550 0.689707
vt 0.321739 0.749322
vt 0.307376 0.749322
vt 0.307376 0.806774
vt 0.321739 0.806774
vt 0.710913 0.747159
vt 0.718094 0.689707
vt 0.718094 0.747159
vt 0.718094 0.632255
vt 0.710913 0.804612
vt 0.293013 0.749322
vt 0.293013 0.806774
vt 0.328920 0.749322
vt 0.328920 0.806774
vt 0.675005 0.747159
vt 0.675005 0.804612
vt 0.682187 0.632255
vt 0.682187 0.689707
vt 0.981103 0.904965
vt 0.707911 0.901298
vt 0.707911 0.969861
vt 0.675005 0.632255
vt 0.675005 0.689707
vt 0.776266 0.976777
vt 0.829184 0.964073
vt 0.718094 0.804612
vt 0.285831 0.749322
vt 0.285831 0.806774
vt 0.222872 0.749322
vt 0.215690 0.749322
vt 0.215690 0.806774
vt 0.222872 0.806774
vt 0.399061 0.749322
vt 0.391880 0.749322
vt 0.391880 0.806774
vt 0.399061 0.806774
vt 0.974186 0.973320
vt 0.981972 0.973221
vt 0.708618 0.892934
vt 0.708010 0.977646
vt 0.978304 0.691595
vt 0.967278 0.644010
vt 0.931095 0.638063
vt 0.916434 0.686840
vt 0.327235 0.965193
vt 0.333089 0.961114
vt 0.339036 0.924931
vt 0.332943 0.919485
vt 0.381866 0.975775
vt 0.386621 0.913905
vt 0.379996 0.984241
vt 0.453509 0.990624
vt 0.454216 0.982259
vt 0.927016 0.632208
vt 0.907968 0.684970
vt 0.793104 0.452866
vt 0.793104 0.395414
vt 0.778741 0.395414
vt 0.778741 0.452866
vt 0.764378 0.510318
vt 0.764378 0.567770
vt 0.778741 0.567770
vt 0.778741 0.510318
vt 0.199937 0.086453
vt 0.199937 0.100816
vt 0.257389 0.100816
vt 0.257389 0.086453
vt 0.764378 0.452866
vt 0.757196 0.510318
vt 0.757196 0.452866
vt 0.757196 0.567770
vt 0.764378 0.395414
vt 0.199937 0.115179
vt 0.257389 0.115179
vt 0.199937 0.079271
vt 0.257389 0.079271
vt 0.800286 0.452866
vt 0.800286 0.395414
vt 0.793104 0.567770
vt 0.793104 0.510318
vt 0.385861 0.906780
vt 0.909950 0.759190
vt 0.978512 0.759190
vt 0.800286 0.567770
vt 0.800286 0.510318
vt 0.985429 0.690835
vt 0.972724 0.637917
vt 0.757196 0.395414
vt 0.199937 0.122360
vt 0.257389 0.122360
vt 0.199937 0.185320
vt 0.199937 0.192501
vt 0.257389 0.192501
vt 0.257389 0.185320
vt 0.199937 0.009130
vt 0.199937 0.016312
vt 0.257389 0.016312
vt 0.257389 0.009130
vt 0.454216 0.913697
vt 0.454117 0.905911
vt 0.901585 0.758483
vt 0.986298 0.759091
vt 0.215306 0.986956
vt 0.262891 0.975930
vt 0.268838 0.939747
vt 0.220061 0.925086
vt 0.927016 0.305605
vt 0.931095 0.311460
vt 0.967279 0.317407
vt 0.972724 0.311314
vt 0.916434 0.360237
vt 0.978305 0.364992
vt 0.907968 0.358367
vt 0.901585 0.431880
vt 0.909950 0.432587
vt 0.274693 0.935668
vt 0.221931 0.916620
vt 0.790941 0.679974
vt 0.790941 0.622522
vt 0.776578 0.622522
vt 0.776578 0.679974
vt 0.762215 0.737426
vt 0.762215 0.794878
vt 0.776578 0.794878
vt 0.776578 0.737426
vt 0.774330 0.111934
vt 0.774330 0.097571
vt 0.716878 0.097571
vt 0.716878 0.111934
vt 0.762215 0.679974
vt 0.755034 0.737426
vt 0.755034 0.679974
vt 0.755034 0.794878
vt 0.762215 0.622522
vt 0.774330 0.083208
vt 0.716878 0.083208
vt 0.774330 0.119116
vt 0.716878 0.119116
vt 0.798123 0.679974
vt 0.798123 0.622522
vt 0.790941 0.794878
vt 0.790941 0.737426
vt 0.985429 0.364232
vt 0.147711 0.918602
vt 0.147711 0.987164
vt 0.798123 0.794878
vt 0.798123 0.737426
vt 0.216066 0.994081
vt 0.268984 0.981376
vt 0.755034 0.622522
vt 0.774330 0.076027
vt 0.716878 0.076027
vt 0.774330 0.013067
vt 0.774330 0.005886
vt 0.716878 0.005886
vt 0.716878 0.013067
vt 0.774330 0.189257
vt 0.774330 0.182075
vt 0.716878 0.182075
vt 0.716878 0.189257
vt 0.978512 0.432587
vt 0.986298 0.432488
vt 0.148418 0.910237
vt 0.147810 0.994950
vt 0.656545 0.827387
vt 0.661299 0.889258
vt 0.710076 0.874597
vt 0.704129 0.838413
vt 0.927016 0.573178
vt 0.972724 0.567469
vt 0.967279 0.561376
vt 0.931095 0.567323
vt 0.978305 0.513791
vt 0.916434 0.518546
vt 0.907968 0.520416
vt 0.909950 0.446196
vt 0.901585 0.446903
vt 0.715931 0.878675
vt 0.663170 0.897724
vt 0.525459 0.766541
vt 0.525459 0.780904
vt 0.582911 0.780904
vt 0.582911 0.766541
vt 0.468006 0.795267
vt 0.468006 0.780904
vt 0.410554 0.780904
vt 0.410554 0.795267
vt 0.507143 0.688760
vt 0.507143 0.746212
vt 0.521506 0.746212
vt 0.521506 0.688760
vt 0.525459 0.795267
vt 0.468006 0.802449
vt 0.525459 0.802449
vt 0.410554 0.802449
vt 0.582911 0.795267
vt 0.535869 0.746212
vt 0.535869 0.688760
vt 0.499962 0.688760
vt 0.499962 0.746212
vt 0.525459 0.759359
vt 0.582911 0.759359
vt 0.468006 0.766541
vt 0.410554 0.766541
vt 0.985429 0.514551
vt 0.588950 0.827180
vt 0.588950 0.895742
vt 0.468006 0.759359
vt 0.410554 0.759359
vt 0.710222 0.832967
vt 0.657305 0.820263
vt 0.582911 0.802449
vt 0.543051 0.746212
vt 0.543051 0.688760
vt 0.606010 0.688760
vt 0.606010 0.746212
vt 0.613192 0.746212
vt 0.613192 0.688760
vt 0.429821 0.688760
vt 0.429821 0.746212
vt 0.437002 0.746212
vt 0.437002 0.688760
vt 0.986298 0.446295
vt 0.978512 0.446196
vt 0.589657 0.904106
vt 0.589049 0.819394
vt 0.883135 0.650056
vt 0.821265 0.654811
vt 0.835926 0.703588
vt 0.872109 0.697641
vt 0.007120 0.853477
vt 0.012829 0.899185
vt 0.018922 0.893739
vt 0.012975 0.857555
vt 0.066507 0.904765
vt 0.061752 0.842894
vt 0.059882 0.834428
vt 0.134102 0.836410
vt 0.133395 0.828046
vt 0.831847 0.709442
vt 0.812799 0.656681
vt 0.472990 0.290780
vt 0.458627 0.290780
vt 0.458627 0.348232
vt 0.472990 0.348232
vt 0.444264 0.233328
vt 0.458627 0.233328
vt 0.458627 0.175876
vt 0.444264 0.175876
vt 0.686597 0.542358
vt 0.744049 0.542358
vt 0.744049 0.527995
vt 0.686597 0.527995
vt 0.444264 0.290780
vt 0.437082 0.233328
vt 0.437082 0.290780
vt 0.437082 0.175876
vt 0.444264 0.348232
vt 0.744049 0.513632
vt 0.686597 0.513632
vt 0.686597 0.549540
vt 0.744049 0.549540
vt 0.480171 0.290780
vt 0.480171 0.348232
vt 0.472990 0.233328
vt 0.472990 0.175876
vt 0.065747 0.911889
vt 0.883343 0.582461
vt 0.814781 0.582461
vt 0.480171 0.233328
vt 0.480171 0.175876
vt 0.877555 0.703734
vt 0.890260 0.650816
vt 0.437082 0.348232
vt 0.744049 0.506451
vt 0.686597 0.506451
vt 0.686597 0.443491
vt 0.744049 0.443491
vt 0.744049 0.436310
vt 0.686597 0.436310
vt 0.686597 0.619681
vt 0.744049 0.619681
vt 0.744049 0.612499
vt 0.686597 0.612499
vt 0.134003 0.912758
vt 0.134102 0.904972
vt 0.806416 0.583168
vt 0.891129 0.582560
vt 0.956675 0.074715
vt 0.894805 0.079470
vt 0.909465 0.128247
vt 0.945649 0.122300
vt 0.947889 0.147711
vt 0.902181 0.153420
vt 0.907627 0.159513
vt 0.943811 0.153566
vt 0.896601 0.207098
vt 0.958472 0.202343
vt 0.966938 0.200472
vt 0.964956 0.274693
vt 0.973320 0.273986
vt 0.905387 0.134102
vt 0.886339 0.081341
vt 0.063538 0.810408
vt 0.063538 0.796045
vt 0.006086 0.796045
vt 0.006086 0.810408
vt 0.120990 0.781681
vt 0.120990 0.796045
vt 0.178442 0.796045
vt 0.178442 0.781681
vt 0.782982 0.277872
vt 0.725530 0.277872
vt 0.725530 0.292235
vt 0.782982 0.292235
vt 0.063538 0.781682
vt 0.120990 0.774500
vt 0.063538 0.774500
vt 0.178442 0.774500
vt 0.006086 0.781682
vt 0.725530 0.306598
vt 0.782982 0.306598
vt 0.782982 0.270691
vt 0.725530 0.270691
vt 0.063538 0.817589
vt 0.006086 0.817589
vt 0.120990 0.810408
vt 0.178442 0.810408
vt 0.889477 0.206338
vt 0.956883 0.007120
vt 0.888321 0.007120
vt 0.120990 0.817589
vt 0.178442 0.817589
vt 0.951095 0.128393
vt 0.963800 0.075475
vt 0.006086 0.774500
vt 0.725530 0.313780
vt 0.782982 0.313780
vt 0.782982 0.376739
vt 0.725530 0.376739
vt 0.725530 0.383921
vt 0.782982 0.383921
vt 0.782982 0.200550
vt 0.725530 0.200550
vt 0.725530 0.207731
vt 0.782982 0.207731
vt 0.888608 0.274594
vt 0.896393 0.274693
vt 0.879956 0.007827
vt 0.964669 0.007219
vt 0.529901 0.329806
vt 0.528931 0.221652
vt 0.657149 0.221652
vt 0.616829 0.301455
vt 0.711605 0.319055
vt 0.638863 0.328697
vt 0.690225 0.419609
vt 0.605568 0.400814
vt 0.869500 0.006796
vt 0.869500 0.083851
vt 0.790438 0.083851
vt 0.790438 0.006796
vt 0.869500 0.175198
vt 0.790438 0.175198
vt 0.371983 0.734428
vt 0.263829 0.735398
vt 0.263829 0.607179
vt 0.343633 0.647499
vt 0.361233 0.552723
vt 0.370874 0.625466
vt 0.461786 0.574104
vt 0.442991 0.658760
vt 0.192809 0.820719
vt 0.269864 0.820719
vt 0.269864 0.899781
vt 0.192809 0.899781
vt 0.361210 0.820719
vt 0.361210 0.899781
vt 0.565600 0.493131
vt 0.673754 0.492161
vt 0.673754 0.620379
vt 0.593951 0.580059
vt 0.576351 0.674835
vt 0.566709 0.602093
vt 0.475797 0.653455
vt 0.494592 0.568798
vt 0.878151 0.188483
vt 0.878151 0.265538
vt 0.799090 0.265538
vt 0.799090 0.188483
vt 0.878151 0.356884
vt 0.799090 0.356884
vt 0.187205 0.113512
vt 0.100277 0.085162
vt 0.059957 0.005359
vt 0.188175 0.005359
vt 0.078243 0.112403
vt 0.005501 0.102762
vt 0.111538 0.184521
vt 0.026881 0.203316
vt 0.577503 0.816393
vt 0.577503 0.895455
vt 0.500448 0.895455
vt 0.500448 0.816393
vt 0.409102 0.816394
vt 0.409102 0.895455
vt 0.095162 0.761464
vt 0.123512 0.674536
vt 0.203316 0.634216
vt 0.203316 0.762434
vt 0.096271 0.652502
vt 0.105912 0.579760
vt 0.024154 0.685797
vt 0.005359 0.601140
vt 0.888966 0.891129
vt 0.809905 0.891129
vt 0.809905 0.814074
vt 0.888966 0.814074
vt 0.888966 0.722727
vt 0.809905 0.722727
vt 0.703065 0.118920
vt 0.616137 0.090569
vt 0.575817 0.010766
vt 0.704035 0.010766
vt 0.594103 0.117811
vt 0.521361 0.108169
vt 0.627398 0.189928
vt 0.542741 0.208723
vt 0.891129 0.540734
vt 0.812068 0.540734
vt 0.812068 0.463679
vt 0.891129 0.463679
vt 0.891129 0.372332
vt 0.812068 0.372332
s 0
usemtl Материал
f 1/1/1 2/2/1 5/3/1 6/4/1
f 20/5/2 13/6/2 9/7/2 12/8/2
f 7/9/3 8/10/3 4/11/3 3/12/3
f 3/13/4 4/14/4 2/15/4 1/16/4
f 8/10/5 5/3/5 2/2/5 4/11/5
f 16/17/6 17/18/6 11/19/6 10/20/6
f 14/21/7 19/22/7 6/4/7 5/3/7
f 18/23/7 15/24/7 8/10/7 7/9/7
f 12/25/7 9/26/7 10/27/7 11/28/7
f 6/29/8 19/30/8 20/31/8 12/25/8 11/28/8 17/32/8 18/33/8 7/34/8 3/13/8 1/16/8
f 15/24/7 14/21/7 5/3/7 8/10/7
f 14/35/9 15/36/9 16/37/9 13/38/9
f 15/39/10 18/40/10 17/18/10 16/17/10
f 13/6/11 20/5/11 19/41/11 14/42/11
f 13/38/8 16/37/8 10/43/8 9/44/8
f 21/45/1 23/46/1 24/47/1 22/48/1
f 43/49/7 27/50/7 28/51/7 41/52/7
f 27/50/3 25/53/3 26/54/3 28/51/3
f 42/55/5 53/56/5 52/57/5 25/53/5
f 43/49/5 42/55/5 25/53/5 27/50/5
f 47/58/8 46/59/8 22/48/8 24/47/8
f 37/60/8 40/61/8 32/62/8 30/63/8
f 33/64/5 36/65/5 31/66/5 29/67/5
f 38/68/4 31/69/4 32/70/4 40/71/4
f 33/64/7 29/67/7 30/63/7 35/72/7
f 45/73/7 33/64/7 35/72/7 47/74/7
f 45/73/5 48/75/5 36/65/5 33/64/5
f 30/63/8 32/62/8 34/76/8 35/72/8
f 31/69/4 36/77/4 34/78/4 32/70/4
f 42/79/4 38/68/4 40/71/4 44/80/4
f 41/81/8 44/82/8 40/61/8 37/60/8
f 29/67/5 31/66/5 38/83/5 39/84/5
f 29/67/7 39/84/7 37/60/7 30/63/7
f 28/51/8 26/54/8 44/85/8 41/52/8
f 22/48/1 50/86/1 49/87/1 21/45/1
f 39/84/5 38/83/5 42/88/5 43/89/5
f 39/84/7 43/89/7 41/81/7 37/60/7
f 23/46/5 21/45/5 48/90/5 45/91/5
f 23/46/7 45/91/7 47/58/7 24/47/7
f 35/72/8 34/76/8 46/92/8 47/74/8
f 36/77/4 48/93/4 46/94/4 34/78/4
f 56/95/4 49/96/4 50/97/4 54/98/4
f 52/99/4 53/100/4 55/101/4 51/102/4
f 44/80/1 55/101/1 53/100/1 42/79/1
f 26/54/8 51/103/8 55/104/8 44/85/8
f 46/59/8 54/105/8 50/86/8 22/48/8
f 25/53/3 52/57/3 51/103/3 26/54/3
f 48/93/3 56/95/3 54/98/3 46/94/3
f 21/45/5 49/87/5 56/106/5 48/90/5
f 57/107/1 59/108/1 60/109/1 58/110/1
f 79/111/7 63/112/7 64/113/7 77/114/7
f 63/112/3 61/115/3 62/116/3 64/113/3
f 78/117/5 89/118/5 88/119/5 61/115/5
f 79/111/5 78/117/5 61/115/5 63/112/5
f 83/120/8 82/121/8 58/110/8 60/109/8
f 73/122/8 76/123/8 68/124/8 66/125/8
f 69/126/5 72/127/5 67/128/5 65/129/5
f 74/130/4 67/131/4 68/132/4 76/133/4
f 69/126/7 65/129/7 66/125/7 71/134/7
f 81/135/7 69/126/7 71/134/7 83/136/7
f 81/135/5 84/137/5 72/127/5 69/126/5
f 66/125/8 68/124/8 70/138/8 71/134/8
f 67/131/4 72/139/4 70/140/4 68/132/4
f 78/141/4 74/130/4 76/133/4 80/142/4
f 77/143/8 80/144/8 76/123/8 73/122/8
f 65/129/5 67/128/5 74/145/5 75/146/5
f 65/129/7 75/146/7 73/122/7 66/125/7
f 64/113/8 62/116/8 80/147/8 77/114/8
f 58/110/1 86/148/1 85/149/1 57/107/1
f 75/146/5 74/145/5 78/150/5 79/151/5
f 75/146/7 79/151/7 77/143/7 73/122/7
f 59/108/5 57/107/5 84/152/5 81/153/5
f 59/108/7 81/153/7 83/120/7 60/109/7
f 71/134/8 70/138/8 82/154/8 83/136/8
f 72/139/4 84/155/4 82/156/4 70/140/4
f 92/157/4 85/158/4 86/159/4 90/160/4
f 88/161/4 89/162/4 91/163/4 87/164/4
f 80/142/1 91/163/1 89/162/1 78/141/1
f 62/116/8 87/165/8 91/166/8 80/147/8
f 82/121/8 90/167/8 86/148/8 58/110/8
f 61/115/3 88/119/3 87/165/3 62/116/3
f 84/155/3 92/157/3 90/160/3 82/156/3
f 57/107/5 85/149/5 92/168/5 84/152/5
f 93/169/1 95/170/1 96/171/1 94/172/1
f 115/173/7 99/174/7 100/175/7 113/176/7
f 99/174/3 97/177/3 98/178/3 100/175/3
f 114/179/5 125/180/5 124/181/5 97/177/5
f 115/173/5 114/179/5 97/177/5 99/174/5
f 119/182/8 118/183/8 94/172/8 96/171/8
f 109/184/8 112/185/8 104/186/8 102/187/8
f 105/188/5 108/189/5 103/190/5 101/191/5
f 110/192/4 103/193/4 104/194/4 112/195/4
f 105/188/7 101/191/7 102/187/7 107/196/7
f 117/197/7 105/188/7 107/196/7 119/198/7
f 117/197/5 120/199/5 108/189/5 105/188/5
f 102/187/8 104/186/8 106/200/8 107/196/8
f 103/193/4 108/201/4 106/202/4 104/194/4
f 114/203/4 110/192/4 112/195/4 116/204/4
f 113/205/8 116/206/8 112/185/8 109/184/8
f 101/191/5 103/190/5 110/207/5 111/208/5
f 101/191/7 111/208/7 109/184/7 102/187/7
f 100/175/8 98/178/8 116/209/8 113/176/8
f 94/172/1 122/210/1 121/211/1 93/169/1
f 111/208/5 110/207/5 114/212/5 115/213/5
f 111/208/7 115/213/7 113/205/7 109/184/7
f 95/170/5 93/169/5 120/214/5 117/215/5
f 95/170/7 117/215/7 119/182/7 96/171/7
f 107/196/8 106/200/8 118/216/8 119/198/8
f 108/201/4 120/217/4 118/218/4 106/202/4
f 128/219/4 121/220/4 122/221/4 126/222/4
f 124/223/4 125/224/4 127/225/4 123/226/4
f 116/204/1 127/225/1 125/224/1 114/203/1
f 98/178/8 123/227/8 127/228/8 116/209/8
f 118/183/8 126/229/8 122/210/8 94/172/8
f 97/177/3 124/181/3 123/227/3 98/178/3
f 120/217/3 128/219/3 126/222/3 118/218/3
f 93/169/5 121/211/5 128/230/5 120/214/5
f 129/231/3 130/232/3 132/233/3 131/234/3
f 151/235/7 149/236/7 136/237/7 135/238/7
f 135/238/1 136/237/1 134/239/1 133/240/1
f 150/241/5 133/240/5 160/242/5 161/243/5
f 151/235/5 135/238/5 133/240/5 150/241/5
f 155/244/8 132/233/8 130/232/8 154/245/8
f 145/246/8 138/247/8 140/248/8 148/249/8
f 141/250/5 137/251/5 139/252/5 144/253/5
f 146/254/4 148/255/4 140/256/4 139/257/4
f 141/250/7 143/258/7 138/247/7 137/251/7
f 153/259/7 155/260/7 143/258/7 141/250/7
f 153/259/5 141/250/5 144/253/5 156/261/5
f 138/247/8 143/258/8 142/262/8 140/248/8
f 139/257/4 140/256/4 142/263/4 144/264/4
f 150/265/4 152/266/4 148/255/4 146/254/4
f 149/267/8 145/246/8 148/249/8 152/268/8
f 137/251/5 147/269/5 146/270/5 139/252/5
f 137/251/7 138/247/7 145/246/7 147/269/7
f 136/237/8 149/236/8 152/271/8 134/239/8
f 130/232/3 129/231/3 157/272/3 158/273/3
f 147/269/5 151/274/5 150/275/5 146/270/5
f 147/269/7 145/246/7 149/267/7 151/274/7
f 131/234/5 153/276/5 156/277/5 129/231/5
f 131/234/7 132/233/7 155/244/7 153/276/7
f 143/258/8 155/260/8 154/278/8 142/262/8
f 144/264/4 142/263/4 154/279/4 156/280/4
f 164/281/4 162/282/4 158/283/4 157/284/4
f 160/285/4 159/286/4 163/287/4 161/288/4
f 152/266/3 150/265/3 161/288/3 163/287/3
f 134/239/8 152/271/8 163/289/8 159/290/8
f 154/245/8 130/232/8 158/273/8 162/291/8
f 133/240/1 134/239/1 159/290/1 160/242/1
f 156/280/1 154/279/1 162/282/1 164/281/1
f 129/231/5 156/277/5 164/292/5 157/272/5
f 165/293/3 166/294/3 168/295/3 167/296/3
f 187/297/7 185/298/7 172/299/7 171/300/7
f 171/300/1 172/299/1 170/301/1 169/302/1
f 186/303/5 169/302/5 196/304/5 197/305/5
f 187/297/5 171/300/5 169/302/5 186/303/5
f 191/306/8 168/295/8 166/294/8 190/307/8
f 181/308/8 174/309/8 176/310/8 184/311/8
f 177/312/5 173/313/5 175/314/5 180/315/5
f 182/316/4 184/317/4 176/318/4 175/319/4
f 177/312/7 179/320/7 174/309/7 173/313/7
f 189/321/7 191/322/7 179/320/7 177/312/7
f 189/321/5 177/312/5 180/315/5 192/323/5
f 174/309/8 179/320/8 178/324/8 176/310/8
f 175/319/4 176/318/4 178/325/4 180/326/4
f 186/327/4 188/328/4 184/317/4 182/316/4
f 185/329/8 181/308/8 184/311/8 188/330/8
f 173/313/5 183/331/5 182/332/5 175/314/5
f 173/313/7 174/309/7 181/308/7 183/331/7
f 172/299/8 185/298/8 188/333/8 170/301/8
f 166/294/3 165/293/3 193/334/3 194/335/3
f 183/331/5 187/336/5 186/337/5 182/332/5
f 183/331/7 181/308/7 185/329/7 187/336/7
f 167/296/5 189/338/5 192/339/5 165/293/5
f 167/296/7 168/295/7 191/306/7 189/338/7
f 179/320/8 191/322/8 190/340/8 178/324/8
f 180/326/4 178/325/4 190/341/4 192/342/4
f 200/343/4 198/344/4 194/345/4 193/346/4
f 196/347/4 195/348/4 199/349/4 197/350/4
f 188/328/3 186/327/3 197/350/3 199/349/3
f 170/301/8 188/333/8 199/351/8 195/352/8
f 190/307/8 166/294/8 194/335/8 198/353/8
f 169/302/1 170/301/1 195/352/1 196/304/1
f 192/342/1 190/341/1 198/344/1 200/343/1
f 165/293/5 192/339/5 200/354/5 193/334/5
f 201/355/3 202/356/3 204/357/3 203/358/3
f 223/359/7 221/360/7 208/361/7 207/362/7
f 207/362/1 208/361/1 206/363/1 205/364/1
f 222/365/5 205/364/5 232/366/5 233/367/5
f 223/359/5 207/362/5 205/364/5 222/365/5
f 227/368/8 204/357/8 202/356/8 226/369/8
f 217/370/8 210/371/8 212/372/8 220/373/8
f 213/374/5 209/375/5 211/376/5 216/377/5
f 218/378/4 220/379/4 212/380/4 211/381/4
f 213/374/7 215/382/7 210/371/7 209/375/7
f 225/383/7 227/384/7 215/382/7 213/374/7
f 225/383/5 213/374/5 216/377/5 228/385/5
f 210/371/8 215/382/8 214/386/8 212/372/8
f 211/381/4 212/380/4 214/387/4 216/388/4
f 222/389/4 224/390/4 220/379/4 218/378/4
f 221/391/8 217/370/8 220/373/8 224/392/8
f 209/375/5 219/393/5 218/394/5 211/376/5
f 209/375/7 210/371/7 217/370/7 219/393/7
f 208/361/8 221/360/8 224/395/8 206/363/8
f 202/356/3 201/355/3 229/396/3 230/397/3
f 219/393/5 223/398/5 222/399/5 218/394/5
f 219/393/7 217/370/7 221/391/7 223/398/7
f 203/358/5 225/400/5 228/401/5 201/355/5
f 203/358/7 204/357/7 227/368/7 225/400/7
f 215/382/8 227/384/8 226/402/8 214/386/8
f 216/388/4 214/387/4 226/403/4 228/404/4
f 236/405/4 234/406/4 230/407/4 229/408/4
f 232/409/4 231/410/4 235/411/4 233/412/4
f 224/390/3 222/389/3 233/412/3 235/411/3
f 206/363/8 224/395/8 235/413/8 231/414/8
f 226/369/8 202/356/8 230/397/8 234/415/8
f 205/364/1 206/363/1 231/414/1 232/366/1
f 228/404/1 226/403/1 234/406/1 236/405/1
f 201/355/5 228/401/5 236/416/5 229/396/5
f 237/417/1 238/418/1 240/419/1 239/420/1
f 239/420/7 240/419/7 244/421/7 243/422/7
f 243/422/3 244/421/3 242/423/3 241/424/3
f 241/425/4 242/426/4 238/427/4 237/428/4
f 239/420/12 243/422/12 241/424/12 237/417/12
f 244/429/13 240/430/13 238/427/13 242/426/13
f 245/431/1 246/432/1 248/433/1 247/434/1
f 247/434/7 248/433/7 252/435/7 251/436/7
f 251/436/3 252/435/3 250/437/3 249/438/3
f 249/439/4 250/440/4 246/441/4 245/442/4
f 247/434/12 251/436/12 249/438/12 245/431/12
f 252/443/13 248/444/13 246/441/13 250/440/13
f 253/445/1 254/446/1 256/447/1 255/448/1
f 255/448/7 256/447/7 260/449/7 259/450/7
f 259/450/3 260/449/3 258/451/3 257/452/3
f 257/453/4 258/454/4 254/455/4 253/456/4
f 255/448/12 259/450/12 257/452/12 253/445/12
f 260/457/13 256/458/13 254/455/13 258/454/13
f 261/459/3 263/460/3 264/461/3 262/462/3
f 263/460/7 267/463/7 268/464/7 264/461/7
f 267/463/1 265/465/1 266/466/1 268/464/1
f 265/467/4 261/468/4 262/469/4 266/470/4
f 263/460/12 261/459/12 265/465/12 267/463/12
f 268/471/13 266/470/13 262/469/13 264/472/13
f 269/473/3 271/474/3 272/475/3 270/476/3
f 271/474/7 275/477/7 276/478/7 272/475/7
f 275/477/1 273/479/1 274/480/1 276/478/1
f 273/481/4 269/482/4 270/483/4 274/484/4
f 271/474/12 269/473/12 273/479/12 275/477/12
f 276/485/13 274/484/13 270/483/13 272/486/13
f 277/487/3 279/488/3 280/489/3 278/490/3
f 279/488/7 283/491/7 284/492/7 280/489/7
f 283/491/1 281/493/1 282/494/1 284/492/1
f 281/495/4 277/496/4 278/497/4 282/498/4
f 279/488/12 277/487/12 281/493/12 283/491/12
f 284/499/13 282/498/13 278/497/13 280/500/13
