# Blender 4.2.2 LTS
# www.blender.org
mtllib dumpster.mtl
o dumpster
v -2.901436 0.049711 5.160742
v -2.901436 0.049711 -5.201811
v 3.415499 0.049711 5.160742
v 3.415499 0.049711 -5.201811
v -2.715141 6.977417 4.844411
v -2.715141 6.977417 -4.885480
v 3.229204 5.221373 -4.885480
v 3.229204 5.221373 4.844411
v -2.901436 7.032452 5.160742
v -2.901436 7.032452 -5.201811
v 3.415499 5.166338 -5.201811
v 3.415499 5.166338 5.160742
v -3.117594 7.071116 5.515336
v -3.117594 7.071116 -5.556405
v 3.631656 5.205003 -5.556405
v 3.631656 5.205003 5.515336
v -2.715141 7.016082 4.844411
v -2.715141 7.016082 -4.885480
v 3.229204 5.260037 -4.885480
v 3.229204 5.260037 4.844411
v -3.117594 7.468035 5.515336
v -3.117594 7.468035 -5.556405
v 3.631656 5.601922 -5.556405
v 3.631656 5.601922 5.515336
v -2.715141 7.413001 4.844411
v -2.715141 7.413001 -4.885480
v 3.229204 5.656956 -4.885480
v 3.229204 5.656956 4.844411
v -2.672079 0.303613 4.927279
v -2.672079 0.303613 -4.968348
v 3.152391 0.309188 -4.968348
v 3.152391 0.309188 4.927279
v -2.871875 3.121822 -5.149467
v -2.871875 4.135019 -5.149467
v -2.871875 3.121822 -5.624521
v -2.871875 4.135019 -5.624521
v 3.385938 3.121822 -5.149467
v 3.385938 4.135019 -5.149467
v 3.385938 3.121822 -5.624521
v 3.385938 4.135019 -5.624521
v 3.385938 4.191308 -5.650913
v 3.385938 3.065533 -5.650913
v 3.385938 3.065533 -5.123075
v 3.385938 4.191308 -5.123075
v -2.871875 3.065533 -5.650913
v -2.871875 3.065533 -5.123075
v -2.871875 4.191308 -5.123075
v -2.871875 4.191308 -5.650913
v -2.871875 3.121822 5.108398
v -2.871875 4.135019 5.108398
v -2.871875 3.121822 5.583452
v -2.871875 4.135019 5.583452
v 3.385938 3.121822 5.108398
v 3.385938 4.135019 5.108398
v 3.385938 3.121822 5.583452
v 3.385938 4.135019 5.583452
v 3.385938 4.191308 5.609843
v 3.385938 3.065533 5.609843
v 3.385938 3.065533 5.082006
v 3.385938 4.191308 5.082006
v -2.871875 3.065533 5.609843
v -2.871875 3.065533 5.082006
v -2.871875 4.191308 5.082006
v -2.871875 4.191308 5.609843
v -2.936741 7.506667 5.534583
v -2.872020 7.679460 5.534583
v -2.936741 7.506667 -5.575652
v -2.872020 7.679460 -5.575652
v -2.763947 7.441946 5.534583
v -2.699227 7.614739 5.534583
v -2.763947 7.441946 -5.575652
v -2.699227 7.614739 -5.575652
v -3.017770 7.427669 -0.020535
v -2.618528 7.644619 -0.267906
v -3.017770 7.427669 -5.327697
v -2.618528 7.644619 -5.075020
v 3.602989 5.592355 -0.020535
v 3.372424 5.983891 -0.267906
v 3.602989 5.592355 -5.327697
v 3.372424 5.983891 -5.075020
v -2.933432 7.731912 -0.020535
v -2.933432 7.731912 -5.327697
v 3.687327 5.896598 -5.327697
v 3.687327 5.896598 -0.020535
v 0.292610 6.510012 -5.327697
v 0.376948 6.814255 -5.327697
v 0.292610 6.510012 -0.020535
v 0.376948 6.814255 -0.020535
v 0.376948 6.814255 -5.075020
v 0.376948 6.814255 -0.267906
v -2.051788 7.740095 -0.267906
v -2.051788 7.740095 -5.075020
v 0.509254 7.291540 -5.075020
v 2.935724 6.357527 -5.075020
v 2.935724 6.357527 -0.267906
v 0.509254 7.291540 -0.267906
v -2.618528 7.644619 0.226834
v -3.017770 7.427668 5.286625
v -2.618528 7.644619 5.033949
v 3.372424 5.983891 0.226834
v 3.602989 5.592354 5.286625
v 3.372424 5.983891 5.033949
v -2.933432 7.731912 5.286625
v 3.687327 5.896597 5.286625
v 0.292610 6.510011 5.286625
v 0.376948 6.814255 5.286625
v 0.376948 6.814255 5.033949
v 0.376948 6.814255 0.226834
v -2.051788 7.740095 0.226834
v -2.051788 7.740095 5.033949
v 0.509254 7.291540 5.033949
v 2.935724 6.357527 5.033949
v 2.935724 6.357527 0.226834
v 0.509254 7.291540 0.226834
vn -1.0000 -0.0000 -0.0000
vn -0.0000 -0.0000 -1.0000
vn 1.0000 -0.0000 -0.0000
vn -0.0000 -0.0000 1.0000
vn -0.0000 -1.0000 -0.0000
vn 1.0000 0.0065 -0.0000
vn 0.1761 -0.9844 -0.0000
vn -0.1761 -0.9844 -0.0000
vn -0.2732 -0.9563 0.1043
vn -0.2732 -0.9563 -0.1043
vn 0.1355 0.9908 -0.0000
vn 0.2744 0.9616 -0.0000
vn -0.0010 1.0000 -0.0000
vn -0.0021 -0.0143 -0.9999
vn -0.0021 -0.0143 0.9999
vn -0.9999 0.0156 -0.0000
vn -0.0000 1.0000 -0.0000
vn -0.9365 0.3508 -0.0000
vn 0.9365 -0.3508 -0.0000
vn -0.3508 -0.9365 -0.0000
vn 0.3508 0.9365 -0.0000
vn -0.9637 0.2671 -0.0000
vn 0.9637 -0.2671 -0.0000
vn -0.2671 -0.9637 -0.0000
vn 0.6501 0.7598 -0.0000
vn 0.2671 0.9637 -0.0000
vn 0.1725 0.9850 -0.0000
vn 0.3592 0.9332 -0.0000
vn -0.1661 0.9861 -0.0000
vt 0.838328 0.340214
vt 0.838328 0.468928
vt 0.709614 0.468928
vt 0.709614 0.340214
vt 0.306655 0.390866
vt 0.177941 0.390866
vt 0.212339 0.262152
vt 0.306655 0.262152
vt 0.212339 0.133438
vt 0.306655 0.133438
vt 0.177941 0.004724
vt 0.306655 0.004724
vt 0.705786 0.196665
vt 0.834500 0.196665
vt 0.834500 0.325379
vt 0.705786 0.325379
vt 0.474143 0.818159
vt 0.474143 0.697304
vt 0.597165 0.696274
vt 0.597166 0.819189
vt 0.127893 0.390701
vt 0.095781 0.269564
vt 0.096494 0.269565
vt 0.128606 0.390703
vt 0.095796 0.148846
vt 0.127893 0.027709
vt 0.128606 0.027708
vt 0.096508 0.148846
vt 0.129641 0.249316
vt 0.129134 0.143339
vt 0.133972 0.143384
vt 0.133602 0.249382
vt 0.473430 0.818159
vt 0.473430 0.697304
vt 0.466114 0.818159
vt 0.466114 0.697304
vt 0.103818 0.148838
vt 0.103804 0.269573
vt 0.154867 0.008267
vt 0.164139 0.007595
vt 0.140860 0.143199
vt 0.152213 0.389673
vt 0.140957 0.249499
vt 0.161835 0.390715
vt 0.169444 0.213791
vt 0.169444 0.085077
vt 0.173906 0.080672
vt 0.173906 0.218195
vt 0.145275 0.384242
vt 0.148096 0.013236
vt 0.189485 0.089006
vt 0.189485 0.209861
vt 0.181222 0.218195
vt 0.181222 0.080672
vt 0.171154 0.017411
vt 0.148264 0.144253
vt 0.149637 0.248980
vt 0.171154 0.378511
vt 0.135920 0.027692
vt 0.135920 0.390717
vt 0.608231 0.777069
vt 0.731145 0.777069
vt 0.731145 0.895748
vt 0.608231 0.895748
vt 0.005250 0.147730
vt 0.004724 0.028936
vt 0.004766 0.389473
vt 0.005277 0.270717
vt 0.960824 0.277529
vt 0.847815 0.277529
vt 0.847815 0.164520
vt 0.960824 0.164520
vt 0.851643 0.290843
vt 0.964652 0.290843
vt 0.964652 0.403852
vt 0.851643 0.403852
vt 0.692865 0.166525
vt 0.692865 0.279534
vt 0.579856 0.279534
vt 0.579856 0.166525
vt 0.010451 0.504253
vt 0.123460 0.504253
vt 0.123460 0.617262
vt 0.010451 0.617262
vt 0.158953 0.905410
vt 0.158953 0.803701
vt 0.164603 0.798051
vt 0.164603 0.911060
vt 0.687215 0.285185
vt 0.585506 0.285185
vt 0.004801 0.611612
vt 0.004801 0.509904
vt 0.196966 0.897754
vt 0.298674 0.897754
vt 0.304325 0.903404
vt 0.191316 0.903404
vt 0.585506 0.160875
vt 0.687215 0.160875
vt 0.113017 0.011484
vt 0.011309 0.011484
vt 0.005658 0.005833
vt 0.118667 0.005833
vt 0.129111 0.509904
vt 0.129111 0.611612
vt 0.181829 0.237160
vt 0.181829 0.338868
vt 0.176179 0.344519
vt 0.176179 0.231509
vt 0.196966 0.784744
vt 0.298674 0.784745
vt 0.585506 0.047866
vt 0.687215 0.047866
vt 0.045944 0.905410
vt 0.045944 0.803701
vt 0.242120 0.509904
vt 0.242120 0.611612
vt 0.597165 0.941684
vt 0.484156 0.941684
vt 0.484156 0.828675
vt 0.597165 0.828675
vt 0.317639 0.953168
vt 0.317639 0.840159
vt 0.430648 0.840159
vt 0.430648 0.953168
vt 0.436482 0.713835
vt 0.436481 0.826844
vt 0.323472 0.826844
vt 0.323472 0.713835
vt 0.767427 0.484248
vt 0.880436 0.484248
vt 0.880436 0.597257
vt 0.767427 0.597257
vt 0.784562 0.622055
vt 0.778911 0.616405
vt 0.891920 0.616405
vt 0.886270 0.622055
vt 0.317822 0.719486
vt 0.317822 0.821194
vt 0.874786 0.478597
vt 0.773078 0.478597
vt 0.780734 0.767519
vt 0.775083 0.761868
vt 0.888092 0.761868
vt 0.882442 0.767519
vt 0.442132 0.821194
vt 0.442132 0.719486
vt 0.882442 0.880528
vt 0.888092 0.886178
vt 0.775083 0.886178
vt 0.780734 0.880528
vt 0.773078 0.602907
vt 0.874786 0.602907
vt 0.886270 0.735064
vt 0.891920 0.740715
vt 0.778911 0.740715
vt 0.784562 0.735065
vt 0.995276 0.417167
vt 0.995276 0.530176
vt 0.893567 0.530176
vt 0.893567 0.417167
vt 0.964652 0.005658
vt 0.964652 0.118667
vt 0.862943 0.118668
vt 0.862943 0.005658
vt 0.696693 0.529013
vt 0.576999 0.677240
vt 0.506253 0.540336
vt 0.569798 0.495589
vt 0.378271 0.486872
vt 0.515461 0.347781
vt 0.569413 0.305282
vt 0.419265 0.305282
vt 0.419265 0.155135
vt 0.569413 0.155135
vt 0.419265 0.004988
vt 0.569413 0.004988
vt 0.696693 0.347781
vt 0.360901 0.697650
vt 0.408637 0.276841
vt 0.408637 0.367486
vt 0.318083 0.367486
vt 0.318083 0.276841
vt 0.346433 0.551843
vt 0.255787 0.551843
vt 0.255787 0.506520
vt 0.346433 0.506520
vt 0.318083 0.186196
vt 0.318083 0.095551
vt 0.408637 0.095551
vt 0.408637 0.186196
vt 0.789178 0.896975
vt 0.789178 0.987620
vt 0.743855 0.987620
vt 0.743855 0.896975
vt 0.318083 0.231519
vt 0.408637 0.231519
vt 0.197697 0.624759
vt 0.286668 0.618924
vt 0.281629 0.690393
vt 0.208230 0.692804
vt 0.404416 0.009217
vt 0.322394 0.009217
vt 0.318083 0.004906
vt 0.408637 0.004906
vt 0.322394 0.050228
vt 0.322394 0.091240
vt 0.318083 0.050228
vt 0.404416 0.091240
vt 0.404416 0.050228
vt 0.408637 0.050228
vt 0.154991 0.637514
vt 0.202083 0.771339
vt 0.834500 0.896975
vt 0.834500 0.987620
vt 0.346433 0.597165
vt 0.255787 0.597165
vt 0.618924 0.642301
vt 0.697458 0.648448
vt 0.699869 0.721847
vt 0.618924 0.732082
vt 0.291864 0.771339
vt 0.765503 0.637915
vt 0.771339 0.726886
vt 0.761083 0.773253
vt 0.752748 0.595209
vt 0.333035 0.629179
vt 0.276841 0.492853
vt 0.276841 0.402298
vt 0.367486 0.402298
vt 0.367486 0.492853
vt 0.938469 0.778307
vt 0.983792 0.778307
vt 0.983792 0.868952
vt 0.938469 0.868952
vt 0.186196 0.402298
vt 0.186196 0.492853
vt 0.095551 0.492853
vt 0.095551 0.402298
vt 0.231519 0.402298
vt 0.231519 0.492853
vt 0.843977 0.141037
vt 0.775932 0.130504
vt 0.778343 0.057105
vt 0.849812 0.052066
vt 0.009217 0.488632
vt 0.004906 0.492853
vt 0.004906 0.402298
vt 0.009217 0.406610
vt 0.050228 0.406610
vt 0.050228 0.402298
vt 0.091240 0.406610
vt 0.091240 0.488632
vt 0.050228 0.488632
vt 0.050228 0.492853
vt 0.831222 0.183743
vt 0.697397 0.136651
vt 0.893147 0.778307
vt 0.893147 0.868952
vt 0.052792 0.639978
vt 0.142572 0.639978
vt 0.132338 0.720923
vt 0.058939 0.718512
vt 0.697397 0.046871
vt 0.048406 0.786557
vt 0.137377 0.792393
vt 0.183743 0.782137
vt 0.005700 0.773802
vt 0.839557 0.005700
s 0
usemtl Материал
f 1/1/1 9/2/1 10/3/1 2/4/1
f 2/5/2 10/6/2 11/7/2 4/8/2
f 4/8/3 11/7/3 12/9/3 3/10/3
f 3/10/4 12/9/4 9/11/4 1/12/4
f 2/13/5 4/14/5 3/15/5 1/16/5
f 6/17/6 5/18/6 29/19/6 30/20/6
f 6/21/4 7/22/4 19/23/4 18/24/4
f 8/25/2 5/26/2 17/27/2 20/28/2
f 12/29/7 11/30/7 15/31/7 16/32/7
f 5/18/3 6/17/3 18/33/3 17/34/3
f 17/34/3 18/33/3 26/35/3 25/36/3
f 19/23/1 20/28/1 28/37/1 27/38/1
f 15/31/2 14/39/2 22/40/2 23/41/2
f 13/42/4 16/32/4 24/43/4 21/44/4
f 10/45/8 9/46/8 13/47/8 14/48/8
f 9/49/9 12/29/9 16/32/9 13/42/9
f 11/30/10 10/50/10 14/39/10 15/31/10
f 7/22/1 8/25/1 20/28/1 19/23/1
f 25/51/11 26/52/11 22/53/11 21/54/11
f 26/55/12 27/56/12 23/41/12 22/40/12
f 27/56/11 28/57/11 24/43/11 23/41/11
f 28/57/12 25/58/12 21/44/12 24/43/12
f 16/32/3 15/31/3 23/41/3 24/43/3
f 14/48/1 13/47/1 21/54/1 22/53/1
f 20/28/2 17/27/2 25/59/2 28/37/2
f 18/24/4 19/23/4 27/38/4 26/60/4
f 30/61/13 29/62/13 32/63/13 31/64/13
f 5/26/14 8/25/14 32/65/14 29/66/14
f 7/22/15 6/21/15 30/67/15 31/68/15
f 8/25/16 7/22/16 31/68/16 32/65/16
f 45/69/2 48/70/2 41/71/2 42/72/2
f 43/73/4 44/74/4 47/75/4 46/76/4
f 45/77/5 42/78/5 43/79/5 46/80/5
f 41/81/17 48/82/17 47/83/17 44/84/17
f 40/85/3 39/86/3 42/87/3 41/88/3
f 39/89/3 37/90/3 43/79/3 42/78/3
f 38/91/3 40/92/3 41/81/3 44/84/3
f 37/93/3 38/94/3 44/95/3 43/96/3
f 33/97/1 35/98/1 45/77/1 46/80/1
f 34/99/1 33/100/1 46/101/1 47/102/1
f 36/103/1 34/104/1 47/83/1 48/82/1
f 35/105/1 36/106/1 48/107/1 45/108/1
f 38/94/2 37/93/2 33/109/2 34/110/2
f 37/111/17 39/112/17 35/98/17 33/97/17
f 39/86/4 40/85/4 36/113/4 35/114/4
f 40/115/5 38/116/5 34/104/5 36/103/5
f 61/117/4 58/118/4 57/119/4 64/120/4
f 59/121/2 62/122/2 63/123/2 60/124/2
f 61/125/5 62/126/5 59/127/5 58/128/5
f 57/129/17 60/130/17 63/131/17 64/132/17
f 56/133/3 57/134/3 58/135/3 55/136/3
f 55/137/3 58/128/3 59/127/3 53/138/3
f 54/139/3 60/130/3 57/129/3 56/140/3
f 53/141/3 59/142/3 60/143/3 54/144/3
f 49/145/1 62/126/1 61/125/1 51/146/1
f 50/147/1 63/148/1 62/149/1 49/150/1
f 52/151/1 64/132/1 63/131/1 50/152/1
f 51/153/1 61/154/1 64/155/1 52/156/1
f 54/144/4 50/147/4 49/150/4 53/141/4
f 53/157/17 49/158/17 51/159/17 55/160/17
f 55/136/2 51/153/2 52/156/2 56/133/2
f 56/161/5 52/162/5 50/163/5 54/164/5
f 65/165/18 66/166/18 68/167/18 67/168/18
f 67/168/2 68/167/2 72/169/2 71/170/2
f 71/171/19 72/172/19 70/173/19 69/174/19
f 69/174/4 70/173/4 66/175/4 65/176/4
f 67/168/20 71/170/20 69/177/20 65/165/20
f 72/169/21 68/167/21 66/166/21 70/178/21
f 73/179/22 81/180/22 82/181/22 75/182/22
f 85/183/2 86/184/2 83/185/2 79/186/2
f 79/187/23 83/188/23 84/189/23 77/190/23
f 87/191/4 88/192/4 81/193/4 73/194/4
f 85/195/24 79/187/24 77/190/24 87/196/24
f 78/197/25 80/198/25 94/199/25 95/200/25
f 74/201/26 76/202/26 82/203/26 81/204/26
f 89/205/26 80/206/26 83/188/26 86/207/26
f 80/206/26 78/208/26 84/189/26 83/188/26
f 90/209/26 74/201/26 81/204/26 88/210/26
f 78/208/26 90/209/26 88/210/26 84/189/26
f 76/202/26 89/205/26 86/207/26 82/203/26
f 90/211/4 78/197/4 95/200/4 96/212/4
f 75/182/24 85/195/24 87/196/24 73/179/24
f 77/213/4 84/214/4 88/192/4 87/191/4
f 75/215/2 82/216/2 86/184/2 85/183/2
f 93/217/27 92/218/27 91/219/27 96/220/27
f 94/199/28 93/221/28 96/212/28 95/200/28
f 76/222/29 74/223/29 91/219/29 92/218/29
f 74/223/4 90/224/4 96/220/4 91/219/4
f 89/225/2 76/222/2 92/218/2 93/217/2
f 80/198/2 89/226/2 93/221/2 94/199/2
f 73/227/22 98/228/22 103/229/22 81/230/22
f 105/231/4 101/232/4 104/233/4 106/234/4
f 101/235/23 77/236/23 84/237/23 104/238/23
f 105/239/24 87/240/24 77/236/24 101/235/24
f 100/241/25 113/242/25 112/243/25 102/244/25
f 97/245/26 81/246/26 103/247/26 99/248/26
f 107/249/26 106/250/26 104/238/26 102/251/26
f 102/251/26 104/238/26 84/237/26 100/252/26
f 108/253/26 88/254/26 81/246/26 97/245/26
f 100/252/26 84/237/26 88/254/26 108/253/26
f 99/248/26 103/247/26 106/250/26 107/249/26
f 108/255/2 114/256/2 113/242/2 100/241/2
f 98/228/24 73/227/24 87/240/24 105/239/24
f 98/257/4 105/231/4 106/234/4 103/258/4
f 111/259/27 114/260/27 109/261/27 110/262/27
f 112/243/28 113/242/28 114/256/28 111/263/28
f 99/264/29 110/262/29 109/261/29 97/265/29
f 97/265/2 109/261/2 114/260/2 108/266/2
f 107/267/4 111/259/4 110/262/4 99/264/4
f 102/244/4 112/243/4 111/263/4 107/268/4
