# Blender 4.2.2 LTS
# www.blender.org
mtllib gun.mtl
o gun
v 0.114602 2.049258 1.128862
v -0.112443 2.049258 1.128862
v 0.114602 2.049258 -0.598150
v -0.112443 2.049258 -0.598150
v -0.112443 1.850539 -0.479765
v 0.114602 1.850539 -0.479765
v -0.112443 1.966811 -0.631975
v 0.114602 1.966811 -0.631975
v 0.114602 2.200399 1.128862
v 0.087223 2.243666 1.128862
v -0.085064 2.243666 1.128862
v -0.112443 2.200399 1.128862
v 0.087223 2.243666 -0.598150
v 0.114602 2.200399 -0.598150
v -0.112443 2.200399 -0.598150
v -0.085064 2.243666 -0.598150
v -0.112443 2.049258 0.644953
v 0.114602 2.049258 0.644953
v 0.114602 1.966811 0.635475
v -0.112443 1.966811 0.635475
v -0.085064 2.243666 0.644953
v -0.112443 2.200399 0.644953
v 0.087223 2.243666 0.644953
v 0.114602 2.200399 0.644953
v -0.072730 1.913297 1.128862
v -0.112443 1.913297 1.077047
v -0.072730 1.850539 1.077047
v 0.074889 1.850539 1.077047
v 0.114602 1.913297 1.077047
v 0.074889 1.913297 1.128862
v -0.112443 1.966811 1.077047
v -0.072730 1.966811 1.128862
v -0.112443 2.029569 1.128862
v 0.074889 1.966811 1.128862
v 0.114602 1.966811 1.077047
v 0.114602 2.029569 1.128862
v -0.072730 1.850539 0.678125
v -0.112443 1.913297 0.655105
v -0.112443 1.850539 0.626309
v 0.114602 1.913297 0.655105
v 0.074889 1.850539 0.678125
v 0.114602 1.850539 0.626309
v -0.049762 2.140653 1.160156
v -0.068400 2.140653 1.021195
v -0.034871 2.104702 1.160156
v -0.048049 2.091523 1.021195
v 0.001080 2.089810 1.160156
v 0.001080 2.071172 1.021195
v 0.037031 2.104702 1.160156
v 0.050210 2.091523 1.021195
v 0.051923 2.140653 1.160156
v 0.070561 2.140653 1.021195
v 0.037031 2.176604 1.160156
v 0.050210 2.189782 1.021195
v 0.001080 2.191495 1.160156
v 0.001080 2.210133 1.021195
v -0.034871 2.176604 1.160156
v -0.048049 2.189782 1.021195
v -0.068400 2.140653 1.160156
v -0.048049 2.091523 1.160156
v 0.001080 2.071172 1.160156
v 0.050210 2.091523 1.160156
v 0.070561 2.140653 1.160156
v 0.050210 2.189782 1.160156
v 0.001080 2.210133 1.160156
v -0.048049 2.189782 1.160156
v -0.049762 2.140653 1.124360
v -0.034871 2.104702 1.124360
v 0.001080 2.089810 1.124360
v 0.037031 2.104702 1.124360
v 0.051923 2.140653 1.124360
v 0.037031 2.176604 1.124360
v 0.001080 2.191495 1.124360
v -0.034871 2.176604 1.124360
v 0.047810 1.726818 0.253077
v 0.047810 1.868369 0.241183
v -0.045651 1.726818 0.253077
v -0.045651 1.868369 0.241183
v 0.047810 1.747208 0.102181
v 0.047810 1.868369 0.096234
v -0.045651 1.747208 0.102181
v -0.045651 1.868369 0.096234
v 0.047810 1.769982 0.233537
v -0.045651 1.769982 0.233537
v -0.045651 1.769982 0.096234
v 0.047810 1.769982 0.096234
v -0.033082 1.669570 0.294643
v 0.035241 1.669570 0.294643
v -0.045651 1.639775 0.278434
v 0.047810 1.639775 0.278434
v -0.045651 1.703056 0.170429
v -0.045651 1.697958 0.264694
v 0.047810 1.697958 0.274039
v 0.047810 1.703056 0.179774
v 0.065614 1.572592 0.572891
v 0.065614 1.870001 0.615586
v -0.063455 1.572592 0.572891
v -0.063455 1.870001 0.615586
v 0.065614 1.572592 0.414969
v 0.065614 1.870001 0.436869
v -0.063455 1.572592 0.414969
v -0.063455 1.870001 0.436869
v 0.065614 1.821330 0.553441
v -0.063455 1.821330 0.553441
v -0.063455 1.821330 0.499014
v 0.065614 1.821330 0.499014
v -0.063455 1.661056 0.556219
v -0.063455 1.661056 0.496236
v 0.065614 1.661056 0.496236
v 0.065614 1.661056 0.556219
v -0.063455 1.616824 0.564555
v -0.063455 1.616824 0.455602
v 0.065614 1.616824 0.455602
v 0.065614 1.616824 0.564555
v -0.063455 1.613509 0.169963
v -0.063455 1.569277 0.129330
v 0.065614 1.569277 0.129330
v 0.065614 1.613509 0.169963
v -0.063455 1.698245 0.078493
v -0.063455 1.607158 0.020243
v 0.065614 1.607158 0.020243
v 0.065614 1.698245 0.078493
v -0.063455 1.798628 0.030286
v -0.063455 1.581286 -0.020623
v 0.065614 1.581286 -0.020623
v 0.065614 1.798628 0.030286
v 0.065614 1.741193 0.544468
v -0.063455 1.741193 0.544468
v -0.063455 1.741193 0.507987
v 0.065614 1.741193 0.507987
v 0.117458 1.581333 0.008126
v 0.111973 1.879170 0.160336
v -0.115297 1.581333 0.008126
v -0.109812 1.879170 0.160336
v 0.117458 1.581333 -0.541193
v 0.111973 1.879170 -0.473544
v -0.115297 1.581333 -0.541193
v -0.109812 1.879170 -0.473544
v -0.122460 1.070930 -0.157380
v 0.124621 1.070930 -0.157380
v -0.122460 1.113569 -0.596884
v 0.124621 1.113569 -0.596884
v 0.124621 1.193308 -0.152719
v 0.117458 1.268026 -0.714041
v -0.115297 1.268026 -0.714041
v -0.122460 1.193308 -0.152719
v -0.098359 0.969745 -0.177308
v 0.100520 0.969745 -0.177308
v -0.098359 1.013042 -0.652753
v 0.100520 1.013042 -0.652753
v 0.124621 1.121843 -0.163124
v -0.122460 1.145881 -0.713313
v 0.124621 1.145881 -0.713313
v -0.122460 1.121843 -0.163124
v 0.114074 1.765059 0.074038
v -0.111913 1.765059 0.074038
v -0.111913 1.765059 -0.471482
v 0.114074 1.765059 -0.471482
vn -0.0000 1.0000 -0.0000
vn -0.0000 -0.0000 -1.0000
vn -0.0000 -0.0000 1.0000
vn 1.0000 -0.0000 -0.0000
vn -1.0000 -0.0000 -0.0000
vn -0.0000 -0.7947 -0.6070
vn -0.0000 -1.0000 -0.0000
vn -0.0000 0.3796 -0.9252
vn -0.8450 0.5347 -0.0000
vn 0.8450 0.5347 -0.0000
vn -0.7093 -0.4488 0.5436
vn 0.7093 -0.4488 0.5436
vn -0.7645 -0.2688 0.5859
vn 0.7645 -0.2688 0.5859
vn -0.0000 -0.6367 0.7711
vn -0.8450 -0.5347 -0.0000
vn -0.7937 -0.0000 0.6083
vn 0.7937 -0.0000 0.6083
vn 0.8450 -0.5347 -0.0000
vn -0.9239 -0.3827 -0.0000
vn -0.3827 -0.9239 -0.0000
vn 0.3827 -0.9239 -0.0000
vn 0.9239 -0.3827 -0.0000
vn 0.9239 0.3827 -0.0000
vn 0.3827 0.9239 -0.0000
vn -0.3827 0.9239 -0.0000
vn -0.9239 0.3827 -0.0000
vn -0.0000 -0.0775 0.9970
vn -0.9939 0.0254 0.1074
vn -0.0000 -0.2527 -0.9676
vn -0.0000 0.4124 0.9110
vn -0.0000 -0.4779 0.8784
vn -0.0431 0.6644 0.7462
vn 0.0261 -0.8525 -0.5221
vn 0.9938 0.0084 0.1112
vn 0.0259 -0.8551 -0.5178
vn -0.0435 0.4911 0.8700
vn -0.0000 -0.7873 0.6166
vn -0.0000 -0.7873 -0.6166
vn -0.0000 -0.1113 -0.9938
vn -0.0000 -0.1113 0.9938
vn -0.0000 0.1852 0.9827
vn -0.0000 0.6765 -0.7364
vn -0.0000 0.7336 0.6796
vn -0.0000 0.9999 -0.0116
vn -0.0000 -0.9999 0.0116
vn -0.0000 -0.9447 -0.3280
vn -0.0000 0.2281 -0.9736
vn -0.0000 0.4329 0.9014
vn -0.0000 -0.8449 0.5349
vn -0.0000 0.1451 0.9894
vn -0.0000 0.1451 -0.9894
vn -0.0000 -0.6032 0.7976
vn -0.9998 0.0184 -0.0000
vn -0.0000 -0.0181 -0.9998
vn 0.9998 0.0184 -0.0000
vn 0.9742 -0.2249 -0.0211
vn -0.0000 0.1121 0.9937
vn -0.0000 -0.9636 -0.2674
vn -0.0000 0.4831 -0.8756
vn -0.0000 -0.3829 0.9238
vn -0.9999 0.0129 -0.0056
vn 0.9999 0.0129 -0.0056
vn -0.0000 -0.9959 -0.0907
vn -0.9742 -0.2249 -0.0211
vn -0.0000 0.4858 -0.8741
vn -0.0000 -0.1932 0.9812
vn -0.0000 -0.0060 -1.0000
vn -0.0000 -0.1441 0.9896
vn -0.9993 0.0371 -0.0031
vn 0.9993 0.0371 -0.0031
vn -0.0000 0.3548 -0.9350
vn -0.0000 -0.3377 0.9413
vt 0.094192 0.800141
vt 0.002141 0.800646
vt 0.002353 0.757622
vt 0.093412 0.756551
vt 0.333933 0.809704
vt 0.308375 0.802809
vt 0.305011 0.794509
vt 0.302292 0.758619
vt 0.306181 0.749997
vt 0.334588 0.743914
vt 0.460984 0.323541
vt 0.484197 0.322521
vt 0.491251 0.328998
vt 0.490805 0.372231
vt 0.483823 0.378654
vt 0.460676 0.377611
vt 0.414865 0.002202
vt 0.438966 0.233977
vt 0.431333 0.238382
vt 0.421337 0.234136
vt 0.400201 0.031902
vt 0.451173 0.466746
vt 0.474241 0.469120
vt 0.450743 0.696174
vt 0.427951 0.693815
vt 0.438641 0.467206
vt 0.414885 0.698711
vt 0.400201 0.669070
vt 0.421038 0.467079
vt 0.431012 0.462823
vt 0.447960 0.316783
vt 0.439376 0.317550
vt 0.350814 0.809872
vt 0.351470 0.744082
vt 0.391435 0.744480
vt 0.390779 0.810270
vt 0.447389 0.384504
vt 0.457656 0.377435
vt 0.763404 0.016440
vt 0.773040 0.007473
vt 0.982502 0.007473
vt 0.982502 0.063572
vt 0.773040 0.063572
vt 0.763041 0.054889
vt 0.451522 0.234417
vt 0.458022 0.323717
vt 0.094367 0.809893
vt 0.002291 0.748112
vt 0.093388 0.747517
vt 0.474596 0.232000
vt 0.427954 0.007087
vt 0.450774 0.004691
vt 0.002176 0.810270
vt 0.448309 0.369253
vt 0.448779 0.331884
vt 0.438844 0.383832
vt 0.439533 0.369034
vt 0.440292 0.332023
vt 0.680442 0.021160
vt 0.689657 0.010314
vt 0.693115 0.022469
vt 0.694112 0.051461
vt 0.691692 0.063179
vt 0.682516 0.053825
vt 0.764607 0.002719
vt 0.764714 0.068501
vt 0.488564 0.679932
vt 0.458601 0.667778
vt 0.473150 0.652694
vt 0.490030 0.680675
vt 0.502255 0.652694
vt 0.490995 0.682356
vt 0.520608 0.675642
vt 0.490623 0.684357
vt 0.519113 0.697270
vt 0.489131 0.685161
vt 0.504593 0.712374
vt 0.487664 0.684422
vt 0.475459 0.712412
vt 0.486698 0.682744
vt 0.396519 0.258169
vt 0.405006 0.255326
vt 0.411007 0.261967
vt 0.411007 0.274201
vt 0.405006 0.284862
vt 0.396519 0.287705
vt 0.390518 0.281064
vt 0.390518 0.268830
vt 0.457081 0.689437
vt 0.487073 0.680740
vt 0.489089 0.684364
vt 0.487922 0.683923
vt 0.488457 0.683247
vt 0.488953 0.683472
vt 0.489770 0.681175
vt 0.488606 0.680723
vt 0.490494 0.682405
vt 0.490178 0.683802
vt 0.487198 0.682698
vt 0.487523 0.681296
vt 0.013223 0.003707
vt 0.017615 0.008567
vt 0.017615 0.017519
vt 0.013223 0.025320
vt 0.007013 0.027400
vt 0.002622 0.022541
vt 0.002622 0.013589
vt 0.007013 0.005788
vt 0.489412 0.683252
vt 0.489554 0.682543
vt 0.489215 0.681851
vt 0.488750 0.681594
vt 0.488303 0.681850
vt 0.488135 0.682570
vt 0.632819 0.483109
vt 0.499536 0.464486
vt 0.497186 0.209489
vt 0.636694 0.189064
vt 0.464972 0.030824
vt 0.583278 0.004459
vt 0.273002 0.364620
vt 0.272979 0.499701
vt 0.002816 0.499656
vt 0.002839 0.364575
vt 0.578327 0.666030
vt 0.464972 0.638369
vt 0.746364 0.195433
vt 0.697894 0.073511
vt 0.829842 0.184089
vt 0.803369 0.235899
vt 0.272946 0.698711
vt 0.002783 0.698666
vt 0.607923 0.667397
vt 0.702139 0.477630
vt 0.273007 0.332303
vt 0.002844 0.332258
vt 0.702590 0.193874
vt 0.613257 0.003562
vt 0.236672 0.002258
vt 0.272992 0.048838
vt 0.002829 0.048761
vt 0.039175 0.002202
vt 0.751307 0.470114
vt 0.800612 0.436848
vt 0.273026 0.220702
vt 0.002783 0.209686
vt 0.697085 0.588626
vt 0.828243 0.491585
vt 0.834868 0.229543
vt 0.834868 0.188039
vt 0.896386 0.188039
vt 0.896386 0.229543
vt 0.907273 0.458105
vt 0.900662 0.499079
vt 0.900479 0.381274
vt 0.907217 0.422228
vt 0.340145 0.877926
vt 0.381649 0.877926
vt 0.381649 0.939444
vt 0.340145 0.939444
vt 0.080170 0.736988
vt 0.121124 0.743726
vt 0.003319 0.743543
vt 0.044293 0.736933
vt 0.896386 0.271836
vt 0.896386 0.375933
vt 0.834868 0.375933
vt 0.834868 0.271836
vt 0.818099 0.653696
vt 0.700294 0.653696
vt 0.700294 0.592179
vt 0.818099 0.592179
vt 0.074272 0.725990
vt 0.050225 0.725953
vt 0.327665 0.877926
vt 0.327665 0.939444
vt 0.918252 0.452173
vt 0.918215 0.428126
vt 0.834868 0.242023
vt 0.896386 0.242023
vt 0.834868 0.263652
vt 0.834868 0.255468
vt 0.896386 0.255468
vt 0.896386 0.263652
vt 0.935327 0.465387
vt 0.929253 0.459902
vt 0.929192 0.420363
vt 0.935215 0.393569
vt 0.286758 0.877926
vt 0.314220 0.877926
vt 0.314220 0.939444
vt 0.286758 0.939444
vt 0.108829 0.708990
vt 0.082035 0.715014
vt 0.042496 0.714952
vt 0.037011 0.708878
vt 0.135622 0.702966
vt 0.031526 0.702804
vt 0.941239 0.366776
vt 0.935377 0.205284
vt 0.941401 0.178490
vt 0.941401 0.470872
vt 0.098473 0.877926
vt 0.098473 0.939444
vt 0.037069 0.939444
vt 0.037069 0.877926
vt 0.323908 0.702804
vt 0.297114 0.708828
vt 0.896386 0.564218
vt 0.834868 0.564218
vt 0.357390 0.720541
vt 0.395806 0.708111
vt 0.422750 0.704605
vt 0.389145 0.734356
vt 0.896386 0.636312
vt 0.834868 0.636312
vt 0.923664 0.145008
vt 0.936095 0.106592
vt 0.822013 0.133088
vt 0.777131 0.133088
vt 0.777131 0.071570
vt 0.822013 0.071570
vt 0.909849 0.113253
vt 0.939601 0.079649
vt 0.002439 0.939444
vt 0.002439 0.877926
vt 0.896386 0.663482
vt 0.834868 0.663482
vt 0.283590 0.061200
vt 0.284591 0.002202
vt 0.390299 0.002202
vt 0.391301 0.061200
vt 0.875071 0.672444
vt 0.955372 0.661027
vt 0.567167 0.828446
vt 0.555572 0.820681
vt 0.584647 0.882767
vt 0.575136 0.897637
vt 0.998159 0.839151
vt 0.925756 0.867758
vt 0.411320 0.976817
vt 0.772357 0.973161
vt 0.776259 0.980037
vt 0.487792 0.979759
vt 0.763446 0.998159
vt 0.451397 0.998159
vt 0.690405 0.656864
vt 0.374795 0.834412
vt 0.439785 0.793575
vt 0.690354 0.648934
vt 0.278563 0.242012
vt 0.396328 0.242012
vt 0.396328 0.249954
vt 0.278563 0.249954
vt 0.396328 0.698711
vt 0.278563 0.698711
vt 0.278563 0.621837
vt 0.396328 0.621837
vt 0.509733 0.821144
vt 0.534546 0.920702
vt 0.424303 0.959323
vt 0.397776 0.842338
vt 0.281977 0.111424
vt 0.392914 0.111424
vt 0.396328 0.230050
vt 0.278563 0.230050
vt 0.827991 0.667928
vt 0.702682 0.662950
vt 0.887229 0.894917
vt 0.780015 0.961667
vt 0.384841 0.269060
vt 0.384841 0.582515
vt 0.290050 0.582515
vt 0.290050 0.269060
vt 0.398943 0.795802
vt 0.670147 0.639598
s 0
usemtl Материал
f 21/1/1 11/2/1 10/3/1 23/4/1
f 4/5/2 15/6/2 16/7/2 13/8/2 14/9/2 3/10/2
f 1/11/3 9/12/3 10/13/3 11/14/3 12/15/3 2/16/3
f 8/17/4 19/18/4 40/19/4 42/20/4 6/21/4
f 17/22/5 22/23/5 15/24/5 4/25/5
f 20/26/5 7/27/5 5/28/5 39/29/5 38/30/5
f 19/18/4 35/31/4 29/32/4 40/19/4
f 7/33/6 8/34/6 6/35/6 5/36/6
f 2/16/5 17/22/5 20/26/5 31/37/5 33/38/5
f 37/39/7 39/40/7 5/41/7 6/42/7 42/43/7 41/44/7
f 4/5/8 3/10/8 8/34/8 7/33/8
f 18/45/4 1/11/4 36/46/4 35/31/4 19/18/4
f 17/22/5 4/25/5 7/27/5 20/26/5
f 21/1/9 16/7/9 15/6/9 22/47/9
f 23/4/10 10/3/10 9/48/10 24/49/10
f 18/45/4 24/50/4 9/12/4 1/11/4
f 3/51/4 14/52/4 24/50/4 18/45/4
f 13/8/10 23/4/10 24/49/10 14/9/10
f 11/2/9 21/1/9 22/47/9 12/53/9
f 1/11/3 2/16/3 33/38/3 32/54/3 34/55/3 36/46/3
f 3/51/4 18/45/4 19/18/4 8/17/4
f 31/37/5 20/26/5 38/30/5 26/56/5
f 2/16/5 12/15/5 22/23/5 17/22/5
f 34/55/3 32/54/3 25/57/3 30/58/3
f 16/7/1 21/1/1 23/4/1 13/8/1
f 25/59/11 26/60/11 27/61/11
f 28/62/12 29/63/12 30/64/12
f 31/37/11 32/54/11 33/38/11
f 34/55/12 35/31/12 36/46/12
f 37/39/13 38/65/13 39/40/13
f 40/66/14 41/44/14 42/43/14
f 27/61/15 28/62/15 30/64/15 25/59/15
f 37/39/16 27/61/16 26/60/16 38/65/16
f 25/57/17 32/54/17 31/37/17 26/56/17
f 29/32/18 35/31/18 34/55/18 30/58/18
f 28/62/19 41/44/19 40/66/19 29/63/19
f 27/61/7 37/39/7 41/44/7 28/62/7
f 59/67/20 44/68/20 46/69/20 60/70/20
f 60/70/21 46/69/21 48/71/21 61/72/21
f 61/72/22 48/71/22 50/73/22 62/74/22
f 62/74/23 50/73/23 52/75/23 63/76/23
f 63/76/24 52/75/24 54/77/24 64/78/24
f 64/78/25 54/77/25 56/79/25 65/80/25
f 46/81/2 44/82/2 58/83/2 56/84/2 54/85/2 52/86/2 50/87/2 48/88/2
f 65/80/26 56/79/26 58/89/26 66/90/26
f 66/90/27 58/89/27 44/68/27 59/67/27
f 51/91/20 53/92/20 72/93/20 71/94/20
f 45/95/3 43/96/3 59/67/3 60/70/3
f 47/97/3 45/95/3 60/70/3 61/72/3
f 49/98/3 47/97/3 61/72/3 62/74/3
f 51/91/3 49/98/3 62/74/3 63/76/3
f 53/92/3 51/91/3 63/76/3 64/78/3
f 55/99/3 53/92/3 64/78/3 65/80/3
f 57/100/3 55/99/3 65/80/3 66/90/3
f 43/96/3 57/100/3 66/90/3 59/67/3
f 67/101/3 68/102/3 69/103/3 70/104/3 71/105/3 72/106/3 73/107/3 74/108/3
f 47/97/26 49/98/26 70/109/26 69/110/26
f 43/96/24 45/95/24 68/111/24 67/112/24
f 57/100/23 43/96/23 67/112/23 74/113/23
f 53/92/21 55/99/21 73/114/21 72/93/21
f 49/98/27 51/91/27 71/94/27 70/109/27
f 45/95/25 47/97/25 69/110/25 68/111/25
f 55/99/22 57/100/22 74/113/22 73/114/22
f 83/115/28 76/116/28 78/117/28 84/118/28
f 84/118/5 78/117/5 82/119/5 85/120/5
f 85/121/2 82/122/2 80/123/2 86/124/2
f 86/125/4 80/126/4 76/116/4 83/115/4
f 92/127/29 91/128/29 89/129/29 87/130/29
f 82/122/1 78/131/1 76/132/1 80/123/1
f 79/133/4 86/125/4 83/115/4 75/134/4
f 81/135/30 85/121/30 86/124/30 79/136/30
f 77/137/5 84/118/5 85/120/5 81/138/5
f 75/134/31 83/115/31 84/118/31 77/137/31
f 87/139/32 89/140/32 90/141/32 88/142/32
f 93/143/33 92/127/33 87/130/33 88/144/33
f 91/145/34 94/146/34 90/141/34 89/140/34
f 94/147/35 93/143/35 88/144/35 90/148/35
f 79/133/4 75/134/4 93/143/4 94/147/4
f 81/135/36 79/136/36 94/146/36 91/145/36
f 75/134/37 77/137/37 92/127/37 93/143/37
f 77/137/5 81/138/5 91/128/5 92/127/5
f 103/149/38 96/150/38 98/151/38 104/152/38
f 104/153/5 98/154/5 102/155/5 105/156/5
f 105/157/39 102/158/39 100/159/39 106/160/39
f 106/161/4 100/162/4 96/163/4 103/164/4
f 97/165/7 101/166/7 99/167/7 95/168/7
f 102/169/1 98/170/1 96/171/1 100/172/1
f 130/173/4 106/161/4 103/164/4 127/174/4
f 129/175/40 105/157/40 106/160/40 130/176/40
f 128/177/5 104/153/5 105/156/5 129/178/5
f 127/179/41 103/149/41 104/152/41 128/180/41
f 114/181/42 110/182/42 107/183/42 111/184/42
f 111/185/5 107/186/5 108/187/5 112/188/5
f 112/189/43 108/190/43 109/191/43 113/192/43
f 113/193/4 109/194/4 110/195/4 114/196/4
f 99/197/4 113/193/4 114/196/4 95/198/4
f 101/199/5 112/188/5 115/200/5 116/201/5
f 97/202/5 111/185/5 112/188/5 101/199/5
f 95/168/42 114/181/42 111/184/42 97/165/42
f 115/203/44 118/204/44 122/205/44 119/206/44
f 112/189/45 113/192/45 118/204/45 115/203/45
f 113/193/4 99/197/4 117/207/4 118/208/4
f 99/167/46 101/166/46 116/209/46 117/210/46
f 122/211/4 121/212/4 125/213/4 126/214/4
f 117/210/47 116/209/47 120/215/47 121/216/47
f 118/208/4 117/207/4 121/212/4 122/211/4
f 116/201/5 115/200/5 119/217/5 120/218/5
f 124/219/48 123/220/48 126/221/48 125/222/48
f 120/218/5 119/217/5 123/223/5 124/224/5
f 119/206/49 122/205/49 126/225/49 123/226/49
f 121/216/50 120/215/50 124/227/50 125/228/50
f 110/182/51 127/179/51 128/180/51 107/183/51
f 107/186/5 128/177/5 129/178/5 108/187/5
f 108/190/52 129/175/52 130/176/52 109/191/52
f 109/194/4 130/173/4 127/174/4 110/195/4
f 155/229/53 132/230/53 134/231/53 156/232/53
f 156/233/54 134/234/54 138/235/54 157/236/54
f 157/236/55 138/235/55 136/237/55 158/238/55
f 158/238/56 136/237/56 132/239/56 155/240/56
f 153/241/4 151/242/4 140/243/4 142/244/4
f 138/235/1 134/234/1 132/239/1 136/237/1
f 142/244/57 140/243/57 148/245/57 150/246/57
f 154/247/5 152/248/5 141/249/5 139/250/5
f 151/251/58 154/252/58 139/253/58 140/254/58
f 152/255/59 153/256/59 142/257/59 141/258/59
f 137/259/60 135/260/60 144/261/60 145/262/60
f 131/263/61 133/264/61 146/265/61 143/266/61
f 133/267/62 137/259/62 145/262/62 146/268/62
f 135/260/63 131/269/63 143/270/63 144/261/63
f 147/271/64 149/272/64 150/273/64 148/274/64
f 139/250/65 141/249/65 149/275/65 147/276/65
f 141/258/66 142/257/66 150/273/66 149/272/66
f 140/254/67 139/253/67 147/271/67 148/274/67
f 145/262/68 144/261/68 153/241/68 152/248/68
f 143/266/69 146/265/69 154/252/69 151/251/69
f 146/268/70 145/262/70 152/248/70 154/247/70
f 144/261/71 143/270/71 151/242/71 153/241/71
f 135/260/56 158/238/56 155/240/56 131/269/56
f 137/259/72 157/236/72 158/238/72 135/260/72
f 133/267/54 156/233/54 157/236/54 137/259/54
f 131/263/73 155/229/73 156/232/73 133/264/73
