# Blender 4.2.2 LTS
# www.blender.org
mtllib locked safe.mtl
o locked_safe
v 1.240942 1.979729 -0.865158
v 1.240942 2.165479 -0.865158
v 1.344769 1.979729 -0.865158
v 1.344769 2.165479 -0.865158
v 1.240942 1.979729 -0.450279
v 1.240942 2.165479 -0.450279
v 1.344769 1.979729 -0.450279
v 1.344769 2.165479 -0.450279
v 1.240942 1.422479 -0.865158
v 1.240942 1.608229 -0.865158
v 1.344769 1.422479 -0.865158
v 1.344769 1.608229 -0.865158
v 1.240942 1.422479 -0.450279
v 1.240942 1.608229 -0.450279
v 1.344769 1.422479 -0.450279
v 1.344769 1.608229 -0.450279
v 1.240942 0.865229 -0.865158
v 1.240942 1.050979 -0.865158
v 1.344769 0.865229 -0.865158
v 1.344769 1.050979 -0.865158
v 1.240942 0.865229 -0.450279
v 1.240942 1.050979 -0.450279
v 1.344769 0.865229 -0.450279
v 1.344769 1.050979 -0.450279
v 1.346307 1.858775 0.073567
v 1.229912 1.820099 0.088861
v 1.351213 1.944464 0.187792
v 1.235880 1.924321 0.227792
v 1.351810 2.084043 0.207784
v 1.236606 2.094088 0.252108
v 1.347748 2.195748 0.121832
v 1.231665 2.229953 0.147566
v 1.341406 2.214144 -0.019714
v 1.223951 2.252328 -0.024595
v 1.336499 2.128454 -0.133940
v 1.217983 2.148106 -0.163526
v 1.335902 1.988876 -0.153932
v 1.217257 1.978338 -0.187842
v 1.339965 1.877171 -0.067980
v 1.222198 1.842474 -0.083300
v 1.346837 1.820345 0.083654
v 1.352805 1.924567 0.222585
v 1.353531 2.094334 0.246901
v 1.348589 2.230199 0.142359
v 1.340875 2.252574 -0.029802
v 1.334908 2.148352 -0.168733
v 1.334182 1.978584 -0.193049
v 1.339123 1.842719 -0.088507
v 1.339476 1.951744 0.049969
v 1.341814 1.992580 0.104404
v 1.342099 2.059097 0.113932
v 1.340163 2.112331 0.072971
v 1.337140 2.121098 0.005515
v 1.334802 2.080262 -0.048920
v 1.334517 2.013745 -0.058447
v 1.336454 1.960511 -0.017486
v 1.327976 1.858736 0.074383
v 1.332882 1.944425 0.188608
v 1.333479 2.084004 0.208601
v 1.329416 2.195709 0.122649
v 1.323074 2.214105 -0.018898
v 1.318168 2.128416 -0.133124
v 1.317571 1.988837 -0.153116
v 1.321633 1.877132 -0.067164
v 1.400558 1.958129 0.045421
v 1.402724 1.995952 0.095839
v 1.402987 2.057561 0.104664
v 1.401194 2.106867 0.066725
v 1.398394 2.114987 0.004247
v 1.396229 2.077164 -0.046172
v 1.395965 2.015555 -0.054996
v 1.397758 1.966249 -0.017057
v 1.297763 1.412459 0.029530
v 1.335429 1.232049 0.029530
v 1.297763 1.311930 0.272227
v 1.335429 1.184361 0.144658
v 1.297763 1.069233 0.372755
v 1.335429 1.069233 0.192345
v 1.297763 0.826536 0.272227
v 1.335429 0.954105 0.144658
v 1.297763 0.726007 0.029530
v 1.335429 0.906417 0.029530
v 1.297763 0.826536 -0.213168
v 1.335429 0.954105 -0.085599
v 1.297763 1.069233 -0.313696
v 1.335429 1.069233 -0.133286
v 1.297763 1.311930 -0.213168
v 1.335429 1.184361 -0.085599
v 1.335429 1.311930 0.272227
v 1.335429 1.412459 0.029530
v 1.335429 1.069233 0.372755
v 1.335429 0.826536 0.272227
v 1.335429 0.726007 0.029530
v 1.335429 0.826536 -0.213168
v 1.335429 1.069233 -0.313696
v 1.335429 1.311930 -0.213168
v 1.400720 1.140499 0.100795
v 1.400720 1.170018 0.029530
v 1.400720 1.069233 0.130315
v 1.400720 0.997967 0.100795
v 1.400720 0.968448 0.029530
v 1.400720 0.997967 -0.041736
v 1.400720 1.069233 -0.071256
v 1.400720 1.140499 -0.041736
v 1.400720 1.184361 0.144658
v 1.400720 1.232049 0.029530
v 1.400720 1.069233 0.192345
v 1.400720 0.954105 0.144658
v 1.400720 0.906417 0.029530
v 1.400720 0.954105 -0.085599
v 1.400720 1.069233 -0.133286
v 1.400720 1.184361 -0.085599
v 1.579841 1.140499 0.100795
v 1.579841 1.170018 0.029530
v 1.579841 1.069233 0.130315
v 1.579841 0.997967 0.100795
v 1.579841 0.968448 0.029530
v 1.579841 0.997967 -0.041736
v 1.579841 1.069233 -0.071256
v 1.579841 1.140499 -0.041736
v 1.544981 1.109799 0.012613
v 1.544981 1.645424 -0.175691
v 1.531335 1.120726 0.043694
v 1.531335 1.656351 -0.144611
v 1.498389 1.125252 0.056568
v 1.498389 1.660877 -0.131737
v 1.465444 1.120726 0.043694
v 1.465444 1.656351 -0.144611
v 1.451798 1.109799 0.012613
v 1.451798 1.645424 -0.175691
v 1.465444 1.098873 -0.018468
v 1.465444 1.634498 -0.206772
v 1.498389 1.094347 -0.031342
v 1.498389 1.629972 -0.219646
v 1.531335 1.098873 -0.018468
v 1.531335 1.634498 -0.206772
v 1.544981 0.861903 0.611745
v 1.544981 1.057032 0.078569
v 1.531335 0.892841 0.623068
v 1.531335 1.087971 0.089891
v 1.498389 0.905657 0.627758
v 1.498389 1.100786 0.094581
v 1.465444 0.892841 0.623068
v 1.465444 1.087971 0.089891
v 1.451798 0.861903 0.611745
v 1.451798 1.057032 0.078569
v 1.465444 0.830964 0.600423
v 1.465444 1.026094 0.067246
v 1.498389 0.818149 0.595733
v 1.498389 1.013279 0.062556
v 1.531335 0.830964 0.600423
v 1.531335 1.026094 0.067246
v 1.544981 0.541516 -0.299584
v 1.544981 1.027367 -0.005812
v 1.531335 0.558563 -0.327776
v 1.531335 1.044414 -0.034005
v 1.498389 0.565624 -0.339454
v 1.498389 1.051475 -0.045682
v 1.465444 0.558563 -0.327776
v 1.465444 1.044414 -0.034005
v 1.451798 0.541516 -0.299584
v 1.451798 1.027367 -0.005812
v 1.465444 0.524470 -0.271391
v 1.465444 1.010321 0.022380
v 1.498389 0.517409 -0.259714
v 1.498389 1.003260 0.034058
v 1.531335 0.524470 -0.271391
v 1.531335 1.010321 0.022380
v 1.197064 0.475245 -0.551516
v 1.197064 2.544348 -0.551516
v 1.246554 0.302875 -0.722943
v 1.246554 2.716718 -0.722943
v 1.197064 0.475245 0.610575
v 1.197064 2.544348 0.610575
v 1.246554 0.302875 0.782003
v 1.246554 2.716718 0.782003
v 1.197064 0.302875 -0.722944
v 1.197064 2.716718 -0.722944
v 1.197064 2.716718 0.782003
v 1.197064 0.302875 0.782003
v 0.945109 0.475356 -0.605443
v 0.945109 2.544459 -0.605443
v 0.945109 2.544459 0.556647
v 0.945109 0.475356 0.556647
v -0.812183 0.034183 -0.970471
v -0.812183 2.969273 -0.970471
v -0.812183 0.034183 1.029530
v -0.812183 2.969273 1.029530
v 1.305292 2.969273 -0.970470
v 1.305292 0.034183 -0.970470
v 1.305292 0.034183 1.029530
v 1.305292 2.969273 1.029530
v 1.305292 2.730037 -0.731235
v 1.305292 0.273419 -0.731235
v 1.305292 0.273419 0.790294
v 1.305292 2.730037 0.790294
v -0.041281 2.730037 -0.731235
v -0.041281 0.273419 -0.731235
v -0.041281 0.273419 0.790294
v -0.041281 2.730037 0.790294
vn -0.0000 -0.0000 -1.0000
vn 1.0000 -0.0000 -0.0000
vn -0.0000 -0.0000 1.0000
vn -1.0000 -0.0000 -0.0000
vn -0.0000 -1.0000 -0.0000
vn -0.0000 1.0000 -0.0000
vn -0.0284 0.8002 -0.5991
vn -0.0443 0.1418 -0.9889
vn -0.0340 -0.6102 -0.7915
vn -0.0036 -0.9917 -0.1287
vn 0.0284 -0.8002 0.5991
vn 0.0443 -0.1418 0.9889
vn 0.9990 0.0021 -0.0445
vn 0.0340 0.6102 0.7915
vn 0.0036 0.9917 0.1287
vn -0.0037 -0.9917 -0.1287
vn -0.9990 -0.0021 0.0445
vn -0.9929 0.1119 -0.0413
vn -0.9953 0.0179 -0.0953
vn -0.9938 -0.0880 -0.0673
vn -0.9894 -0.1429 0.0258
vn -0.9850 -0.1152 0.1287
vn -0.9831 -0.0218 0.1817
vn -0.9845 0.0830 0.1544
vn -0.9884 0.1386 0.0623
vn -0.0933 0.9868 0.1324
vn -0.0514 -0.1414 0.9886
vn -0.1010 -0.9872 -0.1238
vn -0.1455 0.1409 -0.9793
vn -0.0624 0.6072 0.7921
vn -0.0670 -0.7967 0.6006
vn -0.1345 -0.6073 -0.7830
vn -0.1273 0.7960 -0.5917
vn -0.0000 -0.9239 -0.3827
vn -0.0000 -0.3827 -0.9239
vn -0.0000 0.3827 -0.9239
vn -0.0000 0.9239 -0.3827
vn -0.0000 0.9239 0.3827
vn -0.0000 0.3827 0.9239
vn -0.0000 -0.9239 0.3827
vn -0.0000 -0.3827 0.9239
vn 0.9239 0.1269 0.3610
vn 0.3827 0.3064 0.8716
vn -0.3827 0.3064 0.8716
vn -0.9239 0.1269 0.3610
vn -0.9239 -0.1269 -0.3610
vn -0.3827 -0.3064 -0.8716
vn -0.0000 0.9434 -0.3317
vn 0.3827 -0.3064 -0.8716
vn 0.9239 -0.1269 -0.3610
vn -0.0000 -0.9434 0.3317
vn 0.9239 0.3594 0.1315
vn 0.3827 0.8676 0.3175
vn -0.3827 0.8676 0.3175
vn -0.9239 0.3594 0.1315
vn -0.9239 -0.3594 -0.1315
vn -0.3827 -0.8676 -0.3175
vn -0.0000 0.3437 -0.9391
vn 0.3827 -0.8676 -0.3175
vn 0.9239 -0.3594 -0.1315
vn -0.0000 -0.3437 0.9391
vn 0.9239 0.1980 -0.3275
vn 0.3827 0.4780 -0.7906
vn -0.3827 0.4780 -0.7906
vn -0.9239 0.1980 -0.3275
vn -0.9239 -0.1980 0.3275
vn -0.3827 -0.4780 0.7906
vn -0.0000 0.8557 0.5174
vn 0.3827 -0.4780 0.7906
vn 0.9239 -0.1980 0.3275
vn -0.0000 -0.8557 -0.5174
vn -0.2093 -0.0000 0.9779
vn -0.0004 -1.0000 -0.0000
vn 0.2093 -0.0000 -0.9779
vn 0.0004 1.0000 -0.0000
vt 0.464924 0.903980
vt 0.464924 0.825461
vt 0.543443 0.825461
vt 0.543443 0.903980
vt 0.848830 0.396271
vt 0.921567 0.468014
vt 0.844271 0.496430
vt 0.820870 0.463199
vt 0.826792 0.562789
vt 0.749276 0.500195
vt 0.386404 0.903980
vt 0.386404 0.825461
vt 0.738603 0.387187
vt 0.921567 0.562789
vt 0.755112 0.084418
vt 0.755112 0.005899
vt 0.833631 0.005899
vt 0.833632 0.084418
vt 0.300110 0.730427
vt 0.372848 0.802170
vt 0.295551 0.830586
vt 0.272151 0.797355
vt 0.278072 0.896945
vt 0.200557 0.834351
vt 0.676593 0.084418
vt 0.676593 0.005899
vt 0.189884 0.721343
vt 0.372848 0.896945
vt 0.911015 0.654865
vt 0.832496 0.654865
vt 0.832496 0.576346
vt 0.911015 0.576346
vt 0.077956 0.887861
vt 0.005218 0.816118
vt 0.082515 0.787702
vt 0.105915 0.820933
vt 0.099994 0.721343
vt 0.177509 0.783937
vt 0.911015 0.733385
vt 0.832496 0.733385
vt 0.188183 0.896945
vt 0.005218 0.721343
vt 0.162029 0.317498
vt 0.041559 0.379455
vt 0.018320 0.322155
vt 0.138014 0.283014
vt 0.005883 0.263488
vt 0.125225 0.248343
vt 0.004737 0.205097
vt 0.121339 0.213480
vt 0.014450 0.148708
vt 0.125793 0.178388
vt 0.033818 0.095808
vt 0.138788 0.143508
vt 0.060785 0.047061
vt 0.161572 0.109508
vt 0.737932 0.879991
vt 0.785749 0.879991
vt 0.819562 0.913803
vt 0.819562 0.961621
vt 0.785749 0.995433
vt 0.737932 0.995433
vt 0.704120 0.961621
vt 0.704120 0.913803
vt 0.088822 0.004678
vt 0.199572 0.077942
vt 0.203295 0.349842
vt 0.073728 0.434403
vt 0.206965 0.335822
vt 0.170214 0.309758
vt 0.182499 0.295670
vt 0.219373 0.318141
vt 0.146369 0.278831
vt 0.133626 0.246614
vt 0.129705 0.213867
vt 0.134031 0.180807
vt 0.146719 0.148056
vt 0.168508 0.116216
vt 0.202745 0.088690
vt 0.182974 0.130382
vt 0.161851 0.156546
vt 0.149639 0.184864
vt 0.145331 0.213852
vt 0.148865 0.242307
vt 0.160642 0.269812
vt 0.217580 0.107736
vt 0.185880 0.253174
vt 0.202639 0.268709
vt 0.174902 0.234810
vt 0.174069 0.213920
vt 0.178751 0.192839
vt 0.189041 0.173126
vt 0.205190 0.156668
vt 0.225116 0.144566
vt 0.225116 0.277920
vt 0.907831 0.089477
vt 0.909231 0.108161
vt 0.843959 0.112305
vt 0.842663 0.095000
vt 0.910197 0.201791
vt 0.909207 0.220500
vt 0.843937 0.216356
vt 0.844855 0.199027
vt 0.911015 0.164330
vt 0.910803 0.183065
vt 0.845415 0.181683
vt 0.845612 0.164330
vt 0.910231 0.126869
vt 0.910826 0.145596
vt 0.845437 0.146978
vt 0.844886 0.129634
vt 0.907831 0.239185
vt 0.842663 0.233662
vt 0.017861 0.007350
vt 0.035215 0.007350
vt 0.047485 0.019620
vt 0.047485 0.036973
vt 0.035215 0.049244
vt 0.017861 0.049244
vt 0.005591 0.036973
vt 0.005591 0.019620
vt 0.728081 0.863637
vt 0.735694 0.789525
vt 0.761420 0.789761
vt 0.761177 0.865288
vt 0.787675 0.787207
vt 0.795054 0.864049
vt 0.813814 0.780887
vt 0.829713 0.859650
vt 0.843387 0.766482
vt 0.865288 0.851920
vt 0.603365 0.831578
vt 0.631656 0.755364
vt 0.659782 0.772761
vt 0.632531 0.842405
vt 0.684825 0.781434
vt 0.663781 0.852142
vt 0.737421 0.760258
vt 0.714156 0.761810
vt 0.730995 0.586538
vt 0.745000 0.587666
vt 0.710258 0.786796
vt 0.695645 0.859251
vt 0.661447 0.407196
vt 0.685899 0.431648
vt 0.685899 0.466229
vt 0.661447 0.490682
vt 0.626866 0.490682
vt 0.602414 0.466229
vt 0.602414 0.431648
vt 0.626866 0.407196
vt 0.760373 0.764358
vt 0.782936 0.758854
vt 0.805534 0.757754
vt 0.823052 0.749164
vt 0.653428 0.739653
vt 0.670503 0.750423
vt 0.692596 0.753924
vt 0.286985 0.004678
vt 0.297140 0.004678
vt 0.297140 0.434403
vt 0.286985 0.434403
vt 0.704286 0.579921
vt 0.717449 0.584177
vt 0.790232 0.582611
vt 0.807972 0.573339
vt 0.759429 0.587679
vt 0.774400 0.586314
vt 0.689652 0.570471
vt 0.745891 0.578510
vt 0.759516 0.578248
vt 0.773233 0.576698
vt 0.786659 0.573010
vt 0.798688 0.565326
vt 0.698185 0.565326
vt 0.708156 0.572681
vt 0.719872 0.576037
vt 0.732582 0.577790
vt 0.197229 0.184772
vt 0.207383 0.184772
vt 0.214563 0.191953
vt 0.214563 0.202107
vt 0.207383 0.209287
vt 0.197229 0.209287
vt 0.190049 0.202107
vt 0.190049 0.191953
vt 0.307294 0.004678
vt 0.317448 0.004678
vt 0.317448 0.434403
vt 0.307294 0.434403
vt 0.246368 0.004678
vt 0.256522 0.004678
vt 0.256522 0.434403
vt 0.246368 0.434403
vt 0.266676 0.004678
vt 0.276831 0.004678
vt 0.276831 0.434403
vt 0.266676 0.434403
vt 0.236213 0.004678
vt 0.236213 0.434403
vt 0.589170 0.497345
vt 0.516544 0.497345
vt 0.516544 0.469552
vt 0.589170 0.469552
vt 0.516544 0.441759
vt 0.589170 0.441759
vt 0.516544 0.413966
vt 0.589170 0.413966
vt 0.516544 0.386173
vt 0.589170 0.386173
vt 0.589170 0.608516
vt 0.516544 0.608516
vt 0.516544 0.580723
vt 0.589170 0.580723
vt 0.516544 0.552930
vt 0.589170 0.552930
vt 0.052455 0.882609
vt 0.072107 0.902261
vt 0.072107 0.930054
vt 0.052455 0.949707
vt 0.024662 0.949707
vt 0.005010 0.930054
vt 0.005010 0.902261
vt 0.024662 0.882609
vt 0.516544 0.525137
vt 0.589170 0.525137
vt 0.245914 0.889644
vt 0.265566 0.909296
vt 0.265566 0.937089
vt 0.245914 0.956742
vt 0.218121 0.956742
vt 0.198468 0.937089
vt 0.198468 0.909296
vt 0.218121 0.889644
vt 0.589380 0.371693
vt 0.589380 0.026996
vt 0.601312 0.042736
vt 0.601312 0.387433
vt 0.627087 0.049255
vt 0.627087 0.393952
vt 0.652862 0.042736
vt 0.652862 0.387433
vt 0.664795 0.026996
vt 0.664795 0.371693
vt 0.513964 0.371693
vt 0.513964 0.026996
vt 0.525897 0.011256
vt 0.525897 0.355953
vt 0.551672 0.004736
vt 0.551672 0.349434
vt 0.844445 0.020071
vt 0.857762 0.005483
vt 0.876594 0.011439
vt 0.889910 0.034450
vt 0.889911 0.061037
vt 0.876594 0.075625
vt 0.857762 0.069669
vt 0.844445 0.046657
vt 0.577447 0.011256
vt 0.577447 0.355953
vt 0.424057 0.503746
vt 0.430014 0.484914
vt 0.453025 0.471597
vt 0.479611 0.471597
vt 0.494199 0.484914
vt 0.488243 0.503746
vt 0.465232 0.517063
vt 0.438645 0.517063
vt 0.371693 0.555586
vt 0.387433 0.567518
vt 0.042735 0.567518
vt 0.026996 0.555586
vt 0.393952 0.593293
vt 0.049255 0.593293
vt 0.387433 0.619068
vt 0.042735 0.619068
vt 0.387433 0.468238
vt 0.371693 0.480171
vt 0.026995 0.480171
vt 0.042735 0.468238
vt 0.355953 0.492103
vt 0.011256 0.492103
vt 0.349433 0.517878
vt 0.004736 0.517878
vt 0.690141 0.095232
vt 0.716728 0.095232
vt 0.739739 0.108548
vt 0.745696 0.127381
vt 0.731108 0.140697
vt 0.704521 0.140697
vt 0.681510 0.127381
vt 0.675554 0.108548
vt 0.355953 0.543653
vt 0.011256 0.543653
vt 0.151456 0.018854
vt 0.166044 0.005537
vt 0.192631 0.005537
vt 0.215642 0.018854
vt 0.221598 0.037686
vt 0.207010 0.051003
vt 0.180424 0.051003
vt 0.157413 0.037686
vt 0.830114 0.144842
vt 0.830114 0.367427
vt 0.824372 0.362823
vt 0.825344 0.151615
vt 0.679816 0.376628
vt 0.680787 0.165420
vt 0.675045 0.383400
vt 0.675045 0.160815
vt 0.695540 0.498333
vt 0.606503 0.678906
vt 0.590409 0.656883
vt 0.677901 0.489454
vt 0.389160 0.497203
vt 0.471097 0.672514
vt 0.459748 0.687564
vt 0.373240 0.491097
vt 0.717556 0.490715
vt 0.616744 0.698210
vt 0.111785 0.441341
vt 0.219743 0.441341
vt 0.235668 0.457266
vt 0.095860 0.457266
vt 0.403279 0.708087
vt 0.594446 0.708087
vt 0.594446 0.816044
vt 0.403279 0.816044
vt 0.116795 0.417934
vt 0.224752 0.417934
vt 0.405026 0.489454
vt 0.484975 0.645239
vt 0.502993 0.197913
vt 0.327083 0.197913
vt 0.327083 0.071005
vt 0.502993 0.071005
vt 0.502993 0.444687
vt 0.327083 0.444687
vt 0.327083 0.317779
vt 0.502993 0.317779
vt 0.680355 0.868532
vt 0.680355 0.988399
vt 0.553447 0.988399
vt 0.553447 0.868532
vt 0.850939 0.984881
vt 0.850939 0.865014
vt 0.977846 0.865014
vt 0.977846 0.984881
vt 0.341421 0.056667
vt 0.488655 0.056667
vt 0.694693 0.882870
vt 0.694693 0.974060
vt 0.836601 0.970543
vt 0.836601 0.879353
vt 0.488655 0.459025
vt 0.341421 0.459025
vt 0.004778 0.629817
vt 0.152011 0.629817
vt 0.152011 0.710521
vt 0.004778 0.710521
vt 0.956742 0.397470
vt 0.865551 0.397470
vt 0.865551 0.250236
vt 0.956742 0.250236
vt 0.243202 0.629817
vt 0.243202 0.710521
vt 0.872520 0.835390
vt 0.872520 0.744200
vt 0.953224 0.744200
vt 0.953224 0.835390
vt 0.390435 0.629817
vt 0.390435 0.710521
s 0
usemtl Материал
f 1/1/1 2/2/1 4/3/1 3/4/1
f 3/5/2 4/6/2 8/7/2 7/8/2
f 7/8/3 8/7/3 6/9/3 5/10/3
f 5/11/4 6/12/4 2/2/4 1/1/4
f 3/5/5 7/8/5 5/10/5 1/13/5
f 8/7/6 4/6/6 2/14/6 6/9/6
f 9/15/1 10/16/1 12/17/1 11/18/1
f 11/19/2 12/20/2 16/21/2 15/22/2
f 15/22/3 16/21/3 14/23/3 13/24/3
f 13/25/4 14/26/4 10/16/4 9/15/4
f 11/19/5 15/22/5 13/24/5 9/27/5
f 16/21/6 12/20/6 10/28/6 14/23/6
f 17/29/1 18/30/1 20/31/1 19/32/1
f 19/33/2 20/34/2 24/35/2 23/36/2
f 23/36/3 24/35/3 22/37/3 21/38/3
f 21/39/4 22/40/4 18/30/4 17/29/4
f 19/33/5 23/36/5 21/38/5 17/41/5
f 24/35/6 20/34/6 18/42/6 22/37/6
f 41/43/7 26/44/7 28/45/7 42/46/7
f 42/46/8 28/45/8 30/47/8 43/48/8
f 43/48/9 30/47/9 32/49/9 44/50/9
f 44/50/10 32/49/10 34/51/10 45/52/10
f 45/52/11 34/51/11 36/53/11 46/54/11
f 46/54/12 36/53/12 38/55/12 47/56/12
f 28/57/13 26/58/13 40/59/13 38/60/13 36/61/13 34/62/13 32/63/13 30/64/13
f 47/56/14 38/55/14 40/65/14 48/66/14
f 48/67/15 40/68/15 26/44/15 41/43/15
f 39/69/16 25/70/16 57/71/16 64/72/16
f 27/73/17 25/70/17 41/43/17 42/46/17
f 29/74/17 27/73/17 42/46/17 43/48/17
f 31/75/17 29/74/17 43/48/17 44/50/17
f 33/76/17 31/75/17 44/50/17 45/52/17
f 35/77/17 33/76/17 45/52/17 46/54/17
f 37/78/17 35/77/17 46/54/17 47/56/17
f 39/79/17 37/78/17 47/56/17 48/66/17
f 25/70/17 39/69/17 48/67/17 41/43/17
f 35/77/8 37/78/8 63/80/8 62/81/8
f 31/75/15 33/76/15 61/82/15 60/83/15
f 27/73/12 29/74/12 59/84/12 58/85/12
f 37/78/9 39/79/9 64/86/9 63/80/9
f 33/76/7 35/77/7 62/81/7 61/82/7
f 29/74/14 31/75/14 60/83/14 59/84/14
f 25/70/11 27/73/11 58/85/11 57/71/11
f 50/87/18 49/88/18 57/71/18 58/85/18
f 51/89/19 50/87/19 58/85/19 59/84/19
f 52/90/20 51/89/20 59/84/20 60/83/20
f 53/91/21 52/90/21 60/83/21 61/82/21
f 54/92/22 53/91/22 61/82/22 62/81/22
f 55/93/23 54/92/23 62/81/23 63/80/23
f 56/94/24 55/93/24 63/80/24 64/86/24
f 49/88/25 56/95/25 64/72/25 57/71/25
f 56/96/26 49/97/26 65/98/26 72/99/26
f 54/100/27 55/101/27 71/102/27 70/103/27
f 52/104/28 53/105/28 69/106/28 68/107/28
f 50/108/29 51/109/29 67/110/29 66/111/29
f 55/101/30 56/112/30 72/113/30 71/102/30
f 53/105/31 54/100/31 70/103/31 69/106/31
f 51/109/32 52/104/32 68/107/32 67/110/32
f 65/114/17 66/115/17 67/116/17 68/117/17 69/118/17 70/119/17 71/120/17 72/121/17
f 49/97/33 50/108/33 66/111/33 65/98/33
f 73/122/34 90/123/34 89/124/34 75/125/34
f 75/125/35 89/124/35 91/126/35 77/127/35
f 77/127/36 91/126/36 92/128/36 79/129/36
f 79/129/37 92/128/37 93/130/37 81/131/37
f 81/132/38 93/133/38 94/134/38 83/135/38
f 83/135/39 94/134/39 95/136/39 85/137/39
f 74/138/40 88/139/40 112/140/40 106/141/40
f 85/137/41 95/136/41 96/142/41 87/143/41
f 87/143/40 96/142/40 90/123/40 73/122/40
f 73/144/2 75/145/2 77/146/2 79/147/2 81/148/2 83/149/2 85/150/2 87/151/2
f 74/138/4 76/152/4 89/124/4 90/123/4
f 76/152/4 78/153/4 91/126/4 89/124/4
f 78/153/4 80/154/4 92/128/4 91/126/4
f 80/154/4 82/155/4 93/130/4 92/128/4
f 82/156/4 84/157/4 94/134/4 93/133/4
f 84/157/4 86/158/4 95/136/4 94/134/4
f 86/158/4 88/139/4 96/142/4 95/136/4
f 88/139/4 74/138/4 90/123/4 96/142/4
f 104/159/41 103/160/41 119/161/41 120/162/41
f 86/158/39 84/157/39 110/163/39 111/164/39
f 82/155/37 80/154/37 108/165/37 109/166/37
f 78/153/35 76/152/35 105/167/35 107/168/35
f 88/139/41 86/158/41 111/164/41 112/140/41
f 84/157/38 82/156/38 109/169/38 110/163/38
f 80/154/36 78/153/36 107/168/36 108/165/36
f 76/152/34 74/138/34 106/141/34 105/167/34
f 98/170/4 97/171/4 105/167/4 106/141/4
f 97/171/4 99/172/4 107/168/4 105/167/4
f 99/172/4 100/173/4 108/165/4 107/168/4
f 100/173/4 101/174/4 109/166/4 108/165/4
f 101/175/4 102/176/4 110/163/4 109/169/4
f 102/176/4 103/177/4 111/164/4 110/163/4
f 103/177/4 104/178/4 112/140/4 111/164/4
f 104/178/4 98/170/4 106/141/4 112/140/4
f 113/179/4 114/180/4 120/181/4 119/182/4 118/183/4 117/184/4 116/185/4 115/186/4
f 102/187/38 101/188/38 117/189/38 118/190/38
f 100/191/36 99/192/36 115/193/36 116/194/36
f 97/195/34 98/196/34 114/197/34 113/198/34
f 98/196/40 104/159/40 120/162/40 114/197/40
f 103/160/39 102/187/39 118/190/39 119/161/39
f 101/199/37 100/191/37 116/194/37 117/200/37
f 99/192/35 97/195/35 113/198/35 115/193/35
f 121/201/42 122/202/42 124/203/42 123/204/42
f 123/204/43 124/203/43 126/205/43 125/206/43
f 125/206/44 126/205/44 128/207/44 127/208/44
f 127/208/45 128/207/45 130/209/45 129/210/45
f 129/211/46 130/212/46 132/213/46 131/214/46
f 131/214/47 132/213/47 134/215/47 133/216/47
f 124/217/48 122/218/48 136/219/48 134/220/48 132/221/48 130/222/48 128/223/48 126/224/48
f 133/216/49 134/215/49 136/225/49 135/226/49
f 135/226/50 136/225/50 122/202/50 121/201/50
f 121/227/51 123/228/51 125/229/51 127/230/51 129/231/51 131/232/51 133/233/51 135/234/51
f 137/235/52 138/236/52 140/237/52 139/238/52
f 139/238/53 140/237/53 142/239/53 141/240/53
f 141/240/54 142/239/54 144/241/54 143/242/54
f 143/242/55 144/241/55 146/243/55 145/244/55
f 145/245/56 146/246/56 148/247/56 147/248/56
f 147/248/57 148/247/57 150/249/57 149/250/57
f 140/251/58 138/252/58 152/253/58 150/254/58 148/255/58 146/256/58 144/257/58 142/258/58
f 149/250/59 150/249/59 152/259/59 151/260/59
f 151/260/60 152/259/60 138/236/60 137/235/60
f 137/261/61 139/262/61 141/263/61 143/264/61 145/265/61 147/266/61 149/267/61 151/268/61
f 153/269/62 155/270/62 156/271/62 154/272/62
f 155/270/63 157/273/63 158/274/63 156/271/63
f 157/273/64 159/275/64 160/276/64 158/274/64
f 159/277/65 161/278/65 162/279/65 160/280/65
f 161/278/66 163/281/66 164/282/66 162/279/66
f 163/281/67 165/283/67 166/284/67 164/282/67
f 156/285/68 158/286/68 160/287/68 162/288/68 164/289/68 166/290/68 168/291/68 154/292/68
f 165/283/69 167/293/69 168/294/69 166/284/69
f 167/293/70 153/269/70 154/272/70 168/294/70
f 153/295/71 167/296/71 165/297/71 163/298/71 161/299/71 159/300/71 157/301/71 155/302/71
f 177/303/1 178/304/1 172/305/1 171/306/1
f 171/306/2 172/305/2 176/307/2 175/308/2
f 175/308/3 176/307/3 179/309/3 180/310/3
f 173/311/72 174/312/72 183/313/72 184/314/72
f 171/306/5 175/308/5 180/310/5 177/303/5
f 176/307/6 172/305/6 178/304/6 179/309/6
f 169/315/4 170/316/4 178/317/4 177/318/4
f 174/312/4 173/311/4 180/319/4 179/320/4
f 173/321/4 169/322/4 177/323/4 180/324/4
f 170/316/4 174/312/4 179/320/4 178/317/4
f 184/325/4 183/326/4 182/327/4 181/328/4
f 169/322/73 173/321/73 184/329/73 181/330/73
f 170/316/74 169/315/74 181/331/74 182/332/74
f 174/312/75 170/316/75 182/332/75 183/313/75
f 185/333/1 186/334/1 189/335/1 190/336/1
f 191/337/3 192/338/3 188/339/3 187/340/3
f 187/340/4 188/339/4 186/334/4 185/333/4
f 190/341/5 191/342/5 187/343/5 185/344/5
f 192/345/6 189/346/6 186/347/6 188/348/6
f 193/349/2 194/350/2 190/336/2 189/335/2
f 194/351/2 195/352/2 191/342/2 190/341/2
f 196/353/2 193/354/2 189/346/2 192/345/2
f 195/355/2 196/356/2 192/338/2 191/337/2
f 196/357/1 195/358/1 199/359/1 200/360/1
f 197/361/2 200/362/2 199/363/2 198/364/2
f 195/358/6 194/365/6 198/366/6 199/359/6
f 193/367/5 196/368/5 200/369/5 197/370/5
f 194/365/3 193/371/3 197/372/3 198/366/3
