# Blender 4.2.2 LTS
# www.blender.org
mtllib pillar.mtl
o pillar
v -0.864894 0.942723 2.510177
v 0.213354 7.804641 2.510177
v -1.200518 1.206401 2.375791
v -0.186964 7.656604 2.375790
v -0.154617 7.862462 2.510177
v -1.232865 1.000544 2.510177
v -0.119754 7.646043 2.375790
v -1.133308 1.195840 2.375791
v -0.864895 0.942723 0.270403
v 0.213354 7.804641 0.270403
v -1.232866 1.000544 0.270403
v -0.154618 7.862462 0.270403
v -1.200518 1.206401 0.270403
v -0.186965 7.656604 0.270403
v -1.133308 1.195840 0.270403
v -0.119755 7.646043 0.270403
v -1.232865 1.000544 2.174250
v -0.864894 0.942723 2.174250
v -1.401343 0.011656 2.510177
v -1.011241 0.011375 2.510177
v -1.401343 0.011656 2.174251
v -1.011241 0.011375 2.174250
v -0.864895 0.942723 -1.969370
v 0.213353 7.804641 -1.969371
v -1.200519 1.206401 -1.834984
v -0.186966 7.656604 -1.834984
v -0.154618 7.862462 -1.969371
v -1.232867 1.000544 -1.969370
v -0.119756 7.646043 -1.834984
v -1.133309 1.195840 -1.834984
v -1.232866 1.000544 -1.633444
v -0.864895 0.942723 -1.633443
v -1.401345 0.011656 -1.969370
v -1.011243 0.011375 -1.969370
v -1.401345 0.011656 -1.633443
v -1.011243 0.011375 -1.633443
v 1.280756 0.942722 -1.969370
v 0.202508 7.804640 -1.969371
v 1.616379 1.206401 -1.834984
v 0.602826 7.656604 -1.834984
v 0.570479 7.862461 -1.969371
v 1.648727 1.000543 -1.969371
v 0.535616 7.646043 -1.834984
v 1.549170 1.195840 -1.834984
v 1.280756 0.942722 0.270403
v 0.202507 7.804640 0.270403
v 1.648727 1.000543 0.270403
v 0.570479 7.862461 0.270403
v 1.616379 1.206401 0.270403
v 0.602826 7.656604 0.270403
v 1.549170 1.195840 0.270403
v 0.535616 7.646043 0.270403
v 1.648727 1.000543 -1.633444
v 1.280756 0.942722 -1.633443
v 1.817205 0.011656 -1.969371
v 1.427103 0.011375 -1.969371
v 1.817205 0.011656 -1.633444
v 1.427103 0.011375 -1.633443
v 1.280756 0.942722 2.510177
v 0.202508 7.804640 2.510177
v 1.616379 1.206401 2.375790
v 0.602826 7.656604 2.375790
v 0.570479 7.862462 2.510177
v 1.648727 1.000543 2.510177
v 0.535616 7.646043 2.375790
v 1.549170 1.195840 2.375791
v 1.648727 1.000543 2.174250
v 1.280756 0.942722 2.174250
v 1.817205 0.011655 2.510177
v 1.427103 0.011375 2.510177
v 1.817205 0.011655 2.174250
v 1.427103 0.011375 2.174250
vn 0.9879 -0.1552 -0.0000
vn -0.0000 -0.0000 1.0000
vn -0.9879 0.1552 -0.0000
vn -0.0000 -0.0000 -1.0000
vn 0.1552 0.9879 -0.0000
vn -0.1552 -0.9879 -0.0000
vn -0.0007 -1.0000 -0.0000
vn -0.9858 0.1680 -0.0000
vn -0.9879 -0.1552 -0.0000
vn 0.9879 0.1552 -0.0000
vn -0.1552 0.9879 -0.0000
vn 0.1552 -0.9879 -0.0000
vn 0.0007 -1.0000 -0.0000
vn 0.9858 0.1680 -0.0000
vt 0.413590 0.676623
vt 0.413590 0.830653
vt 0.336575 0.830653
vt 0.336575 0.676623
vt 0.348125 0.676623
vt 0.590962 0.005304
vt 0.744992 0.005304
vt 0.744992 0.159334
vt 0.590962 0.159334
vt 0.740371 0.163955
vt 0.595583 0.163955
vt 0.680956 0.282634
vt 0.753350 0.282634
vt 0.757971 0.287254
vt 0.680956 0.287255
vt 0.740371 0.192089
vt 0.595583 0.192089
vt 0.431760 0.213275
vt 0.504154 0.213275
vt 0.504154 0.241409
vt 0.431760 0.241409
vt 0.784505 0.452244
vt 0.929294 0.452244
vt 0.929294 0.524638
vt 0.784505 0.524638
vt 0.431760 0.208654
vt 0.497224 0.208654
vt 0.508775 0.208654
vt 0.757971 0.441285
vt 0.680956 0.441285
vt 0.372916 0.175037
vt 0.526946 0.175037
vt 0.526946 0.195943
vt 0.367569 0.197280
vt 0.680956 0.254500
vt 0.753350 0.254500
vt 0.015575 0.089813
vt 0.015575 0.249196
vt 0.004024 0.249196
vt 0.004024 0.089813
vt 0.372916 0.109573
vt 0.526946 0.109573
vt 0.224485 0.102327
vt 0.361685 0.172338
vt 0.356338 0.194580
vt 0.214982 0.120949
vt 0.214196 0.097077
vt 0.204694 0.115699
vt 0.479054 0.676623
vt 0.490605 0.676623
vt 0.490605 0.830653
vt 0.759689 0.192089
vt 0.759689 0.038058
vt 0.913719 0.038058
vt 0.913719 0.192089
vt 0.909098 0.033438
vt 0.764310 0.033438
vt 0.603941 0.287254
vt 0.608562 0.282634
vt 0.764310 0.005304
vt 0.909098 0.005304
vt 0.359366 0.241409
vt 0.359366 0.213275
vt 0.784505 0.597032
vt 0.929294 0.597032
vt 0.354745 0.208654
vt 0.366296 0.208654
vt 0.603941 0.441285
vt 0.245535 0.041922
vt 0.245343 0.064798
vt 0.091021 0.024952
vt 0.096078 0.004667
vt 0.608562 0.254500
vt 0.327070 0.004024
vt 0.327070 0.015575
vt 0.167687 0.015575
vt 0.167687 0.004024
vt 0.526946 0.044109
vt 0.372916 0.044109
vt 0.407145 0.007273
vt 0.411861 0.027640
vt 0.256893 0.064895
vt 0.257085 0.042019
vt 0.418398 0.004667
vt 0.423114 0.025034
vt 0.755096 0.782894
vt 0.061290 0.220590
vt 0.109781 0.160758
vt 0.803588 0.723062
vt 0.796315 0.732035
vt 0.697022 0.627801
vt 0.003216 0.065498
vt 0.131972 0.135654
vt 0.825778 0.697957
vt 0.155696 0.148933
vt 0.807874 0.677498
vt 0.156245 0.626444
vt 0.156244 0.554050
vt 0.183036 0.549429
vt 0.183036 0.626445
vt 0.138289 0.128579
vt 0.790467 0.657145
vt 0.030316 0.634232
vt 0.030316 0.706626
vt 0.003534 0.706626
vt 0.003534 0.634232
vt 0.004157 0.851996
vt 0.843632 0.851996
vt 0.843632 0.924390
vt 0.004157 0.924390
vt 0.057107 0.634232
vt 0.057107 0.699696
vt 0.057107 0.711247
vt 0.329665 0.549429
vt 0.329665 0.626445
vt 0.148970 0.509779
vt 0.004616 0.484051
vt 0.125826 0.483346
vt 0.282941 0.509922
vt 0.129463 0.626445
vt 0.129463 0.554051
vt 0.172915 0.076706
vt 0.332261 0.076706
vt 0.332261 0.088257
vt 0.172915 0.088257
vt 0.767216 0.441284
vt 0.767216 0.294655
vt 0.832680 0.294656
vt 0.832680 0.441284
vt 0.004549 0.546748
vt 0.148958 0.521330
vt 0.282929 0.521473
vt 0.125757 0.547712
vt 0.004549 0.472500
vt 0.125759 0.471796
vt 0.713877 0.833752
vt 0.706604 0.842726
vt 0.012798 0.280422
vt 0.747499 0.565520
vt 0.842801 0.676954
vt 0.148994 0.114650
vt 0.053693 0.003216
vt 0.166899 0.135109
vt 0.819078 0.663675
vt 0.183037 0.703460
vt 0.156245 0.698839
vt 0.795560 0.650861
vt 0.143383 0.122296
vt 0.003534 0.561838
vt 0.030316 0.561838
vt 0.004158 0.996784
vt 0.843632 0.996784
vt 0.057107 0.557217
vt 0.057107 0.568768
vt 0.329666 0.703460
vt 0.570650 0.219002
vt 0.570793 0.085031
vt 0.597032 0.242203
vt 0.596068 0.363411
vt 0.129463 0.698839
vt 0.004188 0.425710
vt 0.004188 0.414159
vt 0.163535 0.414159
vt 0.163535 0.425710
vt 0.898144 0.441285
vt 0.898144 0.294656
vt 0.533371 0.363344
vt 0.532666 0.242134
vt 0.559242 0.085019
vt 0.559099 0.218990
vt 0.521820 0.363411
vt 0.521116 0.242201
s 0
usemtl Материал
f 9/1/1 10/2/1 2/3/1 1/4/1 18/5/1
f 1/6/2 2/7/2 5/8/2 6/9/2
f 4/10/3 3/11/3 6/9/3 5/8/3
f 14/12/3 4/13/3 5/14/3 12/15/3
f 3/11/4 4/10/4 7/16/4 8/17/4
f 13/18/5 3/19/5 8/20/5 15/21/5
f 8/22/3 7/23/3 16/24/3 15/25/3
f 3/19/3 13/18/3 11/26/3 17/27/3 6/28/3
f 5/14/5 2/29/5 10/30/5 12/15/5
f 17/31/4 18/32/4 22/33/4 21/34/4
f 4/13/6 14/12/6 16/35/6 7/36/6
f 20/37/7 19/38/7 21/39/7 22/40/7
f 18/32/6 17/31/6 11/41/6 9/42/6
f 1/43/2 6/44/2 19/45/2 20/46/2
f 6/44/8 17/31/8 21/34/8 19/45/8
f 18/47/1 1/43/1 20/46/1 22/48/1
f 9/1/1 32/49/1 23/50/1 24/51/1 10/2/1
f 23/52/4 28/53/4 27/54/4 24/55/4
f 26/56/3 27/54/3 28/53/3 25/57/3
f 14/12/3 12/15/3 27/58/3 26/59/3
f 25/57/2 30/60/2 29/61/2 26/56/2
f 13/18/5 15/21/5 30/62/5 25/63/5
f 30/64/3 15/25/3 16/24/3 29/65/3
f 25/63/3 28/66/3 31/67/3 11/26/3 13/18/3
f 27/58/5 12/15/5 10/30/5 24/68/5
f 31/69/2 35/70/2 36/71/2 32/72/2
f 26/59/6 29/73/6 16/35/6 14/12/6
f 34/74/7 36/75/7 35/76/7 33/77/7
f 32/78/6 9/42/6 11/41/6 31/79/6
f 23/80/4 34/81/4 33/82/4 28/83/4
f 28/83/8 33/82/8 35/70/8 31/69/8
f 32/84/1 36/85/1 34/81/1 23/80/1
f 45/86/9 46/87/9 38/88/9 37/89/9 54/90/9
f 37/91/4 38/92/4 41/93/4 42/94/4
f 40/95/10 39/96/10 42/94/10 41/93/10
f 50/97/10 40/98/10 41/99/10 48/100/10
f 39/96/2 40/95/2 43/101/2 44/102/2
f 49/103/11 39/104/11 44/105/11 51/106/11
f 44/107/10 43/108/10 52/109/10 51/110/10
f 39/104/10 49/103/10 47/111/10 53/112/10 42/113/10
f 41/99/11 38/114/11 46/115/11 48/100/11
f 53/116/2 54/117/2 58/118/2 57/119/2
f 40/98/12 50/97/12 52/120/12 43/121/12
f 56/122/13 55/123/13 57/124/13 58/125/13
f 54/126/12 53/127/12 47/128/12 45/129/12
f 37/130/4 42/131/4 55/132/4 56/133/4
f 42/131/14 53/116/14 57/119/14 55/132/14
f 54/117/9 37/134/9 56/135/9 58/118/9
f 45/86/9 68/136/9 59/137/9 60/138/9 46/87/9
f 59/139/2 64/140/2 63/141/2 60/142/2
f 62/143/10 63/141/10 64/140/10 61/144/10
f 50/97/10 48/100/10 63/145/10 62/146/10
f 61/144/4 66/147/4 65/148/4 62/143/4
f 49/103/11 51/106/11 66/149/11 61/150/11
f 66/151/10 51/110/10 52/109/10 65/152/10
f 61/150/10 64/153/10 67/154/10 47/111/10 49/103/10
f 63/145/11 48/100/11 46/115/11 60/155/11
f 67/156/4 71/157/4 72/158/4 68/159/4
f 62/146/12 65/160/12 52/120/12 50/97/12
f 70/161/13 72/162/13 71/163/13 69/164/13
f 68/165/12 45/129/12 47/128/12 67/166/12
f 59/167/2 70/168/2 69/169/2 64/170/2
f 64/170/14 69/169/14 71/157/14 67/156/14
f 68/171/9 72/172/9 70/168/9 59/167/9
