# Blender 4.2.2 LTS
# www.blender.org
mtllib pipe 3.mtl
o pipe_3
v 0.108443 3.270786 -4.536293
v 0.108443 3.270786 -4.465307
v 0.261546 3.207368 -4.536293
v 0.261546 3.207368 -4.465307
v 0.324964 3.054265 -4.536293
v 0.324964 3.054265 -4.465307
v 0.261546 2.901162 -4.536293
v 0.261546 2.901162 -4.465307
v 0.108443 2.837745 -4.536293
v 0.108443 2.837745 -4.465307
v -0.044660 2.901162 -4.536293
v -0.044660 2.901162 -4.465307
v -0.108077 3.054265 -4.536293
v -0.108077 3.054265 -4.465307
v -0.044660 3.207368 -4.536293
v -0.044660 3.207368 -4.465307
v 0.108443 3.270785 -3.479584
v 0.108443 3.270785 -3.408597
v 0.261546 3.207368 -3.479584
v 0.261546 3.207368 -3.408597
v 0.324964 3.054265 -3.479584
v 0.324964 3.054265 -3.408597
v 0.261546 2.901162 -3.479584
v 0.261546 2.901162 -3.408597
v 0.108443 2.837744 -3.479584
v 0.108443 2.837744 -3.408597
v -0.044660 2.901162 -3.479584
v -0.044660 2.901162 -3.408597
v -0.108077 3.054265 -3.479584
v -0.108077 3.054265 -3.408597
v -0.044660 3.207368 -3.479584
v -0.044660 3.207368 -3.408597
v 0.108443 1.766007 0.666642
v 0.108443 1.766007 1.978890
v 0.267906 1.699955 0.666642
v 0.267906 1.699955 1.978890
v 0.333957 1.540493 0.666642
v 0.333957 1.540493 1.978890
v 0.267906 1.381031 0.666642
v 0.267906 1.381031 1.978890
v 0.108443 1.314979 0.666642
v 0.108443 1.314979 1.978890
v -0.051019 1.381031 0.666642
v -0.051019 1.381031 1.978890
v -0.117071 1.540493 0.666642
v -0.117071 1.540493 1.978890
v -0.051019 1.699955 0.666642
v -0.051019 1.699955 1.978890
v 0.108443 1.809930 1.847190
v 0.298964 1.731014 1.847190
v 0.377880 1.540493 1.847190
v 0.298964 1.349972 1.847190
v 0.108443 1.271056 1.847190
v -0.082077 1.349972 1.847190
v -0.160994 1.540493 1.847190
v -0.082077 1.731014 1.847190
v 0.298964 1.731014 0.782380
v 0.377880 1.540493 0.782380
v 0.298964 1.349972 0.782380
v 0.108443 1.271056 0.782380
v -0.082077 1.349972 0.782380
v -0.160994 1.540493 0.782380
v -0.082077 1.731014 0.782380
v 0.108443 1.809930 0.782380
v 0.108443 3.324894 -1.831090
v 0.108443 3.324894 -1.742365
v 0.299807 3.245629 -1.831090
v 0.299807 3.245629 -1.742365
v 0.379072 3.054265 -1.831090
v 0.379072 3.054265 -1.742365
v 0.299807 2.862901 -1.831090
v 0.299807 2.862901 -1.742365
v 0.108443 2.783636 -1.831090
v 0.108443 2.783636 -1.742365
v -0.082920 2.862901 -1.831090
v -0.082920 2.862901 -1.742365
v -0.162186 3.054265 -1.831090
v -0.162186 3.054265 -1.742365
v -0.082920 3.245629 -1.831090
v -0.082920 3.245629 -1.742365
v 0.108443 3.324894 -1.927960
v 0.108443 3.324894 -1.839235
v 0.299807 3.245629 -1.927960
v 0.299807 3.245629 -1.839235
v 0.379072 3.054265 -1.927960
v 0.379072 3.054265 -1.839235
v 0.299807 2.862901 -1.927960
v 0.299807 2.862901 -1.839235
v 0.108443 2.783636 -1.927960
v 0.108443 2.783636 -1.839235
v -0.082920 2.862901 -1.927960
v -0.082920 2.862901 -1.839235
v -0.162186 3.054265 -1.927960
v -0.162186 3.054265 -1.839235
v -0.082920 3.245629 -1.927960
v -0.082920 3.245629 -1.839235
v 0.108443 1.811122 0.309894
v 0.108443 1.811122 0.398619
v 0.299807 1.731856 0.309894
v 0.299807 1.731856 0.398619
v 0.379072 1.540493 0.309894
v 0.379072 1.540493 0.398619
v 0.299807 1.349129 0.309894
v 0.299807 1.349129 0.398619
v 0.108443 1.269864 0.309894
v 0.108443 1.269864 0.398619
v -0.082920 1.349129 0.309894
v -0.082920 1.349129 0.398619
v -0.162186 1.540493 0.309894
v -0.162186 1.540493 0.398619
v -0.082920 1.731856 0.309894
v -0.082920 1.731856 0.398619
v 0.108443 1.811122 0.213024
v 0.108443 1.811122 0.301749
v 0.299807 1.731856 0.213024
v 0.299807 1.731856 0.301749
v 0.379072 1.540493 0.213024
v 0.379072 1.540493 0.301749
v 0.299807 1.349129 0.213024
v 0.299807 1.349129 0.301749
v 0.108443 1.269864 0.213024
v 0.108443 1.269864 0.301749
v -0.082920 1.349129 0.213024
v -0.082920 1.349129 0.301749
v -0.162186 1.540493 0.213024
v -0.162186 1.540493 0.301749
v -0.082920 1.731856 0.213024
v -0.082920 1.731856 0.301749
v 0.108443 3.325660 -5.586440
v 0.108443 3.288580 -5.517597
v 0.299807 3.246395 -5.586440
v 0.273587 3.220175 -5.517597
v 0.379072 3.055031 -5.586440
v 0.341992 3.055031 -5.517597
v 0.299807 2.863667 -5.586440
v 0.273587 2.889887 -5.517597
v 0.108443 2.784402 -5.586440
v 0.108443 2.821482 -5.517597
v -0.082920 2.863667 -5.586440
v -0.056701 2.889887 -5.517597
v -0.162186 3.055031 -5.586440
v -0.125105 3.055031 -5.517597
v -0.082920 3.246395 -5.586440
v -0.056701 3.220175 -5.517597
v 0.108443 1.811122 4.079629
v 0.108443 1.811122 4.625484
v 0.299807 1.731856 4.079629
v 0.299807 1.731856 4.625484
v 0.379072 1.540493 4.079629
v 0.379072 1.540493 4.625484
v 0.299807 1.349129 4.079629
v 0.299807 1.349129 4.625484
v 0.108443 1.269864 4.079629
v 0.108443 1.269864 4.625484
v -0.082920 1.349129 4.079629
v -0.082920 1.349129 4.625484
v -0.162186 1.540493 4.079629
v -0.162186 1.540493 4.625484
v -0.082920 1.731856 4.079629
v -0.082920 1.731856 4.625484
v -0.064762 1.641911 4.582005
v 0.008443 1.715117 4.582005
v 0.108443 1.741911 4.582005
v 0.208443 1.715117 4.582005
v 0.281648 1.641912 4.582005
v 0.308443 1.541911 4.582005
v 0.281648 1.441911 4.582005
v 0.208443 1.368706 4.582005
v 0.108443 1.341911 4.582005
v 0.008443 1.368706 4.582005
v -0.064762 1.441911 4.582005
v -0.091557 1.541911 4.582005
v -0.064762 1.641264 -0.054559
v 0.008443 1.713996 -0.049047
v 0.108443 1.740618 -0.047028
v 0.208443 1.713996 -0.049047
v 0.281648 1.641264 -0.054559
v 0.308443 1.541911 -0.062090
v 0.281648 1.442558 -0.069622
v 0.208443 1.369827 -0.075135
v 0.108443 1.343205 -0.077154
v 0.008443 1.369826 -0.075135
v -0.064762 1.442558 -0.069622
v -0.091557 1.541911 -0.062090
v -0.064762 1.723542 -0.292701
v 0.008443 1.790915 -0.273712
v 0.108443 1.815575 -0.266760
v 0.208443 1.790915 -0.273712
v 0.281648 1.723542 -0.292701
v 0.308443 1.631508 -0.318641
v 0.281648 1.539474 -0.344582
v 0.208443 1.472101 -0.363571
v 0.108443 1.447441 -0.370522
v 0.008443 1.472101 -0.363571
v -0.064762 1.539474 -0.344582
v -0.091557 1.631508 -0.318641
v -0.064762 1.920312 -0.493796
v 0.008443 1.973385 -0.460356
v 0.108443 1.992811 -0.448116
v 0.208443 1.973385 -0.460356
v 0.281648 1.920312 -0.493796
v 0.308443 1.847813 -0.539477
v 0.281648 1.775315 -0.585157
v 0.208443 1.722242 -0.618597
v 0.108443 1.702816 -0.630837
v 0.008443 1.722242 -0.618597
v -0.064762 1.775315 -0.585157
v -0.091557 1.847813 -0.539477
v -0.064762 2.821630 -0.927210
v 0.008443 2.874703 -0.893770
v 0.108443 2.894129 -0.881530
v 0.208443 2.874703 -0.893770
v 0.281648 2.821630 -0.927210
v 0.308443 2.749131 -0.972890
v 0.281648 2.676633 -1.018570
v 0.208443 2.623560 -1.052011
v 0.108443 2.604134 -1.064250
v 0.008443 2.623560 -1.052011
v -0.064762 2.676632 -1.018570
v -0.091557 2.749131 -0.972890
v -0.064762 3.057470 -1.167785
v 0.008443 3.124844 -1.148796
v 0.108443 3.149504 -1.141845
v 0.208443 3.124844 -1.148796
v 0.281648 3.057470 -1.167785
v 0.308443 2.965437 -1.193725
v 0.281648 2.873403 -1.219666
v 0.208443 2.806030 -1.238655
v 0.108443 2.781369 -1.245606
v 0.008443 2.806030 -1.238655
v -0.064762 2.873403 -1.219666
v -0.091557 2.965436 -1.193725
v -0.064762 3.154386 -1.442745
v 0.008443 3.227118 -1.437231
v 0.108443 3.253740 -1.435213
v 0.208443 3.227118 -1.437231
v 0.281648 3.154386 -1.442745
v 0.308443 3.055033 -1.450276
v 0.281648 2.955680 -1.457808
v 0.208443 2.882949 -1.463320
v 0.108443 2.856327 -1.465339
v 0.008443 2.882948 -1.463320
v -0.064762 2.955680 -1.457808
v -0.091557 3.055033 -1.450276
v -0.064762 3.155033 -5.578188
v 0.008443 3.228239 -5.578188
v 0.108443 3.255033 -5.578188
v 0.208443 3.228239 -5.578188
v 0.281648 3.155033 -5.578188
v 0.308443 3.055033 -5.578188
v 0.281648 2.955033 -5.578188
v 0.208443 2.881828 -5.578188
v 0.108443 2.855033 -5.578188
v 0.008443 2.881828 -5.578188
v -0.064762 2.955033 -5.578188
v -0.091557 3.055033 -5.578188
v -0.064762 3.154695 -3.414969
v -0.091557 3.055033 -3.418909
v 0.008443 3.227652 -3.412085
v 0.108443 3.254357 -3.411029
v 0.208443 3.227652 -3.412085
v 0.281648 3.154695 -3.414969
v 0.308443 3.055033 -3.418909
v 0.281648 2.955371 -3.422848
v 0.208443 2.882414 -3.425732
v 0.108443 2.855710 -3.426788
v 0.008443 2.882414 -3.425732
v -0.064762 2.955371 -3.422848
v -0.019337 3.128682 -4.498220
v -0.039105 3.055033 -4.500197
v 0.034669 3.182597 -4.496775
v 0.108443 3.202331 -4.496245
v 0.182217 3.182597 -4.496775
v 0.236223 3.128682 -4.498220
v 0.255991 3.055033 -4.500197
v 0.236223 2.981384 -4.502172
v 0.182217 2.927469 -4.503619
v 0.108443 2.907735 -4.504148
v 0.034669 2.927469 -4.503619
v -0.019337 2.981384 -4.502172
v -0.019337 3.128561 -3.444817
v -0.039105 3.055033 -3.448710
v 0.034669 3.182387 -3.441965
v 0.108443 3.202089 -3.440922
v 0.182217 3.182387 -3.441965
v 0.236223 3.128561 -3.444817
v 0.255991 3.055033 -3.448710
v 0.236223 2.981505 -3.452605
v 0.182217 2.927679 -3.455456
v 0.108443 2.907977 -3.456500
v 0.034669 2.927679 -3.455456
v -0.019337 2.981505 -3.452605
v -0.064762 3.154868 -4.520686
v -0.091557 3.055033 -4.522612
v 0.008443 3.227952 -4.519277
v 0.108443 3.254702 -4.518760
v 0.208443 3.227952 -4.519277
v 0.281648 3.154868 -4.520686
v 0.308443 3.055033 -4.522612
v 0.281648 2.955199 -4.524539
v 0.208443 2.882115 -4.525949
v 0.108443 2.855364 -4.526464
v 0.008443 2.882115 -4.525949
v -0.064762 2.955199 -4.524539
vn 0.3827 0.9239 -0.0000
vn 0.9239 0.3827 -0.0000
vn 0.9239 -0.3827 -0.0000
vn 0.3827 -0.9239 -0.0000
vn -0.3827 -0.9239 -0.0000
vn -0.9239 -0.3827 -0.0000
vn -0.0000 -0.0000 1.0000
vn -0.9239 0.3827 -0.0000
vn -0.3827 0.9239 -0.0000
vn -0.0000 -0.0000 -1.0000
vn 0.3657 0.8829 0.2945
vn 0.8829 0.3657 0.2945
vn 0.8829 -0.3657 0.2945
vn 0.3657 -0.8829 0.2945
vn -0.3657 -0.8829 0.2945
vn -0.8829 -0.3657 0.2945
vn -0.8829 0.3657 0.2945
vn -0.3657 0.8829 0.2945
vn 0.3611 0.8718 -0.3309
vn 0.8718 0.3611 -0.3309
vn 0.8718 -0.3611 -0.3309
vn 0.3611 -0.8718 -0.3309
vn -0.3611 -0.8718 -0.3309
vn -0.8718 -0.3611 -0.3309
vn -0.8718 0.3611 -0.3309
vn -0.3611 0.8718 -0.3309
vn 0.3426 0.8271 0.4455
vn 0.8271 0.3426 0.4455
vn 0.8271 -0.3426 0.4455
vn 0.3426 -0.8271 0.4455
vn -0.3426 -0.8271 0.4455
vn -0.8271 -0.3426 0.4455
vn -0.8271 0.3426 0.4455
vn -0.3426 0.8271 0.4455
vn -0.9657 0.2596 -0.0000
vn -0.7060 0.7083 -0.0001
vn -0.2580 0.9661 -0.0003
vn 0.2580 0.9661 -0.0003
vn 0.7060 0.7083 -0.0001
vn 0.9657 0.2596 -0.0000
vn 0.9657 -0.2596 -0.0000
vn 0.7060 -0.7082 -0.0001
vn 0.2580 -0.9661 -0.0003
vn -0.2580 -0.9661 -0.0003
vn -0.7060 -0.7082 -0.0001
vn -0.9657 -0.2596 -0.0000
vn -0.9631 0.2542 0.0883
vn -0.6923 0.6824 0.2347
vn -0.2490 0.9165 0.3132
vn 0.2490 0.9165 0.3132
vn 0.6923 0.6824 0.2347
vn 0.9631 0.2542 0.0883
vn 0.9631 -0.2541 -0.0892
vn 0.6918 -0.6808 -0.2407
vn 0.2486 -0.9128 -0.3240
vn -0.2486 -0.9128 -0.3240
vn -0.6918 -0.6808 -0.2407
vn -0.9631 -0.2541 -0.0892
vn -0.9525 0.2175 0.2130
vn -0.6425 0.5478 0.5358
vn -0.2192 0.6977 0.6820
vn 0.2192 0.6977 0.6820
vn 0.6425 0.5478 0.5358
vn 0.9525 0.2175 0.2130
vn 0.9525 -0.2175 -0.2131
vn 0.6423 -0.5472 -0.5366
vn 0.2191 -0.6965 -0.6833
vn -0.2191 -0.6965 -0.6833
vn -0.6423 -0.5472 -0.5366
vn -0.9525 -0.2175 -0.2131
vn -0.9381 0.1501 0.3121
vn -0.5874 0.3507 0.7293
vn -0.1909 0.4254 0.8846
vn 0.1909 0.4254 0.8846
vn 0.5874 0.3507 0.7293
vn 0.9381 0.1501 0.3121
vn 0.9381 -0.1501 -0.3121
vn 0.5874 -0.3507 -0.7293
vn 0.1909 -0.4254 -0.8846
vn -0.1909 -0.4254 -0.8846
vn -0.5874 -0.3507 -0.7293
vn -0.9381 -0.1501 -0.3121
vn -0.9525 0.2175 0.2131
vn -0.6423 0.5472 0.5366
vn -0.2191 0.6965 0.6833
vn 0.2191 0.6965 0.6833
vn 0.6423 0.5472 0.5366
vn 0.9525 0.2175 0.2131
vn 0.9525 -0.2175 -0.2130
vn 0.6425 -0.5478 -0.5358
vn 0.2192 -0.6977 -0.6820
vn -0.2192 -0.6977 -0.6820
vn -0.6425 -0.5478 -0.5358
vn -0.9525 -0.2175 -0.2130
vn -0.9631 0.2541 0.0892
vn -0.6918 0.6808 0.2407
vn -0.2486 0.9128 0.3240
vn 0.2486 0.9128 0.3240
vn 0.6918 0.6808 0.2407
vn 0.9631 0.2541 0.0892
vn 0.9631 -0.2542 -0.0883
vn 0.6923 -0.6824 -0.2347
vn 0.2490 -0.9165 -0.3132
vn -0.2490 -0.9165 -0.3132
vn -0.6923 -0.6824 -0.2347
vn -0.9631 -0.2542 -0.0883
vn -0.9659 0.2590 -0.0000
vn -0.7068 0.7074 0.0002
vn -0.2586 0.9660 0.0003
vn 0.2586 0.9660 0.0003
vn 0.7068 0.7074 0.0002
vn 0.9659 0.2590 -0.0000
vn 0.9659 -0.2590 -0.0000
vn 0.7068 -0.7074 0.0002
vn 0.2586 -0.9660 0.0003
vn -0.2586 -0.9660 0.0003
vn -0.7068 -0.7074 0.0002
vn -0.9659 -0.2590 -0.0000
vn -0.9656 -0.2600 -0.0000
vn -0.7054 -0.7089 0.0002
vn -0.2576 -0.9662 0.0003
vn 0.2576 -0.9662 0.0003
vn 0.7054 -0.7089 0.0002
vn 0.9656 -0.2600 -0.0000
vn 0.9656 0.2600 -0.0000
vn 0.7054 0.7088 0.0002
vn 0.2576 0.9662 0.0003
vn -0.2576 0.9662 0.0003
vn -0.7054 0.7088 0.0002
vn -0.9656 0.2600 -0.0000
vn -0.9658 -0.2594 -0.0000
vn -0.7062 -0.7080 0.0001
vn -0.2582 -0.9661 0.0002
vn 0.2582 -0.9661 0.0002
vn 0.7062 -0.7080 0.0001
vn 0.9658 -0.2594 -0.0000
vn 0.9658 0.2594 -0.0000
vn 0.7062 0.7080 0.0001
vn 0.2582 0.9661 0.0002
vn -0.2582 0.9661 0.0002
vn -0.7062 0.7080 0.0001
vn -0.9658 0.2594 -0.0000
vn -0.4799 0.1680 -0.8611
vn -0.3394 0.3795 -0.8607
vn -0.1217 0.4946 -0.8605
vn 0.1217 0.4946 -0.8605
vn 0.3394 0.3795 -0.8607
vn 0.4799 0.1680 -0.8611
vn 0.4988 -0.0951 -0.8615
vn 0.3771 -0.3394 -0.8617
vn 0.1406 -0.4874 -0.8618
vn -0.1406 -0.4874 -0.8618
vn -0.3771 -0.3394 -0.8617
vn -0.4988 -0.0951 -0.8615
vn -0.3852 -0.1240 0.9145
vn -0.2750 -0.2961 0.9147
vn -0.0992 -0.3913 0.9149
vn 0.0992 -0.3914 0.9149
vn 0.2750 -0.2961 0.9147
vn 0.3852 -0.1240 0.9145
vn 0.3962 0.0858 0.9141
vn 0.2970 0.2770 0.9138
vn 0.1102 0.3913 0.9136
vn -0.1102 0.3913 0.9136
vn -0.2970 0.2770 0.9138
vn -0.3962 0.0858 0.9141
vt 0.181756 0.681483
vt 0.181756 0.797723
vt 0.137273 0.797723
vt 0.137273 0.681483
vt 0.092790 0.797723
vt 0.092790 0.681483
vt 0.048308 0.797723
vt 0.048307 0.681483
vt 0.003825 0.797723
vt 0.003825 0.681483
vt 0.359687 0.681483
vt 0.359687 0.797723
vt 0.315205 0.797723
vt 0.315205 0.681483
vt 0.270722 0.797723
vt 0.270722 0.681483
vt 0.995373 0.965699
vt 0.963919 0.997153
vt 0.919436 0.997153
vt 0.887982 0.965699
vt 0.887982 0.921216
vt 0.919436 0.889762
vt 0.963919 0.889762
vt 0.995373 0.921216
vt 0.226239 0.797723
vt 0.226239 0.681483
vt 0.406581 0.882640
vt 0.438035 0.914094
vt 0.438035 0.958577
vt 0.406581 0.990031
vt 0.362098 0.990031
vt 0.330644 0.958577
vt 0.330644 0.914094
vt 0.362098 0.882640
vt 0.698007 0.543224
vt 0.581768 0.543224
vt 0.581768 0.498741
vt 0.698007 0.498741
vt 0.581768 0.454258
vt 0.698007 0.454258
vt 0.581768 0.409776
vt 0.698007 0.409776
vt 0.581768 0.365293
vt 0.698007 0.365293
vt 0.698007 0.721156
vt 0.581768 0.721156
vt 0.581768 0.676673
vt 0.698007 0.676673
vt 0.581768 0.632190
vt 0.698007 0.632190
vt 0.736031 0.882640
vt 0.780514 0.882640
vt 0.811968 0.914094
vt 0.811968 0.958577
vt 0.780514 0.990031
vt 0.736031 0.990031
vt 0.704577 0.958577
vt 0.704577 0.914094
vt 0.581768 0.587707
vt 0.698007 0.587707
vt 0.150203 0.807853
vt 0.194686 0.807853
vt 0.226140 0.839307
vt 0.226140 0.883790
vt 0.194686 0.915244
vt 0.150203 0.915244
vt 0.118749 0.883790
vt 0.118749 0.839307
vt 0.145368 0.224500
vt 0.165280 0.224830
vt 0.163822 0.274675
vt 0.145004 0.274809
vt 0.166370 0.325792
vt 0.145061 0.326392
vt 0.166914 0.376854
vt 0.147527 0.378825
vt 0.174931 0.424466
vt 0.156086 0.432407
vt 0.161002 0.003129
vt 0.184295 0.012671
vt 0.173715 0.068277
vt 0.151679 0.065826
vt 0.169633 0.121638
vt 0.148702 0.120710
vt 0.035630 0.806986
vt 0.080472 0.806986
vt 0.112180 0.838694
vt 0.112180 0.883536
vt 0.080472 0.915244
vt 0.035630 0.915244
vt 0.003922 0.883536
vt 0.003922 0.838694
vt 0.167200 0.173661
vt 0.146812 0.173108
vt 0.785619 0.668080
vt 0.785619 0.623238
vt 0.817327 0.591530
vt 0.862169 0.591530
vt 0.893877 0.623238
vt 0.893877 0.668080
vt 0.862169 0.699788
vt 0.817327 0.699788
vt 0.034699 0.166411
vt 0.033423 0.217922
vt 0.034971 0.115276
vt 0.032031 0.063978
vt 0.020782 0.009931
vt 0.030961 0.375883
vt 0.021877 0.432693
vt 0.032342 0.323945
vt 0.032434 0.270911
vt 0.014313 0.217529
vt 0.011782 0.270724
vt 0.013415 0.323736
vt 0.012795 0.374084
vt 0.003701 0.424350
vt 0.003701 0.018654
vt 0.014428 0.066451
vt 0.016696 0.115839
vt 0.016107 0.166268
vt 0.580878 0.180866
vt 0.697117 0.180866
vt 0.697117 0.225349
vt 0.580878 0.225349
vt 0.697117 0.269831
vt 0.580878 0.269831
vt 0.697117 0.314314
vt 0.580878 0.314314
vt 0.697117 0.358797
vt 0.580878 0.358797
vt 0.580878 0.002934
vt 0.697117 0.002934
vt 0.697117 0.047417
vt 0.580878 0.047417
vt 0.697117 0.091900
vt 0.580878 0.091900
vt 0.833965 0.807853
vt 0.878448 0.807853
vt 0.909902 0.839307
vt 0.909902 0.883790
vt 0.878448 0.915244
vt 0.833965 0.915244
vt 0.802511 0.883790
vt 0.802511 0.839307
vt 0.697117 0.136383
vt 0.580878 0.136383
vt 0.918806 0.219648
vt 0.918806 0.264131
vt 0.887351 0.295585
vt 0.842869 0.295585
vt 0.811414 0.264131
vt 0.811414 0.219648
vt 0.842869 0.188194
vt 0.887351 0.188194
vt 0.573363 0.180866
vt 0.457124 0.180866
vt 0.457124 0.136383
vt 0.573363 0.136383
vt 0.457124 0.091900
vt 0.573363 0.091900
vt 0.457124 0.047417
vt 0.573363 0.047417
vt 0.457124 0.002934
vt 0.573363 0.002934
vt 0.573363 0.358797
vt 0.457124 0.358797
vt 0.457124 0.314314
vt 0.573363 0.314314
vt 0.457124 0.269831
vt 0.573363 0.269831
vt 0.857114 0.008350
vt 0.901597 0.008350
vt 0.933051 0.039804
vt 0.933051 0.084287
vt 0.901597 0.115741
vt 0.857114 0.115741
vt 0.825660 0.084287
vt 0.825660 0.039804
vt 0.457124 0.225349
vt 0.573363 0.225349
vt 0.650560 0.807853
vt 0.695043 0.807853
vt 0.726497 0.839307
vt 0.726497 0.883790
vt 0.695043 0.915244
vt 0.650560 0.915244
vt 0.619106 0.883790
vt 0.619106 0.839307
vt 0.442879 0.543224
vt 0.559118 0.543224
vt 0.559118 0.587707
vt 0.442879 0.587707
vt 0.559118 0.632190
vt 0.442879 0.632190
vt 0.559118 0.676673
vt 0.442879 0.676673
vt 0.559118 0.721156
vt 0.442879 0.721156
vt 0.442879 0.365293
vt 0.559118 0.365293
vt 0.559118 0.409776
vt 0.442879 0.409776
vt 0.559118 0.454258
vt 0.442879 0.454258
vt 0.874920 0.480217
vt 0.919403 0.480217
vt 0.950857 0.511671
vt 0.950857 0.556154
vt 0.919403 0.587608
vt 0.874920 0.587608
vt 0.843466 0.556154
vt 0.843466 0.511671
vt 0.559118 0.498741
vt 0.442879 0.498741
vt 0.555557 0.885604
vt 0.555557 0.930087
vt 0.524103 0.961541
vt 0.479620 0.961541
vt 0.448166 0.930086
vt 0.448166 0.885604
vt 0.479620 0.854150
vt 0.524103 0.854150
vt 0.180866 0.555059
vt 0.180866 0.671298
vt 0.136383 0.671298
vt 0.136383 0.555059
vt 0.091900 0.671298
vt 0.091900 0.555059
vt 0.047417 0.671298
vt 0.047417 0.555059
vt 0.002934 0.671298
vt 0.002934 0.555059
vt 0.358797 0.555059
vt 0.358797 0.671298
vt 0.314314 0.671298
vt 0.314314 0.555059
vt 0.269831 0.671298
vt 0.269831 0.555059
vt 0.343662 0.883790
vt 0.312208 0.915244
vt 0.267725 0.915244
vt 0.236271 0.883790
vt 0.236271 0.839307
vt 0.267725 0.807853
vt 0.312208 0.807853
vt 0.343662 0.839307
vt 0.225349 0.671298
vt 0.225349 0.555059
vt 0.882042 0.695673
vt 0.926525 0.695673
vt 0.957979 0.727128
vt 0.957979 0.771610
vt 0.926525 0.803065
vt 0.882042 0.803065
vt 0.850588 0.771610
vt 0.850588 0.727128
vt 0.450500 0.217911
vt 0.403507 0.217911
vt 0.399282 0.168076
vt 0.445603 0.160163
vt 0.386725 0.119664
vt 0.431053 0.104065
vt 0.366197 0.074057
vt 0.407265 0.051217
vt 0.338282 0.032557
vt 0.374919 0.003129
vt 0.374919 0.432693
vt 0.338282 0.403265
vt 0.366197 0.361766
vt 0.407265 0.384605
vt 0.386725 0.316159
vt 0.431053 0.331757
vt 0.591417 0.730397
vt 0.626782 0.765762
vt 0.626782 0.815776
vt 0.591417 0.851142
vt 0.541403 0.851142
vt 0.506037 0.815776
vt 0.506037 0.765762
vt 0.541403 0.730397
vt 0.399282 0.267746
vt 0.445603 0.275659
vt 0.795916 0.696981
vt 0.836897 0.737961
vt 0.836897 0.795916
vt 0.795916 0.836897
vt 0.737962 0.836897
vt 0.696981 0.795916
vt 0.696981 0.737962
vt 0.737962 0.696981
vt 0.332088 0.217911
vt 0.191774 0.217911
vt 0.191774 0.164215
vt 0.332088 0.164215
vt 0.191774 0.110520
vt 0.332088 0.110520
vt 0.191774 0.056824
vt 0.332088 0.056824
vt 0.191774 0.003129
vt 0.332088 0.003129
vt 0.332088 0.432693
vt 0.191774 0.432693
vt 0.191774 0.378998
vt 0.332088 0.378998
vt 0.191774 0.325302
vt 0.332088 0.325302
vt 0.367163 0.820296
vt 0.367163 0.766600
vt 0.405132 0.728632
vt 0.458828 0.728632
vt 0.496796 0.766600
vt 0.496796 0.820296
vt 0.458828 0.858264
vt 0.405132 0.858264
vt 0.191774 0.271607
vt 0.332088 0.271607
vt 0.741671 0.470440
vt 0.795367 0.470440
vt 0.833335 0.508409
vt 0.833335 0.562104
vt 0.795367 0.600073
vt 0.741671 0.600073
vt 0.703703 0.562104
vt 0.703703 0.508409
vt 0.003170 0.512088
vt 0.406687 0.513211
vt 0.406381 0.522212
vt 0.003160 0.520947
vt 0.003176 0.503308
vt 0.406927 0.503962
vt 0.003178 0.494556
vt 0.406966 0.494555
vt 0.003176 0.485803
vt 0.406927 0.485149
vt 0.003170 0.477023
vt 0.406687 0.475900
vt 0.003160 0.468165
vt 0.406381 0.466899
vt 0.003147 0.459188
vt 0.406202 0.458111
vt 0.003136 0.450089
vt 0.406333 0.449416
vt 0.003129 0.440899
vt 0.406911 0.440677
vt 0.003136 0.539022
vt 0.406333 0.539695
vt 0.406911 0.548434
vt 0.003129 0.548212
vt 0.003147 0.529923
vt 0.406202 0.531000
vt 0.427884 0.510492
vt 0.428741 0.518417
vt 0.427350 0.502575
vt 0.427222 0.494556
vt 0.427350 0.486536
vt 0.427884 0.478619
vt 0.428741 0.470694
vt 0.429850 0.462576
vt 0.431177 0.454131
vt 0.432693 0.445426
vt 0.431177 0.534980
vt 0.432693 0.543685
vt 0.429850 0.526535
vt 0.740327 0.229032
vt 0.737351 0.253071
vt 0.730168 0.249886
vt 0.733704 0.224232
vt 0.747589 0.232615
vt 0.745912 0.255460
vt 0.755573 0.234017
vt 0.755573 0.256263
vt 0.763558 0.232615
vt 0.765234 0.255460
vt 0.770819 0.229032
vt 0.773795 0.253071
vt 0.777443 0.224232
vt 0.780978 0.249886
vt 0.784223 0.219332
vt 0.787856 0.246848
vt 0.791860 0.215413
vt 0.795524 0.244600
vt 0.800207 0.213283
vt 0.804162 0.243457
vt 0.719287 0.215413
vt 0.715622 0.244600
vt 0.706984 0.243457
vt 0.710939 0.213283
vt 0.726924 0.219332
vt 0.723291 0.246848
vt 0.740052 0.340622
vt 0.733325 0.337680
vt 0.747478 0.342647
vt 0.755573 0.343413
vt 0.763668 0.342647
vt 0.771094 0.340622
vt 0.777821 0.337680
vt 0.784821 0.334501
vt 0.793052 0.331967
vt 0.802189 0.330735
vt 0.718094 0.331967
vt 0.708957 0.330735
vt 0.726325 0.334501
vt 0.737678 0.369125
vt 0.730130 0.364215
vt 0.746225 0.372682
vt 0.755573 0.373933
vt 0.764921 0.372682
vt 0.773468 0.369125
vt 0.781017 0.364215
vt 0.788266 0.359175
vt 0.796135 0.355126
vt 0.804845 0.352947
vt 0.715012 0.355126
vt 0.706301 0.352947
vt 0.722880 0.359175
vt 0.742044 0.004821
vt 0.745080 0.031721
vt 0.735869 0.031249
vt 0.732202 0.005803
vt 0.752320 0.004084
vt 0.754073 0.032115
vt 0.762961 0.003719
vt 0.762961 0.032309
vt 0.773601 0.004084
vt 0.771848 0.032115
vt 0.783877 0.004821
vt 0.780842 0.031721
vt 0.793720 0.005803
vt 0.790053 0.031249
vt 0.803305 0.006955
vt 0.799550 0.030928
vt 0.812865 0.008243
vt 0.809277 0.031025
vt 0.822652 0.009733
vt 0.819004 0.031697
vt 0.713057 0.008243
vt 0.716644 0.031025
vt 0.706917 0.031697
vt 0.703270 0.009733
vt 0.722616 0.006955
vt 0.726371 0.030928
vt 0.808339 0.432364
vt 0.897173 0.435584
vt 0.896850 0.445227
vt 0.807958 0.440718
vt 0.808530 0.424175
vt 0.897369 0.425949
vt 0.808523 0.416316
vt 0.897438 0.416316
vt 0.808530 0.408456
vt 0.897369 0.406683
vt 0.808339 0.400268
vt 0.897173 0.397047
vt 0.807958 0.391913
vt 0.896850 0.387405
vt 0.807250 0.383414
vt 0.896402 0.377750
vt 0.805872 0.374643
vt 0.895833 0.368068
vt 0.802941 0.365169
vt 0.895225 0.358983
vt 0.805872 0.457989
vt 0.895833 0.464564
vt 0.895225 0.473648
vt 0.802941 0.467462
vt 0.807250 0.449217
vt 0.896402 0.454882
vt 0.736583 0.195746
vt 0.728327 0.196383
vt 0.720189 0.197505
vt 0.711524 0.199810
vt 0.814397 0.199810
vt 0.805732 0.197505
vt 0.797594 0.196383
vt 0.789338 0.195746
vt 0.780856 0.195371
vt 0.772087 0.195200
vt 0.762961 0.195134
vt 0.753834 0.195200
vt 0.745065 0.195371
vt 0.923412 0.597654
vt 0.923396 0.688766
vt 0.916788 0.688936
vt 0.916815 0.597991
vt 0.910176 0.689060
vt 0.910208 0.598236
vt 0.903558 0.689104
vt 0.903591 0.598325
vt 0.982876 0.598325
vt 0.982908 0.689104
vt 0.976291 0.689060
vt 0.976259 0.598236
vt 0.969678 0.688936
vt 0.969652 0.597991
vt 0.963071 0.688766
vt 0.963055 0.597654
vt 0.956463 0.688596
vt 0.956457 0.597318
vt 0.949851 0.688472
vt 0.949850 0.597072
vt 0.943233 0.688426
vt 0.943233 0.596982
vt 0.936616 0.688472
vt 0.936617 0.597072
vt 0.930004 0.688596
vt 0.930010 0.597318
vt 0.745174 0.201361
vt 0.736826 0.201497
vt 0.753830 0.201488
vt 0.762961 0.201985
vt 0.772092 0.201488
vt 0.780747 0.201361
vt 0.789095 0.201497
vt 0.797112 0.201865
vt 0.804675 0.202676
vt 0.811600 0.204773
vt 0.721246 0.202676
vt 0.714321 0.204773
vt 0.728810 0.201865
vt 0.802479 0.440405
vt 0.801764 0.448573
vt 0.800383 0.456589
vt 0.797544 0.464211
vt 0.797544 0.368421
vt 0.800383 0.376042
vt 0.801764 0.384058
vt 0.802479 0.392226
vt 0.802918 0.400432
vt 0.803292 0.408541
vt 0.803728 0.416316
vt 0.803292 0.424091
vt 0.802918 0.432199
vt 0.340453 0.105200
vt 0.344939 0.097431
vt 0.352708 0.092946
vt 0.361678 0.092946
vt 0.369447 0.097431
vt 0.373933 0.105200
vt 0.373933 0.114171
vt 0.369447 0.121939
vt 0.361678 0.126425
vt 0.352708 0.126425
vt 0.344939 0.121939
vt 0.340453 0.114171
vt 0.352708 0.135681
vt 0.361678 0.135681
vt 0.369447 0.140166
vt 0.373933 0.147935
vt 0.373933 0.156906
vt 0.369447 0.164675
vt 0.361678 0.169160
vt 0.352708 0.169160
vt 0.344939 0.164675
vt 0.340453 0.156906
vt 0.340453 0.147935
vt 0.344939 0.140166
s 0
usemtl Материал
f 1/1/1 2/2/1 4/3/1 3/4/1
f 3/4/2 4/3/2 6/5/2 5/6/2
f 5/6/3 6/5/3 8/7/3 7/8/3
f 7/8/4 8/7/4 10/9/4 9/10/4
f 9/11/5 10/12/5 12/13/5 11/14/5
f 11/14/6 12/13/6 14/15/6 13/16/6
f 4/17/7 2/18/7 16/19/7 14/20/7 12/21/7 10/22/7 8/23/7 6/24/7
f 13/16/8 14/15/8 16/25/8 15/26/8
f 15/26/9 16/25/9 2/2/9 1/1/9
f 1/27/10 3/28/10 5/29/10 7/30/10 9/31/10 11/32/10 13/33/10 15/34/10
f 17/35/1 18/36/1 20/37/1 19/38/1
f 19/38/2 20/37/2 22/39/2 21/40/2
f 21/40/3 22/39/3 24/41/3 23/42/3
f 23/42/4 24/41/4 26/43/4 25/44/4
f 25/45/5 26/46/5 28/47/5 27/48/5
f 27/48/6 28/47/6 30/49/6 29/50/6
f 20/51/7 18/52/7 32/53/7 30/54/7 28/55/7 26/56/7 24/57/7 22/58/7
f 29/50/8 30/49/8 32/59/8 31/60/8
f 31/60/9 32/59/9 18/36/9 17/35/9
f 17/61/10 19/62/10 21/63/10 23/64/10 25/65/10 27/66/10 29/67/10 31/68/10
f 49/69/11 34/70/11 36/71/11 50/72/11
f 50/72/12 36/71/12 38/73/12 51/74/12
f 51/74/13 38/73/13 40/75/13 52/76/13
f 52/76/14 40/75/14 42/77/14 53/78/14
f 53/79/15 42/80/15 44/81/15 54/82/15
f 54/82/16 44/81/16 46/83/16 55/84/16
f 36/85/7 34/86/7 48/87/7 46/88/7 44/89/7 42/90/7 40/91/7 38/92/7
f 55/84/17 46/83/17 48/93/17 56/94/17
f 56/94/18 48/93/18 34/70/18 49/69/18
f 33/95/10 35/96/10 37/97/10 39/98/10 41/99/10 43/100/10 45/101/10 47/102/10
f 63/103/9 56/94/9 49/69/9 64/104/9
f 62/105/8 55/84/8 56/94/8 63/103/8
f 61/106/6 54/82/6 55/84/6 62/105/6
f 60/107/5 53/79/5 54/82/5 61/106/5
f 59/108/4 52/76/4 53/78/4 60/109/4
f 58/110/3 51/74/3 52/76/3 59/108/3
f 57/111/2 50/72/2 51/74/2 58/110/2
f 64/104/1 49/69/1 50/72/1 57/111/1
f 33/112/19 64/104/19 57/111/19 35/113/19
f 35/113/20 57/111/20 58/110/20 37/114/20
f 37/114/21 58/110/21 59/108/21 39/115/21
f 39/115/22 59/108/22 60/109/22 41/116/22
f 41/117/23 60/107/23 61/106/23 43/118/23
f 43/118/24 61/106/24 62/105/24 45/119/24
f 45/119/25 62/105/25 63/103/25 47/120/25
f 47/120/26 63/103/26 64/104/26 33/112/26
f 65/121/1 66/122/1 68/123/1 67/124/1
f 67/124/2 68/123/2 70/125/2 69/126/2
f 69/126/3 70/125/3 72/127/3 71/128/3
f 71/128/4 72/127/4 74/129/4 73/130/4
f 73/131/5 74/132/5 76/133/5 75/134/5
f 75/134/6 76/133/6 78/135/6 77/136/6
f 68/137/7 66/138/7 80/139/7 78/140/7 76/141/7 74/142/7 72/143/7 70/144/7
f 77/136/8 78/135/8 80/145/8 79/146/8
f 79/146/9 80/145/9 66/122/9 65/121/9
f 65/147/10 67/148/10 69/149/10 71/150/10 73/151/10 75/152/10 77/153/10 79/154/10
f 81/155/1 82/156/1 84/157/1 83/158/1
f 83/158/2 84/157/2 86/159/2 85/160/2
f 85/160/3 86/159/3 88/161/3 87/162/3
f 87/162/4 88/161/4 90/163/4 89/164/4
f 89/165/5 90/166/5 92/167/5 91/168/5
f 91/168/6 92/167/6 94/169/6 93/170/6
f 84/171/7 82/172/7 96/173/7 94/174/7 92/175/7 90/176/7 88/177/7 86/178/7
f 93/170/8 94/169/8 96/179/8 95/180/8
f 95/180/9 96/179/9 82/156/9 81/155/9
f 81/181/10 83/182/10 85/183/10 87/184/10 89/185/10 91/186/10 93/187/10 95/188/10
f 97/189/1 98/190/1 100/191/1 99/192/1
f 99/192/2 100/191/2 102/193/2 101/194/2
f 101/194/3 102/193/3 104/195/3 103/196/3
f 103/196/4 104/195/4 106/197/4 105/198/4
f 105/199/5 106/200/5 108/201/5 107/202/5
f 107/202/6 108/201/6 110/203/6 109/204/6
f 100/205/7 98/206/7 112/207/7 110/208/7 108/209/7 106/210/7 104/211/7 102/212/7
f 109/204/8 110/203/8 112/213/8 111/214/8
f 111/214/9 112/213/9 98/190/9 97/189/9
f 97/215/10 99/216/10 101/217/10 103/218/10 105/219/10 107/220/10 109/221/10 111/222/10
f 113/223/1 114/224/1 116/225/1 115/226/1
f 115/226/2 116/225/2 118/227/2 117/228/2
f 117/228/3 118/227/3 120/229/3 119/230/3
f 119/230/4 120/229/4 122/231/4 121/232/4
f 121/233/5 122/234/5 124/235/5 123/236/5
f 123/236/6 124/235/6 126/237/6 125/238/6
f 116/239/7 114/240/7 128/241/7 126/242/7 124/243/7 122/244/7 120/245/7 118/246/7
f 125/238/8 126/237/8 128/247/8 127/248/8
f 127/248/9 128/247/9 114/224/9 113/223/9
f 113/249/10 115/250/10 117/251/10 119/252/10 121/253/10 123/254/10 125/255/10 127/256/10
f 129/257/27 130/258/27 132/259/27 131/260/27
f 131/260/28 132/259/28 134/261/28 133/262/28
f 133/262/29 134/261/29 136/263/29 135/264/29
f 135/264/30 136/263/30 138/265/30 137/266/30
f 137/267/31 138/268/31 140/269/31 139/270/31
f 139/270/32 140/269/32 142/271/32 141/272/32
f 132/273/7 130/274/7 144/275/7 142/276/7 140/277/7 138/278/7 136/279/7 134/280/7
f 141/272/33 142/271/33 144/281/33 143/282/33
f 143/282/34 144/281/34 130/258/34 129/257/34
f 129/283/10 131/284/10 133/285/10 135/286/10 137/287/10 139/288/10 141/289/10 143/290/10
f 145/291/1 146/292/1 148/293/1 147/294/1
f 147/294/2 148/293/2 150/295/2 149/296/2
f 149/296/3 150/295/3 152/297/3 151/298/3
f 151/298/4 152/297/4 154/299/4 153/300/4
f 153/301/5 154/302/5 156/303/5 155/304/5
f 155/304/6 156/303/6 158/305/6 157/306/6
f 148/307/7 146/308/7 160/309/7 158/310/7 156/311/7 154/312/7 152/313/7 150/314/7
f 157/306/8 158/305/8 160/315/8 159/316/8
f 159/316/9 160/315/9 146/292/9 145/291/9
f 145/317/10 147/318/10 149/319/10 151/320/10 153/321/10 155/322/10 157/323/10 159/324/10
f 161/325/35 173/326/35 184/327/35 172/328/35
f 162/329/36 174/330/36 173/326/36 161/325/36
f 163/331/37 175/332/37 174/330/37 162/329/37
f 164/333/38 176/334/38 175/332/38 163/331/38
f 165/335/39 177/336/39 176/334/39 164/333/39
f 166/337/40 178/338/40 177/336/40 165/335/40
f 167/339/41 179/340/41 178/338/41 166/337/41
f 168/341/42 180/342/42 179/340/42 167/339/42
f 169/343/43 181/344/43 180/342/43 168/341/43
f 170/345/44 182/346/44 181/347/44 169/348/44
f 171/349/45 183/350/45 182/346/45 170/345/45
f 172/328/46 184/327/46 183/350/46 171/349/46
f 173/326/47 185/351/47 196/352/47 184/327/47
f 174/330/48 186/353/48 185/351/48 173/326/48
f 175/332/49 187/354/49 186/353/49 174/330/49
f 176/334/50 188/355/50 187/354/50 175/332/50
f 177/336/51 189/356/51 188/355/51 176/334/51
f 178/338/52 190/357/52 189/356/52 177/336/52
f 179/340/53 191/358/53 190/357/53 178/338/53
f 180/342/54 192/359/54 191/358/54 179/340/54
f 181/344/55 193/360/55 192/359/55 180/342/55
f 182/346/56 194/361/56 193/362/56 181/347/56
f 183/350/57 195/363/57 194/361/57 182/346/57
f 184/327/58 196/352/58 195/363/58 183/350/58
f 185/364/59 197/365/59 208/366/59 196/367/59
f 186/368/60 198/369/60 197/365/60 185/364/60
f 187/370/61 199/371/61 198/369/61 186/368/61
f 188/372/62 200/373/62 199/371/62 187/370/62
f 189/374/63 201/375/63 200/373/63 188/372/63
f 190/376/64 202/377/64 201/375/64 189/374/64
f 191/378/65 203/379/65 202/377/65 190/376/65
f 192/380/66 204/381/66 203/379/66 191/378/66
f 193/382/67 205/383/67 204/381/67 192/380/67
f 194/384/68 206/385/68 205/386/68 193/387/68
f 195/388/69 207/389/69 206/385/69 194/384/69
f 196/367/70 208/366/70 207/389/70 195/388/70
f 197/365/71 209/390/71 220/391/71 208/366/71
f 198/369/72 210/392/72 209/390/72 197/365/72
f 199/371/73 211/393/73 210/392/73 198/369/73
f 200/373/74 212/394/74 211/393/74 199/371/74
f 201/375/75 213/395/75 212/394/75 200/373/75
f 202/377/76 214/396/76 213/395/76 201/375/76
f 203/379/77 215/397/77 214/396/77 202/377/77
f 204/381/78 216/398/78 215/397/78 203/379/78
f 205/383/79 217/399/79 216/398/79 204/381/79
f 206/385/80 218/400/80 217/401/80 205/386/80
f 207/389/81 219/402/81 218/400/81 206/385/81
f 208/366/82 220/391/82 219/402/82 207/389/82
f 209/390/83 221/403/83 232/404/83 220/391/83
f 210/392/84 222/405/84 221/403/84 209/390/84
f 211/393/85 223/406/85 222/405/85 210/392/85
f 212/394/86 224/407/86 223/406/86 211/393/86
f 213/395/87 225/408/87 224/407/87 212/394/87
f 214/396/88 226/409/88 225/408/88 213/395/88
f 215/397/89 227/410/89 226/409/89 214/396/89
f 216/398/90 228/411/90 227/410/90 215/397/90
f 217/399/91 229/412/91 228/411/91 216/398/91
f 218/400/92 230/413/92 229/414/92 217/401/92
f 219/402/93 231/415/93 230/413/93 218/400/93
f 220/391/94 232/404/94 231/415/94 219/402/94
f 221/416/95 233/417/95 244/418/95 232/419/95
f 222/420/96 234/421/96 233/417/96 221/416/96
f 223/422/97 235/423/97 234/421/97 222/420/97
f 224/424/98 236/425/98 235/423/98 223/422/98
f 225/426/99 237/427/99 236/425/99 224/424/99
f 226/428/100 238/429/100 237/427/100 225/426/100
f 227/430/101 239/431/101 238/429/101 226/428/101
f 228/432/102 240/433/102 239/431/102 227/430/102
f 229/434/103 241/435/103 240/433/103 228/432/103
f 230/436/104 242/437/104 241/438/104 229/439/104
f 231/440/105 243/441/105 242/437/105 230/436/105
f 232/419/106 244/418/106 243/441/106 231/440/106
f 293/442/107 245/443/107 256/444/107 294/445/107
f 295/446/108 246/447/108 245/443/108 293/442/108
f 296/448/109 247/449/109 246/447/109 295/446/109
f 297/450/110 248/451/110 247/449/110 296/448/110
f 298/452/111 249/453/111 248/451/111 297/450/111
f 299/454/112 250/455/112 249/453/112 298/452/112
f 300/456/113 251/457/113 250/455/113 299/454/113
f 301/458/114 252/459/114 251/457/114 300/456/114
f 302/460/115 253/461/115 252/459/115 301/458/115
f 303/462/116 254/463/116 253/464/116 302/465/116
f 304/466/117 255/467/117 254/463/117 303/462/117
f 294/445/118 256/444/118 255/467/118 304/466/118
f 244/418/119 258/468/119 268/469/119 243/441/119
f 243/441/120 268/469/120 267/470/120 242/437/120
f 242/437/121 267/470/121 266/471/121 241/438/121
f 241/435/122 266/472/122 265/473/122 240/433/122
f 240/433/123 265/473/123 264/474/123 239/431/123
f 239/431/124 264/474/124 263/475/124 238/429/124
f 238/429/125 263/475/125 262/476/125 237/427/125
f 237/427/126 262/476/126 261/477/126 236/425/126
f 236/425/127 261/477/127 260/478/127 235/423/127
f 235/423/128 260/478/128 259/479/128 234/421/128
f 234/421/129 259/479/129 257/480/129 233/417/129
f 233/417/130 257/480/130 258/468/130 244/418/130
f 282/481/131 270/482/131 280/483/131 292/484/131
f 292/484/132 280/483/132 279/485/132 291/486/132
f 291/486/133 279/485/133 278/487/133 290/488/133
f 290/489/134 278/490/134 277/491/134 289/492/134
f 289/492/135 277/491/135 276/493/135 288/494/135
f 288/494/136 276/493/136 275/495/136 287/496/136
f 287/496/137 275/495/137 274/497/137 286/498/137
f 286/498/138 274/497/138 273/499/138 285/500/138
f 285/500/139 273/499/139 272/501/139 284/502/139
f 284/502/140 272/501/140 271/503/140 283/504/140
f 283/504/141 271/503/141 269/505/141 281/506/141
f 281/506/142 269/505/142 270/482/142 282/481/142
f 257/480/143 281/507/143 282/508/143 258/468/143
f 259/479/144 283/509/144 281/507/144 257/480/144
f 260/478/145 284/510/145 283/509/145 259/479/145
f 261/477/146 285/511/146 284/510/146 260/478/146
f 262/476/147 286/512/147 285/511/147 261/477/147
f 263/475/148 287/513/148 286/512/148 262/476/148
f 264/474/149 288/514/149 287/513/149 263/475/149
f 265/473/150 289/515/150 288/514/150 264/474/150
f 266/472/151 290/516/151 289/515/151 265/473/151
f 267/470/152 291/517/152 290/518/152 266/471/152
f 268/469/153 292/519/153 291/517/153 267/470/153
f 258/468/154 282/508/154 292/519/154 268/469/154
f 270/520/155 294/445/155 304/466/155 280/521/155
f 280/521/156 304/466/156 303/462/156 279/522/156
f 279/522/157 303/462/157 302/465/157 278/523/157
f 278/524/158 302/460/158 301/458/158 277/525/158
f 277/525/159 301/458/159 300/456/159 276/526/159
f 276/526/160 300/456/160 299/454/160 275/527/160
f 275/527/161 299/454/161 298/452/161 274/528/161
f 274/528/162 298/452/162 297/450/162 273/529/162
f 273/529/163 297/450/163 296/448/163 272/530/163
f 272/530/164 296/448/164 295/446/164 271/531/164
f 271/531/165 295/446/165 293/442/165 269/532/165
f 269/532/166 293/442/166 294/445/166 270/520/166
f 172/533/7 171/534/7 170/535/7 169/536/7 168/537/7 167/538/7 166/539/7 165/540/7 164/541/7 163/542/7 162/543/7 161/544/7
f 256/545/10 245/546/10 246/547/10 247/548/10 248/549/10 249/550/10 250/551/10 251/552/10 252/553/10 253/554/10 254/555/10 255/556/10
