# Blender 4.2.2 LTS
# www.blender.org
mtllib pipe 1.mtl
o pipe_1
v -0.787233 10.647854 -1.324953
v -0.787233 10.743350 -1.229457
v -0.787233 10.778304 -1.099008
v -0.787233 10.743350 -0.968558
v -0.787233 10.647855 -0.873062
v -0.787233 10.517405 -0.838108
v -0.787233 10.386955 -0.873062
v -0.787233 10.291459 -0.968558
v -0.787233 10.256505 -1.099007
v -0.787233 10.291459 -1.229457
v -0.787233 10.386954 -1.324953
v -0.787233 10.517405 -1.359907
v 0.166005 10.647854 -1.323020
v 0.153540 10.743350 -1.228341
v 0.136513 10.778304 -1.099008
v 0.119486 10.743351 -0.969674
v 0.107021 10.647855 -0.874995
v 0.102459 10.517405 -0.840340
v 0.107021 10.386955 -0.874995
v 0.119486 10.291459 -0.969674
v 0.136513 10.256505 -1.099007
v 0.153540 10.291459 -1.228341
v 0.166005 10.386954 -1.323020
v 0.170567 10.517405 -1.357675
v 0.510385 10.647854 -1.224774
v 0.462637 10.743350 -1.142073
v 0.397413 10.778304 -1.029100
v 0.332188 10.743351 -0.916127
v 0.284440 10.647855 -0.833425
v 0.266963 10.517405 -0.803154
v 0.284440 10.386955 -0.833425
v 0.332188 10.291459 -0.916127
v 0.397412 10.256505 -1.029100
v 0.462637 10.291459 -1.142072
v 0.510385 10.386954 -1.224774
v 0.527862 10.517405 -1.255045
v 0.784079 10.647854 -0.951081
v 0.701377 10.743350 -0.903333
v 0.588404 10.778304 -0.838108
v 0.475432 10.743351 -0.772883
v 0.392730 10.647855 -0.725135
v 0.362459 10.517405 -0.707658
v 0.392729 10.386955 -0.725135
v 0.475431 10.291459 -0.772883
v 0.588404 10.256505 -0.838108
v 0.701377 10.291459 -0.903333
v 0.784079 10.386954 -0.951081
v 0.814350 10.517405 -0.968558
v 0.882325 10.647854 -0.606700
v 0.787646 10.743350 -0.594236
v 0.658312 10.778304 -0.577209
v 0.528978 10.743350 -0.560182
v 0.434299 10.647855 -0.547717
v 0.399644 10.517405 -0.543154
v 0.434299 10.386955 -0.547717
v 0.528978 10.291459 -0.560182
v 0.658312 10.256505 -0.577209
v 0.787645 10.291459 -0.594236
v 0.882324 10.386954 -0.606700
v 0.916979 10.517405 -0.611263
v 0.885370 10.644809 0.385843
v 0.790698 10.740297 0.398415
v 0.660554 10.776062 0.403125
v 0.529809 10.742520 0.398710
v 0.433496 10.648659 0.386353
v 0.397422 10.519627 0.369366
v 0.431254 10.390000 0.352300
v 0.525925 10.294512 0.339728
v 0.656070 10.258747 0.335019
v 0.786815 10.292289 0.339434
v 0.883128 10.386151 0.351790
v 0.919202 10.515182 0.368777
v 0.885375 10.558786 0.694216
v 0.790704 10.642195 0.742375
v 0.660560 10.673434 0.760416
v 0.529814 10.644134 0.743504
v 0.433501 10.562145 0.696171
v 0.397426 10.449436 0.631100
v 0.431257 10.336207 0.565726
v 0.525928 10.252799 0.517567
v 0.656072 10.221560 0.499526
v 0.786818 10.250860 0.516438
v 0.883132 10.332849 0.563771
v 0.919206 10.445558 0.628842
v 0.885389 10.320764 0.932239
v 0.790721 10.368917 1.015653
v 0.660577 10.386950 1.046900
v 0.529831 10.370030 1.017608
v 0.433515 10.322692 0.935625
v 0.397438 10.257618 0.822918
v 0.431265 10.192246 0.709687
v 0.525934 10.144093 0.626273
v 0.656078 10.126060 0.595026
v 0.786824 10.142980 0.624318
v 0.883140 10.190319 0.706301
v 0.919217 10.255392 0.819008
v 0.885408 10.012390 1.018261
v 0.790741 10.024957 1.113756
v 0.660598 10.029659 1.149529
v 0.529851 10.025236 1.115994
v 0.433534 10.012874 1.022138
v 0.397453 9.995885 0.893109
v 0.431278 9.978821 0.763480
v 0.525945 9.966254 0.667985
v 0.656088 9.961553 0.632213
v 0.786835 9.965975 0.665747
v 0.883153 9.978337 0.759604
v 0.919233 9.995327 0.888633
v 0.883037 0.976075 1.021307
v 0.788363 0.988534 1.116809
v 0.659030 1.005553 1.151770
v 0.529693 1.022573 1.116824
v 0.435008 1.035032 1.021334
v 0.400345 1.039595 0.890887
v 0.434993 1.035035 0.760435
v 0.529666 1.022576 0.664933
v 0.658999 1.005557 0.629971
v 0.788336 0.988537 0.664917
v 0.883021 0.976077 0.760407
v 0.917684 0.971516 0.890855
v 0.784809 0.631687 1.021307
v 0.702110 0.679428 1.116808
v 0.589136 0.744648 1.151770
v 0.476159 0.809869 1.116824
v 0.393450 0.857615 1.021334
v 0.363171 0.875095 0.890887
v 0.393436 0.857624 0.760435
v 0.476135 0.809882 0.664933
v 0.589109 0.744663 0.629971
v 0.702086 0.679442 0.664917
v 0.784795 0.631695 0.760407
v 0.815073 0.614215 0.890855
v 0.511122 0.357985 1.021307
v 0.463376 0.440681 1.116809
v 0.398150 0.553651 1.151770
v 0.332922 0.666623 1.116824
v 0.285170 0.749330 1.021334
v 0.267688 0.779607 0.890887
v 0.285162 0.749343 0.760435
v 0.332908 0.666648 0.664933
v 0.398134 0.553678 0.629971
v 0.463362 0.440704 0.664917
v 0.511114 0.357998 0.760407
v 0.528596 0.327721 0.890855
v 0.166740 0.259735 1.021307
v 0.154276 0.354408 1.116809
v 0.137249 0.483740 1.151770
v 0.120221 0.613076 1.116824
v 0.107755 0.707761 1.021334
v 0.103192 0.742423 0.890887
v 0.107753 0.707776 0.760435
v 0.120218 0.613103 0.664933
v 0.137245 0.483771 0.629971
v 0.154273 0.354436 0.664917
v 0.166738 0.259751 0.760407
v 0.171302 0.225089 0.890855
v -0.801472 0.257803 1.021307
v -0.801472 0.353292 1.116809
v -0.801472 0.483740 1.151770
v -0.801472 0.614192 1.116824
v -0.801472 0.709694 1.021334
v -0.801472 0.744656 0.890887
v -0.801472 0.709709 0.760435
v -0.801472 0.614220 0.664933
v -0.801472 0.483771 0.629971
v -0.801472 0.353319 0.664917
v -0.801472 0.257817 0.760407
v -0.801472 0.222857 0.890855
v 0.662903 1.624083 0.463687
v 0.662903 1.489818 0.463687
v 0.361675 1.624083 0.588460
v 0.361675 1.489818 0.588460
v 0.236902 1.624083 0.889688
v 0.236902 1.489818 0.889688
v 0.361675 1.624083 1.190917
v 0.361675 1.489818 1.190917
v 0.662903 1.624083 1.315690
v 0.662903 1.489818 1.315690
v 0.964132 1.624083 1.190917
v 0.964132 1.489818 1.190917
v 1.088905 1.624083 0.889688
v 1.088905 1.489818 0.889688
v 0.964132 1.624083 0.588460
v 0.964132 1.489818 0.588460
v 0.662903 1.473651 0.463687
v 0.662903 1.339386 0.463687
v 0.361675 1.473651 0.588460
v 0.361675 1.339386 0.588460
v 0.236902 1.473651 0.889688
v 0.236902 1.339386 0.889688
v 0.361675 1.473651 1.190917
v 0.361675 1.339386 1.190917
v 0.662903 1.473651 1.315690
v 0.662903 1.339386 1.315690
v 0.964132 1.473651 1.190917
v 0.964132 1.339386 1.190917
v 1.088905 1.473651 0.889688
v 1.088905 1.339386 0.889688
v 0.964132 1.473651 0.588460
v 0.964132 1.339386 0.588460
v 0.662903 9.285581 0.463687
v 0.662903 9.151316 0.463687
v 0.361675 9.285581 0.588460
v 0.361675 9.151316 0.588460
v 0.236902 9.285581 0.889688
v 0.236902 9.151316 0.889688
v 0.361675 9.285581 1.190917
v 0.361675 9.151316 1.190917
v 0.662903 9.285581 1.315690
v 0.662903 9.151316 1.315690
v 0.964132 9.285581 1.190917
v 0.964132 9.151316 1.190917
v 1.088905 9.285581 0.889688
v 1.088905 9.151316 0.889688
v 0.964132 9.285581 0.588460
v 0.964132 9.151316 0.588460
v 0.662903 9.436012 0.463687
v 0.662903 9.301748 0.463687
v 0.361675 9.436012 0.588460
v 0.361675 9.301748 0.588460
v 0.236902 9.436012 0.889688
v 0.236902 9.301748 0.889688
v 0.361675 9.436012 1.190917
v 0.361675 9.301748 1.190917
v 0.662903 9.436012 1.315690
v 0.662903 9.301748 1.315690
v 0.964132 9.436012 1.190917
v 0.964132 9.301748 1.190917
v 1.088905 9.436012 0.889688
v 1.088905 9.301748 0.889688
v 0.964132 9.436012 0.588460
v 0.964132 9.301748 0.588460
v -0.825751 10.540475 -1.507619
v -0.691486 10.540475 -1.507619
v -0.825751 10.239246 -1.382846
v -0.691486 10.239246 -1.382846
v -0.825751 10.114473 -1.081617
v -0.691486 10.114473 -1.081617
v -0.825751 10.239246 -0.780389
v -0.691486 10.239246 -0.780389
v -0.825751 10.540475 -0.655616
v -0.691486 10.540475 -0.655616
v -0.825751 10.841704 -0.780389
v -0.691486 10.841704 -0.780389
v -0.825751 10.966476 -1.081617
v -0.691486 10.966476 -1.081617
v -0.825751 10.841704 -1.382846
v -0.691486 10.841704 -1.382846
v -0.825751 0.503506 0.473132
v -0.691486 0.503506 0.473132
v -0.825751 0.202277 0.597905
v -0.691486 0.202277 0.597905
v -0.825751 0.077503 0.899133
v -0.691486 0.077503 0.899133
v -0.825751 0.202277 1.200362
v -0.691486 0.202277 1.200362
v -0.825751 0.503506 1.325135
v -0.691486 0.503506 1.325135
v -0.825751 0.804734 1.200362
v -0.691486 0.804734 1.200362
v -0.825751 0.929508 0.899133
v -0.691486 0.929508 0.899133
v -0.825751 0.804734 0.597905
v -0.691486 0.804734 0.597905
vn 0.0021 0.2578 -0.9662
vn 0.0011 0.7056 -0.7086
vn 0.0002 0.9656 -0.2598
vn 0.0002 0.9656 0.2599
vn 0.0012 0.7055 0.7087
vn 0.0023 0.2577 0.9662
vn 0.0023 -0.2577 0.9662
vn 0.0012 -0.7055 0.7087
vn 0.0002 -0.9656 0.2599
vn 0.0002 -0.9657 -0.2598
vn 0.0011 -0.7056 -0.7086
vn 0.0021 -0.2578 -0.9662
vn 0.2662 0.2539 -0.9299
vn 0.1941 0.6997 -0.6875
vn 0.0698 0.9645 -0.2546
vn -0.0666 0.9645 0.2556
vn -0.1694 0.6988 0.6949
vn -0.2172 0.2530 0.9428
vn -0.2172 -0.2530 0.9428
vn -0.1694 -0.6988 0.6949
vn -0.0666 -0.9645 0.2556
vn 0.0698 -0.9645 -0.2546
vn 0.1941 -0.6997 -0.6875
vn 0.2662 -0.2539 -0.9299
vn 0.6846 0.2506 -0.6846
vn 0.5086 0.6947 -0.5086
vn 0.1890 0.9636 -0.1890
vn -0.1890 0.9636 0.1890
vn -0.5086 0.6947 0.5086
vn -0.6846 0.2506 0.6846
vn -0.6846 -0.2506 0.6846
vn -0.5086 -0.6947 0.5086
vn -0.1890 -0.9636 0.1890
vn 0.1890 -0.9636 -0.1890
vn 0.5086 -0.6947 -0.5086
vn 0.6846 -0.2506 -0.6845
vn 0.9299 0.2539 -0.2662
vn 0.6875 0.6997 -0.1941
vn 0.2546 0.9645 -0.0698
vn -0.2556 0.9645 0.0666
vn -0.6949 0.6988 0.1694
vn -0.9428 0.2530 0.2172
vn -0.9428 -0.2530 0.2172
vn -0.6949 -0.6988 0.1694
vn -0.2556 -0.9645 0.0666
vn 0.2546 -0.9645 -0.0698
vn 0.6875 -0.6997 -0.1941
vn 0.9299 -0.2539 -0.2662
vn 0.9670 0.2548 -0.0019
vn 0.7101 0.7041 -0.0000
vn 0.2631 0.9648 0.0019
vn -0.2546 0.9670 0.0019
vn -0.7041 0.7101 -0.0000
vn -0.9648 0.2631 -0.0020
vn -0.9671 -0.2545 -0.0021
vn -0.7101 -0.7041 -0.0000
vn -0.2628 -0.9649 0.0021
vn 0.2548 -0.9670 0.0020
vn 0.7041 -0.7101 -0.0000
vn 0.9648 -0.2629 -0.0019
vn 0.9668 0.2465 0.0675
vn 0.7058 0.6817 0.1924
vn 0.2620 0.9278 0.2656
vn -0.2457 0.9319 0.2668
vn -0.6936 0.6933 0.1958
vn -0.9622 0.2627 0.0720
vn -0.9668 -0.2474 -0.0645
vn -0.7050 -0.6890 -0.1682
vn -0.2611 -0.9407 -0.2168
vn 0.2448 -0.9449 -0.2175
vn 0.6926 -0.7008 -0.1707
vn 0.9621 -0.2638 -0.0687
vn 0.9659 0.1830 0.1829
vn 0.7009 0.5044 0.5043
vn 0.2586 0.6831 0.6830
vn -0.2425 0.6860 0.6860
vn -0.6885 0.5128 0.5128
vn -0.9612 0.1950 0.1951
vn -0.9659 -0.1830 -0.1829
vn -0.7009 -0.5044 -0.5043
vn -0.2586 -0.6831 -0.6830
vn 0.2425 -0.6860 -0.6860
vn 0.6885 -0.5128 -0.5128
vn 0.9612 -0.1950 -0.1951
vn 0.9668 0.0675 0.2464
vn 0.7059 0.1925 0.6817
vn 0.2621 0.2656 0.9278
vn -0.2457 0.2668 0.9319
vn -0.6935 0.1958 0.6933
vn -0.9622 0.0720 0.2628
vn -0.9668 -0.0646 -0.2474
vn -0.7050 -0.1682 -0.6890
vn -0.2611 -0.2168 -0.9406
vn 0.2448 -0.2175 -0.9449
vn 0.6926 -0.1706 -0.7008
vn 0.9621 -0.0687 -0.2639
vn 0.9670 -0.0001 0.2546
vn 0.7102 0.0001 0.7040
vn 0.2630 0.0002 0.9648
vn -0.2546 0.0002 0.9670
vn -0.7040 -0.0001 0.7102
vn -0.9648 -0.0003 0.2630
vn -0.9671 -0.0003 -0.2546
vn -0.7102 -0.0001 -0.7040
vn -0.2630 0.0002 -0.9648
vn 0.2546 0.0002 -0.9670
vn 0.7040 0.0001 -0.7102
vn 0.9648 -0.0001 -0.2630
vn 0.9299 -0.2662 0.2538
vn 0.6876 -0.1941 0.6997
vn 0.2547 -0.0698 0.9645
vn -0.2556 0.0666 0.9645
vn -0.6949 0.1694 0.6989
vn -0.9428 0.2171 0.2530
vn -0.9428 0.2171 -0.2529
vn -0.6950 0.1694 -0.6988
vn -0.2557 0.0666 -0.9645
vn 0.2545 -0.0697 -0.9645
vn 0.6875 -0.1941 -0.6998
vn 0.9299 -0.2662 -0.2539
vn 0.6846 -0.6845 0.2505
vn 0.5086 -0.5086 0.6947
vn 0.1891 -0.1891 0.9636
vn -0.1890 0.1890 0.9636
vn -0.5086 0.5085 0.6948
vn -0.6846 0.6845 0.2506
vn -0.6846 0.6845 -0.2505
vn -0.5086 0.5086 -0.6947
vn -0.1891 0.1891 -0.9636
vn 0.1890 -0.1890 -0.9636
vn 0.5086 -0.5085 -0.6948
vn 0.6846 -0.6845 -0.2506
vn 0.2662 -0.9299 0.2538
vn 0.1941 -0.6876 0.6997
vn 0.0698 -0.2547 0.9645
vn -0.0666 0.2556 0.9645
vn -0.1694 0.6949 0.6989
vn -0.2172 0.9428 0.2530
vn -0.2172 0.9428 -0.2529
vn -0.1694 0.6950 -0.6988
vn -0.0667 0.2557 -0.9645
vn 0.0697 -0.2545 -0.9645
vn 0.1941 -0.6875 -0.6998
vn 0.2662 -0.9299 -0.2539
vn 0.0021 -0.9662 0.2578
vn 0.0011 -0.7086 0.7056
vn 0.0002 -0.2599 0.9656
vn 0.0002 0.2598 0.9657
vn 0.0012 0.7086 0.7056
vn 0.0022 0.9662 0.2578
vn 0.0022 0.9662 -0.2577
vn 0.0012 0.7087 -0.7055
vn 0.0002 0.2599 -0.9656
vn 0.0002 -0.2598 -0.9657
vn 0.0011 -0.7085 -0.7057
vn 0.0021 -0.9662 -0.2579
vn -1.0000 -0.0000 -0.0000
vn -0.3827 -0.0000 -0.9239
vn -0.9239 -0.0000 -0.3827
vn -0.9239 -0.0000 0.3827
vn -0.3827 -0.0000 0.9239
vn 0.3827 -0.0000 0.9239
vn 0.9239 -0.0000 0.3827
vn -0.0000 -1.0000 -0.0000
vn 0.9239 -0.0000 -0.3827
vn 0.3827 -0.0000 -0.9239
vn -0.0000 1.0000 -0.0000
vn -0.0000 -0.3827 -0.9239
vn -0.0000 -0.9239 -0.3827
vn -0.0000 -0.9239 0.3827
vn -0.0000 -0.3827 0.9239
vn -0.0000 0.3827 0.9239
vn -0.0000 0.9239 0.3827
vn 1.0000 -0.0000 -0.0000
vn -0.0000 0.9239 -0.3827
vn -0.0000 0.3827 -0.9239
vt 0.639386 0.697345
vt 0.640154 0.644259
vt 0.647361 0.644191
vt 0.647228 0.697417
vt 0.631591 0.697204
vt 0.632852 0.644353
vt 0.623854 0.697028
vt 0.625359 0.644494
vt 0.616166 0.696848
vt 0.617626 0.644713
vt 0.608507 0.696682
vt 0.609720 0.645000
vt 0.600733 0.696518
vt 0.601844 0.645304
vt 0.685952 0.696875
vt 0.684997 0.645188
vt 0.692872 0.645531
vt 0.693727 0.696751
vt 0.678292 0.697003
vt 0.677092 0.644862
vt 0.670604 0.697145
vt 0.669361 0.644604
vt 0.662865 0.697283
vt 0.661869 0.644425
vt 0.655070 0.697384
vt 0.654567 0.644295
vt 0.639265 0.624076
vt 0.647413 0.623444
vt 0.631292 0.626012
vt 0.623614 0.628825
vt 0.616143 0.631854
vt 0.608665 0.634329
vt 0.601037 0.635620
vt 0.686106 0.634522
vt 0.693727 0.635852
vt 0.678640 0.632011
vt 0.671184 0.628944
vt 0.663520 0.626092
vt 0.655557 0.624117
vt 0.939786 0.769363
vt 0.918428 0.766991
vt 0.918528 0.760516
vt 0.940959 0.760745
vt 0.936894 0.777473
vt 0.918042 0.773730
vt 0.932892 0.785052
vt 0.917329 0.780955
vt 0.928516 0.792565
vt 0.916392 0.788821
vt 0.924578 0.800059
vt 0.914997 0.797402
vt 0.921807 0.808118
vt 0.913580 0.805894
vt 0.924131 0.720418
vt 0.914443 0.723327
vt 0.912902 0.714772
vt 0.921156 0.712345
vt 0.928336 0.727922
vt 0.915971 0.732030
vt 0.933118 0.735483
vt 0.917031 0.740075
vt 0.937316 0.743472
vt 0.917774 0.747338
vt 0.940100 0.751970
vt 0.918265 0.754063
vt 0.901371 0.767411
vt 0.901154 0.760690
vt 0.901808 0.774259
vt 0.902395 0.781415
vt 0.902964 0.788995
vt 0.903255 0.796989
vt 0.903084 0.805200
vt 0.902510 0.723884
vt 0.902403 0.715534
vt 0.902257 0.732043
vt 0.901784 0.739784
vt 0.901355 0.747053
vt 0.901142 0.753975
vt 0.849447 0.770258
vt 0.848744 0.762906
vt 0.849948 0.777291
vt 0.850210 0.784212
vt 0.850270 0.791150
vt 0.850143 0.798295
vt 0.849942 0.805989
vt 0.847764 0.720690
vt 0.848290 0.712700
vt 0.847322 0.729150
vt 0.847159 0.737987
vt 0.847389 0.746754
vt 0.847961 0.755049
vt 0.833039 0.770902
vt 0.833648 0.763738
vt 0.832607 0.777684
vt 0.832390 0.784233
vt 0.832472 0.790842
vt 0.832667 0.797848
vt 0.833053 0.805844
vt 0.834093 0.720323
vt 0.832978 0.712345
vt 0.835012 0.728989
vt 0.835641 0.738044
vt 0.835185 0.747111
vt 0.834548 0.755775
vt 0.814676 0.767146
vt 0.818517 0.759761
vt 0.811722 0.774904
vt 0.810278 0.783188
vt 0.810661 0.791713
vt 0.812762 0.800106
vt 0.815958 0.808071
vt 0.822448 0.724129
vt 0.818058 0.717592
vt 0.825892 0.730834
vt 0.827052 0.738115
vt 0.825944 0.745550
vt 0.822602 0.752719
vt 0.407163 0.553204
vt 0.405272 0.534706
vt 0.412932 0.534488
vt 0.414849 0.550141
vt 0.399098 0.555399
vt 0.397749 0.534891
vt 0.390793 0.556273
vt 0.390296 0.535051
vt 0.382456 0.555820
vt 0.382865 0.535069
vt 0.374275 0.554053
vt 0.375373 0.535034
vt 0.366356 0.551446
vt 0.367684 0.534908
vt 0.450461 0.546654
vt 0.452072 0.534527
vt 0.459632 0.534994
vt 0.457229 0.549641
vt 0.443602 0.544366
vt 0.444390 0.534175
vt 0.436563 0.543482
vt 0.436586 0.534045
vt 0.429425 0.544460
vt 0.428684 0.534041
vt 0.422215 0.546933
vt 0.420765 0.534243
vt 0.406368 0.022139
vt 0.413787 0.022037
vt 0.398849 0.022294
vt 0.391173 0.022528
vt 0.383313 0.022873
vt 0.375335 0.023319
vt 0.367456 0.023826
vt 0.451478 0.023291
vt 0.459238 0.023809
vt 0.443709 0.022817
vt 0.436065 0.022461
vt 0.428571 0.022235
vt 0.421160 0.022104
vt 0.405366 0.001430
vt 0.413809 0.000799
vt 0.397108 0.003479
vt 0.389196 0.006503
vt 0.381570 0.009796
vt 0.374018 0.012531
vt 0.366356 0.014056
vt 0.452831 0.012738
vt 0.460332 0.014250
vt 0.445485 0.010038
vt 0.438070 0.006757
vt 0.430335 0.003692
vt 0.422198 0.001551
vt 0.466224 0.863679
vt 0.464185 0.885548
vt 0.457739 0.885359
vt 0.457404 0.862888
vt 0.474572 0.866605
vt 0.470960 0.885859
vt 0.482324 0.870671
vt 0.478242 0.886534
vt 0.489971 0.875109
vt 0.486159 0.887468
vt 0.497557 0.879160
vt 0.494804 0.888675
vt 0.505535 0.881927
vt 0.503309 0.890072
vt 0.417841 0.880050
vt 0.420839 0.889417
vt 0.412366 0.890865
vt 0.410147 0.882905
vt 0.425299 0.875816
vt 0.429397 0.888032
vt 0.432812 0.871196
vt 0.437278 0.886934
vt 0.440449 0.866939
vt 0.444549 0.886113
vt 0.448768 0.864138
vt 0.451233 0.885538
vt 0.464650 0.902639
vt 0.457895 0.902783
vt 0.471555 0.902236
vt 0.478784 0.901637
vt 0.486444 0.900994
vt 0.494514 0.900573
vt 0.502789 0.900548
vt 0.421297 0.901240
vt 0.413030 0.901336
vt 0.429359 0.901521
vt 0.437017 0.902020
vt 0.444241 0.902481
vt 0.451136 0.902753
vt 0.466278 0.955552
vt 0.458360 0.955720
vt 0.474156 0.955258
vt 0.481992 0.954886
vt 0.489801 0.954485
vt 0.497603 0.954088
vt 0.505535 0.953683
vt 0.419111 0.954751
vt 0.411177 0.954480
vt 0.426913 0.955017
vt 0.434723 0.955285
vt 0.442560 0.955525
vt 0.450440 0.955685
vt 0.462043 0.642620
vt 0.462043 0.634921
vt 0.465892 0.628254
vt 0.472560 0.624405
vt 0.480258 0.624405
vt 0.486926 0.628254
vt 0.490775 0.634921
vt 0.490775 0.642620
vt 0.486926 0.649287
vt 0.480258 0.653136
vt 0.472560 0.653136
vt 0.465892 0.649287
vt 0.630837 0.505376
vt 0.624170 0.509225
vt 0.616471 0.509225
vt 0.609804 0.505376
vt 0.605954 0.498708
vt 0.605954 0.491010
vt 0.609804 0.484342
vt 0.616471 0.480493
vt 0.624170 0.480493
vt 0.630837 0.484342
vt 0.634686 0.491010
vt 0.634686 0.498708
vt 0.000000 0.000000
s 0
usemtl Материал.001
f 1/1/1 13/2/1 24/3/1 12/4/1
f 2/5/2 14/6/2 13/2/2 1/1/2
f 3/7/3 15/8/3 14/6/3 2/5/3
f 4/9/4 16/10/4 15/8/4 3/7/4
f 5/11/5 17/12/5 16/10/5 4/9/5
f 6/13/6 18/14/6 17/12/6 5/11/6
f 7/15/7 19/16/7 18/17/7 6/18/7
f 8/19/8 20/20/8 19/16/8 7/15/8
f 9/21/9 21/22/9 20/20/9 8/19/9
f 10/23/10 22/24/10 21/22/10 9/21/10
f 11/25/11 23/26/11 22/24/11 10/23/11
f 12/4/12 24/3/12 23/26/12 11/25/12
f 13/2/13 25/27/13 36/28/13 24/3/13
f 14/6/14 26/29/14 25/27/14 13/2/14
f 15/8/15 27/30/15 26/29/15 14/6/15
f 16/10/16 28/31/16 27/30/16 15/8/16
f 17/12/17 29/32/17 28/31/17 16/10/17
f 18/14/18 30/33/18 29/32/18 17/12/18
f 19/16/19 31/34/19 30/35/19 18/17/19
f 20/20/20 32/36/20 31/34/20 19/16/20
f 21/22/21 33/37/21 32/36/21 20/20/21
f 22/24/22 34/38/22 33/37/22 21/22/22
f 23/26/23 35/39/23 34/38/23 22/24/23
f 24/3/24 36/28/24 35/39/24 23/26/24
f 25/40/25 37/41/25 48/42/25 36/43/25
f 26/44/26 38/45/26 37/41/26 25/40/26
f 27/46/27 39/47/27 38/45/27 26/44/27
f 28/48/28 40/49/28 39/47/28 27/46/28
f 29/50/29 41/51/29 40/49/29 28/48/29
f 30/52/30 42/53/30 41/51/30 29/50/30
f 31/54/31 43/55/31 42/56/31 30/57/31
f 32/58/32 44/59/32 43/55/32 31/54/32
f 33/60/33 45/61/33 44/59/33 32/58/33
f 34/62/34 46/63/34 45/61/34 33/60/34
f 35/64/35 47/65/35 46/63/35 34/62/35
f 36/43/36 48/42/36 47/65/36 35/64/36
f 37/41/37 49/66/37 60/67/37 48/42/37
f 38/45/38 50/68/38 49/66/38 37/41/38
f 39/47/39 51/69/39 50/68/39 38/45/39
f 40/49/40 52/70/40 51/69/40 39/47/40
f 41/51/41 53/71/41 52/70/41 40/49/41
f 42/53/42 54/72/42 53/71/42 41/51/42
f 43/55/43 55/73/43 54/74/43 42/56/43
f 44/59/44 56/75/44 55/73/44 43/55/44
f 45/61/45 57/76/45 56/75/45 44/59/45
f 46/63/46 58/77/46 57/76/46 45/61/46
f 47/65/47 59/78/47 58/77/47 46/63/47
f 48/42/48 60/67/48 59/78/48 47/65/48
f 49/66/49 61/79/49 72/80/49 60/67/49
f 50/68/50 62/81/50 61/79/50 49/66/50
f 51/69/51 63/82/51 62/81/51 50/68/51
f 52/70/52 64/83/52 63/82/52 51/69/52
f 53/71/53 65/84/53 64/83/53 52/70/53
f 54/72/54 66/85/54 65/84/54 53/71/54
f 55/73/55 67/86/55 66/87/55 54/74/55
f 56/75/56 68/88/56 67/86/56 55/73/56
f 57/76/57 69/89/57 68/88/57 56/75/57
f 58/77/58 70/90/58 69/89/58 57/76/58
f 59/78/59 71/91/59 70/90/59 58/77/59
f 60/67/60 72/80/60 71/91/60 59/78/60
f 61/79/61 73/92/61 84/93/61 72/80/61
f 62/81/62 74/94/62 73/92/62 61/79/62
f 63/82/63 75/95/63 74/94/63 62/81/63
f 64/83/64 76/96/64 75/95/64 63/82/64
f 65/84/65 77/97/65 76/96/65 64/83/65
f 66/85/66 78/98/66 77/97/66 65/84/66
f 67/86/67 79/99/67 78/100/67 66/87/67
f 68/88/68 80/101/68 79/99/68 67/86/68
f 69/89/69 81/102/69 80/101/69 68/88/69
f 70/90/70 82/103/70 81/102/70 69/89/70
f 71/91/71 83/104/71 82/103/71 70/90/71
f 72/80/72 84/93/72 83/104/72 71/91/72
f 73/92/73 85/105/73 96/106/73 84/93/73
f 74/94/74 86/107/74 85/105/74 73/92/74
f 75/95/75 87/108/75 86/107/75 74/94/75
f 76/96/76 88/109/76 87/108/76 75/95/76
f 77/97/77 89/110/77 88/109/77 76/96/77
f 78/98/78 90/111/78 89/110/78 77/97/78
f 79/99/79 91/112/79 90/113/79 78/100/79
f 80/101/80 92/114/80 91/112/80 79/99/80
f 81/102/81 93/115/81 92/114/81 80/101/81
f 82/103/82 94/116/82 93/115/82 81/102/82
f 83/104/83 95/117/83 94/116/83 82/103/83
f 84/93/84 96/106/84 95/117/84 83/104/84
f 85/118/85 97/119/85 108/120/85 96/121/85
f 86/122/86 98/123/86 97/119/86 85/118/86
f 87/124/87 99/125/87 98/123/87 86/122/87
f 88/126/88 100/127/88 99/125/88 87/124/88
f 89/128/89 101/129/89 100/127/89 88/126/89
f 90/130/90 102/131/90 101/129/90 89/128/90
f 91/132/91 103/133/91 102/134/91 90/135/91
f 92/136/92 104/137/92 103/133/92 91/132/92
f 93/138/93 105/139/93 104/137/93 92/136/93
f 94/140/94 106/141/94 105/139/94 93/138/94
f 95/142/95 107/143/95 106/141/95 94/140/95
f 96/121/96 108/120/96 107/143/96 95/142/96
f 97/119/97 109/144/97 120/145/97 108/120/97
f 98/123/98 110/146/98 109/144/98 97/119/98
f 99/125/99 111/147/99 110/146/99 98/123/99
f 100/127/100 112/148/100 111/147/100 99/125/100
f 101/129/101 113/149/101 112/148/101 100/127/101
f 102/131/102 114/150/102 113/149/102 101/129/102
f 103/133/103 115/151/103 114/152/103 102/134/103
f 104/137/104 116/153/104 115/151/104 103/133/104
f 105/139/105 117/154/105 116/153/105 104/137/105
f 106/141/106 118/155/106 117/154/106 105/139/106
f 107/143/107 119/156/107 118/155/107 106/141/107
f 108/120/108 120/145/108 119/156/108 107/143/108
f 109/144/109 121/157/109 132/158/109 120/145/109
f 110/146/110 122/159/110 121/157/110 109/144/110
f 111/147/111 123/160/111 122/159/111 110/146/111
f 112/148/112 124/161/112 123/160/112 111/147/112
f 113/149/113 125/162/113 124/161/113 112/148/113
f 114/150/114 126/163/114 125/162/114 113/149/114
f 115/151/115 127/164/115 126/165/115 114/152/115
f 116/153/116 128/166/116 127/164/116 115/151/116
f 117/154/117 129/167/117 128/166/117 116/153/117
f 118/155/118 130/168/118 129/167/118 117/154/118
f 119/156/119 131/169/119 130/168/119 118/155/119
f 120/145/120 132/158/120 131/169/120 119/156/120
f 121/170/121 133/171/121 144/172/121 132/173/121
f 122/174/122 134/175/122 133/171/122 121/170/122
f 123/176/123 135/177/123 134/175/123 122/174/123
f 124/178/124 136/179/124 135/177/124 123/176/124
f 125/180/125 137/181/125 136/179/125 124/178/125
f 126/182/126 138/183/126 137/181/126 125/180/126
f 127/184/127 139/185/127 138/186/127 126/187/127
f 128/188/128 140/189/128 139/185/128 127/184/128
f 129/190/129 141/191/129 140/189/129 128/188/129
f 130/192/130 142/193/130 141/191/130 129/190/130
f 131/194/131 143/195/131 142/193/131 130/192/131
f 132/173/132 144/172/132 143/195/132 131/194/132
f 133/171/133 145/196/133 156/197/133 144/172/133
f 134/175/134 146/198/134 145/196/134 133/171/134
f 135/177/135 147/199/135 146/198/135 134/175/135
f 136/179/136 148/200/136 147/199/136 135/177/136
f 137/181/137 149/201/137 148/200/137 136/179/137
f 138/183/138 150/202/138 149/201/138 137/181/138
f 139/185/139 151/203/139 150/204/139 138/186/139
f 140/189/140 152/205/140 151/203/140 139/185/140
f 141/191/141 153/206/141 152/205/141 140/189/141
f 142/193/142 154/207/142 153/206/142 141/191/142
f 143/195/143 155/208/143 154/207/143 142/193/143
f 144/172/144 156/197/144 155/208/144 143/195/144
f 145/196/145 157/209/145 168/210/145 156/197/145
f 146/198/146 158/211/146 157/209/146 145/196/146
f 147/199/147 159/212/147 158/211/147 146/198/147
f 148/200/148 160/213/148 159/212/148 147/199/148
f 149/201/149 161/214/149 160/213/149 148/200/149
f 150/202/150 162/215/150 161/214/150 149/201/150
f 151/203/151 163/216/151 162/217/151 150/204/151
f 152/205/152 164/218/152 163/216/152 151/203/152
f 153/206/153 165/219/153 164/218/153 152/205/153
f 154/207/154 166/220/154 165/219/154 153/206/154
f 155/208/155 167/221/155 166/220/155 154/207/155
f 156/197/156 168/210/156 167/221/156 155/208/156
f 168/222/157 157/223/157 158/224/157 159/225/157 160/226/157 161/227/157 162/228/157 163/229/157 164/230/157 165/231/157 166/232/157 167/233/157
f 12/234/157 11/235/157 10/236/157 9/237/157 8/238/157 7/239/157 6/240/157 5/241/157 4/242/157 3/243/157 2/244/157 1/245/157
f 169/246/158 170/246/158 172/246/158 171/246/158
f 171/246/159 172/246/159 174/246/159 173/246/159
f 173/246/160 174/246/160 176/246/160 175/246/160
f 175/246/161 176/246/161 178/246/161 177/246/161
f 177/246/162 178/246/162 180/246/162 179/246/162
f 179/246/163 180/246/163 182/246/163 181/246/163
f 172/246/164 170/246/164 184/246/164 182/246/164 180/246/164 178/246/164 176/246/164 174/246/164
f 181/246/165 182/246/165 184/246/165 183/246/165
f 183/246/166 184/246/166 170/246/166 169/246/166
f 169/246/167 171/246/167 173/246/167 175/246/167 177/246/167 179/246/167 181/246/167 183/246/167
f 185/246/158 186/246/158 188/246/158 187/246/158
f 187/246/159 188/246/159 190/246/159 189/246/159
f 189/246/160 190/246/160 192/246/160 191/246/160
f 191/246/161 192/246/161 194/246/161 193/246/161
f 193/246/162 194/246/162 196/246/162 195/246/162
f 195/246/163 196/246/163 198/246/163 197/246/163
f 188/246/164 186/246/164 200/246/164 198/246/164 196/246/164 194/246/164 192/246/164 190/246/164
f 197/246/165 198/246/165 200/246/165 199/246/165
f 199/246/166 200/246/166 186/246/166 185/246/166
f 185/246/167 187/246/167 189/246/167 191/246/167 193/246/167 195/246/167 197/246/167 199/246/167
f 201/246/158 202/246/158 204/246/158 203/246/158
f 203/246/159 204/246/159 206/246/159 205/246/159
f 205/246/160 206/246/160 208/246/160 207/246/160
f 207/246/161 208/246/161 210/246/161 209/246/161
f 209/246/162 210/246/162 212/246/162 211/246/162
f 211/246/163 212/246/163 214/246/163 213/246/163
f 204/246/164 202/246/164 216/246/164 214/246/164 212/246/164 210/246/164 208/246/164 206/246/164
f 213/246/165 214/246/165 216/246/165 215/246/165
f 215/246/166 216/246/166 202/246/166 201/246/166
f 201/246/167 203/246/167 205/246/167 207/246/167 209/246/167 211/246/167 213/246/167 215/246/167
f 217/246/158 218/246/158 220/246/158 219/246/158
f 219/246/159 220/246/159 222/246/159 221/246/159
f 221/246/160 222/246/160 224/246/160 223/246/160
f 223/246/161 224/246/161 226/246/161 225/246/161
f 225/246/162 226/246/162 228/246/162 227/246/162
f 227/246/163 228/246/163 230/246/163 229/246/163
f 220/246/164 218/246/164 232/246/164 230/246/164 228/246/164 226/246/164 224/246/164 222/246/164
f 229/246/165 230/246/165 232/246/165 231/246/165
f 231/246/166 232/246/166 218/246/166 217/246/166
f 217/246/167 219/246/167 221/246/167 223/246/167 225/246/167 227/246/167 229/246/167 231/246/167
f 233/246/168 234/246/168 236/246/168 235/246/168
f 235/246/169 236/246/169 238/246/169 237/246/169
f 237/246/170 238/246/170 240/246/170 239/246/170
f 239/246/171 240/246/171 242/246/171 241/246/171
f 241/246/172 242/246/172 244/246/172 243/246/172
f 243/246/173 244/246/173 246/246/173 245/246/173
f 236/246/174 234/246/174 248/246/174 246/246/174 244/246/174 242/246/174 240/246/174 238/246/174
f 245/246/175 246/246/175 248/246/175 247/246/175
f 247/246/176 248/246/176 234/246/176 233/246/176
f 233/246/157 235/246/157 237/246/157 239/246/157 241/246/157 243/246/157 245/246/157 247/246/157
f 249/246/168 250/246/168 252/246/168 251/246/168
f 251/246/169 252/246/169 254/246/169 253/246/169
f 253/246/170 254/246/170 256/246/170 255/246/170
f 255/246/171 256/246/171 258/246/171 257/246/171
f 257/246/172 258/246/172 260/246/172 259/246/172
f 259/246/173 260/246/173 262/246/173 261/246/173
f 252/246/174 250/246/174 264/246/174 262/246/174 260/246/174 258/246/174 256/246/174 254/246/174
f 261/246/175 262/246/175 264/246/175 263/246/175
f 263/246/176 264/246/176 250/246/176 249/246/176
f 249/246/157 251/246/157 253/246/157 255/246/157 257/246/157 259/246/157 261/246/157 263/246/157
