# Blender 4.2.2 LTS
# www.blender.org
mtllib power pole.mtl
o power_pole
v 0.608927 35.545547 0.006975
v 0.608927 36.329002 0.006975
v 0.608927 35.545547 -0.181446
v 0.608927 36.329002 -0.181446
v 0.790446 35.545547 0.006975
v 0.790446 36.329002 0.006975
v 0.790446 35.545547 -0.181446
v 0.790446 36.329002 -0.181446
v 0.608927 35.790966 0.006975
v 0.608927 35.790966 -0.181446
v 0.790446 35.790966 -0.181446
v 0.790446 35.790966 0.006975
v 0.292949 35.545547 -0.181446
v 0.292949 35.545547 0.006975
v 0.292949 35.790966 -0.181446
v 0.292949 35.790966 0.006975
v 0.083699 33.050972 -4.142712
v 0.083699 33.394890 -4.142712
v 0.083699 33.050972 -3.954290
v 0.083699 33.394890 -3.954290
v 0.265219 33.050972 -4.142712
v 0.265219 33.394890 -4.142712
v 0.265219 33.050972 -3.954290
v 0.265219 33.394890 -3.954290
v 0.083699 33.050972 3.850010
v 0.083699 33.394890 3.850010
v 0.083699 33.050972 3.661589
v 0.083699 33.394890 3.661589
v 0.265219 33.050972 3.850010
v 0.265219 33.394890 3.850010
v 0.265219 33.050972 3.661589
v 0.265219 33.394890 3.661589
v 0.176240 33.134159 3.652751
v 0.176240 33.134159 3.860804
v 0.445814 33.022495 3.652751
v 0.445814 33.022495 3.860804
v 0.557475 32.752922 3.652751
v 0.557475 32.752922 3.860804
v 0.445814 32.483349 3.652751
v 0.445814 32.483349 3.860804
v 0.176240 32.371685 3.652751
v 0.176240 32.371685 3.860804
v -0.093335 32.483349 3.652751
v -0.093335 32.483349 3.860804
v -0.204996 32.752922 3.652751
v -0.204996 32.752922 3.860804
v -0.093335 33.022495 3.652751
v -0.093335 33.022495 3.860804
v 0.176240 33.134155 -3.945448
v 0.176240 33.134155 -4.153502
v 0.445814 33.022491 -3.945448
v 0.445814 33.022495 -4.153502
v 0.557475 32.752918 -3.945448
v 0.557475 32.752918 -4.153502
v 0.445814 32.483345 -3.945448
v 0.445814 32.483345 -4.153502
v 0.176240 32.371685 -3.945448
v 0.176240 32.371685 -4.153502
v -0.093335 32.483345 -3.945448
v -0.093335 32.483345 -4.153502
v -0.204996 32.752918 -3.945448
v -0.204996 32.752918 -4.153502
v -0.093335 33.022491 -3.945448
v -0.093335 33.022495 -4.153502
v -0.167529 35.814228 0.443680
v -0.167529 35.525692 0.443680
v 0.206329 35.814228 0.288823
v 0.206329 35.525692 0.288823
v 0.361186 35.814232 -0.085034
v 0.361186 35.525692 -0.085034
v 0.206329 35.814232 -0.458892
v 0.206329 35.525692 -0.458892
v -0.167529 35.814232 -0.613749
v -0.167529 35.525692 -0.613749
v -0.541386 35.814232 -0.458892
v -0.541386 35.525692 -0.458892
v -0.696243 35.814232 -0.085034
v -0.696243 35.525692 -0.085034
v -0.541386 35.814228 0.288823
v -0.541386 35.525692 0.288823
v 0.191315 33.251808 3.360689
v 0.191315 33.591091 3.550670
v 0.470397 33.251808 3.476288
v 0.336060 33.591091 3.610625
v 0.585996 33.251808 3.755370
v 0.396015 33.591091 3.755370
v 0.470397 33.251808 4.034451
v 0.336060 33.591091 3.900114
v 0.191315 33.251808 4.150050
v 0.191315 33.591091 3.960070
v -0.087766 33.251808 4.034451
v 0.046571 33.591091 3.900114
v -0.203365 33.251808 3.755370
v -0.013385 33.591091 3.755370
v -0.087766 33.251808 3.476288
v 0.046571 33.591091 3.610625
v 0.383692 33.591091 3.562993
v 0.191315 33.591091 3.483307
v 0.463377 33.591091 3.755370
v 0.383692 33.591091 3.947747
v 0.191315 33.591091 4.027432
v -0.001062 33.591091 3.947747
v -0.080747 33.591091 3.755370
v -0.001062 33.591091 3.562993
v 0.310544 33.802868 3.636141
v 0.191315 33.802868 3.586755
v 0.359930 33.802868 3.755370
v 0.310544 33.802868 3.874598
v 0.191315 33.802868 3.923985
v 0.072086 33.802868 3.874598
v 0.022700 33.802868 3.755370
v 0.072086 33.802868 3.636141
v 0.191315 33.251808 -3.653390
v 0.191315 33.591091 -3.843371
v 0.470397 33.251808 -3.768990
v 0.336060 33.591091 -3.903326
v 0.585996 33.251808 -4.048071
v 0.396015 33.591091 -4.048071
v 0.470397 33.251808 -4.327153
v 0.336060 33.591091 -4.192816
v 0.191315 33.251808 -4.442752
v 0.191315 33.591091 -4.252771
v -0.087766 33.251808 -4.327153
v 0.046571 33.591091 -4.192816
v -0.203365 33.251808 -4.048071
v -0.013385 33.591091 -4.048071
v -0.087766 33.251808 -3.768990
v 0.046571 33.591091 -3.903326
v 0.383692 33.591091 -3.855694
v 0.191315 33.591091 -3.776009
v 0.463377 33.591091 -4.048071
v 0.383692 33.591091 -4.240448
v 0.191315 33.591091 -4.320133
v -0.001062 33.591091 -4.240448
v -0.080747 33.591091 -4.048071
v -0.001062 33.591091 -3.855694
v 0.310544 33.802868 -3.928843
v 0.191315 33.802868 -3.879456
v 0.359930 33.802868 -4.048071
v 0.310544 33.802868 -4.167300
v 0.191315 33.802868 -4.216686
v 0.072086 33.802868 -4.167300
v 0.022700 33.802868 -4.048071
v 0.072086 33.802868 -3.928843
v 0.702268 35.940262 -0.505507
v 0.702268 36.279549 -0.315526
v 0.981350 35.940262 -0.389908
v 0.847013 36.279549 -0.255571
v 1.096949 35.940262 -0.110826
v 0.906968 36.279549 -0.110826
v 0.981350 35.940262 0.168255
v 0.847013 36.279549 0.033918
v 0.702268 35.940262 0.283854
v 0.702268 36.279549 0.093873
v 0.423187 35.940262 0.168255
v 0.557524 36.279549 0.033918
v 0.307588 35.940262 -0.110826
v 0.497568 36.279549 -0.110826
v 0.423187 35.940262 -0.389908
v 0.557524 36.279549 -0.255571
v 0.894645 36.279549 -0.303203
v 0.702268 36.279549 -0.382889
v 0.974331 36.279549 -0.110826
v 0.894645 36.279549 0.081550
v 0.702268 36.279549 0.161236
v 0.509891 36.279549 0.081550
v 0.430206 36.279549 -0.110826
v 0.509891 36.279549 -0.303203
v 0.821497 36.491322 -0.230055
v 0.702268 36.491322 -0.279441
v 0.870883 36.491322 -0.110826
v 0.821497 36.491322 0.008402
v 0.702268 36.491322 0.057789
v 0.583040 36.491322 0.008402
v 0.533653 36.491322 -0.110826
v 0.583040 36.491322 -0.230055
v 0.176240 33.097828 -4.896265
v 0.176240 33.097828 4.603568
v 0.420124 32.996807 -4.896265
v 0.420124 32.996807 4.603568
v 0.521145 32.752922 -4.896265
v 0.521145 32.752922 4.603568
v 0.420124 32.509037 -4.896265
v 0.420124 32.509037 4.603568
v 0.176240 32.408016 -4.896265
v 0.176240 32.408016 4.603568
v -0.067645 32.509037 -4.896265
v -0.067645 32.509037 4.603568
v -0.168666 32.752922 -4.896265
v -0.168666 32.752922 4.603568
v -0.067645 32.996807 -4.896265
v -0.067645 32.996807 4.603568
v -0.175657 0.011612 -0.586065
v -0.175657 35.917671 -0.586065
v 0.135270 0.011612 -0.457275
v 0.135270 35.917671 -0.457275
v 0.264060 0.011612 -0.146349
v 0.264060 35.917671 -0.146349
v 0.135270 0.011612 0.164578
v 0.135270 35.917671 0.164578
v -0.175657 0.011612 0.293368
v -0.175657 35.917671 0.293368
v -0.486583 0.011612 0.164578
v -0.486583 35.917671 0.164578
v -0.615373 0.011612 -0.146349
v -0.615373 35.917671 -0.146349
v -0.486583 0.011612 -0.457275
v -0.486583 35.917671 -0.457275
v -0.194853 30.160530 0.160781
v 0.483061 32.768509 1.627059
v -0.156285 30.272646 -0.056466
v 0.521630 32.880623 1.409812
v 0.048538 30.092661 0.168966
v 0.726453 32.700638 1.635244
v 0.087107 30.204777 -0.048281
v 0.765022 32.812756 1.417997
v -0.194853 30.160530 -0.453479
v 0.483061 32.768509 -1.919756
v -0.156285 30.272646 -0.236232
v 0.521630 32.880623 -1.702509
v 0.048538 30.092661 -0.461664
v 0.726453 32.700638 -1.927941
v 0.087107 30.204777 -0.244416
v 0.765022 32.812756 -1.710694
v 0.394574 35.276588 0.269355
v 0.497809 36.316978 0.078747
v 0.479997 35.276588 0.315621
v 0.583233 36.316978 0.125014
v 0.348308 35.276588 0.354778
v 0.451543 36.329517 0.164171
v 0.433731 35.276588 0.401045
v 0.536966 36.329517 0.210437
v 0.426021 35.807953 0.211292
v 0.511445 35.807953 0.257559
v 0.465179 35.807953 0.342982
v 0.379755 35.807953 0.296716
v 0.519190 36.406696 0.031790
v 0.604613 36.406696 0.078056
v 0.558347 36.419235 0.163479
v 0.472924 36.419235 0.117213
v 0.544337 36.313011 -0.007159
v 0.629761 36.313011 0.039107
v 0.554651 36.392929 -0.033684
v 0.640075 36.392929 0.012582
v 0.456132 36.062466 0.155697
v 0.541556 36.062466 0.201964
v 0.495289 36.068733 0.287387
v 0.409866 36.068733 0.241121
v 0.479997 33.321983 0.315621
v 0.394574 33.321983 0.269355
v 0.433731 33.321983 0.401045
v 0.348308 33.321983 0.354778
v 0.977518 35.276592 -0.602972
v 0.874283 36.316982 -0.412365
v 0.892095 35.276592 -0.649238
v 0.788859 36.316982 -0.458631
v 1.023784 35.276592 -0.688396
v 0.920549 36.329521 -0.497788
v 0.938361 35.276592 -0.734662
v 0.835126 36.329521 -0.544054
v 0.946070 35.807957 -0.544910
v 0.860647 35.807957 -0.591176
v 0.906913 35.807957 -0.676599
v 0.992337 35.807957 -0.630333
v 0.852902 36.406700 -0.365407
v 0.767479 36.406700 -0.411673
v 0.813745 36.419243 -0.497096
v 0.899168 36.419243 -0.450830
v 0.827755 36.313015 -0.326458
v 0.742331 36.313015 -0.372724
v 0.817441 36.392933 -0.299933
v 0.732017 36.392933 -0.346199
v 0.915960 36.062469 -0.489315
v 0.830536 36.062469 -0.535581
v 0.876803 36.068741 -0.621004
v 0.962226 36.068741 -0.574738
v 0.892095 7.740734 -0.649238
v 0.977518 7.740734 -0.602972
v 0.938361 7.740734 -0.734662
v 1.023784 7.740734 -0.688396
v 0.470478 36.303108 -0.271446
v 0.470478 36.416431 -0.271446
v 0.624521 36.303108 -0.396453
v 0.624521 36.416431 -0.396453
v 0.821839 36.303108 -0.375921
v 0.821839 36.416431 -0.375921
v 0.946846 36.303108 -0.221878
v 0.946846 36.416431 -0.221878
v 0.926314 36.303108 -0.024560
v 0.926314 36.416431 -0.024560
v 0.772271 36.303108 0.100447
v 0.772271 36.416431 0.100447
v 0.574953 36.303108 0.079915
v 0.574953 36.416431 0.079915
v 0.449947 36.303108 -0.074128
v 0.449947 36.416431 -0.074128
v -0.309158 32.534653 3.700574
v -0.092389 33.575043 3.700574
v -0.309158 32.534653 3.797722
v -0.092389 33.575043 3.797722
v -0.406306 32.534653 3.700574
v -0.189537 33.587585 3.700574
v -0.406306 32.534653 3.797722
v -0.189537 33.587585 3.797722
v -0.243126 33.066017 3.700574
v -0.243126 33.066017 3.797722
v -0.340274 33.066017 3.797722
v -0.340274 33.066017 3.700574
v -0.040916 33.664764 3.697011
v -0.040916 33.664764 3.794158
v -0.138064 33.677303 3.794159
v -0.138064 33.677303 3.697011
v 0.005308 33.571075 3.700574
v 0.005308 33.571075 3.797722
v 0.033544 33.650997 3.697011
v 0.033544 33.650997 3.794158
v -0.179901 33.320530 3.700574
v -0.179901 33.320530 3.797722
v -0.277049 33.326801 3.797722
v -0.277049 33.326801 3.700574
v -0.309158 24.344381 3.797722
v -0.309158 24.344381 3.700574
v -0.406306 24.344381 3.797722
v -0.406306 24.344381 3.700574
v 0.735514 32.534657 3.797722
v 0.518745 33.575047 3.797722
v 0.735514 32.534657 3.700574
v 0.518745 33.575047 3.700574
v 0.832662 32.534657 3.797722
v 0.615893 33.587589 3.797722
v 0.832662 32.534657 3.700574
v 0.615893 33.587589 3.700574
v 0.669482 33.066021 3.797722
v 0.669482 33.066021 3.700574
v 0.766630 33.066021 3.700574
v 0.766630 33.066021 3.797722
v 0.467272 33.664768 3.801285
v 0.467272 33.664768 3.704137
v 0.564420 33.677307 3.704137
v 0.564420 33.677307 3.801285
v 0.421048 33.571083 3.797722
v 0.421048 33.571083 3.700574
v 0.392812 33.651001 3.801285
v 0.392812 33.651001 3.704137
v 0.606257 33.320534 3.797722
v 0.606257 33.320534 3.700574
v 0.703405 33.326805 3.700574
v 0.703405 33.326805 3.797722
v 0.735514 22.579884 3.700574
v 0.735514 22.579884 3.797722
v 0.832662 22.579884 3.700574
v 0.832662 22.579884 3.797722
v 0.202524 33.561176 3.509763
v 0.202524 33.674496 3.509763
v 0.385806 33.561176 3.585681
v 0.385806 33.674496 3.585681
v 0.461724 33.561176 3.768964
v 0.461724 33.674496 3.768964
v 0.385806 33.561176 3.952246
v 0.385806 33.674496 3.952246
v 0.202524 33.561176 4.028164
v 0.202524 33.674496 4.028164
v 0.019242 33.561176 3.952246
v 0.019242 33.674496 3.952246
v -0.056676 33.561176 3.768964
v -0.056676 33.674496 3.768964
v 0.019242 33.561176 3.585681
v 0.019242 33.674496 3.585681
v -0.333216 32.590847 -4.095017
v -0.116447 33.631237 -4.094995
v -0.333227 32.590847 -3.997869
v -0.116458 33.631237 -3.997847
v -0.430364 32.590847 -4.095028
v -0.213595 33.643776 -4.095005
v -0.430374 32.590847 -3.997880
v -0.213606 33.643776 -3.997857
v -0.267184 33.122211 -4.095011
v -0.267195 33.122211 -3.997863
v -0.364343 33.122211 -3.997873
v -0.364332 33.122211 -4.095021
v -0.064974 33.720955 -4.098552
v -0.064984 33.720955 -4.001404
v -0.162132 33.733498 -4.001415
v -0.162122 33.733498 -4.098563
v -0.018750 33.627270 -4.094984
v -0.018760 33.627270 -3.997836
v 0.009486 33.707188 -4.098545
v 0.009476 33.707188 -4.001396
v -0.203959 33.376724 -4.095004
v -0.203969 33.376724 -3.997856
v -0.301117 33.382996 -3.997866
v -0.301107 33.382996 -4.095014
v -0.333227 21.325169 -3.997869
v -0.333216 21.325169 -4.095017
v -0.430374 21.325169 -3.997880
v -0.430364 21.325169 -4.095028
v 0.711446 32.590851 -3.997758
v 0.494677 33.631241 -3.997782
v 0.711456 32.590851 -4.094906
v 0.494687 33.631241 -4.094929
v 0.808594 32.590851 -3.997748
v 0.591825 33.643780 -3.997771
v 0.808604 32.590851 -4.094896
v 0.591835 33.643780 -4.094919
v 0.645414 33.122215 -3.997766
v 0.645424 33.122215 -4.094913
v 0.742572 33.122215 -4.094903
v 0.742562 33.122215 -3.997755
v 0.443204 33.720963 -3.994224
v 0.443214 33.720963 -4.091372
v 0.540362 33.733501 -4.091362
v 0.540352 33.733501 -3.994213
v 0.396979 33.627274 -3.997792
v 0.396990 33.627274 -4.094940
v 0.368743 33.707195 -3.994232
v 0.368754 33.707195 -4.091380
v 0.582189 33.376728 -3.997772
v 0.582199 33.376728 -4.094920
v 0.679347 33.382999 -4.094910
v 0.679336 33.382999 -3.997762
v 0.711456 27.009495 -4.094906
v 0.711446 27.009495 -3.997758
v 0.808604 27.009495 -4.094896
v 0.808594 27.009495 -3.997748
v 0.178486 33.617371 -4.285774
v 0.178486 33.730690 -4.285774
v 0.361761 33.617371 -4.209836
v 0.361761 33.730690 -4.209836
v 0.437659 33.617371 -4.026546
v 0.437659 33.730690 -4.026546
v 0.361721 33.617371 -3.843271
v 0.361721 33.730690 -3.843271
v 0.178431 33.617371 -3.767373
v 0.178431 33.730690 -3.767373
v -0.004843 33.617371 -3.843310
v -0.004843 33.730690 -3.843310
v -0.080742 33.617371 -4.026601
v -0.080742 33.730690 -4.026601
v -0.004804 33.617371 -4.209875
v -0.004804 33.730690 -4.209875
vn -1.0000 -0.0000 -0.0000
vn -0.0000 -0.0000 -1.0000
vn 1.0000 -0.0000 -0.0000
vn -0.0000 -0.0000 1.0000
vn -0.0000 -1.0000 -0.0000
vn -0.0000 1.0000 -0.0000
vn 0.3827 0.9239 -0.0000
vn 0.9239 0.3827 -0.0000
vn 0.9239 -0.3827 -0.0000
vn 0.3827 -0.9239 -0.0000
vn -0.3827 -0.9239 -0.0000
vn -0.9239 -0.3827 -0.0000
vn -0.9239 0.3827 -0.0000
vn -0.3827 0.9239 -0.0000
vn 0.3827 -0.0000 0.9239
vn 0.9239 -0.0000 0.3827
vn 0.9239 -0.0000 -0.3827
vn 0.3827 -0.0000 -0.9239
vn -0.3827 -0.0000 -0.9239
vn -0.9239 -0.0000 -0.3827
vn -0.9239 -0.0000 0.3827
vn -0.3827 -0.0000 0.9239
vn 0.3630 0.3167 -0.8763
vn 0.8763 0.3167 -0.3630
vn 0.8763 0.3167 0.3630
vn 0.3630 0.3167 0.8763
vn -0.3630 0.3167 0.8763
vn -0.8763 0.3167 0.3630
vn -0.8763 0.3167 -0.3630
vn -0.3630 0.3167 -0.8763
vn -0.9126 0.1555 -0.3780
vn -0.3780 0.1555 0.9126
vn 0.9126 0.1555 0.3780
vn 0.3780 0.1555 -0.9126
vn -0.3780 0.1555 -0.9126
vn -0.9126 0.1555 0.3780
vn 0.3780 0.1555 0.9126
vn 0.9126 0.1555 -0.3780
vn -0.9627 0.2685 -0.0324
vn 0.1558 0.4530 -0.8778
vn 0.9627 -0.2685 0.0324
vn -0.1558 -0.4530 0.8778
vn -0.2210 -0.8501 -0.4780
vn 0.2210 0.8501 0.4780
vn -0.9627 0.2685 0.0324
vn 0.1558 0.4530 0.8778
vn 0.9627 -0.2685 -0.0324
vn -0.1558 -0.4530 -0.8778
vn -0.2210 -0.8501 0.4780
vn 0.2210 0.8501 -0.4780
vn 0.4504 -0.3252 -0.8315
vn 0.8793 -0.0000 0.4762
vn -0.4515 0.3181 0.8336
vn -0.8793 -0.0000 -0.4762
vn -0.4131 0.4976 0.7627
vn -0.4726 0.1233 0.8726
vn 0.4726 -0.1233 -0.8726
vn 0.0610 0.9918 -0.1126
vn -0.8806 -0.0400 -0.4722
vn -0.8810 -0.0370 -0.4717
vn 0.8810 0.0370 0.4717
vn 0.4490 -0.3331 -0.8291
vn -0.0193 -0.9992 0.0357
vn 0.0866 0.9833 -0.1599
vn 0.8806 0.0400 0.4722
vn -0.4628 0.2356 0.8546
vn 0.8793 -0.0000 0.4763
vn 0.4622 -0.2411 -0.8534
vn 0.4762 -0.0000 -0.8793
vn -0.4762 -0.0000 0.8793
vn -0.4504 -0.3252 0.8315
vn 0.4515 0.3181 -0.8336
vn 0.4131 0.4976 -0.7627
vn 0.4726 0.1233 -0.8726
vn -0.4726 -0.1233 0.8726
vn -0.0610 0.9918 0.1126
vn 0.8806 -0.0400 0.4722
vn 0.8810 -0.0370 0.4717
vn -0.8810 0.0370 -0.4717
vn -0.4490 -0.3331 0.8291
vn 0.0193 -0.9992 -0.0357
vn -0.0866 0.9833 0.1599
vn -0.8806 0.0400 -0.4722
vn 0.4628 0.2356 -0.8546
vn -0.4622 -0.2411 0.8534
vn -0.6301 -0.0000 -0.7765
vn 0.1035 -0.0000 -0.9946
vn 0.7765 -0.0000 -0.6301
vn 0.9946 -0.0000 0.1035
vn 0.6301 -0.0000 0.7765
vn -0.1035 -0.0000 0.9946
vn -0.7765 -0.0000 0.6301
vn -0.9946 -0.0000 -0.1035
vn 0.9457 -0.3252 -0.0000
vn -0.9480 0.3181 -0.0000
vn -0.8674 0.4976 -0.0000
vn -0.9924 0.1233 -0.0000
vn 0.9924 -0.1233 -0.0000
vn 0.1280 0.9918 -0.0000
vn -0.0041 -0.0400 -0.9992
vn -0.0048 -0.0370 -0.9993
vn 0.0048 0.0370 0.9993
vn 0.9429 -0.3331 -0.0000
vn -0.0406 -0.9992 -0.0000
vn 0.1818 0.9833 -0.0000
vn 0.0041 0.0400 0.9992
vn -0.9718 0.2356 -0.0000
vn 0.9705 -0.2411 -0.0000
vn -0.9457 -0.3252 -0.0000
vn 0.9480 0.3181 -0.0000
vn 0.8674 0.4976 -0.0000
vn 0.9924 0.1233 -0.0000
vn -0.9924 -0.1233 -0.0000
vn -0.1280 0.9918 -0.0000
vn 0.0041 -0.0400 0.9992
vn 0.0048 -0.0370 0.9993
vn -0.0048 0.0369 -0.9993
vn -0.9429 -0.3331 -0.0000
vn 0.0405 -0.9992 -0.0000
vn -0.1818 0.9833 -0.0000
vn -0.0041 0.0400 -0.9992
vn 0.9718 0.2356 -0.0000
vn -0.9705 -0.2411 -0.0000
vn 0.9457 -0.3252 0.0001
vn -0.0001 -0.0000 1.0000
vn -0.9480 0.3181 -0.0001
vn 0.0001 -0.0000 -1.0000
vn -0.8674 0.4976 -0.0001
vn -0.9924 0.1233 -0.0001
vn 0.9924 -0.1233 0.0001
vn 0.1281 0.9918 -0.0000
vn -0.0040 -0.0400 -0.9992
vn -0.0047 -0.0369 -0.9993
vn 0.0047 0.0370 0.9993
vn 0.9429 -0.3331 0.0001
vn 0.0040 0.0400 0.9992
vn -0.9718 0.2356 -0.0001
vn 0.9705 -0.2411 0.0001
vn 1.0000 -0.0000 0.0001
vn -1.0000 -0.0000 -0.0001
vn -0.9457 -0.3252 -0.0001
vn 0.9480 0.3181 0.0001
vn 0.8674 0.4976 0.0001
vn 0.9924 0.1233 0.0001
vn -0.9924 -0.1233 -0.0001
vn 0.0040 -0.0400 0.9992
vn 0.0047 -0.0370 0.9993
vn -0.0047 0.0369 -0.9993
vn -0.9429 -0.3331 -0.0001
vn 0.0406 -0.9992 -0.0000
vn -0.1819 0.9833 -0.0000
vn -0.0040 0.0400 -0.9992
vn 0.9718 0.2356 0.0001
vn -0.9705 -0.2411 -0.0001
vn 0.3828 -0.0000 -0.9238
vn 0.9239 -0.0000 -0.3826
vn 0.9238 -0.0000 0.3828
vn 0.3826 -0.0000 0.9239
vn -0.3828 -0.0000 0.9238
vn -0.9239 -0.0000 0.3826
vn -0.9238 -0.0000 -0.3828
vn -0.3826 -0.0000 -0.9239
vt 0.105615 0.704086
vt 0.003713 0.704086
vt 0.003713 0.638949
vt 0.105615 0.638949
vt 0.003713 0.573813
vt 0.105615 0.573813
vt 0.003713 0.508676
vt 0.105615 0.508676
vt 0.003713 0.443539
vt 0.105615 0.443539
vt 0.303448 0.586219
vt 0.343387 0.601927
vt 0.345412 0.631522
vt 0.298674 0.643404
vt 0.967582 0.906618
vt 0.967582 0.971754
vt 0.902445 0.971754
vt 0.902445 0.906618
vt 0.375401 0.659630
vt 0.309843 0.688055
vt 0.385829 0.586443
vt 0.322970 0.537883
vt 0.185604 0.646184
vt 0.185604 0.572492
vt 0.989684 0.206764
vt 0.943203 0.206764
vt 0.943203 0.141628
vt 0.989684 0.141628
vt 0.191784 0.518902
vt 0.188784 0.695811
vt 0.333874 0.462520
vt 0.202688 0.443539
vt 0.178178 0.638949
vt 0.178178 0.704086
vt 0.113041 0.704086
vt 0.113041 0.638949
vt 0.178178 0.443539
vt 0.178178 0.508676
vt 0.113041 0.508676
vt 0.113041 0.443539
vt 0.178178 0.573813
vt 0.113041 0.573813
vt 0.956900 0.563378
vt 0.891763 0.563378
vt 0.891763 0.498241
vt 0.956900 0.498241
vt 0.829882 0.906618
vt 0.895019 0.906618
vt 0.895019 0.971755
vt 0.829882 0.971755
vt 0.682082 0.654978
vt 0.616945 0.654978
vt 0.616945 0.589841
vt 0.682082 0.589841
vt 0.616945 0.524705
vt 0.682082 0.524705
vt 0.616945 0.459568
vt 0.682082 0.459568
vt 0.616945 0.394431
vt 0.682082 0.394431
vt 0.323304 0.879797
vt 0.323304 0.944934
vt 0.258167 0.944934
vt 0.258167 0.879797
vt 0.250741 0.944934
vt 0.185604 0.944934
vt 0.185604 0.879797
vt 0.250741 0.879797
vt 0.297693 0.764531
vt 0.337735 0.764531
vt 0.337735 0.779854
vt 0.297693 0.779854
vt 0.337735 0.795178
vt 0.297693 0.795178
vt 0.337735 0.810501
vt 0.297693 0.810501
vt 0.337735 0.825824
vt 0.297693 0.825824
vt 0.297693 0.703238
vt 0.337735 0.703238
vt 0.337735 0.718561
vt 0.297693 0.718561
vt 0.337735 0.733884
vt 0.297693 0.733884
vt 0.652635 0.954228
vt 0.667958 0.954228
vt 0.678793 0.965063
vt 0.678793 0.980386
vt 0.667958 0.991222
vt 0.652635 0.991222
vt 0.641800 0.980386
vt 0.641800 0.965063
vt 0.337735 0.749208
vt 0.297693 0.749208
vt 0.911877 0.358980
vt 0.922712 0.348144
vt 0.938035 0.348144
vt 0.948870 0.358980
vt 0.948870 0.374303
vt 0.938035 0.385138
vt 0.922712 0.385138
vt 0.911877 0.374303
vt 0.345161 0.779854
vt 0.345161 0.764531
vt 0.385203 0.764531
vt 0.385203 0.779854
vt 0.345161 0.749208
vt 0.385203 0.749208
vt 0.345161 0.733884
vt 0.385203 0.733884
vt 0.345161 0.718561
vt 0.385203 0.718561
vt 0.345161 0.703238
vt 0.385203 0.703238
vt 0.345161 0.825824
vt 0.345161 0.810501
vt 0.385203 0.810501
vt 0.385203 0.825824
vt 0.608215 0.954228
vt 0.623538 0.954228
vt 0.634373 0.965063
vt 0.634373 0.980386
vt 0.623538 0.991222
vt 0.608215 0.991222
vt 0.597380 0.980386
vt 0.597380 0.965063
vt 0.345161 0.795178
vt 0.385203 0.795178
vt 0.904450 0.374303
vt 0.893615 0.385138
vt 0.878292 0.385138
vt 0.867456 0.374303
vt 0.867456 0.358980
vt 0.878291 0.348144
vt 0.893615 0.348144
vt 0.904450 0.358980
vt 0.479205 0.328013
vt 0.464052 0.328013
vt 0.464052 0.292324
vt 0.479205 0.292324
vt 0.464052 0.219913
vt 0.479205 0.219913
vt 0.464052 0.147502
vt 0.479205 0.147502
vt 0.464052 0.111813
vt 0.479205 0.111813
vt 0.464052 0.076124
vt 0.479205 0.076124
vt 0.464052 0.003713
vt 0.479205 0.003713
vt 0.672126 0.832809
vt 0.655964 0.864629
vt 0.633107 0.837219
vt 0.616945 0.766635
vt 0.616945 0.694225
vt 0.633107 0.662405
vt 0.655964 0.689815
vt 0.672126 0.760398
vt 0.479205 0.436113
vt 0.464052 0.436113
vt 0.464052 0.363702
vt 0.479205 0.363702
vt 0.868175 0.596656
vt 0.845318 0.569246
vt 0.829156 0.498662
vt 0.829156 0.426252
vt 0.845318 0.394431
vt 0.868175 0.421841
vt 0.884337 0.492425
vt 0.884337 0.564836
vt 0.853604 0.005304
vt 0.846094 0.047939
vt 0.822343 0.045018
vt 0.817390 0.003713
vt 0.801395 0.053208
vt 0.779707 0.015709
vt 0.785286 0.070343
vt 0.748020 0.043554
vt 0.777359 0.093950
vt 0.729542 0.084437
vt 0.780124 0.120257
vt 0.729682 0.132119
vt 0.794467 0.144501
vt 0.750806 0.178150
vt 0.819451 0.161598
vt 0.791314 0.213403
vt 0.853604 0.166031
vt 0.845143 0.230471
vt 0.277628 0.723125
vt 0.284611 0.744081
vt 0.255319 0.751789
vt 0.249567 0.734527
vt 0.842000 0.054981
vt 0.823224 0.052450
vt 0.805736 0.059733
vt 0.792364 0.074661
vt 0.786099 0.094987
vt 0.789028 0.117391
vt 0.801786 0.137738
vt 0.823248 0.151581
vt 0.850305 0.154090
vt 0.229531 0.983421
vt 0.216665 0.996287
vt 0.198470 0.996287
vt 0.185604 0.983421
vt 0.185604 0.965226
vt 0.198470 0.952360
vt 0.216665 0.952360
vt 0.229531 0.965226
vt 0.288847 0.765761
vt 0.290267 0.787804
vt 0.259978 0.787804
vt 0.258808 0.769646
vt 0.288847 0.809847
vt 0.284611 0.831526
vt 0.255319 0.823819
vt 0.258808 0.805961
vt 0.277628 0.852483
vt 0.268015 0.872370
vt 0.241649 0.857463
vt 0.249567 0.841081
vt 0.268015 0.703238
vt 0.241649 0.718145
vt 0.341032 0.948241
vt 0.341032 0.905652
vt 0.371148 0.875536
vt 0.413737 0.875536
vt 0.443853 0.905651
vt 0.443853 0.948241
vt 0.413737 0.978357
vt 0.371148 0.978357
vt 0.698430 0.394431
vt 0.740272 0.399329
vt 0.727629 0.445288
vt 0.699131 0.444738
vt 0.780208 0.419713
vt 0.749864 0.457750
vt 0.809855 0.456059
vt 0.764297 0.477838
vt 0.821730 0.502689
vt 0.771063 0.502976
vt 0.813108 0.549748
vt 0.766983 0.529988
vt 0.787074 0.588293
vt 0.752318 0.552732
vt 0.747845 0.614100
vt 0.728720 0.565794
vt 0.699215 0.623362
vt 0.698430 0.566346
vt 0.221584 0.852483
vt 0.193523 0.841081
vt 0.199275 0.823819
vt 0.228566 0.831527
vt 0.702711 0.453769
vt 0.725303 0.454114
vt 0.744452 0.463880
vt 0.756509 0.481655
vt 0.761873 0.503591
vt 0.757840 0.526605
vt 0.746251 0.546331
vt 0.726323 0.556676
vt 0.702471 0.556251
vt 0.955982 0.570804
vt 0.974177 0.570804
vt 0.987043 0.583670
vt 0.987043 0.601865
vt 0.974177 0.614731
vt 0.955982 0.614731
vt 0.943116 0.601865
vt 0.943116 0.583670
vt 0.232803 0.809848
vt 0.202764 0.805962
vt 0.203934 0.787804
vt 0.234222 0.787804
vt 0.232803 0.765761
vt 0.202764 0.769647
vt 0.199275 0.751789
vt 0.228566 0.744082
vt 0.221584 0.723125
vt 0.193523 0.734527
vt 0.185604 0.718145
vt 0.211970 0.703238
vt 0.211970 0.872371
vt 0.185604 0.857463
vt 0.506698 0.786540
vt 0.506698 0.743950
vt 0.536814 0.713834
vt 0.579404 0.713834
vt 0.609519 0.743950
vt 0.609519 0.786540
vt 0.579404 0.816655
vt 0.536814 0.816655
vt 0.822456 0.745441
vt 0.775501 0.744810
vt 0.769668 0.720445
vt 0.814314 0.701970
vt 0.753049 0.699502
vt 0.788074 0.663286
vt 0.728649 0.687093
vt 0.747042 0.638030
vt 0.699601 0.687321
vt 0.698430 0.630789
vt 0.699362 0.857107
vt 0.698430 0.803104
vt 0.727719 0.801728
vt 0.744095 0.850452
vt 0.751995 0.789559
vt 0.785845 0.826581
vt 0.769051 0.769015
vt 0.813139 0.788666
vt 0.442433 0.805587
vt 0.438197 0.827266
vt 0.408905 0.819558
vt 0.412395 0.801701
vt 0.767291 0.744705
vt 0.761752 0.724312
vt 0.746923 0.707007
vt 0.726611 0.695956
vt 0.703569 0.696401
vt 0.702015 0.793649
vt 0.725520 0.792937
vt 0.745971 0.781949
vt 0.761226 0.764957
vt 0.922824 0.614731
vt 0.904629 0.614731
vt 0.891763 0.601865
vt 0.891763 0.583670
vt 0.904629 0.570804
vt 0.922824 0.570804
vt 0.935690 0.583670
vt 0.935690 0.601865
vt 0.431214 0.848222
vt 0.421601 0.868110
vt 0.395235 0.853202
vt 0.403154 0.836820
vt 0.431214 0.718864
vt 0.438197 0.739821
vt 0.408905 0.747528
vt 0.403154 0.730266
vt 0.442433 0.761500
vt 0.443853 0.783543
vt 0.413564 0.783543
vt 0.412395 0.765386
vt 0.421601 0.698977
vt 0.395235 0.713885
vt 0.940162 0.237897
vt 0.970277 0.268013
vt 0.970277 0.310603
vt 0.940162 0.340718
vt 0.897572 0.340718
vt 0.867456 0.310603
vt 0.867456 0.268013
vt 0.897572 0.237897
vt 0.003713 0.165863
vt 0.144953 0.165863
vt 0.144953 0.219913
vt 0.003713 0.219913
vt 0.144953 0.273963
vt 0.003713 0.273963
vt 0.144953 0.328013
vt 0.003713 0.328013
vt 0.144953 0.382063
vt 0.003713 0.382063
vt 0.144953 0.436113
vt 0.003713 0.436113
vt 0.003713 0.003713
vt 0.144953 0.003713
vt 0.144953 0.057763
vt 0.003713 0.057763
vt 0.691968 0.956802
vt 0.691968 0.902752
vt 0.730187 0.864533
vt 0.784237 0.864533
vt 0.822456 0.902752
vt 0.822456 0.956802
vt 0.784237 0.995021
vt 0.730187 0.995021
vt 0.144953 0.111813
vt 0.003713 0.111813
vt 0.489498 0.863898
vt 0.543548 0.863898
vt 0.581767 0.902117
vt 0.581767 0.956167
vt 0.543548 0.994386
vt 0.489498 0.994386
vt 0.451279 0.956167
vt 0.451279 0.902117
vt 0.293618 0.165863
vt 0.152379 0.165863
vt 0.152379 0.111813
vt 0.293618 0.111813
vt 0.152379 0.057763
vt 0.293618 0.057763
vt 0.152379 0.003713
vt 0.293618 0.003713
vt 0.293618 0.436113
vt 0.152379 0.436113
vt 0.152379 0.382063
vt 0.293618 0.382063
vt 0.152379 0.328013
vt 0.293618 0.328013
vt 0.152379 0.273963
vt 0.293618 0.273963
vt 0.953299 0.134201
vt 0.899249 0.134201
vt 0.861030 0.095982
vt 0.861030 0.041932
vt 0.899249 0.003713
vt 0.953299 0.003713
vt 0.991518 0.041932
vt 0.991518 0.095982
vt 0.152379 0.219913
vt 0.293618 0.219913
vt 0.095982 0.849427
vt 0.134201 0.887646
vt 0.134201 0.941696
vt 0.095982 0.979915
vt 0.041932 0.979915
vt 0.003713 0.941696
vt 0.003713 0.887646
vt 0.041932 0.849427
vt 0.490653 0.738351
vt 0.451279 0.738351
vt 0.451279 0.698977
vt 0.490653 0.698977
vt 0.490653 0.856472
vt 0.451279 0.856472
vt 0.451279 0.817098
vt 0.490653 0.817098
vt 0.451279 0.777724
vt 0.490653 0.777724
vt 0.323131 0.991734
vt 0.283758 0.991734
vt 0.283758 0.952360
vt 0.323131 0.952360
vt 0.276331 0.952360
vt 0.276331 0.991733
vt 0.236958 0.991734
vt 0.236958 0.952360
vt 0.383775 0.024912
vt 0.387809 0.003713
vt 0.387809 0.414054
vt 0.383775 0.435253
vt 0.301045 0.003713
vt 0.340393 0.004574
vt 0.340393 0.414915
vt 0.301045 0.414054
vt 0.344427 0.025772
vt 0.344427 0.436113
vt 0.163186 0.750870
vt 0.141628 0.751813
vt 0.141628 0.712456
vt 0.163186 0.711512
vt 0.163186 0.799540
vt 0.141628 0.798597
vt 0.141628 0.759240
vt 0.163186 0.760183
vt 0.919309 0.433144
vt 0.915001 0.417694
vt 0.932296 0.414787
vt 0.935227 0.429672
vt 0.894690 0.436898
vt 0.895230 0.420620
vt 0.898996 0.437128
vt 0.902317 0.451435
vt 0.915392 0.434512
vt 0.916637 0.449194
vt 0.896279 0.462620
vt 0.907237 0.469515
vt 0.908768 0.490815
vt 0.891763 0.489779
vt 0.898558 0.428357
vt 0.913737 0.425793
vt 0.916760 0.467770
vt 0.917148 0.458837
vt 0.921438 0.444472
vt 0.925955 0.458008
vt 0.904708 0.460811
vt 0.896325 0.448503
vt 0.937565 0.440565
vt 0.940828 0.452870
vt 0.894952 0.410905
vt 0.912825 0.408473
vt 0.911747 0.394431
vt 0.913703 0.399790
vt 0.634347 0.361163
vt 0.634347 0.376325
vt 0.629816 0.376881
vt 0.629816 0.361719
vt 0.930257 0.398081
vt 0.892233 0.397063
vt 0.891763 0.402660
vt 0.656935 0.361163
vt 0.656935 0.376325
vt 0.641773 0.376325
vt 0.641773 0.361163
vt 0.949634 0.476317
vt 0.935854 0.481492
vt 0.924086 0.486817
vt 0.451844 0.384285
vt 0.452394 0.403447
vt 0.430190 0.404664
vt 0.431941 0.384276
vt 0.426805 0.383555
vt 0.424758 0.365546
vt 0.405856 0.385309
vt 0.406284 0.366626
vt 0.404962 0.406396
vt 0.400581 0.386668
vt 0.433709 0.353026
vt 0.421075 0.343286
vt 0.426871 0.003782
vt 0.443928 0.003997
vt 0.426654 0.394504
vt 0.407249 0.396499
vt 0.408655 0.342546
vt 0.406949 0.354350
vt 0.399499 0.371899
vt 0.395235 0.353705
vt 0.423139 0.353736
vt 0.431687 0.370036
vt 0.450955 0.354506
vt 0.451494 0.370511
vt 0.429620 0.416981
vt 0.406814 0.418135
vt 0.406694 0.436113
vt 0.404774 0.429151
vt 0.622390 0.361163
vt 0.622390 0.376325
vt 0.617859 0.376881
vt 0.617859 0.361719
vt 0.454533 0.425375
vt 0.432729 0.427502
vt 0.431571 0.434489
vt 0.664361 0.361163
vt 0.679523 0.361163
vt 0.679523 0.376325
vt 0.664361 0.376325
vt 0.456626 0.004212
vt 0.409835 0.003713
vt 0.395235 0.003713
vt 0.691004 0.549235
vt 0.689508 0.549235
vt 0.689508 0.518274
vt 0.691004 0.518274
vt 0.689508 0.487314
vt 0.691004 0.487314
vt 0.689508 0.456353
vt 0.691004 0.456353
vt 0.689508 0.425392
vt 0.691004 0.425392
vt 0.689508 0.394431
vt 0.691004 0.394431
vt 0.691004 0.642118
vt 0.689508 0.642118
vt 0.689508 0.611157
vt 0.691004 0.611157
vt 0.650233 0.946802
vt 0.619272 0.946802
vt 0.597380 0.924909
vt 0.597380 0.893948
vt 0.619272 0.872056
vt 0.650233 0.872056
vt 0.672126 0.893948
vt 0.672126 0.924909
vt 0.689508 0.580196
vt 0.691004 0.580196
vt 0.882923 0.141628
vt 0.913884 0.141628
vt 0.935776 0.163520
vt 0.935776 0.194481
vt 0.913884 0.216374
vt 0.882923 0.216374
vt 0.861030 0.194481
vt 0.861030 0.163520
vt 0.548632 0.623421
vt 0.550703 0.655743
vt 0.515218 0.653958
vt 0.516086 0.623112
vt 0.599300 0.625782
vt 0.591396 0.658194
vt 0.590706 0.623611
vt 0.589357 0.593647
vt 0.556863 0.622284
vt 0.559857 0.593116
vt 0.605896 0.572593
vt 0.584866 0.555611
vt 0.581286 0.394431
vt 0.609519 0.394431
vt 0.587949 0.641342
vt 0.556550 0.640231
vt 0.565313 0.556994
vt 0.562126 0.574179
vt 0.548818 0.600559
vt 0.544745 0.573161
vt 0.587764 0.573915
vt 0.600435 0.601773
vt 0.516624 0.600723
vt 0.516734 0.575646
vt 0.587926 0.677666
vt 0.551200 0.675014
vt 0.547496 0.703477
vt 0.545827 0.691961
vt 0.687462 0.697270
vt 0.687462 0.723738
vt 0.679552 0.724709
vt 0.679552 0.698241
vt 0.512018 0.688247
vt 0.587601 0.706408
vt 0.590865 0.695431
vt 0.168096 0.806967
vt 0.168096 0.833435
vt 0.141628 0.833435
vt 0.141628 0.806967
vt 0.506706 0.398448
vt 0.531558 0.397042
vt 0.553172 0.395659
vt 0.706785 0.273699
vt 0.705907 0.304881
vt 0.669719 0.304843
vt 0.674363 0.271917
vt 0.666087 0.270308
vt 0.664219 0.240921
vt 0.632044 0.271280
vt 0.634400 0.241121
vt 0.628676 0.305353
vt 0.623390 0.272999
vt 0.679502 0.221266
vt 0.659918 0.204761
vt 0.671294 0.004215
vt 0.700045 0.005691
vt 0.664878 0.288040
vt 0.633281 0.289523
vt 0.640274 0.202657
vt 0.636557 0.221439
vt 0.622988 0.249013
vt 0.617859 0.219429
vt 0.662485 0.221692
vt 0.675108 0.248753
vt 0.708315 0.225115
vt 0.707498 0.251246
vt 0.667700 0.324771
vt 0.630612 0.324568
vt 0.628781 0.353737
vt 0.626297 0.342261
vt 0.687462 0.662405
vt 0.687462 0.688873
vt 0.679552 0.689844
vt 0.679552 0.663375
vt 0.707380 0.340654
vt 0.671809 0.342119
vt 0.669308 0.353352
vt 0.533166 0.850550
vt 0.506698 0.850550
vt 0.506698 0.824082
vt 0.533166 0.824082
vt 0.722115 0.007147
vt 0.642750 0.003713
vt 0.617859 0.003713
vt 0.486631 0.273963
vt 0.489242 0.273963
vt 0.489242 0.328013
vt 0.486631 0.328013
vt 0.489242 0.382063
vt 0.486631 0.382063
vt 0.489242 0.436113
vt 0.486631 0.436113
vt 0.486631 0.003713
vt 0.489242 0.003713
vt 0.489242 0.057763
vt 0.486631 0.057763
vt 0.489242 0.111813
vt 0.486631 0.111813
vt 0.489242 0.165863
vt 0.486631 0.165863
vt 0.095982 0.842001
vt 0.041932 0.842001
vt 0.003713 0.803782
vt 0.003713 0.749732
vt 0.041932 0.711513
vt 0.095982 0.711512
vt 0.134201 0.749732
vt 0.134201 0.803782
vt 0.489242 0.219913
vt 0.486631 0.219913
vt 0.767761 0.368386
vt 0.729542 0.330166
vt 0.729542 0.276116
vt 0.767761 0.237897
vt 0.821811 0.237897
vt 0.860030 0.276116
vt 0.860030 0.330166
vt 0.821811 0.368386
vt 0.547099 0.300629
vt 0.548582 0.333985
vt 0.512043 0.331386
vt 0.513624 0.299597
vt 0.599352 0.304035
vt 0.590529 0.337343
vt 0.590512 0.301628
vt 0.589649 0.270653
vt 0.555596 0.299612
vt 0.559159 0.269632
vt 0.607211 0.249079
vt 0.585514 0.231178
vt 0.581859 0.003713
vt 0.610432 0.003713
vt 0.587309 0.319878
vt 0.554918 0.318111
vt 0.565193 0.232464
vt 0.561759 0.250156
vt 0.547688 0.277114
vt 0.543876 0.248921
vt 0.588325 0.250204
vt 0.600969 0.279256
vt 0.514704 0.276569
vt 0.515476 0.250859
vt 0.586557 0.357359
vt 0.548711 0.353875
vt 0.544320 0.383167
vt 0.542828 0.371250
vt 0.687462 0.767000
vt 0.687462 0.793469
vt 0.679552 0.794439
vt 0.679552 0.767971
vt 0.508014 0.366711
vt 0.585643 0.387005
vt 0.589232 0.375745
vt 0.567061 0.824082
vt 0.567061 0.850550
vt 0.540593 0.850550
vt 0.540593 0.824082
vt 0.506706 0.006277
vt 0.531644 0.005383
vt 0.553331 0.004504
vt 0.482715 0.617600
vt 0.480878 0.647002
vt 0.446709 0.645841
vt 0.452059 0.614926
vt 0.444289 0.613181
vt 0.443226 0.585393
vt 0.412265 0.613096
vt 0.415329 0.584842
vt 0.408050 0.645051
vt 0.404087 0.614452
vt 0.457893 0.567077
vt 0.439842 0.551356
vt 0.447804 0.443539
vt 0.476292 0.445793
vt 0.442635 0.629848
vt 0.412870 0.630291
vt 0.421714 0.549085
vt 0.417875 0.566511
vt 0.404425 0.591907
vt 0.400581 0.564244
vt 0.441973 0.567237
vt 0.453334 0.593037
vt 0.486070 0.571652
vt 0.484153 0.596385
vt 0.444219 0.664562
vt 0.409284 0.663226
vt 0.406662 0.690676
vt 0.404673 0.679778
vt 0.687462 0.732135
vt 0.687462 0.758603
vt 0.679552 0.759574
vt 0.679552 0.733106
vt 0.481151 0.680766
vt 0.447578 0.681037
vt 0.444888 0.691551
vt 0.600955 0.850550
vt 0.574487 0.850550
vt 0.574487 0.824081
vt 0.600955 0.824081
vt 0.498931 0.448276
vt 0.419851 0.443539
vt 0.395235 0.444639
vt 0.496668 0.219913
vt 0.499280 0.219913
vt 0.499280 0.273963
vt 0.496668 0.273963
vt 0.499280 0.328013
vt 0.496668 0.328013
vt 0.499280 0.382063
vt 0.496668 0.382063
vt 0.499280 0.436113
vt 0.496668 0.436113
vt 0.496668 0.003713
vt 0.499280 0.003713
vt 0.499280 0.057763
vt 0.496668 0.057763
vt 0.499280 0.111813
vt 0.496668 0.111813
vt 0.868101 0.630789
vt 0.922151 0.630789
vt 0.960370 0.669008
vt 0.960370 0.723058
vt 0.922151 0.761277
vt 0.868101 0.761277
vt 0.829882 0.723058
vt 0.829882 0.669008
vt 0.499280 0.165863
vt 0.496668 0.165863
vt 0.829882 0.860972
vt 0.829882 0.806922
vt 0.868101 0.768703
vt 0.922151 0.768703
vt 0.960370 0.806922
vt 0.960370 0.860972
vt 0.922151 0.899191
vt 0.868101 0.899191
s 0
usemtl Материал
f 9/1/1 2/2/1 4/3/1 10/4/1
f 10/4/2 4/3/2 8/5/2 11/6/2
f 11/6/3 8/5/3 6/7/3 12/8/3
f 12/8/4 6/7/4 2/9/4 9/10/4
f 3/11/5 7/12/5 5/13/5 1/14/5
f 8/15/6 4/16/6 2/17/6 6/18/6
f 5/13/4 12/19/4 9/20/4 1/14/4
f 7/12/3 11/21/3 12/19/3 5/13/3
f 3/11/2 10/22/2 11/21/2 7/12/2
f 3/11/5 1/14/5 14/23/5 13/24/5
f 14/25/1 16/26/1 15/27/1 13/28/1
f 10/22/2 3/11/2 13/24/2 15/29/2
f 1/14/4 9/20/4 16/30/4 14/23/4
f 9/31/6 10/22/6 15/29/6 16/32/6
f 17/33/1 19/34/1 20/35/1 18/36/1
f 19/37/4 23/38/4 24/39/4 20/40/4
f 23/38/3 21/41/3 22/42/3 24/39/3
f 21/41/2 17/33/2 18/36/2 22/42/2
f 19/43/5 17/44/5 21/45/5 23/46/5
f 24/47/6 22/48/6 18/49/6 20/50/6
f 25/51/1 26/52/1 28/53/1 27/54/1
f 27/54/2 28/53/2 32/55/2 31/56/2
f 31/56/3 32/55/3 30/57/3 29/58/3
f 29/58/4 30/57/4 26/59/4 25/60/4
f 27/61/5 31/62/5 29/63/5 25/64/5
f 32/65/6 28/66/6 26/67/6 30/68/6
f 33/69/7 34/70/7 36/71/7 35/72/7
f 35/72/8 36/71/8 38/73/8 37/74/8
f 37/74/9 38/73/9 40/75/9 39/76/9
f 39/76/10 40/75/10 42/77/10 41/78/10
f 41/79/11 42/80/11 44/81/11 43/82/11
f 43/82/12 44/81/12 46/83/12 45/84/12
f 36/85/4 34/86/4 48/87/4 46/88/4 44/89/4 42/90/4 40/91/4 38/92/4
f 45/84/13 46/83/13 48/93/13 47/94/13
f 47/94/14 48/93/14 34/70/14 33/69/14
f 33/95/2 35/96/2 37/97/2 39/98/2 41/99/2 43/100/2 45/101/2 47/102/2
f 49/103/7 51/104/7 52/105/7 50/106/7
f 51/104/8 53/107/8 54/108/8 52/105/8
f 53/107/9 55/109/9 56/110/9 54/108/9
f 55/109/10 57/111/10 58/112/10 56/110/10
f 57/111/11 59/113/11 60/114/11 58/112/11
f 59/115/12 61/116/12 62/117/12 60/118/12
f 52/119/2 54/120/2 56/121/2 58/122/2 60/123/2 62/124/2 64/125/2 50/126/2
f 61/116/13 63/127/13 64/128/13 62/117/13
f 63/127/14 49/103/14 50/106/14 64/128/14
f 49/129/4 63/130/4 61/131/4 59/132/4 57/133/4 55/134/4 53/135/4 51/136/4
f 65/137/15 66/138/15 68/139/15 67/140/15
f 67/140/16 68/139/16 70/141/16 69/142/16
f 69/142/17 70/141/17 72/143/17 71/144/17
f 71/144/18 72/143/18 74/145/18 73/146/18
f 73/146/19 74/145/19 76/147/19 75/148/19
f 75/148/20 76/147/20 78/149/20 77/150/20
f 68/151/5 66/152/5 80/153/5 78/154/5 76/155/5 74/156/5 72/157/5 70/158/5
f 77/159/21 78/160/21 80/161/21 79/162/21
f 79/162/22 80/161/22 66/138/22 65/137/22
f 65/163/6 67/164/6 69/165/6 71/166/6 73/167/6 75/168/6 77/169/6 79/170/6
f 81/171/23 98/172/23 97/173/23 83/174/23
f 83/174/24 97/173/24 99/175/24 85/176/24
f 85/176/25 99/175/25 100/177/25 87/178/25
f 87/178/26 100/177/26 101/179/26 89/180/26
f 89/180/27 101/179/27 102/181/27 91/182/27
f 91/182/28 102/181/28 103/183/28 93/184/28
f 93/184/29 103/183/29 104/185/29 95/186/29
f 95/186/30 104/185/30 98/187/30 81/188/30
f 96/189/31 94/190/31 111/191/31 112/192/31
f 82/193/6 84/194/6 97/173/6 98/172/6
f 84/194/6 86/195/6 99/175/6 97/173/6
f 86/195/6 88/196/6 100/177/6 99/175/6
f 88/196/6 90/197/6 101/179/6 100/177/6
f 90/197/6 92/198/6 102/181/6 101/179/6
f 92/198/6 94/199/6 103/183/6 102/181/6
f 94/199/6 96/200/6 104/185/6 103/183/6
f 96/200/6 82/201/6 98/187/6 104/185/6
f 105/202/6 106/203/6 112/204/6 111/205/6 110/206/6 109/207/6 108/208/6 107/209/6
f 92/210/32 90/211/32 109/212/32 110/213/32
f 88/214/33 86/215/33 107/216/33 108/217/33
f 84/218/34 82/219/34 106/220/34 105/221/34
f 82/222/35 96/189/35 112/192/35 106/223/35
f 94/190/36 92/210/36 110/213/36 111/191/36
f 90/211/37 88/214/37 108/217/37 109/212/37
f 86/215/38 84/218/38 105/221/38 107/216/38
f 81/224/5 83/225/5 85/226/5 87/227/5 89/228/5 91/229/5 93/230/5 95/231/5
f 113/232/26 115/233/26 129/234/26 130/235/26
f 115/233/25 117/236/25 131/237/25 129/234/25
f 117/236/24 119/238/24 132/239/24 131/237/24
f 119/238/23 121/240/23 133/241/23 132/239/23
f 121/240/30 123/242/30 134/243/30 133/241/30
f 123/242/29 125/244/29 135/245/29 134/243/29
f 125/244/28 127/246/28 136/247/28 135/245/28
f 127/246/27 113/248/27 130/249/27 136/247/27
f 128/250/36 144/251/36 143/252/36 126/253/36
f 114/254/6 130/235/6 129/234/6 116/255/6
f 116/255/6 129/234/6 131/237/6 118/256/6
f 118/256/6 131/237/6 132/239/6 120/257/6
f 120/257/6 132/239/6 133/241/6 122/258/6
f 122/258/6 133/241/6 134/243/6 124/259/6
f 124/259/6 134/243/6 135/245/6 126/260/6
f 126/260/6 135/245/6 136/247/6 128/261/6
f 128/261/6 136/247/6 130/249/6 114/262/6
f 137/263/6 139/264/6 140/265/6 141/266/6 142/267/6 143/268/6 144/269/6 138/270/6
f 124/271/35 142/272/35 141/273/35 122/274/35
f 120/275/38 140/276/38 139/277/38 118/278/38
f 116/279/37 137/280/37 138/281/37 114/282/37
f 114/283/32 138/284/32 144/251/32 128/250/32
f 126/253/31 143/252/31 142/272/31 124/271/31
f 122/274/34 141/273/34 140/276/34 120/275/34
f 118/278/33 139/277/33 137/280/33 116/279/33
f 113/285/5 127/286/5 125/287/5 123/288/5 121/289/5 119/290/5 117/291/5 115/292/5
f 145/293/23 162/294/23 161/295/23 147/296/23
f 147/296/24 161/295/24 163/297/24 149/298/24
f 149/298/25 163/297/25 164/299/25 151/300/25
f 151/300/26 164/299/26 165/301/26 153/302/26
f 153/303/27 165/304/27 166/305/27 155/306/27
f 155/306/28 166/305/28 167/307/28 157/308/28
f 157/308/29 167/307/29 168/309/29 159/310/29
f 159/310/30 168/309/30 162/294/30 145/293/30
f 160/311/31 158/312/31 175/313/31 176/314/31
f 146/315/6 148/316/6 161/295/6 162/294/6
f 148/316/6 150/317/6 163/297/6 161/295/6
f 150/317/6 152/318/6 164/299/6 163/297/6
f 152/318/6 154/319/6 165/301/6 164/299/6
f 154/320/6 156/321/6 166/305/6 165/304/6
f 156/321/6 158/322/6 167/307/6 166/305/6
f 158/322/6 160/323/6 168/309/6 167/307/6
f 160/323/6 146/315/6 162/294/6 168/309/6
f 169/324/6 170/325/6 176/326/6 175/327/6 174/328/6 173/329/6 172/330/6 171/331/6
f 156/332/32 154/333/32 173/334/32 174/335/32
f 152/336/33 150/337/33 171/338/33 172/339/33
f 148/340/34 146/341/34 170/342/34 169/343/34
f 146/341/35 160/311/35 176/314/35 170/342/35
f 158/312/36 156/332/36 174/335/36 175/313/36
f 154/344/37 152/336/37 172/339/37 173/345/37
f 150/337/38 148/340/38 169/343/38 171/338/38
f 145/346/5 147/347/5 149/348/5 151/349/5 153/350/5 155/351/5 157/352/5 159/353/5
f 177/354/7 178/355/7 180/356/7 179/357/7
f 179/357/8 180/356/8 182/358/8 181/359/8
f 181/359/9 182/358/9 184/360/9 183/361/9
f 183/361/10 184/360/10 186/362/10 185/363/10
f 185/363/11 186/362/11 188/364/11 187/365/11
f 187/366/12 188/367/12 190/368/12 189/369/12
f 180/370/4 178/371/4 192/372/4 190/373/4 188/374/4 186/375/4 184/376/4 182/377/4
f 189/369/13 190/368/13 192/378/13 191/379/13
f 191/379/14 192/378/14 178/355/14 177/354/14
f 177/380/2 179/381/2 181/382/2 183/383/2 185/384/2 187/385/2 189/386/2 191/387/2
f 193/388/18 194/389/18 196/390/18 195/391/18
f 195/391/17 196/390/17 198/392/17 197/393/17
f 197/393/16 198/392/16 200/394/16 199/395/16
f 199/396/15 200/397/15 202/398/15 201/399/15
f 201/399/22 202/398/22 204/400/22 203/401/22
f 203/401/21 204/400/21 206/402/21 205/403/21
f 196/404/6 194/405/6 208/406/6 206/407/6 204/408/6 202/409/6 200/410/6 198/411/6
f 205/403/20 206/402/20 208/412/20 207/413/20
f 207/413/19 208/412/19 194/389/19 193/388/19
f 193/414/5 195/415/5 197/416/5 199/417/5 201/418/5 203/419/5 205/420/5 207/421/5
f 209/422/39 210/423/39 212/424/39 211/425/39
f 211/426/40 212/427/40 216/428/40 215/429/40
f 215/429/41 216/428/41 214/430/41 213/431/41
f 213/431/42 214/430/42 210/423/42 209/422/42
f 211/432/43 215/433/43 213/434/43 209/435/43
f 216/436/44 212/437/44 210/438/44 214/439/44
f 217/440/45 219/441/45 220/442/45 218/443/45
f 219/444/46 223/445/46 224/446/46 220/447/46
f 223/445/47 221/448/47 222/449/47 224/446/47
f 221/448/48 217/440/48 218/443/48 222/449/48
f 219/450/49 217/451/49 221/452/49 223/453/49
f 224/454/50 222/455/50 218/456/50 220/457/50
f 245/458/51 226/459/51 228/460/51 246/461/51
f 246/462/52 228/463/52 232/464/52 247/465/52
f 247/465/53 232/464/53 230/466/53 248/467/53
f 248/467/54 230/466/54 226/459/54 245/458/54
f 227/468/52 231/469/52 251/470/52 249/471/52
f 230/466/55 232/464/55 239/472/55 240/473/55
f 229/474/54 236/475/54 233/476/54 225/477/54
f 231/469/56 235/478/56 236/475/56 229/474/56
f 227/468/52 234/479/52 235/478/52 231/469/52
f 225/477/57 233/476/57 234/480/57 227/481/57
f 239/472/58 238/482/58 237/483/58 240/473/58
f 226/459/59 237/483/59 243/484/59 241/485/59
f 226/459/60 230/466/60 240/473/60 237/483/60
f 232/464/61 228/463/61 238/482/61 239/472/61
f 242/486/62 241/487/62 243/488/62 244/489/62
f 228/460/63 226/459/63 241/485/63 242/490/63
f 237/483/64 238/482/64 244/491/64 243/484/64
f 238/482/65 228/463/65 242/492/65 244/491/65
f 236/475/54 248/467/54 245/458/54 233/476/54
f 235/478/66 247/465/66 248/467/66 236/475/66
f 234/479/67 246/462/67 247/465/67 235/478/67
f 233/476/68 245/458/68 246/461/68 234/480/68
f 249/493/5 251/494/5 252/495/5 250/496/5
f 225/477/69 227/481/69 249/497/69 250/498/69
f 231/469/70 229/474/70 252/499/70 251/470/70
f 229/474/54 225/477/54 250/498/54 252/499/54
f 273/500/71 254/501/71 256/502/71 274/503/71
f 274/503/54 256/502/54 260/504/54 275/505/54
f 275/505/72 260/504/72 258/506/72 276/507/72
f 276/507/67 258/506/67 254/508/67 273/509/67
f 255/510/54 259/511/54 279/512/54 277/513/54
f 258/506/73 260/504/73 267/514/73 268/515/73
f 257/516/52 264/517/52 261/518/52 253/519/52
f 259/511/74 263/520/74 264/517/74 257/516/74
f 255/510/54 262/521/54 263/520/54 259/511/54
f 253/522/75 261/523/75 262/521/75 255/510/75
f 267/514/76 266/524/76 265/525/76 268/515/76
f 254/508/77 265/525/77 271/526/77 269/527/77
f 254/508/78 258/506/78 268/515/78 265/525/78
f 260/504/79 256/502/79 266/524/79 267/514/79
f 270/528/80 269/529/80 271/530/80 272/531/80
f 256/502/81 254/501/81 269/532/81 270/533/81
f 265/525/82 266/524/82 272/534/82 271/526/82
f 266/524/83 256/502/83 270/533/83 272/534/83
f 264/517/67 276/507/67 273/509/67 261/518/67
f 263/520/84 275/505/84 276/507/84 264/517/84
f 262/521/54 274/503/54 275/505/54 263/520/54
f 261/523/85 273/500/85 274/503/85 262/521/85
f 277/535/5 279/536/5 280/537/5 278/538/5
f 253/522/70 255/510/70 277/513/70 278/539/70
f 259/511/69 257/516/69 280/540/69 279/512/69
f 257/516/52 253/519/52 278/541/52 280/540/52
f 281/542/86 282/543/86 284/544/86 283/545/86
f 283/545/87 284/544/87 286/546/87 285/547/87
f 285/547/88 286/546/88 288/548/88 287/549/88
f 287/549/89 288/548/89 290/550/89 289/551/89
f 289/551/90 290/550/90 292/552/90 291/553/90
f 291/554/91 292/555/91 294/556/91 293/557/91
f 284/558/6 282/559/6 296/560/6 294/561/6 292/562/6 290/563/6 288/564/6 286/565/6
f 293/557/92 294/556/92 296/566/92 295/567/92
f 295/567/93 296/566/93 282/543/93 281/542/93
f 281/568/5 283/569/5 285/570/5 287/571/5 289/572/5 291/573/5 293/574/5 295/575/5
f 317/576/94 298/577/94 300/578/94 318/579/94
f 318/580/4 300/581/4 304/582/4 319/583/4
f 319/583/95 304/582/95 302/584/95 320/585/95
f 320/585/2 302/584/2 298/577/2 317/576/2
f 299/586/4 303/587/4 323/588/4 321/589/4
f 302/584/96 304/582/96 311/590/96 312/591/96
f 301/592/2 308/593/2 305/594/2 297/595/2
f 303/587/97 307/596/97 308/593/97 301/592/97
f 299/586/4 306/597/4 307/596/4 303/587/4
f 297/595/98 305/594/98 306/598/98 299/599/98
f 311/590/99 310/600/99 309/601/99 312/591/99
f 298/577/100 309/601/100 315/602/100 313/603/100
f 298/577/101 302/584/101 312/591/101 309/601/101
f 304/582/102 300/581/102 310/600/102 311/590/102
f 314/604/103 313/605/103 315/606/103 316/607/103
f 300/578/104 298/577/104 313/603/104 314/608/104
f 309/601/105 310/600/105 316/609/105 315/602/105
f 310/600/106 300/581/106 314/610/106 316/609/106
f 308/593/2 320/585/2 317/576/2 305/594/2
f 307/596/107 319/583/107 320/585/107 308/593/107
f 306/597/4 318/580/4 319/583/4 307/596/4
f 305/594/108 317/576/108 318/579/108 306/598/108
f 321/611/5 323/612/5 324/613/5 322/614/5
f 297/595/3 299/599/3 321/615/3 322/616/3
f 303/587/1 301/592/1 324/617/1 323/588/1
f 301/592/2 297/595/2 322/616/2 324/617/2
f 345/618/109 326/619/109 328/620/109 346/621/109
f 346/621/2 328/620/2 332/622/2 347/623/2
f 347/623/110 332/622/110 330/624/110 348/625/110
f 348/625/4 330/624/4 326/626/4 345/627/4
f 327/628/2 331/629/2 351/630/2 349/631/2
f 330/624/111 332/622/111 339/632/111 340/633/111
f 329/634/4 336/635/4 333/636/4 325/637/4
f 331/629/112 335/638/112 336/635/112 329/634/112
f 327/628/2 334/639/2 335/638/2 331/629/2
f 325/640/113 333/641/113 334/639/113 327/628/113
f 339/632/114 338/642/114 337/643/114 340/633/114
f 326/626/115 337/643/115 343/644/115 341/645/115
f 326/626/116 330/624/116 340/633/116 337/643/116
f 332/622/117 328/620/117 338/642/117 339/632/117
f 342/646/118 341/647/118 343/648/118 344/649/118
f 328/620/119 326/619/119 341/650/119 342/651/119
f 337/643/120 338/642/120 344/652/120 343/644/120
f 338/642/121 328/620/121 342/651/121 344/652/121
f 336/635/4 348/625/4 345/627/4 333/636/4
f 335/638/122 347/623/122 348/625/122 336/635/122
f 334/639/2 346/621/2 347/623/2 335/638/2
f 333/641/123 345/618/123 346/621/123 334/639/123
f 349/653/5 351/654/5 352/655/5 350/656/5
f 325/640/1 327/628/1 349/631/1 350/657/1
f 331/629/3 329/634/3 352/658/3 351/630/3
f 329/634/4 325/637/4 350/659/4 352/658/4
f 353/660/18 354/661/18 356/662/18 355/663/18
f 355/663/17 356/662/17 358/664/17 357/665/17
f 357/665/16 358/664/16 360/666/16 359/667/16
f 359/668/15 360/669/15 362/670/15 361/671/15
f 361/671/22 362/670/22 364/672/22 363/673/22
f 363/673/21 364/672/21 366/674/21 365/675/21
f 356/676/6 354/677/6 368/678/6 366/679/6 364/680/6 362/681/6 360/682/6 358/683/6
f 365/675/20 366/674/20 368/684/20 367/685/20
f 367/685/19 368/684/19 354/661/19 353/660/19
f 353/686/5 355/687/5 357/688/5 359/689/5 361/690/5 363/691/5 365/692/5 367/693/5
f 389/694/124 370/695/124 372/696/124 390/697/124
f 390/698/125 372/699/125 376/700/125 391/701/125
f 391/701/126 376/700/126 374/702/126 392/703/126
f 392/703/127 374/702/127 370/695/127 389/694/127
f 371/704/125 375/705/125 395/706/125 393/707/125
f 374/702/128 376/700/128 383/708/128 384/709/128
f 373/710/127 380/711/127 377/712/127 369/713/127
f 375/705/129 379/714/129 380/711/129 373/710/129
f 371/704/125 378/715/125 379/714/125 375/705/125
f 369/713/130 377/712/130 378/716/130 371/717/130
f 383/708/131 382/718/131 381/719/131 384/709/131
f 370/695/132 381/719/132 387/720/132 385/721/132
f 370/695/133 374/702/133 384/709/133 381/719/133
f 376/700/134 372/699/134 382/718/134 383/708/134
f 386/722/135 385/723/135 387/724/135 388/725/135
f 372/696/104 370/695/104 385/721/104 386/726/104
f 381/719/105 382/718/105 388/727/105 387/720/105
f 382/718/136 372/699/136 386/728/136 388/727/136
f 380/711/127 392/703/127 389/694/127 377/712/127
f 379/714/137 391/701/137 392/703/137 380/711/137
f 378/715/125 390/698/125 391/701/125 379/714/125
f 377/712/138 389/694/138 390/697/138 378/716/138
f 393/729/5 395/730/5 396/731/5 394/732/5
f 369/713/139 371/717/139 393/733/139 394/734/139
f 375/705/140 373/710/140 396/735/140 395/706/140
f 373/710/127 369/713/127 394/734/127 396/735/127
f 417/736/141 398/737/141 400/738/141 418/739/141
f 418/739/127 400/738/127 404/740/127 419/741/127
f 419/741/142 404/740/142 402/742/142 420/743/142
f 420/743/125 402/742/125 398/744/125 417/745/125
f 399/746/127 403/747/127 423/748/127 421/749/127
f 402/742/143 404/740/143 411/750/143 412/751/143
f 401/752/125 408/753/125 405/754/125 397/755/125
f 403/747/144 407/756/144 408/753/144 401/752/144
f 399/746/127 406/757/127 407/756/127 403/747/127
f 397/758/145 405/759/145 406/757/145 399/746/145
f 411/750/114 410/760/114 409/761/114 412/751/114
f 398/744/146 409/761/146 415/762/146 413/763/146
f 398/744/147 402/742/147 412/751/147 409/761/147
f 404/740/148 400/738/148 410/760/148 411/750/148
f 414/764/149 413/765/149 415/766/149 416/767/149
f 400/738/150 398/737/150 413/768/150 414/769/150
f 409/761/151 410/760/151 416/770/151 415/762/151
f 410/760/152 400/738/152 414/769/152 416/770/152
f 408/753/125 420/743/125 417/745/125 405/754/125
f 407/756/153 419/741/153 420/743/153 408/753/153
f 406/757/127 418/739/127 419/741/127 407/756/127
f 405/759/154 417/736/154 418/739/154 406/757/154
f 421/771/5 423/772/5 424/773/5 422/774/5
f 397/758/140 399/746/140 421/749/140 422/775/140
f 403/747/139 401/752/139 424/776/139 423/748/139
f 401/752/125 397/755/125 422/777/125 424/776/125
f 425/778/155 426/779/155 428/780/155 427/781/155
f 427/781/156 428/780/156 430/782/156 429/783/156
f 429/783/157 430/782/157 432/784/157 431/785/157
f 431/785/158 432/784/158 434/786/158 433/787/158
f 433/788/159 434/789/159 436/790/159 435/791/159
f 435/791/160 436/790/160 438/792/160 437/793/160
f 428/794/6 426/795/6 440/796/6 438/797/6 436/798/6 434/799/6 432/800/6 430/801/6
f 437/793/161 438/792/161 440/802/161 439/803/161
f 439/803/162 440/802/162 426/779/162 425/778/162
f 425/804/5 427/805/5 429/806/5 431/807/5 433/808/5 435/809/5 437/810/5 439/811/5
