# Blender 4.2.2 LTS
# www.blender.org
mtllib radio.mtl
o radio
v 0.056267 1.363341 -0.624234
v 0.056267 2.009573 -0.624234
v -0.068575 1.363341 -0.624234
v -0.068575 2.009573 -0.624234
v 0.040003 1.467273 -0.700152
v 0.056267 1.415461 -0.684038
v 0.056267 1.957453 -0.700051
v 0.040003 1.905641 -0.716165
v -0.052311 1.467273 -0.700152
v -0.068575 1.415461 -0.684038
v -0.052311 1.905641 -0.716165
v -0.068575 1.957453 -0.700051
v 0.056267 1.363341 -0.021102
v 0.056267 2.009573 -0.021102
v -0.068575 1.363341 -0.021102
v -0.068575 2.009573 -0.021102
v 0.040003 1.467273 0.054815
v 0.056267 1.415461 0.038701
v 0.056267 1.957453 0.054714
v 0.040003 1.905641 0.070829
v -0.052311 1.467273 0.054815
v -0.068575 1.415461 0.038701
v -0.052311 1.905641 0.070829
v -0.068575 1.957453 0.054714
v 0.104049 0.748049 -0.038751
v 0.125040 0.802128 -0.038751
v 0.104049 0.802128 0.015328
v 0.118892 0.763888 -0.038751
v 0.116169 0.770906 -0.007528
v 0.118892 0.802128 -0.000511
v 0.104049 0.763888 -0.000511
v 0.125040 2.096055 -0.038751
v 0.104049 2.150135 -0.038751
v 0.104049 2.096055 0.015328
v 0.118892 2.134295 -0.038751
v 0.116169 2.127278 -0.007528
v 0.104049 2.134295 -0.000511
v 0.118892 2.096055 -0.000511
v -0.116357 0.748049 -0.038751
v -0.116357 0.802128 0.015328
v -0.137348 0.802128 -0.038751
v -0.116357 0.763888 -0.000511
v -0.128477 0.770906 -0.007528
v -0.131200 0.802128 -0.000511
v -0.131200 0.763888 -0.038751
v -0.116357 2.150135 -0.038751
v -0.137348 2.096055 -0.038751
v -0.116357 2.096055 0.015328
v -0.131200 2.134295 -0.038751
v -0.128477 2.127278 -0.007528
v -0.131200 2.096055 -0.000511
v -0.116357 2.134295 -0.000511
v 0.104049 0.748049 -0.606585
v 0.104049 0.802128 -0.660665
v 0.125040 0.802128 -0.606585
v 0.104049 0.763888 -0.644825
v 0.116169 0.770906 -0.637808
v 0.118892 0.802128 -0.644825
v 0.118892 0.763888 -0.606585
v 0.104049 2.150135 -0.606585
v 0.125040 2.096055 -0.606585
v 0.104049 2.096055 -0.660665
v 0.118892 2.134295 -0.606585
v 0.116169 2.127278 -0.637808
v 0.118892 2.096055 -0.644825
v 0.104049 2.134295 -0.644825
v -0.116357 0.748049 -0.606585
v -0.137349 0.802128 -0.606585
v -0.116357 0.802128 -0.660665
v -0.131200 0.763888 -0.606585
v -0.128477 0.770906 -0.637808
v -0.131200 0.802128 -0.644825
v -0.116357 0.763888 -0.644825
v -0.116357 2.150135 -0.606585
v -0.116357 2.096055 -0.660665
v -0.137349 2.096055 -0.606585
v -0.116357 2.134295 -0.644825
v -0.128477 2.127278 -0.637808
v -0.131200 2.096055 -0.644825
v -0.131200 2.134295 -0.606585
v -0.088014 2.213184 -0.122528
v -0.071078 2.549857 -0.122528
v -0.064038 2.213184 -0.180412
v -0.052062 2.549857 -0.168436
v -0.006154 2.213184 -0.204388
v -0.006154 2.549857 -0.187452
v 0.051730 2.213184 -0.180412
v 0.039754 2.549857 -0.168436
v 0.075706 2.213184 -0.122528
v 0.058770 2.549857 -0.122528
v 0.051730 2.213184 -0.064644
v 0.039754 2.549857 -0.076619
v -0.006154 2.213184 -0.040668
v -0.006154 2.549857 -0.057604
v -0.064038 2.213184 -0.064644
v -0.052062 2.549857 -0.076619
v -0.115012 2.148022 -0.122528
v -0.083128 2.148022 -0.199502
v -0.006154 2.148022 -0.231386
v 0.070820 2.148022 -0.199502
v 0.102704 2.148022 -0.122528
v 0.070820 2.148022 -0.045554
v -0.006154 2.148022 -0.013670
v -0.083128 2.148022 -0.045554
v -0.090116 2.320237 -0.122528
v -0.065524 2.320237 -0.181898
v -0.006154 2.320237 -0.206490
v 0.053216 2.320237 -0.181898
v 0.077808 2.320237 -0.122528
v 0.053216 2.320237 -0.063158
v -0.006154 2.320237 -0.038566
v -0.065524 2.320237 -0.063158
v -0.043466 3.303876 -0.159840
v -0.052062 3.287697 -0.168436
v -0.071078 3.287697 -0.122528
v -0.058921 3.303876 -0.122528
v -0.006154 3.303876 -0.175295
v -0.006154 3.287697 -0.187452
v 0.031158 3.303876 -0.159840
v 0.039754 3.287697 -0.168436
v 0.046613 3.303876 -0.122528
v 0.058770 3.287697 -0.122528
v 0.031158 3.303876 -0.085216
v 0.039754 3.287697 -0.076619
v -0.006154 3.303876 -0.069761
v -0.006154 3.287697 -0.057604
v -0.043466 3.303876 -0.085216
v -0.052062 3.287697 -0.076619
v -0.088014 2.213184 -0.336632
v -0.064038 2.213184 -0.394516
v -0.006154 2.213184 -0.418493
v 0.051730 2.213184 -0.394516
v 0.075706 2.213184 -0.336632
v 0.051730 2.213184 -0.278749
v -0.006154 2.213184 -0.254772
v -0.064038 2.213184 -0.278749
v -0.115012 2.148022 -0.336632
v -0.083128 2.148022 -0.413606
v -0.006154 2.148022 -0.445490
v 0.070820 2.148022 -0.413606
v 0.102704 2.148022 -0.336632
v 0.070820 2.148022 -0.259658
v -0.006154 2.148022 -0.227775
v -0.083128 2.148022 -0.259658
v -0.060272 2.427289 -0.336632
v -0.074490 2.410020 -0.336632
v -0.044421 2.427289 -0.374900
v -0.054475 2.410020 -0.384953
v -0.006154 2.427289 -0.390751
v -0.006154 2.410020 -0.404969
v 0.032113 2.427289 -0.374900
v 0.042167 2.410020 -0.384953
v 0.047964 2.427289 -0.336632
v 0.062182 2.410020 -0.336632
v 0.032113 2.427289 -0.298365
v 0.042167 2.410020 -0.288312
v -0.006154 2.427289 -0.282514
v -0.006154 2.410020 -0.268296
v -0.044421 2.427289 -0.298365
v -0.054475 2.410020 -0.288312
v -0.088014 2.103029 -0.541426
v -0.064038 2.103029 -0.599310
v -0.006154 2.103029 -0.623287
v 0.051730 2.103029 -0.599310
v 0.075706 2.103029 -0.541426
v 0.051730 2.103029 -0.483543
v -0.006154 2.103029 -0.459566
v -0.064038 2.103029 -0.483543
v -0.063263 2.338855 -0.541426
v -0.074134 2.325539 -0.541426
v -0.046536 2.338855 -0.581808
v -0.054223 2.325539 -0.589496
v -0.006154 2.338855 -0.598535
v -0.006154 2.325539 -0.609407
v 0.034228 2.338855 -0.581808
v 0.041915 2.325539 -0.589496
v 0.050955 2.338855 -0.541426
v 0.061826 2.325539 -0.541426
v 0.034228 2.338855 -0.501044
v 0.041915 2.325539 -0.493357
v -0.006154 2.338855 -0.484318
v -0.006154 2.325539 -0.473446
v -0.046536 2.338855 -0.501044
v -0.054223 2.325539 -0.493357
vn -0.0000 -0.0000 1.0000
vn 1.0000 -0.0000 -0.0000
vn -0.0000 0.8241 -0.5665
vn -0.0000 -0.0365 -0.9993
vn -1.0000 -0.0000 -0.0000
vn -0.7036 -0.0232 -0.7102
vn -0.0000 -0.2970 -0.9549
vn -0.0000 0.2970 -0.9549
vn 0.7036 -0.0232 -0.7102
vn -0.0000 -0.7539 -0.6570
vn -0.0000 -0.0000 -1.0000
vn -0.0000 0.8241 0.5665
vn -0.0000 -0.0365 0.9993
vn -0.7036 -0.0232 0.7102
vn -0.0000 -0.2970 0.9549
vn -0.0000 0.2970 0.9549
vn 0.7036 -0.0232 0.7102
vn -0.0000 -0.7539 0.6570
vn -0.0000 1.0000 -0.0000
vn 0.6630 -0.7030 0.2573
vn 0.9804 -0.1393 0.1393
vn 0.6630 -0.2573 0.7030
vn 0.9804 0.1393 0.1393
vn 0.6630 0.7030 0.2573
vn 0.6630 0.2573 0.7030
vn -0.6630 -0.7030 0.2573
vn -0.6630 -0.2573 0.7030
vn -0.9804 -0.1393 0.1393
vn -0.6630 0.7030 0.2573
vn -0.9804 0.1393 0.1393
vn -0.6630 0.2573 0.7030
vn 0.6630 -0.7030 -0.2573
vn 0.6630 -0.2573 -0.7030
vn 0.9804 -0.1393 -0.1393
vn 0.6630 0.7030 -0.2573
vn 0.9804 0.1393 -0.1393
vn 0.6630 0.2573 -0.7030
vn -0.6630 -0.7030 -0.2573
vn -0.9804 -0.1393 -0.1393
vn -0.6630 -0.2573 -0.7030
vn -0.6630 0.7030 -0.2573
vn -0.6630 0.2573 -0.7030
vn -0.9804 0.1393 -0.1393
vn -0.0000 -0.9239 0.3827
vn -0.0000 -0.3827 0.9239
vn 0.9873 -0.0000 0.1587
vn 0.7297 -0.0000 0.6838
vn -0.0000 0.9239 0.3827
vn -0.0000 0.3827 0.9239
vn -0.9873 -0.0000 0.1587
vn -0.7297 -0.0000 0.6838
vn -0.7297 -0.6838 -0.0000
vn -0.9873 -0.1587 -0.0000
vn -0.7297 0.6838 -0.0000
vn -0.9873 0.1587 -0.0000
vn -0.7297 -0.0000 -0.6838
vn -0.9873 -0.0000 -0.1587
vn -0.0000 -0.9239 -0.3827
vn -0.0000 -0.3827 -0.9239
vn -0.0000 0.9239 -0.3827
vn -0.0000 0.3827 -0.9239
vn 0.9873 -0.0000 -0.1587
vn 0.7297 -0.0000 -0.6838
vn 0.7297 -0.6838 -0.0000
vn 0.9873 -0.1587 -0.0000
vn 0.7297 0.6838 -0.0000
vn 0.9873 0.1587 -0.0000
vn -0.0000 -1.0000 -0.0000
vn -0.9212 0.0764 -0.3816
vn -0.3816 0.0764 -0.9212
vn 0.3816 0.0764 -0.9212
vn 0.9212 0.0764 -0.3816
vn 0.9212 0.0764 0.3816
vn 0.3816 0.0764 0.9212
vn 0.3827 -0.0000 -0.9239
vn -0.3816 0.0764 0.9212
vn -0.9212 0.0764 0.3816
vn -0.3574 0.3575 -0.8628
vn 0.8628 0.3575 0.3574
vn -0.8628 0.3575 0.3574
vn -0.8628 0.3575 -0.3574
vn 0.3574 0.3575 -0.8628
vn 0.3574 0.3575 0.8628
vn 0.8628 0.3575 -0.3574
vn -0.3574 0.3575 0.8628
vn -0.9237 -0.0181 0.3826
vn -0.3826 -0.0181 0.9237
vn 0.3826 -0.0181 0.9237
vn 0.9237 -0.0181 0.3826
vn 0.9237 -0.0181 -0.3826
vn 0.3826 -0.0181 -0.9237
vn -0.3826 -0.0181 -0.9237
vn -0.9237 -0.0181 -0.3826
vn -0.3827 -0.0000 -0.9239
vn 0.9239 -0.0000 -0.3827
vn -0.3827 -0.0000 0.9239
vn 0.9239 -0.0000 0.3827
vn -0.9239 -0.0000 0.3827
vn 0.3827 -0.0000 0.9239
vn -0.7589 0.5703 -0.3144
vn -0.3144 0.5703 -0.7589
vn 0.3144 0.5703 -0.7589
vn 0.7589 0.5703 -0.3144
vn 0.7589 0.5703 0.3144
vn 0.3144 0.5703 0.7589
vn -0.3144 0.5703 0.7589
vn -0.7589 0.5703 0.3144
vn -0.9239 -0.0000 -0.3827
vn -0.9220 0.0634 0.3819
vn 0.3819 0.0634 -0.9220
vn 0.9220 0.0634 -0.3819
vn 0.9220 0.0634 0.3819
vn 0.3819 0.0634 0.9220
vn -0.3819 0.0634 0.9220
vn -0.9220 0.0634 -0.3819
vn -0.3819 0.0634 -0.9220
vn -0.7353 0.6054 -0.3046
vn -0.3046 0.6054 -0.7353
vn 0.3046 0.6054 -0.7353
vn 0.7353 0.6054 -0.3046
vn 0.7353 0.6054 0.3046
vn 0.3046 0.6054 0.7353
vn -0.3046 0.6054 0.7353
vn -0.7353 0.6054 0.3046
vn -0.9223 0.0575 0.3820
vn 0.3820 0.0575 -0.9223
vn 0.9223 0.0575 -0.3820
vn 0.9223 0.0575 0.3820
vn 0.3820 0.0575 0.9223
vn -0.3820 0.0575 0.9223
vn -0.9223 0.0575 -0.3820
vn -0.3820 0.0575 -0.9223
vn -0.7376 0.6022 -0.3055
vn -0.3055 0.6022 -0.7376
vn 0.3055 0.6022 -0.7376
vn 0.7376 0.6022 -0.3055
vn 0.7376 0.6022 0.3055
vn 0.3055 0.6022 0.7376
vn -0.3055 0.6022 0.7376
vn -0.7376 0.6022 0.3055
vt 0.101075 0.868615
vt 0.018808 0.868615
vt 0.018808 0.828812
vt 0.101075 0.828812
vt 0.395005 0.856367
vt 0.334617 0.865813
vt 0.308738 0.846608
vt 0.399563 0.834548
vt 0.335064 0.893989
vt 0.299523 0.913498
vt 0.386142 0.895722
vt 0.341150 0.888904
vt 0.340796 0.870732
vt 0.385629 0.864919
vt 0.399563 0.928628
vt 0.394967 0.904446
vt 0.198671 0.508534
vt 0.198671 0.488521
vt 0.238474 0.488521
vt 0.238474 0.508534
vt 0.742271 0.101075
vt 0.702468 0.101075
vt 0.702468 0.018808
vt 0.742271 0.018808
vt 0.459967 0.978036
vt 0.437969 0.982324
vt 0.451316 0.891175
vt 0.470273 0.917261
vt 0.498425 0.917960
vt 0.518195 0.882681
vt 0.499633 0.968174
vt 0.468703 0.969148
vt 0.475161 0.923499
vt 0.493327 0.923983
vt 0.532224 0.982324
vt 0.508222 0.977508
vt 0.233736 0.037903
vt 0.193934 0.037903
vt 0.193934 0.017889
vt 0.233736 0.017889
vt 0.934409 0.619432
vt 0.769679 0.618891
vt 0.769694 0.439861
vt 0.934425 0.440402
vt 0.361724 0.772572
vt 0.325554 0.634175
vt 0.369356 0.573583
vt 0.440992 0.768863
vt 0.309543 0.627239
vt 0.157521 0.628817
vt 0.113460 0.567076
vt 0.349917 0.557263
vt 0.030902 0.764787
vt 0.096483 0.583262
vt 0.142566 0.636624
vt 0.105830 0.767686
vt 0.122706 0.774729
vt 0.158470 0.638347
vt 0.308939 0.636787
vt 0.344495 0.780404
vt 0.025177 0.789419
vt 0.017884 0.787334
vt 0.022543 0.773444
vt 0.028943 0.772949
vt 0.934677 0.428074
vt 0.938866 0.430260
vt 0.939683 0.440307
vt 0.021699 0.765853
vt 0.764420 0.439754
vt 0.765295 0.429729
vt 0.769482 0.427574
vt 0.101198 0.576804
vt 0.098059 0.570785
vt 0.110496 0.560343
vt 0.090254 0.574910
vt 0.116809 0.787969
vt 0.106988 0.774806
vt 0.111847 0.774257
vt 0.120689 0.780869
vt 0.111895 0.769748
vt 0.158239 0.633620
vt 0.150194 0.634911
vt 0.147255 0.632526
vt 0.148261 0.638169
vt 0.447249 0.794388
vt 0.443358 0.777288
vt 0.450138 0.777833
vt 0.454838 0.792295
vt 0.451177 0.769638
vt 0.939683 0.619540
vt 0.938809 0.629564
vt 0.934622 0.631720
vt 0.352588 0.550030
vt 0.366632 0.560351
vt 0.363627 0.566977
vt 0.769426 0.631219
vt 0.765237 0.629033
vt 0.764420 0.618987
vt 0.375210 0.564355
vt 0.350745 0.794388
vt 0.346577 0.786861
vt 0.355757 0.779630
vt 0.360856 0.780058
vt 0.355585 0.774911
vt 0.320210 0.630237
vt 0.317306 0.632895
vt 0.309025 0.632037
vt 0.319498 0.636173
vt 0.484020 0.088035
vt 0.663306 0.088035
vt 0.663306 0.093179
vt 0.484020 0.093179
vt 0.484020 0.017764
vt 0.663306 0.017764
vt 0.748694 0.199200
vt 0.730589 0.292342
vt 0.700561 0.289603
vt 0.711985 0.195217
vt 0.669839 0.287738
vt 0.676466 0.192585
vt 0.638706 0.286708
vt 0.641232 0.191246
vt 0.607392 0.286464
vt 0.606106 0.191326
vt 0.576100 0.286980
vt 0.571088 0.192289
vt 0.545034 0.288273
vt 0.536173 0.194556
vt 0.667393 0.602712
vt 0.637582 0.602534
vt 0.514396 0.290371
vt 0.501161 0.198436
vt 0.484558 0.293302
vt 0.465341 0.203467
vt 0.717785 0.733488
vt 0.697050 0.702102
vt 0.719509 0.679829
vt 0.747083 0.721566
vt 0.864829 0.138978
vt 0.814806 0.138978
vt 0.779434 0.103607
vt 0.779434 0.053583
vt 0.814806 0.018211
vt 0.864829 0.018211
vt 0.900201 0.053583
vt 0.900201 0.103607
vt 0.628951 0.673728
vt 0.592064 0.681105
vt 0.579899 0.651908
vt 0.628951 0.642098
vt 0.540116 0.733488
vt 0.533047 0.770435
vt 0.501417 0.770698
vt 0.510819 0.721566
vt 0.724855 0.770435
vt 0.756484 0.770698
vt 0.665838 0.681105
vt 0.678003 0.651908
vt 0.560852 0.702102
vt 0.538393 0.679829
vt 0.496830 0.156647
vt 0.460686 0.160626
vt 0.532704 0.153304
vt 0.568716 0.150530
vt 0.605396 0.148851
vt 0.642283 0.149050
vt 0.678962 0.150555
vt 0.715473 0.153154
vt 0.751747 0.156119
vt 0.697188 0.602978
vt 0.950478 0.696898
vt 0.950226 0.720533
vt 0.933709 0.737426
vt 0.909972 0.736973
vt 0.892679 0.720688
vt 0.892620 0.697022
vt 0.909383 0.680085
vt 0.933322 0.680437
vt 0.607768 0.602462
vt 0.548195 0.602666
vt 0.518457 0.602934
vt 0.577968 0.602506
vt 0.488759 0.603292
vt 0.960067 0.692885
vt 0.960214 0.724669
vt 0.937466 0.670305
vt 0.905002 0.670305
vt 0.882735 0.693317
vt 0.883216 0.724775
vt 0.905895 0.746960
vt 0.937641 0.747009
vt 0.727352 0.603292
vt 0.097589 0.436597
vt 0.214278 0.388555
vt 0.233736 0.430169
vt 0.126481 0.485339
vt 0.086393 0.142039
vt 0.200054 0.178128
vt 0.191039 0.218370
vt 0.071691 0.198342
vt 0.187869 0.260406
vt 0.064440 0.257647
vt 0.190792 0.303434
vt 0.066148 0.318662
vt 0.199759 0.346488
vt 0.078191 0.379057
vt 0.142390 0.048679
vt 0.233736 0.105082
vt 0.214620 0.140228
vt 0.112129 0.091763
vt 0.046341 0.126419
vt 0.074947 0.068041
vt 0.897481 0.210490
vt 0.949159 0.262168
vt 0.949159 0.335251
vt 0.897481 0.386928
vt 0.824398 0.386928
vt 0.772721 0.335251
vt 0.772721 0.262168
vt 0.824398 0.210490
vt 0.018195 0.321884
vt 0.018014 0.253143
vt 0.095627 0.515641
vt 0.056468 0.458870
vt 0.115765 0.018001
vt 0.027929 0.187489
vt 0.030598 0.392324
vt 0.141309 0.859464
vt 0.176955 0.825760
vt 0.183164 0.841521
vt 0.157627 0.866449
vt 0.141309 0.908733
vt 0.157258 0.902342
vt 0.175354 0.944421
vt 0.182323 0.928006
vt 0.224827 0.944102
vt 0.217958 0.928296
vt 0.258646 0.910115
vt 0.243183 0.903693
vt 0.259005 0.861864
vt 0.242744 0.868381
vt 0.225190 0.826464
vt 0.218620 0.842343
vt 0.281371 0.451696
vt 0.433021 0.420082
vt 0.445362 0.470562
vt 0.296232 0.512483
vt 0.270706 0.140459
vt 0.424164 0.161618
vt 0.418833 0.213310
vt 0.264287 0.202706
vt 0.417054 0.265247
vt 0.262144 0.265247
vt 0.418833 0.317183
vt 0.264287 0.327787
vt 0.424164 0.368876
vt 0.270706 0.390034
vt 0.296232 0.018011
vt 0.445362 0.059931
vt 0.433021 0.110411
vt 0.281371 0.078798
vt 0.930207 0.823381
vt 0.930207 0.885959
vt 0.885959 0.930207
vt 0.823381 0.930207
vt 0.779133 0.885959
vt 0.779133 0.823381
vt 0.823381 0.779133
vt 0.885959 0.779133
vt 0.694892 0.871477
vt 0.655959 0.909677
vt 0.650029 0.895693
vt 0.680944 0.865902
vt 0.694892 0.817506
vt 0.681169 0.823009
vt 0.657286 0.777686
vt 0.651145 0.792005
vt 0.601983 0.777609
vt 0.607913 0.791593
vt 0.563051 0.815809
vt 0.576998 0.821384
vt 0.563051 0.869780
vt 0.576774 0.864276
vt 0.600656 0.909600
vt 0.606798 0.895281
s 0
usemtl Материал
f 1/1/1 2/2/1 4/3/1 3/4/1
f 6/5/2 7/6/2 2/7/2 1/8/2
f 12/9/3 4/10/3 2/7/3 7/6/3
f 9/11/4 11/12/4 8/13/4 5/14/4
f 3/15/5 4/10/5 12/9/5 10/16/5
f 11/12/6 9/11/6 10/16/6 12/9/6
f 6/5/7 10/16/7 9/11/7 5/14/7
f 12/9/8 7/6/8 8/13/8 11/12/8
f 7/6/9 6/5/9 5/14/9 8/13/9
f 3/17/10 10/18/10 6/19/10 1/20/10
f 13/21/11 15/22/11 16/23/11 14/24/11
f 18/25/2 13/26/2 14/27/2 19/28/2
f 24/29/12 19/28/12 14/27/12 16/30/12
f 21/31/13 17/32/13 20/33/13 23/34/13
f 15/35/5 22/36/5 24/29/5 16/30/5
f 23/34/14 24/29/14 22/36/14 21/31/14
f 18/25/15 17/32/15 21/31/15 22/36/15
f 24/29/16 23/34/16 20/33/16 19/28/16
f 19/28/17 20/33/17 17/32/17 18/25/17
f 15/37/18 13/38/18 18/39/18 22/40/18
f 55/41/2 61/42/2 32/43/2 26/44/2
f 69/45/11 75/46/11 62/47/11 54/48/11
f 74/49/19 46/50/19 33/51/19 60/52/19
f 27/53/1 34/54/1 48/55/1 40/56/1
f 41/57/5 47/58/5 76/59/5 68/60/5
f 25/61/20 28/62/20 29/63/20 31/64/20
f 26/44/21 30/65/21 29/66/21 28/67/21
f 27/53/22 31/64/22 29/63/22 30/68/22
f 32/43/23 35/69/23 36/70/23 38/71/23
f 33/51/24 37/72/24 36/73/24 35/74/24
f 34/54/25 38/75/25 36/73/25 37/72/25
f 39/76/26 42/77/26 43/78/26 45/79/26
f 40/56/27 44/80/27 43/78/27 42/77/27
f 41/57/28 45/79/28 43/78/28 44/80/28
f 46/50/29 49/81/29 50/82/29 52/83/29
f 47/58/30 51/84/30 50/82/30 49/81/30
f 48/55/31 52/83/31 50/82/31 51/84/31
f 53/85/32 56/86/32 57/87/32 59/88/32
f 54/48/33 58/89/33 57/87/33 56/86/33
f 55/41/34 59/90/34 57/91/34 58/92/34
f 60/52/35 63/93/35 64/94/35 66/95/35
f 61/42/36 65/96/36 64/97/36 63/98/36
f 62/47/37 66/95/37 64/94/37 65/99/37
f 67/100/38 70/101/38 71/102/38 73/103/38
f 68/60/39 72/104/39 71/102/39 70/101/39
f 69/45/40 73/103/40 71/102/40 72/104/40
f 74/49/41 77/105/41 78/106/41 80/107/41
f 75/46/42 79/108/42 78/106/42 77/105/42
f 76/59/43 80/107/43 78/106/43 79/108/43
f 39/76/44 25/61/44 31/64/44 42/77/44
f 42/77/45 31/64/45 27/53/45 40/56/45
f 26/44/46 32/43/46 38/71/46 30/65/46
f 30/68/47 38/75/47 34/54/47 27/53/47
f 33/51/48 46/50/48 52/83/48 37/72/48
f 37/72/49 52/83/49 48/55/49 34/54/49
f 47/58/50 41/57/50 44/80/50 51/84/50
f 51/84/51 44/80/51 40/56/51 48/55/51
f 67/100/52 39/76/52 45/79/52 70/101/52
f 70/101/53 45/79/53 41/57/53 68/60/53
f 46/50/54 74/49/54 80/107/54 49/81/54
f 49/81/55 80/107/55 76/59/55 47/58/55
f 75/46/56 69/45/56 72/104/56 79/108/56
f 79/108/57 72/104/57 68/60/57 76/59/57
f 53/85/58 67/100/58 73/103/58 56/86/58
f 56/86/59 73/103/59 69/45/59 54/48/59
f 74/49/60 60/52/60 66/95/60 77/105/60
f 77/105/61 66/95/61 62/47/61 75/46/61
f 61/42/62 55/41/62 58/92/62 65/96/62
f 65/99/63 58/89/63 54/48/63 62/47/63
f 25/109/64 53/110/64 59/111/64 28/112/64
f 28/67/65 59/90/65 55/41/65 26/44/65
f 60/52/66 33/51/66 35/74/66 63/93/66
f 63/98/67 35/69/67 32/43/67 61/42/67
f 39/113/68 67/114/68 53/110/68 25/109/68
f 105/115/69 82/116/69 84/117/69 106/118/69
f 106/118/70 84/117/70 86/119/70 107/120/70
f 107/120/71 86/119/71 88/121/71 108/122/71
f 108/122/72 88/121/72 90/123/72 109/124/72
f 109/124/73 90/123/73 92/125/73 110/126/73
f 110/126/74 92/125/74 94/127/74 111/128/74
f 88/121/75 86/119/75 118/129/75 120/130/75
f 111/128/76 94/127/76 96/131/76 112/132/76
f 112/132/77 96/131/77 82/133/77 105/134/77
f 83/135/78 85/136/78 99/137/78 98/138/78
f 97/139/68 98/140/68 99/141/68 100/142/68 101/143/68 102/144/68 103/145/68 104/146/68
f 89/147/79 91/148/79 102/149/79 101/150/79
f 95/151/80 81/152/80 97/153/80 104/154/80
f 81/155/81 83/135/81 98/138/81 97/156/81
f 85/136/82 87/157/82 100/158/82 99/137/82
f 91/148/83 93/159/83 103/160/83 102/149/83
f 87/157/84 89/147/84 101/150/84 100/158/84
f 93/159/85 95/151/85 104/154/85 103/160/85
f 95/161/86 112/132/86 105/134/86 81/162/86
f 93/163/87 111/128/87 112/132/87 95/161/87
f 91/164/88 110/126/88 111/128/88 93/163/88
f 89/165/89 109/124/89 110/126/89 91/164/89
f 87/166/90 108/122/90 109/124/90 89/165/90
f 85/167/91 107/120/91 108/122/91 87/166/91
f 83/168/92 106/118/92 107/120/92 85/167/92
f 81/169/93 105/115/93 106/118/93 83/168/93
f 86/119/94 84/117/94 114/170/94 118/129/94
f 113/171/19 116/172/19 127/173/19 125/174/19 123/175/19 121/176/19 119/177/19 117/178/19
f 90/123/95 88/121/95 120/130/95 122/179/95
f 96/131/96 94/127/96 126/180/96 128/181/96
f 92/125/97 90/123/97 122/179/97 124/182/97
f 82/133/98 96/131/98 128/181/98 115/183/98
f 94/127/99 92/125/99 124/182/99 126/180/99
f 114/184/100 115/185/100 116/172/100 113/171/100
f 118/186/101 114/184/101 113/171/101 117/178/101
f 120/187/102 118/186/102 117/178/102 119/177/102
f 122/188/103 120/187/103 119/177/103 121/176/103
f 124/189/104 122/188/104 121/176/104 123/175/104
f 126/190/105 124/189/105 123/175/105 125/174/105
f 128/191/106 126/190/106 125/174/106 127/173/106
f 115/185/107 128/191/107 127/173/107 116/172/107
f 84/117/108 82/116/108 115/192/108 114/170/108
f 136/193/109 160/194/109 146/195/109 129/196/109
f 131/197/110 150/198/110 152/199/110 132/200/110
f 132/200/111 152/199/111 154/201/111 133/202/111
f 133/202/112 154/201/112 156/203/112 134/204/112
f 134/204/113 156/203/113 158/205/113 135/206/113
f 135/206/114 158/205/114 160/194/114 136/193/114
f 129/207/115 146/208/115 148/209/115 130/210/115
f 130/210/116 148/209/116 150/198/116 131/197/116
f 130/210/78 131/197/78 139/211/78 138/212/78
f 137/213/68 138/214/68 139/215/68 140/216/68 141/217/68 142/218/68 143/219/68 144/220/68
f 133/202/79 134/204/79 142/221/79 141/222/79
f 136/193/80 129/196/80 137/223/80 144/224/80
f 129/207/81 130/210/81 138/212/81 137/225/81
f 131/197/82 132/200/82 140/226/82 139/211/82
f 134/204/83 135/206/83 143/227/83 142/221/83
f 132/200/84 133/202/84 141/222/84 140/226/84
f 135/206/85 136/193/85 144/224/85 143/227/85
f 148/228/117 146/229/117 145/230/117 147/231/117
f 150/232/118 148/228/118 147/231/118 149/233/118
f 152/234/119 150/232/119 149/233/119 151/235/119
f 154/236/120 152/234/120 151/235/120 153/237/120
f 156/238/121 154/236/121 153/237/121 155/239/121
f 158/240/122 156/238/122 155/239/122 157/241/122
f 160/242/123 158/240/123 157/241/123 159/243/123
f 146/229/124 160/242/124 159/243/124 145/230/124
f 147/231/19 145/230/19 159/243/19 157/241/19 155/239/19 153/237/19 151/235/19 149/233/19
f 168/244/125 184/245/125 170/246/125 161/247/125
f 163/248/126 174/249/126 176/250/126 164/251/126
f 164/251/127 176/250/127 178/252/127 165/253/127
f 165/253/128 178/252/128 180/254/128 166/255/128
f 166/255/129 180/254/129 182/256/129 167/257/129
f 167/257/130 182/256/130 184/245/130 168/244/130
f 161/258/131 170/259/131 172/260/131 162/261/131
f 162/261/132 172/260/132 174/249/132 163/248/132
f 161/262/68 162/263/68 163/264/68 164/265/68 165/266/68 166/267/68 167/268/68 168/269/68
f 172/270/133 170/271/133 169/272/133 171/273/133
f 174/274/134 172/270/134 171/273/134 173/275/134
f 176/276/135 174/274/135 173/275/135 175/277/135
f 178/278/136 176/276/136 175/277/136 177/279/136
f 180/280/137 178/278/137 177/279/137 179/281/137
f 182/282/138 180/280/138 179/281/138 181/283/138
f 184/284/139 182/282/139 181/283/139 183/285/139
f 170/271/140 184/284/140 183/285/140 169/272/140
f 171/273/19 169/272/19 183/285/19 181/283/19 179/281/19 177/279/19 175/277/19 173/275/19
