# Blender 4.2.2 LTS
# www.blender.org
mtllib rifle.mtl
o rifle
v -0.104295 0.647838 -1.407882
v -0.158614 0.872173 -1.480123
v 0.083449 0.647838 -1.407882
v 0.137769 0.872173 -1.503436
v -0.104295 0.647838 -1.112219
v -0.158614 0.899448 -1.015036
v 0.083449 0.647838 -1.112219
v 0.137769 0.914022 -0.973911
v -0.104295 0.613977 -1.443246
v -0.158614 0.902220 -1.574476
v -0.158614 0.952588 -0.894276
v -0.104295 0.613977 -1.078671
v 0.137769 0.902220 -1.553039
v 0.083449 0.613977 -1.430264
v 0.083449 0.613977 -1.091653
v 0.137769 0.952588 -0.915713
v -0.158614 0.758099 -1.551085
v 0.137769 0.758099 -1.531072
v -0.158614 0.760006 -1.475662
v 0.137769 0.760006 -1.489217
v 0.137769 0.783282 -0.963624
v -0.158614 0.783282 -0.943611
v -0.158614 0.773643 -1.033332
v 0.137769 0.780930 -1.009420
v 0.228896 0.675739 -2.787629
v 0.228896 1.337844 -2.579713
v 0.228896 0.467823 -2.666748
v -0.270442 0.467823 -2.666748
v -0.270442 1.337844 -2.579713
v 0.140250 1.214933 -2.124431
v 0.140250 0.373923 -2.211466
v -0.166940 0.373923 -2.211466
v -0.166940 1.214933 -2.124431
v -0.242168 1.218365 -2.352072
v 0.200622 1.218365 -2.352072
v 0.200622 0.420873 -2.439107
v -0.242168 0.420873 -2.439107
v 0.146095 1.499870 -1.409193
v 0.146095 0.871630 -1.829862
v -0.166940 0.871630 -1.829862
v -0.166940 1.499870 -1.409193
v 0.146095 1.493142 3.126148
v 0.146095 1.218809 2.898891
v -0.166941 1.218809 2.898891
v -0.166941 1.493142 3.126148
v -0.341210 0.153472 -4.601978
v -0.366622 0.258538 -4.596652
v -0.350889 0.200564 -4.759218
v -0.366622 1.205370 -4.596652
v -0.339962 1.298041 -4.585506
v -0.350889 1.201841 -4.759218
v 0.309343 0.200564 -4.759218
v 0.325351 0.153523 -4.601803
v 0.298417 1.298041 -4.585506
v 0.325340 1.205261 -4.601605
v 0.309343 1.201841 -4.759218
v -0.270442 0.779272 -2.787629
v -0.244747 0.675739 -2.787629
v -0.270442 0.587498 -2.736326
v -0.244375 1.337844 -2.787629
v -0.270442 1.245420 -2.787629
v -0.270442 1.337844 -2.613767
v 0.228896 1.245420 -2.787629
v 0.202829 1.337844 -2.787629
v 0.228896 1.337844 -2.613767
v 0.085964 0.871938 -1.366470
v 0.105149 0.905444 -1.293609
v 0.025275 0.649082 -1.305359
v 0.070258 0.791046 -1.399716
v 0.054280 0.710155 -1.372797
v -0.106808 0.871938 -1.366470
v -0.125993 0.905444 -1.293609
v -0.046119 0.649082 -1.305359
v -0.075123 0.710155 -1.372797
v -0.091102 0.791046 -1.399716
v 0.085964 0.854426 -1.349327
v -0.106808 0.854426 -1.349327
v 0.105149 0.889326 -1.293609
v -0.125993 0.889326 -1.293609
v 0.025275 0.673846 -1.305359
v -0.046119 0.673846 -1.305359
v 0.054280 0.727666 -1.355654
v -0.075123 0.727666 -1.355654
v 0.070258 0.791046 -1.375473
v -0.091102 0.791046 -1.375473
v -0.027755 2.155724 0.226568
v -0.027755 2.155724 0.475032
v 0.092842 2.119465 0.226568
v 0.092842 2.119465 0.475032
v 0.142795 2.006344 0.226568
v 0.142795 2.006344 0.475032
v 0.092842 1.893222 0.226568
v 0.092842 1.893222 0.475032
v -0.027755 1.856964 0.226568
v -0.027755 1.856964 0.475032
v 0.150833 2.173861 0.475032
v -0.027755 2.227555 0.475032
v 0.224806 2.006344 0.475032
v 0.150833 1.838827 0.475032
v -0.027755 1.785132 0.475032
v -0.027755 2.227555 0.226568
v 0.150833 2.173861 0.226568
v 0.224807 2.006344 0.226568
v 0.150833 1.838827 0.226568
v -0.027755 1.785132 0.226568
v -0.082178 1.426403 0.227739
v -0.082178 1.859215 0.227739
v 0.069155 1.426403 0.227739
v 0.069155 1.859215 0.227739
v -0.082178 1.426403 0.473188
v -0.082178 1.859215 0.473188
v 0.069155 1.426403 0.473188
v 0.069155 1.859215 0.473188
v -0.027755 2.155725 -0.901663
v -0.027755 2.155725 -0.653199
v 0.092842 2.119465 -0.901663
v 0.092842 2.119465 -0.653199
v 0.142795 2.006344 -0.901663
v 0.142795 2.006344 -0.653199
v 0.092842 1.893223 -0.901663
v 0.092842 1.893223 -0.653199
v -0.027755 1.856964 -0.901663
v -0.027755 1.856964 -0.653199
v 0.150833 2.173861 -0.653199
v -0.027755 2.227555 -0.653199
v 0.224807 2.006344 -0.653199
v 0.150833 1.838827 -0.653199
v -0.027755 1.785132 -0.653199
v -0.027755 2.227555 -0.901663
v 0.150833 2.173861 -0.901663
v 0.224807 2.006344 -0.901663
v 0.150833 1.838827 -0.901663
v -0.027755 1.785132 -0.901663
v -0.082178 1.426403 -0.900491
v -0.082178 1.859215 -0.900491
v 0.069155 1.426403 -0.900491
v 0.069155 1.859215 -0.900491
v -0.082178 1.426403 -0.655043
v -0.082178 1.859215 -0.655043
v 0.069155 1.426403 -0.655043
v 0.069155 1.859215 -0.655043
v 0.129481 2.001707 -1.878280
v 0.214012 2.001707 -1.429411
v 0.088504 1.902781 -1.878280
v 0.148277 1.843008 -1.429411
v -0.010422 1.861804 -1.878280
v -0.010422 1.777272 -1.429411
v -0.109349 1.902781 -1.878280
v -0.169122 1.843008 -1.429411
v -0.150325 2.001707 -1.878280
v -0.234857 2.001707 -1.429411
v -0.109349 2.100633 -1.878280
v -0.169122 2.160406 -1.429411
v -0.010422 2.141610 -1.878280
v -0.010422 2.226141 -1.429411
v 0.088504 2.100633 -1.878280
v 0.148277 2.160406 -1.429411
v 0.126537 1.864748 -1.221226
v 0.183267 2.001707 -1.221226
v -0.010422 1.808017 -1.221226
v -0.147381 1.864748 -1.221226
v -0.204112 2.001707 -1.221226
v -0.147381 2.138666 -1.221226
v -0.010422 2.195396 -1.221226
v 0.126537 2.138666 -1.221226
v 0.146023 1.845261 -1.033187
v 0.210825 2.001707 -1.033187
v -0.010422 1.780459 -1.033187
v -0.166868 1.845261 -1.033187
v -0.231670 2.001707 -1.033187
v -0.166868 2.158153 -1.033187
v -0.010422 2.222955 -1.033187
v 0.146023 2.158153 -1.033187
v 0.087553 1.903732 -0.875369
v 0.128135 2.001707 -0.875369
v -0.010422 1.863149 -0.875369
v -0.108397 1.903732 -0.875369
v -0.148980 2.001707 -0.875369
v -0.108397 2.099682 -0.875369
v -0.010422 2.140265 -0.875369
v 0.087553 2.099682 -0.875369
v 0.087553 1.903732 0.471120
v 0.128135 2.001707 0.471120
v -0.010422 1.863149 0.471120
v -0.108398 1.903732 0.471120
v -0.148980 2.001707 0.471120
v -0.108398 2.099682 0.471120
v -0.010422 2.140265 0.471120
v 0.087553 2.099682 0.471120
v 0.172718 1.818566 1.021804
v 0.248577 2.001707 1.021804
v -0.010422 1.742707 1.021804
v -0.193563 1.818566 1.021804
v -0.269422 2.001707 1.021804
v -0.193563 2.184847 1.021804
v -0.010422 2.260706 1.021804
v 0.172718 2.184847 1.021804
v 0.120060 1.871224 1.421385
v 0.174108 2.001707 1.421385
v -0.010422 1.817176 1.421385
v -0.140905 1.871224 1.421385
v -0.194953 2.001707 1.421385
v -0.140905 2.132189 1.421385
v -0.010422 2.186237 1.421385
v 0.120060 2.132189 1.421385
v 0.172718 1.818566 1.421385
v 0.248577 2.001707 1.421385
v -0.010422 1.742707 1.421385
v -0.193563 1.818566 1.421385
v -0.269422 2.001707 1.421385
v -0.193563 2.184847 1.421385
v -0.010423 2.260706 1.421385
v 0.172718 2.184847 1.421385
v 0.120060 1.871224 1.217698
v 0.174108 2.001707 1.217698
v -0.010422 1.817176 1.217698
v -0.140905 1.871224 1.217698
v -0.194953 2.001707 1.217698
v -0.140905 2.132189 1.217698
v -0.010422 2.186237 1.217698
v 0.120060 2.132189 1.217698
v 0.214012 2.001707 -1.878280
v 0.148277 1.843008 -1.878280
v -0.010422 1.777272 -1.878280
v -0.169122 1.843008 -1.878280
v -0.234857 2.001707 -1.878280
v -0.169122 2.160406 -1.878280
v -0.010422 2.226141 -1.878280
v 0.148277 2.160406 -1.878280
v 0.129481 2.001707 -1.802878
v 0.088504 1.902781 -1.802878
v -0.010422 1.861804 -1.802878
v -0.109349 1.902781 -1.802878
v -0.150325 2.001707 -1.802878
v -0.109349 2.100633 -1.802878
v -0.010422 2.141610 -1.802878
v 0.088504 2.100633 -1.802878
v 0.149991 1.532146 -1.551383
v 0.149991 1.561548 0.749536
v 0.103007 1.431546 -1.603784
v 0.103007 1.448118 0.749536
v -0.010423 1.389876 -1.625489
v -0.010423 1.401134 0.749536
v -0.123852 1.431546 -1.603784
v -0.123853 1.448118 0.749536
v -0.170837 1.532146 -1.551383
v -0.170837 1.561548 0.749536
v -0.123852 1.632746 -1.498982
v -0.123853 1.674978 0.749536
v -0.010423 1.674416 -1.477277
v -0.010423 1.721962 0.749536
v 0.103007 1.632746 -1.498982
v 0.103007 1.674978 0.749536
v 0.096139 1.551029 -1.481589
v 0.071074 1.551030 5.762568
v 0.064928 1.475679 -1.481589
v 0.047204 1.493404 5.762568
v -0.010423 1.444468 -1.481589
v -0.010422 1.469534 5.762568
v -0.085773 1.475679 -1.481589
v -0.068048 1.493404 5.762568
v -0.116984 1.551029 -1.481589
v -0.091918 1.551030 5.762568
v -0.085773 1.626380 -1.481589
v -0.068048 1.608657 5.762568
v -0.010423 1.657591 -1.481589
v -0.010422 1.632526 5.762568
v 0.064928 1.626380 -1.481589
v 0.047204 1.608657 5.762568
v 0.064929 1.475680 5.762568
v 0.096140 1.551030 5.762568
v -0.010422 1.444468 5.762568
v -0.085773 1.475680 5.762568
v -0.116984 1.551030 5.762568
v -0.085773 1.626381 5.762568
v -0.010422 1.657592 5.762568
v 0.064929 1.626381 5.762568
v 0.045580 1.493115 5.623738
v 0.069449 1.550741 5.623738
v -0.012047 1.469245 5.623738
v -0.069673 1.493115 5.623738
v -0.093543 1.550741 5.623738
v -0.069673 1.608367 5.623738
v -0.012047 1.632237 5.623738
v 0.045580 1.608367 5.623738
vn 0.0689 -0.1551 -0.9855
vn -0.0000 1.0000 -0.0000
vn 0.0671 -0.2754 0.9590
vn 0.0994 0.2025 -0.9742
vn -0.0000 -1.0000 -0.0000
vn -0.0000 0.9971 -0.0762
vn -1.0000 -0.0000 -0.0000
vn -0.9501 -0.3061 -0.0602
vn 0.9446 -0.2869 0.1597
vn 1.0000 -0.0000 -0.0000
vn 0.0619 0.0828 0.9946
vn 0.0224 -0.9973 0.0693
vn 0.0233 0.5534 0.8326
vn -0.9395 -0.3261 0.1053
vn 0.0551 -0.5855 -0.8088
vn 0.9599 -0.2531 -0.1202
vn 0.0318 0.5741 -0.8181
vn 0.0537 -0.6127 0.7885
vn -0.9986 -0.0000 0.0531
vn -0.0000 -0.5026 -0.8645
vn -0.0000 0.9998 -0.0221
vn -0.0000 -0.0000 -1.0000
vn 0.9986 -0.0000 0.0531
vn -0.0000 0.9999 0.0151
vn 0.9999 0.0049 -0.0141
vn 0.9670 -0.0269 0.2535
vn -0.9501 -0.0330 0.3103
vn -0.0000 -0.9794 -0.2020
vn -0.9928 -0.0124 0.1188
vn 0.9928 -0.0124 0.1188
vn -0.0000 0.8855 0.4647
vn -0.0000 1.0000 0.0015
vn -0.0000 -0.6085 0.7936
vn -0.0000 0.9290 -0.3701
vn -0.0000 -0.6379 0.7701
vn -0.0000 -0.9973 0.0732
vn -0.9720 -0.2346 -0.0104
vn -0.9531 0.2860 -0.0985
vn 0.9504 0.2936 -0.1028
vn -0.7213 -0.1790 -0.6691
vn -0.9526 0.2687 -0.1428
vn 0.9526 0.2687 -0.1428
vn 0.0001 -0.9580 -0.2866
vn -0.9953 -0.0000 -0.0963
vn -0.0000 0.8748 -0.4845
vn 0.9949 -0.0000 -0.1011
vn 0.9615 0.2712 0.0451
vn -0.9635 -0.2391 0.1201
vn -0.9615 0.2712 0.0451
vn -0.0000 -0.9610 0.2766
vn -0.0000 -0.0000 1.0000
vn -0.0000 0.6828 0.7306
vn -0.0000 0.2984 0.9544
vn -0.0000 -0.3813 0.9244
vn -0.0000 -0.8475 0.5308
vn 0.9803 -0.1818 -0.0769
vn 0.9670 -0.1157 -0.2270
vn 0.9345 -0.1338 0.3299
vn 0.9784 -0.1906 0.0806
vn -0.9803 -0.1818 -0.0769
vn -0.9670 -0.1157 -0.2270
vn -0.9345 -0.1338 0.3299
vn -0.9784 -0.1906 0.0806
vn -0.0000 0.3801 -0.9249
vn -0.0000 0.9085 -0.4178
vn -0.0000 -0.7412 -0.6713
vn -0.0000 -0.3158 -0.9488
vn 0.2879 0.9577 -0.0000
vn 0.9148 0.4040 -0.0000
vn 0.9148 -0.4040 -0.0000
vn 0.2879 -0.9577 -0.0000
vn -0.2879 -0.9577 -0.0000
vn -0.9148 -0.4040 -0.0000
vn -0.2879 0.9577 -0.0000
vn -0.9148 0.4040 -0.0000
vn 0.9239 -0.3827 -0.0000
vn 0.3827 -0.9239 -0.0000
vn -0.3827 -0.9239 -0.0000
vn -0.9239 -0.3827 -0.0000
vn -0.9239 0.3827 -0.0000
vn -0.3827 0.9239 -0.0000
vn -0.9154 0.3792 0.1352
vn 0.3827 0.9239 -0.0000
vn 0.9239 0.3827 -0.0000
vn 0.3792 -0.9155 -0.1342
vn 0.9154 0.3792 0.1352
vn 0.9154 -0.3792 0.1352
vn -0.3792 -0.9154 0.1352
vn -0.3792 0.9154 0.1352
vn -0.9154 -0.3792 0.1352
vn 0.3792 0.9154 0.1352
vn 0.3792 -0.9154 0.1352
vn 0.8316 0.3444 0.4357
vn 0.3792 0.9155 -0.1342
vn -0.9155 0.3792 -0.1342
vn -0.3792 -0.9155 -0.1342
vn 0.9155 -0.3792 -0.1342
vn 0.9155 0.3792 -0.1342
vn -0.3792 0.9155 -0.1342
vn -0.9155 -0.3792 -0.1342
vn -0.3444 0.8316 0.4357
vn -0.8316 -0.3444 0.4357
vn 0.3444 -0.8316 0.4357
vn 0.3444 0.8316 0.4357
vn -0.8316 0.3444 0.4357
vn -0.3444 -0.8316 0.4357
vn 0.8316 -0.3444 0.4357
vn 0.3751 0.9056 -0.1981
vn -0.9056 0.3751 -0.1981
vn -0.3751 -0.9056 -0.1981
vn 0.9056 -0.3751 -0.1981
vn 0.9056 0.3751 -0.1981
vn -0.3751 0.9056 -0.1981
vn -0.9056 -0.3751 -0.1981
vn 0.3751 -0.9056 -0.1981
vn 0.9153 -0.4028 0.0040
vn 0.3635 -0.9316 0.0055
vn -0.3635 -0.9316 0.0055
vn -0.9153 -0.4028 0.0040
vn -0.9150 0.4033 -0.0064
vn -0.3624 0.9318 -0.0187
vn 0.3624 0.9318 -0.0187
vn 0.9150 0.4033 -0.0064
vn -0.0000 0.4620 -0.8869
vn 0.3827 -0.9239 -0.0026
vn 0.9238 0.3827 -0.0116
vn -0.3827 0.9239 0.0026
vn -0.3827 -0.9239 0.0064
vn 0.9238 -0.3827 -0.0100
vn 0.3827 0.9239 -0.0064
vn -0.9238 0.3827 0.0100
vn -0.9238 -0.3827 0.0116
vt 0.835156 0.902288
vt 0.833143 0.894987
vt 0.884247 0.843703
vt 0.939808 0.872003
vt 0.827035 0.913160
vt 0.802242 0.914816
vt 0.813359 0.906153
vt 0.816263 0.906165
vt 0.728481 0.885145
vt 0.768167 0.870807
vt 0.793961 0.887798
vt 0.790797 0.899650
vt 0.797095 0.902386
vt 0.800067 0.892555
vt 0.813325 0.903778
vt 0.813133 0.904761
vt 0.898355 0.961153
vt 0.758911 0.965091
vt 0.798678 0.917763
vt 0.830894 0.916182
vt 0.830940 0.903406
vt 0.829065 0.896376
vt 0.980107 0.866783
vt 0.909759 0.982344
vt 0.750737 0.982344
vt 0.768563 0.858779
vt 0.881787 0.835877
vt 0.703719 0.886959
vt 0.816491 0.904756
vt 0.816279 0.903849
vt 0.853514 0.720621
vt 0.762271 0.726120
vt 0.735351 0.461859
vt 0.796471 0.350176
vt 0.231088 0.518720
vt 0.226464 0.534811
vt 0.141166 0.534831
vt 0.141157 0.496921
vt 0.231083 0.496899
vt 0.648423 0.760559
vt 0.649288 0.728779
vt 0.745456 0.727627
vt 0.748826 0.757977
vt 0.749399 0.764228
vt 0.648245 0.766619
vt 0.657177 0.469089
vt 0.724193 0.467843
vt 0.768538 0.340456
vt 0.723313 0.447876
vt 0.661678 0.446314
vt 0.635780 0.318080
vt 0.599106 0.277838
vt 0.644437 0.460360
vt 0.632018 0.728597
vt 0.507592 0.734111
vt 0.301508 0.022457
vt 0.415839 0.021958
vt 0.402758 0.078948
vt 0.313164 0.075304
vt 0.895312 0.729692
vt 0.922467 0.743769
vt 0.460240 0.768423
vt 0.123001 0.065407
vt 0.323479 0.236428
vt 0.226234 0.139782
vt 0.129561 0.017980
vt 0.588645 0.017980
vt 0.595225 0.066779
vt 0.098458 0.901788
vt 0.018716 0.901788
vt 0.029588 0.865149
vt 0.084911 0.865149
vt 0.146240 0.460281
vt 0.225982 0.460262
vt 0.933115 0.793833
vt 0.759309 0.814049
vt 0.644071 0.823469
vt 0.455063 0.823469
vt 0.392170 0.235928
vt 0.370949 0.791073
vt 0.347384 0.795537
vt 0.489397 0.142394
vt 0.028536 0.766288
vt 0.084911 0.766288
vt 0.305935 0.828259
vt 0.415353 0.850321
vt 0.028536 0.018880
vt 0.084910 0.018880
vt 0.811647 0.305693
vt 0.875468 0.716413
vt 0.123867 0.832419
vt 0.243908 0.832419
vt 0.697309 0.099444
vt 0.702462 0.105171
vt 0.682882 0.102546
vt 0.687468 0.098985
vt 0.912895 0.457755
vt 0.905193 0.474389
vt 0.886236 0.474389
vt 0.878534 0.457755
vt 0.917138 0.443054
vt 0.874291 0.443054
vt 0.921308 0.427831
vt 0.870120 0.427831
vt 0.926402 0.412792
vt 0.865026 0.412792
vt 0.707697 0.022445
vt 0.666653 0.021319
vt 0.662203 0.018706
vt 0.711517 0.018706
vt 0.717158 0.038315
vt 0.718297 0.058694
vt 0.711426 0.058683
vt 0.711379 0.038918
vt 0.717188 0.080799
vt 0.709488 0.079982
vt 0.661547 0.062579
vt 0.658986 0.041666
vt 0.665203 0.041414
vt 0.668386 0.061350
vt 0.666785 0.083788
vt 0.673844 0.082026
vt 0.825520 0.034472
vt 0.826981 0.061269
vt 0.814982 0.065748
vt 0.811044 0.032137
vt 0.798495 0.070504
vt 0.792798 0.031412
vt 0.780782 0.070622
vt 0.776175 0.036875
vt 0.766668 0.070020
vt 0.764385 0.042925
vt 0.841370 0.066049
vt 0.831742 0.066049
vt 0.831742 0.027647
vt 0.841370 0.027647
vt 0.762969 0.076401
vt 0.757409 0.038262
vt 0.511227 0.422923
vt 0.500394 0.422923
vt 0.500394 0.381003
vt 0.511227 0.381003
vt 0.818591 0.074740
vt 0.800283 0.082794
vt 0.779874 0.081002
vt 0.812861 0.020774
vt 0.790956 0.017921
vt 0.771579 0.027175
vt 0.532569 0.422923
vt 0.522059 0.422923
vt 0.522059 0.381003
vt 0.532569 0.381003
vt 0.245311 0.930877
vt 0.250073 0.872029
vt 0.265499 0.886039
vt 0.260277 0.914454
vt 0.296073 0.888453
vt 0.290850 0.916868
vt 0.311038 0.872029
vt 0.306277 0.930877
vt 0.550471 0.315514
vt 0.512178 0.315514
vt 0.512178 0.274103
vt 0.550471 0.274103
vt 0.901051 0.363052
vt 0.874499 0.364500
vt 0.870060 0.352611
vt 0.903365 0.348709
vt 0.865348 0.336273
vt 0.904083 0.330629
vt 0.865231 0.318722
vt 0.898670 0.314157
vt 0.865828 0.304737
vt 0.892675 0.302475
vt 0.131175 0.407259
vt 0.120666 0.407259
vt 0.120666 0.365339
vt 0.131175 0.365339
vt 0.859505 0.301071
vt 0.897296 0.295562
vt 0.907814 0.369218
vt 0.869762 0.369218
vt 0.142008 0.407259
vt 0.142008 0.365339
vt 0.861150 0.356187
vt 0.853169 0.338045
vt 0.854945 0.317822
vt 0.914625 0.350509
vt 0.917451 0.328803
vt 0.908282 0.309603
vt 0.163351 0.407259
vt 0.152841 0.407259
vt 0.152841 0.365339
vt 0.163351 0.365339
vt 0.140140 0.930877
vt 0.144901 0.872029
vt 0.160328 0.886039
vt 0.155105 0.914454
vt 0.190901 0.888453
vt 0.185679 0.916868
vt 0.205867 0.872029
vt 0.201105 0.930877
vt 0.917451 0.060418
vt 0.879159 0.060418
vt 0.879159 0.019007
vt 0.917451 0.019007
vt 0.562084 0.203223
vt 0.589875 0.208761
vt 0.588435 0.221435
vt 0.558885 0.213881
vt 0.586446 0.234913
vt 0.552475 0.225920
vt 0.553162 0.141935
vt 0.588683 0.132620
vt 0.590067 0.147472
vt 0.559394 0.153197
vt 0.590938 0.160751
vt 0.562632 0.163629
vt 0.591353 0.173082
vt 0.563723 0.173659
vt 0.591290 0.184956
vt 0.564240 0.183405
vt 0.607804 0.160829
vt 0.607646 0.173317
vt 0.590903 0.196720
vt 0.563500 0.193153
vt 0.558176 0.174145
vt 0.557756 0.183309
vt 0.551984 0.183109
vt 0.552038 0.174782
vt 0.605391 0.236079
vt 0.606041 0.222605
vt 0.621692 0.222574
vt 0.622990 0.237420
vt 0.606731 0.197378
vt 0.606271 0.209752
vt 0.608637 0.133404
vt 0.607984 0.147560
vt 0.607544 0.185351
vt 0.621542 0.209733
vt 0.621360 0.197634
vt 0.637865 0.197889
vt 0.638213 0.209426
vt 0.621559 0.185802
vt 0.623050 0.161699
vt 0.622146 0.173935
vt 0.627127 0.133748
vt 0.624496 0.148767
vt 0.641527 0.151909
vt 0.643754 0.140986
vt 0.786544 0.147706
vt 0.787710 0.158855
vt 0.638701 0.174836
vt 0.637499 0.186328
vt 0.639947 0.163311
vt 0.638844 0.220891
vt 0.640124 0.232073
vt 0.787792 0.203619
vt 0.788618 0.192413
vt 0.840884 0.194562
vt 0.840231 0.208683
vt 0.786665 0.214746
vt 0.785193 0.225658
vt 0.788646 0.181149
vt 0.788372 0.169942
vt 0.783317 0.236537
vt 0.841926 0.166009
vt 0.842260 0.150170
vt 0.872136 0.154125
vt 0.869284 0.167747
vt 0.841470 0.180539
vt 0.842190 0.131268
vt 0.839318 0.223455
vt 0.837952 0.239553
vt 0.835694 0.257334
vt 0.873660 0.182056
vt 0.875002 0.169036
vt 0.893007 0.172469
vt 0.891856 0.183790
vt 0.869458 0.237263
vt 0.874772 0.255553
vt 0.867317 0.194432
vt 0.867326 0.207916
vt 0.867893 0.181138
vt 0.878462 0.139038
vt 0.867920 0.221947
vt 0.874258 0.221889
vt 0.876459 0.236175
vt 0.881306 0.250168
vt 0.883210 0.144522
vt 0.877366 0.155916
vt 0.873149 0.195062
vt 0.873329 0.208266
vt 0.349839 0.899548
vt 0.349839 0.886886
vt 0.358792 0.877933
vt 0.371454 0.877933
vt 0.380407 0.886886
vt 0.380407 0.899548
vt 0.371454 0.908501
vt 0.358792 0.908501
vt 0.899550 0.150323
vt 0.895527 0.161652
vt 0.893876 0.219858
vt 0.896258 0.232467
vt 0.892380 0.207507
vt 0.891698 0.195480
vt 0.899550 0.244982
vt 0.553090 0.211337
vt 0.555387 0.201649
vt 0.547642 0.219537
vt 0.553860 0.155678
vt 0.548720 0.148077
vt 0.556103 0.165029
vt 0.558020 0.192508
vt 0.885326 0.520657
vt 0.892113 0.513870
vt 0.901713 0.513870
vt 0.908500 0.520657
vt 0.908500 0.530257
vt 0.901713 0.537045
vt 0.892113 0.537045
vt 0.885325 0.530257
vt 0.550074 0.166465
vt 0.547809 0.157950
vt 0.542035 0.216238
vt 0.546721 0.208275
vt 0.551627 0.191424
vt 0.544020 0.150874
vt 0.549456 0.199893
vt 0.168360 0.213958
vt 0.156564 0.253318
vt 0.143695 0.254171
vt 0.147157 0.208469
vt 0.122318 0.275689
vt 0.122318 0.207556
vt 0.167483 0.326702
vt 0.152588 0.277630
vt 0.185475 0.309553
vt 0.162788 0.269737
vt 0.197711 0.291388
vt 0.165527 0.264676
vt 0.203629 0.270612
vt 0.163902 0.259926
vt 0.201458 0.245689
vt 0.161970 0.255292
vt 0.186563 0.225590
vt 0.120372 0.139971
vt 0.131056 0.129360
vt 0.147415 0.129360
vt 0.159865 0.139971
vt 0.161113 0.154978
vt 0.150429 0.165589
vt 0.134070 0.165589
vt 0.121620 0.154978
vt 0.474591 0.931747
vt 0.607270 0.932473
vt 0.608917 0.943458
vt 0.474459 0.944283
vt 0.613282 0.955492
vt 0.474459 0.955492
vt 0.479375 0.859061
vt 0.613802 0.872192
vt 0.610125 0.881892
vt 0.478315 0.869915
vt 0.608165 0.891745
vt 0.477188 0.882227
vt 0.607106 0.901872
vt 0.476259 0.894538
vt 0.606578 0.912030
vt 0.475503 0.906896
vt 0.610009 0.912296
vt 0.610522 0.902319
vt 0.613465 0.902389
vt 0.612953 0.912173
vt 0.606573 0.922205
vt 0.474947 0.919296
vt 0.506863 0.514668
vt 0.495826 0.514668
vt 0.488021 0.506863
vt 0.488021 0.495826
vt 0.495826 0.488021
vt 0.506863 0.488021
vt 0.514668 0.495826
vt 0.514668 0.506863
vt 0.610845 0.932208
vt 0.612772 0.942560
vt 0.616731 0.952423
vt 0.616076 0.874406
vt 0.613065 0.882836
vt 0.611443 0.892382
vt 0.610022 0.922251
vt 0.204883 0.407259
vt 0.198915 0.401290
vt 0.198915 0.392849
vt 0.204883 0.386880
vt 0.213324 0.386880
vt 0.219293 0.392849
vt 0.219293 0.401290
vt 0.213324 0.407259
vt 0.615729 0.883557
vt 0.614444 0.892712
vt 0.615961 0.941779
vt 0.619839 0.951470
vt 0.612967 0.922036
vt 0.618324 0.875355
vt 0.613713 0.931844
s 0
usemtl Материал
f 17/1/1 10/2/1 13/3/1 18/4/1
f 1/5/2 5/6/2 7/7/2 3/8/2
f 21/9/3 16/10/3 11/11/3 22/12/3
f 23/13/4 6/14/4 8/15/4 24/16/4
f 14/17/5 15/18/5 12/19/5 9/20/5
f 16/10/6 13/3/6 10/2/6 11/11/6
f 19/21/7 2/22/7 10/2/7 17/1/7
f 23/13/8 5/6/8 12/19/8 22/12/8
f 5/6/7 1/5/7 9/20/7 12/19/7
f 2/22/7 6/14/7 11/11/7 10/2/7
f 20/23/9 3/24/9 14/17/9 18/4/9
f 3/24/10 7/25/10 15/18/10 14/17/10
f 8/26/10 4/27/10 13/3/10 16/10/10
f 24/28/10 8/26/10 16/10/10 21/9/10
f 19/21/11 20/29/11 4/30/11 2/22/11
f 6/14/12 2/22/12 4/30/12 8/15/12
f 1/5/13 3/8/13 20/29/13 19/21/13
f 4/27/10 20/23/10 18/4/10 13/3/10
f 1/5/14 19/21/14 17/1/14 9/20/14
f 9/20/15 17/1/15 18/4/15 14/17/15
f 7/25/16 24/28/16 21/9/16 15/18/16
f 6/14/7 23/13/7 22/12/7 11/11/7
f 5/6/17 23/13/17 24/16/17 7/7/17
f 15/18/18 21/9/18 22/12/18 12/19/18
f 57/31/19 61/32/19 49/33/19 47/34/19
f 59/35/20 58/36/20 25/37/20 27/38/20 28/39/20
f 65/40/2 64/41/2 60/42/2 62/43/2 29/44/2 26/45/2
f 64/41/21 54/46/21 50/47/21 60/42/21
f 48/48/22 51/49/22 56/50/22 52/51/22
f 53/52/23 55/53/23 63/54/23 25/55/23
f 35/56/24 34/57/24 33/58/24 30/59/24
f 62/43/7 61/32/7 57/31/7 59/60/7 28/61/7 29/44/7
f 25/55/10 63/54/10 65/40/10 26/45/10 27/62/10
f 31/63/25 30/59/25 38/64/25 39/65/25
f 36/66/26 35/56/26 30/59/26 31/63/26
f 34/57/27 37/67/27 32/68/27 33/58/27
f 37/69/28 36/70/28 31/71/28 32/72/28
f 28/39/28 27/38/28 36/73/28 37/74/28
f 29/44/29 28/61/29 37/75/29 34/76/29
f 27/62/30 26/45/30 35/77/30 36/78/30
f 26/45/31 29/44/31 34/76/31 35/77/31
f 38/64/32 41/79/32 45/80/32 42/81/32
f 33/58/7 32/68/7 40/82/7 41/79/7
f 32/72/33 31/71/33 39/83/33 40/84/33
f 30/59/34 33/58/34 41/79/34 38/64/34
f 43/85/35 42/81/35 45/80/35 44/86/35
f 39/65/10 38/64/10 42/81/10 43/85/10
f 41/79/7 40/82/7 44/86/7 45/80/7
f 40/84/36 39/83/36 43/87/36 44/88/36
f 46/89/37 47/34/37 48/48/37
f 49/33/38 50/47/38 51/49/38
f 54/46/39 55/53/39 56/50/39
f 57/31/40 58/90/40 59/60/40
f 60/42/41 61/32/41 62/43/41
f 63/54/42 64/41/42 65/40/42
f 53/52/43 46/89/43 48/48/43 52/51/43
f 47/34/44 49/33/44 51/49/44 48/48/44
f 50/47/45 54/46/45 56/50/45 51/49/45
f 55/53/46 53/52/46 52/51/46 56/50/46
f 54/46/47 64/41/47 63/54/47 55/53/47
f 46/89/48 58/90/48 57/31/48 47/34/48
f 60/42/49 50/47/49 49/33/49 61/32/49
f 53/91/50 25/37/50 58/36/50 46/92/50
f 68/93/51 80/94/51 81/95/51 73/96/51
f 83/97/52 81/98/52 80/99/52 82/100/52
f 85/101/53 83/97/53 82/100/53 84/102/53
f 77/103/54 85/101/54 84/102/54 76/104/54
f 79/105/55 77/103/55 76/104/55 78/106/55
f 67/107/51 72/108/51 79/109/51 78/110/51
f 76/111/56 84/112/56 69/113/56 66/114/56
f 78/110/57 76/111/57 66/114/57 67/107/57
f 82/115/58 80/94/58 68/93/58 70/116/58
f 84/112/59 82/115/59 70/116/59 69/113/59
f 85/117/60 77/118/60 71/119/60 75/120/60
f 77/118/61 79/109/61 72/108/61 71/119/61
f 81/95/62 83/121/62 74/122/62 73/96/62
f 83/121/63 85/117/63 75/120/63 74/122/63
f 71/119/64 66/114/64 69/113/64 75/120/64
f 72/108/65 67/107/65 66/114/65 71/119/65
f 74/122/66 70/116/66 68/93/66 73/96/66
f 75/120/67 69/113/67 70/116/67 74/122/67
f 101/123/68 97/124/68 96/125/68 102/126/68
f 102/126/69 96/125/69 98/127/69 103/128/69
f 103/128/70 98/127/70 99/129/70 104/130/70
f 104/130/71 99/129/71 100/131/71 105/132/71
f 89/133/72 87/134/72 86/135/72 88/136/72
f 105/132/7 100/131/7 95/137/7 94/138/7
f 101/123/7 86/135/7 87/134/7 97/124/7
f 91/139/73 89/140/73 88/141/73 90/142/73
f 87/134/51 89/143/51 96/125/51 97/124/51
f 89/143/51 91/144/51 98/127/51 96/125/51
f 91/144/51 93/145/51 99/129/51 98/127/51
f 93/145/51 95/137/51 100/131/51 99/129/51
f 88/146/22 86/135/22 101/123/22 102/126/22
f 90/147/22 88/146/22 102/126/22 103/128/22
f 92/148/22 90/147/22 103/128/22 104/130/22
f 94/138/22 92/148/22 104/130/22 105/132/22
f 95/149/74 93/150/74 92/151/74 94/152/74
f 93/150/75 91/139/75 90/142/75 92/151/75
f 106/153/22 107/154/22 109/155/22 108/156/22
f 108/156/10 109/155/10 113/157/10 112/158/10
f 112/158/51 113/157/51 111/159/51 110/160/51
f 110/161/7 111/162/7 107/163/7 106/164/7
f 108/156/5 112/158/5 110/160/5 106/153/5
f 113/157/2 109/155/2 107/154/2 111/159/2
f 129/165/68 125/166/68 124/167/68 130/168/68
f 130/168/69 124/167/69 126/169/69 131/170/69
f 131/170/70 126/169/70 127/171/70 132/172/70
f 132/172/71 127/171/71 128/173/71 133/174/71
f 117/175/72 115/176/72 114/177/72 116/178/72
f 133/174/7 128/173/7 123/179/7 122/180/7
f 129/165/7 114/181/7 115/182/7 125/166/7
f 119/183/73 117/175/73 116/178/73 118/184/73
f 115/182/51 117/185/51 124/167/51 125/166/51
f 117/185/51 119/186/51 126/169/51 124/167/51
f 119/186/51 121/187/51 127/171/51 126/169/51
f 121/187/51 123/179/51 128/173/51 127/171/51
f 116/188/22 114/181/22 129/165/22 130/168/22
f 118/189/22 116/188/22 130/168/22 131/170/22
f 120/190/22 118/189/22 131/170/22 132/172/22
f 122/180/22 120/190/22 132/172/22 133/174/22
f 123/191/74 121/192/74 120/193/74 122/194/74
f 121/192/75 119/183/75 118/184/75 120/193/75
f 134/195/22 135/196/22 137/197/22 136/198/22
f 136/198/10 137/197/10 141/199/10 140/200/10
f 140/200/51 141/199/51 139/201/51 138/202/51
f 138/203/7 139/204/7 135/205/7 134/206/7
f 136/198/5 140/200/5 138/202/5 134/195/5
f 141/199/2 137/197/2 135/196/2 139/201/2
f 222/207/76 143/208/76 145/209/76 223/210/76
f 223/210/77 145/209/77 147/211/77 224/212/77
f 224/213/78 147/214/78 149/215/78 225/216/78
f 225/216/79 149/215/79 151/217/79 226/218/79
f 226/218/80 151/217/80 153/219/80 227/220/80
f 227/220/81 153/219/81 155/221/81 228/222/81
f 153/219/82 151/217/82 162/223/82 163/224/82
f 228/222/83 155/221/83 157/225/83 229/226/83
f 229/226/84 157/225/84 143/208/84 222/207/84
f 152/227/77 154/228/77 236/229/77 235/230/77
f 160/231/85 158/232/85 166/233/85 168/234/85
f 143/208/86 157/225/86 165/235/86 159/236/86
f 145/209/87 143/208/87 159/236/87 158/232/87
f 149/215/88 147/214/88 160/237/88 161/238/88
f 155/221/89 153/219/89 163/224/89 164/239/89
f 151/217/90 149/215/90 161/238/90 162/223/90
f 157/225/91 155/221/91 164/239/91 165/235/91
f 147/211/92 145/209/92 158/232/92 160/231/92
f 167/240/93 173/241/93 181/242/93 175/243/93
f 165/235/94 164/239/94 172/244/94 173/241/94
f 163/224/95 162/223/95 170/245/95 171/246/95
f 161/238/96 160/237/96 168/247/96 169/248/96
f 158/232/97 159/236/97 167/240/97 166/233/97
f 159/236/98 165/235/98 173/241/98 167/240/98
f 164/239/99 163/224/99 171/246/99 172/244/99
f 162/223/100 161/238/100 169/248/100 170/245/100
f 177/249/78 176/250/78 184/251/78 185/252/78
f 172/244/101 171/246/101 179/253/101 180/254/101
f 170/245/102 169/248/102 177/249/102 178/255/102
f 168/234/103 166/233/103 174/256/103 176/257/103
f 173/241/104 172/244/104 180/254/104 181/242/104
f 171/246/105 170/245/105 178/255/105 179/253/105
f 169/248/106 168/247/106 176/250/106 177/249/106
f 166/233/107 167/240/107 175/243/107 174/256/107
f 189/258/108 188/259/108 196/260/108 197/261/108
f 174/256/76 175/243/76 183/262/76 182/263/76
f 175/243/84 181/242/84 189/258/84 183/262/84
f 180/254/81 179/253/81 187/264/81 188/259/81
f 178/255/79 177/249/79 185/252/79 186/265/79
f 176/257/77 174/256/77 182/263/77 184/266/77
f 181/242/83 180/254/83 188/259/83 189/258/83
f 179/253/80 178/255/80 186/265/80 187/264/80
f 194/267/79 193/268/79 209/269/79 210/270/79
f 187/264/109 186/265/109 194/267/109 195/271/109
f 185/252/110 184/251/110 192/272/110 193/268/110
f 182/263/111 183/262/111 191/273/111 190/274/111
f 183/262/112 189/258/112 197/261/112 191/273/112
f 188/259/113 187/264/113 195/271/113 196/260/113
f 186/265/114 185/252/114 193/268/114 194/267/114
f 184/266/115 182/263/115 190/274/115 192/275/115
f 203/276/76 202/277/76 218/278/76 219/279/76
f 192/275/77 190/274/77 206/280/77 208/281/77
f 197/261/83 196/260/83 212/282/83 213/283/83
f 195/271/80 194/267/80 210/270/80 211/284/80
f 193/268/78 192/272/78 208/285/78 209/269/78
f 190/274/76 191/273/76 207/286/76 206/280/76
f 191/273/84 197/261/84 213/283/84 207/286/84
f 196/260/81 195/271/81 211/284/81 212/282/81
f 199/287/51 198/288/51 206/280/51 207/286/51
f 198/288/51 200/289/51 208/281/51 206/280/51
f 200/290/51 201/291/51 209/269/51 208/285/51
f 201/291/51 202/277/51 210/270/51 209/269/51
f 202/277/51 203/276/51 211/284/51 210/270/51
f 203/276/51 204/292/51 212/282/51 211/284/51
f 204/292/51 205/293/51 213/283/51 212/282/51
f 205/293/51 199/287/51 207/286/51 213/283/51
f 214/294/51 215/295/51 221/296/51 220/297/51 219/298/51 218/299/51 217/300/51 216/301/51
f 201/291/83 200/290/83 216/302/83 217/303/83
f 198/288/80 199/287/80 215/304/80 214/305/80
f 199/287/79 205/293/79 221/306/79 215/304/79
f 204/292/77 203/276/77 219/279/77 220/307/77
f 202/277/84 201/291/84 217/303/84 218/278/84
f 200/289/81 198/288/81 214/305/81 216/308/81
f 205/293/78 204/292/78 220/307/78 221/306/78
f 144/309/22 142/310/22 222/207/22 223/210/22
f 146/311/22 144/309/22 223/210/22 224/212/22
f 148/312/22 146/313/22 224/213/22 225/216/22
f 150/314/22 148/312/22 225/216/22 226/218/22
f 152/227/22 150/314/22 226/218/22 227/220/22
f 154/228/22 152/227/22 227/220/22 228/222/22
f 156/315/22 154/228/22 228/222/22 229/226/22
f 142/310/22 156/315/22 229/226/22 222/207/22
f 230/316/22 231/317/22 232/318/22 233/319/22 234/320/22 235/321/22 236/322/22 237/323/22
f 148/312/84 150/314/84 234/324/84 233/325/84
f 144/309/81 146/311/81 232/326/81 231/327/81
f 154/228/78 156/315/78 237/328/78 236/229/78
f 150/314/76 152/227/76 235/230/76 234/324/76
f 146/313/83 148/312/83 233/325/83 232/329/83
f 142/310/80 144/309/80 231/327/80 230/330/80
f 156/315/79 142/310/79 230/330/79 237/328/79
f 238/331/116 239/332/116 241/333/116 240/334/116
f 240/334/117 241/333/117 243/335/117 242/336/117
f 242/337/118 243/335/118 245/338/118 244/339/118
f 244/339/119 245/338/119 247/340/119 246/341/119
f 246/341/120 247/340/120 249/342/120 248/343/120
f 248/343/121 249/342/121 251/344/121 250/345/121
f 241/333/51 239/332/51 253/346/51 251/344/51 249/342/51 247/340/51 245/338/51 243/335/51
f 250/345/122 251/344/122 253/346/122 252/347/122
f 252/347/123 253/346/123 239/332/123 238/331/123
f 238/348/124 240/349/124 242/350/124 244/351/124 246/352/124 248/353/124 250/354/124 252/355/124
f 254/356/76 271/357/76 270/358/76 256/359/76
f 256/359/77 270/358/77 272/360/77 258/361/77
f 258/362/78 272/363/78 273/364/78 260/365/78
f 260/365/79 273/364/79 274/366/79 262/367/79
f 262/367/80 274/366/80 275/368/80 264/369/80
f 264/369/81 275/368/81 276/370/81 266/371/81
f 267/372/125 265/373/125 283/374/125 284/375/125
f 266/371/83 276/370/83 277/376/83 268/377/83
f 268/377/84 277/376/84 271/357/84 254/356/84
f 254/378/22 256/379/22 258/380/22 260/381/22 262/382/22 264/383/22 266/384/22 268/385/22
f 255/386/51 257/387/51 270/358/51 271/357/51
f 257/387/51 259/388/51 272/360/51 270/358/51
f 259/389/51 261/390/51 273/364/51 272/363/51
f 261/390/51 263/391/51 274/366/51 273/364/51
f 263/391/51 265/373/51 275/368/51 274/366/51
f 265/373/51 267/372/51 276/370/51 275/368/51
f 267/372/51 269/392/51 277/376/51 276/370/51
f 269/392/51 255/386/51 271/357/51 277/376/51
f 278/393/51 279/394/51 285/395/51 284/396/51 283/397/51 282/398/51 281/399/51 280/400/51
f 263/391/126 261/390/126 281/401/126 282/402/126
f 259/388/127 257/387/127 278/403/127 280/404/127
f 269/392/128 267/372/128 284/375/128 285/405/128
f 265/373/129 263/391/129 282/402/129 283/374/129
f 261/390/130 259/389/130 280/406/130 281/401/130
f 257/387/131 255/386/131 279/407/131 278/403/131
f 255/386/132 269/392/132 285/405/132 279/407/132
