# Blender 4.2.2 LTS
# www.blender.org
mtllib road sign 2.mtl
o road_sign_2
v -0.019677 13.317344 0.869010
v -0.005354 13.317344 1.079010
v -0.005354 13.674681 0.869010
v -0.015482 13.317344 1.017502
v -0.013624 13.523652 0.990254
v -0.005354 13.570019 1.017502
v -0.015482 13.570019 0.869010
v 0.102411 13.317344 1.079010
v 0.116735 13.317344 0.869010
v 0.102411 13.674681 0.869010
v 0.112539 13.317344 1.017502
v 0.110681 13.523652 0.990254
v 0.112539 13.570019 0.869010
v 0.102411 13.570019 1.017502
v -0.019677 13.317344 -0.710990
v -0.005354 13.674681 -0.710990
v -0.005354 13.317344 -0.920990
v -0.015482 13.570019 -0.710990
v -0.013624 13.523652 -0.832234
v -0.005354 13.570019 -0.859482
v -0.015482 13.317344 -0.859482
v 0.116735 13.317344 -0.710990
v 0.102411 13.317344 -0.920990
v 0.102411 13.674681 -0.710990
v 0.112539 13.317344 -0.859482
v 0.110681 13.523652 -0.832234
v 0.102411 13.570019 -0.859482
v 0.112539 13.570019 -0.710990
v -0.019677 10.628814 0.869010
v -0.005354 10.271477 0.869010
v -0.005354 10.628814 1.079010
v -0.015482 10.376139 0.869010
v -0.013623 10.422505 0.990254
v -0.005354 10.376139 1.017502
v -0.015482 10.628814 1.017502
v 0.116735 10.628814 0.869010
v 0.102412 10.628814 1.079010
v 0.102412 10.271477 0.869010
v 0.112540 10.628814 1.017502
v 0.110681 10.422505 0.990254
v 0.102412 10.376139 1.017502
v 0.112540 10.376139 0.869010
v -0.019677 10.628814 -0.710990
v -0.005354 10.628814 -0.920990
v -0.005354 10.271477 -0.710990
v -0.015482 10.628814 -0.859482
v -0.013623 10.422505 -0.832234
v -0.005354 10.376139 -0.859482
v -0.015482 10.376139 -0.710990
v 0.116735 10.628814 -0.710990
v 0.102412 10.271477 -0.710990
v 0.102412 10.628814 -0.920990
v 0.112540 10.376139 -0.710990
v 0.110681 10.422505 -0.832234
v 0.102412 10.376139 -0.859482
v 0.112540 10.628814 -0.859482
v -0.196926 0.123329 -0.124838
v -0.196926 19.245579 -0.124838
v -0.052783 0.123329 -0.065133
v -0.052784 19.245579 -0.065133
v 0.006922 0.123329 0.079010
v 0.006922 19.245579 0.079010
v -0.052783 0.123329 0.223153
v -0.052784 19.245579 0.223153
v -0.196926 0.123329 0.282858
v -0.196926 19.245579 0.282858
v -0.341069 0.123329 0.223153
v -0.341069 19.245579 0.223153
v -0.400775 0.123329 0.079010
v -0.400775 19.245579 0.079010
v -0.341069 0.123329 -0.065133
v -0.341069 19.245579 -0.065133
v -0.019678 15.848696 1.951961
v 0.116734 15.848696 1.951961
v -0.019677 18.732834 1.951961
v 0.116735 18.732834 1.951961
v -0.019677 15.848696 -1.793941
v 0.116735 15.848696 -1.793941
v -0.019677 18.732834 -1.793941
v 0.116735 18.732834 -1.793941
v -0.019678 14.086091 2.491486
v 0.116734 14.086091 2.491486
v -0.019677 15.494592 2.491486
v 0.116735 15.494592 2.491486
v -0.019677 14.086091 -2.333466
v 0.116735 14.086091 -2.333466
v -0.019677 15.494593 -2.333466
v 0.116735 15.494593 -2.333466
vn -0.0000 -0.0000 1.0000
vn -0.0000 -1.0000 -0.0000
vn 1.0000 -0.0000 -0.0000
vn -0.0000 1.0000 -0.0000
vn -0.0000 -0.0000 -1.0000
vn -0.9996 0.0147 0.0250
vn -0.9823 0.0394 0.1830
vn -0.9918 0.1086 0.0676
vn 0.9823 0.0394 0.1830
vn 0.9996 0.0147 0.0250
vn 0.9918 0.1086 0.0676
vn -0.9996 0.0147 -0.0250
vn -0.9918 0.1086 -0.0676
vn -0.9823 0.0394 -0.1830
vn 0.9996 0.0147 -0.0250
vn 0.9823 0.0394 -0.1830
vn 0.9918 0.1086 -0.0676
vn -0.9996 -0.0147 0.0250
vn -0.9918 -0.1086 0.0676
vn -0.9823 -0.0394 0.1830
vn 0.9996 -0.0147 0.0250
vn 0.9823 -0.0394 0.1830
vn 0.9918 -0.1086 0.0676
vn -0.9996 -0.0147 -0.0250
vn -0.9823 -0.0394 -0.1830
vn -0.9918 -0.1086 -0.0676
vn 0.9996 -0.0147 -0.0250
vn 0.9918 -0.1086 -0.0676
vn 0.9823 -0.0394 -0.1830
vn -0.9999 0.0166 -0.0000
vn -0.9954 0.0963 -0.0000
vn -0.0000 0.2365 0.9716
vn -0.0000 0.8174 0.5761
vn 0.9999 0.0166 -0.0000
vn 0.9954 0.0963 -0.0000
vn -0.0000 0.2365 -0.9716
vn -0.0000 0.8174 -0.5761
vn -0.9996 -0.0000 -0.0282
vn -0.9867 -0.0000 -0.1625
vn 0.9996 -0.0000 -0.0282
vn 0.9867 -0.0000 -0.1625
vn -0.0000 -0.8174 -0.5761
vn -0.0000 -0.2365 -0.9716
vn -0.9999 -0.0166 -0.0000
vn -0.9954 -0.0963 -0.0000
vn 0.9999 -0.0166 -0.0000
vn 0.9954 -0.0963 -0.0000
vn -0.0000 -0.2365 0.9716
vn -0.0000 -0.8174 0.5761
vn -0.9996 -0.0000 0.0282
vn -0.9867 -0.0000 0.1625
vn 0.9996 -0.0000 0.0282
vn 0.9867 -0.0000 0.1625
vn -1.0000 -0.0000 -0.0000
vn 0.3827 -0.0000 -0.9239
vn 0.9239 -0.0000 -0.3827
vn 0.9239 -0.0000 0.3827
vn 0.3827 -0.0000 0.9239
vn -0.3827 -0.0000 0.9239
vn -0.9239 -0.0000 0.3827
vn -0.9239 -0.0000 -0.3827
vn -0.3827 -0.0000 -0.9239
vt 0.395888 0.582297
vt 0.243680 0.581817
vt 0.247419 0.431054
vt 0.391804 0.432279
vt 0.819557 0.816529
vt 0.969015 0.817835
vt 0.968902 0.967286
vt 0.819445 0.965980
vt 0.213024 0.068240
vt 0.160794 0.211302
vt 0.017332 0.160239
vt 0.069563 0.017177
vt 0.391697 0.402534
vt 0.247578 0.401285
vt 0.247934 0.253073
vt 0.392052 0.254322
vt 0.392211 0.224552
vt 0.247826 0.223328
vt 0.243743 0.073309
vt 0.395951 0.073790
vt 0.165286 0.965549
vt 0.180787 0.966335
vt 0.178427 0.978755
vt 0.165975 0.980936
vt 0.391130 0.417470
vt 0.403782 0.417424
vt 0.407325 0.430217
vt 0.407416 0.404471
vt 0.231610 0.428887
vt 0.235429 0.415950
vt 0.248110 0.416060
vt 0.011328 0.174869
vt 0.000173 0.168359
vt 0.002338 0.155628
vt 0.232074 0.403068
vt 0.015836 0.965436
vt 0.015084 0.980936
vt 0.002630 0.978578
vt 0.000452 0.966091
vt 0.391521 0.239547
vt 0.404202 0.239657
vt 0.407556 0.252538
vt 0.408020 0.226720
vt 0.175413 0.217341
vt 0.168912 0.228461
vt 0.156213 0.226310
vt 0.248501 0.238137
vt 0.235849 0.238183
vt 0.232305 0.225390
vt 0.232215 0.251136
vt 0.166592 0.816091
vt 0.167344 0.800591
vt 0.179798 0.802949
vt 0.181976 0.815436
vt 0.818658 0.981480
vt 0.806239 0.979120
vt 0.804057 0.966668
vt 0.411612 0.582756
vt 0.409447 0.595487
vt 0.396767 0.597920
vt 0.054944 0.011138
vt 0.061445 0.000018
vt 0.074143 0.002169
vt 0.242812 0.597607
vt 0.230119 0.595091
vt 0.228019 0.582326
vt 0.984402 0.968038
vt 0.982044 0.980492
vt 0.969558 0.982669
vt 0.017142 0.815978
vt 0.001642 0.815192
vt 0.004001 0.802772
vt 0.016453 0.800591
vt 0.396819 0.058000
vt 0.409512 0.060515
vt 0.411612 0.073281
vt 0.804057 0.815777
vt 0.806415 0.803323
vt 0.818902 0.801146
vt 0.219029 0.053610
vt 0.230184 0.060120
vt 0.228019 0.072851
vt 0.969802 0.802335
vt 0.982221 0.804694
vt 0.984402 0.817147
vt 0.242864 0.057686
vt 0.809359 0.448445
vt 0.614059 0.448445
vt 0.614059 0.373707
vt 0.809359 0.373707
vt 0.614059 0.298969
vt 0.809359 0.298969
vt 0.614059 0.224231
vt 0.809359 0.224231
vt 0.614059 0.149493
vt 0.809359 0.149493
vt 0.614059 0.074755
vt 0.809359 0.074755
vt 0.614059 0.000018
vt 0.809359 0.000018
vt 0.863749 0.001543
vt 0.938487 0.001543
vt 0.991334 0.054390
vt 0.991334 0.129128
vt 0.938487 0.181976
vt 0.863749 0.181976
vt 0.810901 0.129128
vt 0.810901 0.054390
vt 0.809359 0.597920
vt 0.614059 0.597920
vt 0.614059 0.523182
vt 0.809359 0.523182
vt 0.938487 0.365684
vt 0.863749 0.365685
vt 0.810901 0.312837
vt 0.810901 0.238099
vt 0.863749 0.185251
vt 0.938487 0.185251
vt 0.991334 0.238099
vt 0.991334 0.312837
vt 0.000018 0.798960
vt 0.000018 0.599659
vt 0.199318 0.599659
vt 0.199319 0.798960
vt 0.398619 0.599659
vt 0.398619 0.798960
vt 0.597920 0.599659
vt 0.597920 0.798960
vt 0.599659 0.798960
vt 0.599659 0.599659
vt 0.798960 0.599659
vt 0.798960 0.798960
vt 0.402086 0.800699
vt 0.601386 0.800699
vt 0.601386 1.000000
vt 0.402086 1.000000
vt 0.800699 0.599659
vt 1.000000 0.599659
vt 1.000000 0.798960
vt 0.800699 0.798960
vt 0.412484 0.000018
vt 0.611785 0.000018
vt 0.611785 0.199318
vt 0.412484 0.199319
vt 0.611785 0.398619
vt 0.412484 0.398619
vt 0.611785 0.597920
vt 0.412484 0.597920
vt 0.000006 0.429809
vt 0.000006 0.230508
vt 0.199307 0.230508
vt 0.199307 0.429809
vt 0.201046 0.800699
vt 0.400347 0.800699
vt 0.400347 1.000000
vt 0.201046 1.000000
vt 0.603125 0.800699
vt 0.802426 0.800699
vt 0.802426 1.000000
vt 0.603125 1.000000
s 0
usemtl Материал
f 31/1/1 37/2/1 8/3/1 2/4/1
f 45/5/2 51/6/2 38/7/2 30/8/2
f 50/9/3 22/10/3 9/11/3 36/12/3
f 3/13/4 10/14/4 24/15/4 16/16/4
f 17/17/5 23/18/5 52/19/5 44/20/5
f 1/21/6 4/22/6 5/23/6 7/24/6
f 2/4/7 6/25/7 5/26/7 4/27/7
f 3/13/8 7/28/8 5/26/8 6/25/8
f 8/3/9 11/29/9 12/30/9 14/31/9
f 9/11/10 13/32/10 12/33/10 11/34/10
f 10/14/11 14/31/11 12/30/11 13/35/11
f 15/36/12 18/37/12 19/38/12 21/39/12
f 16/16/13 20/40/13 19/41/13 18/42/13
f 17/17/14 21/43/14 19/41/14 20/40/14
f 22/10/15 25/44/15 26/45/15 28/46/15
f 23/18/16 27/47/16 26/48/16 25/49/16
f 24/15/17 28/50/17 26/48/17 27/47/17
f 29/51/18 32/52/18 33/53/18 35/54/18
f 30/8/19 34/55/19 33/56/19 32/57/19
f 31/1/20 35/58/20 33/59/20 34/60/20
f 36/12/21 39/61/21 40/62/21 42/63/21
f 37/2/22 41/64/22 40/65/22 39/66/22
f 38/7/23 42/67/23 40/68/23 41/69/23
f 43/70/24 46/71/24 47/72/24 49/73/24
f 44/20/25 48/74/25 47/75/25 46/76/25
f 45/5/26 49/77/26 47/78/26 48/79/26
f 50/9/27 53/80/27 54/81/27 56/82/27
f 51/6/28 55/83/28 54/84/28 53/85/28
f 52/19/29 56/82/29 54/81/29 55/86/29
f 15/36/30 1/21/30 7/24/30 18/37/30
f 18/42/31 7/28/31 3/13/31 16/16/31
f 2/4/32 8/3/32 14/31/32 6/25/32
f 6/25/33 14/31/33 10/14/33 3/13/33
f 9/11/34 22/10/34 28/46/34 13/32/34
f 13/35/35 28/50/35 24/15/35 10/14/35
f 23/18/36 17/17/36 20/40/36 27/47/36
f 27/47/37 20/40/37 16/16/37 24/15/37
f 43/70/38 15/36/38 21/39/38 46/71/38
f 46/76/39 21/43/39 17/17/39 44/20/39
f 22/10/40 50/9/40 56/82/40 25/44/40
f 25/49/41 56/82/41 52/19/41 23/18/41
f 51/6/42 45/5/42 48/79/42 55/83/42
f 55/86/43 48/74/43 44/20/43 52/19/43
f 29/51/44 43/70/44 49/73/44 32/52/44
f 32/57/45 49/77/45 45/5/45 30/8/45
f 50/9/46 36/12/46 42/63/46 53/80/46
f 53/85/47 42/67/47 38/7/47 51/6/47
f 37/2/48 31/1/48 34/60/48 41/64/48
f 41/69/49 34/55/49 30/8/49 38/7/49
f 1/21/50 29/51/50 35/54/50 4/22/50
f 4/27/51 35/58/51 31/1/51 2/4/51
f 36/12/52 9/11/52 11/34/52 39/61/52
f 39/66/53 11/29/53 8/3/53 37/2/53
f 15/36/54 43/70/54 29/51/54 1/21/54
f 57/87/55 58/88/55 60/89/55 59/90/55
f 59/90/56 60/89/56 62/91/56 61/92/56
f 61/92/57 62/91/57 64/93/57 63/94/57
f 63/94/58 64/93/58 66/95/58 65/96/58
f 65/96/59 66/95/59 68/97/59 67/98/59
f 67/98/60 68/97/60 70/99/60 69/100/60
f 60/101/4 58/102/4 72/103/4 70/104/4 68/105/4 66/106/4 64/107/4 62/108/4
f 69/109/61 70/110/61 72/111/61 71/112/61
f 71/112/62 72/111/62 58/88/62 57/87/62
f 57/113/2 59/114/2 61/115/2 63/116/2 65/117/2 67/118/2 69/119/2 71/120/2
f 73/121/1 74/122/1 76/123/1 75/124/1
f 75/124/4 76/123/4 80/125/4 79/126/4
f 79/126/5 80/125/5 78/127/5 77/128/5
f 77/129/2 78/130/2 74/131/2 73/132/2
f 75/133/54 79/134/54 77/135/54 73/136/54
f 80/137/3 76/138/3 74/139/3 78/140/3
f 81/141/1 82/142/1 84/143/1 83/144/1
f 83/144/4 84/143/4 88/145/4 87/146/4
f 87/146/5 88/145/5 86/147/5 85/148/5
f 85/149/2 86/150/2 82/151/2 81/152/2
f 83/153/54 87/154/54 85/155/54 81/156/54
f 88/157/3 84/158/3 82/159/3 86/160/3
