# Blender 4.2.2 LTS
# www.blender.org
mtllib table.mtl
o table
v -2.640589 3.686596 -6.140582
v -2.640589 4.052606 -6.140582
v 2.739834 3.686596 -6.140582
v 2.739834 4.052606 -6.140582
v -2.640589 3.686596 5.883324
v -2.640589 4.052606 5.883324
v 2.739833 3.686596 5.883324
v 2.739833 4.052606 5.883324
v 2.150228 3.454127 5.062300
v 2.150228 3.698610 5.062300
v -2.050983 3.454127 5.062300
v -2.050983 3.698610 5.062300
v 2.150228 3.454127 5.536379
v 2.150228 3.698610 5.536379
v -2.050983 3.454127 5.536379
v -2.050983 3.698610 5.536379
v -2.050983 3.454127 -5.319555
v -2.050983 3.698610 -5.319555
v 2.150228 3.454127 -5.319555
v 2.150228 3.698610 -5.319555
v -2.050983 3.454127 -5.793634
v -2.050983 3.698610 -5.793634
v 2.150228 3.454127 -5.793634
v 2.150228 3.698610 -5.793634
v -2.050983 3.454127 -5.793634
v -2.050983 3.698610 -5.793634
v 2.150228 3.454127 -5.793634
v 2.150228 3.698610 -5.793634
v -2.050983 3.454127 -5.319555
v -2.050983 3.698610 -5.319555
v 2.150228 3.454127 -5.319555
v 2.150228 3.698610 -5.319555
v 2.150228 3.454127 -5.319555
v 2.150228 3.698610 -5.319555
v -2.050983 3.454127 -5.319555
v -2.050983 3.698610 -5.319555
v 2.150228 3.454127 -5.793634
v 2.150228 3.698610 -5.793634
v -2.050983 3.454127 -5.793634
v -2.050983 3.698610 -5.793634
v 2.150228 3.454127 -5.793634
v 2.150228 3.698610 -5.793634
v -2.050983 3.454127 -5.793634
v -2.050983 3.698610 -5.793634
v 2.150228 3.454127 -5.319555
v 2.150228 3.698610 -5.319555
v -2.050983 3.454127 -5.319555
v -2.050983 3.698610 -5.319555
v 2.091180 3.475278 -5.553071
v 2.091180 3.706945 -5.553071
v 2.369565 3.475278 -5.553071
v 2.369565 3.706945 -5.553071
v 2.091179 3.475278 5.295815
v 2.091179 3.706945 5.295815
v 2.369565 3.475278 5.295815
v 2.369565 3.706945 5.295815
v -1.991933 3.475278 -5.553071
v -1.991933 3.706945 -5.553071
v -2.270319 3.475278 -5.553071
v -2.270319 3.706945 -5.553071
v -1.991934 3.475278 5.295815
v -1.991934 3.706945 5.295815
v -2.270319 3.475278 5.295815
v -2.270319 3.706945 5.295815
v -0.164652 0.558026 -5.553072
v -0.164652 0.759888 -5.553072
v 0.263897 0.558026 -5.553072
v 0.263897 0.759888 -5.553072
v -0.164653 0.558026 5.295815
v -0.164653 0.759888 5.295815
v 0.263897 0.558026 5.295815
v 0.263897 0.759888 5.295815
v -2.050983 0.536599 -5.319553
v -2.050983 0.781082 -5.319553
v 2.150228 0.536599 -5.319553
v 2.150228 0.781082 -5.319553
v -2.050983 0.536599 -5.793632
v -2.050983 0.781082 -5.793632
v 2.150228 0.536599 -5.793632
v 2.150228 0.781082 -5.793632
v -2.050983 0.536599 5.062296
v -2.050983 0.781082 5.062296
v 2.150228 0.536599 5.062296
v 2.150228 0.781082 5.062296
v -2.050983 0.536599 5.536376
v -2.050983 0.781082 5.536376
v 2.150228 0.536599 5.536376
v 2.150228 0.781082 5.536376
v -2.278780 0.031225 5.058143
v -2.278780 3.946919 5.058143
v -1.979299 0.031225 5.058143
v -1.979299 3.946919 5.058143
v -2.278780 0.031225 5.537522
v -2.278780 3.946919 5.537522
v -1.979299 0.031225 5.537522
v -1.979299 3.946919 5.537522
v -2.278779 0.031225 -5.315397
v -2.278779 3.946919 -5.315397
v -1.979299 0.031225 -5.315397
v -1.979299 3.946919 -5.315397
v -2.278779 0.031225 -5.794777
v -2.278779 3.946919 -5.794777
v -1.979299 0.031225 -5.794777
v -1.979299 3.946919 -5.794777
v 2.378026 0.031225 5.058142
v 2.378026 3.946919 5.058142
v 2.078545 0.031225 5.058142
v 2.078545 3.946919 5.058142
v 2.378026 0.031225 5.537522
v 2.378026 3.946919 5.537522
v 2.078545 0.031225 5.537522
v 2.078545 3.946919 5.537522
v 2.378026 0.031225 -5.315397
v 2.378026 3.946919 -5.315397
v 2.078546 0.031225 -5.315397
v 2.078546 3.946919 -5.315397
v 2.378026 0.031225 -5.794777
v 2.378026 3.946919 -5.794777
v 2.078546 0.031225 -5.794777
v 2.078546 3.946919 -5.794777
vn -0.0000 -0.0000 -1.0000
vn 1.0000 -0.0000 -0.0000
vn -0.0000 -0.0000 1.0000
vn -1.0000 -0.0000 -0.0000
vn -0.0000 -1.0000 -0.0000
vn -0.0000 1.0000 -0.0000
vt 0.746722 0.674464
vt 0.623285 0.607123
vt 0.555944 0.483686
vt 0.767971 0.462437
vt 0.138334 0.705421
vt 0.003882 0.705421
vt 0.003882 0.570969
vt 0.138334 0.570969
vt 0.460700 0.769708
vt 0.460700 0.625986
vt 0.575064 0.655344
vt 0.604422 0.769708
vt 0.272786 0.570969
vt 0.272786 0.705421
vt 0.504641 0.778780
vt 0.504641 0.833995
vt 0.449426 0.833995
vt 0.449426 0.778780
vt 0.841330 0.002891
vt 0.896545 0.002891
vt 0.896545 0.058106
vt 0.841330 0.058106
vt 0.559856 0.833995
vt 0.559856 0.778780
vt 0.615072 0.778780
vt 0.615072 0.833995
vt 0.896545 0.168537
vt 0.841330 0.168537
vt 0.841330 0.113321
vt 0.896545 0.113321
vt 0.224136 0.823955
vt 0.168921 0.823955
vt 0.168921 0.768739
vt 0.224136 0.768739
vt 0.113706 0.823955
vt 0.113706 0.768739
vt 0.058490 0.823955
vt 0.058490 0.768739
vt 0.003275 0.823955
vt 0.003275 0.768739
vt 0.113706 0.879170
vt 0.058490 0.879170
vt 0.058490 0.713524
vt 0.113706 0.713524
vt 0.723565 0.003275
vt 0.778780 0.003275
vt 0.778780 0.058490
vt 0.723565 0.058490
vt 0.778780 0.113706
vt 0.723565 0.113706
vt 0.778780 0.168921
vt 0.723565 0.168921
vt 0.778780 0.224136
vt 0.723565 0.224136
vt 0.668350 0.113706
vt 0.668350 0.168921
vt 0.833995 0.113706
vt 0.833995 0.168921
vt 0.637459 0.810055
vt 0.637459 0.754840
vt 0.692674 0.754840
vt 0.692674 0.810055
vt 0.747890 0.754840
vt 0.747890 0.810055
vt 0.803105 0.754840
vt 0.803105 0.810055
vt 0.858320 0.754840
vt 0.858320 0.810055
vt 0.747890 0.865270
vt 0.803105 0.865270
vt 0.747890 0.699624
vt 0.803105 0.699624
vt 0.393057 0.622021
vt 0.393057 0.566806
vt 0.448273 0.566806
vt 0.448273 0.622021
vt 0.587656 0.340932
vt 0.642871 0.340932
vt 0.642871 0.396148
vt 0.587656 0.396148
vt 0.337842 0.566806
vt 0.337842 0.622021
vt 0.282626 0.622022
vt 0.282626 0.566806
vt 0.642871 0.413907
vt 0.642871 0.469122
vt 0.587656 0.469122
vt 0.587656 0.413907
vt 0.177224 0.834380
vt 0.177224 0.889595
vt 0.122009 0.889595
vt 0.122009 0.834380
vt 0.423079 0.003175
vt 0.423079 0.113605
vt 0.312648 0.113605
vt 0.312648 0.003175
vt 0.270848 0.561209
vt 0.160418 0.561209
vt 0.160418 0.450779
vt 0.270848 0.450779
vt 0.312648 0.334467
vt 0.312648 0.224036
vt 0.423079 0.224036
vt 0.423079 0.334467
vt 0.381279 0.450779
vt 0.491710 0.450779
vt 0.491710 0.561209
vt 0.381279 0.561209
vt 0.430798 0.003175
vt 0.541228 0.003175
vt 0.541228 0.113605
vt 0.430798 0.113605
vt 0.548947 0.224036
vt 0.659378 0.224036
vt 0.659378 0.334467
vt 0.548947 0.334467
vt 0.541228 0.334467
vt 0.430798 0.334467
vt 0.430798 0.224036
vt 0.541228 0.224036
vt 0.659378 0.113605
vt 0.548947 0.113606
vt 0.548947 0.003175
vt 0.659378 0.003175
vt 0.150293 0.003075
vt 0.150293 0.150316
vt 0.003052 0.150316
vt 0.003052 0.003075
vt 0.157689 0.150316
vt 0.157689 0.003075
vt 0.304930 0.003075
vt 0.304930 0.150316
vt 0.003052 0.444798
vt 0.003052 0.297557
vt 0.150293 0.297557
vt 0.150293 0.444798
vt 0.304930 0.297557
vt 0.304930 0.444798
vt 0.157689 0.444798
vt 0.157689 0.297557
vt 0.877433 0.234360
vt 0.877433 0.337666
vt 0.795230 0.316563
vt 0.774127 0.234360
vt 0.808972 0.439949
vt 0.760569 0.351224
vt 0.656571 0.455222
vt 0.671844 0.302821
vt 0.772103 0.572292
vt 0.868745 0.572292
vt 0.868745 0.668934
vt 0.772103 0.668934
vt 0.868745 0.475650
vt 0.772103 0.475650
vt 0.234361 0.880908
vt 0.234361 0.777602
vt 0.316564 0.798705
vt 0.337666 0.880908
vt 0.351224 0.764044
vt 0.439949 0.812447
vt 0.302821 0.675319
vt 0.455222 0.660046
vt 0.410705 0.341206
vt 0.507347 0.341206
vt 0.507347 0.437848
vt 0.410705 0.437848
vt 0.314063 0.437848
vt 0.314063 0.341206
vt 0.904880 0.407371
vt 0.918949 0.462172
vt 0.850079 0.462172
vt 0.850079 0.393302
vt 0.941720 0.743646
vt 0.877292 0.743646
vt 0.877292 0.679218
vt 0.941720 0.679218
vt 0.895719 0.325114
vt 0.997320 0.314931
vt 0.987137 0.416532
vt 0.927988 0.384263
vt 0.812864 0.743646
vt 0.812864 0.679218
vt 0.637307 0.911243
vt 0.651375 0.966045
vt 0.582505 0.966045
vt 0.582505 0.897175
vt 0.877292 0.475791
vt 0.941720 0.475791
vt 0.941720 0.540219
vt 0.877292 0.540219
vt 0.719564 0.920405
vt 0.660414 0.888136
vt 0.628145 0.828986
vt 0.729746 0.818804
vt 0.941720 0.604647
vt 0.877292 0.604647
vt 0.502933 0.932093
vt 0.557734 0.918024
vt 0.557734 0.986894
vt 0.488864 0.986894
vt 0.003193 0.517772
vt 0.003193 0.453344
vt 0.067621 0.453344
vt 0.067621 0.517772
vt 0.512094 0.849836
vt 0.479825 0.908985
vt 0.420676 0.941254
vt 0.410493 0.839653
vt 0.132049 0.453344
vt 0.132049 0.517772
vt 0.893868 0.859705
vt 0.879799 0.804904
vt 0.948670 0.804903
vt 0.948670 0.873774
vt 0.515894 0.472597
vt 0.515894 0.408169
vt 0.580322 0.408169
vt 0.580322 0.472597
vt 0.903030 0.941962
vt 0.801429 0.952145
vt 0.811611 0.850544
vt 0.870761 0.882812
vt 0.515894 0.343741
vt 0.580322 0.343741
s 0
usemtl Материал.001
f 1/1/1 2/2/1 4/3/1 3/4/1
f 3/5/2 4/6/2 8/7/2 7/8/2
f 7/9/3 8/10/3 6/11/3 5/12/3
f 5/12/4 6/11/4 2/2/4 1/1/4
f 3/5/5 7/8/5 5/13/5 1/14/5
f 8/10/6 4/3/6 2/2/6 6/11/6
f 9/15/1 11/16/1 12/17/1 10/18/1
f 11/19/4 15/20/4 16/21/4 12/22/4
f 15/23/3 13/24/3 14/25/3 16/26/3
f 13/27/2 9/28/2 10/29/2 14/30/2
f 11/16/5 9/15/5 13/24/5 15/23/5
f 16/21/6 14/30/6 10/29/6 12/22/6
f 17/31/3 19/32/3 20/33/3 18/34/3
f 19/32/2 23/35/2 24/36/2 20/33/2
f 23/35/1 21/37/1 22/38/1 24/36/1
f 21/37/4 17/39/4 18/40/4 22/38/4
f 19/41/5 17/42/5 21/37/5 23/35/5
f 24/36/6 22/38/6 18/43/6 20/44/6
f 25/45/1 26/46/1 28/47/1 27/48/1
f 27/48/2 28/47/2 32/49/2 31/50/2
f 31/50/3 32/49/3 30/51/3 29/52/3
f 29/52/4 30/51/4 26/53/4 25/54/4
f 27/55/5 31/50/5 29/52/5 25/56/5
f 32/49/6 28/57/6 26/58/6 30/51/6
f 33/59/3 34/60/3 36/61/3 35/62/3
f 35/62/4 36/61/4 40/63/4 39/64/4
f 39/64/1 40/63/1 38/65/1 37/66/1
f 37/66/2 38/65/2 34/67/2 33/68/2
f 35/69/5 39/64/5 37/66/5 33/70/5
f 40/63/6 36/71/6 34/72/6 38/65/6
f 41/73/1 43/74/1 44/75/1 42/76/1
f 43/77/4 47/78/4 48/79/4 44/80/4
f 47/81/3 45/82/3 46/83/3 48/84/3
f 45/85/2 41/86/2 42/87/2 46/88/2
f 43/74/5 41/73/5 45/82/5 47/81/5
f 48/89/6 46/90/6 42/91/6 44/92/6
f 49/93/1 50/94/1 52/95/1 51/96/1
f 51/97/2 52/98/2 56/99/2 55/100/2
f 55/101/3 56/102/3 54/103/3 53/104/3
f 53/105/4 54/106/4 50/107/4 49/108/4
f 51/97/5 55/100/5 53/105/5 49/108/5
f 56/102/6 52/95/6 50/94/6 54/103/6
f 57/109/1 59/110/1 60/111/1 58/112/1
f 59/113/4 63/114/4 64/115/4 60/116/4
f 63/117/3 61/118/3 62/119/3 64/120/3
f 61/121/2 57/122/2 58/123/2 62/124/2
f 59/113/5 57/122/5 61/121/5 63/114/5
f 64/120/6 62/119/6 58/112/6 60/111/6
f 65/125/1 66/126/1 68/127/1 67/128/1
f 67/129/2 68/130/2 72/131/2 71/132/2
f 71/133/3 72/134/3 70/135/3 69/136/3
f 69/137/4 70/138/4 66/139/4 65/140/4
f 67/129/5 71/132/5 69/137/5 65/140/5
f 72/134/6 68/127/6 66/126/6 70/135/6
f 73/141/3 75/142/3 76/143/3 74/144/3
f 75/142/2 79/145/2 80/146/2 76/143/2
f 79/145/1 77/147/1 78/148/1 80/146/1
f 77/149/4 73/150/4 74/151/4 78/152/4
f 75/153/5 73/150/5 77/149/5 79/154/5
f 80/146/6 78/148/6 74/144/6 76/143/6
f 81/155/1 82/156/1 84/157/1 83/158/1
f 83/158/2 84/157/2 88/159/2 87/160/2
f 87/160/3 88/159/3 86/161/3 85/162/3
f 85/163/4 86/164/4 82/165/4 81/166/4
f 83/167/5 87/168/5 85/163/5 81/166/5
f 88/159/6 84/157/6 82/156/6 86/161/6
f 89/169/1 90/170/1 92/171/1 91/172/1
f 91/173/2 92/174/2 96/175/2 95/176/2
f 95/177/3 96/178/3 94/179/3 93/180/3
f 93/180/4 94/179/4 90/170/4 89/169/4
f 91/172/5 95/177/5 93/180/5 89/169/5
f 96/175/6 92/174/6 90/181/6 94/182/6
f 97/183/3 99/184/3 100/185/3 98/186/3
f 99/187/2 103/188/2 104/189/2 100/190/2
f 103/191/1 101/192/1 102/193/1 104/194/1
f 101/192/4 97/183/4 98/186/4 102/193/4
f 99/184/5 97/183/5 101/192/5 103/191/5
f 104/189/6 102/195/6 98/196/6 100/190/6
f 105/197/1 107/198/1 108/199/1 106/200/1
f 107/201/4 111/202/4 112/203/4 108/204/4
f 111/205/3 109/206/3 110/207/3 112/208/3
f 109/206/2 105/197/2 106/200/2 110/207/2
f 107/198/5 105/197/5 109/206/5 111/205/5
f 112/203/6 110/209/6 106/210/6 108/204/6
f 113/211/3 114/212/3 116/213/3 115/214/3
f 115/215/4 116/216/4 120/217/4 119/218/4
f 119/219/1 120/220/1 118/221/1 117/222/1
f 117/222/2 118/221/2 114/212/2 113/211/2
f 115/214/5 119/219/5 117/222/5 113/211/5
f 120/217/6 116/216/6 114/223/6 118/224/6
