# Blender 4.2.2 LTS
# www.blender.org
mtllib table lamp.mtl
o table_lamp
v 0.789468 0.120697 0.281063
v 0.789468 0.246335 0.281063
v 0.603726 0.120697 0.729485
v 0.603726 0.246335 0.729485
v 0.155304 0.120697 0.915227
v 0.155304 0.246335 0.915227
v -0.293117 0.120697 0.729485
v -0.293117 0.246335 0.729485
v -0.478860 0.120697 0.281063
v -0.478860 0.246335 0.281063
v -0.293117 0.120697 -0.167359
v -0.293117 0.246335 -0.167359
v 0.155304 0.120697 -0.353101
v 0.155304 0.246335 -0.353101
v 0.603726 0.120697 -0.167358
v 0.603726 0.246335 -0.167358
v 0.283269 3.935653 -0.849951
v 0.205793 4.178972 -0.595668
v 0.247692 3.873597 -0.790570
v 0.192909 4.156498 -0.574163
v 0.161803 3.847893 -0.765974
v 0.161803 4.147188 -0.565255
v 0.075913 3.873597 -0.790570
v 0.130697 4.156497 -0.574163
v 0.040336 3.935653 -0.849951
v 0.117812 4.178972 -0.595668
v 0.075913 3.997710 -0.909331
v 0.130697 4.201447 -0.617173
v 0.161803 4.023415 -0.933928
v 0.161803 4.210755 -0.626081
v 0.247692 3.997710 -0.909331
v 0.192909 4.201447 -0.617173
v 0.252698 4.069402 -0.578701
v 0.290349 4.135076 -0.641543
v 0.161803 4.042199 -0.552671
v 0.070907 4.069402 -0.578701
v 0.033257 4.135076 -0.641543
v 0.070907 4.200748 -0.704384
v 0.161803 4.227951 -0.730414
v 0.252698 4.200748 -0.704384
v 0.199073 4.108148 -0.615776
v 0.214511 4.135076 -0.641543
v 0.161803 4.096993 -0.605103
v 0.124533 4.108148 -0.615776
v 0.109095 4.135076 -0.641543
v 0.124533 4.162004 -0.667310
v 0.161803 4.173158 -0.677983
v 0.199073 4.162004 -0.667310
v 0.306027 3.935653 -0.849951
v 0.263785 3.861970 -0.779445
v 0.161803 3.831449 -0.750240
v 0.059820 3.861970 -0.779445
v 0.017578 3.935653 -0.849951
v 0.059820 4.009337 -0.920457
v 0.161803 4.039858 -0.949662
v 0.263785 4.009337 -0.920457
v 0.305518 3.890034 -0.897627
v 0.263425 3.816610 -0.827369
v 0.161803 3.786197 -0.798268
v 0.060180 3.816610 -0.827369
v 0.018087 3.890034 -0.897627
v 0.060180 3.963457 -0.967884
v 0.161803 3.993870 -0.996986
v 0.263425 3.963457 -0.967884
v 0.203104 3.443432 -1.364353
v 0.191007 3.422331 -1.344163
v 0.161803 3.413591 -1.335800
v 0.132598 3.422331 -1.344163
v 0.120501 3.443432 -1.364353
v 0.132598 3.464532 -1.384544
v 0.161803 3.473273 -1.392908
v 0.191007 3.464532 -1.384544
v 0.489030 3.652011 -1.146375
v 0.393187 3.819190 -1.306344
v 0.161803 3.888437 -1.372606
v -0.069582 3.819190 -1.306344
v -0.165424 3.652011 -1.146375
v -0.069582 3.484833 -0.986405
v 0.161803 3.415586 -0.920144
v 0.393187 3.484833 -0.986405
v 0.345809 3.920463 -1.131978
v -0.022203 3.920463 -1.131978
v -0.022203 3.654569 -0.877550
v 0.345809 3.654569 -0.877550
v 0.422027 3.787516 -1.004764
v 0.161803 3.975531 -1.184672
v -0.098421 3.787516 -1.004764
v 0.161803 3.599501 -0.824856
v 0.380326 3.512282 -1.292401
v 0.161803 3.670168 -1.443479
v -0.056721 3.512282 -1.292401
v 0.161803 3.354396 -1.141323
v 0.316322 3.623924 -1.399230
v 0.007283 3.623924 -1.399229
v 0.007283 3.400639 -1.185573
v 0.316322 3.400639 -1.185573
v 0.370242 3.734859 -1.361286
v -0.046637 3.734859 -1.361286
v -0.046637 3.433659 -1.073074
v 0.370242 3.433659 -1.073074
v 0.456580 3.584259 -1.217180
v 0.161803 3.797240 -1.420977
v -0.132975 3.584259 -1.217180
v 0.161803 3.371279 -1.013383
v 0.471844 3.723989 -1.071154
v 0.161803 3.947998 -1.285503
v -0.148239 3.723989 -1.071154
v 0.161803 3.499980 -0.856804
v 0.381035 3.882387 -1.222722
v -0.057430 3.882387 -1.222722
v -0.057430 3.565591 -0.919585
v 0.381035 3.565591 -0.919585
v 0.303101 3.940865 -1.048883
v 0.020504 3.940865 -1.048883
v 0.020504 3.736685 -0.853508
v 0.303101 3.736685 -0.853508
v 0.361628 3.838775 -0.951195
v 0.161803 3.983151 -1.089346
v -0.038023 3.838775 -0.951195
v 0.161803 3.694398 -0.813044
v 0.314420 3.477857 -1.328377
v 0.161803 3.588125 -1.433891
v 0.009185 3.477857 -1.328377
v 0.161803 3.367589 -1.222864
v 0.269720 3.555828 -1.402987
v 0.053886 3.555828 -1.402987
v 0.053886 3.399885 -1.253768
v 0.269720 3.399885 -1.253768
v 0.211186 0.172168 0.647934
v 0.194818 0.172168 0.687448
v 0.155304 0.172168 0.703815
v 0.115790 0.172168 0.687448
v 0.099423 0.172168 0.647934
v 0.115790 0.172168 0.608420
v 0.155304 0.172168 0.592053
v 0.194818 0.172168 0.608420
v 0.211186 2.516011 0.647934
v 0.194818 2.516011 0.687448
v 0.155304 2.516011 0.703815
v 0.115790 2.516011 0.687448
v 0.099423 2.516011 0.647934
v 0.115790 2.516011 0.608420
v 0.155304 2.516011 0.592053
v 0.194818 2.516011 0.608420
v 0.211186 2.827221 0.646612
v 0.194819 2.827221 0.686126
v 0.155305 2.827221 0.702493
v 0.115790 2.827221 0.686126
v 0.099423 2.827221 0.646612
v 0.115790 2.827221 0.607098
v 0.155305 2.827221 0.590731
v 0.194819 2.827221 0.607098
v 0.211220 3.211137 0.595451
v 0.194853 3.229245 0.630572
v 0.155339 3.236745 0.645119
v 0.115825 3.229245 0.630572
v 0.099458 3.211137 0.595451
v 0.115825 3.193029 0.560330
v 0.155339 3.185529 0.545783
v 0.194853 3.193029 0.560330
v 0.200575 4.103155 -0.603051
v 0.184208 4.128563 -0.572789
v 0.144694 4.139088 -0.560254
v 0.105180 4.128563 -0.572789
v 0.088812 4.103155 -0.603051
v 0.105180 4.077747 -0.633313
v 0.144694 4.067223 -0.645848
v 0.184208 4.077747 -0.633313
v 0.152679 3.557913 0.375734
v 0.192193 3.544484 0.366378
v 0.096798 3.512062 0.343791
v 0.113165 3.544484 0.366378
v 0.152679 3.466211 0.311847
v 0.113165 3.479640 0.321203
v 0.208560 3.512062 0.343791
v 0.192193 3.479640 0.321203
v 0.154009 3.414837 0.530084
v 0.098128 3.381362 0.488679
v 0.154009 3.347888 0.447274
v 0.209890 3.381362 0.488679
v 0.193523 3.405032 0.517957
v 0.114495 3.405032 0.517957
v 0.114495 3.357692 0.459401
v 0.193523 3.357692 0.459401
v 0.155322 3.009038 0.585080
v 0.115808 3.012008 0.600889
v 0.211203 3.019179 0.639056
v 0.194836 3.012008 0.600889
v 0.194836 3.026350 0.677223
v 0.115808 3.026350 0.677223
v 0.155322 3.029320 0.693032
v 0.099440 3.019179 0.639056
v 0.155304 2.671616 0.703815
v 0.194818 2.671616 0.687448
v 0.099423 2.671616 0.647934
v 0.115790 2.671616 0.687448
v 0.155304 2.671616 0.592053
v 0.115790 2.671616 0.608420
v 0.211186 2.671616 0.647934
v 0.194818 2.671616 0.608420
v 0.115816 3.102519 0.592202
v 0.194844 3.102519 0.592202
v 0.155330 3.133033 0.680668
v 0.099449 3.115158 0.628846
v 0.155330 3.097283 0.577024
v 0.211211 3.115158 0.628846
v 0.194844 3.127797 0.665490
v 0.115816 3.127797 0.665490
v 0.154674 3.330835 0.594250
v 0.098793 3.301294 0.548714
v 0.154674 3.271752 0.503177
v 0.210555 3.301294 0.548714
v 0.194188 3.322182 0.580913
v 0.115160 3.322182 0.580913
v 0.115160 3.280405 0.516514
v 0.194188 3.280405 0.516514
v 0.155313 2.918129 0.589549
v 0.211194 2.923200 0.644478
v 0.194827 2.926785 0.683318
v 0.115799 2.926785 0.683318
v 0.115799 2.919615 0.605638
v 0.194827 2.919615 0.605638
v 0.155313 2.928271 0.699407
v 0.099432 2.923200 0.644478
v 0.192858 3.481829 0.445032
v 0.113830 3.481829 0.445032
v 0.113830 3.425161 0.394017
v 0.192858 3.425161 0.394017
v 0.153344 3.493566 0.455597
v 0.097463 3.453495 0.419525
v 0.153344 3.413425 0.383452
v 0.209225 3.453495 0.419525
v 0.188200 3.825127 -0.103201
v 0.109172 3.825127 -0.103201
v 0.109172 3.755930 -0.132893
v 0.188200 3.755930 -0.132893
v 0.148686 3.839459 -0.097052
v 0.092805 3.790529 -0.118047
v 0.148686 3.741599 -0.139042
v 0.204568 3.790529 -0.118047
v 0.439465 4.326245 -0.392391
v 0.441668 4.417953 -0.283888
v 0.350193 4.171227 -0.259556
v 0.352396 4.262934 -0.151053
v 0.142735 4.111274 -0.204671
v 0.144938 4.202982 -0.096168
v -0.061383 4.181507 -0.259888
v -0.059180 4.273214 -0.151385
v -0.142591 4.340783 -0.392861
v -0.140388 4.432490 -0.284358
v -0.053318 4.495802 -0.525696
v -0.051115 4.587509 -0.417193
v 0.154140 4.555755 -0.580581
v 0.156343 4.647462 -0.472078
v 0.358257 4.485522 -0.525364
v 0.360461 4.577229 -0.416861
v 0.471789 4.311316 -0.409062
v 0.372498 4.138900 -0.261318
v 0.141756 4.072218 -0.200274
v -0.085271 4.150334 -0.261687
v -0.175593 4.327486 -0.409585
v -0.076301 4.499903 -0.557329
v 0.154441 4.566585 -0.618373
v 0.381467 4.488469 -0.556959
v 0.465563 4.052121 -0.715727
v 0.366271 3.879704 -0.567983
v 0.135529 3.813023 -0.506939
v -0.091497 3.891137 -0.568353
v -0.181819 4.068291 -0.716249
v -0.082528 4.240707 -0.863994
v 0.148214 4.307388 -0.925038
v 0.375241 4.229274 -0.863624
v 0.780051 3.537203 -1.327572
v 0.583151 3.297518 -0.938095
v 0.120629 3.207753 -0.777075
v -0.336574 3.320490 -0.938836
v -0.520636 3.569690 -1.328621
v -0.323735 3.809376 -1.718098
v 0.138787 3.899141 -1.879117
v 0.595990 3.786403 -1.717356
v 0.856863 3.535284 -1.327510
v 0.636706 3.267291 -0.892032
v 0.119557 3.166924 -0.711995
v -0.391646 3.292976 -0.892861
v -0.597447 3.571609 -1.328683
v -0.377290 3.839603 -1.764160
v 0.139859 3.939970 -1.944197
v 0.651062 3.813918 -1.763331
v 0.424550 3.992681 -0.813769
v 0.338388 3.882079 -0.647467
v 0.136271 3.840423 -0.578717
v -0.063403 3.892115 -0.647791
v -0.143667 4.006874 -0.814227
v -0.057505 4.117476 -0.980529
v 0.144611 4.159132 -1.049279
v 0.344285 4.107440 -0.980205
v 0.124926 3.386616 -0.565524
v 0.579848 3.485148 -0.714879
v 0.593676 4.015421 -1.437790
v 0.144481 4.136536 -1.587875
v -0.310441 4.038004 -1.438519
v -0.504603 3.777544 -1.077215
v -0.324269 3.507730 -0.715608
v 0.774011 3.745608 -1.076184
vn 0.9239 -0.0000 0.3827
vn 0.3827 -0.0000 0.9239
vn -0.3827 -0.0000 0.9239
vn -0.9239 -0.0000 0.3827
vn -0.9239 -0.0000 -0.3827
vn -0.3827 -0.0000 -0.9239
vn -0.0000 1.0000 -0.0000
vn 0.3827 -0.0000 -0.9239
vn 0.9239 -0.0000 -0.3827
vn -0.0000 -1.0000 -0.0000
vn 0.5839 -0.6938 -0.4215
vn 0.5629 0.7006 0.4386
vn 0.5571 0.3192 0.7667
vn 0.2930 -0.9530 -0.0765
vn -0.0000 -0.5827 0.8127
vn -0.0000 -1.0000 0.0031
vn -0.5571 0.3192 0.7667
vn -0.2930 -0.9530 -0.0765
vn -0.5629 0.7006 0.4386
vn -0.5839 -0.6938 -0.4215
vn -0.2904 0.9532 0.0845
vn -0.5926 -0.2769 -0.7564
vn -0.0000 1.0000 -0.0024
vn -0.0000 0.6733 -0.7394
vn -0.0000 0.6914 0.7225
vn 0.2904 0.9532 0.0845
vn 0.5926 -0.2769 -0.7564
vn 0.8428 -0.1078 0.5273
vn -0.0000 -0.4637 0.8860
vn -0.0000 -0.1959 0.9806
vn 0.5966 -0.1422 0.7899
vn 0.9328 0.3320 -0.1404
vn 0.8750 -0.2469 0.4165
vn 0.4153 -0.5624 0.7150
vn 0.9336 -0.1532 0.3240
vn -0.0000 -0.6218 0.7832
vn -0.8750 -0.2469 0.4165
vn -0.4153 -0.5624 0.7150
vn -0.9328 0.3320 -0.1404
vn -0.9336 -0.1532 0.3240
vn -0.4151 0.7391 -0.5304
vn -0.8680 0.4365 -0.2367
vn -0.0000 0.8098 -0.5867
vn 0.4151 0.7391 -0.5305
vn 0.8680 0.4365 -0.2367
vn -0.0000 -0.6914 -0.7225
vn 0.3889 -0.3465 -0.8536
vn 0.5171 -0.6334 -0.5757
vn 0.2184 -0.7248 -0.6534
vn 0.1910 -0.6044 -0.7735
vn -0.0000 0.9055 -0.4243
vn 0.3994 0.8340 -0.3806
vn 0.5189 0.8492 -0.0983
vn -0.0000 0.9459 -0.3244
vn -0.8963 0.4434 -0.0060
vn -0.3994 0.8340 -0.3806
vn -0.5189 0.8492 -0.0983
vn -0.8738 0.3476 0.3401
vn -0.8428 -0.1078 0.5273
vn -0.5966 -0.1422 0.7899
vn 0.8963 0.4434 -0.0060
vn 0.8738 0.3476 0.3401
vn 0.2013 -0.7730 -0.6017
vn -0.0000 -0.9162 -0.4008
vn -0.2013 -0.7730 -0.6017
vn -0.2184 -0.7248 -0.6534
vn -0.1910 -0.6044 -0.7735
vn -0.0000 -0.3860 -0.9225
vn -0.3889 -0.3465 -0.8536
vn -0.0000 -0.1405 -0.9901
vn -0.2761 -0.9124 -0.3023
vn -0.5171 -0.6334 -0.5757
vn 0.2761 -0.9124 -0.3023
vn -0.0000 -0.9837 -0.1797
vn 0.9470 0.2454 0.2071
vn 0.6752 -0.2634 0.6890
vn 0.6780 -0.5909 0.4372
vn 0.9970 -0.0601 -0.0492
vn -0.0000 -0.5743 0.8187
vn -0.6752 -0.2634 0.6890
vn -0.6780 -0.5909 0.4372
vn -0.0000 -0.8865 0.4627
vn -0.9470 0.2454 0.2071
vn -0.6085 0.7460 -0.2705
vn -0.6963 0.4738 -0.5392
vn -0.9970 -0.0601 -0.0492
vn -0.0000 0.9564 -0.2920
vn 0.6085 0.7460 -0.2705
vn 0.6963 0.4738 -0.5392
vn -0.0000 0.8025 -0.5967
vn 0.4611 0.8873 0.0048
vn 0.7846 0.4533 0.4229
vn 0.8338 0.4145 0.3646
vn 0.4957 0.8648 -0.0804
vn -0.4611 0.8873 0.0048
vn -0.0000 0.9946 -0.1039
vn -0.0000 0.9940 -0.1094
vn -0.4957 0.8648 -0.0804
vn -0.5540 0.0253 0.8321
vn -0.7846 0.4533 0.4229
vn -0.8338 0.4145 0.3646
vn -0.5999 -0.0374 0.7992
vn 0.5540 0.0253 0.8321
vn -0.0000 -0.1273 0.9919
vn -0.0000 -0.2870 0.9579
vn 0.5999 -0.0374 0.7992
vn 0.8911 -0.3455 -0.2941
vn 0.5484 -0.8198 0.1651
vn 0.3634 -0.9302 -0.0518
vn 0.7183 -0.5250 -0.4565
vn -0.0000 -0.9867 0.1627
vn -0.5484 -0.8198 0.1651
vn -0.3634 -0.9302 -0.0518
vn -0.0000 -1.0000 -0.0006
vn -0.8911 -0.3455 -0.2941
vn -0.6434 0.1364 -0.7533
vn -0.5319 -0.1305 -0.8367
vn -0.7183 -0.5250 -0.4565
vn -0.0000 0.4408 -0.8976
vn 0.6434 0.1364 -0.7533
vn 0.5319 -0.1305 -0.8367
vn -0.0000 0.1441 -0.9896
vn 0.3827 0.0078 0.9239
vn -0.9239 0.0033 0.3827
vn -0.3827 -0.0078 -0.9239
vn 0.9239 -0.0033 -0.3827
vn 0.9239 0.0033 0.3827
vn -0.3827 0.0078 0.9239
vn -0.9239 -0.0033 -0.3827
vn 0.3827 -0.0078 -0.9239
vn -0.3780 -0.3082 -0.8730
vn 0.9219 -0.1281 -0.3656
vn 0.9219 0.1266 0.3662
vn -0.3778 0.3008 0.8756
vn -0.9219 -0.1279 -0.3657
vn 0.3780 -0.3083 -0.8730
vn 0.3778 0.3007 0.8757
vn -0.9219 0.1268 0.3662
vn 0.3653 0.7832 0.5032
vn -0.9164 0.3327 0.2224
vn -0.3652 -0.7844 -0.5013
vn 0.9164 -0.3331 -0.2219
vn 0.9161 0.3404 0.2120
vn -0.3654 0.7803 0.5076
vn -0.9161 -0.3405 -0.2118
vn 0.3654 -0.7817 -0.5054
vn 0.3762 -0.7422 -0.5547
vn -0.9211 -0.3138 -0.2305
vn -0.3763 0.7215 0.5812
vn 0.9211 0.3099 0.2354
vn 0.9212 -0.3057 -0.2409
vn -0.3761 -0.7455 -0.5502
vn -0.9212 0.3022 0.2452
vn 0.3763 0.7246 0.5774
vn 0.3696 0.5650 0.7377
vn -0.9183 0.2337 0.3195
vn -0.3697 -0.5531 -0.7465
vn 0.9183 -0.2314 -0.3212
vn 0.9182 0.2434 0.3125
vn -0.3697 0.5612 0.7405
vn -0.9182 -0.2415 -0.3139
vn 0.3698 -0.5490 -0.7496
vn -0.9212 0.0230 0.3884
vn 0.3764 0.0574 0.9247
vn 0.3761 -0.0466 -0.9254
vn -0.9212 -0.0209 -0.3886
vn -0.3764 0.0575 0.9247
vn 0.9212 0.0228 0.3884
vn 0.9212 -0.0211 -0.3886
vn -0.3761 -0.0465 -0.9254
vn -0.9194 0.0435 0.3908
vn 0.3726 0.1082 0.9217
vn 0.3715 -0.0866 -0.9244
vn -0.9192 -0.0396 -0.3917
vn -0.3726 0.1083 0.9216
vn 0.9194 0.0434 0.3908
vn 0.9192 -0.0398 -0.3917
vn -0.3715 -0.0865 -0.9244
vn 0.3769 -0.4105 -0.8303
vn -0.9216 -0.1818 -0.3428
vn -0.3774 0.4364 0.8168
vn 0.9217 0.1859 0.3405
vn 0.9214 -0.1711 -0.3489
vn -0.3770 -0.4151 -0.8280
vn -0.9215 0.1756 0.3463
vn 0.3774 0.4405 0.8145
vn -0.3801 -0.0133 -0.9249
vn 0.9228 -0.0074 -0.3852
vn 0.9228 0.0097 0.3851
vn -0.3802 0.0272 0.9245
vn -0.9228 -0.0073 -0.3852
vn 0.3801 -0.0134 -0.9249
vn 0.3802 0.0271 0.9245
vn -0.9228 0.0098 0.3851
vn 0.3681 0.6413 0.6732
vn -0.9175 0.2702 0.2918
vn -0.3681 -0.6498 -0.6651
vn 0.9175 -0.2714 -0.2906
vn 0.9175 0.2788 0.2836
vn -0.3681 0.6380 0.6764
vn -0.9175 -0.2805 -0.2820
vn 0.3681 -0.6460 -0.6688
vn 0.3730 -0.7908 -0.4853
vn -0.9198 -0.3391 -0.1973
vn -0.3731 0.7954 0.4777
vn 0.9198 0.3398 0.1961
vn 0.9197 -0.3323 -0.2093
vn -0.3731 -0.7937 -0.4805
vn -0.9197 0.3331 0.2078
vn 0.3732 0.7981 0.4730
vn -0.0000 0.7659 -0.6430
vn 0.8465 0.2934 0.4443
vn 0.9476 0.2341 -0.2171
vn 0.8661 -0.3903 0.3123
vn 0.5331 -0.2704 0.8017
vn -0.0174 -0.7635 0.6456
vn 0.0016 -0.0162 0.9999
vn -0.8907 -0.3381 0.3038
vn -0.5494 -0.2394 0.8005
vn -0.9338 0.2825 -0.2198
vn -0.8255 0.3457 0.4461
vn -0.3996 0.7041 -0.5870
vn -0.6417 0.7526 0.1475
vn -0.0108 0.7638 -0.6454
vn 0.0182 0.9994 -0.0291
vn 0.0155 0.6454 0.7636
vn 0.4347 0.6834 -0.5865
vn 0.6743 0.7240 0.1452
vn 0.3078 0.8995 0.3100
vn 0.0071 0.9613 0.2755
vn 0.8907 0.3381 -0.3038
vn 0.0174 0.7635 -0.6456
vn 0.0188 0.1114 0.9936
vn 0.2459 0.1172 0.9622
vn -0.2491 0.9207 0.3003
vn -0.5382 0.4084 0.7373
vn 0.5560 0.3762 0.7412
vn -0.2411 0.1292 0.9619
vn 0.6674 -0.1698 0.7250
vn -0.0123 -0.5143 0.8575
vn 0.0259 -0.5578 0.8296
vn 0.4202 -0.5025 0.7556
vn -0.8661 0.3903 -0.3123
vn -0.9476 -0.2341 0.2171
vn -0.4347 -0.6834 0.5865
vn 0.0108 -0.7638 0.6454
vn 0.3996 -0.7041 0.5870
vn 0.9338 -0.2825 0.2198
vn -0.3587 -0.7198 -0.5943
vn -0.1701 -0.6152 -0.7698
vn -0.4070 -0.6084 -0.6814
vn -0.4064 -0.8232 -0.3965
vn 0.0105 0.9636 -0.2672
vn 0.5711 0.7896 -0.2243
vn 0.8132 0.5513 -0.1864
vn 0.0203 0.8783 -0.4777
vn -0.8917 0.3875 0.2340
vn -0.5266 0.8202 -0.2235
vn -0.7707 0.6051 -0.1997
vn -0.9337 -0.0031 0.3580
vn -0.6758 -0.1305 0.7254
vn -0.4439 -0.4819 0.7555
vn 0.9096 0.3398 0.2392
vn 0.9307 -0.0527 0.3619
vn -0.0207 -0.8468 -0.5316
vn -0.0229 -0.7996 -0.6001
vn 0.1458 -0.6119 -0.7774
vn 0.3264 -0.7365 -0.5925
vn 0.2966 -0.9021 -0.3134
vn -0.0206 -0.9945 -0.1023
vn -0.3374 -0.8820 -0.3290
vn 0.0068 0.0672 -0.9977
vn 0.3703 -0.6395 -0.6738
vn 0.3731 -0.8415 -0.3909
vn 0.1974 -0.9763 -0.0887
vn -0.0032 -1.0000 0.0009
vn -0.2383 -0.9654 -0.1059
vn -0.7498 0.1671 0.6402
vn -0.7707 0.6213 0.1414
vn -0.3257 0.9224 -0.2075
vn -0.0011 0.9714 -0.2375
vn 0.3714 0.9051 -0.2071
vn 0.8006 0.5819 0.1429
vn 0.7519 0.1257 0.6472
vn -0.0071 -0.1540 0.9881
vt 0.534247 0.137320
vt 0.355411 0.137320
vt 0.355411 0.068883
vt 0.534247 0.068883
vt 0.355411 0.000445
vt 0.534247 0.000445
vt 0.534247 0.547945
vt 0.355411 0.547945
vt 0.355411 0.479508
vt 0.534247 0.479508
vt 0.355411 0.411070
vt 0.534247 0.411070
vt 0.355411 0.342633
vt 0.534247 0.342633
vt 0.355411 0.274195
vt 0.534247 0.274195
vt 0.602292 0.824503
vt 0.650685 0.872896
vt 0.650685 0.941333
vt 0.602292 0.989726
vt 0.533855 0.989726
vt 0.485462 0.941333
vt 0.485462 0.872896
vt 0.533855 0.824503
vt 0.355411 0.205758
vt 0.534247 0.205758
vt 0.357485 0.834777
vt 0.425922 0.834777
vt 0.474315 0.883170
vt 0.474315 0.951607
vt 0.425922 1.000000
vt 0.357485 1.000000
vt 0.309092 0.951607
vt 0.309092 0.883170
vt 0.013318 0.729847
vt 0.092033 0.720602
vt 0.102916 0.749213
vt 0.017047 0.764324
vt 0.124025 0.780210
vt 0.014486 0.806507
vt 0.010140 0.506692
vt 0.133789 0.540087
vt 0.105780 0.578392
vt 0.013940 0.553013
vt 0.093444 0.609785
vt 0.010981 0.592078
vt 0.087246 0.638773
vt 0.008413 0.628011
vt 0.085165 0.666288
vt 0.007889 0.662509
vt 0.029110 0.010258
vt 0.029110 0.022304
vt 0.020592 0.030822
vt 0.008546 0.030822
vt 0.000028 0.022304
vt 0.000028 0.010258
vt 0.008546 0.001741
vt 0.020592 0.001741
vt 0.086703 0.693506
vt 0.009662 0.696280
vt 0.015648 0.117024
vt 0.000614 0.064355
vt 0.038353 0.048844
vt 0.054182 0.109501
vt 0.123032 0.711443
vt 0.133434 0.730716
vt 0.144504 0.748122
vt 0.154810 0.580835
vt 0.139801 0.600345
vt 0.126755 0.621153
vt 0.123775 0.644966
vt 0.117950 0.667120
vt 0.121914 0.689302
vt 0.156880 0.702442
vt 0.162387 0.717221
vt 0.170225 0.730805
vt 0.183219 0.605401
vt 0.171108 0.620977
vt 0.162197 0.636572
vt 0.156811 0.653031
vt 0.153987 0.669844
vt 0.154256 0.686398
vt 0.009373 0.764345
vt 0.005681 0.730513
vt 0.006211 0.802242
vt 0.004761 0.552982
vt 0.000092 0.511828
vt 0.002568 0.591312
vt 0.000400 0.627500
vt 0.000092 0.662483
vt 0.001991 0.696723
vt 0.250556 0.245604
vt 0.264699 0.212360
vt 0.312215 0.247713
vt 0.307176 0.264454
vt 0.029694 0.273588
vt 0.027658 0.223243
vt 0.063466 0.222258
vt 0.065476 0.274612
vt 0.025653 0.372461
vt 0.027457 0.323431
vt 0.061220 0.325575
vt 0.060077 0.376468
vt 0.000614 0.464440
vt 0.017909 0.419911
vt 0.052048 0.429549
vt 0.032149 0.481356
vt 0.023701 0.170795
vt 0.061431 0.167747
vt 0.038913 0.003518
vt 0.050222 0.003518
vt 0.058219 0.011515
vt 0.058219 0.022825
vt 0.050222 0.030822
vt 0.038913 0.030822
vt 0.030916 0.022825
vt 0.030916 0.011515
vt 0.250241 0.313909
vt 0.245875 0.279418
vt 0.307352 0.282282
vt 0.312215 0.299895
vt 0.292905 0.386591
vt 0.264067 0.349537
vt 0.321569 0.316010
vt 0.335614 0.328923
vt 0.293402 0.180761
vt 0.344130 0.158594
vt 0.340846 0.228787
vt 0.323500 0.234346
vt 0.348198 0.420588
vt 0.354452 0.335276
vt 0.165071 0.173150
vt 0.178980 0.106782
vt 0.211776 0.116236
vt 0.190458 0.178309
vt 0.164532 0.547945
vt 0.164313 0.447127
vt 0.196910 0.441956
vt 0.221629 0.547871
vt 0.158518 0.381376
vt 0.154636 0.326938
vt 0.176899 0.325133
vt 0.183878 0.377632
vt 0.154023 0.277181
vt 0.157236 0.227561
vt 0.179508 0.229929
vt 0.175557 0.277382
vt 0.200997 0.000445
vt 0.258477 0.017903
vt 0.101496 0.223975
vt 0.104348 0.168196
vt 0.136114 0.169082
vt 0.131853 0.225160
vt 0.099517 0.327027
vt 0.102165 0.275485
vt 0.129467 0.276116
vt 0.129394 0.327175
vt 0.092155 0.441106
vt 0.099740 0.381365
vt 0.130191 0.382339
vt 0.129418 0.446222
vt 0.101271 0.102787
vt 0.087002 0.023924
vt 0.139508 0.003646
vt 0.141908 0.102203
vt 0.070732 0.507614
vt 0.112978 0.531537
vt 0.213912 0.185431
vt 0.240418 0.130599
vt 0.274494 0.156784
vt 0.243467 0.199024
vt 0.276493 0.525090
vt 0.228017 0.431071
vt 0.267860 0.409306
vt 0.326442 0.466594
vt 0.208072 0.371924
vt 0.197997 0.322551
vt 0.227647 0.318042
vt 0.239682 0.360651
vt 0.195991 0.277616
vt 0.200412 0.233084
vt 0.229243 0.239076
vt 0.223702 0.278215
vt 0.301647 0.053669
vt 0.336005 0.115570
vt 0.717098 0.928082
vt 0.685097 0.928082
vt 0.662469 0.905454
vt 0.662469 0.873454
vt 0.685097 0.850826
vt 0.717098 0.850826
vt 0.739726 0.873454
vt 0.739726 0.905454
vt 0.303616 0.792583
vt 0.303616 0.852740
vt 0.271615 0.852740
vt 0.271615 0.792583
vt 0.335616 0.792583
vt 0.335616 0.852740
vt 0.111611 0.792583
vt 0.111611 0.852740
vt 0.079610 0.852740
vt 0.079610 0.792583
vt 0.143612 0.792583
vt 0.143612 0.852740
vt 0.175613 0.792583
vt 0.175613 0.852740
vt 0.207613 0.792583
vt 0.207613 0.852740
vt 0.239614 0.792583
vt 0.239614 0.852740
vt 0.463941 0.835203
vt 0.434107 0.831771
vt 0.434329 0.827715
vt 0.463933 0.831305
vt 0.523328 0.822264
vt 0.493466 0.831656
vt 0.493228 0.827665
vt 0.522988 0.818108
vt 0.586611 0.806596
vt 0.554628 0.812435
vt 0.554276 0.808224
vt 0.586258 0.802522
vt 0.403512 0.822366
vt 0.371433 0.812532
vt 0.371764 0.808218
vt 0.403836 0.818113
vt 0.338619 0.806758
vt 0.338955 0.802584
vt 0.877033 0.600329
vt 0.864704 0.570010
vt 0.889531 0.570421
vt 0.900685 0.600128
vt 0.838076 0.468363
vt 0.864758 0.453145
vt 0.889569 0.452725
vt 0.863203 0.466256
vt 0.812616 0.482983
vt 0.838157 0.481055
vt 0.812548 0.540113
vt 0.802139 0.511533
vt 0.828712 0.511557
vt 0.838091 0.542080
vt 0.837992 0.554793
vt 0.863138 0.556906
vt 0.877044 0.422832
vt 0.900685 0.423020
vt 0.791271 0.410959
vt 0.761664 0.406621
vt 0.761638 0.055171
vt 0.791286 0.064287
vt 0.833003 0.394924
vt 0.820799 0.406114
vt 0.820774 0.054664
vt 0.832881 0.031937
vt 0.874992 0.379577
vt 0.845388 0.383935
vt 0.845358 0.009412
vt 0.875000 0.000275
vt 0.749272 0.395641
vt 0.737060 0.384459
vt 0.737023 0.009936
vt 0.749145 0.032654
vt 0.707529 0.379634
vt 0.707529 0.000333
vt 0.675988 0.045997
vt 0.705479 0.054167
vt 0.705480 0.107759
vt 0.675975 0.100498
vt 0.567614 0.046480
vt 0.580089 0.027528
vt 0.580089 0.084211
vt 0.567635 0.100977
vt 0.592236 0.008360
vt 0.621748 0.000212
vt 0.621755 0.059996
vt 0.592251 0.067235
vt 0.651393 0.007862
vt 0.663860 0.026824
vt 0.663822 0.083510
vt 0.651377 0.066738
vt 0.537980 0.054114
vt 0.538005 0.107705
vt 0.783945 0.857723
vt 0.793607 0.828064
vt 0.840781 0.828104
vt 0.831987 0.857760
vt 0.818321 0.899287
vt 0.794197 0.887175
vt 0.841295 0.887231
vt 0.863241 0.899390
vt 0.851755 0.941657
vt 0.842161 0.911967
vt 0.884942 0.911991
vt 0.893634 0.941678
vt 0.817530 0.815457
vt 0.841775 0.803424
vt 0.884596 0.803503
vt 0.862559 0.815577
vt 0.852173 0.773988
vt 0.894025 0.774052
vt 0.825388 0.555558
vt 0.798745 0.540623
vt 0.803801 0.540056
vt 0.830058 0.554800
vt 0.787350 0.511526
vt 0.798818 0.482462
vt 0.803872 0.483030
vt 0.792681 0.511527
vt 0.853169 0.452282
vt 0.866428 0.422120
vt 0.870532 0.422528
vt 0.857549 0.452995
vt 0.853106 0.570860
vt 0.857489 0.570153
vt 0.825482 0.467588
vt 0.830149 0.468349
vt 0.866410 0.601027
vt 0.870517 0.600627
vt 0.370461 0.816581
vt 0.337901 0.810822
vt 0.555615 0.816395
vt 0.524530 0.826123
vt 0.494271 0.835403
vt 0.463969 0.839041
vt 0.433304 0.835656
vt 0.402305 0.826318
vt 0.587329 0.810485
vt 0.808890 0.803337
vt 0.820235 0.773966
vt 0.809307 0.912087
vt 0.783300 0.899249
vt 0.756957 0.887094
vt 0.745802 0.857605
vt 0.756378 0.827910
vt 0.782468 0.815243
vt 0.819805 0.941781
vt 0.554392 0.805570
vt 0.586162 0.800003
vt 0.371635 0.805502
vt 0.403170 0.815197
vt 0.433582 0.824628
vt 0.463924 0.827980
vt 0.493944 0.824624
vt 0.523621 0.815252
vt 0.339050 0.800003
vt 0.895415 0.828147
vt 0.887765 0.857801
vt 0.895879 0.887329
vt 0.915019 0.899536
vt 0.933917 0.912101
vt 0.941438 0.941781
vt 0.933542 0.803584
vt 0.914360 0.815680
vt 0.941781 0.774128
vt 0.705443 0.445206
vt 0.675917 0.440348
vt 0.579983 0.429852
vt 0.567589 0.440828
vt 0.621722 0.413823
vt 0.592189 0.418662
vt 0.663720 0.429153
vt 0.651331 0.418169
vt 0.537980 0.445156
vt 0.250317 0.595127
vt 0.224975 0.613014
vt 0.193957 0.613014
vt 0.175433 0.595128
vt 0.180253 0.569833
vt 0.205595 0.551947
vt 0.236613 0.551946
vt 0.255137 0.569833
vt 0.748261 0.469178
vt 0.748262 0.446785
vt 0.783377 0.446785
vt 0.783377 0.469178
vt 0.818493 0.446785
vt 0.818493 0.469178
vt 0.537566 0.469178
vt 0.537566 0.446785
vt 0.572682 0.446785
vt 0.572682 0.469178
vt 0.607798 0.446785
vt 0.607798 0.469178
vt 0.642914 0.446785
vt 0.642914 0.469178
vt 0.678030 0.446785
vt 0.678030 0.469178
vt 0.000839 0.864711
vt 0.025670 0.839880
vt 0.060786 0.839880
vt 0.085616 0.864711
vt 0.085616 0.899827
vt 0.060786 0.924658
vt 0.025670 0.924658
vt 0.000839 0.899827
vt 0.713146 0.446785
vt 0.713145 0.469178
vt 0.442704 0.572262
vt 0.478500 0.568986
vt 0.479581 0.574699
vt 0.442804 0.578774
vt 0.488987 0.640278
vt 0.443851 0.641382
vt 0.548449 0.543393
vt 0.580129 0.518778
vt 0.586534 0.523168
vt 0.551666 0.548784
vt 0.372593 0.560994
vt 0.407019 0.570134
vt 0.406110 0.575775
vt 0.370524 0.566997
vt 0.513807 0.558695
vt 0.516106 0.565063
vt 0.302757 0.518778
vt 0.337451 0.544668
vt 0.333952 0.550753
vt 0.295958 0.523647
vt 0.622551 0.689854
vt 0.688618 0.646655
vt 0.713241 0.689023
vt 0.635419 0.728322
vt 0.398716 0.641706
vt 0.351235 0.635343
vt 0.301639 0.620813
vt 0.257326 0.595616
vt 0.584520 0.616778
vt 0.536169 0.632519
vt 0.626510 0.590784
vt 0.789976 0.804969
vt 0.720140 0.840755
vt 0.664128 0.746223
vt 0.694155 0.729684
vt 0.445872 0.754310
vt 0.505703 0.745991
vt 0.507882 0.794239
vt 0.446893 0.804932
vt 0.325726 0.727962
vt 0.385667 0.748333
vt 0.385429 0.796744
vt 0.319373 0.772730
vt 0.196058 0.655038
vt 0.265690 0.696571
vt 0.254493 0.736270
vt 0.172521 0.699571
vt 0.564514 0.723357
vt 0.572627 0.767583
vt 0.640596 0.737656
vt 0.578059 0.778199
vt 0.714041 0.701622
vt 0.249776 0.745774
vt 0.172351 0.714227
vt 0.314389 0.783611
vt 0.383066 0.806671
vt 0.447066 0.813356
vt 0.510647 0.804036
vt 0.921233 0.527130
vt 0.896993 0.551370
vt 0.862712 0.551370
vt 0.838471 0.527130
vt 0.838471 0.492849
vt 0.862712 0.468608
vt 0.896993 0.468608
vt 0.921233 0.492849
vt 0.841803 0.746047
vt 0.716081 0.703332
vt 0.841803 0.594027
vt 0.861301 0.670037
vt 0.724245 0.670037
vt 0.716081 0.636742
vt 0.720140 0.499319
vt 0.789976 0.535105
vt 0.694155 0.610390
vt 0.664128 0.593851
vt 0.643559 0.857877
vt 0.630773 0.754136
vt 0.643559 0.482197
vt 0.630773 0.585938
s 0
usemtl Материал
f 1/1/1 2/2/1 4/3/1 3/4/1
f 3/4/2 4/3/2 6/5/2 5/6/2
f 5/7/3 6/8/3 8/9/3 7/10/3
f 7/10/4 8/9/4 10/11/4 9/12/4
f 9/12/5 10/11/5 12/13/5 11/14/5
f 11/14/6 12/13/6 14/15/6 13/16/6
f 4/17/7 2/18/7 16/19/7 14/20/7 12/21/7 10/22/7 8/23/7 6/24/7
f 13/16/8 14/15/8 16/25/8 15/26/8
f 15/26/9 16/25/9 2/2/9 1/1/9
f 1/27/10 3/28/10 5/29/10 7/30/10 9/31/10 11/32/10 13/33/10 15/34/10
s 1
f 49/35/11 34/36/12 33/37/13 50/38/14
f 50/38/14 33/37/13 35/39/15 51/40/16
f 51/41/16 35/42/15 36/43/17 52/44/18
f 52/44/18 36/43/17 37/45/19 53/46/20
f 53/46/20 37/45/19 38/47/21 54/48/22
f 54/48/22 38/47/21 39/49/23 55/50/24
f 20/51/25 18/52/25 32/53/25 30/54/25 28/55/25 26/56/25 24/57/25 22/58/25
f 55/50/24 39/49/23 40/59/26 56/60/27
f 56/60/27 40/59/26 34/36/12 49/35/11
f 19/61/28 21/62/29 59/63/30 58/64/31
f 42/65/25 41/66/25 33/37/13 34/36/12
f 41/66/25 43/67/25 35/39/15 33/37/13
f 43/68/25 44/69/25 36/43/17 35/42/15
f 44/69/25 45/70/25 37/45/19 36/43/17
f 45/70/25 46/71/25 38/47/21 37/45/19
f 46/71/25 47/72/25 39/49/23 38/47/21
f 47/72/25 48/73/25 40/59/26 39/49/23
f 48/73/25 42/65/25 34/36/12 40/59/26
f 18/74/32 20/75/33 41/66/34 42/65/35
f 20/75/33 22/76/36 43/67/36 41/66/34
f 22/77/36 24/78/37 44/69/38 43/68/36
f 24/78/37 26/79/39 45/70/40 44/69/38
f 26/79/39 28/80/41 46/71/42 45/70/40
f 28/80/41 30/81/43 47/72/43 46/71/42
f 30/81/43 32/82/44 48/73/45 47/72/43
f 32/82/44 18/74/32 42/65/35 48/73/45
f 19/83/46 17/84/46 49/35/11 50/38/14
f 21/85/46 19/83/46 50/38/14 51/40/16
f 23/86/46 21/87/46 51/41/16 52/44/18
f 25/88/46 23/86/46 52/44/18 53/46/20
f 27/89/46 25/88/46 53/46/20 54/48/22
f 29/90/46 27/89/46 54/48/22 55/50/24
f 31/91/46 29/90/46 55/50/24 56/60/27
f 17/84/46 31/91/46 56/60/27 49/35/11
f 125/92/47 121/93/48 65/94/49 72/95/50
f 29/96/51 31/97/52 64/98/53 63/99/54
f 25/100/55 27/101/56 62/102/57 61/103/58
f 21/104/29 23/105/59 60/106/60 59/107/30
f 17/108/61 19/61/28 58/64/31 57/109/62
f 31/97/52 17/108/61 57/109/62 64/98/53
f 27/101/56 29/96/51 63/99/54 62/102/57
f 23/105/59 25/100/55 61/103/58 60/106/60
f 65/110/49 66/111/63 67/112/64 68/113/65 69/114/66 70/115/67 71/116/68 72/117/50
f 126/118/69 122/119/70 71/120/68 70/121/67
f 127/122/71 123/123/72 69/124/66 68/125/65
f 128/126/73 124/127/74 67/128/64 66/129/63
f 122/119/70 125/92/47 72/95/50 71/120/68
f 123/123/72 126/118/69 70/121/67 69/124/66
f 124/130/74 127/122/71 68/125/65 67/131/64
f 121/93/48 128/126/73 66/129/63 65/94/49
f 105/132/75 112/133/76 80/134/77 73/135/78
f 108/136/79 111/137/80 78/138/81 79/139/82
f 107/140/83 110/141/84 76/142/85 77/143/86
f 106/144/87 109/145/88 74/146/89 75/147/90
f 112/133/76 108/148/79 79/149/82 80/134/77
f 111/137/80 107/140/83 77/143/86 78/138/81
f 110/141/84 106/144/87 75/147/90 76/142/85
f 109/145/88 105/132/75 73/135/78 74/146/89
f 113/150/91 117/151/92 85/152/93 81/153/94
f 114/154/95 118/155/96 86/156/97 82/157/98
f 115/158/99 119/159/100 87/160/101 83/161/102
f 116/162/103 120/163/104 88/164/105 84/165/106
f 118/155/96 113/150/91 81/153/94 86/156/97
f 119/159/100 114/154/95 82/157/98 87/160/101
f 120/166/104 115/158/99 83/161/102 88/167/105
f 117/151/92 116/162/103 84/165/106 85/152/93
f 101/168/107 100/169/108 96/170/109 89/171/110
f 104/172/111 99/173/112 95/174/113 92/175/114
f 103/176/115 98/177/116 94/178/117 91/179/118
f 102/180/119 97/181/120 93/182/121 90/183/122
f 100/169/108 104/184/111 92/185/114 96/170/109
f 99/173/112 103/176/115 91/179/118 95/174/113
f 98/177/116 102/180/119 90/183/122 94/178/117
f 97/181/120 101/168/107 89/171/110 93/182/121
f 74/146/89 73/135/78 101/168/107 97/181/120
f 76/142/85 75/147/90 102/180/119 98/177/116
f 78/138/81 77/143/86 103/176/115 99/173/112
f 80/134/77 79/149/82 104/184/111 100/169/108
f 75/147/90 74/146/89 97/181/120 102/180/119
f 77/143/86 76/142/85 98/177/116 103/176/115
f 79/139/82 78/138/81 99/173/112 104/172/111
f 73/135/78 80/134/77 100/169/108 101/168/107
f 81/153/94 85/152/93 105/132/75 109/145/88
f 82/157/98 86/156/97 106/144/87 110/141/84
f 83/161/102 87/160/101 107/140/83 111/137/80
f 84/165/106 88/164/105 108/148/79 112/133/76
f 86/156/97 81/153/94 109/145/88 106/144/87
f 87/160/101 82/157/98 110/141/84 107/140/83
f 88/167/105 83/161/102 111/137/80 108/136/79
f 85/152/93 84/165/106 112/133/76 105/132/75
f 57/109/62 58/64/31 116/162/103 117/151/92
f 59/107/30 60/106/60 115/158/99 120/166/104
f 61/103/58 62/102/57 114/154/95 119/159/100
f 63/99/54 64/98/53 113/150/91 118/155/96
f 58/64/31 59/63/30 120/163/104 116/162/103
f 60/106/60 61/103/58 119/159/100 115/158/99
f 62/102/57 63/99/54 118/155/96 114/154/95
f 64/98/53 57/109/62 117/151/92 113/150/91
f 89/171/110 96/170/109 128/126/73 121/93/48
f 92/175/114 95/174/113 127/122/71 124/130/74
f 91/179/118 94/178/117 126/118/69 123/123/72
f 90/183/122 93/182/121 125/92/47 122/119/70
f 96/170/109 92/185/114 124/127/74 128/126/73
f 95/174/113 91/179/118 123/123/72 127/122/71
f 94/178/117 90/183/122 122/119/70 126/118/69
f 93/182/121 89/171/110 121/93/48 125/92/47
s 0
f 129/186/10 130/187/10 131/188/10 132/189/10 133/190/10 134/191/10 135/192/10 136/193/10
f 136/194/9 144/195/9 137/196/9 129/197/9
f 135/198/8 143/199/8 144/195/8 136/194/8
f 134/200/6 142/201/6 143/202/6 135/203/6
f 133/204/5 141/205/5 142/201/5 134/200/5
f 132/206/4 140/207/4 141/205/4 133/204/4
f 131/208/3 139/209/3 140/207/3 132/206/3
f 130/210/2 138/211/2 139/209/2 131/208/2
f 129/197/1 137/196/1 138/211/1 130/210/1
f 193/212/123 194/213/123 146/214/123 147/215/123
f 195/216/124 196/217/124 148/218/124 149/219/124
f 197/220/125 198/221/125 150/222/125 151/223/125
f 199/224/126 200/225/126 152/226/126 145/227/126
f 194/213/127 199/224/127 145/227/127 146/214/127
f 196/217/128 193/212/128 147/215/128 148/218/128
f 198/221/129 195/216/129 149/219/129 150/222/129
f 200/225/130 197/228/130 151/229/130 152/226/130
f 205/230/131 201/231/131 158/232/131 159/233/131
f 206/234/132 202/235/132 160/236/132 153/237/132
f 207/238/133 206/234/133 153/237/133 154/239/133
f 208/240/134 203/241/134 155/242/134 156/243/134
f 201/231/135 204/244/135 157/245/135 158/232/135
f 202/235/136 205/246/136 159/247/136 160/236/136
f 203/241/137 207/238/137 154/239/137 155/242/137
f 204/244/138 208/240/138 156/243/138 157/245/138
f 237/248/139 233/249/139 162/250/139 163/251/139
f 238/252/140 234/253/140 164/254/140 165/255/140
f 239/256/141 235/257/141 166/258/141 167/259/141
f 240/260/142 236/261/142 168/262/142 161/263/142
f 233/249/143 240/260/143 161/263/143 162/250/143
f 234/253/144 237/248/144 163/251/144 164/254/144
f 235/257/145 238/252/145 165/255/145 166/258/145
f 236/261/146 239/264/146 167/265/146 168/262/146
f 228/266/147 231/267/147 173/268/147 176/269/147
f 227/270/148 230/271/148 171/272/148 174/273/148
f 226/274/149 229/275/149 169/276/149 172/277/149
f 225/278/150 232/279/150 175/280/150 170/281/150
f 232/279/151 228/266/151 176/269/151 175/280/151
f 231/282/152 227/270/152 174/273/152 173/283/152
f 230/271/153 226/274/153 172/277/153 171/272/153
f 229/275/154 225/278/154 170/281/154 169/276/154
f 209/284/155 213/285/155 181/286/155 177/287/155
f 210/288/156 214/289/156 182/290/156 178/291/156
f 211/292/157 215/293/157 183/294/157 179/295/157
f 212/296/158 216/297/158 184/298/158 180/299/158
f 213/285/159 212/296/159 180/299/159 181/286/159
f 214/289/160 209/284/160 177/287/160 182/290/160
f 215/293/161 210/288/161 178/291/161 183/294/161
f 216/297/162 211/300/162 179/301/162 184/298/162
f 224/302/163 220/303/163 190/304/163 192/305/163
f 223/306/164 219/307/164 189/308/164 191/309/164
f 222/310/165 217/311/165 185/312/165 188/313/165
f 221/314/166 224/302/166 192/305/166 186/315/166
f 220/303/167 223/306/167 191/309/167 190/304/167
f 219/307/168 218/316/168 187/317/168 189/308/168
f 218/316/169 222/310/169 188/313/169 187/317/169
f 217/318/170 221/314/170 186/315/170 185/319/170
f 144/320/8 143/321/8 197/228/8 200/225/8
f 142/322/5 141/323/5 195/216/5 198/221/5
f 140/324/3 139/325/3 193/212/3 196/217/3
f 138/326/1 137/327/1 199/224/1 194/213/1
f 137/327/9 144/320/9 200/225/9 199/224/9
f 143/328/6 142/322/6 198/221/6 197/220/6
f 141/323/4 140/324/4 196/217/4 195/216/4
f 139/325/2 138/326/2 194/213/2 193/212/2
f 192/305/171 190/304/171 208/240/171 204/244/171
f 191/309/172 189/308/172 207/238/172 203/241/172
f 188/313/173 185/312/173 205/246/173 202/235/173
f 186/315/174 192/305/174 204/244/174 201/231/174
f 190/304/175 191/309/175 203/241/175 208/240/175
f 189/308/176 187/317/176 206/234/176 207/238/176
f 187/317/177 188/313/177 202/235/177 206/234/177
f 185/319/178 186/315/178 201/231/178 205/230/178
f 160/329/179 159/330/179 211/300/179 216/297/179
f 158/331/180 157/332/180 210/288/180 215/293/180
f 156/333/181 155/334/181 209/284/181 214/289/181
f 154/335/182 153/336/182 212/296/182 213/285/182
f 153/336/183 160/329/183 216/297/183 212/296/183
f 159/337/184 158/331/184 215/293/184 211/292/184
f 157/332/185 156/333/185 214/289/185 210/288/185
f 155/334/186 154/335/186 213/285/186 209/284/186
f 151/223/187 150/222/187 221/338/187 217/339/187
f 145/227/188 152/226/188 222/340/188 218/341/188
f 146/214/189 145/227/189 218/341/189 219/342/189
f 148/218/190 147/215/190 223/343/190 220/344/190
f 150/222/191 149/219/191 224/345/191 221/338/191
f 152/226/192 151/229/192 217/346/192 222/340/192
f 147/215/193 146/214/193 219/342/193 223/343/193
f 149/219/194 148/218/194 220/344/194 224/345/194
f 177/287/195 181/286/195 225/347/195 229/348/195
f 178/291/196 182/290/196 226/349/196 230/350/196
f 179/295/197 183/294/197 227/351/197 231/352/197
f 180/299/198 184/298/198 228/353/198 232/354/198
f 181/286/199 180/299/199 232/354/199 225/347/199
f 182/290/200 177/287/200 229/348/200 226/349/200
f 183/294/201 178/291/201 230/350/201 227/351/201
f 184/298/202 179/301/202 231/355/202 228/353/202
f 176/269/203 173/268/203 239/356/203 236/357/203
f 174/273/204 171/272/204 238/358/204 235/359/204
f 172/277/205 169/276/205 237/360/205 234/361/205
f 170/281/206 175/280/206 240/362/206 233/363/206
f 175/280/207 176/269/207 236/357/207 240/362/207
f 173/283/208 174/273/208 235/359/208 239/364/208
f 171/272/209 172/277/209 234/361/209 238/358/209
f 169/276/210 170/281/210 233/363/210 237/360/210
f 168/365/211 167/366/211 166/367/211 165/368/211 164/369/211 163/370/211 162/371/211 161/372/211
s 1
f 241/373/212 242/374/213 244/375/214 243/376/215
f 243/376/215 244/375/214 246/377/216 245/378/217
f 245/379/217 246/380/216 248/381/218 247/382/219
f 247/382/219 248/381/218 250/383/220 249/384/221
f 249/384/221 250/383/220 252/385/222 251/386/223
f 251/386/223 252/385/222 254/387/224 253/388/225
f 244/389/226 242/390/226 256/391/226 254/392/226 252/393/226 250/394/226 248/395/226 246/396/226
f 253/388/225 254/387/224 256/397/227 255/398/228
f 255/398/228 256/397/227 242/374/213 241/373/212
f 253/399/225 255/400/228 264/401/229 263/402/230
f 263/402/224 264/401/227 272/403/231 271/404/232
f 243/405/215 245/406/217 259/407/233 258/408/234
f 249/409/221 251/410/223 262/411/235 261/412/236
f 255/400/228 241/413/212 257/414/237 264/401/229
f 241/413/212 243/405/215 258/408/234 257/414/237
f 245/415/217 247/416/219 260/417/238 259/418/233
f 251/410/223 253/399/225 263/402/230 262/411/235
f 247/416/219 249/409/221 261/412/236 260/417/238
f 298/419/239 297/420/240 283/421/241 282/422/242
f 261/412/220 262/411/222 270/423/243 269/424/244
f 259/418/216 260/417/218 268/425/245 267/426/246
f 257/414/213 258/408/214 266/427/247 265/428/248
f 264/401/227 257/414/213 265/428/248 272/403/231
f 262/411/222 263/402/224 271/404/232 270/423/243
f 260/417/218 261/412/220 269/424/244 268/425/245
f 258/408/214 259/407/216 267/429/246 266/427/247
f 273/430/249 274/431/250 290/432/251 289/433/252
f 300/434/253 299/435/254 288/436/255 287/437/256
f 302/438/257 301/439/258 286/440/259 285/441/260
f 297/442/240 303/443/261 284/444/262 283/445/241
f 304/446/263 298/419/239 282/422/242 281/447/264
f 299/435/254 304/446/263 281/447/264 288/436/255
f 301/439/258 300/434/253 287/437/256 286/440/259
f 303/443/261 302/438/257 285/441/260 284/444/262
f 274/448/250 273/449/249 281/447/265 282/422/265
f 275/450/266 274/448/250 282/422/265 283/421/265
f 276/451/267 275/452/266 283/445/265 284/444/265
f 277/453/268 276/451/267 284/444/265 285/441/265
f 278/454/269 277/453/268 285/441/265 286/440/265
f 279/455/270 278/454/269 286/440/265 287/437/265
f 280/456/271 279/455/270 287/437/265 288/436/265
f 273/449/249 280/456/271 288/436/265 281/447/265
f 289/457/252 290/458/251 291/459/272 292/460/273 293/461/274 294/462/275 295/463/276 296/464/277
f 280/465/271 273/430/249 289/433/252 296/466/277
f 278/467/269 279/468/270 295/469/276 294/470/275
f 276/471/267 277/472/268 293/473/274 292/474/273
f 274/431/250 275/475/266 291/476/272 290/432/251
f 279/468/270 280/465/271 296/466/277 295/469/276
f 277/472/268 278/467/269 294/470/275 293/473/274
f 275/477/266 276/471/267 292/474/273 291/478/272
f 268/425/278 269/424/279 302/438/257 303/443/261
f 270/423/280 271/404/281 300/434/253 301/439/258
f 272/403/282 265/428/283 304/446/263 299/435/254
f 265/428/283 266/427/284 298/419/239 304/446/263
f 267/426/285 268/425/278 303/443/261 297/442/240
f 269/424/279 270/423/280 301/439/258 302/438/257
f 271/404/281 272/403/282 299/435/254 300/434/253
f 266/427/284 267/429/285 297/420/240 298/419/239
