# Blender 4.2.2 LTS
# www.blender.org
mtllib tires.mtl
o tires
v 0.000308 0.213573 -0.596958
v 0.000308 1.212377 -0.596958
v 1.047625 0.213573 -0.163145
v 1.047625 1.212377 -0.163145
v 1.481438 0.213573 0.884172
v 1.481438 1.212377 0.884172
v 1.047625 0.213573 1.931489
v 1.047625 1.212377 1.931489
v 0.000308 0.213573 2.365302
v 0.000308 1.212377 2.365302
v -1.047009 0.213573 1.931489
v -1.047009 1.212377 1.931489
v -1.480821 0.213573 0.884172
v -1.480821 1.212377 0.884172
v -1.047009 0.213573 -0.163145
v -1.047009 1.212377 -0.163145
v 1.047625 1.400236 -0.163145
v 0.000308 1.400236 -0.596958
v 1.481438 1.400236 0.884172
v 1.047625 1.400236 1.931489
v 0.000308 1.400236 2.365302
v -1.047009 1.400236 1.931489
v -1.480821 1.400236 0.884172
v -1.047009 1.400236 -0.163145
v 0.000308 0.025714 -0.596958
v 1.047625 0.025714 -0.163145
v 1.481438 0.025714 0.884172
v 1.047625 0.025714 1.931489
v 0.000308 0.025714 2.365302
v -1.047009 0.025714 1.931489
v -1.480821 0.025714 0.884172
v -1.047009 0.025714 -0.163145
v 1.280303 1.274049 -0.395823
v 0.000308 1.274049 -0.926014
v 1.810494 1.274049 0.884172
v 1.280303 1.274049 2.164166
v 0.000308 1.274049 2.694358
v -1.279686 1.274049 2.164166
v -1.809878 1.274049 0.884172
v -1.279686 1.274049 -0.395823
v 0.000308 0.151902 -0.926014
v 1.280303 0.151902 -0.395823
v 1.810494 0.151902 0.884172
v 1.280303 0.151902 2.164166
v 0.000308 0.151902 2.694358
v -1.279686 0.151902 2.164166
v -1.809878 0.151902 0.884172
v -1.279686 0.151902 -0.395823
v 1.280749 1.400236 -0.396269
v 1.436165 1.331510 -0.551685
v 0.000308 1.331510 -1.146437
v 0.000308 1.400236 -0.926645
v 1.811125 1.400236 0.884172
v 2.030917 1.331510 0.884172
v 1.280749 1.400236 2.164613
v 1.436165 1.331510 2.320029
v 0.000308 1.400236 2.694989
v 0.000308 1.331510 2.914780
v -1.280132 1.400236 2.164613
v -1.435549 1.331510 2.320029
v -1.810508 1.400236 0.884172
v -2.030300 1.331510 0.884172
v -1.280132 1.400236 -0.396269
v -1.435549 1.331510 -0.551685
v 0.000308 0.025714 -0.926645
v 0.000308 0.094441 -1.146437
v 1.436165 0.094441 -0.551685
v 1.280749 0.025714 -0.396269
v 2.030917 0.094441 0.884172
v 1.811125 0.025714 0.884172
v 1.436165 0.094441 2.320029
v 1.280749 0.025714 2.164613
v 0.000308 0.094441 2.914780
v 0.000308 0.025714 2.694989
v -1.435549 0.094441 2.320029
v -1.280132 0.025714 2.164613
v -2.030300 0.094441 0.884172
v -1.810508 0.025714 0.884172
v -1.435549 0.094441 -0.551685
v -1.280132 0.025714 -0.396269
v 0.000308 0.491559 -2.612844
v 0.000308 0.940202 -3.505217
v 1.047625 0.879146 -2.417984
v 1.047625 1.327789 -3.310356
v 1.481438 1.814862 -1.947550
v 1.481438 2.263505 -2.839922
v 1.047625 2.750578 -1.477116
v 1.047625 3.199221 -2.369489
v 0.000308 3.138164 -1.282256
v 0.000308 3.586807 -2.174628
v -1.047009 2.750578 -1.477116
v -1.047009 3.199221 -2.369489
v -1.480821 1.814862 -1.947550
v -1.480821 2.263505 -2.839922
v -1.047009 0.879146 -2.417984
v -1.047009 1.327789 -3.310356
v 1.047625 1.412171 -3.478197
v 0.000308 1.024585 -3.673058
v 1.481438 2.347887 -3.007763
v 1.047625 3.283603 -2.537329
v 0.000308 3.671190 -2.342469
v -1.047009 3.283603 -2.537329
v -1.480821 2.347887 -3.007763
v -1.047009 1.412171 -3.478197
v 0.000308 0.407177 -2.445004
v 1.047625 0.794763 -2.250144
v 1.481438 1.730479 -1.779709
v 1.047625 2.666195 -1.309276
v 0.000308 3.053782 -1.114415
v -1.047009 2.666195 -1.309276
v -1.480821 1.730479 -1.779709
v -1.047009 0.794763 -2.250144
v 1.280303 1.147606 -3.469971
v 0.000308 0.673912 -3.708122
v 1.810494 2.291206 -2.895023
v 1.280303 3.434806 -2.320075
v 0.000308 3.908501 -2.081923
v -1.279686 3.434806 -2.320075
v -1.809878 2.291206 -2.895023
v -1.279686 1.147606 -3.469971
v 0.000308 0.169865 -2.705550
v 1.280303 0.643560 -2.467399
v 1.810494 1.787160 -1.892450
v 1.280303 2.930760 -1.317502
v 0.000308 3.404455 -1.079351
v -1.279686 2.930760 -1.317502
v -1.809878 1.787160 -1.892450
v -1.279686 0.643560 -2.467399
v 1.280749 1.203889 -3.582912
v 1.436165 1.034163 -3.591319
v 0.000308 0.502788 -3.858469
v 0.000308 0.730029 -3.821146
v 1.811125 2.347887 -3.007763
v 2.030917 2.317017 -2.946361
v 1.280749 3.491886 -2.432615
v 1.436165 3.599871 -2.301402
v 0.000308 3.965746 -2.194380
v 0.000308 4.131246 -2.034252
v -1.280132 3.491886 -2.432615
v -1.435549 3.599871 -2.301402
v -1.810508 2.347887 -3.007763
v -2.030300 2.317017 -2.946361
v -1.280132 1.203889 -3.582912
v -1.435549 1.034163 -3.591319
v 0.000308 0.112621 -2.593092
v 0.000308 -0.052880 -2.753222
v 1.436165 0.478496 -2.486071
v 1.280749 0.586481 -2.354858
v 2.030917 1.761350 -1.841112
v 1.811125 1.730479 -1.779709
v 1.436165 3.044203 -1.196154
v 1.280749 2.874478 -1.204561
v 0.000308 3.575579 -0.929003
v 0.000308 3.348338 -0.966326
v -1.435549 3.044203 -1.196154
v -1.280132 2.874478 -1.204561
v -2.030300 1.761350 -1.841112
v -1.810508 1.730479 -1.779709
v -1.435549 0.478496 -2.486071
v -1.280132 0.586481 -2.354858
v 0.047045 4.620331 -0.461872
v -0.767262 4.051713 -0.567644
v -0.559418 5.380454 0.120778
v -1.373725 4.811837 0.015005
v -0.810623 5.536636 1.215113
v -1.624930 4.968019 1.109340
v -0.559418 4.997388 2.180086
v -1.373725 4.428771 2.074314
v 0.047045 4.078594 2.450429
v -0.767262 3.509977 2.344657
v 0.653509 3.318470 1.867779
v -0.160798 2.749854 1.762007
v 0.904714 3.162289 0.773444
v 0.090407 2.593671 0.667672
v 0.653509 3.701536 -0.191529
v -0.160798 3.132919 -0.297301
v -1.526883 4.704889 -0.004889
v -0.920420 3.944766 -0.587539
v -1.778088 4.861071 1.089446
v -1.526883 4.321823 2.054420
v -0.920420 3.403029 2.324763
v -0.313956 2.642906 1.742113
v -0.062751 2.486723 0.647778
v -0.313956 3.025971 -0.317196
v 0.200203 4.727279 -0.441978
v -0.406260 5.487401 0.140672
v -0.657465 5.643584 1.235007
v -0.406260 5.104336 2.199980
v 0.200203 4.185542 2.470323
v 0.806667 3.425418 1.887673
v 1.057872 3.269236 0.793338
v 0.806667 3.808484 -0.171635
v -1.558740 5.005778 -0.185587
v -0.817541 4.076782 -0.897682
v -1.865755 5.196659 1.151871
v -1.558740 4.537608 2.331228
v -0.817542 3.414690 2.661633
v -0.076343 2.485693 1.949538
v 0.230672 2.294812 0.612079
v -0.076343 2.953863 -0.567278
v 0.097325 4.715618 -0.778848
v -0.643873 5.644615 -0.066753
v -0.950888 5.835495 1.270705
v -0.643873 5.176445 2.450063
v 0.097325 4.053526 2.780467
v 0.838524 3.124529 2.068372
v 1.145539 2.933649 0.730913
v 0.838524 3.592700 -0.448444
v -1.661877 4.934380 -0.199322
v -1.695841 5.126498 -0.321667
v -0.864388 4.084380 -1.120472
v -0.920420 4.005059 -0.911666
v -1.968998 5.125326 1.138602
v -2.040240 5.340622 1.178651
v -1.661877 4.466046 2.318370
v -1.695841 4.601320 2.501616
v -0.920420 3.342736 2.648890
v -0.864388 3.341666 2.872253
v -0.178962 2.413415 1.936547
v -0.032935 2.299548 2.073447
v 0.128159 2.222468 0.598622
v 0.311464 2.085424 0.573129
v -0.178962 2.881749 -0.581146
v -0.032935 2.824726 -0.749835
v 0.200203 4.787571 -0.766105
v 0.144172 4.788641 -0.989468
v -0.687281 5.830760 -0.190663
v -0.541254 5.716892 -0.053762
v -1.031680 6.044883 1.309655
v -0.848375 5.907839 1.284163
v -0.687281 5.305582 2.632620
v -0.541254 5.248559 2.463931
v 0.144172 4.045928 3.003257
v 0.200203 4.125248 2.794450
v 0.975625 3.003809 2.204452
v 0.941661 3.195928 2.082107
v 1.320024 2.789685 0.704134
v 1.248782 3.004981 0.744182
v 0.975625 3.528987 -0.618831
v 0.941661 3.664261 -0.435586
v 0.000308 1.583985 -0.432861
v 0.000308 2.582789 -0.432861
v 1.047625 1.583985 0.000952
v 1.047625 2.582789 0.000952
v 1.481438 1.583985 1.048269
v 1.481438 2.582789 1.048269
v 1.047625 1.583985 2.095585
v 1.047625 2.582789 2.095585
v 0.000308 1.583985 2.529398
v 0.000308 2.582789 2.529398
v -1.047009 1.583985 2.095585
v -1.047009 2.582789 2.095585
v -1.480821 1.583985 1.048269
v -1.480821 2.582789 1.048269
v -1.047009 1.583985 0.000952
v -1.047009 2.582789 0.000952
v 1.047625 2.770648 0.000952
v 0.000308 2.770648 -0.432861
v 1.481438 2.770648 1.048269
v 1.047625 2.770648 2.095585
v 0.000308 2.770648 2.529398
v -1.047009 2.770648 2.095585
v -1.480821 2.770648 1.048269
v -1.047009 2.770648 0.000952
v 0.000308 1.396126 -0.432861
v 1.047625 1.396126 0.000952
v 1.481438 1.396126 1.048269
v 1.047625 1.396126 2.095585
v 0.000308 1.396126 2.529398
v -1.047009 1.396126 2.095585
v -1.480821 1.396126 1.048269
v -1.047009 1.396126 0.000952
v 1.280303 2.644461 -0.231726
v 0.000308 2.644461 -0.761917
v 1.810494 2.644461 1.048269
v 1.280303 2.644461 2.328263
v 0.000308 2.644461 2.858455
v -1.279686 2.644461 2.328263
v -1.809878 2.644461 1.048269
v -1.279686 2.644461 -0.231726
v 0.000308 1.522313 -0.761917
v 1.280303 1.522313 -0.231726
v 1.810494 1.522313 1.048269
v 1.280303 1.522313 2.328263
v 0.000308 1.522313 2.858455
v -1.279686 1.522313 2.328263
v -1.809878 1.522313 1.048269
v -1.279686 1.522313 -0.231726
v 1.280749 2.770648 -0.232172
v 1.436165 2.701921 -0.387588
v 0.000308 2.701921 -0.982340
v 0.000308 2.770648 -0.762548
v 1.811125 2.770648 1.048269
v 2.030917 2.701921 1.048269
v 1.280749 2.770648 2.328710
v 1.436165 2.701921 2.484126
v 0.000308 2.770648 2.859086
v 0.000308 2.701921 3.078877
v -1.280132 2.770648 2.328710
v -1.435549 2.701921 2.484126
v -1.810508 2.770648 1.048269
v -2.030300 2.701921 1.048269
v -1.280132 2.770648 -0.232172
v -1.435549 2.701921 -0.387588
v 0.000308 1.396126 -0.762548
v 0.000308 1.464852 -0.982340
v 1.436165 1.464852 -0.387588
v 1.280749 1.396126 -0.232172
v 2.030917 1.464852 1.048269
v 1.811125 1.396126 1.048269
v 1.436165 1.464852 2.484126
v 1.280749 1.396126 2.328710
v 0.000308 1.464852 3.078877
v 0.000308 1.396126 2.859086
v -1.435549 1.464852 2.484126
v -1.280132 1.396126 2.328710
v -2.030300 1.464852 1.048269
v -1.810508 1.396126 1.048269
v -1.435549 1.464852 -0.387588
v -1.280132 1.396126 -0.232172
vn 0.9239 -0.0000 -0.3827
vn -0.0000 1.0000 -0.0000
vn 0.3827 -0.0000 -0.9239
vn -0.3827 -0.0000 -0.9239
vn 0.3827 -0.0000 0.9239
vn -0.3827 -0.0000 0.9239
vn -0.9239 -0.0000 0.3827
vn -0.9239 -0.0000 -0.3827
vn -0.0000 -1.0000 -0.0000
vn 0.9239 -0.0000 0.3827
vn 0.0761 -0.9800 -0.1837
vn 0.1837 -0.9800 -0.0761
vn 0.1837 -0.9800 0.0761
vn 0.0761 -0.9800 0.1837
vn -0.0761 -0.9800 0.1837
vn -0.1837 -0.9800 0.0761
vn -0.1837 -0.9800 -0.0761
vn -0.0761 -0.9800 -0.1837
vn 0.0761 0.9800 -0.1837
vn 0.1837 0.9800 -0.0761
vn 0.1837 0.9800 0.0761
vn 0.0761 0.9800 0.1837
vn -0.0761 0.9800 0.1837
vn -0.1837 0.9800 0.0761
vn -0.1837 0.9800 -0.0761
vn -0.0761 0.9800 -0.1837
vn 0.1227 -0.9472 -0.2962
vn 0.1227 0.9472 -0.2962
vn 0.2962 -0.9472 -0.1227
vn 0.2962 0.9472 -0.1227
vn 0.2962 -0.9472 0.1227
vn 0.2962 0.9472 0.1227
vn 0.1227 -0.9472 0.2962
vn 0.1227 0.9472 0.2962
vn -0.1227 -0.9472 0.2962
vn -0.1227 0.9472 0.2962
vn -0.2962 -0.9472 0.1227
vn -0.2962 0.9472 0.1227
vn -0.2962 -0.9472 -0.1227
vn -0.2962 0.9472 -0.1227
vn -0.1227 -0.9472 -0.2962
vn -0.1227 0.9472 -0.2962
vn 0.9239 -0.3419 -0.1719
vn -0.0000 0.4492 -0.8934
vn 0.3827 -0.8254 -0.4150
vn -0.3827 -0.8254 -0.4150
vn 0.3827 0.8254 0.4150
vn -0.3827 0.8254 0.4150
vn -0.9239 0.3419 0.1719
vn -0.9239 -0.3419 -0.1719
vn -0.0000 -0.4492 0.8934
vn 0.9239 0.3419 0.1719
vn 0.0761 -0.6043 0.7931
vn 0.1837 -0.5082 0.8414
vn 0.1837 -0.3722 0.9098
vn 0.0761 -0.2761 0.9581
vn -0.0761 -0.2761 0.9581
vn -0.1837 -0.3722 0.9098
vn -0.1837 -0.5082 0.8414
vn -0.0761 -0.6043 0.7931
vn 0.0761 0.2761 -0.9581
vn 0.1837 0.3722 -0.9098
vn 0.1837 0.5082 -0.8414
vn 0.0761 0.6043 -0.7931
vn -0.0761 0.6043 -0.7931
vn -0.1837 0.5082 -0.8414
vn -0.1837 0.3722 -0.9098
vn -0.0761 0.2761 -0.9581
vn 0.1227 -0.6901 0.7132
vn 0.1227 0.1608 -0.9793
vn 0.2962 -0.5351 0.7912
vn 0.2962 0.3159 -0.9014
vn 0.2962 -0.3159 0.9014
vn 0.2962 0.5351 -0.7912
vn 0.1227 -0.1609 0.9793
vn 0.1227 0.6901 -0.7132
vn -0.1227 -0.1609 0.9793
vn -0.1227 0.6901 -0.7132
vn -0.2962 -0.3159 0.9014
vn -0.2962 0.5351 -0.7912
vn -0.2962 -0.5351 0.7912
vn -0.2962 0.3159 -0.9014
vn -0.1227 -0.6901 0.7132
vn -0.1227 0.1608 -0.9793
vn -0.5350 0.8105 -0.2385
vn -0.8153 -0.5693 -0.1059
vn -0.2216 0.4757 -0.8512
vn 0.2216 -0.1378 -0.9654
vn -0.2216 0.1378 0.9654
vn 0.2216 -0.4757 0.8512
vn 0.5350 -0.8105 0.2385
vn 0.5350 -0.6705 -0.5140
vn 0.8153 0.5693 0.1059
vn -0.5350 0.6705 0.5140
vn 0.7550 0.6525 -0.0655
vn 0.6926 0.7191 0.0564
vn 0.6926 0.6912 0.2060
vn 0.7550 0.5853 0.2957
vn 0.8431 0.4634 0.2730
vn 0.9054 0.3968 0.1512
vn 0.9054 0.4246 0.0016
vn 0.8431 0.5305 -0.0881
vn -0.8431 -0.4634 -0.2730
vn -0.9054 -0.3968 -0.1512
vn -0.9054 -0.4246 -0.0016
vn -0.8431 -0.5305 0.0881
vn -0.7550 -0.6525 0.0655
vn -0.6926 -0.7191 -0.0564
vn -0.6926 -0.6912 -0.2060
vn -0.7550 -0.5853 -0.2957
vn 0.7012 0.6918 -0.1726
vn -0.8433 -0.3867 -0.3732
vn 0.6007 0.7991 0.0239
vn -0.9438 -0.2794 -0.1768
vn 0.6007 0.7542 0.2651
vn -0.9438 -0.3243 0.0645
vn 0.7012 0.5834 0.4098
vn -0.8433 -0.4951 0.2092
vn 0.8433 0.3867 0.3732
vn -0.7012 -0.6918 0.1726
vn 0.9438 0.2794 0.1768
vn -0.6007 -0.7991 -0.0239
vn 0.9438 0.3243 -0.0645
vn -0.6007 -0.7542 -0.2651
vn 0.8433 0.4951 -0.2092
vn -0.7012 -0.5834 -0.4098
vt 0.599608 0.375528
vt 0.453459 0.375528
vt 0.453459 0.313385
vt 0.599608 0.313385
vt 0.110521 0.864364
vt 0.160748 0.876240
vt 0.157839 0.888980
vt 0.105945 0.876160
vt 0.213769 0.881995
vt 0.212823 0.895196
vt 0.268120 0.878340
vt 0.269287 0.891764
vt 0.321210 0.866688
vt 0.324450 0.879627
vt 0.369984 0.847243
vt 0.375716 0.859213
vt 0.752040 0.783966
vt 0.752040 0.728568
vt 0.884612 0.728568
vt 0.884612 0.783966
vt 0.407022 0.822238
vt 0.417536 0.828542
vt 0.028353 0.823733
vt 0.063664 0.846177
vt 0.057764 0.856116
vt 0.020289 0.828921
vt 0.752040 0.839363
vt 0.884612 0.839363
vt 0.599608 0.437671
vt 0.453459 0.437671
vt 0.599608 0.499814
vt 0.453459 0.499814
vt 0.599608 0.251242
vt 0.453459 0.251242
vt 0.453459 0.189099
vt 0.599608 0.189099
vt 0.453459 0.126956
vt 0.599608 0.126956
vt 0.453459 0.064813
vt 0.599608 0.064813
vt 0.453459 0.002670
vt 0.599608 0.002670
vt 0.965468 0.528681
vt 0.949447 0.469005
vt 0.964498 0.463886
vt 0.980387 0.526721
vt 0.924148 0.420261
vt 0.933449 0.408465
vt 0.970425 0.641091
vt 0.972114 0.587010
vt 0.986053 0.587290
vt 0.983058 0.643212
vt 0.961695 0.689970
vt 0.972873 0.693579
vt 0.947384 0.733103
vt 0.956969 0.737840
vt 0.929428 0.769697
vt 0.936822 0.775099
vt 0.909405 0.795049
vt 0.912751 0.801773
vt 0.752040 0.673171
vt 0.884612 0.673171
vt 0.752040 0.617774
vt 0.884612 0.617774
vt 0.752040 0.562376
vt 0.884612 0.562376
vt 0.752040 0.506979
vt 0.884612 0.506979
vt 0.752040 0.451582
vt 0.884612 0.451582
vt 0.752040 0.894760
vt 0.884612 0.894760
vt 0.074191 0.825343
vt 0.118767 0.842425
vt 0.165609 0.852587
vt 0.214812 0.858641
vt 0.265759 0.853889
vt 0.315289 0.842947
vt 0.361050 0.824642
vt 0.399367 0.809147
vt 0.034913 0.809708
vt 0.938352 0.533210
vt 0.921809 0.476975
vt 0.946903 0.587641
vt 0.947467 0.638308
vt 0.941201 0.684365
vt 0.929377 0.725231
vt 0.913698 0.760253
vt 0.899258 0.788771
vt 0.906543 0.427814
vt 0.079742 0.812808
vt 0.123480 0.829894
vt 0.167537 0.840409
vt 0.214728 0.843530
vt 0.264474 0.839631
vt 0.312138 0.829366
vt 0.356539 0.812921
vt 0.399110 0.796790
vt 0.034939 0.796790
vt 0.923020 0.537790
vt 0.906014 0.482589
vt 0.932337 0.589929
vt 0.933941 0.638451
vt 0.928913 0.682692
vt 0.918476 0.722161
vt 0.904266 0.756747
vt 0.890842 0.787988
vt 0.890842 0.426607
vt 0.976826 0.459128
vt 0.993076 0.524718
vt 0.102375 0.886358
vt 0.052674 0.865003
vt 0.997937 0.587275
vt 0.155713 0.899888
vt 0.993856 0.644798
vt 0.212385 0.906600
vt 0.982450 0.696461
vt 0.270734 0.903231
vt 0.965194 0.741727
vt 0.327702 0.890608
vt 0.943398 0.779850
vt 0.380969 0.868905
vt 0.916774 0.808498
vt 0.426237 0.835076
vt 0.942732 0.398906
vt 0.012285 0.835007
vt 0.231665 0.071616
vt 0.374817 0.076206
vt 0.372618 0.138357
vt 0.236114 0.136914
vt 0.401249 0.079415
vt 0.400276 0.139886
vt 0.385410 0.138711
vt 0.387180 0.077441
vt 0.399015 0.200665
vt 0.384494 0.199821
vt 0.399565 0.260436
vt 0.385148 0.259796
vt 0.400488 0.319143
vt 0.386280 0.318676
vt 0.402454 0.376918
vt 0.388160 0.376731
vt 0.605592 0.293042
vt 0.605592 0.235112
vt 0.744224 0.235112
vt 0.744224 0.293042
vt 0.405126 0.434440
vt 0.390660 0.435415
vt 0.414380 0.485104
vt 0.402351 0.493157
vt 0.605592 0.350972
vt 0.744224 0.350972
vt 0.218742 0.002063
vt 0.386373 0.011771
vt 0.246776 0.433156
vt 0.378484 0.436795
vt 0.390059 0.499207
vt 0.237494 0.490815
vt 0.239548 0.199117
vt 0.371914 0.199749
vt 0.372749 0.259911
vt 0.242748 0.259286
vt 0.374058 0.318904
vt 0.245538 0.318090
vt 0.375893 0.377156
vt 0.247406 0.376023
vt 0.202030 0.074645
vt 0.191599 0.017651
vt 0.205035 0.008748
vt 0.218188 0.073324
vt 0.216768 0.478786
vt 0.222811 0.430922
vt 0.235551 0.432315
vt 0.226627 0.485123
vt 0.211953 0.199906
vt 0.207462 0.138033
vt 0.222874 0.137736
vt 0.226792 0.199779
vt 0.215954 0.259874
vt 0.230357 0.259855
vt 0.219332 0.318362
vt 0.233406 0.318511
vt 0.221779 0.375654
vt 0.235515 0.376130
vt 0.605592 0.177182
vt 0.744224 0.177182
vt 0.605592 0.119252
vt 0.744224 0.119252
vt 0.605592 0.061322
vt 0.744224 0.061322
vt 0.605592 0.003392
vt 0.744224 0.003392
vt 0.605592 0.466831
vt 0.605592 0.408901
vt 0.744224 0.408901
vt 0.744224 0.466831
vt 0.430139 0.026677
vt 0.430443 0.082068
vt 0.409301 0.025496
vt 0.429338 0.142072
vt 0.425959 0.201900
vt 0.426914 0.261559
vt 0.427310 0.319860
vt 0.430077 0.376988
vt 0.431674 0.433629
vt 0.433564 0.482705
vt 0.171664 0.076069
vt 0.170117 0.020102
vt 0.178063 0.139402
vt 0.183817 0.200963
vt 0.188688 0.260599
vt 0.192693 0.318671
vt 0.195490 0.375299
vt 0.196558 0.429748
vt 0.198338 0.477879
vt 0.445985 0.020473
vt 0.447979 0.083121
vt 0.444891 0.142613
vt 0.443963 0.202110
vt 0.443588 0.262458
vt 0.443408 0.320521
vt 0.444768 0.376412
vt 0.447979 0.433333
vt 0.446453 0.487341
vt 0.153445 0.078037
vt 0.153821 0.014204
vt 0.160485 0.142190
vt 0.166879 0.203484
vt 0.172240 0.262827
vt 0.176653 0.320586
vt 0.179884 0.376839
vt 0.181840 0.431352
vt 0.186559 0.482968
vt 0.398425 0.018287
vt 0.189099 0.651196
vt 0.189099 0.505047
vt 0.251242 0.505047
vt 0.251242 0.651196
vt 0.589904 0.620259
vt 0.585533 0.672352
vt 0.572361 0.671406
vt 0.577275 0.617444
vt 0.587927 0.726109
vt 0.574631 0.727208
vt 0.599914 0.779466
vt 0.586835 0.782792
vt 0.619820 0.828702
vt 0.607914 0.834684
vt 0.646075 0.864824
vt 0.640093 0.875632
vt 0.391137 0.791584
vt 0.335740 0.791584
vt 0.335740 0.659012
vt 0.391137 0.659012
vt 0.644240 0.487169
vt 0.620689 0.522029
vt 0.610757 0.515970
vt 0.639203 0.478841
vt 0.602232 0.569393
vt 0.590272 0.564745
vt 0.446534 0.791584
vt 0.446534 0.659012
vt 0.126956 0.651196
vt 0.126956 0.505047
vt 0.064813 0.651196
vt 0.064813 0.505047
vt 0.313385 0.651196
vt 0.313385 0.505047
vt 0.375528 0.505047
vt 0.375528 0.651196
vt 0.437671 0.505047
vt 0.437671 0.651196
vt 0.499814 0.505047
vt 0.499814 0.651196
vt 0.002670 0.651196
vt 0.002670 0.505047
vt 0.482142 0.889602
vt 0.423814 0.896248
vt 0.421853 0.881329
vt 0.482422 0.875663
vt 0.364138 0.912269
vt 0.359019 0.897218
vt 0.585102 0.900020
vt 0.536223 0.891291
vt 0.538344 0.878658
vt 0.588711 0.888843
vt 0.628235 0.914332
vt 0.632972 0.904747
vt 0.664830 0.932288
vt 0.670231 0.924894
vt 0.690181 0.952311
vt 0.696906 0.948965
vt 0.315393 0.937568
vt 0.303597 0.928267
vt 0.280342 0.791584
vt 0.280342 0.659012
vt 0.224945 0.791584
vt 0.224945 0.659012
vt 0.169548 0.791584
vt 0.169548 0.659012
vt 0.114150 0.791584
vt 0.114150 0.659012
vt 0.058753 0.791584
vt 0.058753 0.659012
vt 0.003356 0.791584
vt 0.003356 0.659012
vt 0.624526 0.577756
vt 0.612917 0.625172
vt 0.609842 0.673550
vt 0.611404 0.723548
vt 0.624002 0.773397
vt 0.642030 0.819517
vt 0.659045 0.856503
vt 0.658285 0.494427
vt 0.641222 0.532594
vt 0.482773 0.914813
vt 0.428342 0.923364
vt 0.533440 0.914249
vt 0.579497 0.920515
vt 0.620363 0.932339
vt 0.655385 0.948018
vt 0.683903 0.962457
vt 0.372107 0.939907
vt 0.322946 0.955173
vt 0.637381 0.582574
vt 0.626079 0.628112
vt 0.622277 0.673611
vt 0.626439 0.721155
vt 0.637865 0.770083
vt 0.654287 0.815531
vt 0.669802 0.855921
vt 0.669802 0.494819
vt 0.654307 0.537473
vt 0.485061 0.929378
vt 0.432922 0.938695
vt 0.533583 0.927775
vt 0.577824 0.932803
vt 0.617293 0.943240
vt 0.651879 0.957449
vt 0.683120 0.970874
vt 0.377721 0.955702
vt 0.321739 0.970874
vt 0.419850 0.868640
vt 0.482407 0.863779
vt 0.566382 0.615440
vt 0.579914 0.561123
vt 0.539930 0.867860
vt 0.561126 0.670967
vt 0.591593 0.879266
vt 0.563198 0.728547
vt 0.636859 0.896522
vt 0.575721 0.786121
vt 0.674982 0.918318
vt 0.598221 0.840191
vt 0.703630 0.944942
vt 0.633811 0.884612
vt 0.294038 0.918984
vt 0.354260 0.884890
vt 0.601822 0.510698
vt 0.633253 0.470574
vt 0.002063 0.126349
vt 0.148212 0.126349
vt 0.148212 0.188492
vt 0.002063 0.188492
vt 0.674959 0.568896
vt 0.663082 0.619122
vt 0.650343 0.616213
vt 0.663163 0.564320
vt 0.657328 0.672143
vt 0.644127 0.671197
vt 0.660982 0.726495
vt 0.647559 0.727661
vt 0.672635 0.779584
vt 0.659696 0.782824
vt 0.692079 0.828358
vt 0.680110 0.834090
vt 0.752040 0.335740
vt 0.752040 0.280342
vt 0.884612 0.280342
vt 0.884612 0.335740
vt 0.717085 0.865396
vt 0.710781 0.875911
vt 0.715590 0.486727
vt 0.693146 0.522038
vt 0.683207 0.516139
vt 0.710402 0.478664
vt 0.752040 0.391137
vt 0.884612 0.391137
vt 0.002063 0.064206
vt 0.148212 0.064206
vt 0.002063 0.002063
vt 0.148212 0.002063
vt 0.002063 0.250635
vt 0.148212 0.250635
vt 0.148212 0.312778
vt 0.002063 0.312778
vt 0.148212 0.374921
vt 0.002063 0.374921
vt 0.148212 0.437064
vt 0.002063 0.437064
vt 0.148212 0.499207
vt 0.002063 0.499207
vt 0.965468 0.136272
vt 0.949447 0.076596
vt 0.964498 0.071477
vt 0.980387 0.134312
vt 0.924148 0.027852
vt 0.933449 0.016056
vt 0.970425 0.248682
vt 0.972114 0.194601
vt 0.986053 0.194881
vt 0.983058 0.250803
vt 0.961695 0.297561
vt 0.972873 0.301170
vt 0.947384 0.340694
vt 0.956969 0.345431
vt 0.929428 0.377288
vt 0.936822 0.382690
vt 0.909405 0.402640
vt 0.912751 0.409365
vt 0.752040 0.224945
vt 0.884612 0.224945
vt 0.752040 0.169548
vt 0.884612 0.169548
vt 0.752040 0.114150
vt 0.884612 0.114150
vt 0.752040 0.058753
vt 0.884612 0.058753
vt 0.752040 0.003356
vt 0.884612 0.003356
vt 0.752040 0.446534
vt 0.884612 0.446534
vt 0.713980 0.532565
vt 0.696898 0.577141
vt 0.686736 0.623983
vt 0.680682 0.673186
vt 0.685434 0.724133
vt 0.696376 0.773664
vt 0.714681 0.819424
vt 0.730176 0.857741
vt 0.729615 0.493287
vt 0.938352 0.140801
vt 0.921809 0.084566
vt 0.946903 0.195232
vt 0.947467 0.245899
vt 0.941201 0.291956
vt 0.929377 0.332822
vt 0.913698 0.367844
vt 0.899258 0.396362
vt 0.906543 0.035404
vt 0.726515 0.538117
vt 0.709429 0.581855
vt 0.698914 0.625911
vt 0.695793 0.673102
vt 0.699692 0.722849
vt 0.709957 0.770512
vt 0.726402 0.814913
vt 0.742533 0.857484
vt 0.742533 0.493313
vt 0.923020 0.145381
vt 0.906014 0.090180
vt 0.932337 0.197520
vt 0.933941 0.246042
vt 0.928913 0.290283
vt 0.918476 0.329752
vt 0.904266 0.364338
vt 0.890842 0.395579
vt 0.890842 0.034198
vt 0.976826 0.066719
vt 0.993076 0.132309
vt 0.652965 0.560749
vt 0.674320 0.511049
vt 0.997937 0.194866
vt 0.639435 0.614087
vt 0.993856 0.252389
vt 0.632723 0.670760
vt 0.982450 0.304052
vt 0.636092 0.729108
vt 0.965194 0.349318
vt 0.648714 0.786077
vt 0.943398 0.387441
vt 0.670417 0.839343
vt 0.916774 0.416089
vt 0.704247 0.884612
vt 0.942732 0.006497
vt 0.704316 0.470659
s 0
usemtl Материал
f 67/1/1 50/2/1 54/3/1 69/4/1
f 17/5/2 19/6/2 53/7/2 49/8/2
f 19/6/2 20/9/2 55/10/2 53/7/2
f 20/9/2 21/11/2 57/12/2 55/10/2
f 21/11/2 22/13/2 59/14/2 57/12/2
f 22/13/2 23/15/2 61/16/2 59/14/2
f 38/17/3 37/18/3 45/19/3 46/20/3
f 23/15/2 24/21/2 63/22/2 61/16/2
f 24/23/2 18/24/2 52/25/2 63/26/2
f 39/27/1 38/17/1 46/20/1 47/28/1
f 66/29/3 51/30/3 50/2/3 67/1/3
f 79/31/4 64/32/4 51/30/4 66/29/4
f 71/33/5 56/34/5 58/35/5 73/36/5
f 73/36/6 58/35/6 60/37/6 75/38/6
f 75/38/7 60/37/7 62/39/7 77/40/7
f 77/40/8 62/39/8 64/41/8 79/42/8
f 26/43/9 25/44/9 65/45/9 68/46/9
f 69/4/10 54/3/10 56/34/10 71/33/10
f 25/44/9 32/47/9 80/48/9 65/45/9
f 28/49/9 27/50/9 70/51/9 72/52/9
f 29/53/9 28/49/9 72/52/9 74/54/9
f 30/55/9 29/53/9 74/54/9 76/56/9
f 31/57/9 30/55/9 76/56/9 78/58/9
f 32/59/9 31/57/9 78/58/9 80/60/9
f 27/50/9 26/43/9 68/46/9 70/51/9
f 37/18/4 36/61/4 44/62/4 45/19/4
f 36/61/8 35/63/8 43/64/8 44/62/8
f 35/63/7 33/65/7 42/66/7 43/64/7
f 33/65/6 34/67/6 41/68/6 42/66/6
f 34/67/5 40/69/5 48/70/5 41/68/5
f 40/71/10 39/27/10 47/28/10 48/72/10
f 2/73/6 4/74/6 17/5/6 18/24/6
f 4/74/7 6/75/7 19/6/7 17/5/7
f 6/75/8 8/76/8 20/9/8 19/6/8
f 8/76/4 10/77/4 21/11/4 20/9/4
f 10/77/3 12/78/3 22/13/3 21/11/3
f 12/78/1 14/79/1 23/15/1 22/13/1
f 14/79/10 16/80/10 24/21/10 23/15/10
f 16/81/5 2/73/5 18/24/5 24/23/5
f 3/82/6 1/83/6 25/44/6 26/43/6
f 5/84/7 3/82/7 26/43/7 27/50/7
f 7/85/8 5/84/8 27/50/8 28/49/8
f 9/86/4 7/85/4 28/49/4 29/53/4
f 11/87/3 9/86/3 29/53/3 30/55/3
f 13/88/1 11/87/1 30/55/1 31/57/1
f 15/89/10 13/88/10 31/57/10 32/59/10
f 1/83/5 15/90/5 32/47/5 25/44/5
f 34/91/11 33/92/11 4/74/11 2/73/11
f 33/92/12 35/93/12 6/75/12 4/74/12
f 35/93/13 36/94/13 8/76/13 6/75/13
f 36/94/14 37/95/14 10/77/14 8/76/14
f 37/95/15 38/96/15 12/78/15 10/77/15
f 38/96/16 39/97/16 14/79/16 12/78/16
f 39/97/17 40/98/17 16/80/17 14/79/17
f 40/99/18 34/91/18 2/73/18 16/81/18
f 42/100/19 41/101/19 1/83/19 3/82/19
f 43/102/20 42/100/20 3/82/20 5/84/20
f 44/103/21 43/102/21 5/84/21 7/85/21
f 45/104/22 44/103/22 7/85/22 9/86/22
f 46/105/23 45/104/23 9/86/23 11/87/23
f 47/106/24 46/105/24 11/87/24 13/88/24
f 48/107/25 47/106/25 13/88/25 15/89/25
f 41/101/26 48/108/26 15/90/26 1/83/26
f 66/109/27 67/110/27 68/46/27 65/45/27
f 50/111/28 51/112/28 52/25/28 49/8/28
f 67/110/29 69/113/29 70/51/29 68/46/29
f 54/114/30 50/111/30 49/8/30 53/7/30
f 69/113/31 71/115/31 72/52/31 70/51/31
f 56/116/32 54/114/32 53/7/32 55/10/32
f 71/115/33 73/117/33 74/54/33 72/52/33
f 58/118/34 56/116/34 55/10/34 57/12/34
f 73/117/35 75/119/35 76/56/35 74/54/35
f 60/120/36 58/118/36 57/12/36 59/14/36
f 75/119/37 77/121/37 78/58/37 76/56/37
f 62/122/38 60/120/38 59/14/38 61/16/38
f 77/121/39 79/123/39 80/60/39 78/58/39
f 64/124/40 62/122/40 61/16/40 63/22/40
f 79/125/41 66/109/41 65/45/41 80/48/41
f 51/112/42 64/126/42 63/26/42 52/25/42
f 18/24/2 17/5/2 49/8/2 52/25/2
f 147/127/43 130/128/43 134/129/43 149/130/43
f 97/131/44 99/132/44 133/133/44 129/134/44
f 99/132/44 100/135/44 135/136/44 133/133/44
f 100/135/44 101/137/44 137/138/44 135/136/44
f 101/137/44 102/139/44 139/140/44 137/138/44
f 102/139/44 103/141/44 141/142/44 139/140/44
f 118/143/45 117/144/45 125/145/45 126/146/45
f 103/141/44 104/147/44 143/148/44 141/142/44
f 104/147/44 98/149/44 132/150/44 143/148/44
f 119/151/43 118/143/43 126/146/43 127/152/43
f 146/153/45 131/154/45 130/128/45 147/127/45
f 159/155/46 144/156/46 131/157/46 146/158/46
f 151/159/47 136/160/47 138/161/47 153/162/47
f 153/162/48 138/161/48 140/163/48 155/164/48
f 155/164/49 140/163/49 142/165/49 157/166/49
f 157/166/50 142/165/50 144/156/50 159/155/50
f 106/167/51 105/168/51 145/169/51 148/170/51
f 149/130/52 134/129/52 136/160/52 151/159/52
f 105/171/51 112/172/51 160/173/51 145/174/51
f 108/175/51 107/176/51 150/177/51 152/178/51
f 109/179/51 108/175/51 152/178/51 154/180/51
f 110/181/51 109/179/51 154/180/51 156/182/51
f 111/183/51 110/181/51 156/182/51 158/184/51
f 112/172/51 111/183/51 158/184/51 160/173/51
f 107/176/51 106/167/51 148/170/51 150/177/51
f 117/144/46 116/185/46 124/186/46 125/145/46
f 116/185/50 115/187/50 123/188/50 124/186/50
f 115/187/49 113/189/49 122/190/49 123/188/49
f 113/189/48 114/191/48 121/192/48 122/190/48
f 114/193/47 120/194/47 128/195/47 121/196/47
f 120/194/52 119/151/52 127/152/52 128/195/52
f 82/197/48 84/198/48 97/131/48 98/199/48
f 84/198/49 86/200/49 99/132/49 97/131/49
f 86/200/50 88/201/50 100/135/50 99/132/50
f 88/201/46 90/202/46 101/137/46 100/135/46
f 90/202/45 92/203/45 102/139/45 101/137/45
f 92/203/43 94/204/43 103/141/43 102/139/43
f 94/204/52 96/205/52 104/147/52 103/141/52
f 96/205/47 82/206/47 98/149/47 104/147/47
f 83/207/48 81/208/48 105/168/48 106/167/48
f 85/209/49 83/207/49 106/167/49 107/176/49
f 87/210/50 85/209/50 107/176/50 108/175/50
f 89/211/46 87/210/46 108/175/46 109/179/46
f 91/212/45 89/211/45 109/179/45 110/181/45
f 93/213/43 91/212/43 110/181/43 111/183/43
f 95/214/52 93/213/52 111/183/52 112/172/52
f 81/215/47 95/214/47 112/172/47 105/171/47
f 114/216/53 113/217/53 84/198/53 82/197/53
f 113/217/54 115/218/54 86/200/54 84/198/54
f 115/218/55 116/219/55 88/201/55 86/200/55
f 116/219/56 117/220/56 90/202/56 88/201/56
f 117/220/57 118/221/57 92/203/57 90/202/57
f 118/221/58 119/222/58 94/204/58 92/203/58
f 119/222/59 120/223/59 96/205/59 94/204/59
f 120/223/60 114/224/60 82/206/60 96/205/60
f 122/225/61 121/226/61 81/208/61 83/207/61
f 123/227/62 122/225/62 83/207/62 85/209/62
f 124/228/63 123/227/63 85/209/63 87/210/63
f 125/229/64 124/228/64 87/210/64 89/211/64
f 126/230/65 125/229/65 89/211/65 91/212/65
f 127/231/66 126/230/66 91/212/66 93/213/66
f 128/232/67 127/231/67 93/213/67 95/214/67
f 121/233/68 128/232/68 95/214/68 81/215/68
f 146/153/69 147/127/69 148/170/69 145/169/69
f 130/128/70 131/154/70 132/234/70 129/134/70
f 147/127/71 149/130/71 150/177/71 148/170/71
f 134/129/72 130/128/72 129/134/72 133/133/72
f 149/130/73 151/159/73 152/178/73 150/177/73
f 136/160/74 134/129/74 133/133/74 135/136/74
f 151/159/75 153/162/75 154/180/75 152/178/75
f 138/161/76 136/160/76 135/136/76 137/138/76
f 153/162/77 155/164/77 156/182/77 154/180/77
f 140/163/78 138/161/78 137/138/78 139/140/78
f 155/164/79 157/166/79 158/184/79 156/182/79
f 142/165/80 140/163/80 139/140/80 141/142/80
f 157/166/81 159/155/81 160/173/81 158/184/81
f 144/156/82 142/165/82 141/142/82 143/148/82
f 159/155/83 146/158/83 145/174/83 160/173/83
f 131/157/84 144/156/84 143/148/84 132/150/84
f 98/199/44 97/131/44 129/134/44 132/234/44
f 227/235/85 210/236/85 214/237/85 229/238/85
f 177/239/86 179/240/86 213/241/86 209/242/86
f 179/240/86 180/243/86 215/244/86 213/241/86
f 180/243/86 181/245/86 217/246/86 215/244/86
f 181/245/86 182/247/86 219/248/86 217/246/86
f 182/247/86 183/249/86 221/250/86 219/248/86
f 198/251/87 197/252/87 205/253/87 206/254/87
f 183/255/86 184/256/86 223/257/86 221/258/86
f 184/256/86 178/259/86 212/260/86 223/257/86
f 199/261/85 198/251/85 206/254/85 207/262/85
f 226/263/87 211/264/87 210/236/87 227/235/87
f 239/265/88 224/266/88 211/264/88 226/263/88
f 231/267/89 216/268/89 218/269/89 233/270/89
f 233/270/90 218/269/90 220/271/90 235/272/90
f 235/272/91 220/271/91 222/273/91 237/274/91
f 237/275/92 222/276/92 224/266/92 239/265/92
f 186/277/93 185/278/93 225/279/93 228/280/93
f 229/238/94 214/237/94 216/268/94 231/267/94
f 185/278/93 192/281/93 240/282/93 225/279/93
f 188/283/93 187/284/93 230/285/93 232/286/93
f 189/287/93 188/283/93 232/286/93 234/288/93
f 190/289/93 189/287/93 234/288/93 236/290/93
f 191/291/93 190/289/93 236/290/93 238/292/93
f 192/281/93 191/293/93 238/294/93 240/282/93
f 187/284/93 186/277/93 228/280/93 230/285/93
f 197/252/88 196/295/88 204/296/88 205/253/88
f 196/295/92 195/297/92 203/298/92 204/296/92
f 195/297/91 193/299/91 202/300/91 203/298/91
f 193/299/90 194/301/90 201/302/90 202/300/90
f 194/301/89 200/303/89 208/304/89 201/302/89
f 200/303/94 199/305/94 207/306/94 208/304/94
f 162/307/90 164/308/90 177/239/90 178/259/90
f 164/308/91 166/309/91 179/240/91 177/239/91
f 166/309/92 168/310/92 180/243/92 179/240/92
f 168/310/88 170/311/88 181/245/88 180/243/88
f 170/311/87 172/312/87 182/247/87 181/245/87
f 172/312/85 174/313/85 183/249/85 182/247/85
f 174/314/94 176/315/94 184/256/94 183/255/94
f 176/315/89 162/307/89 178/259/89 184/256/89
f 163/316/90 161/317/90 185/278/90 186/277/90
f 165/318/91 163/316/91 186/277/91 187/284/91
f 167/319/92 165/318/92 187/284/92 188/283/92
f 169/320/88 167/319/88 188/283/88 189/287/88
f 171/321/87 169/320/87 189/287/87 190/289/87
f 173/322/85 171/321/85 190/289/85 191/291/85
f 175/323/94 173/324/94 191/293/94 192/281/94
f 161/317/89 175/323/89 192/281/89 185/278/89
f 194/325/95 193/326/95 164/308/95 162/307/95
f 193/326/96 195/327/96 166/309/96 164/308/96
f 195/327/97 196/328/97 168/310/97 166/309/97
f 196/328/98 197/329/98 170/311/98 168/310/98
f 197/329/99 198/330/99 172/312/99 170/311/99
f 198/330/100 199/331/100 174/313/100 172/312/100
f 199/332/101 200/333/101 176/315/101 174/314/101
f 200/333/102 194/325/102 162/307/102 176/315/102
f 202/334/103 201/335/103 161/317/103 163/316/103
f 203/336/104 202/334/104 163/316/104 165/318/104
f 204/337/105 203/336/105 165/318/105 167/319/105
f 205/338/106 204/337/106 167/319/106 169/320/106
f 206/339/107 205/338/107 169/320/107 171/321/107
f 207/340/108 206/339/108 171/321/108 173/322/108
f 208/341/109 207/342/109 173/324/109 175/323/109
f 201/335/110 208/341/110 175/323/110 161/317/110
f 226/343/111 227/344/111 228/280/111 225/279/111
f 210/345/112 211/346/112 212/260/112 209/242/112
f 227/344/113 229/347/113 230/285/113 228/280/113
f 214/348/114 210/345/114 209/242/114 213/241/114
f 229/347/115 231/349/115 232/286/115 230/285/115
f 216/350/116 214/348/116 213/241/116 215/244/116
f 231/349/117 233/351/117 234/288/117 232/286/117
f 218/352/118 216/350/118 215/244/118 217/246/118
f 233/351/119 235/353/119 236/290/119 234/288/119
f 220/354/120 218/352/120 217/246/120 219/248/120
f 235/353/121 237/355/121 238/292/121 236/290/121
f 222/356/122 220/354/122 219/248/122 221/250/122
f 237/357/123 239/358/123 240/282/123 238/294/123
f 224/359/124 222/360/124 221/258/124 223/257/124
f 239/358/125 226/343/125 225/279/125 240/282/125
f 211/346/126 224/359/126 223/257/126 212/260/126
f 178/259/86 177/239/86 209/242/86 212/260/86
f 307/361/1 290/362/1 294/363/1 309/364/1
f 257/365/2 259/366/2 293/367/2 289/368/2
f 259/366/2 260/369/2 295/370/2 293/367/2
f 260/369/2 261/371/2 297/372/2 295/370/2
f 261/371/2 262/373/2 299/374/2 297/372/2
f 262/373/2 263/375/2 301/376/2 299/374/2
f 278/377/3 277/378/3 285/379/3 286/380/3
f 263/375/2 264/381/2 303/382/2 301/376/2
f 264/383/2 258/384/2 292/385/2 303/386/2
f 279/387/1 278/377/1 286/380/1 287/388/1
f 306/389/3 291/390/3 290/362/3 307/361/3
f 319/391/4 304/392/4 291/390/4 306/389/4
f 311/393/5 296/394/5 298/395/5 313/396/5
f 313/396/6 298/395/6 300/397/6 315/398/6
f 315/398/7 300/397/7 302/399/7 317/400/7
f 317/400/8 302/399/8 304/401/8 319/402/8
f 266/403/9 265/404/9 305/405/9 308/406/9
f 309/364/10 294/363/10 296/394/10 311/393/10
f 265/404/9 272/407/9 320/408/9 305/405/9
f 268/409/9 267/410/9 310/411/9 312/412/9
f 269/413/9 268/409/9 312/412/9 314/414/9
f 270/415/9 269/413/9 314/414/9 316/416/9
f 271/417/9 270/415/9 316/416/9 318/418/9
f 272/419/9 271/417/9 318/418/9 320/420/9
f 267/410/9 266/403/9 308/406/9 310/411/9
f 277/378/4 276/421/4 284/422/4 285/379/4
f 276/421/8 275/423/8 283/424/8 284/422/8
f 275/423/7 273/425/7 282/426/7 283/424/7
f 273/425/6 274/427/6 281/428/6 282/426/6
f 274/427/5 280/429/5 288/430/5 281/428/5
f 280/431/10 279/387/10 287/388/10 288/432/10
f 242/433/6 244/434/6 257/365/6 258/384/6
f 244/434/7 246/435/7 259/366/7 257/365/7
f 246/435/8 248/436/8 260/369/8 259/366/8
f 248/436/4 250/437/4 261/371/4 260/369/4
f 250/437/3 252/438/3 262/373/3 261/371/3
f 252/438/1 254/439/1 263/375/1 262/373/1
f 254/439/10 256/440/10 264/381/10 263/375/10
f 256/441/5 242/433/5 258/384/5 264/383/5
f 243/442/6 241/443/6 265/404/6 266/403/6
f 245/444/7 243/442/7 266/403/7 267/410/7
f 247/445/8 245/444/8 267/410/8 268/409/8
f 249/446/4 247/445/4 268/409/4 269/413/4
f 251/447/3 249/446/3 269/413/3 270/415/3
f 253/448/1 251/447/1 270/415/1 271/417/1
f 255/449/10 253/448/10 271/417/10 272/419/10
f 241/443/5 255/450/5 272/407/5 265/404/5
f 274/451/11 273/452/11 244/434/11 242/433/11
f 273/452/12 275/453/12 246/435/12 244/434/12
f 275/453/13 276/454/13 248/436/13 246/435/13
f 276/454/14 277/455/14 250/437/14 248/436/14
f 277/455/15 278/456/15 252/438/15 250/437/15
f 278/456/16 279/457/16 254/439/16 252/438/16
f 279/457/17 280/458/17 256/440/17 254/439/17
f 280/459/18 274/451/18 242/433/18 256/441/18
f 282/460/19 281/461/19 241/443/19 243/442/19
f 283/462/20 282/460/20 243/442/20 245/444/20
f 284/463/21 283/462/21 245/444/21 247/445/21
f 285/464/22 284/463/22 247/445/22 249/446/22
f 286/465/23 285/464/23 249/446/23 251/447/23
f 287/466/24 286/465/24 251/447/24 253/448/24
f 288/467/25 287/466/25 253/448/25 255/449/25
f 281/461/26 288/468/26 255/450/26 241/443/26
f 306/469/27 307/470/27 308/406/27 305/405/27
f 290/471/28 291/472/28 292/385/28 289/368/28
f 307/470/29 309/473/29 310/411/29 308/406/29
f 294/474/30 290/471/30 289/368/30 293/367/30
f 309/473/31 311/475/31 312/412/31 310/411/31
f 296/476/32 294/474/32 293/367/32 295/370/32
f 311/475/33 313/477/33 314/414/33 312/412/33
f 298/478/34 296/476/34 295/370/34 297/372/34
f 313/477/35 315/479/35 316/416/35 314/414/35
f 300/480/36 298/478/36 297/372/36 299/374/36
f 315/479/37 317/481/37 318/418/37 316/416/37
f 302/482/38 300/480/38 299/374/38 301/376/38
f 317/481/39 319/483/39 320/420/39 318/418/39
f 304/484/40 302/482/40 301/376/40 303/382/40
f 319/485/41 306/469/41 305/405/41 320/408/41
f 291/472/42 304/486/42 303/386/42 292/385/42
f 258/384/2 257/365/2 289/368/2 292/385/2
