# Blender 4.2.2 LTS
# www.blender.org
mtllib trashcan.mtl
o trashcan
v -0.066310 -0.018930 -1.083836
v -0.066310 3.763488 -1.321611
v 0.640797 -0.018930 -0.790943
v 0.808929 3.763488 -0.959075
v 0.933690 -0.018930 -0.083836
v 1.171465 3.763488 -0.083836
v 0.640797 -0.018930 0.623271
v 0.808929 3.763488 0.791403
v -0.066310 -0.018930 0.916164
v -0.066310 3.763488 1.153939
v -0.773417 -0.018930 0.623271
v -0.941549 3.763488 0.791403
v -1.066310 -0.018930 -0.083836
v -1.304085 3.763488 -0.083836
v -0.773417 -0.018930 -0.790943
v -0.941549 3.763488 -0.959075
v 0.943381 3.763488 -1.093526
v -0.066310 3.763488 -1.511754
v 1.361608 3.763488 -0.083836
v 0.943381 3.763488 0.925855
v -0.066310 3.763488 1.344082
v -1.076000 3.763488 0.925855
v -1.494228 3.763488 -0.083836
v -1.076000 3.763488 -1.093526
v 0.573491 0.215019 -0.723637
v -0.066310 0.215019 -0.988651
v 0.838505 0.215019 -0.083836
v 0.573491 0.215019 0.555965
v -0.066310 0.215019 0.820979
v -0.706111 0.215019 0.555965
v -0.971125 0.215019 -0.083836
v -0.706111 0.215019 -0.723637
v -0.978917 3.914024 -0.822795
v -1.060212 4.395358 -0.868586
v 0.051160 3.958307 -1.118322
v 0.057410 4.443405 -1.189230
v 0.990624 3.920861 -0.602045
v 1.076719 4.402777 -0.629075
v 1.289149 3.823622 0.423607
v 1.400616 4.297273 0.483747
v 0.771864 3.723551 1.357822
v 0.839367 4.188697 1.497361
v -0.258213 3.679268 1.653349
v -0.278256 4.140651 1.818004
v -1.197677 3.716714 1.137073
v -1.297564 4.181279 1.257850
v -1.496202 3.813953 0.111420
v -1.621461 4.286782 0.145028
v -1.053316 3.922118 -0.915460
v 0.064307 3.970164 -1.236103
v 1.083615 3.929536 -0.675949
v 1.407512 3.824033 0.436873
v 0.846263 3.715457 1.450487
v -0.271359 3.667410 1.771131
v -1.290668 3.708039 1.210976
v -1.614565 3.813542 0.098154
v -0.264924 4.595109 0.155559
v -0.128852 4.598907 0.137247
v 0.015568 4.590899 0.239338
v 0.083736 4.575778 0.402028
v 0.035721 4.562401 0.530016
v -0.100351 4.558604 0.548328
v -0.244770 4.566612 0.446237
v -0.312939 4.581733 0.283547
v -0.985830 4.388401 -0.775808
v 0.044247 4.432684 -1.071336
v 0.983711 4.395238 -0.555059
v 1.282236 4.297999 0.470593
v 0.764951 4.197928 1.404809
v -0.265126 4.153646 1.700336
v -1.204590 4.191091 1.184059
v -1.503115 4.288330 0.158407
v -0.034567 4.501478 0.646179
v -0.000700 4.481061 0.709925
v -0.016033 4.514557 0.671035
v -0.050045 4.730922 0.653637
v -0.044156 4.757501 0.687695
v -0.073407 4.748558 0.626310
v -0.398433 4.541064 0.192979
v -0.417408 4.558224 0.171118
v -0.454678 4.530451 0.144490
v -0.366682 4.780464 0.261033
v -0.419154 4.798298 0.220630
v -0.389604 4.767863 0.230712
v 0.170627 4.520621 0.483104
v 0.189161 4.533699 0.507961
v 0.227293 4.502331 0.528731
v 0.131787 4.767701 0.463236
v 0.183838 4.778770 0.506501
v 0.155149 4.750064 0.490562
v -0.212214 4.577366 0.008043
v -0.193239 4.560207 0.029904
v -0.226685 4.551721 -0.036704
v -0.184410 4.787005 0.067637
v -0.191161 4.819568 0.039436
v -0.161488 4.799607 0.097958
v -0.203828 4.834570 0.048787
v -0.193252 4.821295 0.037007
v -0.226750 4.821969 0.018466
v -0.243517 4.535320 -0.036280
v -0.262491 4.552480 -0.058141
v -0.229168 4.550491 -0.039973
v 0.229821 4.500557 0.531702
v 0.240325 4.497777 0.568122
v 0.221791 4.484698 0.543265
v 0.173240 4.793548 0.518430
v 0.196603 4.775911 0.545756
v 0.185885 4.780046 0.509227
v -0.457162 4.529222 0.141221
v -0.467685 4.533337 0.104934
v -0.448711 4.516177 0.126795
v 0.016597 4.465555 0.706340
v 0.035131 4.478634 0.731197
v 0.001827 4.479287 0.712896
v -0.008591 4.756768 0.708831
v -0.031954 4.774405 0.681504
v -0.042108 4.758778 0.690421
v -0.409022 4.815427 0.211862
v -0.431944 4.802826 0.181541
v -0.421246 4.800025 0.218202
vn 0.3806 -0.1040 -0.9189
vn 0.9189 -0.1040 -0.3806
vn 0.9189 -0.1040 0.3806
vn 0.3806 -0.1040 0.9189
vn -0.3806 -0.1040 0.9189
vn -0.9189 -0.1040 0.3806
vn 0.3813 0.0864 0.9204
vn -0.9189 -0.1040 -0.3806
vn -0.3806 -0.1040 -0.9189
vn -0.0000 -1.0000 -0.0000
vn -0.0000 1.0000 -0.0000
vn 0.9204 0.0864 -0.3813
vn -0.3813 0.0864 -0.9204
vn -0.9204 0.0864 0.3813
vn 0.9204 0.0864 0.3813
vn 0.3813 0.0864 -0.9204
vn -0.9204 0.0864 -0.3813
vn -0.3813 0.0864 0.9204
vn -0.2782 0.0907 -0.9562
vn 0.4824 0.0933 -0.8710
vn 0.9604 0.0413 -0.2756
vn 0.8759 -0.0349 0.4813
vn 0.2782 -0.0907 0.9562
vn -0.4824 -0.0933 0.8710
vn -0.0145 0.9950 0.0986
vn -0.9604 -0.0413 0.2756
vn -0.8759 0.0349 -0.4813
vn 0.0145 -0.9950 -0.0986
vn -0.0812 0.9852 -0.1509
vn 0.1080 0.9873 -0.1168
vn 0.2211 0.9750 0.0240
vn 0.2124 0.9533 0.2149
vn 0.0532 0.9384 0.3414
vn -0.1362 0.9416 0.3079
vn -0.2492 0.9539 0.1671
vn -0.2405 0.9704 -0.0243
vn -0.7808 -0.0728 0.6205
vn 0.7808 0.0728 -0.6205
vn 0.6053 0.1579 0.7802
vn -0.6118 0.2903 -0.7358
vn 0.7808 0.0729 -0.6206
vn -0.6053 -0.1579 -0.7802
vn -0.7808 -0.0728 0.6206
vn 0.6118 -0.2903 0.7358
vn -0.7809 -0.0728 0.6204
vn -0.8336 0.2111 0.5105
vn -0.8092 -0.3871 0.4420
vn -0.6613 0.1924 0.7250
vn -0.6402 -0.4055 0.6525
vn 0.6534 0.3498 -0.6713
vn 0.6498 -0.2510 -0.7175
vn 0.8257 0.3311 -0.4568
vn 0.8188 -0.2694 -0.5070
vn 0.3267 0.7595 -0.5626
vn 0.3777 -0.5403 -0.7519
vn 0.7679 -0.5827 -0.2660
vn 0.6830 0.7207 -0.1188
vn -0.7500 -0.6455 0.1443
vn -0.3598 -0.6879 0.6303
vn -0.3469 0.6246 0.6997
vn -0.7032 0.6634 0.2559
vn -0.5404 -0.7568 0.3678
vn -0.4817 -0.0052 0.8763
vn -0.5609 0.6541 0.5075
vn -0.9580 0.0466 0.2831
vn -0.2691 -0.8571 -0.4392
vn -0.2504 0.9464 -0.2040
vn 0.4791 0.1806 -0.8590
vn 0.5609 -0.6541 -0.5075
vn 0.5404 0.7568 -0.3678
vn 0.9554 0.1288 -0.2657
vn 0.2950 -0.9185 0.2633
vn 0.2236 0.8948 0.3864
vn 0.9580 -0.0466 -0.2831
vn 0.4817 0.0052 -0.8763
vn -0.9554 -0.1288 0.2657
vn -0.4791 -0.1806 0.8590
vn 0.2504 -0.9464 0.2040
vn 0.2691 0.8571 0.4392
vn -0.2236 -0.8948 -0.3864
vn -0.2950 0.9185 -0.2633
vt 0.502987 0.346952
vt 0.750710 0.357443
vt 0.749845 0.420970
vt 0.497966 0.407679
vt 0.749544 0.486106
vt 0.492079 0.469681
vt 0.749064 0.553206
vt 0.485349 0.533088
vt 0.748695 0.623102
vt 0.477721 0.597934
vt 0.750917 0.698177
vt 0.469012 0.664216
vt 0.768534 0.785276
vt 0.458643 0.732040
vt 0.399171 0.728210
vt 0.464820 0.740075
vt 0.411384 0.985301
vt 0.363394 0.976628
vt 0.507955 0.233741
vt 0.773520 0.227326
vt 0.754975 0.295370
vt 0.506947 0.287143
vt 0.421720 0.588772
vt 0.459831 0.626883
vt 0.459831 0.680780
vt 0.421720 0.718892
vt 0.367823 0.718892
vt 0.329712 0.680780
vt 0.329712 0.626883
vt 0.367823 0.588772
vt 0.762391 0.358079
vt 0.761917 0.421267
vt 0.761979 0.486375
vt 0.761933 0.553476
vt 0.762210 0.623101
vt 0.765555 0.696562
vt 0.783657 0.775105
vt 0.783657 0.235368
vt 0.765965 0.297363
vt 0.756594 0.086951
vt 0.756594 0.038184
vt 0.791077 0.003700
vt 0.839844 0.003700
vt 0.874328 0.038184
vt 0.874328 0.086951
vt 0.839844 0.121434
vt 0.791077 0.121434
vt 0.002890 0.756599
vt 0.067524 0.740074
vt 0.120960 0.985301
vt 0.073712 0.997381
vt 0.133173 0.728210
vt 0.199502 0.721067
vt 0.217436 0.971407
vt 0.168949 0.976628
vt 0.266172 0.718682
vt 0.332842 0.721067
vt 0.314908 0.971407
vt 0.266172 0.969664
vt 0.529454 0.756600
vt 0.458631 0.997381
vt 0.003079 0.234042
vt 0.204010 0.234042
vt 0.204010 0.310935
vt 0.003079 0.310935
vt 0.204010 0.387827
vt 0.003079 0.387827
vt 0.204010 0.464720
vt 0.003079 0.464720
vt 0.204010 0.541613
vt 0.003079 0.541613
vt 0.204010 0.618506
vt 0.003079 0.618506
vt 0.003079 0.003364
vt 0.204010 0.003364
vt 0.204010 0.080256
vt 0.003079 0.080256
vt 0.889579 0.945569
vt 0.812686 0.945569
vt 0.758314 0.891198
vt 0.758314 0.814305
vt 0.812686 0.759933
vt 0.889579 0.759933
vt 0.943950 0.814305
vt 0.943950 0.891198
vt 0.204010 0.157149
vt 0.003079 0.157149
vt 0.241726 0.469681
vt 0.225259 0.390013
vt 0.432574 0.368121
vt 0.442266 0.426178
vt 0.271140 0.544828
vt 0.264112 0.548681
vt 0.234247 0.471691
vt 0.217541 0.390914
vt 0.218863 0.308136
vt 0.211044 0.308102
vt 0.221939 0.225649
vt 0.214173 0.224701
vt 0.234628 0.144503
vt 0.227172 0.142566
vt 0.258102 0.068622
vt 0.251561 0.065347
vt 0.297169 0.008391
vt 0.293301 0.002679
vt 0.317871 0.604062
vt 0.313908 0.611220
vt 0.265810 0.003434
vt 0.272013 0.010059
vt 0.272013 0.021757
vt 0.265810 0.031674
vt 0.257039 0.034002
vt 0.250836 0.027377
vt 0.250836 0.015679
vt 0.257039 0.005762
vt 0.478451 0.067510
vt 0.457650 0.131297
vt 0.442012 0.190010
vt 0.432387 0.249360
vt 0.429228 0.308953
vt 0.457910 0.482457
vt 0.478451 0.536060
vt 0.611592 0.179475
vt 0.550938 0.047972
vt 0.620309 0.033475
vt 0.620309 0.176951
vt 0.602550 0.186896
vt 0.493545 0.089548
vt 0.596194 0.196716
vt 0.458697 0.151258
vt 0.594668 0.205663
vt 0.452104 0.221820
vt 0.644424 0.196716
vt 0.781921 0.151258
vt 0.788514 0.221820
vt 0.645950 0.205662
vt 0.638068 0.186896
vt 0.747073 0.089548
vt 0.629026 0.179475
vt 0.689680 0.047972
vt 0.383017 0.005226
vt 0.498067 0.006363
vt 0.498691 0.006609
vt 0.382371 0.005460
vt 0.212443 0.004213
vt 0.229809 0.004213
vt 0.229809 0.053431
vt 0.212443 0.053431
vt 0.236657 0.004812
vt 0.236657 0.052832
vt 0.236020 0.053097
vt 0.236020 0.004547
vt 0.463694 0.248513
vt 0.464592 0.363956
vt 0.446326 0.363949
vt 0.446820 0.248533
vt 0.382862 0.008000
vt 0.498300 0.009112
vt 0.497974 0.027375
vt 0.382589 0.024871
vt 0.024027 0.631517
vt 0.039770 0.632707
vt 0.039214 0.665874
vt 0.023470 0.664685
vt 0.466470 0.248620
vt 0.467337 0.363675
vt 0.467101 0.364303
vt 0.466225 0.247978
vt 0.497654 0.030113
vt 0.382709 0.027602
vt 0.382071 0.027348
vt 0.498285 0.029887
vt 0.016558 0.669265
vt 0.016558 0.627641
vt 0.017227 0.627411
vt 0.017227 0.669494
vt 0.278752 0.578630
vt 0.280109 0.685829
vt 0.260569 0.671338
vt 0.260394 0.592028
vt 0.046683 0.628127
vt 0.046683 0.669750
vt 0.046014 0.669980
vt 0.046014 0.627897
vt 0.224340 0.562727
vt 0.271891 0.569718
vt 0.257412 0.587383
vt 0.235780 0.582020
vt 0.205711 0.684825
vt 0.213600 0.570397
vt 0.231762 0.587208
vt 0.225940 0.669150
vt 0.443582 0.363676
vt 0.444091 0.248701
vt 0.444335 0.248059
vt 0.443819 0.364303
vt 0.223067 0.112740
vt 0.223067 0.064719
vt 0.223705 0.064454
vt 0.223705 0.113005
vt 0.439419 0.254928
vt 0.441531 0.261267
vt 0.059908 0.667859
vt 0.053201 0.665215
vt 0.216856 0.069485
vt 0.210459 0.067430
vt 0.053201 0.632662
vt 0.059908 0.630018
vt 0.471165 0.254836
vt 0.469071 0.261186
vt 0.010040 0.664729
vt 0.003333 0.667373
vt 0.395228 0.030381
vt 0.388854 0.032383
vt 0.003333 0.629533
vt 0.010040 0.632177
vt 0.019662 0.623835
vt 0.375860 0.025478
vt 0.464239 0.241500
vt 0.019851 0.673152
vt 0.375860 0.007333
vt 0.446096 0.241816
vt 0.043578 0.673556
vt 0.043390 0.624240
vt 0.229916 0.064120
vt 0.229916 0.113339
vt 0.485194 0.032346
vt 0.242869 0.009578
vt 0.242869 0.048066
vt 0.469750 0.351238
vt 0.216856 0.107974
vt 0.441132 0.351256
vt 0.395627 0.002844
vt 0.485674 0.003734
vt 0.229624 0.674641
vt 0.213796 0.694605
vt 0.271161 0.694605
vt 0.257324 0.677256
s 0
usemtl Материал
f 1/1/1 18/2/1 17/3/1 3/4/1
f 3/4/2 17/3/2 19/5/2 5/6/2
f 5/6/3 19/5/3 20/7/3 7/8/3
f 7/8/4 20/7/4 21/9/4 9/10/4
f 9/10/5 21/9/5 22/11/5 11/12/5
f 11/12/6 22/11/6 23/13/6 13/14/6
f 2/15/7 16/16/7 32/17/7 26/18/7
f 13/19/8 23/20/8 24/21/8 15/22/8
f 15/22/9 24/21/9 18/2/9 1/1/9
f 1/23/10 3/24/10 5/25/10 7/26/10 9/27/10 11/28/10 13/29/10 15/30/10
f 2/31/11 4/32/11 17/3/11 18/2/11
f 4/32/11 6/33/11 19/5/11 17/3/11
f 6/33/11 8/34/11 20/7/11 19/5/11
f 8/34/11 10/35/11 21/9/11 20/7/11
f 10/35/11 12/36/11 22/11/11 21/9/11
f 12/36/11 14/37/11 23/13/11 22/11/11
f 14/38/11 16/39/11 24/21/11 23/20/11
f 16/39/11 2/31/11 18/2/11 24/21/11
f 25/40/11 26/41/11 32/42/11 31/43/11 30/44/11 29/45/11 28/46/11 27/47/11
f 14/48/12 12/49/12 30/50/12 31/51/12
f 10/52/13 8/53/13 28/54/13 29/55/13
f 6/56/14 4/57/14 25/58/14 27/59/14
f 16/16/15 14/60/15 31/61/15 32/17/15
f 12/49/16 10/52/16 29/55/16 30/50/16
f 8/53/17 6/56/17 27/59/17 28/54/17
f 4/57/18 2/15/18 26/18/18 25/58/18
f 49/62/19 34/63/19 36/64/19 50/65/19
f 50/65/20 36/64/20 38/66/20 51/67/20
f 51/67/21 38/66/21 40/68/21 52/69/21
f 52/69/22 40/68/22 42/70/22 53/71/22
f 53/71/23 42/70/23 44/72/23 54/73/23
f 54/74/24 44/75/24 46/76/24 55/77/24
f 36/78/25 34/79/25 48/80/25 46/81/25 44/82/25 42/83/25 40/84/25 38/85/25
f 55/77/26 46/76/26 48/86/26 56/87/26
f 56/87/27 48/86/27 34/63/27 49/62/27
f 35/88/24 37/89/24 67/90/24 66/91/24
f 35/88/28 33/92/28 49/93/28 50/94/28
f 37/89/28 35/88/28 50/94/28 51/95/28
f 39/96/28 37/89/28 51/95/28 52/97/28
f 41/98/28 39/96/28 52/97/28 53/99/28
f 43/100/28 41/98/28 53/99/28 54/101/28
f 45/102/28 43/100/28 54/101/28 55/103/28
f 47/104/28 45/102/28 55/103/28 56/105/28
f 33/92/28 47/106/28 56/107/28 49/93/28
f 57/108/25 64/109/25 63/110/25 62/111/25 61/112/25 60/113/25 59/114/25 58/115/25
f 45/102/21 47/104/21 72/116/21 71/117/21
f 41/98/19 43/100/19 70/118/19 69/119/19
f 37/89/26 39/96/26 68/120/26 67/90/26
f 33/92/23 35/88/23 66/91/23 65/121/23
f 47/106/22 33/92/22 65/121/22 72/122/22
f 43/100/20 45/102/20 71/117/20 70/118/20
f 39/96/27 41/98/27 69/119/27 68/120/27
f 58/123/29 66/124/29 65/125/29 57/126/29
f 59/127/30 67/128/30 66/124/30 58/123/30
f 60/129/31 68/130/31 67/128/31 59/127/31
f 61/131/32 69/132/32 68/130/32 60/129/32
f 62/133/33 70/134/33 69/135/33 61/136/33
f 63/137/34 71/138/34 70/134/34 62/133/34
f 64/139/35 72/140/35 71/138/35 63/137/35
f 57/126/36 65/125/36 72/140/36 64/139/36
f 81/141/37 83/142/37 120/143/37 109/144/37
f 111/145/28 100/146/28 105/147/28 112/148/28
f 93/149/38 87/150/38 103/151/38 102/152/38
f 104/153/39 107/154/39 115/155/39 113/156/39
f 110/157/40 119/158/40 99/159/40 101/160/40
f 97/161/25 118/162/25 116/163/25 106/164/25
f 87/165/38 89/166/38 108/167/38 103/168/38
f 95/169/38 93/170/38 102/171/38 98/172/38
f 89/173/41 95/174/41 98/175/41 108/176/41
f 90/177/42 86/178/42 75/179/42 76/180/42
f 83/181/43 77/182/43 117/183/43 120/184/43
f 96/185/28 88/186/28 78/187/28 82/188/28
f 91/189/44 94/190/44 84/191/44 80/192/44
f 77/193/37 74/194/37 114/195/37 117/196/37
f 74/197/45 81/198/45 109/199/45 114/200/45
f 73/201/46 74/194/46 75/202/46
f 76/203/47 77/182/47 78/204/47
f 79/205/48 80/206/48 81/198/48
f 82/207/49 83/181/49 84/208/49
f 85/209/50 86/210/50 87/165/50
f 88/211/51 89/173/51 90/212/51
f 91/213/52 92/214/52 93/170/52
f 94/215/53 95/174/53 96/216/53
f 97/161/54 98/175/54 99/217/54
f 100/218/55 101/160/55 102/171/55
f 103/168/56 104/153/56 105/219/56
f 106/164/57 107/220/57 108/176/57
f 109/144/58 110/157/58 111/221/58
f 112/222/59 113/156/59 114/195/59
f 115/223/60 116/163/60 117/183/60
f 118/162/61 119/224/61 120/184/61
f 111/225/62 112/226/62 114/200/62 109/199/62
f 113/156/63 115/155/63 117/196/63 114/195/63
f 116/163/64 118/162/64 120/184/64 117/183/64
f 119/158/65 110/157/65 109/144/65 120/143/65
f 100/218/66 111/221/66 110/157/66 101/160/66
f 118/162/67 97/161/67 99/217/67 119/224/67
f 98/172/68 102/171/68 101/160/68 99/159/68
f 105/147/69 100/146/69 102/152/69 103/151/69
f 97/161/70 106/164/70 108/176/70 98/175/70
f 107/154/71 104/153/71 103/168/71 108/167/71
f 112/222/72 105/219/72 104/153/72 113/156/72
f 106/164/73 116/163/73 115/223/73 107/220/73
f 94/227/74 91/213/74 93/170/74 95/169/74
f 87/150/70 93/149/70 92/228/70 85/229/70
f 95/174/69 89/173/69 88/211/69 96/216/69
f 89/166/75 87/165/75 86/210/75 90/230/75
f 81/198/64 74/197/64 73/231/64 79/205/64
f 74/194/76 77/193/76 76/232/76 75/202/76
f 77/182/62 83/181/62 82/207/62 78/204/62
f 83/142/77 81/141/77 80/233/77 84/234/77
f 96/185/78 82/188/78 84/191/78 94/190/78
f 91/189/79 80/192/79 79/235/79 92/236/79
f 90/177/80 76/180/80 78/187/80 88/186/80
f 85/237/81 73/238/81 75/179/81 86/178/81
f 85/237/25 92/236/25 79/235/25 73/238/25
