# Blender 4.2.2 LTS
# www.blender.org
mtllib ventilation grille.mtl
o ventilation_grille
v -0.120770 4.696602 0.990624
v -0.110942 5.763787 -0.929045
v -0.120770 6.830972 0.990624
v -0.120770 4.696602 -1.143746
v -0.110942 5.160990 -0.679358
v -0.120770 6.830972 -1.143746
v -0.110942 4.911304 -0.076561
v -0.110942 5.160990 0.526236
v -0.110942 5.763787 0.775923
v -0.110942 6.366584 0.526236
v -0.110942 6.616271 -0.076561
v -0.110942 6.366584 -0.679358
v 0.108982 6.616271 -0.076561
v 0.108982 5.763787 -0.929045
v 0.108982 6.366584 -0.679358
v 0.108982 5.763787 0.775923
v 0.108982 5.160990 0.526236
v 0.108982 6.366584 0.526236
v 0.108982 5.160990 -0.679358
v 0.108982 4.911304 -0.076561
v 0.020443 4.763787 0.923439
v 0.108982 4.842588 0.844638
v 0.020443 6.763787 0.923439
v 0.108982 6.684986 0.844638
v 0.108982 4.842588 -0.997760
v 0.020443 4.763787 -1.076561
v 0.108982 6.684986 -0.997760
v 0.020443 6.763787 -1.076561
v -0.094083 5.763787 -0.367710
v 0.056364 5.763787 -0.367710
v -0.094083 5.557913 -0.282435
v 0.056364 5.557913 -0.282435
v -0.094083 5.472638 -0.076561
v 0.056364 5.472638 -0.076561
v -0.094083 5.557913 0.129313
v 0.056364 5.557913 0.129313
v -0.094083 5.763787 0.214588
v 0.056364 5.763787 0.214588
v -0.094083 5.969660 0.129313
v 0.056364 5.969660 0.129313
v -0.094083 6.054936 -0.076561
v 0.056364 6.054936 -0.076561
v -0.094083 5.969660 -0.282435
v 0.056364 5.969660 -0.282435
v 0.007231 5.733909 0.052507
v 0.007231 5.139704 0.662936
v 0.007231 5.616274 -0.137548
v 0.007231 4.804896 0.122010
v 0.007231 5.887709 -0.042687
v 0.007231 6.699086 -0.302245
v 0.007231 5.770074 -0.232743
v 0.007231 6.364279 -0.843172
v -0.040658 5.733909 0.052507
v -0.040658 5.139704 0.662936
v -0.040658 5.616274 -0.137548
v -0.040658 4.804896 0.122010
v -0.040658 5.887709 -0.042687
v -0.040658 6.699086 -0.302245
v -0.040658 5.770074 -0.232743
v -0.040658 6.364279 -0.843172
v 0.007232 5.607842 -0.101727
v 0.007232 4.997413 -0.695932
v 0.007232 5.797897 -0.219362
v 0.007232 5.538339 -1.030739
v 0.007232 5.703037 0.052073
v 0.007231 5.962595 0.863450
v 0.007232 5.893092 -0.065562
v 0.007232 6.503521 0.528643
v -0.040658 5.607842 -0.101727
v -0.040658 4.997413 -0.695932
v -0.040658 5.797897 -0.219362
v -0.040658 5.538339 -1.030739
v -0.040658 5.703037 0.052073
v -0.040658 5.962595 0.863450
v -0.040658 5.893092 -0.065562
v -0.040658 6.503521 0.528643
v 0.050153 6.384123 0.798006
v 0.050153 6.439485 0.798006
v 0.050153 6.384123 -0.926759
v 0.050153 6.439485 -0.926759
v 0.105515 6.384123 0.798006
v 0.105515 6.439485 0.798006
v 0.105515 6.384123 -0.926759
v 0.105515 6.439485 -0.926759
v 0.050153 6.162677 0.798006
v 0.050153 6.218039 0.798006
v 0.050153 6.162677 -0.926759
v 0.050153 6.218039 -0.926759
v 0.105515 6.162677 0.798006
v 0.105515 6.218039 0.798006
v 0.105515 6.162677 -0.926759
v 0.105515 6.218039 -0.926759
v 0.050153 5.941232 0.798006
v 0.050153 5.996593 0.798006
v 0.050153 5.941232 -0.926759
v 0.050153 5.996593 -0.926759
v 0.105515 5.941232 0.798006
v 0.105515 5.996593 0.798006
v 0.105515 5.941232 -0.926759
v 0.105515 5.996593 -0.926759
v 0.050153 5.719786 0.798006
v 0.050153 5.775147 0.798006
v 0.050153 5.719786 -0.926759
v 0.050153 5.775147 -0.926759
v 0.105515 5.719786 0.798006
v 0.105515 5.775147 0.798006
v 0.105515 5.719786 -0.926759
v 0.105515 5.775147 -0.926759
v 0.050153 5.498341 0.798006
v 0.050153 5.553702 0.798006
v 0.050153 5.498341 -0.926759
v 0.050153 5.553702 -0.926759
v 0.105515 5.498341 0.798006
v 0.105515 5.553702 0.798006
v 0.105515 5.498341 -0.926759
v 0.105515 5.553702 -0.926759
v 0.050153 5.276895 0.798006
v 0.050153 5.332256 0.798006
v 0.050153 5.276895 -0.926759
v 0.050153 5.332256 -0.926759
v 0.105515 5.276895 0.798006
v 0.105515 5.332256 0.798006
v 0.105515 5.276895 -0.926759
v 0.105515 5.332256 -0.926759
v 0.050153 5.055449 0.798006
v 0.050153 5.110811 0.798006
v 0.050153 5.055449 -0.926759
v 0.050153 5.110811 -0.926759
v 0.105515 5.055449 0.798006
v 0.105515 5.110811 0.798006
v 0.105515 5.055449 -0.926759
v 0.105515 5.110811 -0.926759
vn -1.0000 -0.0000 -0.0000
vn 1.0000 -0.0000 -0.0000
vn 0.4296 -0.9030 -0.0000
vn 0.4296 0.9030 -0.0000
vn 0.4296 -0.0000 -0.9030
vn -0.0000 0.3827 0.9239
vn -0.0000 0.9239 0.3827
vn -0.0000 0.9239 -0.3827
vn -0.0000 0.3827 -0.9239
vn -0.0000 -0.3827 -0.9239
vn -0.0000 -0.9239 -0.3827
vn -0.0000 -0.9239 0.3827
vn -0.0000 -0.3827 0.9239
vn 0.6648 -0.0000 -0.7470
vn 0.6648 0.7470 -0.0000
vn 0.6648 -0.0000 0.7470
vn 0.6648 -0.7470 -0.0000
vn 0.4296 -0.0000 0.9030
vn -0.0000 0.8503 -0.5263
vn -0.0000 0.7166 0.6975
vn -0.0000 -0.8503 0.5263
vn -0.0000 -0.3047 -0.9525
vn -0.0000 0.3047 0.9525
vn -0.0000 -0.7166 -0.6975
vn -0.0000 0.5263 0.8503
vn -0.0000 -0.6975 0.7166
vn -0.0000 -0.5263 -0.8503
vn -0.0000 0.9525 -0.3047
vn -0.0000 -0.9525 0.3047
vn -0.0000 0.6975 -0.7166
vn -0.0000 -0.0000 -1.0000
vn -0.0000 -0.0000 1.0000
vn -0.0000 -1.0000 -0.0000
vn -0.0000 1.0000 -0.0000
vt 0.652842 0.706359
vt 0.652842 0.856499
vt 0.502702 0.856499
vt 0.502702 0.706359
vt 0.439025 0.480128
vt 0.458811 0.461013
vt 0.458811 0.592905
vt 0.439546 0.573883
vt 0.453806 0.527891
vt 0.602404 0.603356
vt 0.514274 0.598546
vt 0.514274 0.455372
vt 0.602404 0.450562
vt 0.421444 0.395516
vt 0.350547 0.299694
vt 0.340802 0.184074
vt 0.395271 0.073111
vt 0.403825 0.098538
vt 0.370089 0.136634
vt 0.361882 0.187973
vt 0.351463 0.241252
vt 0.370194 0.292470
vt 0.386045 0.338973
vt 0.425423 0.370460
vt 0.304144 0.318811
vt 0.220635 0.350447
vt 0.189153 0.179643
vt 0.284221 0.182791
vt 0.303578 0.484398
vt 0.378230 0.432340
vt 0.502378 0.301191
vt 0.513899 0.330813
vt 0.311724 0.566644
vt 0.314191 0.523081
vt 0.314359 0.483811
vt 0.513899 0.132151
vt 0.502444 0.169665
vt 0.494863 0.204004
vt 0.492061 0.237751
vt 0.494764 0.269842
vt 0.886540 0.357512
vt 0.918994 0.325058
vt 0.964891 0.325058
vt 0.997345 0.357512
vt 0.997345 0.403409
vt 0.964891 0.435863
vt 0.918994 0.435863
vt 0.886540 0.403409
vt 0.332345 0.037614
vt 0.233026 0.003213
vt 0.183671 0.416915
vt 0.003488 0.416915
vt 0.003488 0.347962
vt 0.183671 0.347962
vt 0.003488 0.279009
vt 0.183671 0.279009
vt 0.003488 0.210055
vt 0.183671 0.210055
vt 0.003488 0.141102
vt 0.183671 0.141102
vt 0.003488 0.072149
vt 0.183671 0.072149
vt 0.003488 0.003196
vt 0.183671 0.003196
vt 0.682418 0.800128
vt 0.682418 0.731175
vt 0.731175 0.682418
vt 0.800128 0.682418
vt 0.848885 0.731175
vt 0.848885 0.800128
vt 0.800128 0.848885
vt 0.731175 0.848885
vt 0.183671 0.554821
vt 0.003488 0.554821
vt 0.003488 0.485868
vt 0.183671 0.485868
vt 0.321663 0.742595
vt 0.321663 0.811548
vt 0.272906 0.860305
vt 0.203953 0.860305
vt 0.155195 0.811548
vt 0.155195 0.742595
vt 0.203953 0.693838
vt 0.272906 0.693838
vt 0.659546 0.149635
vt 0.638070 0.015917
vt 0.777563 0.020005
vt 0.731851 0.152576
vt 0.662260 0.306370
vt 0.659198 0.234374
vt 0.796692 0.190973
vt 0.792641 0.330098
vt 0.123191 0.803205
vt 0.060763 0.803205
vt 0.003138 0.669451
vt 0.180816 0.669451
vt 0.673257 0.412879
vt 0.807012 0.355254
vt 0.807012 0.532932
vt 0.673257 0.475307
vt 0.746637 0.171300
vt 0.647481 0.169574
vt 0.619472 0.003359
vt 0.797495 0.003359
vt 0.645373 0.322867
vt 0.638080 0.224181
vt 0.808915 0.346406
vt 0.808915 0.168675
vt 0.531428 0.685852
vt 0.327139 0.697418
vt 0.332201 0.595743
vt 0.531417 0.647389
vt 0.085335 0.643108
vt 0.084106 0.602990
vt 0.284356 0.555578
vt 0.289999 0.654666
vt 0.629914 0.469579
vt 0.666085 0.469579
vt 0.699474 0.700426
vt 0.596525 0.700426
vt 0.429609 0.379626
vt 0.660456 0.346237
vt 0.660456 0.449186
vt 0.429609 0.415797
vt 0.552917 0.638320
vt 0.545810 0.697854
vt 0.311241 0.714701
vt 0.311241 0.572067
vt 0.069093 0.659388
vt 0.060989 0.593734
vt 0.304533 0.668069
vt 0.304533 0.532862
vt 0.529014 0.066619
vt 0.612683 0.048957
vt 0.630345 0.132626
vt 0.546676 0.150288
vt 0.631906 0.218572
vt 0.577899 0.197703
vt 0.578287 0.240419
vt 0.567620 0.219156
vt 0.547930 0.288393
vt 0.498976 0.219779
vt 0.631906 0.304533
vt 0.275875 0.928825
vt 0.275875 0.865961
vt 0.338739 0.865961
vt 0.338739 0.928825
vt 0.401603 0.865961
vt 0.401603 0.928825
vt 0.917405 0.085468
vt 0.867292 0.147528
vt 0.837672 0.090209
vt 0.864277 0.071474
vt 0.784088 0.067824
vt 0.841527 0.009590
vt 0.917405 0.009590
vt 0.776815 0.156073
vt 0.858348 0.624185
vt 0.921212 0.624185
vt 0.921212 0.687048
vt 0.858348 0.687048
vt 0.921212 0.749912
vt 0.858348 0.749912
vt 0.940245 0.873447
vt 0.890132 0.935507
vt 0.860512 0.878188
vt 0.887117 0.859453
vt 0.806928 0.855803
vt 0.864367 0.797568
vt 0.940245 0.797568
vt 0.799655 0.944052
vt 0.905985 0.614776
vt 0.843121 0.614776
vt 0.843121 0.551912
vt 0.905985 0.551912
vt 0.843121 0.489048
vt 0.905985 0.489048
vt 0.814882 0.221041
vt 0.864996 0.158981
vt 0.894616 0.216300
vt 0.868010 0.235035
vt 0.948199 0.238685
vt 0.890760 0.296919
vt 0.814882 0.296920
vt 0.955472 0.150436
vt 0.658445 0.921212
vt 0.658445 0.858348
vt 0.721308 0.858348
vt 0.721308 0.921212
vt 0.784172 0.858348
vt 0.784172 0.921212
vt 0.757780 0.660456
vt 0.695720 0.610342
vt 0.753039 0.580722
vt 0.771774 0.607327
vt 0.775424 0.527139
vt 0.833659 0.584577
vt 0.833659 0.660456
vt 0.687175 0.519866
vt 0.536739 0.865962
vt 0.536739 0.928825
vt 0.473875 0.928825
vt 0.473875 0.865962
vt 0.411012 0.928825
vt 0.411012 0.865962
vt 0.329533 0.780620
vt 0.379646 0.718560
vt 0.409266 0.775879
vt 0.382661 0.794614
vt 0.462850 0.798264
vt 0.405411 0.856498
vt 0.329533 0.856499
vt 0.470123 0.710015
vt 0.879339 0.479639
vt 0.816475 0.479639
vt 0.816475 0.416776
vt 0.879339 0.416776
vt 0.816475 0.353912
vt 0.879339 0.353912
vt 0.074485 0.947858
vt 0.012425 0.897745
vt 0.069744 0.868125
vt 0.088479 0.894730
vt 0.092128 0.814542
vt 0.150363 0.871980
vt 0.150363 0.947858
vt 0.003880 0.807269
s 0
usemtl Материал
f 1/1/1 3/2/1 6/3/1 4/4/1
f 17/5/2 22/6/2 25/7/2 19/8/2 20/9/2
f 4/10/3 26/11/3 21/12/3 1/13/3
f 25/14/2 27/15/2 24/16/2 22/17/2 17/18/2 16/19/2 18/20/2 13/21/2 15/22/2 14/23/2 19/24/2
f 28/25/4 6/26/4 3/27/4 23/28/4
f 4/29/5 6/26/5 28/25/5 26/30/5
f 2/31/6 5/32/6 19/24/6 14/23/6
f 5/33/7 7/34/7 20/9/7 19/8/7
f 7/34/8 8/35/8 17/5/8 20/9/8
f 8/36/9 9/37/9 16/19/9 17/18/9
f 9/37/10 10/38/10 18/20/10 16/19/10
f 10/38/11 11/39/11 13/21/11 18/20/11
f 11/39/12 12/40/12 15/22/12 13/21/12
f 12/40/13 2/31/13 14/23/13 15/22/13
f 10/41/2 9/42/2 8/43/2 7/44/2 5/45/2 2/46/2 12/47/2 11/48/2
f 26/30/14 28/25/14 27/15/14 25/14/14
f 24/16/15 27/15/15 28/25/15 23/28/15
f 22/17/16 24/16/16 23/28/16 21/49/16
f 21/12/17 26/11/17 25/7/17 22/6/17
f 21/49/18 23/28/18 3/27/18 1/50/18
f 29/51/10 30/52/10 32/53/10 31/54/10
f 31/54/11 32/53/11 34/55/11 33/56/11
f 33/56/12 34/55/12 36/57/12 35/58/12
f 35/58/13 36/57/13 38/59/13 37/60/13
f 37/60/6 38/59/6 40/61/6 39/62/6
f 39/62/7 40/61/7 42/63/7 41/64/7
f 32/65/2 30/66/2 44/67/2 42/68/2 40/69/2 38/70/2 36/71/2 34/72/2
f 41/73/8 42/74/8 44/75/8 43/76/8
f 43/76/9 44/75/9 30/52/9 29/51/9
f 29/77/1 31/78/1 33/79/1 35/80/1 37/81/1 39/82/1 41/83/1 43/84/1
f 45/85/2 46/86/2 48/87/2 47/88/2
f 49/89/2 51/90/2 52/91/2 50/92/2
f 53/93/1 55/94/1 56/95/1 54/96/1
f 57/97/1 58/98/1 60/99/1 59/100/1
f 45/85/19 47/88/19 55/101/19 53/102/19
f 46/86/20 45/85/20 53/102/20 54/103/20
f 48/87/21 46/86/21 54/103/21 56/104/21
f 47/88/22 48/87/22 56/104/22 55/101/22
f 51/90/21 49/89/21 57/105/21 59/106/21
f 49/89/23 50/92/23 58/107/23 57/105/23
f 50/92/19 52/91/19 60/108/19 58/107/19
f 52/91/24 51/90/24 59/106/24 60/108/24
f 61/109/2 62/110/2 64/111/2 63/112/2
f 65/113/2 67/114/2 68/115/2 66/116/2
f 69/117/1 71/118/1 72/119/1 70/120/1
f 73/121/1 74/122/1 76/123/1 75/124/1
f 61/109/25 63/112/25 71/125/25 69/126/25
f 62/110/26 61/109/26 69/126/26 70/127/26
f 64/111/27 62/110/27 70/127/27 72/128/27
f 63/112/28 64/111/28 72/128/28 71/125/28
f 67/114/27 65/113/27 73/129/27 75/130/27
f 65/113/29 66/116/29 74/131/29 73/129/29
f 66/116/25 68/115/25 76/132/25 74/131/25
f 68/115/30 67/114/30 75/130/30 76/132/30
f 77/133/1 78/134/1 80/135/1 79/136/1
f 79/136/31 80/135/31 84/137/31 83/138/31
f 83/138/2 84/137/2 82/139/2 81/140/2
f 81/140/32 82/139/32 78/141/32 77/142/32
f 79/136/33 83/138/33 81/140/33 77/142/33
f 84/137/34 80/143/34 78/141/34 82/139/34
f 85/144/1 86/145/1 88/146/1 87/147/1
f 87/147/31 88/146/31 92/148/31 91/149/31
f 91/150/2 92/151/2 90/152/2 89/153/2
f 89/153/32 90/152/32 86/154/32 85/155/32
f 87/156/33 91/150/33 89/153/33 85/155/33
f 92/151/34 88/157/34 86/154/34 90/152/34
f 93/158/1 94/159/1 96/160/1 95/161/1
f 95/161/31 96/160/31 100/162/31 99/163/31
f 99/164/2 100/165/2 98/166/2 97/167/2
f 97/167/32 98/166/32 94/168/32 93/169/32
f 95/170/33 99/164/33 97/167/33 93/169/33
f 100/165/34 96/171/34 94/168/34 98/166/34
f 101/172/1 102/173/1 104/174/1 103/175/1
f 103/175/31 104/174/31 108/176/31 107/177/31
f 107/178/2 108/179/2 106/180/2 105/181/2
f 105/181/32 106/180/32 102/182/32 101/183/32
f 103/184/33 107/178/33 105/181/33 101/183/33
f 108/179/34 104/185/34 102/182/34 106/180/34
f 109/186/1 110/187/1 112/188/1 111/189/1
f 111/189/31 112/188/31 116/190/31 115/191/31
f 115/192/2 116/193/2 114/194/2 113/195/2
f 113/195/32 114/194/32 110/196/32 109/197/32
f 111/198/33 115/192/33 113/195/33 109/197/33
f 116/193/34 112/199/34 110/196/34 114/194/34
f 117/200/1 118/201/1 120/202/1 119/203/1
f 119/203/31 120/202/31 124/204/31 123/205/31
f 123/206/2 124/207/2 122/208/2 121/209/2
f 121/209/32 122/208/32 118/210/32 117/211/32
f 119/212/33 123/206/33 121/209/33 117/211/33
f 124/207/34 120/213/34 118/210/34 122/208/34
f 125/214/1 126/215/1 128/216/1 127/217/1
f 127/217/31 128/216/31 132/218/31 131/219/31
f 131/220/2 132/221/2 130/222/2 129/223/2
f 129/223/32 130/222/32 126/224/32 125/225/32
f 127/226/33 131/220/33 129/223/33 125/225/33
f 132/221/34 128/227/34 126/224/34 130/222/34
