{
  "accessors": [
    {
      "bufferView": 2,
      "componentType": 5126,
      "count": 8196,
      "max": [
        0.15022200345993042,
        0.18549799919128418,
        0.28785499930381775
      ],
      "min": [
        -0.15007799863815308,
        -0.18544700741767883,
        -3.899999865097925e-05
      ],
      "type": "VEC3"
    },
    {
      "bufferView": 2,
      "byteOffset": 98352,
      "componentType": 5126,
      "count": 8196,
      "max": [
        1.0,
        1.0,
        1.0
      ],
      "min": [
        -1.0,
        -1.0,
        -1.0
      ],
      "type": "VEC3"
    },
    {
      "bufferView": 3,
      "componentType": 5126,
      "count": 8196,
      "max": [
        1.0,
        1.0,
        1.0,
        1.0
      ],
      "min": [
        -1.0,
        -1.0,
        -1.0,
        -1.0
      ],
      "type": "VEC4"
    },
    {
      "bufferView": 1,
      "componentType": 5126,
      "count": 8196,
      "max": [
        0.994674026966095,
        0.9950090050697327
      ],
      "min": [
        0.008376999758183956,
        0.007306999992579222
      ],
      "type": "VEC2"
    },
    {
      "bufferView": 0,
      "componentType": 5125,
      "count": 25476,
      "type": "SCALAR"
    },
    {
      "bufferView": 2,
      "byteOffset": 196704,
      "componentType": 5126,
      "count": 8008,
      "max": [
        0.13994599878787994,
        0.17510299384593964,
        0.27544400095939636
      ],
      "min": [
        -0.29225900769233704,
        -0.2998490035533905,
        1.2000000424450263e-05
      ],
      "type": "VEC3"
    },
    {
      "bufferView": 2,
      "byteOffset": 292800,
      "componentType": 5126,
      "count": 8008,
      "max": [
        0.9982044100761414,
        0.9982044100761414,
        1.0
      ],
      "min": [
        -0.9982044100761414,
        -0.9982044100761414,
        -1.0
      ],
      "type": "VEC3"
    },
    {
      "bufferView": 3,
      "byteOffset": 131136,
      "componentType": 5126,
      "count": 8008,
      "max": [
        0.9999975562095642,
        0.9999987483024597,
        0.9964220523834229,
        1.0
      ],
      "min": [
        -0.9999630451202393,
        -1.0,
        -0.9085127115249634,
        1.0
      ],
      "type": "VEC4"
    },
    {
      "bufferView": 1,
      "byteOffset": 65568,
      "componentType": 5126,
      "count": 8008,
      "max": [
        0.9831939935684204,
        0.9926689863204956
      ],
      "min": [
        0.009062999859452248,
        0.011907000094652176
      ],
      "type": "VEC2"
    },
    {
      "bufferView": 0,
      "byteOffset": 101904,
      "componentType": 5125,
      "count": 33600,
      "type": "SCALAR"
    }
  ],
  "asset": {
    "extras": {
      "author": "Zbrojmistrz (https://sketchfab.com/zbrojmistrz)",
      "license": "CC-BY-4.0 (http://creativecommons.org/licenses/by/4.0/)",
      "source": "https://sketchfab.com/3d-models/detailed-beer-case-f476fb025d824db39aaac8c00c303d56",
      "title": "Detailed Beer Case"
    },
    "generator": "Sketchfab-16.8.0",
    "version": "2.0"
  },
  "bufferViews": [
    {
      "buffer": 0,
      "byteLength": 236304,
      "name": "floatBufferViews",
      "target": 34963
    },
    {
      "buffer": 0,
      "byteLength": 129632,
      "byteOffset": 236304,
      "byteStride": 8,
      "name": "floatBufferViews",
      "target": 34962
    },
    {
      "buffer": 0,
      "byteLength": 388896,
      "byteOffset": 365936,
      "byteStride": 12,
      "name": "floatBufferViews",
      "target": 34962
    },
    {
      "buffer": 0,
      "byteLength": 259264,
      "byteOffset": 754832,
      "byteStride": 16,
      "name": "floatBufferViews",
      "target": 34962
    }
  ],
  "buffers": [
    {
      "byteLength": 1014096,
      "uri": "scene.bin"
    }
  ],
  "extensionsUsed": [
    "KHR_materials_specular"
  ],
  "images": [
    {
      "uri": "textures/bottle_texture_baseColor.png"
    },
    {
      "uri": "textures/bottle_texture_metallicRoughness.png"
    },
    {
      "uri": "textures/bottle_texture_normal.png"
    },
    {
      "uri": "textures/case_texture_baseColor.png"
    },
    {
      "uri": "textures/case_texture_metallicRoughness.png"
    },
    {
      "uri": "textures/case_texture_normal.png"
    }
  ],
  "materials": [
    {
      "doubleSided": true,
      "extensions": {
        "KHR_materials_specular": {
          "specularColorFactor": [
            1.0,
            1.0,
            1.0
          ],
          "specularFactor": 0.6
        }
      },
      "name": "bottle_texture",
      "normalTexture": {
        "index": 2
      },
      "pbrMetallicRoughness": {
        "baseColorTexture": {
          "index": 0
        },
        "metallicRoughnessTexture": {
          "index": 1
        },
        "roughnessFactor": 0.4
      }
    },
    {
      "doubleSided": true,
      "extensions": {
        "KHR_materials_specular": {
          "specularColorFactor": [
            1.0,
            1.0,
            1.0
          ],
          "specularFactor": 0.2
        }
      },
      "name": "case_texture",
      "normalTexture": {
        "index": 5,
        "scale": 0.6
      },
      "pbrMetallicRoughness": {
        "baseColorTexture": {
          "index": 3
        },
        "metallicFactor": 0.5,
        "metallicRoughnessTexture": {
          "index": 4
        }
      }
    }
  ],
  "meshes": [
    {
      "name": "Object_0",
      "primitives": [
        {
          "attributes": {
            "NORMAL": 1,
            "POSITION": 0,
            "TANGENT": 2,
            "TEXCOORD_0": 3
          },
          "indices": 4,
          "material": 1,
          "mode": 4
        }
      ]
    },
    {
      "name": "Object_1",
      "primitives": [
        {
          "attributes": {
            "NORMAL": 6,
            "POSITION": 5,
            "TANGENT": 7,
            "TEXCOORD_0": 8
          },
          "indices": 9,
          "material": 0,
          "mode": 4
        }
      ]
    }
  ],
  "nodes": [
    {
      "children": [
        1
      ],
      "matrix": [
        1.0,
        0.0,
        0.0,
        0.0,
        0.0,
        2.220446049250313e-16,
        -1.0,
        0.0,
        0.0,
        1.0,
        2.220446049250313e-16,
        0.0,
        0.0,
        0.0,
        0.0,
        1.0
      ],
      "name": "Sketchfab_model"
    },
    {
      "children": [
        2,
        3
      ],
      "name": "beer_case.obj.cleaner.materialmerger.gles"
    },
    {
      "mesh": 0,
      "name": "Object_2"
    },
    {
      "mesh": 1,
      "name": "Object_3"
    }
  ],
  "samplers": [
    {
      "magFilter": 9729,
      "minFilter": 9987,
      "wrapS": 10497,
      "wrapT": 10497
    }
  ],
  "scene": 0,
  "scenes": [
    {
      "name": "Sketchfab_Scene",
      "nodes": [
        0
      ]
    }
  ],
  "textures": [
    {
      "sampler": 0,
      "source": 0
    },
    {
      "sampler": 0,
      "source": 1
    },
    {
      "sampler": 0,
      "source": 2
    },
    {
      "sampler": 0,
      "source": 3
    },
    {
      "sampler": 0,
      "source": 4
    },
    {
      "sampler": 0,
      "source": 5
    }
  ]
}
