{
  "accessors": [
    {
      "bufferView": 2,
      "componentType": 5126,
      "count": 65532,
      "max": [
        0.23645533621311188,
        0.23478765785694122,
        0.2337094098329544
      ],
      "min": [
        -0.2363981008529663,
        0.20897571742534637,
        -0.2372741848230362
      ],
      "type": "VEC3"
    },
    {
      "bufferView": 2,
      "byteOffset": 786384,
      "componentType": 5126,
      "count": 65532,
      "max": [
        0.9999985694885254,
        1.0,
        0.9649298191070557
      ],
      "min": [
        -0.9999985694885254,
        -1.0,
        -0.9958875179290771
      ],
      "type": "VEC3"
    },
    {
      "bufferView": 1,
      "componentType": 5126,
      "count": 65532,
      "max": [
        0.9970444440841675,
        1.0
      ],
      "min": [
        0.27086395025253296,
        0.1080406904220581
      ],
      "type": "VEC2"
    },
    {
      "bufferView": 1,
      "byteOffset": 524256,
      "componentType": 5126,
      "count": 65532,
      "max": [
        0.9970444440841675,
        1.0
      ],
      "min": [
        0.27086395025253296,
        0.1080406904220581
      ],
      "type": "VEC2"
    },
    {
      "bufferView": 0,
      "componentType": 5125,
      "count": 380922,
      "type": "SCALAR"
    },
    {
      "bufferView": 2,
      "byteOffset": 1572768,
      "componentType": 5126,
      "count": 65532,
      "max": [
        0.2785985767841339,
        0.22435477375984192,
        0.2849785089492798
      ],
      "min": [
        -0.27854135632514954,
        -0.503812313079834,
        -0.2878161668777466
      ],
      "type": "VEC3"
    },
    {
      "bufferView": 2,
      "byteOffset": 2359152,
      "componentType": 5126,
      "count": 65532,
      "max": [
        0.7143377661705017,
        1.0,
        0.9064078330993652
      ],
      "min": [
        -0.7143377661705017,
        -0.9999938011169434,
        -0.8216301798820496
      ],
      "type": "VEC3"
    },
    {
      "bufferView": 1,
      "byteOffset": 1048512,
      "componentType": 5126,
      "count": 65532,
      "max": [
        0.9734046459197998,
        0.6941683292388916
      ],
      "min": [
        -4.029864442145481e-09,
        0.12931960821151733
      ],
      "type": "VEC2"
    },
    {
      "bufferView": 1,
      "byteOffset": 1572768,
      "componentType": 5126,
      "count": 65532,
      "max": [
        0.9734046459197998,
        0.6941683292388916
      ],
      "min": [
        -4.029864442145481e-09,
        0.12931960821151733
      ],
      "type": "VEC2"
    },
    {
      "bufferView": 0,
      "byteOffset": 1523688,
      "componentType": 5125,
      "count": 376935,
      "type": "SCALAR"
    },
    {
      "bufferView": 2,
      "byteOffset": 3145536,
      "componentType": 5126,
      "count": 65534,
      "max": [
        0.24097862839698792,
        0.22185376286506653,
        0.22931596636772156
      ],
      "min": [
        -0.2292252480983734,
        -0.503812313079834,
        -0.19807954132556915
      ],
      "type": "VEC3"
    },
    {
      "bufferView": 2,
      "byteOffset": 3931944,
      "componentType": 5126,
      "count": 65534,
      "max": [
        0.9993658065795898,
        1.0,
        0.9979525804519653
      ],
      "min": [
        -0.9964171051979065,
        -1.0,
        -0.9969837069511414
      ],
      "type": "VEC3"
    },
    {
      "bufferView": 1,
      "byteOffset": 2097024,
      "componentType": 5126,
      "count": 65534,
      "max": [
        0.8591974973678589,
        1.0
      ],
      "min": [
        0.0,
        0.10455667972564697
      ],
      "type": "VEC2"
    },
    {
      "bufferView": 1,
      "byteOffset": 2621296,
      "componentType": 5126,
      "count": 65534,
      "max": [
        0.8591974973678589,
        1.0
      ],
      "min": [
        0.0,
        0.10455667972564697
      ],
      "type": "VEC2"
    },
    {
      "bufferView": 0,
      "byteOffset": 3031428,
      "componentType": 5125,
      "count": 224748,
      "type": "SCALAR"
    },
    {
      "bufferView": 2,
      "byteOffset": 4718352,
      "componentType": 5126,
      "count": 65532,
      "max": [
        0.2875557541847229,
        0.23608069121837616,
        0.27866291999816895
      ],
      "min": [
        -0.2874985337257385,
        -0.5031812787055969,
        -0.28854328393936157
      ],
      "type": "VEC3"
    },
    {
      "bufferView": 2,
      "byteOffset": 5504736,
      "componentType": 5126,
      "count": 65532,
      "max": [
        0.9993613958358765,
        1.0,
        0.9999924898147583
      ],
      "min": [
        -0.9993693828582764,
        -1.0,
        -0.999354362487793
      ],
      "type": "VEC3"
    },
    {
      "bufferView": 1,
      "byteOffset": 3145568,
      "componentType": 5126,
      "count": 65532,
      "max": [
        0.9992210268974304,
        1.0
      ],
      "min": [
        -5.819757564751171e-09,
        0.11035740375518799
      ],
      "type": "VEC2"
    },
    {
      "bufferView": 1,
      "byteOffset": 3669824,
      "componentType": 5126,
      "count": 65532,
      "max": [
        0.9992210268974304,
        1.0
      ],
      "min": [
        -5.819757564751171e-09,
        0.11035740375518799
      ],
      "type": "VEC2"
    },
    {
      "bufferView": 0,
      "byteOffset": 3930420,
      "componentType": 5125,
      "count": 151875,
      "type": "SCALAR"
    },
    {
      "bufferView": 2,
      "byteOffset": 6291120,
      "componentType": 5126,
      "count": 11114,
      "max": [
        0.23493482172489166,
        0.23608067631721497,
        0.2282942831516266
      ],
      "min": [
        -0.2348776012659073,
        0.20897583663463593,
        -0.23755371570587158
      ],
      "type": "VEC3"
    },
    {
      "bufferView": 2,
      "byteOffset": 6424488,
      "componentType": 5126,
      "count": 11114,
      "max": [
        0.9892849326133728,
        0.9999991655349731,
        0.9659855365753174
      ],
      "min": [
        -0.9628299474716187,
        -0.5488910675048828,
        -0.9999924898147583
      ],
      "type": "VEC3"
    },
    {
      "bufferView": 1,
      "byteOffset": 4194080,
      "componentType": 5126,
      "count": 11114,
      "max": [
        1.000000238418579,
        0.6941682696342468
      ],
      "min": [
        0.2895205616950989,
        0.06702423095703125
      ],
      "type": "VEC2"
    },
    {
      "bufferView": 1,
      "byteOffset": 4282992,
      "componentType": 5126,
      "count": 11114,
      "max": [
        1.000000238418579,
        0.6941682696342468
      ],
      "min": [
        0.2895205616950989,
        0.06702423095703125
      ],
      "type": "VEC2"
    },
    {
      "bufferView": 0,
      "byteOffset": 4537920,
      "componentType": 5125,
      "count": 60336,
      "type": "SCALAR"
    },
    {
      "bufferView": 2,
      "byteOffset": 6557856,
      "componentType": 5126,
      "count": 47545,
      "max": [
        0.2883075773715973,
        0.22377826273441315,
        0.28569331765174866
      ],
      "min": [
        -0.2882503569126129,
        -0.4543227553367615,
        -0.2892580032348633
      ],
      "type": "VEC3"
    },
    {
      "bufferView": 2,
      "byteOffset": 7128396,
      "componentType": 5126,
      "count": 47545,
      "max": [
        1.0,
        0.6666990518569946,
        1.0
      ],
      "min": [
        -1.0,
        -0.43300896883010864,
        -1.0
      ],
      "type": "VEC3"
    },
    {
      "bufferView": 1,
      "byteOffset": 4371904,
      "componentType": 5126,
      "count": 47545,
      "max": [
        1.0000005960464478,
        0.9999323487281799
      ],
      "min": [
        2.294778823852539e-06,
        0.0006943941116333008
      ],
      "type": "VEC2"
    },
    {
      "bufferView": 0,
      "byteOffset": 4779264,
      "componentType": 5125,
      "count": 282624,
      "type": "SCALAR"
    }
  ],
  "asset": {
    "extras": {
      "author": "ohezza (https://sketchfab.com/ohezza)",
      "license": "CC-BY-4.0 (http://creativecommons.org/licenses/by/4.0/)",
      "source": "https://sketchfab.com/3d-models/pepsi-soda-can-f1a606f81ed14343832653cc937c5708",
      "title": "Pepsi Soda Can"
    },
    "generator": "Sketchfab-16.59.0",
    "version": "2.0"
  },
  "bufferViews": [
    {
      "buffer": 0,
      "byteLength": 5909760,
      "name": "floatBufferViews",
      "target": 34963
    },
    {
      "buffer": 0,
      "byteLength": 4752264,
      "byteOffset": 5909760,
      "byteStride": 8,
      "name": "floatBufferViews",
      "target": 34962
    },
    {
      "buffer": 0,
      "byteLength": 7698936,
      "byteOffset": 10662024,
      "byteStride": 12,
      "name": "floatBufferViews",
      "target": 34962
    }
  ],
  "buffers": [
    {
      "byteLength": 18360960,
      "uri": "scene.bin"
    }
  ],
  "extensionsUsed": [
    "KHR_texture_transform",
    "KHR_materials_specular"
  ],
  "images": [
    {
      "uri": "textures/material_metallicRoughness.png"
    },
    {
      "uri": "textures/UV_Wrap_baseColor.png"
    }
  ],
  "materials": [
    {
      "doubleSided": true,
      "extensions": {
        "KHR_materials_specular": {
          "specularColorFactor": [
            1.0,
            1.0,
            1.0
          ],
          "specularFactor": 1.0
        }
      },
      "name": "material",
      "pbrMetallicRoughness": {
        "baseColorFactor": [
          0.599538,
          0.599538,
          0.599538,
          1.0
        ],
        "metallicFactor": 0.2724882990318651,
        "metallicRoughnessTexture": {
          "extensions": {
            "KHR_texture_transform": {
              "scale": [
                0.499999,
                1
              ]
            }
          },
          "index": 0
        },
        "roughnessFactor": 0.22003065857653278
      }
    },
    {
      "doubleSided": true,
      "extensions": {
        "KHR_materials_specular": {
          "specularColorFactor": [
            1.0,
            1.0,
            1.0
          ],
          "specularFactor": 0.3132886860526791
        }
      },
      "name": "UV_Wrap",
      "pbrMetallicRoughness": {
        "baseColorTexture": {
          "extensions": {
            "KHR_texture_transform": {
              "offset": [
                1.58,
                0
              ]
            }
          },
          "index": 1
        },
        "metallicFactor": 0.6163772753501547,
        "roughnessFactor": 0.27831692574912426
      }
    }
  ],
  "meshes": [
    {
      "name": "Object_0",
      "primitives": [
        {
          "attributes": {
            "NORMAL": 1,
            "POSITION": 0,
            "TEXCOORD_0": 2,
            "TEXCOORD_1": 3
          },
          "indices": 4,
          "material": 0,
          "mode": 4
        }
      ]
    },
    {
      "name": "Object_1",
      "primitives": [
        {
          "attributes": {
            "NORMAL": 6,
            "POSITION": 5,
            "TEXCOORD_0": 7,
            "TEXCOORD_1": 8
          },
          "indices": 9,
          "material": 0,
          "mode": 4
        }
      ]
    },
    {
      "name": "Object_2",
      "primitives": [
        {
          "attributes": {
            "NORMAL": 11,
            "POSITION": 10,
            "TEXCOORD_0": 12,
            "TEXCOORD_1": 13
          },
          "indices": 14,
          "material": 0,
          "mode": 4
        }
      ]
    },
    {
      "name": "Object_3",
      "primitives": [
        {
          "attributes": {
            "NORMAL": 16,
            "POSITION": 15,
            "TEXCOORD_0": 17,
            "TEXCOORD_1": 18
          },
          "indices": 19,
          "material": 0,
          "mode": 4
        }
      ]
    },
    {
      "name": "Object_4",
      "primitives": [
        {
          "attributes": {
            "NORMAL": 21,
            "POSITION": 20,
            "TEXCOORD_0": 22,
            "TEXCOORD_1": 23
          },
          "indices": 24,
          "material": 0,
          "mode": 4
        }
      ]
    },
    {
      "name": "Object_5",
      "primitives": [
        {
          "attributes": {
            "NORMAL": 26,
            "POSITION": 25,
            "TEXCOORD_0": 27
          },
          "indices": 28,
          "material": 1,
          "mode": 4
        }
      ]
    }
  ],
  "nodes": [
    {
      "children": [
        1
      ],
      "matrix": [
        1.0,
        0.0,
        0.0,
        0.0,
        0.0,
        2.220446049250313e-16,
        -1.0,
        0.0,
        0.0,
        1.0,
        2.220446049250313e-16,
        0.0,
        0.0,
        0.0,
        0.0,
        1.0
      ],
      "name": "Sketchfab_model"
    },
    {
      "children": [
        2
      ],
      "name": "root"
    },
    {
      "children": [
        3
      ],
      "matrix": [
        1.0,
        0.0,
        0.0,
        0.0,
        0.0,
        2.220446049250313e-16,
        1.0,
        0.0,
        0.0,
        -1.0,
        2.220446049250313e-16,
        0.0,
        0.0,
        0.0,
        0.0,
        1.0
      ],
      "name": "GLTF_SceneRootNode"
    },
    {
      "children": [
        4,
        5,
        6,
        7,
        8,
        9
      ],
      "matrix": [
        0.10458653145050133,
        0.0,
        0.040761265977625305,
        0.0,
        -0.0,
        0.16454848647117615,
        0.0,
        0.0,
        -0.040761265977625305,
        0.0,
        0.10458653145050133,
        0.0,
        -3.2186508178710938e-06,
        0.08314633369445801,
        0.0002000853419303894,
        1.0
      ],
      "name": "Cylinder.003_0"
    },
    {
      "mesh": 0,
      "name": "Object_4"
    },
    {
      "mesh": 1,
      "name": "Object_5"
    },
    {
      "mesh": 2,
      "name": "Object_6"
    },
    {
      "mesh": 3,
      "name": "Object_7"
    },
    {
      "mesh": 4,
      "name": "Object_8"
    },
    {
      "mesh": 5,
      "name": "Object_9"
    }
  ],
  "samplers": [
    {
      "magFilter": 9729,
      "minFilter": 9987,
      "wrapS": 10497,
      "wrapT": 10497
    }
  ],
  "scene": 0,
  "scenes": [
    {
      "name": "Sketchfab_Scene",
      "nodes": [
        0
      ]
    }
  ],
  "textures": [
    {
      "sampler": 0,
      "source": 0
    },
    {
      "sampler": 0,
      "source": 1
    }
  ]
}
