{
  "accessors": [
    {
      "bufferView": 2,
      "componentType": 5126,
      "count": 60169,
      "max": [
        1.3477922677993774,
        0.9934002161026001,
        0.06269992887973785
      ],
      "min": [
        -1.3477922677993774,
        -1.0275897979736328,
        -0.22692468762397766
      ],
      "type": "VEC3"
    },
    {
      "bufferView": 2,
      "byteOffset": 722028,
      "componentType": 5126,
      "count": 60169,
      "max": [
        0.9999921321868896,
        0.9999561309814453,
        0.9999998807907104
      ],
      "min": [
        -0.9999414086341858,
        -0.9998155832290649,
        -0.9998233914375305
      ],
      "type": "VEC3"
    },
    {
      "bufferView": 1,
      "componentType": 5126,
      "count": 60169,
      "max": [
        0.9986799359321594,
        0.9999849796295166
      ],
      "min": [
        6.82499012327753e-06,
        8.265234646387398e-05
      ],
      "type": "VEC2"
    },
    {
      "bufferView": 1,
      "byteOffset": 481352,
      "componentType": 5126,
      "count": 60169,
      "max": [
        0.9986799359321594,
        0.9999849796295166
      ],
      "min": [
        6.82499012327753e-06,
        8.265234646387398e-05
      ],
      "type": "VEC2"
    },
    {
      "bufferView": 1,
      "byteOffset": 962704,
      "componentType": 5126,
      "count": 60169,
      "max": [
        0.9986799359321594,
        0.9999849796295166
      ],
      "min": [
        6.82499012327753e-06,
        8.265234646387398e-05
      ],
      "type": "VEC2"
    },
    {
      "bufferView": 0,
      "componentType": 5125,
      "count": 292512,
      "type": "SCALAR"
    }
  ],
  "asset": {
    "extras": {
      "author": "josepholiverdev (https://sketchfab.com/josepholiverdev)",
      "license": "CC-BY-4.0 (http://creativecommons.org/licenses/by/4.0/)",
      "source": "https://sketchfab.com/3d-models/meh-wood-fence-ea153d7d306d47248dd7fcaa06a55998",
      "title": "meh wood fence"
    },
    "generator": "Sketchfab-12.68.0",
    "version": "2.0"
  },
  "bufferViews": [
    {
      "buffer": 0,
      "byteLength": 1170048,
      "name": "floatBufferViews",
      "target": 34963
    },
    {
      "buffer": 0,
      "byteLength": 1444056,
      "byteOffset": 1170048,
      "byteStride": 8,
      "name": "floatBufferViews",
      "target": 34962
    },
    {
      "buffer": 0,
      "byteLength": 1444056,
      "byteOffset": 2614104,
      "byteStride": 12,
      "name": "floatBufferViews",
      "target": 34962
    }
  ],
  "buffers": [
    {
      "byteLength": 4058160,
      "uri": "scene.bin"
    }
  ],
  "extensionsUsed": [
    "KHR_materials_unlit"
  ],
  "images": [
    {
      "uri": "textures/material_0_baseColor.jpeg"
    }
  ],
  "materials": [
    {
      "extensions": {
        "KHR_materials_unlit": {}
      },
      "name": "material_0",
      "pbrMetallicRoughness": {
        "baseColorTexture": {
          "index": 0
        },
        "metallicFactor": 0.0
      }
    }
  ],
  "meshes": [
    {
      "name": "Object_0",
      "primitives": [
        {
          "attributes": {
            "NORMAL": 1,
            "POSITION": 0,
            "TEXCOORD_0": 2,
            "TEXCOORD_1": 3,
            "TEXCOORD_2": 4
          },
          "indices": 5,
          "material": 0,
          "mode": 4
        }
      ]
    }
  ],
  "nodes": [
    {
      "children": [
        1
      ],
      "matrix": [
        1.0,
        0.0,
        0.0,
        0.0,
        0.0,
        2.220446049250313e-16,
        -1.0,
        0.0,
        0.0,
        1.0,
        2.220446049250313e-16,
        0.0,
        0.0,
        0.0,
        0.0,
        1.0
      ],
      "name": "Sketchfab_model"
    },
    {
      "children": [
        2
      ],
      "name": "root"
    },
    {
      "children": [
        3
      ],
      "matrix": [
        1.0,
        0.0,
        0.0,
        0.0,
        0.0,
        2.220446049250313e-16,
        1.0,
        0.0,
        0.0,
        -1.0,
        2.220446049250313e-16,
        0.0,
        0.0,
        0.0,
        0.0,
        1.0
      ],
      "name": "GLTF_SceneRootNode"
    },
    {
      "children": [
        4
      ],
      "name": "_0"
    },
    {
      "mesh": 0,
      "name": "Object_4"
    }
  ],
  "samplers": [
    {
      "magFilter": 9729,
      "minFilter": 9987,
      "wrapS": 10497,
      "wrapT": 10497
    }
  ],
  "scene": 0,
  "scenes": [
    {
      "name": "Sketchfab_Scene",
      "nodes": [
        0
      ]
    }
  ],
  "textures": [
    {
      "sampler": 0,
      "source": 0
    }
  ]
}
