# This file is brought to you by Roblox Corporation
# Generated by Roblox Studio

mtllib pinto.mtl

g Suporte1

v -36.6415 6.80217 -18.3587 
v -36.6415 6.80217 -17.9347 
v -36.6415 0.492156 -18.3587 
v -36.6415 0.492156 -17.9347 
v -37.0185 6.80217 -17.9347 
v -36.6415 6.80217 -17.9347 
v -37.0185 6.80217 -18.3587 
v -36.6415 6.80217 -18.3587 
v -36.6415 6.80217 -17.9347 
v -37.0185 6.80217 -17.9347 
v -36.6415 0.492156 -17.9347 
v -37.0185 0.492156 -17.9347 
v -37.0185 6.80217 -17.9347 
v -37.0185 6.80217 -18.3587 
v -37.0185 0.492156 -17.9347 
v -37.0185 0.492156 -18.3587 
v -37.0185 0.492156 -18.3587 
v -36.6415 0.492156 -18.3587 
v -37.0185 0.492156 -17.9347 
v -36.6415 0.492156 -17.9347 
v -37.0185 6.80217 -18.3587 
v -36.6415 6.80217 -18.3587 
v -37.0185 0.492156 -18.3587 
v -36.6415 0.492156 -18.3587 

vn 1 0 0 
vn 1 0 0 
vn 1 0 0 
vn 1 0 0 
vn 0 1 0 
vn 0 1 0 
vn 0 1 0 
vn 0 1 0 
vn 0 0 1 
vn 0 0 1 
vn 0 0 1 
vn 0 0 1 
vn -1 0 0 
vn -1 0 0 
vn -1 0 0 
vn -1 0 0 
vn 0 -1 0 
vn 0 -1 0 
vn 0 -1 0 
vn 0 -1 0 
vn 0 0 -1 
vn 0 0 -1 
vn 0 0 -1 
vn 0 0 -1 

vt 0.343949 1.11107 
vt 0.290949 1.11107 
vt 0.343949 0.32232 
vt 0.290949 0.32232 
vt 0.338074 1.11107 
vt 0.290949 1.11107 
vt 0.338074 1.05807 
vt 0.290949 1.05807 
vt 0.338074 1.11107 
vt 0.290949 1.11107 
vt 0.338074 0.32232 
vt 0.290949 0.32232 
vt 0.343949 1.11107 
vt 0.290949 1.11107 
vt 0.343949 0.32232 
vt 0.290949 0.32232 
vt 0.338074 1.11107 
vt 0.290949 1.11107 
vt 0.338074 1.05807 
vt 0.290949 1.05807 
vt 0.338074 1.11107 
vt 0.290949 1.11107 
vt 0.338074 0.32232 
vt 0.290949 0.32232 

usemtl Suporte1Mtl

f 1/1/1 2/2/2 3/3/3 
f 3/3/3 2/2/2 4/4/4 
f 5/5/5 6/6/6 7/7/7 
f 7/7/7 6/6/6 8/8/8 
f 9/9/9 10/10/10 11/11/11 
f 11/11/11 10/10/10 12/12/12 
f 13/13/13 14/14/14 15/15/15 
f 15/15/15 14/14/14 16/16/16 
f 17/17/17 18/18/18 19/19/19 
f 19/19/19 18/18/18 20/20/20 
f 21/21/21 22/22/22 23/23/23 
f 23/23/23 22/22/22 24/24/24 

g Suporte2

v -32.6021 6.99988 -18.3577 
v -32.6021 6.99988 -17.9337 
v -32.6021 6.63788 -18.3577 
v -32.6021 6.63788 -17.9337 
v -37.0021 6.99988 -17.9337 
v -32.6021 6.99988 -17.9337 
v -37.0021 6.99988 -18.3577 
v -32.6021 6.99988 -18.3577 
v -32.6021 6.99988 -17.9337 
v -37.0021 6.99988 -17.9337 
v -32.6021 6.63788 -17.9337 
v -37.0021 6.63788 -17.9337 
v -37.0021 6.99988 -17.9337 
v -37.0021 6.99988 -18.3577 
v -37.0021 6.63788 -17.9337 
v -37.0021 6.63788 -18.3577 
v -37.0021 6.63788 -18.3577 
v -32.6021 6.63788 -18.3577 
v -37.0021 6.63788 -17.9337 
v -32.6021 6.63788 -17.9337 
v -37.0021 6.99988 -18.3577 
v -32.6021 6.99988 -18.3577 
v -37.0021 6.63788 -18.3577 
v -32.6021 6.63788 -18.3577 

vn 1 0 0 
vn 1 0 0 
vn 1 0 0 
vn 1 0 0 
vn 0 1 0 
vn 0 1 0 
vn 0 1 0 
vn 0 1 0 
vn 0 0 1 
vn 0 0 1 
vn 0 0 1 
vn 0 0 1 
vn -1 0 0 
vn -1 0 0 
vn -1 0 0 
vn -1 0 0 
vn 0 -1 0 
vn 0 -1 0 
vn 0 -1 0 
vn 0 -1 0 
vn 0 0 -1 
vn 0 0 -1 
vn 0 0 -1 
vn 0 0 -1 

vt 0.283074 1.27909 
vt 0.230074 1.27909 
vt 0.283074 1.23384 
vt 0.230074 1.23384 
vt 0.780074 1.27909 
vt 0.230074 1.27909 
vt 0.780074 1.22609 
vt 0.230074 1.22609 
vt 0.780074 1.27909 
vt 0.230074 1.27909 
vt 0.780074 1.23384 
vt 0.230074 1.23384 
vt 0.283074 1.27909 
vt 0.230074 1.27909 
vt 0.283074 1.23384 
vt 0.230074 1.23384 
vt 0.780074 1.27909 
vt 0.230074 1.27909 
vt 0.780074 1.22609 
vt 0.230074 1.22609 
vt 0.780074 1.27909 
vt 0.230074 1.27909 
vt 0.780074 1.23384 
vt 0.230074 1.23384 

usemtl Suporte1Mtl

f 25/25/25 26/26/26 27/27/27 
f 27/27/27 26/26/26 28/28/28 
f 29/29/29 30/30/30 31/31/31 
f 31/31/31 30/30/30 32/32/32 
f 33/33/33 34/34/34 35/35/35 
f 35/35/35 34/34/34 36/36/36 
f 37/37/37 38/38/38 39/39/39 
f 39/39/39 38/38/38 40/40/40 
f 41/41/41 42/42/42 43/43/43 
f 43/43/43 42/42/42 44/44/44 
f 45/45/45 46/46/46 47/47/47 
f 47/47/47 46/46/46 48/48/48 

g Suporte3

v -32.6027 6.80037 -18.3584 
v -32.6027 6.80037 -17.934 
v -32.6027 0.546075 -18.3584 
v -32.6027 0.546075 -17.934 
v -32.9798 6.80037 -17.934 
v -32.6027 6.80037 -17.934 
v -32.9798 6.80037 -18.3584 
v -32.6027 6.80037 -18.3584 
v -32.6027 6.80037 -17.934 
v -32.9798 6.80037 -17.934 
v -32.6027 0.546075 -17.934 
v -32.9798 0.546075 -17.934 
v -32.9798 6.80037 -17.934 
v -32.9798 6.80037 -18.3584 
v -32.9798 0.546075 -17.934 
v -32.9798 0.546075 -18.3584 
v -32.9798 0.546075 -18.3584 
v -32.6027 0.546075 -18.3584 
v -32.9798 0.546075 -17.934 
v -32.6027 0.546075 -17.934 
v -32.9798 6.80037 -18.3584 
v -32.6027 6.80037 -18.3584 
v -32.9798 0.546075 -18.3584 
v -32.6027 0.546075 -18.3584 

vn 1 0 0 
vn 1 0 0 
vn 1 0 0 
vn 1 0 0 
vn 0 1 0 
vn 0 1 0 
vn 0 1 0 
vn 0 1 0 
vn 0 0 1 
vn 0 0 1 
vn 0 0 1 
vn 0 0 1 
vn -1 0 0 
vn -1 0 0 
vn -1 0 0 
vn -1 0 0 
vn 0 -1 0 
vn 0 -1 0 
vn 0 -1 0 
vn 0 -1 0 
vn 0 0 -1 
vn 0 0 -1 
vn 0 0 -1 
vn 0 0 -1 

vt -0.32666 1.13468 
vt -0.379706 1.13468 
vt -0.32666 0.352892 
vt -0.379706 0.352892 
vt -0.332574 1.13468 
vt -0.379706 1.13468 
vt -0.332574 1.08163 
vt -0.379706 1.08163 
vt -0.332574 1.13468 
vt -0.379706 1.13468 
vt -0.332574 0.352892 
vt -0.379706 0.352892 
vt -0.32666 1.13468 
vt -0.379706 1.13468 
vt -0.32666 0.352892 
vt -0.379706 0.352892 
vt -0.332574 1.13468 
vt -0.379706 1.13468 
vt -0.332574 1.08163 
vt -0.379706 1.08163 
vt -0.332574 1.13468 
vt -0.379706 1.13468 
vt -0.332574 0.352892 
vt -0.379706 0.352892 

usemtl Suporte1Mtl

f 49/49/49 50/50/50 51/51/51 
f 51/51/51 50/50/50 52/52/52 
f 53/53/53 54/54/54 55/55/55 
f 55/55/55 54/54/54 56/56/56 
f 57/57/57 58/58/58 59/59/59 
f 59/59/59 58/58/58 60/60/60 
f 61/61/61 62/62/62 63/63/63 
f 63/63/63 62/62/62 64/64/64 
f 65/65/65 66/66/66 67/67/67 
f 67/67/67 66/66/66 68/68/68 
f 69/69/69 70/70/70 71/71/71 
f 71/71/71 70/70/70 72/72/72 

g Knob1

v -36.3799 2.91603 -18.4957 
v -36.3799 2.91603 -18.6957 
v -36.0799 2.91603 -18.4957 
v -36.3799 2.91603 -18.6957 
v -36.3799 2.91603 -18.4957 
v -36.3799 3.21603 -18.4957 
v -36.0799 3.21603 -18.4957 
v -36.3799 3.21603 -18.4957 
v -36.0799 2.91603 -18.4957 
v -36.3799 3.21603 -18.4957 
v -36.0799 3.21603 -18.4957 
v -36.0799 3.21603 -18.6957 
v -36.0799 3.21603 -18.6957 
v -36.3799 2.91603 -18.6957 
v -36.3799 3.21603 -18.6957 
v -36.0799 2.91603 -18.6957 
v -36.0799 2.91603 -18.6957 
v -36.0799 3.21603 -18.4957 
v -36.0799 2.91603 -18.4957 
v -36.0799 3.21603 -18.6957 
v -36.0799 2.91603 -18.6957 
v -36.3799 2.91603 -18.4957 
v -36.3299 3.16603 -18.4957 
v -36.3299 2.96603 -18.4957 
v -36.3299 2.96603 -18.3457 
v -36.3299 2.96603 -18.4957 
v -36.3299 3.16603 -18.4957 
v -36.1299 2.96603 -18.4957 
v -36.1299 3.16603 -18.4957 
v -36.1299 3.16603 -18.4957 
v -36.3299 3.16603 -18.4957 
v -36.1299 3.16603 -18.3457 
v -36.1299 2.96603 -18.4957 
v -36.1299 3.16603 -18.4957 
v -36.1299 2.96603 -18.3457 
v -36.3299 2.96603 -18.4957 
v -36.1299 2.96603 -18.4957 
v -36.1299 2.96603 -18.3457 
v -36.1299 3.16603 -18.3457 
v -36.0299 3.41603 -17.9457 
v -36.4299 3.41603 -17.9457 
v -36.1299 3.16603 -17.9457 
v -36.4299 3.41603 -17.9457 
v -36.0299 3.41603 -17.9457 
v -36.0299 3.41603 -18.3457 
v -36.3799 2.91603 -17.7957 
v -36.3299 2.96603 -17.7957 
v -36.0799 2.91603 -17.7957 
v -36.3299 3.16603 -17.7957 
v -36.3799 3.21603 -17.7957 
v -36.0799 3.21603 -17.7957 
v -36.3299 2.96603 -17.7957 
v -36.3299 3.16603 -17.7957 
v -36.3299 3.16603 -17.9457 
v -36.1299 3.16603 -17.7957 
v -36.3299 3.16603 -17.7957 
v -36.1299 3.16603 -17.7957 
v -36.3299 3.16603 -17.9457 
v -36.1299 2.96603 -17.7957 
v -36.1299 3.16603 -17.7957 
v -36.1299 2.96603 -17.7957 
v -36.1299 3.16603 -17.9457 
v -36.0799 2.91603 -17.7957 
v -36.0799 3.21603 -17.7957 
v -36.0799 2.91603 -17.5957 
v -36.1299 2.96603 -17.7957 
v -36.3299 2.96603 -17.7957 
v -36.1299 2.96603 -17.9457 
v -36.3799 2.91603 -17.7957 
v -36.0799 2.91603 -17.7957 
v -36.0799 2.91603 -17.5957 
v -36.4299 2.71603 -18.3457 
v -36.3299 2.96603 -18.3457 
v -36.1299 2.96603 -18.3457 
v -36.4299 3.41603 -18.3457 
v -36.3299 2.96603 -18.3457 
v -36.3299 3.16603 -18.3457 
v -36.3299 3.16603 -18.3457 
v -36.3299 3.16603 -18.3457 
v -36.3299 2.96603 -17.9457 
v -36.3299 2.96603 -17.9457 
v -36.1299 3.16603 -18.3457 
v -36.3299 2.96603 -17.9457 
v -36.4299 2.71603 -17.9457 
v -36.1299 2.96603 -17.9457 
v -36.1299 3.16603 -17.9457 
v -36.3299 3.16603 -17.9457 
v -36.0299 3.41603 -18.3457 
v -36.1299 2.96603 -17.9457 
v -36.0299 2.71603 -18.3457 
v -36.0299 2.71603 -18.3457 
v -36.0299 3.41603 -18.3457 
v -36.0299 3.41603 -17.9457 
v -36.0299 2.71603 -17.9457 
v -36.0299 2.71603 -17.9457 
v -36.0299 2.71603 -18.3457 
v -36.0299 2.71603 -17.9457 
v -36.4299 2.71603 -18.3457 
v -36.4299 2.71603 -17.9457 
v -36.0799 2.91603 -17.5957 
v -36.0799 3.21603 -17.5957 
v -36.3799 2.91603 -17.5957 
v -36.0799 3.21603 -17.5957 
v -36.3799 3.21603 -18.6957 
v -36.3799 3.21603 -18.6957 
v -36.3799 3.21603 -17.5957 
v -36.3799 2.91603 -17.7957 
v -36.3799 2.91603 -17.5957 
v -36.3799 3.21603 -17.7957 
v -36.3799 2.91603 -17.5957 
v -36.4299 3.41603 -17.9457 
v -36.4299 2.71603 -18.3457 
v -36.4299 2.71603 -17.9457 
v -36.4299 3.41603 -18.3457 
v -36.3799 3.21603 -17.7957 
v -36.3799 3.21603 -17.5957 
v -36.0799 3.21603 -17.5957 
v -36.3799 3.21603 -17.5957 
v -36.0799 3.21603 -17.7957 
v -36.4299 3.41603 -18.3457 

vn 0 -1 0 
vn 0 -1 0 
vn 0 -1 0 
vn -1 0 0 
vn -1 0 0 
vn -1 0 0 
vn 0 0 1 
vn 0 0 1 
vn 0 0 1 
vn 0 1 0 
vn 0 1 0 
vn 0 1 0 
vn 0 0 -1 
vn 0 0 -1 
vn 0 0 -1 
vn 0 0 -1 
vn 0 -1 0 
vn 1 0 0 
vn 1 0 0 
vn 1 0 0 
vn 1 0 0 
vn 0 0 1 
vn -1 0 0 
vn -1 0 0 
vn -1 0 0 
vn 0 0 -1 
vn 0 0 -1 
vn 0 0 -1 
vn 0 0 -1 
vn 0 1 0 
vn 0 1 0 
vn 0 1 0 
vn 1 0 0 
vn 1 0 0 
vn 1 0 0 
vn 0 -1 0 
vn 0 -1 0 
vn 0 -1 0 
vn 1 0 0 
vn 0 0 1 
vn 0 0 1 
vn 0 0 1 
vn 0 1 0 
vn 0 1 0 
vn 0 1 0 
vn 0 0 -1 
vn 0 0 -1 
vn 0 0 -1 
vn 0 0 -1 
vn 0 0 -1 
vn 0 0 -1 
vn -1 0 0 
vn -1 0 0 
vn -1 0 0 
vn 0 0 -1 
vn 0 1 0 
vn 0 1 0 
vn 0 1 0 
vn 0 0 -1 
vn 1 0 0 
vn 1 0 0 
vn 1 0 0 
vn 1 0 0 
vn 1 0 0 
vn 1 0 0 
vn 0 -1 0 
vn 0 -1 0 
vn 0 -1 0 
vn 0 -1 0 
vn 0 -1 0 
vn 0 -1 0 
vn 0 0 -1 
vn 0 0 -1 
vn 0 0 -1 
vn 0 0 -1 
vn 0 -1 0 
vn 0 0 -1 
vn -1 0 0 
vn 0 1 0 
vn 0 -1 0 
vn -1 0 0 
vn 0 0 -1 
vn 0 0 1 
vn 0 0 1 
vn 0 0 1 
vn 0 1 0 
vn 0 0 1 
vn 0 0 -1 
vn 1 0 0 
vn 0 0 -1 
vn 1 0 0 
vn 1 0 0 
vn 1 0 0 
vn 0 0 1 
vn 1 0 0 
vn 0 -1 0 
vn 0 -1 0 
vn 0 -1 0 
vn 0 -1 0 
vn 0 0 1 
vn 0 0 1 
vn 0 0 1 
vn 1 0 0 
vn -1 0 0 
vn 0 1 0 
vn -1 0 0 
vn -1 0 0 
vn -1 0 0 
vn -1 0 0 
vn 0 -1 0 
vn -1 0 0 
vn -1 0 0 
vn -1 0 0 
vn -1 0 0 
vn 0 1 0 
vn 0 1 0 
vn 0 1 0 
vn 0 0 1 
vn 0 1 0 
vn 0 1 0 

vt -2024.89 -2773.85 
vt -2024.89 -2773.83 
vt -2024.92 -2773.85 
vt 2774.21 -147.026 
vt 2774.23 -147.026 
vt 2774.23 -146.988 
vt 2023.2 -146.988 
vt 2023.16 -146.988 
vt 2023.2 -147.026 
vt 2023.16 -2773.85 
vt 2023.2 -2773.85 
vt 2023.2 -2773.83 
vt -2024.92 -146.988 
vt -2024.89 -147.026 
vt -2024.89 -146.988 
vt -2024.92 -147.026 
vt -2024.92 -2773.83 
vt -2775.95 -146.988 
vt -2775.95 -147.026 
vt -2775.93 -146.988 
vt -2775.93 -147.026 
vt 2023.16 -147.026 
vt 2774.23 -146.994 
vt 2774.23 -147.019 
vt 2774.25 -147.019 
vt -2024.89 -147.019 
vt -2024.89 -146.994 
vt -2024.92 -147.019 
vt -2024.92 -146.994 
vt 2023.19 -2773.85 
vt 2023.17 -2773.85 
vt 2023.19 -2773.87 
vt -2775.95 -147.019 
vt -2775.95 -146.994 
vt -2775.97 -147.019 
vt -2024.89 -2773.85 
vt -2024.92 -2773.85 
vt -2024.92 -2773.87 
vt -2775.97 -146.994 
vt 2023.21 -146.963 
vt 2023.16 -146.963 
vt 2023.19 -146.994 
vt 2023.16 -2773.92 
vt 2023.21 -2773.92 
vt 2023.21 -2773.87 
vt -2024.89 -147.026 
vt -2024.89 -147.019 
vt -2024.92 -147.026 
vt -2024.89 -146.994 
vt -2024.89 -146.988 
vt -2024.92 -146.988 
vt 2774.32 -147.019 
vt 2774.32 -146.994 
vt 2774.3 -146.994 
vt -2024.92 -146.994 
vt 2023.17 -2773.94 
vt 2023.19 -2773.94 
vt 2023.17 -2773.92 
vt -2024.92 -147.019 
vt -2776.04 -146.994 
vt -2776.04 -147.019 
vt -2776.02 -146.994 
vt -2776.04 -147.026 
vt -2776.04 -146.988 
vt -2776.07 -147.026 
vt -2024.92 -2773.94 
vt -2024.89 -2773.94 
vt -2024.92 -2773.92 
vt -2024.89 -2773.94 
vt -2024.92 -2773.94 
vt -2024.92 -2773.97 
vt -2024.88 -147.051 
vt -2024.89 -147.019 
vt -2024.92 -147.019 
vt -2024.88 -146.963 
vt -2024.89 -2773.87 
vt -2024.89 -146.994 
vt 2774.25 -146.994 
vt 2023.17 -2773.87 
vt -2024.89 -2773.92 
vt 2774.3 -147.019 
vt -2024.92 -146.994 
vt 2023.17 -147.019 
vt 2023.16 -147.051 
vt 2023.19 -147.019 
vt 2023.19 -2773.92 
vt 2023.17 -146.994 
vt -2024.93 -146.963 
vt -2776.02 -147.019 
vt -2024.93 -147.051 
vt -2775.97 -147.051 
vt -2775.97 -146.963 
vt -2776.02 -146.963 
vt 2023.21 -147.051 
vt -2776.02 -147.051 
vt -2024.93 -2773.87 
vt -2024.93 -2773.92 
vt -2024.88 -2773.87 
vt -2024.88 -2773.92 
vt 2023.2 -147.026 
vt 2023.2 -146.988 
vt 2023.16 -147.026 
vt -2776.07 -146.988 
vt 2774.21 -146.988 
vt 2023.16 -2773.83 
vt 2774.34 -146.988 
vt 2774.32 -147.026 
vt 2774.34 -147.026 
vt 2774.32 -146.988 
vt -2024.89 -2773.97 
vt 2774.3 -146.963 
vt 2774.25 -147.051 
vt 2774.3 -147.051 
vt 2774.25 -146.963 
vt 2023.16 -2773.94 
vt 2023.16 -2773.97 
vt 2023.2 -2773.97 
vt 2023.16 -146.988 
vt 2023.2 -2773.94 
vt 2023.16 -2773.87 

usemtl Knob1Mtl

f 73/73/73 74/74/74 75/75/75 
f 76/76/76 77/77/77 78/78/78 
f 79/79/79 80/80/80 81/81/81 
f 82/82/82 83/83/83 84/84/84 
f 85/85/85 86/86/86 87/87/87 
f 86/86/86 85/85/85 88/88/88 
f 74/74/74 89/89/89 75/75/75 
f 90/90/90 91/91/91 92/92/92 
f 91/91/91 93/93/93 92/92/92 
f 94/94/94 81/81/81 80/80/80 
f 95/95/95 96/96/96 97/97/97 
f 98/98/98 99/99/99 100/100/100 
f 99/99/99 101/101/101 100/100/100 
f 102/102/102 103/103/103 104/104/104 
f 105/105/105 106/106/106 107/107/107 
f 108/108/108 109/109/109 110/110/110 
f 107/107/107 106/106/106 111/111/111 
f 112/112/112 113/113/113 114/114/114 
f 115/115/115 116/116/116 117/117/117 
f 118/118/118 119/119/119 120/120/120 
f 119/119/119 118/118/118 121/121/121 
f 121/121/121 122/122/122 123/123/123 
f 122/122/122 121/121/121 118/118/118 
f 124/124/124 125/125/125 126/126/126 
f 127/127/127 123/123/123 120/120/120 
f 123/123/123 127/127/127 121/121/121 
f 128/128/128 129/129/129 130/130/130 
f 131/131/131 120/120/120 119/119/119 
f 120/120/120 131/131/131 127/127/127 
f 132/132/132 133/133/133 134/134/134 
f 135/135/135 136/136/136 137/137/137 
f 138/138/138 139/139/139 140/140/140 
f 141/141/141 142/142/142 143/143/143 
f 144/144/144 145/145/145 146/146/146 
f 145/145/145 144/144/144 147/147/147 
f 148/148/148 108/108/108 110/110/110 
f 149/149/149 145/145/145 147/147/147 
f 97/97/97 150/150/150 95/95/95 
f 103/103/103 151/151/151 104/104/104 
f 139/139/139 152/152/152 140/140/140 
f 153/153/153 124/124/124 126/126/126 
f 149/149/149 147/147/147 154/154/154 
f 155/155/155 156/156/156 157/157/157 
f 156/156/156 155/155/155 113/113/113 
f 129/129/129 158/158/158 130/130/130 
f 159/159/159 114/114/114 113/113/113 
f 154/154/154 160/160/160 146/146/146 
f 160/160/160 154/154/154 147/147/147 
f 133/133/133 161/161/161 134/134/134 
f 114/114/114 157/157/157 112/112/112 
f 146/146/146 162/162/162 144/144/144 
f 162/162/162 146/146/146 160/160/160 
f 163/163/163 164/164/164 165/165/165 
f 166/166/166 112/112/112 157/157/157 
f 165/165/165 167/167/167 163/163/163 
f 168/168/168 169/169/169 170/170/170 
f 166/166/166 157/157/157 156/156/156 
f 169/169/169 171/171/171 170/170/170 
f 172/172/172 173/173/173 174/174/174 
f 175/175/175 137/137/137 136/136/136 
f 76/76/76 78/78/78 176/176/176 
f 177/177/177 82/82/82 84/84/84 
f 178/178/178 179/179/179 180/180/180 
f 179/179/179 178/178/178 181/181/181 
f 182/182/182 141/141/141 143/143/143 
f 183/183/183 184/184/184 185/185/185 
f 184/184/184 183/183/183 186/186/186 
f 187/187/187 188/188/188 189/189/189 
f 190/190/190 174/174/174 173/173/173 
f 187/187/187 189/189/189 191/191/191 
f 192/192/192 115/115/115 117/117/117 
f 159/159/159 113/113/113 155/155/155 

g Doorframe1

v -33.3897 0.0873287 -18.2435 
v -33.3896 0.0873287 -18.2921 
v -33.3897 6.61266 -18.2435 
v -33.3896 6.61268 -18.2921 
v -33.3896 0.0873287 -18.2921 
v -33.5844 0.0873287 -18.2921 
v -33.3896 6.61268 -18.2921 
v -33.5844 6.61268 -18.2921 
v -33.3896 6.61268 -18 
v -33.5844 6.61268 -18 
v -33.3896 0.0873287 -18 
v -33.5844 0.0873287 -18 
v -33.5844 6.61268 -18 
v -33.5844 6.61266 -18.0487 
v -33.5844 0.0873287 -18 
v -33.5844 0.0873287 -18.0487 
v -33.5844 6.61266 -18.0487 
v -33.5844 6.61268 -18 
v -33.3897 6.61266 -18.0487 
v -33.3896 6.61268 -18 
v -33.5844 6.61268 -18.2921 
v -33.5844 6.61266 -18.2435 
v -33.3896 6.61268 -18.2921 
v -33.3897 6.61266 -18.2435 
v -33.1949 6.61268 -18.2921 
v -33.1949 6.61266 -18.2435 
v -33.0001 6.61268 -18.2921 
v -33.0001 6.61266 -18.2435 
v -33.0001 0.0873284 -18.2921 
v -33.1949 0.0873287 -18.2921 
v -33.0001 6.61268 -18.2921 
v -33.1949 6.61268 -18.2921 
v -33.1949 0.0873287 -18.2435 
v -33.1949 0.0873287 -18.2921 
v -33.0001 0.0873284 -18.2435 
v -33.0001 0.0873284 -18.2921 
v -33.0001 0.0873284 -18.2435 
v -33.0001 0.0873284 -18.2921 
v -33.0001 6.61266 -18.2435 
v -33.0001 6.61268 -18.2921 
v -33.0001 6.61266 -18.2435 
v -33 6.61267 -18.2436 
v -33.0001 0.0873284 -18.2435 
v -33 0.0873284 -18.2436 
v -33.0001 6.61266 -18.0487 
v -33 6.61267 -18.0487 
v -33.0001 6.61266 -18.2435 
v -33 6.61267 -18.2436 
v -33 6.61267 -18.2436 
v -33 6.61267 -18.0487 
v -33 0.0873284 -18.2436 
v -33 0.0873284 -18.0487 
v -33.0001 0.0873284 -18.2435 
v -33 0.0873284 -18.2436 
v -33.0001 0.0873284 -18.0487 
v -33 0.0873284 -18.0487 
v -33.0001 0.0873284 -18.0487 
v -33 0.0873284 -18.0487 
v -33.0001 6.61266 -18.0487 
v -33 6.61267 -18.0487 
v -33.0001 0.0873284 -18.0487 
v -33.0001 6.61266 -18.0487 
v -33.0001 0.0873284 -18 
v -33.0001 6.61268 -18 
v -33.1949 6.61266 -18.0487 
v -33.0001 6.61266 -18.0487 
v -33.1949 6.61268 -18 
v -33.0001 6.61268 -18 
v -33.0001 6.61268 -18 
v -33.1949 6.61268 -18 
v -33.0001 0.0873284 -18 
v -33.1949 0.0873287 -18 
v -33.1949 0.0873287 -18 
v -33.1949 0.0873287 -18.0487 
v -33.0001 0.0873284 -18 
v -33.0001 0.0873284 -18.0487 
v -33.1949 0.0873287 -18.0487 
v -33.1949 0.0873287 -18 
v -33.1949 6.61266 -18.0487 
v -33.1949 6.61268 -18 
v -33.1949 0.0873287 -18.2435 
v -33.1949 6.61266 -18.2435 
v -33.1949 0.0873287 -18.2921 
v -33.1949 6.61268 -18.2921 
v -33.1949 6.61266 -18.0487 
v -33.1949 6.61266 -18.2435 
v -33.3897 6.61266 -18.0487 
v -33.3897 6.61266 -18.2435 
v -33.1949 0.0873287 -18.0487 
v -33.1949 6.61266 -18.0487 
v -33.3897 0.0873287 -18.0487 
v -33.3897 6.61266 -18.0487 
v -33.3897 6.61266 -18.0487 
v -33.3896 6.61268 -18 
v -33.3897 0.0873287 -18.0487 
v -33.3896 0.0873287 -18 
v -33.1949 0.0873287 -18.0487 
v -33.3897 0.0873287 -18.0487 
v -33.1949 0.0873287 -18.2435 
v -33.3897 6.61266 -18.2435 
v -33.1949 6.61266 -18.2435 
v -33.3897 0.0873287 -18.2435 
v -33.1949 0.0873287 -18.2435 
v -33.3897 0.0873287 -18.2435 
v -33.5844 0.0873287 -18.2435 
v -33.5844 0.0873287 -18.2921 
v -33.3897 0.0873287 -18.2435 
v -33.3896 0.0873287 -18.2921 
v -33.5844 0.0873287 -18 
v -33.5844 0.0873287 -18.0487 
v -33.3896 0.0873287 -18 
v -33.3897 0.0873287 -18.0487 
v -33.5844 0.0873287 -18.2435 
v -33.5844 6.61266 -18.2435 
v -33.5844 0.0873287 -18.2921 
v -33.5844 6.61268 -18.2921 
v -34.3638 6.61266 -18.2435 
v -34.3638 6.61266 -18.0487 
v -34.169 6.61266 -18.2435 
v -34.169 6.61266 -18.0487 
v -34.169 0.0873287 -18.2921 
v -34.3638 0.0873289 -18.2921 
v -34.169 6.61268 -18.2921 
v -34.3638 6.61268 -18.2921 
v -34.3638 6.61268 -18.2921 
v -34.169 6.61268 -18.2921 
v -34.3638 0.0873289 -18.2435 
v -34.3638 0.0873289 -18.2921 
v -34.169 0.0873287 -18.2435 
v -34.169 0.0873287 -18.2921 
v -34.7535 6.61266 -18.0487 
v -34.7534 6.61268 -18 
v -34.5587 6.61266 -18.0487 
v -34.5587 6.61268 -18 
v -34.5587 6.61268 -18 
v -34.7534 6.61268 -18 
v -34.5587 0.0873289 -17.9999 
v -34.7534 0.0873289 -17.9999 
v -34.7534 6.61268 -18 
v -34.7535 6.61266 -18.0487 
v -34.7534 0.0873289 -17.9999 
v -34.7535 0.0873289 -18.0487 
v -34.9482 0.0873289 -18.2921 
v -35.143 0.0873289 -18.2921 
v -34.9482 6.61268 -18.2921 
v -35.143 6.61268 -18.2921 
v -35.9223 0.0873291 -18.2435 
v -36.1172 6.61266 -18.2435 
v -35.9223 6.61266 -18.2435 
v -36.312 6.61266 -18.2435 
v -36.312 0.0873291 -18.2435 
v -36.604 6.61267 -18.2436 
v -36.604 0.0873294 -18.2436 
v -36.604 0.0873294 -18.0487 
v -36.604 0.0873294 -18.2436 
v -36.312 0.0873291 -18.2435 
v -36.604 0.0873294 -18.0487 
v -36.604 6.61267 -18.0487 
v -36.604 0.0873294 -18.2436 
v -36.604 6.61267 -18.2436 
v -36.312 0.0873291 -18.0487 
v -36.312 0.0873291 -18.0487 
v -36.312 6.61266 -18.0487 
v -36.604 0.0873294 -18.0487 
v -36.604 6.61267 -18.0487 
v -36.312 0.0873291 -17.9999 
v -36.312 0.0873291 -18.0487 
v -36.1172 0.0873291 -17.9999 
v -36.1172 0.0873291 -18.0487 
v -36.1172 6.61268 -17.9999 
v -36.312 6.61268 -17.9999 
v -36.1172 0.0873291 -17.9999 
v -36.312 0.0873291 -17.9999 
v -36.312 0.0873291 -18.0487 
v -36.312 0.0873291 -17.9999 
v -36.312 6.61266 -18.0487 
v -36.312 6.61268 -17.9999 
v -36.312 6.61266 -18.0487 
v -36.312 6.61268 -17.9999 
v -36.1172 6.61266 -18.0487 
v -36.1172 6.61268 -17.9999 
v -36.312 6.61266 -18.2435 
v -36.604 6.61267 -18.2436 
v -36.312 6.61266 -18.0487 
v -36.604 6.61267 -18.0487 
v -36.312 6.61266 -18.2435 
v -36.1172 6.61266 -18.2435 
v -36.312 0.0873291 -18.2435 
v -36.312 6.61266 -18.2435 
v -36.312 0.0873291 -18.2921 
v -36.312 6.61268 -18.2921 
v -36.312 6.61268 -18.2921 
v -36.1172 6.61268 -18.2921 
v -36.1172 0.0873291 -18.2921 
v -36.312 0.0873291 -18.2921 
v -36.1172 6.61268 -18.2921 
v -36.312 6.61268 -18.2921 
v -36.312 0.0873291 -18.2435 
v -36.312 0.0873291 -18.2921 
v -36.1172 0.0873291 -18.2435 
v -36.1172 0.0873291 -18.2921 
v -36.1172 0.0873291 -18.2435 
v -36.1172 0.0873291 -18.2921 
v -36.1172 6.61266 -18.2435 
v -36.1172 6.61268 -18.2921 
v -36.1172 0.0873291 -18.2435 
v -36.1172 0.0873291 -18.0487 
v -36.1172 0.0873291 -18.2435 
v -35.9223 0.0873291 -18.2435 
v -36.1172 0.0873291 -18.0487 
v -36.1172 6.61266 -18.0487 
v -36.1172 0.0873291 -17.9999 
v -36.1172 6.61268 -17.9999 
v -35.9223 6.61266 -18.0487 
v -36.1172 6.61266 -18.0487 
v -35.9223 0.0873291 -18.0487 
v -36.1172 0.0873291 -18.0487 
v -35.7275 6.61266 -18.0487 
v -35.7275 6.61268 -17.9999 
v -35.7275 0.0873291 -18.0487 
v -35.7275 0.0873291 -17.9999 
v -35.7275 6.61268 -17.9999 
v -35.9223 6.61268 -17.9999 
v -35.7275 0.0873291 -17.9999 
v -35.9223 0.0873291 -17.9999 
v -35.9223 6.61268 -17.9999 
v -35.9223 6.61266 -18.0487 
v -35.9223 0.0873291 -17.9999 
v -35.9223 0.0873291 -18.0487 
v -35.9223 6.61266 -18.0487 
v -35.9223 6.61268 -17.9999 
v -35.7275 6.61266 -18.0487 
v -35.7275 6.61268 -17.9999 
v -36.1172 6.61266 -18.0487 
v -35.9223 6.61266 -18.0487 
v -36.1172 6.61266 -18.2435 
v -35.9223 6.61266 -18.2435 
v -35.9223 6.61266 -18.2435 
v -35.7275 6.61266 -18.2435 
v -35.9223 6.61268 -18.2921 
v -35.7275 6.61268 -18.2921 
v -35.7275 0.0873291 -18.2921 
v -35.9223 0.0873291 -18.2921 
v -35.7275 6.61268 -18.2921 
v -35.9223 6.61268 -18.2921 
v -35.9223 0.0873291 -18.2435 
v -35.9223 6.61266 -18.2435 
v -35.9223 0.0873291 -18.2921 
v -35.9223 6.61268 -18.2921 
v -35.9223 0.0873291 -18.2435 
v -35.9223 0.0873291 -18.2921 
v -35.7275 0.0873291 -18.2435 
v -35.7275 0.0873291 -18.2921 
v -35.9223 0.0873291 -18.0487 
v -35.9223 0.0873291 -17.9999 
v -35.9223 0.0873291 -18.0487 
v -35.7275 0.0873291 -17.9999 
v -35.7275 0.0873291 -18.0487 
v -35.7275 0.0873291 -18.2435 
v -35.7275 0.0873291 -18.2921 
v -35.7275 6.61266 -18.2435 
v -35.7275 6.61268 -18.2921 
v -35.5327 0.0873291 -18.2435 
v -35.7275 6.61266 -18.2435 
v -35.5327 6.61266 -18.2435 
v -35.7275 0.0873291 -18.2435 
v -35.7275 0.0873291 -18.2435 
v -35.5327 0.0873291 -18.2435 
v -35.7275 0.0873291 -18.0487 
v -35.5327 6.61266 -18.0487 
v -35.7275 6.61266 -18.0487 
v -35.5327 0.0873291 -18.0487 
v -35.7275 0.0873291 -18.0487 
v -35.3379 6.61266 -18.0487 
v -35.3379 6.61268 -17.9999 
v -35.3379 0.0873289 -18.0487 
v -35.3379 0.0873289 -17.9999 
v -35.3379 6.61268 -17.9999 
v -35.5327 6.61268 -17.9999 
v -35.3379 0.0873289 -17.9999 
v -35.5327 0.0873291 -17.9999 
v -35.5327 6.61268 -17.9999 
v -35.5327 6.61266 -18.0487 
v -35.5327 0.0873291 -17.9999 
v -35.5327 0.0873291 -18.0487 
v -35.5327 6.61266 -18.0487 
v -35.5327 6.61268 -17.9999 
v -35.3379 6.61266 -18.0487 
v -35.3379 6.61268 -17.9999 
v -35.7275 6.61266 -18.0487 
v -35.5327 6.61266 -18.0487 
v -35.7275 6.61266 -18.2435 
v -35.5327 6.61266 -18.2435 
v -35.5327 6.61266 -18.2435 
v -35.3379 6.61266 -18.2435 
v -35.5327 6.61268 -18.2921 
v -35.3379 6.61268 -18.2921 
v -35.3379 0.0873289 -18.2921 
v -35.5327 0.0873291 -18.2921 
v -35.3379 6.61268 -18.2921 
v -35.5327 6.61268 -18.2921 
v -35.5327 0.0873291 -18.2435 
v -35.5327 6.61266 -18.2435 
v -35.5327 0.0873291 -18.2921 
v -35.5327 6.61268 -18.2921 
v -35.5327 0.0873291 -18.2435 
v -35.5327 0.0873291 -18.2921 
v -35.3379 0.0873289 -18.2435 
v -35.3379 0.0873289 -18.2921 
v -35.5327 0.0873291 -18.0487 
v -35.5327 0.0873291 -17.9999 
v -35.5327 0.0873291 -18.0487 
v -35.3379 0.0873289 -17.9999 
v -35.3379 0.0873289 -18.0487 
v -35.3379 0.0873289 -18.2435 
v -35.3379 0.0873289 -18.2921 
v -35.3379 6.61266 -18.2435 
v -35.3379 6.61268 -18.2921 
v -35.1431 6.61266 -18.2435 
v -35.1431 0.0873289 -18.2435 
v -35.3379 6.61266 -18.2435 
v -35.3379 0.0873289 -18.2435 
v -35.3379 0.0873289 -18.2435 
v -35.1431 0.0873289 -18.2435 
v -35.3379 0.0873289 -18.0487 
v -35.1431 0.0873289 -18.0487 
v -35.1431 6.61266 -18.0487 
v -35.3379 0.0873289 -18.0487 
v -35.3379 6.61266 -18.0487 
v -34.9482 6.61268 -18 
v -35.143 6.61268 -18 
v -34.9482 0.0873289 -17.9999 
v -35.143 0.0873289 -17.9999 
v -35.1431 0.0873289 -18.0487 
v -35.143 0.0873289 -17.9999 
v -35.1431 6.61266 -18.0487 
v -35.143 6.61268 -18 
v -35.1431 6.61266 -18.0487 
v -35.143 6.61268 -18 
v -34.9482 6.61266 -18.0487 
v -34.9482 6.61268 -18 
v -35.1431 6.61266 -18.2435 
v -35.3379 6.61266 -18.2435 
v -35.1431 6.61266 -18.0487 
v -35.3379 6.61266 -18.0487 
v -35.1431 6.61266 -18.2435 
v -34.9482 6.61266 -18.2435 
v -35.143 6.61268 -18.2921 
v -34.9482 6.61268 -18.2921 
v -34.9482 6.61268 -18.2921 
v -34.9482 6.61266 -18.2435 
v -34.9482 0.0873289 -18.2921 
v -34.9482 0.0873289 -18.2435 
v -35.143 0.0873289 -18.2921 
v -34.9482 0.0873289 -18.2921 
v -34.9482 0.0873289 -18.2435 
v -35.1431 0.0873289 -18.2435 
v -35.1431 6.61266 -18.2435 
v -35.143 0.0873289 -18.2921 
v -35.143 6.61268 -18.2921 
v -35.1431 0.0873289 -18.2435 
v -35.1431 0.0873289 -18.0487 
v -35.143 0.0873289 -17.9999 
v -35.1431 0.0873289 -18.0487 
v -34.9482 0.0873289 -17.9999 
v -34.9482 0.0873289 -18.0487 
v -34.9482 0.0873289 -18.0487 
v -34.9482 6.61266 -18.0487 
v -34.9482 0.0873289 -17.9999 
v -34.9482 6.61268 -18 
v -34.7535 6.61266 -18.0487 
v -34.9482 6.61266 -18.0487 
v -34.9482 0.0873289 -18.0487 
v -34.7535 0.0873289 -18.0487 
v -34.9482 6.61266 -18.2435 
v -34.9482 6.61266 -18.0487 
v -34.7535 6.61266 -18.0487 
v -34.7535 6.61266 -18.2435 
v -34.7535 6.61266 -18.2435 
v -34.7535 0.0873289 -18.2435 
v -34.9482 6.61266 -18.2435 
v -34.9482 0.0873289 -18.2435 
v -34.7534 6.61268 -18.2921 
v -34.7535 6.61266 -18.2435 
v -34.5587 6.61268 -18.2921 
v -34.5587 6.61266 -18.2435 
v -34.5587 0.0873289 -18.2435 
v -34.5587 0.0873289 -18.2921 
v -34.5587 6.61266 -18.2435 
v -34.5587 6.61268 -18.2921 
v -34.5587 0.0873289 -18.2921 
v -34.7534 0.0873289 -18.2921 
v -34.5587 6.61268 -18.2921 
v -34.7534 6.61268 -18.2921 
v -34.7535 0.0873289 -18.2435 
v -34.7535 6.61266 -18.2435 
v -34.7534 0.0873289 -18.2921 
v -34.7534 6.61268 -18.2921 
v -34.7535 0.0873289 -18.2435 
v -34.7534 0.0873289 -18.2921 
v -34.5587 0.0873289 -18.2435 
v -34.5587 0.0873289 -18.2921 
v -34.7535 0.0873289 -18.0487 
v -34.9482 0.0873289 -18.0487 
v -34.7535 0.0873289 -18.2435 
v -34.9482 0.0873289 -18.2435 
v -34.7534 0.0873289 -17.9999 
v -34.7535 0.0873289 -18.0487 
v -34.5587 0.0873289 -17.9999 
v -34.5587 0.0873289 -18.0487 
v -34.5587 6.61266 -18.0487 
v -34.5587 6.61268 -18 
v -34.5587 0.0873289 -18.0487 
v -34.5587 0.0873289 -17.9999 
v -34.3638 0.0873289 -18.2435 
v -34.5587 0.0873289 -18.2435 
v -34.5587 6.61266 -18.2435 
v -34.3638 0.0873289 -18.2435 
v -34.3638 6.61266 -18.2435 
v -34.3638 0.0873289 -18.2921 
v -34.3638 6.61268 -18.2921 
v -34.3638 6.61266 -18.2435 
v -34.3638 0.0873289 -18.0487 
v -34.5587 0.0873289 -18.0487 
v -34.3638 0.0873289 -18.2435 
v -34.5587 0.0873289 -18.2435 
v -34.5587 6.61266 -18.0487 
v -34.5587 0.0873289 -18.0487 
v -34.3638 0.0873289 -18.0487 
v -34.5587 6.61266 -18.0487 
v -34.3638 6.61266 -18.0487 
v -34.5587 6.61266 -18.2435 
v -34.3638 6.61266 -18.2435 
v -34.3638 6.61266 -18.0487 
v -34.3638 6.61268 -18 
v -34.3638 6.61266 -18.0487 
v -34.3638 0.0873289 -18 
v -34.3638 0.0873289 -18.0487 
v -34.3638 0.0873289 -18 
v -34.3638 0.0873289 -18.0487 
v -34.169 0.0873287 -18 
v -34.169 0.0873287 -18.0487 
v -34.169 6.61268 -18 
v -34.3638 6.61268 -18 
v -34.169 0.0873287 -18 
v -34.3638 0.0873289 -18 
v -34.3638 6.61268 -18 
v -34.169 6.61268 -18 
v -34.169 6.61266 -18.0487 
v -34.169 6.61268 -18 
v -34.169 0.0873287 -18.0487 
v -34.169 0.0873287 -18 
v -34.169 0.0873287 -18.2435 
v -34.169 0.0873287 -18.2921 
v -34.169 6.61266 -18.2435 
v -34.169 6.61268 -18.2921 
v -33.7793 6.61268 -18 
v -33.9741 6.61268 -18 
v -33.7793 0.0873287 -18 
v -33.9741 0.0873287 -18 
v -33.7793 0.0873287 -18.2921 
v -33.9741 0.0873287 -18.2921 
v -33.7793 6.61268 -18.2921 
v -33.9741 6.61268 -18.2921 
v -33.9741 0.0873287 -18 
v -33.9741 0.0873287 -18.0487 
v -33.7793 0.0873287 -18 
v -33.7793 0.0873287 -18.0487 
v -33.9741 0.0873287 -18.2435 
v -33.9741 0.0873287 -18.2921 
v -33.7793 0.0873287 -18.2435 
v -33.7793 0.0873287 -18.2921 
v -33.9741 6.61266 -18.0487 
v -33.9741 6.61268 -18 
v -33.7793 6.61266 -18.0487 
v -33.7793 6.61268 -18 
v -33.9741 0.0873287 -18.0487 
v -33.9741 0.0873287 -18 
v -33.9741 6.61266 -18.0487 
v -33.9741 6.61268 -18 
v -33.7793 0.0873287 -18.0487 
v -33.7793 6.61266 -18.0487 
v -33.7793 0.0873287 -18 
v -33.7793 6.61268 -18 
v -33.7793 0.0873287 -18.2435 
v -33.7793 0.0873287 -18.2921 
v -33.7793 6.61266 -18.2435 
v -33.7793 6.61268 -18.2921 
v -33.9741 0.0873287 -18.2435 
v -33.9741 6.61266 -18.2435 
v -33.9741 0.0873287 -18.2921 
v -33.9741 6.61268 -18.2921 
v -33.9741 6.61268 -18.2921 
v -33.9741 6.61266 -18.2435 
v -33.7793 6.61268 -18.2921 
v -33.7793 6.61266 -18.2435 
v -33.9741 0.0873287 -18.0487 
v -33.9741 6.61266 -18.0487 
v -34.169 0.0873287 -18.0487 
v -34.169 6.61266 -18.0487 
v -33.9741 6.61266 -18.0487 
v -33.9741 6.61266 -18.2435 
v -34.169 6.61266 -18.0487 
v -34.169 6.61266 -18.2435 
v -33.9741 6.61266 -18.2435 
v -33.9741 0.0873287 -18.2435 
v -34.169 6.61266 -18.2435 
v -34.169 0.0873287 -18.2435 
v -33.9741 0.0873287 -18.2435 
v -33.9741 0.0873287 -18.0487 
v -34.169 0.0873287 -18.2435 
v -34.169 0.0873287 -18.0487 
v -33.7793 0.0873287 -18.2435 
v -33.5844 0.0873287 -18.2435 
v -33.7793 0.0873287 -18.0487 
v -33.5844 0.0873287 -18.0487 
v -33.7793 6.61266 -18.2435 
v -33.5844 6.61266 -18.2435 
v -33.7793 0.0873287 -18.2435 
v -33.5844 0.0873287 -18.2435 
v -33.7793 6.61266 -18.0487 
v -33.5844 6.61266 -18.0487 
v -33.7793 6.61266 -18.2435 
v -33.5844 6.61266 -18.2435 
v -33.7793 0.0873287 -18.0487 
v -33.5844 0.0873287 -18.0487 
v -33.7793 6.61266 -18.0487 
v -33.5844 6.61266 -18.0487 

vn 1 0 0 
vn 1 0 0 
vn 1 0 0 
vn 1 0 0 
vn 0 0 -1 
vn 0 0 -1 
vn 0 0 -1 
vn 0 0 -1 
vn 0 0 1 
vn 0 0 1 
vn 0 0 1 
vn 0 0 1 
vn -1 0 0 
vn -1 0 0 
vn -1 0 0 
vn -1 0 0 
vn 0 1 0 
vn 0 1 0 
vn 0 1 0 
vn 0 1 0 
vn 0 1 0 
vn 0 1 0 
vn 0 1 0 
vn 0 1 0 
vn 0 1 0 
vn 0 1 0 
vn 0 1 0 
vn 0 1 0 
vn 0 0 -1 
vn 0 0 -1 
vn 0 0 -1 
vn 0 0 -1 
vn 0 -1 0 
vn 0 -1 0 
vn 0 -1 0 
vn 0 -1 0 
vn 1 0 0 
vn 1 0 0 
vn 1 0 0 
vn 1 0 0 
vn 0 0 -1 
vn 0 0 -1 
vn 0 0 -1 
vn 0 0 -1 
vn 0 1 0 
vn 0 1 0 
vn 0 1 0 
vn 0 1 0 
vn 1 0 0 
vn 1 0 0 
vn 1 0 0 
vn 1 0 0 
vn 0 -1 0 
vn 0 -1 0 
vn 0 -1 0 
vn 0 -1 0 
vn 0 0 1 
vn 0 0 1 
vn 0 0 1 
vn 0 0 1 
vn 1 0 0 
vn 1 0 0 
vn 1 0 0 
vn 1 0 0 
vn 0 1 0 
vn 0 1 0 
vn 0 1 0 
vn 0 1 0 
vn 0 0 1 
vn 0 0 1 
vn 0 0 1 
vn 0 0 1 
vn 0 -1 0 
vn 0 -1 0 
vn 0 -1 0 
vn 0 -1 0 
vn -1 0 0 
vn -1 0 0 
vn -1 0 0 
vn -1 0 0 
vn -1 0 0 
vn -1 0 0 
vn -1 0 0 
vn -1 0 0 
vn 0 1 0 
vn 0 1 0 
vn 0 1 0 
vn 0 1 0 
vn 0 0 1 
vn 0 0 1 
vn 0 0 1 
vn 0 0 1 
vn 1 0 0 
vn 1 0 0 
vn 1 0 0 
vn 1 0 0 
vn 0 -1 0 
vn 0 -1 0 
vn 0 -1 0 
vn 0 0 -1 
vn 0 0 -1 
vn 0 0 -1 
vn 0 0 -1 
vn 0 -1 0 
vn 0 -1 0 
vn 0 -1 0 
vn 0 -1 0 
vn 0 -1 0 
vn 0 -1 0 
vn 0 -1 0 
vn 0 -1 0 
vn 0 -1 0 
vn -1 0 0 
vn -1 0 0 
vn -1 0 0 
vn -1 0 0 
vn 0 1 0 
vn 0 1 0 
vn 0 1 0 
vn 0 1 0 
vn 0 0 -1 
vn 0 0 -1 
vn 0 0 -1 
vn 0 0 -1 
vn 0 1 0 
vn 0 1 0 
vn 0 -1 0 
vn 0 -1 0 
vn 0 -1 0 
vn 0 -1 0 
vn 0 1 0 
vn 0 1 0 
vn 0 1 0 
vn 0 1 0 
vn 0 0 1 
vn 0 0 1 
vn 0 0 1 
vn 0 0 1 
vn -1 0 0 
vn -1 0 0 
vn -1 0 0 
vn -1 0 0 
vn 0 0 -1 
vn 0 0 -1 
vn 0 0 -1 
vn 0 0 -1 
vn 0 0 -1 
vn 0 0 -1 
vn 0 0 -1 
vn 0 0 -1 
vn 0 0 -1 
vn 0 0 -1 
vn 0 0 -1 
vn 0 -1 0 
vn 0 -1 0 
vn 0 -1 0 
vn -1 0 0 
vn -1 0 0 
vn -1 0 0 
vn -1 0 0 
vn 0 -1 0 
vn 0 0 1 
vn 0 0 1 
vn 0 0 1 
vn 0 0 1 
vn 0 -1 0 
vn 0 -1 0 
vn 0 -1 0 
vn 0 -1 0 
vn 0 0 1 
vn 0 0 1 
vn 0 0 1 
vn 0 0 1 
vn -1 0 0 
vn -1 0 0 
vn -1 0 0 
vn -1 0 0 
vn 0 1 0 
vn 0 1 0 
vn 0 1 0 
vn 0 1 0 
vn 0 1 0 
vn 0 1 0 
vn 0 1 0 
vn 0 1 0 
vn 0 1 0 
vn 0 1 0 
vn -1 0 0 
vn -1 0 0 
vn -1 0 0 
vn -1 0 0 
vn 0 1 0 
vn 0 1 0 
vn 0 0 -1 
vn 0 0 -1 
vn 0 0 -1 
vn 0 0 -1 
vn 0 -1 0 
vn 0 -1 0 
vn 0 -1 0 
vn 0 -1 0 
vn 1 0 0 
vn 1 0 0 
vn 1 0 0 
vn 1 0 0 
vn 0 0 -1 
vn 0 -1 0 
vn 0 -1 0 
vn 0 -1 0 
vn 1 0 0 
vn 1 0 0 
vn 1 0 0 
vn 1 0 0 
vn 0 0 1 
vn 0 0 1 
vn 0 0 1 
vn 0 0 1 
vn 1 0 0 
vn 1 0 0 
vn 1 0 0 
vn 1 0 0 
vn 0 0 1 
vn 0 0 1 
vn 0 0 1 
vn 0 0 1 
vn -1 0 0 
vn -1 0 0 
vn -1 0 0 
vn -1 0 0 
vn 0 1 0 
vn 0 1 0 
vn 0 1 0 
vn 0 1 0 
vn 0 1 0 
vn 0 1 0 
vn 0 1 0 
vn 0 1 0 
vn 0 1 0 
vn 0 1 0 
vn 0 1 0 
vn 0 1 0 
vn 0 0 -1 
vn 0 0 -1 
vn 0 0 -1 
vn 0 0 -1 
vn -1 0 0 
vn -1 0 0 
vn -1 0 0 
vn -1 0 0 
vn 0 -1 0 
vn 0 -1 0 
vn 0 -1 0 
vn 0 -1 0 
vn 0 -1 0 
vn 0 -1 0 
vn 0 -1 0 
vn 0 -1 0 
vn 0 -1 0 
vn 1 0 0 
vn 1 0 0 
vn 1 0 0 
vn 1 0 0 
vn 0 0 -1 
vn 0 0 -1 
vn 0 0 -1 
vn 0 0 -1 
vn 0 -1 0 
vn 0 -1 0 
vn 0 -1 0 
vn 0 0 1 
vn 0 0 1 
vn 0 0 1 
vn 0 0 1 
vn 1 0 0 
vn 1 0 0 
vn 1 0 0 
vn 1 0 0 
vn 0 0 1 
vn 0 0 1 
vn 0 0 1 
vn 0 0 1 
vn -1 0 0 
vn -1 0 0 
vn -1 0 0 
vn -1 0 0 
vn 0 1 0 
vn 0 1 0 
vn 0 1 0 
vn 0 1 0 
vn 0 1 0 
vn 0 1 0 
vn 0 1 0 
vn 0 1 0 
vn 0 1 0 
vn 0 1 0 
vn 0 1 0 
vn 0 1 0 
vn 0 0 -1 
vn 0 0 -1 
vn 0 0 -1 
vn 0 0 -1 
vn -1 0 0 
vn -1 0 0 
vn -1 0 0 
vn -1 0 0 
vn 0 -1 0 
vn 0 -1 0 
vn 0 -1 0 
vn 0 -1 0 
vn 0 -1 0 
vn 0 -1 0 
vn 0 -1 0 
vn 0 -1 0 
vn 0 -1 0 
vn 1 0 0 
vn 1 0 0 
vn 1 0 0 
vn 1 0 0 
vn 0 0 -1 
vn 0 0 -1 
vn 0 0 -1 
vn 0 0 -1 
vn 0 -1 0 
vn 0 -1 0 
vn 0 -1 0 
vn 0 0 1 
vn 0 0 1 
vn 0 0 1 
vn 0 0 1 
vn 0 0 1 
vn 0 0 1 
vn 0 0 1 
vn 0 0 1 
vn -1 0 0 
vn -1 0 0 
vn -1 0 0 
vn -1 0 0 
vn 0 1 0 
vn 0 1 0 
vn 0 1 0 
vn 0 1 0 
vn 0 1 0 
vn 0 1 0 
vn 0 1 0 
vn 0 1 0 
vn 0 1 0 
vn 0 1 0 
vn 0 1 0 
vn 0 1 0 
vn 1 0 0 
vn 1 0 0 
vn 1 0 0 
vn 1 0 0 
vn 0 -1 0 
vn 0 -1 0 
vn 0 -1 0 
vn -1 0 0 
vn -1 0 0 
vn -1 0 0 
vn -1 0 0 
vn 0 -1 0 
vn 0 -1 0 
vn 0 -1 0 
vn 0 -1 0 
vn 0 -1 0 
vn 0 -1 0 
vn 1 0 0 
vn 1 0 0 
vn 1 0 0 
vn 1 0 0 
vn 0 0 1 
vn 0 0 1 
vn 0 0 1 
vn 0 0 1 
vn 0 1 0 
vn 0 1 0 
vn 0 1 0 
vn 0 1 0 
vn 0 0 -1 
vn 0 0 -1 
vn 0 0 -1 
vn 0 0 -1 
vn 0 1 0 
vn 0 1 0 
vn 0 1 0 
vn 0 1 0 
vn 1 0 0 
vn 1 0 0 
vn 1 0 0 
vn 1 0 0 
vn 0 0 -1 
vn 0 0 -1 
vn 0 0 -1 
vn 0 0 -1 
vn -1 0 0 
vn -1 0 0 
vn -1 0 0 
vn -1 0 0 
vn 0 -1 0 
vn 0 -1 0 
vn 0 -1 0 
vn 0 -1 0 
vn 0 -1 0 
vn 0 -1 0 
vn 0 -1 0 
vn 0 -1 0 
vn 0 -1 0 
vn 0 -1 0 
vn 0 -1 0 
vn 0 -1 0 
vn 1 0 0 
vn 1 0 0 
vn 1 0 0 
vn 1 0 0 
vn 0 0 -1 
vn 0 0 -1 
vn 0 0 -1 
vn -1 0 0 
vn -1 0 0 
vn -1 0 0 
vn -1 0 0 
vn 0 0 -1 
vn 0 -1 0 
vn 0 -1 0 
vn 0 -1 0 
vn 0 -1 0 
vn 0 0 1 
vn 0 0 1 
vn 0 0 1 
vn 0 1 0 
vn 0 1 0 
vn 0 1 0 
vn 0 1 0 
vn 0 0 1 
vn -1 0 0 
vn -1 0 0 
vn -1 0 0 
vn -1 0 0 
vn 0 -1 0 
vn 0 -1 0 
vn 0 -1 0 
vn 0 -1 0 
vn 0 0 1 
vn 0 0 1 
vn 0 0 1 
vn 0 0 1 
vn 0 1 0 
vn 0 1 0 
vn 1 0 0 
vn 1 0 0 
vn 1 0 0 
vn 1 0 0 
vn 1 0 0 
vn 1 0 0 
vn 1 0 0 
vn 1 0 0 
vn 0 0 1 
vn 0 0 1 
vn 0 0 1 
vn 0 0 1 
vn 0 0 -1 
vn 0 0 -1 
vn 0 0 -1 
vn 0 0 -1 
vn 0 -1 0 
vn 0 -1 0 
vn 0 -1 0 
vn 0 -1 0 
vn 0 -1 0 
vn 0 -1 0 
vn 0 -1 0 
vn 0 -1 0 
vn 0 1 0 
vn 0 1 0 
vn 0 1 0 
vn 0 1 0 
vn -1 0 0 
vn -1 0 0 
vn -1 0 0 
vn -1 0 0 
vn 1 0 0 
vn 1 0 0 
vn 1 0 0 
vn 1 0 0 
vn 1 0 0 
vn 1 0 0 
vn 1 0 0 
vn 1 0 0 
vn -1 0 0 
vn -1 0 0 
vn -1 0 0 
vn -1 0 0 
vn 0 1 0 
vn 0 1 0 
vn 0 1 0 
vn 0 1 0 
vn 0 0 1 
vn 0 0 1 
vn 0 0 1 
vn 0 0 1 
vn 0 1 0 
vn 0 1 0 
vn 0 1 0 
vn 0 1 0 
vn 0 0 -1 
vn 0 0 -1 
vn 0 0 -1 
vn 0 0 -1 
vn 0 -1 0 
vn 0 -1 0 
vn 0 -1 0 
vn 0 -1 0 
vn 0 -1 0 
vn 0 -1 0 
vn 0 -1 0 
vn 0 -1 0 
vn 0 0 -1 
vn 0 0 -1 
vn 0 0 -1 
vn 0 0 -1 
vn 0 1 0 
vn 0 1 0 
vn 0 1 0 
vn 0 1 0 
vn 0 0 1 
vn 0 0 1 
vn 0 0 1 
vn 0 0 1 

vt 3.63931 -4.58813 
vt 3.64539 -4.58813 
vt 3.63931 -3.77247 
vt 3.64539 -3.77247 
vt 3.45059 -4.58813 
vt 3.47494 -4.58813 
vt 3.45059 -3.77247 
vt 3.47494 -3.77247 
vt 3.80368 -3.77247 
vt 3.77933 -3.77247 
vt 3.80368 -4.58813 
vt 3.77933 -4.58813 
vt 3.6454 -3.77247 
vt 3.63931 -3.77247 
vt 3.6454 -4.58813 
vt 3.63931 -4.58813 
vt 3.61496 -4.33249 
vt 3.60887 -4.33249 
vt 3.61496 -4.35684 
vt 3.60887 -4.35685 
vt 3.64539 -4.33249 
vt 3.63931 -4.33249 
vt 3.64539 -4.35685 
vt 3.63931 -4.35684 
vt 3.64539 -4.38119 
vt 3.63931 -4.38118 
vt 3.64539 -4.40554 
vt 3.63931 -4.40554 
vt 3.4019 -4.58813 
vt 3.42624 -4.58813 
vt 3.4019 -3.77247 
vt 3.42624 -3.77247 
vt 3.61496 -4.38118 
vt 3.60889 -4.38119 
vt 3.61496 -4.40554 
vt 3.60889 -4.40554 
vt 3.63931 -4.58813 
vt 3.64539 -4.58813 
vt 3.63931 -3.77247 
vt 3.64539 -3.77247 
vt 3.4019 -3.77247 
vt 3.40189 -3.77247 
vt 3.4019 -4.58813 
vt 3.40189 -4.58813 
vt 3.61496 -4.40554 
vt 3.61496 -4.40554 
vt 3.63931 -4.40554 
vt 3.63932 -4.40554 
vt 3.63932 -3.77247 
vt 3.61496 -3.77247 
vt 3.63932 -4.58813 
vt 3.61496 -4.58813 
vt 3.61496 -4.40554 
vt 3.61495 -4.40554 
vt 3.63931 -4.40554 
vt 3.63931 -4.40554 
vt 3.85237 -4.58813 
vt 3.85238 -4.58813 
vt 3.85237 -3.77247 
vt 3.85238 -3.77247 
vt 3.61496 -4.58813 
vt 3.61496 -3.77247 
vt 3.60887 -4.58813 
vt 3.60887 -3.77247 
vt 3.61496 -4.38118 
vt 3.61496 -4.40554 
vt 3.60887 -4.38119 
vt 3.60887 -4.40554 
vt 3.85237 -3.77247 
vt 3.82803 -3.77247 
vt 3.85237 -4.58813 
vt 3.82803 -4.58813 
vt 3.6454 -4.38119 
vt 3.63931 -4.38118 
vt 3.6454 -4.40554 
vt 3.63931 -4.40554 
vt 3.63931 -4.58813 
vt 3.6454 -4.58813 
vt 3.63931 -3.77247 
vt 3.6454 -3.77247 
vt 3.61496 -4.58813 
vt 3.61496 -3.77247 
vt 3.60889 -4.58813 
vt 3.60889 -3.77247 
vt 3.61496 -4.38118 
vt 3.63931 -4.38118 
vt 3.61496 -4.35684 
vt 3.63931 -4.35684 
vt 3.82802 -4.58813 
vt 3.82802 -3.77247 
vt 3.80368 -4.58813 
vt 3.80368 -3.77247 
vt 3.61496 -3.77247 
vt 3.60887 -3.77247 
vt 3.61496 -4.58813 
vt 3.60887 -4.58813 
vt 3.63931 -4.38118 
vt 3.63931 -4.35684 
vt 3.61496 -4.38118 
vt 3.4506 -3.77247 
vt 3.42625 -3.77247 
vt 3.4506 -4.58813 
vt 3.42625 -4.58813 
vt 3.61496 -4.35684 
vt 3.61496 -4.33249 
vt 3.60889 -4.33249 
vt 3.61496 -4.35684 
vt 3.60889 -4.35685 
vt 3.6454 -4.33249 
vt 3.63931 -4.33249 
vt 3.6454 -4.35685 
vt 3.63931 -4.35684 
vt 3.61496 -4.58813 
vt 3.61496 -3.77247 
vt 3.60889 -4.58813 
vt 3.60889 -3.77247 
vt 3.63931 -4.23508 
vt 3.61496 -4.23508 
vt 3.63931 -4.25943 
vt 3.61496 -4.25943 
vt 3.54801 -4.58813 
vt 3.57236 -4.58813 
vt 3.54801 -3.77247 
vt 3.57236 -3.77247 
vt 3.64539 -4.23508 
vt 3.64539 -4.25943 
vt 3.61496 -4.23508 
vt 3.60889 -4.23508 
vt 3.61496 -4.25943 
vt 3.60889 -4.25943 
vt 3.61496 -4.18636 
vt 3.60887 -4.18637 
vt 3.61496 -4.21072 
vt 3.60887 -4.21072 
vt 3.65755 -3.77247 
vt 3.63321 -3.77247 
vt 3.65755 -4.58813 
vt 3.63321 -4.58813 
vt 3.6454 -3.77247 
vt 3.63931 -3.77247 
vt 3.6454 -4.58813 
vt 3.63931 -4.58813 
vt 3.64541 -4.58813 
vt 3.66976 -4.58813 
vt 3.64541 -3.77247 
vt 3.66976 -3.77247 
vt 3.76718 -4.58813 
vt 3.79153 -3.77247 
vt 3.76718 -3.77247 
vt 3.81589 -3.77247 
vt 3.81589 -4.58813 
vt 3.85239 -3.77247 
vt 3.85239 -4.58813 
vt 3.63931 -3.95505 
vt 3.61495 -3.95505 
vt 3.61496 -3.99155 
vt 3.63931 -4.58813 
vt 3.63931 -3.77247 
vt 3.61495 -4.58813 
vt 3.61495 -3.77247 
vt 3.63931 -3.99155 
vt 3.43839 -4.58813 
vt 3.43839 -3.77247 
vt 3.40188 -4.58813 
vt 3.40188 -3.77247 
vt 3.6454 -3.99155 
vt 3.63931 -3.99155 
vt 3.6454 -4.0159 
vt 3.63931 -4.0159 
vt 3.46273 -3.77247 
vt 3.43839 -3.77247 
vt 3.46273 -4.58813 
vt 3.43839 -4.58813 
vt 3.63931 -4.58813 
vt 3.6454 -4.58813 
vt 3.63931 -3.77247 
vt 3.6454 -3.77247 
vt 3.61496 -3.99155 
vt 3.60887 -3.99155 
vt 3.61496 -4.0159 
vt 3.60887 -4.0159 
vt 3.63931 -3.99155 
vt 3.63932 -3.95505 
vt 3.61496 -3.99155 
vt 3.61496 -3.95505 
vt 3.63931 -3.99155 
vt 3.63931 -4.0159 
vt 3.61496 -4.58813 
vt 3.61496 -3.77247 
vt 3.60889 -4.58813 
vt 3.60889 -3.77247 
vt 3.64539 -3.99155 
vt 3.64539 -4.0159 
vt 3.79154 -4.58813 
vt 3.81589 -4.58813 
vt 3.79154 -3.77247 
vt 3.81589 -3.77247 
vt 3.61496 -3.99155 
vt 3.60889 -3.99155 
vt 3.61496 -4.0159 
vt 3.60889 -4.0159 
vt 3.63931 -4.58813 
vt 3.64539 -4.58813 
vt 3.63931 -3.77247 
vt 3.64539 -3.77247 
vt 3.79153 -4.58813 
vt 3.63931 -4.0159 
vt 3.61496 -4.0159 
vt 3.61496 -4.04026 
vt 3.61496 -4.58813 
vt 3.61496 -3.77247 
vt 3.60887 -4.58813 
vt 3.60887 -3.77247 
vt 3.48709 -3.77247 
vt 3.46274 -3.77247 
vt 3.48709 -4.58813 
vt 3.46274 -4.58813 
vt 3.61496 -3.77247 
vt 3.60887 -3.77247 
vt 3.61496 -4.58813 
vt 3.60887 -4.58813 
vt 3.51145 -3.77247 
vt 3.48709 -3.77247 
vt 3.51145 -4.58813 
vt 3.48709 -4.58813 
vt 3.6454 -3.77247 
vt 3.63931 -3.77247 
vt 3.6454 -4.58813 
vt 3.63931 -4.58813 
vt 3.61496 -4.04026 
vt 3.60887 -4.04026 
vt 3.61496 -4.06461 
vt 3.60887 -4.06461 
vt 3.61496 -4.0159 
vt 3.61496 -4.04026 
vt 3.63931 -4.0159 
vt 3.63931 -4.04026 
vt 3.63931 -4.04026 
vt 3.63931 -4.06461 
vt 3.64539 -4.04026 
vt 3.64539 -4.06461 
vt 3.74283 -4.58813 
vt 3.76718 -4.58813 
vt 3.74283 -3.77247 
vt 3.76718 -3.77247 
vt 3.61496 -4.58813 
vt 3.61496 -3.77247 
vt 3.60889 -4.58813 
vt 3.60889 -3.77247 
vt 3.61496 -4.04026 
vt 3.60889 -4.04026 
vt 3.61496 -4.06461 
vt 3.60889 -4.06461 
vt 3.63931 -4.04026 
vt 3.6454 -4.04026 
vt 3.63931 -4.04026 
vt 3.6454 -4.06461 
vt 3.63931 -4.06461 
vt 3.63931 -4.58813 
vt 3.64539 -4.58813 
vt 3.63931 -3.77247 
vt 3.64539 -3.77247 
vt 3.71848 -4.58813 
vt 3.74283 -3.77247 
vt 3.71848 -3.77247 
vt 3.74283 -4.58813 
vt 3.61496 -4.06461 
vt 3.61496 -4.08896 
vt 3.63931 -4.06461 
vt 3.5358 -3.77247 
vt 3.51145 -3.77247 
vt 3.5358 -4.58813 
vt 3.51145 -4.58813 
vt 3.61496 -3.77247 
vt 3.60887 -3.77247 
vt 3.61496 -4.58813 
vt 3.60887 -4.58813 
vt 3.56015 -3.77247 
vt 3.5358 -3.77247 
vt 3.56015 -4.58813 
vt 3.5358 -4.58813 
vt 3.6454 -3.77247 
vt 3.63931 -3.77247 
vt 3.6454 -4.58813 
vt 3.63931 -4.58813 
vt 3.61496 -4.08896 
vt 3.60887 -4.08896 
vt 3.61496 -4.11331 
vt 3.60887 -4.11331 
vt 3.61496 -4.06461 
vt 3.61496 -4.08896 
vt 3.63931 -4.06461 
vt 3.63931 -4.08896 
vt 3.63931 -4.08896 
vt 3.63931 -4.11331 
vt 3.64539 -4.08896 
vt 3.64539 -4.11331 
vt 3.69412 -4.58813 
vt 3.71848 -4.58813 
vt 3.69412 -3.77247 
vt 3.71848 -3.77247 
vt 3.61496 -4.58813 
vt 3.61496 -3.77247 
vt 3.60889 -4.58813 
vt 3.60889 -3.77247 
vt 3.61496 -4.08896 
vt 3.60889 -4.08896 
vt 3.61496 -4.11331 
vt 3.60889 -4.11331 
vt 3.63931 -4.08896 
vt 3.6454 -4.08896 
vt 3.63931 -4.08896 
vt 3.6454 -4.11331 
vt 3.63931 -4.11331 
vt 3.63931 -4.58813 
vt 3.64539 -4.58813 
vt 3.63931 -3.77247 
vt 3.64539 -3.77247 
vt 3.66977 -3.77247 
vt 3.66977 -4.58813 
vt 3.69412 -3.77247 
vt 3.69412 -4.58813 
vt 3.61496 -4.11331 
vt 3.61496 -4.13767 
vt 3.63931 -4.11331 
vt 3.5845 -4.58813 
vt 3.5845 -3.77247 
vt 3.56015 -4.58813 
vt 3.56015 -3.77247 
vt 3.60886 -3.77247 
vt 3.58451 -3.77247 
vt 3.60886 -4.58813 
vt 3.58451 -4.58813 
vt 3.63931 -4.58813 
vt 3.6454 -4.58813 
vt 3.63931 -3.77247 
vt 3.6454 -3.77247 
vt 3.61496 -4.13767 
vt 3.60887 -4.13767 
vt 3.61496 -4.16202 
vt 3.60887 -4.16203 
vt 3.63931 -4.13767 
vt 3.63931 -4.11331 
vt 3.61496 -4.13767 
vt 3.61496 -4.11331 
vt 3.63931 -4.13767 
vt 3.63931 -4.16202 
vt 3.64539 -4.13767 
vt 3.64539 -4.16203 
vt 3.64539 -3.77247 
vt 3.63931 -3.77247 
vt 3.64539 -4.58813 
vt 3.63931 -4.58813 
vt 3.60889 -4.13767 
vt 3.60889 -4.16203 
vt 3.61496 -4.16202 
vt 3.61496 -4.58813 
vt 3.61496 -3.77247 
vt 3.60889 -4.58813 
vt 3.60889 -3.77247 
vt 3.61496 -4.13767 
vt 3.63931 -4.13767 
vt 3.6454 -4.13767 
vt 3.63931 -4.13767 
vt 3.6454 -4.16203 
vt 3.63931 -4.16202 
vt 3.61496 -4.58813 
vt 3.61496 -3.77247 
vt 3.60887 -4.58813 
vt 3.60887 -3.77247 
vt 3.6332 -3.77247 
vt 3.60886 -3.77247 
vt 3.60886 -4.58813 
vt 3.6332 -4.58813 
vt 3.63931 -4.16202 
vt 3.61496 -4.16202 
vt 3.61496 -4.18636 
vt 3.63931 -4.18636 
vt 3.62107 -3.77247 
vt 3.62107 -4.58813 
vt 3.64542 -3.77247 
vt 3.64542 -4.58813 
vt 3.64539 -4.18637 
vt 3.63931 -4.18636 
vt 3.64539 -4.21072 
vt 3.63931 -4.21072 
vt 3.63931 -4.58813 
vt 3.64539 -4.58813 
vt 3.63931 -3.77247 
vt 3.64539 -3.77247 
vt 3.59672 -4.58813 
vt 3.62107 -4.58813 
vt 3.59672 -3.77247 
vt 3.62107 -3.77247 
vt 3.61496 -4.58813 
vt 3.61496 -3.77247 
vt 3.60889 -4.58813 
vt 3.60889 -3.77247 
vt 3.61496 -4.18636 
vt 3.60889 -4.18637 
vt 3.61496 -4.21072 
vt 3.60889 -4.21072 
vt 3.63931 -4.18636 
vt 3.63931 -4.16202 
vt 3.61496 -4.18636 
vt 3.61496 -4.16202 
vt 3.6454 -4.18637 
vt 3.63931 -4.18636 
vt 3.6454 -4.21072 
vt 3.63931 -4.21072 
vt 3.61496 -3.77247 
vt 3.60887 -3.77247 
vt 3.61496 -4.58813 
vt 3.60887 -4.58813 
vt 3.57236 -4.58813 
vt 3.59672 -4.58813 
vt 3.59672 -3.77247 
vt 3.61496 -4.58813 
vt 3.61496 -3.77247 
vt 3.60889 -4.58813 
vt 3.60889 -3.77247 
vt 3.57236 -3.77247 
vt 3.63931 -4.23508 
vt 3.63931 -4.21072 
vt 3.61496 -4.23508 
vt 3.61496 -4.21072 
vt 3.65755 -3.77247 
vt 3.65755 -4.58813 
vt 3.68191 -4.58813 
vt 3.61496 -4.21072 
vt 3.61496 -4.23508 
vt 3.63931 -4.21072 
vt 3.63931 -4.23508 
vt 3.68191 -3.77247 
vt 3.6454 -3.77247 
vt 3.63931 -3.77247 
vt 3.6454 -4.58813 
vt 3.63931 -4.58813 
vt 3.6454 -4.23508 
vt 3.63931 -4.23508 
vt 3.6454 -4.25943 
vt 3.63931 -4.25943 
vt 3.70627 -3.77247 
vt 3.68191 -3.77247 
vt 3.70627 -4.58813 
vt 3.68191 -4.58813 
vt 3.60887 -4.23508 
vt 3.60887 -4.25943 
vt 3.61496 -3.77247 
vt 3.60887 -3.77247 
vt 3.61496 -4.58813 
vt 3.60887 -4.58813 
vt 3.63931 -4.58813 
vt 3.64539 -4.58813 
vt 3.63931 -3.77247 
vt 3.64539 -3.77247 
vt 3.75497 -3.77247 
vt 3.73062 -3.77247 
vt 3.75497 -4.58813 
vt 3.73062 -4.58813 
vt 3.4993 -4.58813 
vt 3.52365 -4.58813 
vt 3.4993 -3.77247 
vt 3.52365 -3.77247 
vt 3.6454 -4.28378 
vt 3.63931 -4.28378 
vt 3.6454 -4.30813 
vt 3.63931 -4.30813 
vt 3.61496 -4.28378 
vt 3.60889 -4.28378 
vt 3.61496 -4.30813 
vt 3.60889 -4.30813 
vt 3.61496 -4.28378 
vt 3.60887 -4.28378 
vt 3.61496 -4.30813 
vt 3.60887 -4.30813 
vt 3.63931 -4.58813 
vt 3.6454 -4.58813 
vt 3.63931 -3.77247 
vt 3.6454 -3.77247 
vt 3.61496 -4.58813 
vt 3.61496 -3.77247 
vt 3.60887 -4.58813 
vt 3.60887 -3.77247 
vt 3.63931 -4.58813 
vt 3.64539 -4.58813 
vt 3.63931 -3.77247 
vt 3.64539 -3.77247 
vt 3.61496 -4.58813 
vt 3.61496 -3.77247 
vt 3.60889 -4.58813 
vt 3.60889 -3.77247 
vt 3.64539 -4.28378 
vt 3.63931 -4.28378 
vt 3.64539 -4.30813 
vt 3.63931 -4.30813 
vt 3.73062 -4.58813 
vt 3.73062 -3.77247 
vt 3.70627 -4.58813 
vt 3.70627 -3.77247 
vt 3.61496 -4.28378 
vt 3.63931 -4.28378 
vt 3.61496 -4.25943 
vt 3.63931 -4.25943 
vt 3.52365 -3.77247 
vt 3.52365 -4.58813 
vt 3.54801 -3.77247 
vt 3.54801 -4.58813 
vt 3.61496 -4.28378 
vt 3.63931 -4.28378 
vt 3.61496 -4.25943 
vt 3.63931 -4.25943 
vt 3.61496 -4.30813 
vt 3.61496 -4.33249 
vt 3.63931 -4.30813 
vt 3.63931 -4.33249 
vt 3.4993 -3.77247 
vt 3.47494 -3.77247 
vt 3.4993 -4.58813 
vt 3.47494 -4.58813 
vt 3.61496 -4.30813 
vt 3.61496 -4.33249 
vt 3.63931 -4.30813 
vt 3.63931 -4.33249 
vt 3.75497 -4.58813 
vt 3.77933 -4.58813 
vt 3.75497 -3.77247 
vt 3.77933 -3.77247 

usemtl Doorframe1Mtl

f 193/193/193 194/194/194 195/195/195 
f 194/194/194 196/196/196 195/195/195 
f 197/197/197 198/198/198 199/199/199 
f 198/198/198 200/200/200 199/199/199 
f 201/201/201 202/202/202 203/203/203 
f 202/202/202 204/204/204 203/203/203 
f 205/205/205 206/206/206 207/207/207 
f 206/206/206 208/208/208 207/207/207 
f 209/209/209 210/210/210 211/211/211 
f 210/210/210 212/212/212 211/211/211 
f 213/213/213 214/214/214 215/215/215 
f 214/214/214 216/216/216 215/215/215 
f 217/217/217 218/218/218 219/219/219 
f 218/218/218 220/220/220 219/219/219 
f 221/221/221 222/222/222 223/223/223 
f 222/222/222 224/224/224 223/223/223 
f 225/225/225 226/226/226 227/227/227 
f 226/226/226 228/228/228 227/227/227 
f 229/229/229 230/230/230 231/231/231 
f 230/230/230 232/232/232 231/231/231 
f 233/233/233 234/234/234 235/235/235 
f 234/234/234 236/236/236 235/235/235 
f 237/237/237 238/238/238 239/239/239 
f 238/238/238 240/240/240 239/239/239 
f 241/241/241 242/242/242 243/243/243 
f 242/242/242 244/244/244 243/243/243 
f 245/245/245 246/246/246 247/247/247 
f 246/246/246 248/248/248 247/247/247 
f 249/249/249 250/250/250 251/251/251 
f 250/250/250 252/252/252 251/251/251 
f 253/253/253 254/254/254 255/255/255 
f 254/254/254 256/256/256 255/255/255 
f 218/218/218 257/257/257 220/220/220 
f 257/257/257 258/258/258 220/220/220 
f 257/257/257 259/259/259 258/258/258 
f 259/259/259 260/260/260 258/258/258 
f 261/261/261 262/262/262 263/263/263 
f 262/262/262 264/264/264 263/263/263 
f 265/265/265 266/266/266 267/267/267 
f 266/266/266 268/268/268 267/267/267 
f 269/269/269 270/270/270 271/271/271 
f 270/270/270 272/272/272 271/271/271 
f 266/266/266 225/225/225 268/268/268 
f 225/225/225 227/227/227 268/268/268 
f 273/273/273 274/274/274 275/275/275 
f 274/274/274 276/276/276 275/275/275 
f 277/277/277 278/278/278 279/279/279 
f 214/214/214 209/209/209 216/216/216 
f 209/209/209 211/211/211 216/216/216 
f 279/279/279 278/278/278 280/280/280 
f 281/281/281 282/282/282 283/283/283 
f 282/282/282 284/284/284 283/283/283 
f 285/285/285 286/286/286 287/287/287 
f 286/286/286 288/288/288 287/287/287 
f 289/289/289 290/290/290 291/291/291 
f 292/292/292 293/293/293 294/294/294 
f 293/293/293 295/295/295 294/294/294 
f 296/296/296 291/291/291 290/290/290 
f 297/297/297 298/298/298 299/299/299 
f 298/298/298 300/300/300 299/299/299 
f 301/301/301 302/302/302 303/303/303 
f 302/302/302 304/304/304 303/303/303 
f 302/302/302 297/297/297 304/304/304 
f 297/297/297 299/299/299 304/304/304 
f 305/305/305 306/306/306 307/307/307 
f 306/306/306 308/308/308 307/307/307 
f 309/309/309 310/310/310 311/311/311 
f 310/310/310 312/312/312 311/311/311 
f 313/313/313 314/314/314 315/315/315 
f 314/314/314 316/316/316 315/315/315 
f 317/317/317 309/309/309 318/318/318 
f 309/309/309 311/311/311 318/318/318 
f 319/319/319 320/320/320 321/321/321 
f 320/320/320 322/322/322 321/321/321 
f 323/323/323 324/324/324 325/325/325 
f 324/324/324 326/326/326 325/325/325 
f 327/327/327 328/328/328 329/329/329 
f 328/328/328 330/330/330 329/329/329 
f 331/331/331 332/332/332 333/333/333 
f 332/332/332 334/334/334 333/333/333 
f 335/335/335 336/336/336 337/337/337 
f 336/336/336 338/338/338 337/337/337 
f 339/339/339 340/340/340 341/341/341 
f 342/342/342 343/343/343 344/344/344 
f 343/343/343 345/345/345 344/344/344 
f 346/346/346 347/347/347 348/348/348 
f 349/349/349 350/350/350 351/351/351 
f 350/350/350 352/352/352 351/351/351 
f 353/353/353 346/346/346 348/348/348 
f 354/354/354 355/355/355 356/356/356 
f 355/355/355 357/357/357 356/356/356 
f 358/358/358 359/359/359 360/360/360 
f 359/359/359 361/361/361 360/360/360 
f 362/362/362 363/363/363 364/364/364 
f 363/363/363 365/365/365 364/364/364 
f 366/366/366 367/367/367 368/368/368 
f 367/367/367 369/369/369 368/368/368 
f 370/370/370 371/371/371 372/372/372 
f 371/371/371 373/373/373 372/372/372 
f 374/374/374 375/375/375 376/376/376 
f 375/375/375 377/377/377 376/376/376 
f 378/378/378 370/370/370 379/379/379 
f 370/370/370 372/372/372 379/379/379 
f 380/380/380 381/381/381 382/382/382 
f 381/381/381 383/383/383 382/382/382 
f 384/384/384 378/378/378 385/385/385 
f 378/378/378 379/379/379 385/385/385 
f 386/386/386 387/387/387 388/388/388 
f 387/387/387 389/389/389 388/388/388 
f 390/390/390 391/391/391 392/392/392 
f 391/391/391 393/393/393 392/392/392 
f 394/394/394 395/395/395 396/396/396 
f 395/395/395 397/397/397 396/396/396 
f 339/339/339 398/398/398 340/340/340 
f 359/359/359 390/390/390 361/361/361 
f 390/390/390 392/392/392 361/361/361 
f 399/399/399 400/400/400 401/401/401 
f 402/402/402 403/403/403 404/404/404 
f 403/403/403 405/405/405 404/404/404 
f 406/406/406 407/407/407 408/408/408 
f 407/407/407 409/409/409 408/408/408 
f 410/410/410 411/411/411 412/412/412 
f 411/411/411 413/413/413 412/412/412 
f 414/414/414 415/415/415 416/416/416 
f 415/415/415 417/417/417 416/416/416 
f 418/418/418 419/419/419 420/420/420 
f 419/419/419 421/421/421 420/420/420 
f 422/422/422 423/423/423 424/424/424 
f 423/423/423 425/425/425 424/424/424 
f 426/426/426 427/427/427 428/428/428 
f 427/427/427 429/429/429 428/428/428 
f 430/430/430 422/422/422 431/431/431 
f 422/422/422 424/424/424 431/431/431 
f 432/432/432 430/430/430 433/433/433 
f 430/430/430 431/431/431 433/433/433 
f 434/434/434 435/435/435 436/436/436 
f 435/435/435 437/437/437 436/436/436 
f 438/438/438 439/439/439 440/440/440 
f 439/439/439 441/441/441 440/440/440 
f 442/442/442 443/443/443 444/444/444 
f 443/443/443 445/445/445 444/444/444 
f 401/401/401 446/446/446 399/399/399 
f 447/447/447 448/448/448 449/449/449 
f 448/448/448 450/450/450 449/449/449 
f 448/448/448 442/442/442 450/450/450 
f 442/442/442 444/444/444 450/450/450 
f 451/451/451 452/452/452 453/453/453 
f 452/452/452 454/454/454 453/453/453 
f 455/455/455 456/456/456 457/457/457 
f 456/456/456 455/455/455 458/458/458 
f 459/459/459 460/460/460 461/461/461 
f 462/462/462 463/463/463 464/464/464 
f 463/463/463 465/465/465 464/464/464 
f 466/466/466 467/467/467 468/468/468 
f 467/467/467 469/469/469 468/468/468 
f 470/470/470 471/471/471 472/472/472 
f 471/471/471 473/473/473 472/472/472 
f 474/474/474 475/475/475 476/476/476 
f 475/475/475 477/477/477 476/476/476 
f 478/478/478 479/479/479 480/480/480 
f 479/479/479 481/481/481 480/480/480 
f 482/482/482 483/483/483 484/484/484 
f 483/483/483 485/485/485 484/484/484 
f 486/486/486 478/478/478 487/487/487 
f 478/478/478 480/480/480 487/487/487 
f 488/488/488 486/486/486 489/489/489 
f 486/486/486 487/487/487 489/489/489 
f 490/490/490 491/491/491 492/492/492 
f 491/491/491 493/493/493 492/492/492 
f 494/494/494 495/495/495 496/496/496 
f 495/495/495 497/497/497 496/496/496 
f 498/498/498 499/499/499 500/500/500 
f 499/499/499 501/501/501 500/500/500 
f 460/460/460 502/502/502 461/461/461 
f 503/503/503 504/504/504 505/505/505 
f 504/504/504 506/506/506 505/505/505 
f 504/504/504 498/498/498 506/506/506 
f 498/498/498 500/500/500 506/506/506 
f 507/507/507 508/508/508 509/509/509 
f 508/508/508 510/510/510 509/509/509 
f 511/511/511 512/512/512 513/513/513 
f 513/513/513 512/512/512 514/514/514 
f 515/515/515 516/516/516 517/517/517 
f 518/518/518 519/519/519 520/520/520 
f 519/519/519 521/521/521 520/520/520 
f 522/522/522 523/523/523 524/524/524 
f 523/523/523 525/525/525 524/524/524 
f 526/526/526 527/527/527 528/528/528 
f 527/527/527 529/529/529 528/528/528 
f 530/530/530 531/531/531 532/532/532 
f 531/531/531 533/533/533 532/532/532 
f 534/534/534 535/535/535 536/536/536 
f 535/535/535 537/537/537 536/536/536 
f 538/538/538 530/530/530 539/539/539 
f 530/530/530 532/532/532 539/539/539 
f 540/540/540 539/539/539 541/541/541 
f 540/540/540 538/538/538 539/539/539 
f 542/542/542 543/543/543 544/544/544 
f 543/543/543 545/545/545 544/544/544 
f 546/546/546 547/547/547 548/548/548 
f 549/549/549 550/550/550 551/551/551 
f 550/550/550 552/552/552 551/551/551 
f 553/553/553 546/546/546 548/548/548 
f 554/554/554 517/517/517 516/516/516 
f 555/555/555 556/556/556 557/557/557 
f 556/556/556 558/558/558 557/557/557 
f 556/556/556 553/553/553 558/558/558 
f 553/553/553 548/548/548 558/558/558 
f 559/559/559 560/560/560 561/561/561 
f 560/560/560 562/562/562 561/561/561 
f 563/563/563 564/564/564 565/565/565 
f 566/566/566 563/563/563 565/565/565 
f 567/567/567 568/568/568 569/569/569 
f 570/570/570 567/567/567 569/569/569 
f 571/571/571 572/572/572 573/573/573 
f 572/572/572 574/574/574 573/573/573 
f 575/575/575 576/576/576 577/577/577 
f 576/576/576 578/578/578 577/577/577 
f 579/579/579 580/580/580 581/581/581 
f 580/580/580 582/582/582 581/581/581 
f 583/583/583 584/584/584 585/585/585 
f 584/584/584 586/586/586 585/585/585 
f 587/587/587 588/588/588 589/589/589 
f 588/588/588 590/590/590 589/589/589 
f 591/591/591 592/592/592 593/593/593 
f 592/592/592 594/594/594 593/593/593 
f 595/595/595 596/596/596 597/597/597 
f 596/596/596 598/598/598 597/597/597 
f 599/599/599 600/600/600 601/601/601 
f 600/600/600 602/602/602 601/601/601 
f 600/600/600 591/591/591 602/602/602 
f 591/591/591 593/593/593 602/602/602 
f 603/603/603 604/604/604 605/605/605 
f 604/604/604 606/606/606 605/605/605 
f 576/576/576 323/323/323 578/578/578 
f 323/323/323 325/325/325 578/578/578 
f 607/607/607 608/608/608 609/609/609 
f 610/610/610 611/611/611 612/612/612 
f 611/611/611 613/613/613 612/612/612 
f 607/607/607 609/609/609 614/614/614 
f 615/615/615 616/616/616 617/617/617 
f 616/616/616 618/618/618 617/617/617 
f 619/619/619 620/620/620 621/621/621 
f 622/622/622 623/623/623 624/624/624 
f 623/623/623 625/625/625 624/624/624 
f 626/626/626 619/619/619 621/621/621 
f 627/627/627 628/628/628 629/629/629 
f 628/628/628 630/630/630 629/629/629 
f 631/631/631 632/632/632 633/633/633 
f 632/632/632 634/634/634 633/633/633 
f 635/635/635 636/636/636 637/637/637 
f 636/636/636 638/638/638 637/637/637 
f 310/310/310 639/639/639 312/312/312 
f 639/639/639 640/640/640 312/312/312 
f 641/641/641 642/642/642 643/643/643 
f 642/642/642 644/644/644 643/643/643 
f 632/632/632 319/319/319 634/634/634 
f 319/319/319 321/321/321 634/634/634 
f 645/645/645 646/646/646 647/647/647 
f 646/646/646 648/648/648 647/647/647 
f 649/649/649 650/650/650 651/651/651 
f 650/650/650 652/652/652 651/651/651 
f 653/653/653 654/654/654 655/655/655 
f 654/654/654 656/656/656 655/655/655 
f 657/657/657 658/658/658 659/659/659 
f 658/658/658 660/660/660 659/659/659 
f 661/661/661 662/662/662 663/663/663 
f 662/662/662 664/664/664 663/663/663 
f 658/658/658 661/661/661 660/660/660 
f 661/661/661 663/663/663 660/660/660 
f 665/665/665 666/666/666 667/667/667 
f 666/666/666 668/668/668 667/667/667 
f 669/669/669 670/670/670 671/671/671 
f 670/670/670 672/672/672 671/671/671 
f 673/673/673 674/674/674 675/675/675 
f 674/674/674 676/676/676 675/675/675 
f 677/677/677 678/678/678 679/679/679 
f 678/678/678 680/680/680 679/679/679 
f 681/681/681 682/682/682 683/683/683 
f 682/682/682 684/684/684 683/683/683 
f 685/685/685 686/686/686 687/687/687 
f 686/686/686 688/688/688 687/687/687 
f 686/686/686 665/665/665 688/688/688 
f 665/665/665 667/667/667 688/688/688 
f 689/689/689 690/690/690 691/691/691 
f 690/690/690 692/692/692 691/691/691 
f 693/693/693 694/694/694 695/695/695 
f 694/694/694 696/696/696 695/695/695 
f 697/697/697 698/698/698 699/699/699 
f 698/698/698 700/700/700 699/699/699 
f 701/701/701 702/702/702 703/703/703 
f 702/702/702 704/704/704 703/703/703 
f 705/705/705 706/706/706 707/707/707 
f 706/706/706 708/708/708 707/707/707 
f 709/709/709 710/710/710 711/711/711 
f 710/710/710 712/712/712 711/711/711 
f 713/713/713 714/714/714 715/715/715 
f 714/714/714 716/716/716 715/715/715 
f 717/717/717 718/718/718 719/719/719 
f 718/718/718 720/720/720 719/719/719 

g Doorframe2

v -33.5844 6.63266 -18.0487 
v -33.5844 6.63268 -18 
v -33.3897 6.63266 -18.0487 
v -33.3896 6.63268 -18 
v -33.5844 6.63268 -18.2921 
v -33.5844 6.63266 -18.2435 
v -33.3896 6.63268 -18.2921 
v -33.3897 6.63266 -18.2435 
v -33.1949 6.63268 -18.2921 
v -33.1949 6.63266 -18.2435 
v -33.0001 6.63268 -18.2921 
v -33.0001 6.63266 -18.2435 
v -33.0001 6.63266 -18.0487 
v -33 6.63267 -18.0487 
v -33.0001 6.63266 -18.2435 
v -33 6.63267 -18.2436 
v -33.1949 6.63266 -18.0487 
v -33.0001 6.63266 -18.0487 
v -33.1949 6.63268 -18 
v -33.0001 6.63268 -18 
v -33.1949 6.63266 -18.0487 
v -33.1949 6.63266 -18.2435 
v -33.3897 6.63266 -18.0487 
v -33.3897 6.63266 -18.2435 
v -34.3638 6.63266 -18.2435 
v -34.3638 6.63266 -18.0487 
v -34.169 6.63266 -18.2435 
v -34.169 6.63266 -18.0487 
v -34.3638 6.63268 -18.2921 
v -34.169 6.63268 -18.2921 
v -34.7535 6.63266 -18.0487 
v -34.7534 6.63268 -18 
v -34.5587 6.63266 -18.0487 
v -34.5587 6.63268 -18 
v -36.312 6.63266 -18.0487 
v -36.312 6.63268 -17.9999 
v -36.1172 6.63266 -18.0487 
v -36.1172 6.63268 -17.9999 
v -36.312 6.63266 -18.2435 
v -36.604 6.63267 -18.2436 
v -36.312 6.63266 -18.0487 
v -36.604 6.63267 -18.0487 
v -36.312 6.63266 -18.2435 
v -36.1172 6.63266 -18.2435 
v -36.312 6.63268 -18.2921 
v -36.1172 6.63268 -18.2921 
v -35.9223 6.63266 -18.0487 
v -35.9223 6.63268 -17.9999 
v -35.7275 6.63266 -18.0487 
v -35.7275 6.63268 -17.9999 
v -36.1172 6.63266 -18.0487 
v -35.9223 6.63266 -18.0487 
v -36.1172 6.63266 -18.2435 
v -35.9223 6.63266 -18.2435 
v -35.9223 6.63266 -18.2435 
v -35.7275 6.63266 -18.2435 
v -35.9223 6.63268 -18.2921 
v -35.7275 6.63268 -18.2921 
v -35.5327 6.63266 -18.0487 
v -35.5327 6.63268 -17.9999 
v -35.3379 6.63266 -18.0487 
v -35.3379 6.63268 -17.9999 
v -35.7275 6.63266 -18.0487 
v -35.5327 6.63266 -18.0487 
v -35.7275 6.63266 -18.2435 
v -35.5327 6.63266 -18.2435 
v -35.5327 6.63266 -18.2435 
v -35.3379 6.63266 -18.2435 
v -35.5327 6.63268 -18.2921 
v -35.3379 6.63268 -18.2921 
v -35.1431 6.63266 -18.0487 
v -35.143 6.63268 -18 
v -34.9482 6.63266 -18.0487 
v -34.9482 6.63268 -18 
v -35.1431 6.63266 -18.2435 
v -35.3379 6.63266 -18.2435 
v -35.1431 6.63266 -18.0487 
v -35.3379 6.63266 -18.0487 
v -35.1431 6.63266 -18.2435 
v -34.9482 6.63266 -18.2435 
v -35.143 6.63268 -18.2921 
v -34.9482 6.63268 -18.2921 
v -34.9482 6.63266 -18.2435 
v -34.9482 6.63266 -18.0487 
v -34.7535 6.63266 -18.0487 
v -34.7535 6.63266 -18.2435 
v -34.7534 6.63268 -18.2921 
v -34.7535 6.63266 -18.2435 
v -34.5587 6.63268 -18.2921 
v -34.5587 6.63266 -18.2435 
v -34.5587 6.63266 -18.0487 
v -34.3638 6.63266 -18.0487 
v -34.5587 6.63266 -18.2435 
v -34.3638 6.63266 -18.2435 
v -34.3638 6.63268 -18 
v -34.169 6.63268 -18 
v -33.9741 6.63266 -18.0487 
v -33.9741 6.63268 -18 
v -33.7793 6.63266 -18.0487 
v -33.7793 6.63268 -18 
v -33.9741 6.63268 -18.2921 
v -33.9741 6.63266 -18.2435 
v -33.7793 6.63268 -18.2921 
v -33.7793 6.63266 -18.2435 
v -33.9741 6.63266 -18.0487 
v -33.9741 6.63266 -18.2435 
v -34.169 6.63266 -18.0487 
v -34.169 6.63266 -18.2435 
v -33.7793 6.63266 -18.0487 
v -33.5844 6.63266 -18.0487 
v -33.7793 6.63266 -18.2435 
v -33.5844 6.63266 -18.2435 

vn 0 1 0 
vn 0 1 0 
vn 0 1 0 
vn 0 1 0 
vn 0 1 0 
vn 0 1 0 
vn 0 1 0 
vn 0 1 0 
vn 0 1 0 
vn 0 1 0 
vn 0 1 0 
vn 0 1 0 
vn 0 1 0 
vn 0 1 0 
vn 0 1 0 
vn 0 1 0 
vn 0 1 0 
vn 0 1 0 
vn 0 1 0 
vn 0 1 0 
vn 0 1 0 
vn 0 1 0 
vn 0 1 0 
vn 0 1 0 
vn 0 1 0 
vn 0 1 0 
vn 0 1 0 
vn 0 1 0 
vn 0 1 0 
vn 0 1 0 
vn 0 1 0 
vn 0 1 0 
vn 0 1 0 
vn 0 1 0 
vn 0 1 0 
vn 0 1 0 
vn 0 1 0 
vn 0 1 0 
vn 0 1 0 
vn 0 1 0 
vn 0 1 0 
vn 0 1 0 
vn 0 1 0 
vn 0 1 0 
vn 0 1 0 
vn 0 1 0 
vn 0 1 0 
vn 0 1 0 
vn 0 1 0 
vn 0 1 0 
vn 0 1 0 
vn 0 1 0 
vn 0 1 0 
vn 0 1 0 
vn 0 1 0 
vn 0 1 0 
vn 0 1 0 
vn 0 1 0 
vn 0 1 0 
vn 0 1 0 
vn 0 1 0 
vn 0 1 0 
vn 0 1 0 
vn 0 1 0 
vn 0 1 0 
vn 0 1 0 
vn 0 1 0 
vn 0 1 0 
vn 0 1 0 
vn 0 1 0 
vn 0 1 0 
vn 0 1 0 
vn 0 1 0 
vn 0 1 0 
vn 0 1 0 
vn 0 1 0 
vn 0 1 0 
vn 0 1 0 
vn 0 1 0 
vn 0 1 0 
vn 0 1 0 
vn 0 1 0 
vn 0 1 0 
vn 0 1 0 
vn 0 1 0 
vn 0 1 0 
vn 0 1 0 
vn 0 1 0 
vn 0 1 0 
vn 0 1 0 
vn 0 1 0 
vn 0 1 0 
vn 0 1 0 
vn 0 1 0 
vn 0 1 0 
vn 0 1 0 
vn 0 1 0 
vn 0 1 0 
vn 0 1 0 
vn 0 1 0 
vn 0 1 0 
vn 0 1 0 
vn 0 1 0 
vn 0 1 0 
vn 0 1 0 
vn 0 1 0 
vn 0 1 0 
vn 0 1 0 
vn 0 1 0 
vn 0 1 0 
vn 0 1 0 
vn 0 1 0 

vt -0.0162301 0.797074 
vt -0.024355 0.797074 
vt -0.0162301 0.764614 
vt -0.024355 0.764604 
vt 0.0243352 0.797074 
vt 0.0162301 0.797074 
vt 0.0243352 0.764604 
vt 0.0162301 0.764614 
vt 0.0243352 0.732144 
vt 0.0162301 0.732154 
vt 0.0243352 0.699684 
vt 0.0162301 0.699684 
vt -0.0162301 0.699684 
vt -0.0162301 0.699674 
vt 0.0162301 0.699684 
vt 0.0162499 0.699674 
vt -0.0162301 0.732154 
vt -0.0162301 0.699684 
vt -0.024355 0.732144 
vt -0.024355 0.699684 
vt -0.0162301 0.732154 
vt 0.0162301 0.732154 
vt -0.0162301 0.764614 
vt 0.0162301 0.764614 
vt 0.0162301 0.926965 
vt -0.0162301 0.926965 
vt 0.0162301 0.894495 
vt -0.0162301 0.894495 
vt 0.0243352 0.926965 
vt 0.0243352 0.894495 
vt -0.0162301 0.991915 
vt -0.024355 0.991905 
vt -0.0162301 0.959445 
vt -0.024355 0.959445 
vt -0.0162301 1.25167 
vt -0.024355 1.25167 
vt -0.0162301 1.2192 
vt -0.024355 1.21921 
vt 0.0162301 1.25167 
vt 0.0162499 1.30034 
vt -0.0162301 1.25167 
vt -0.0162301 1.30034 
vt 0.0162301 1.25167 
vt 0.0162301 1.2192 
vt 0.0243352 1.25167 
vt 0.0243352 1.21921 
vt -0.0162301 1.18673 
vt -0.024355 1.18673 
vt -0.0162301 1.15426 
vt -0.024355 1.15426 
vt -0.0162301 1.2192 
vt -0.0162301 1.18673 
vt 0.0162301 1.2192 
vt 0.0162301 1.18673 
vt 0.0162301 1.18673 
vt 0.0162301 1.15426 
vt 0.0243352 1.18673 
vt 0.0243352 1.15426 
vt -0.0162301 1.12179 
vt -0.024355 1.12179 
vt -0.0162301 1.08932 
vt -0.024355 1.08932 
vt -0.0162301 1.15426 
vt -0.0162301 1.12179 
vt 0.0162301 1.15426 
vt 0.0162301 1.12179 
vt 0.0162301 1.12179 
vt 0.0162301 1.08932 
vt 0.0243352 1.12179 
vt 0.0243352 1.08932 
vt -0.0162301 1.05684 
vt -0.024355 1.05684 
vt -0.0162301 1.02437 
vt -0.024355 1.02436 
vt 0.0162301 1.05684 
vt 0.0162301 1.08932 
vt -0.0162301 1.05684 
vt -0.0162301 1.08932 
vt 0.0162301 1.05684 
vt 0.0162301 1.02437 
vt 0.0243352 1.05684 
vt 0.0243352 1.02436 
vt 0.0162301 1.02437 
vt -0.0162301 1.02437 
vt -0.0162301 0.991915 
vt 0.0162301 0.991915 
vt 0.0243352 0.991905 
vt 0.0162301 0.991915 
vt 0.0243352 0.959445 
vt 0.0162301 0.959445 
vt -0.0162301 0.959445 
vt -0.0162301 0.926965 
vt 0.0162301 0.959445 
vt 0.0162301 0.926965 
vt -0.024355 0.926965 
vt -0.024355 0.894495 
vt -0.0162301 0.862024 
vt -0.024355 0.862024 
vt -0.0162301 0.829554 
vt -0.024355 0.829554 
vt 0.0243352 0.862024 
vt 0.0162301 0.862024 
vt 0.0243352 0.829554 
vt 0.0162301 0.829554 
vt -0.0162301 0.862024 
vt 0.0162301 0.862024 
vt -0.0162301 0.894495 
vt 0.0162301 0.894495 
vt -0.0162301 0.829554 
vt -0.0162301 0.797074 
vt 0.0162301 0.829554 
vt 0.0162301 0.797074 

usemtl Doorframe2Mtl

f 721/721/721 722/722/722 723/723/723 
f 722/722/722 724/724/724 723/723/723 
f 725/725/725 726/726/726 727/727/727 
f 726/726/726 728/728/728 727/727/727 
f 729/729/729 730/730/730 731/731/731 
f 730/730/730 732/732/732 731/731/731 
f 733/733/733 734/734/734 735/735/735 
f 734/734/734 736/736/736 735/735/735 
f 730/730/730 737/737/737 732/732/732 
f 737/737/737 738/738/738 732/732/732 
f 737/737/737 739/739/739 738/738/738 
f 739/739/739 740/740/740 738/738/738 
f 741/741/741 742/742/742 743/743/743 
f 726/726/726 721/721/721 728/728/728 
f 721/721/721 723/723/723 728/728/728 
f 743/743/743 742/742/742 744/744/744 
f 745/745/745 746/746/746 747/747/747 
f 746/746/746 748/748/748 747/747/747 
f 749/749/749 745/745/745 750/750/750 
f 745/745/745 747/747/747 750/750/750 
f 751/751/751 752/752/752 753/753/753 
f 752/752/752 754/754/754 753/753/753 
f 755/755/755 756/756/756 757/757/757 
f 756/756/756 758/758/758 757/757/757 
f 759/759/759 760/760/760 761/761/761 
f 760/760/760 762/762/762 761/761/761 
f 763/763/763 755/755/755 764/764/764 
f 755/755/755 757/757/757 764/764/764 
f 765/765/765 763/763/763 766/766/766 
f 763/763/763 764/764/764 766/766/766 
f 767/767/767 768/768/768 769/769/769 
f 768/768/768 770/770/770 769/769/769 
f 771/771/771 772/772/772 773/773/773 
f 772/772/772 774/774/774 773/773/773 
f 775/775/775 767/767/767 776/776/776 
f 767/767/767 769/769/769 776/776/776 
f 777/777/777 775/775/775 778/778/778 
f 775/775/775 776/776/776 778/778/778 
f 779/779/779 780/780/780 781/781/781 
f 780/780/780 782/782/782 781/781/781 
f 783/783/783 784/784/784 785/785/785 
f 784/784/784 786/786/786 785/785/785 
f 787/787/787 779/779/779 788/788/788 
f 779/779/779 781/781/781 788/788/788 
f 789/789/789 787/787/787 790/790/790 
f 787/787/787 788/788/788 790/790/790 
f 791/791/791 792/792/792 793/793/793 
f 792/792/792 794/794/794 793/793/793 
f 795/795/795 796/796/796 797/797/797 
f 796/796/796 798/798/798 797/797/797 
f 799/799/799 791/791/791 800/800/800 
f 791/791/791 793/793/793 800/800/800 
f 801/801/801 800/800/800 802/802/802 
f 801/801/801 799/799/799 800/800/800 
f 803/803/803 804/804/804 805/805/805 
f 806/806/806 803/803/803 805/805/805 
f 807/807/807 808/808/808 809/809/809 
f 808/808/808 810/810/810 809/809/809 
f 808/808/808 751/751/751 810/810/810 
f 751/751/751 753/753/753 810/810/810 
f 811/811/811 812/812/812 813/813/813 
f 812/812/812 814/814/814 813/813/813 
f 746/746/746 815/815/815 748/748/748 
f 815/815/815 816/816/816 748/748/748 
f 817/817/817 818/818/818 819/819/819 
f 818/818/818 820/820/820 819/819/819 
f 821/821/821 822/822/822 823/823/823 
f 822/822/822 824/824/824 823/823/823 
f 822/822/822 817/817/817 824/824/824 
f 817/817/817 819/819/819 824/824/824 
f 825/825/825 826/826/826 827/827/827 
f 826/826/826 828/828/828 827/827/827 
f 829/829/829 830/830/830 831/831/831 
f 830/830/830 832/832/832 831/831/831 

g Doorframe3

v -33.6044 6.61268 -18 
v -33.6044 6.61266 -18.0487 
v -33.6044 0.0873287 -18 
v -33.6044 0.0873287 -18.0487 
v -33.2149 0.0873287 -18.0487 
v -33.2149 0.0873287 -18 
v -33.2149 6.61266 -18.0487 
v -33.2149 6.61268 -18 
v -33.2149 0.0873287 -18.2435 
v -33.2149 6.61266 -18.2435 
v -33.2149 0.0873287 -18.2921 
v -33.2149 6.61268 -18.2921 
v -33.6044 0.0873287 -18.2435 
v -33.6044 6.61266 -18.2435 
v -33.6044 0.0873287 -18.2921 
v -33.6044 6.61268 -18.2921 
v -34.7734 6.61268 -18 
v -34.7735 6.61266 -18.0487 
v -34.7734 0.0873289 -17.9999 
v -34.7735 0.0873289 -18.0487 
v -36.624 0.0873294 -18.0487 
v -36.624 6.61267 -18.0487 
v -36.624 0.0873294 -18.2436 
v -36.624 6.61267 -18.2436 
v -36.332 0.0873291 -18.0487 
v -36.332 0.0873291 -17.9999 
v -36.332 6.61266 -18.0487 
v -36.332 6.61268 -17.9999 
v -36.332 0.0873291 -18.2435 
v -36.332 6.61266 -18.2435 
v -36.332 0.0873291 -18.2921 
v -36.332 6.61268 -18.2921 
v -35.9423 6.61268 -17.9999 
v -35.9423 6.61266 -18.0487 
v -35.9423 0.0873291 -17.9999 
v -35.9423 0.0873291 -18.0487 
v -35.9423 0.0873291 -18.2435 
v -35.9423 6.61266 -18.2435 
v -35.9423 0.0873291 -18.2921 
v -35.9423 6.61268 -18.2921 
v -35.5527 6.61268 -17.9999 
v -35.5527 6.61266 -18.0487 
v -35.5527 0.0873291 -17.9999 
v -35.5527 0.0873291 -18.0487 
v -35.5527 0.0873291 -18.2435 
v -35.5527 6.61266 -18.2435 
v -35.5527 0.0873291 -18.2921 
v -35.5527 6.61268 -18.2921 
v -35.1631 0.0873289 -18.0487 
v -35.163 0.0873289 -17.9999 
v -35.1631 6.61266 -18.0487 
v -35.163 6.61268 -18 
v -35.1631 0.0873289 -18.2435 
v -35.1631 6.61266 -18.2435 
v -35.163 0.0873289 -18.2921 
v -35.163 6.61268 -18.2921 
v -34.7735 0.0873289 -18.2435 
v -34.7735 6.61266 -18.2435 
v -34.7734 0.0873289 -18.2921 
v -34.7734 6.61268 -18.2921 
v -34.3838 0.0873289 -18.2435 
v -34.3838 6.61266 -18.2435 
v -34.3838 0.0873289 -18.2921 
v -34.3838 6.61268 -18.2921 
v -34.3838 6.61268 -18 
v -34.3838 6.61266 -18.0487 
v -34.3838 0.0873289 -18 
v -34.3838 0.0873289 -18.0487 
v -33.9941 0.0873287 -18.0487 
v -33.9941 0.0873287 -18 
v -33.9941 6.61266 -18.0487 
v -33.9941 6.61268 -18 
v -33.9941 0.0873287 -18.2435 
v -33.9941 6.61266 -18.2435 
v -33.9941 0.0873287 -18.2921 
v -33.9941 6.61268 -18.2921 

vn -1 0 0 
vn -1 0 0 
vn -1 0 0 
vn -1 0 0 
vn -1 0 0 
vn -1 0 0 
vn -1 0 0 
vn -1 0 0 
vn -1 0 0 
vn -1 0 0 
vn -1 0 0 
vn -1 0 0 
vn -1 0 0 
vn -1 0 0 
vn -1 0 0 
vn -1 0 0 
vn -1 0 0 
vn -1 0 0 
vn -1 0 0 
vn -1 0 0 
vn -1 0 0 
vn -1 0 0 
vn -1 0 0 
vn -1 0 0 
vn -1 0 0 
vn -1 0 0 
vn -1 0 0 
vn -1 0 0 
vn -1 0 0 
vn -1 0 0 
vn -1 0 0 
vn -1 0 0 
vn -1 0 0 
vn -1 0 0 
vn -1 0 0 
vn -1 0 0 
vn -1 0 0 
vn -1 0 0 
vn -1 0 0 
vn -1 0 0 
vn -1 0 0 
vn -1 0 0 
vn -1 0 0 
vn -1 0 0 
vn -1 0 0 
vn -1 0 0 
vn -1 0 0 
vn -1 0 0 
vn -1 0 0 
vn -1 0 0 
vn -1 0 0 
vn -1 0 0 
vn -1 0 0 
vn -1 0 0 
vn -1 0 0 
vn -1 0 0 
vn -1 0 0 
vn -1 0 0 
vn -1 0 0 
vn -1 0 0 
vn -1 0 0 
vn -1 0 0 
vn -1 0 0 
vn -1 0 0 
vn -1 0 0 
vn -1 0 0 
vn -1 0 0 
vn -1 0 0 
vn -1 0 0 
vn -1 0 0 
vn -1 0 0 
vn -1 0 0 
vn -1 0 0 
vn -1 0 0 
vn -1 0 0 
vn -1 0 0 

vt 0.024355 1.54378 
vt 0.0162301 1.54378 
vt 0.024355 0.456221 
vt 0.0162301 0.456221 
vt 0.0162301 0.456221 
vt 0.024355 0.456221 
vt 0.0162301 1.54378 
vt 0.024355 1.54378 
vt -0.0162301 0.456221 
vt -0.0162301 1.54378 
vt -0.0243352 0.456221 
vt -0.0243352 1.54378 
vt -0.0162301 0.456221 
vt -0.0162301 1.54378 
vt -0.0243352 0.456221 
vt -0.0243352 1.54378 
vt 0.024355 1.54378 
vt 0.0162301 1.54378 
vt 0.024355 0.456221 
vt 0.0162301 0.456221 
vt 0.0162301 0.456221 
vt 0.0162301 1.54378 
vt -0.0162499 0.456221 
vt -0.0162499 1.54378 
vt 0.0162301 0.456221 
vt 0.024355 0.456221 
vt 0.0162301 1.54378 
vt 0.024355 1.54378 
vt -0.0162301 0.456221 
vt -0.0162301 1.54378 
vt -0.0243352 0.456221 
vt -0.0243352 1.54378 
vt 0.024355 1.54378 
vt 0.0162301 1.54378 
vt 0.024355 0.456221 
vt 0.0162301 0.456221 
vt -0.0162301 0.456221 
vt -0.0162301 1.54378 
vt -0.0243352 0.456221 
vt -0.0243352 1.54378 
vt 0.024355 1.54378 
vt 0.0162301 1.54378 
vt 0.024355 0.456221 
vt 0.0162301 0.456221 
vt -0.0162301 0.456221 
vt -0.0162301 1.54378 
vt -0.0243352 0.456221 
vt -0.0243352 1.54378 
vt 0.0162301 0.456221 
vt 0.024355 0.456221 
vt 0.0162301 1.54378 
vt 0.024355 1.54378 
vt -0.0162301 0.456221 
vt -0.0162301 1.54378 
vt -0.0243352 0.456221 
vt -0.0243352 1.54378 
vt -0.0162301 0.456221 
vt -0.0162301 1.54378 
vt -0.0243352 0.456221 
vt -0.0243352 1.54378 
vt -0.0162301 0.456221 
vt -0.0162301 1.54378 
vt -0.0243352 0.456221 
vt -0.0243352 1.54378 
vt 0.024355 1.54378 
vt 0.0162301 1.54378 
vt 0.024355 0.456221 
vt 0.0162301 0.456221 
vt 0.0162301 0.456221 
vt 0.024355 0.456221 
vt 0.0162301 1.54378 
vt 0.024355 1.54378 
vt -0.0162301 0.456221 
vt -0.0162301 1.54378 
vt -0.0243352 0.456221 
vt -0.0243352 1.54378 

usemtl Doorframe2Mtl

f 833/833/833 834/834/834 835/835/835 
f 834/834/834 836/836/836 835/835/835 
f 837/837/837 838/838/838 839/839/839 
f 838/838/838 840/840/840 839/839/839 
f 841/841/841 842/842/842 843/843/843 
f 842/842/842 844/844/844 843/843/843 
f 845/845/845 846/846/846 847/847/847 
f 846/846/846 848/848/848 847/847/847 
f 849/849/849 850/850/850 851/851/851 
f 850/850/850 852/852/852 851/851/851 
f 853/853/853 854/854/854 855/855/855 
f 854/854/854 856/856/856 855/855/855 
f 857/857/857 858/858/858 859/859/859 
f 858/858/858 860/860/860 859/859/859 
f 861/861/861 862/862/862 863/863/863 
f 862/862/862 864/864/864 863/863/863 
f 865/865/865 866/866/866 867/867/867 
f 866/866/866 868/868/868 867/867/867 
f 869/869/869 870/870/870 871/871/871 
f 870/870/870 872/872/872 871/871/871 
f 873/873/873 874/874/874 875/875/875 
f 874/874/874 876/876/876 875/875/875 
f 877/877/877 878/878/878 879/879/879 
f 878/878/878 880/880/880 879/879/879 
f 881/881/881 882/882/882 883/883/883 
f 882/882/882 884/884/884 883/883/883 
f 885/885/885 886/886/886 887/887/887 
f 886/886/886 888/888/888 887/887/887 
f 889/889/889 890/890/890 891/891/891 
f 890/890/890 892/892/892 891/891/891 
f 893/893/893 894/894/894 895/895/895 
f 894/894/894 896/896/896 895/895/895 
f 897/897/897 898/898/898 899/899/899 
f 898/898/898 900/900/900 899/899/899 
f 901/901/901 902/902/902 903/903/903 
f 902/902/902 904/904/904 903/903/903 
f 905/905/905 906/906/906 907/907/907 
f 906/906/906 908/908/908 907/907/907 

g Doorframe4

v -33.3896 6.61268 -17.98 
v -33.5844 6.61268 -17.98 
v -33.3896 0.0873287 -17.98 
v -33.5844 0.0873287 -17.98 
v -33.0001 0.0873284 -18.0287 
v -33 0.0873284 -18.0287 
v -33.0001 6.61266 -18.0287 
v -33 6.61267 -18.0287 
v -33.0001 6.61268 -17.98 
v -33.1949 6.61268 -17.98 
v -33.0001 0.0873284 -17.98 
v -33.1949 0.0873287 -17.98 
v -33.1949 0.0873287 -18.0287 
v -33.1949 6.61266 -18.0287 
v -33.3897 0.0873287 -18.0287 
v -33.3897 6.61266 -18.0287 
v -34.5587 6.61268 -17.98 
v -34.7534 6.61268 -17.98 
v -34.5587 0.0873289 -17.9799 
v -34.7534 0.0873289 -17.9799 
v -36.312 0.0873291 -18.0287 
v -36.312 6.61266 -18.0287 
v -36.604 0.0873294 -18.0287 
v -36.604 6.61267 -18.0287 
v -36.1172 6.61268 -17.9799 
v -36.312 6.61268 -17.9799 
v -36.1172 0.0873291 -17.9799 
v -36.312 0.0873291 -17.9799 
v -35.9223 6.61266 -18.0287 
v -36.1172 6.61266 -18.0287 
v -35.9223 0.0873291 -18.0287 
v -36.1172 0.0873291 -18.0287 
v -35.7275 6.61268 -17.9799 
v -35.9223 6.61268 -17.9799 
v -35.7275 0.0873291 -17.9799 
v -35.9223 0.0873291 -17.9799 
v -35.5327 6.61266 -18.0287 
v -35.7275 6.61266 -18.0287 
v -35.5327 0.0873291 -18.0287 
v -35.7275 0.0873291 -18.0287 
v -35.3379 6.61268 -17.9799 
v -35.5327 6.61268 -17.9799 
v -35.3379 0.0873289 -17.9799 
v -35.5327 0.0873291 -17.9799 
v -35.1431 0.0873289 -18.0287 
v -35.1431 6.61266 -18.0287 
v -35.3379 0.0873289 -18.0287 
v -35.3379 6.61266 -18.0287 
v -34.9482 6.61268 -17.9799 
v -35.143 6.61268 -17.9799 
v -34.9482 0.0873289 -17.9799 
v -35.143 0.0873289 -17.9799 
v -34.7535 6.61266 -18.0287 
v -34.9482 6.61266 -18.0287 
v -34.9482 0.0873289 -18.0287 
v -34.7535 0.0873289 -18.0287 
v -34.5587 6.61266 -18.0287 
v -34.5587 0.0873289 -18.0287 
v -34.3638 0.0873289 -18.0287 
v -34.3638 6.61266 -18.0287 
v -34.169 6.61268 -17.98 
v -34.3638 6.61268 -17.98 
v -34.169 0.0873287 -17.9799 
v -34.3638 0.0873289 -17.9799 
v -33.7793 6.61268 -17.98 
v -33.9741 6.61268 -17.98 
v -33.7793 0.0873287 -17.98 
v -33.9741 0.0873287 -17.98 
v -33.9741 0.0873287 -18.0287 
v -33.9741 6.61266 -18.0287 
v -34.169 0.0873287 -18.0287 
v -34.169 6.61266 -18.0287 
v -33.7793 0.0873287 -18.0287 
v -33.5844 0.0873287 -18.0287 
v -33.7793 6.61266 -18.0287 
v -33.5844 6.61266 -18.0287 

vn 0 0 1 
vn 0 0 1 
vn 0 0 1 
vn 0 0 1 
vn 0 0 1 
vn 0 0 1 
vn 0 0 1 
vn 0 0 1 
vn 0 0 1 
vn 0 0 1 
vn 0 0 1 
vn 0 0 1 
vn 0 0 1 
vn 0 0 1 
vn 0 0 1 
vn 0 0 1 
vn 0 0 1 
vn 0 0 1 
vn 0 0 1 
vn 0 0 1 
vn 0 0 1 
vn 0 0 1 
vn 0 0 1 
vn 0 0 1 
vn 0 0 1 
vn 0 0 1 
vn 0 0 1 
vn 0 0 1 
vn 0 0 1 
vn 0 0 1 
vn 0 0 1 
vn 0 0 1 
vn 0 0 1 
vn 0 0 1 
vn 0 0 1 
vn 0 0 1 
vn 0 0 1 
vn 0 0 1 
vn 0 0 1 
vn 0 0 1 
vn 0 0 1 
vn 0 0 1 
vn 0 0 1 
vn 0 0 1 
vn 0 0 1 
vn 0 0 1 
vn 0 0 1 
vn 0 0 1 
vn 0 0 1 
vn 0 0 1 
vn 0 0 1 
vn 0 0 1 
vn 0 0 1 
vn 0 0 1 
vn 0 0 1 
vn 0 0 1 
vn 0 0 1 
vn 0 0 1 
vn 0 0 1 
vn 0 0 1 
vn 0 0 1 
vn 0 0 1 
vn 0 0 1 
vn 0 0 1 
vn 0 0 1 
vn 0 0 1 
vn 0 0 1 
vn 0 0 1 
vn 0 0 1 
vn 0 0 1 
vn 0 0 1 
vn 0 0 1 
vn 0 0 1 
vn 0 0 1 
vn 0 0 1 
vn 0 0 1 

vt 0.235396 1.54378 
vt 0.202926 1.54378 
vt 0.235396 0.456221 
vt 0.202926 0.456221 
vt 0.300316 0.456221 
vt 0.300326 0.456221 
vt 0.300316 1.54378 
vt 0.300326 1.54378 
vt 0.300316 1.54378 
vt 0.267856 1.54378 
vt 0.300316 0.456221 
vt 0.267856 0.456221 
vt 0.267846 0.456221 
vt 0.267846 1.54378 
vt 0.235386 0.456221 
vt 0.235386 1.54378 
vt 0.0405554 1.54378 
vt 0.00809523 1.54378 
vt 0.0405554 0.456221 
vt 0.00809523 0.456221 
vt -0.251665 0.456221 
vt -0.251665 1.54378 
vt -0.300336 0.456221 
vt -0.300336 1.54378 
vt -0.219205 1.54378 
vt -0.251665 1.54378 
vt -0.219205 0.456221 
vt -0.251665 0.456221 
vt -0.186725 1.54378 
vt -0.219195 1.54378 
vt -0.186725 0.456221 
vt -0.219195 0.456221 
vt -0.154255 1.54378 
vt -0.186725 1.54378 
vt -0.154255 0.456221 
vt -0.186725 0.456221 
vt -0.121785 1.54378 
vt -0.154255 1.54378 
vt -0.121785 0.456221 
vt -0.154255 0.456221 
vt -0.089315 1.54378 
vt -0.121785 1.54378 
vt -0.089315 0.456221 
vt -0.121785 0.456221 
vt -0.0568449 0.456221 
vt -0.0568449 1.54378 
vt -0.089315 0.456221 
vt -0.089315 1.54378 
vt -0.024365 1.54378 
vt -0.056835 1.54378 
vt -0.024365 0.456221 
vt -0.056835 0.456221 
vt 0.00808532 1.54378 
vt -0.0243749 1.54378 
vt -0.0243749 0.456221 
vt 0.00808532 0.456221 
vt 0.0405554 1.54378 
vt 0.0405554 0.456221 
vt 0.0730354 0.456221 
vt 0.0730354 1.54378 
vt 0.105505 1.54378 
vt 0.0730354 1.54378 
vt 0.105505 0.456221 
vt 0.0730354 0.456221 
vt 0.170446 1.54378 
vt 0.137976 1.54378 
vt 0.170446 0.456221 
vt 0.137976 0.456221 
vt 0.137976 0.456221 
vt 0.137976 1.54378 
vt 0.105505 0.456221 
vt 0.105505 1.54378 
vt 0.170446 0.456221 
vt 0.202926 0.456221 
vt 0.170446 1.54378 
vt 0.202926 1.54378 

usemtl Doorframe2Mtl

f 909/909/909 910/910/910 911/911/911 
f 910/910/910 912/912/912 911/911/911 
f 913/913/913 914/914/914 915/915/915 
f 914/914/914 916/916/916 915/915/915 
f 917/917/917 918/918/918 919/919/919 
f 918/918/918 920/920/920 919/919/919 
f 921/921/921 922/922/922 923/923/923 
f 922/922/922 924/924/924 923/923/923 
f 925/925/925 926/926/926 927/927/927 
f 926/926/926 928/928/928 927/927/927 
f 929/929/929 930/930/930 931/931/931 
f 930/930/930 932/932/932 931/931/931 
f 933/933/933 934/934/934 935/935/935 
f 934/934/934 936/936/936 935/935/935 
f 937/937/937 938/938/938 939/939/939 
f 938/938/938 940/940/940 939/939/939 
f 941/941/941 942/942/942 943/943/943 
f 942/942/942 944/944/944 943/943/943 
f 945/945/945 946/946/946 947/947/947 
f 946/946/946 948/948/948 947/947/947 
f 949/949/949 950/950/950 951/951/951 
f 950/950/950 952/952/952 951/951/951 
f 953/953/953 954/954/954 955/955/955 
f 954/954/954 956/956/956 955/955/955 
f 957/957/957 958/958/958 959/959/959 
f 958/958/958 960/960/960 959/959/959 
f 961/961/961 962/962/962 963/963/963 
f 964/964/964 961/961/961 963/963/963 
f 965/965/965 966/966/966 967/967/967 
f 968/968/968 965/965/965 967/967/967 
f 969/969/969 970/970/970 971/971/971 
f 970/970/970 972/972/972 971/971/971 
f 973/973/973 974/974/974 975/975/975 
f 974/974/974 976/976/976 975/975/975 
f 977/977/977 978/978/978 979/979/979 
f 978/978/978 980/980/980 979/979/979 
f 981/981/981 982/982/982 983/983/983 
f 982/982/982 984/984/984 983/983/983 

g Doorframe5

v -33.3896 0.0873287 -18.3121 
v -33.5844 0.0873287 -18.3121 
v -33.3896 6.61268 -18.3121 
v -33.5844 6.61268 -18.3121 
v -33.0001 0.0873284 -18.3121 
v -33.1949 0.0873287 -18.3121 
v -33.0001 6.61268 -18.3121 
v -33.1949 6.61268 -18.3121 
v -33.0001 6.61266 -18.2635 
v -33 6.61267 -18.2636 
v -33.0001 0.0873284 -18.2635 
v -33 0.0873284 -18.2636 
v -33.3897 6.61266 -18.2635 
v -33.1949 6.61266 -18.2635 
v -33.3897 0.0873287 -18.2635 
v -33.1949 0.0873287 -18.2635 
v -34.169 0.0873287 -18.3121 
v -34.3638 0.0873289 -18.3121 
v -34.169 6.61268 -18.3121 
v -34.3638 6.61268 -18.3121 
v -34.9482 0.0873289 -18.3121 
v -35.143 0.0873289 -18.3121 
v -34.9482 6.61268 -18.3121 
v -35.143 6.61268 -18.3121 
v -35.9223 0.0873291 -18.2635 
v -36.1172 6.61266 -18.2635 
v -35.9223 6.61266 -18.2635 
v -36.312 6.61266 -18.2635 
v -36.312 0.0873291 -18.2635 
v -36.604 6.61267 -18.2636 
v -36.604 0.0873294 -18.2636 
v -36.1172 0.0873291 -18.3121 
v -36.312 0.0873291 -18.3121 
v -36.1172 6.61268 -18.3121 
v -36.312 6.61268 -18.3121 
v -36.1172 0.0873291 -18.2635 
v -35.7275 0.0873291 -18.3121 
v -35.9223 0.0873291 -18.3121 
v -35.7275 6.61268 -18.3121 
v -35.9223 6.61268 -18.3121 
v -35.5327 0.0873291 -18.2635 
v -35.7275 6.61266 -18.2635 
v -35.5327 6.61266 -18.2635 
v -35.7275 0.0873291 -18.2635 
v -35.3379 0.0873289 -18.3121 
v -35.5327 0.0873291 -18.3121 
v -35.3379 6.61268 -18.3121 
v -35.5327 6.61268 -18.3121 
v -35.1431 6.61266 -18.2635 
v -35.1431 0.0873289 -18.2635 
v -35.3379 6.61266 -18.2635 
v -35.3379 0.0873289 -18.2635 
v -34.7535 6.61266 -18.2635 
v -34.7535 0.0873289 -18.2635 
v -34.9482 6.61266 -18.2635 
v -34.9482 0.0873289 -18.2635 
v -34.5587 0.0873289 -18.3121 
v -34.7534 0.0873289 -18.3121 
v -34.5587 6.61268 -18.3121 
v -34.7534 6.61268 -18.3121 
v -34.3638 0.0873289 -18.2635 
v -34.5587 0.0873289 -18.2635 
v -34.5587 6.61266 -18.2635 
v -34.3638 6.61266 -18.2635 
v -33.7793 0.0873287 -18.3121 
v -33.9741 0.0873287 -18.3121 
v -33.7793 6.61268 -18.3121 
v -33.9741 6.61268 -18.3121 
v -33.9741 6.61266 -18.2635 
v -33.9741 0.0873287 -18.2635 
v -34.169 6.61266 -18.2635 
v -34.169 0.0873287 -18.2635 
v -33.7793 6.61266 -18.2635 
v -33.5844 6.61266 -18.2635 
v -33.7793 0.0873287 -18.2635 
v -33.5844 0.0873287 -18.2635 

vn 0 0 -1 
vn 0 0 -1 
vn 0 0 -1 
vn 0 0 -1 
vn 0 0 -1 
vn 0 0 -1 
vn 0 0 -1 
vn 0 0 -1 
vn 0 0 -1 
vn 0 0 -1 
vn 0 0 -1 
vn 0 0 -1 
vn 0 0 -1 
vn 0 0 -1 
vn 0 0 -1 
vn 0 0 -1 
vn 0 0 -1 
vn 0 0 -1 
vn 0 0 -1 
vn 0 0 -1 
vn 0 0 -1 
vn 0 0 -1 
vn 0 0 -1 
vn 0 0 -1 
vn 0 0 -1 
vn 0 0 -1 
vn 0 0 -1 
vn 0 0 -1 
vn 0 0 -1 
vn 0 0 -1 
vn 0 0 -1 
vn 0 0 -1 
vn 0 0 -1 
vn 0 0 -1 
vn 0 0 -1 
vn 0 0 -1 
vn 0 0 -1 
vn 0 0 -1 
vn 0 0 -1 
vn 0 0 -1 
vn 0 0 -1 
vn 0 0 -1 
vn 0 0 -1 
vn 0 0 -1 
vn 0 0 -1 
vn 0 0 -1 
vn 0 0 -1 
vn 0 0 -1 
vn 0 0 -1 
vn 0 0 -1 
vn 0 0 -1 
vn 0 0 -1 
vn 0 0 -1 
vn 0 0 -1 
vn 0 0 -1 
vn 0 0 -1 
vn 0 0 -1 
vn 0 0 -1 
vn 0 0 -1 
vn 0 0 -1 
vn 0 0 -1 
vn 0 0 -1 
vn 0 0 -1 
vn 0 0 -1 
vn 0 0 -1 
vn 0 0 -1 
vn 0 0 -1 
vn 0 0 -1 
vn 0 0 -1 
vn 0 0 -1 
vn 0 0 -1 
vn 0 0 -1 
vn 0 0 -1 
vn 0 0 -1 
vn 0 0 -1 
vn 0 0 -1 

vt -0.235396 0.456221 
vt -0.202926 0.456221 
vt -0.235396 1.54378 
vt -0.202926 1.54378 
vt -0.300316 0.456221 
vt -0.267856 0.456221 
vt -0.300316 1.54378 
vt -0.267856 1.54378 
vt -0.300316 1.54378 
vt -0.300326 1.54378 
vt -0.300316 0.456221 
vt -0.300326 0.456221 
vt -0.235386 1.54378 
vt -0.267846 1.54378 
vt -0.235386 0.456221 
vt -0.267846 0.456221 
vt -0.105505 0.456221 
vt -0.0730354 0.456221 
vt -0.105505 1.54378 
vt -0.0730354 1.54378 
vt 0.024365 0.456221 
vt 0.056835 0.456221 
vt 0.024365 1.54378 
vt 0.056835 1.54378 
vt 0.186725 0.456221 
vt 0.219195 1.54378 
vt 0.186725 1.54378 
vt 0.251665 1.54378 
vt 0.251665 0.456221 
vt 0.300336 1.54378 
vt 0.300336 0.456221 
vt 0.219205 0.456221 
vt 0.251665 0.456221 
vt 0.219205 1.54378 
vt 0.251665 1.54378 
vt 0.219195 0.456221 
vt 0.154255 0.456221 
vt 0.186725 0.456221 
vt 0.154255 1.54378 
vt 0.186725 1.54378 
vt 0.121785 0.456221 
vt 0.154255 1.54378 
vt 0.121785 1.54378 
vt 0.154255 0.456221 
vt 0.089315 0.456221 
vt 0.121785 0.456221 
vt 0.089315 1.54378 
vt 0.121785 1.54378 
vt 0.0568449 1.54378 
vt 0.0568449 0.456221 
vt 0.089315 1.54378 
vt 0.089315 0.456221 
vt -0.00808532 1.54378 
vt -0.00808532 0.456221 
vt 0.0243749 1.54378 
vt 0.0243749 0.456221 
vt -0.0405554 0.456221 
vt -0.00809523 0.456221 
vt -0.0405554 1.54378 
vt -0.00809523 1.54378 
vt -0.0730354 0.456221 
vt -0.0405554 0.456221 
vt -0.0405554 1.54378 
vt -0.0730354 1.54378 
vt -0.170446 0.456221 
vt -0.137976 0.456221 
vt -0.170446 1.54378 
vt -0.137976 1.54378 
vt -0.137976 1.54378 
vt -0.137976 0.456221 
vt -0.105505 1.54378 
vt -0.105505 0.456221 
vt -0.170446 1.54378 
vt -0.202926 1.54378 
vt -0.170446 0.456221 
vt -0.202926 0.456221 

usemtl Doorframe2Mtl

f 985/985/985 986/986/986 987/987/987 
f 986/986/986 988/988/988 987/987/987 
f 989/989/989 990/990/990 991/991/991 
f 990/990/990 992/992/992 991/991/991 
f 993/993/993 994/994/994 995/995/995 
f 994/994/994 996/996/996 995/995/995 
f 997/997/997 998/998/998 999/999/999 
f 998/998/998 1000/1000/1000 999/999/999 
f 1001/1001/1001 1002/1002/1002 1003/1003/1003 
f 1002/1002/1002 1004/1004/1004 1003/1003/1003 
f 1005/1005/1005 1006/1006/1006 1007/1007/1007 
f 1006/1006/1006 1008/1008/1008 1007/1007/1007 
f 1009/1009/1009 1010/1010/1010 1011/1011/1011 
f 1012/1012/1012 1013/1013/1013 1014/1014/1014 
f 1013/1013/1013 1015/1015/1015 1014/1014/1014 
f 1016/1016/1016 1017/1017/1017 1018/1018/1018 
f 1017/1017/1017 1019/1019/1019 1018/1018/1018 
f 1009/1009/1009 1020/1020/1020 1010/1010/1010 
f 1021/1021/1021 1022/1022/1022 1023/1023/1023 
f 1022/1022/1022 1024/1024/1024 1023/1023/1023 
f 1025/1025/1025 1026/1026/1026 1027/1027/1027 
f 1026/1026/1026 1025/1025/1025 1028/1028/1028 
f 1029/1029/1029 1030/1030/1030 1031/1031/1031 
f 1030/1030/1030 1032/1032/1032 1031/1031/1031 
f 1033/1033/1033 1034/1034/1034 1035/1035/1035 
f 1035/1035/1035 1034/1034/1034 1036/1036/1036 
f 1037/1037/1037 1038/1038/1038 1039/1039/1039 
f 1038/1038/1038 1040/1040/1040 1039/1039/1039 
f 1041/1041/1041 1042/1042/1042 1043/1043/1043 
f 1042/1042/1042 1044/1044/1044 1043/1043/1043 
f 1045/1045/1045 1046/1046/1046 1047/1047/1047 
f 1045/1045/1045 1047/1047/1047 1048/1048/1048 
f 1049/1049/1049 1050/1050/1050 1051/1051/1051 
f 1050/1050/1050 1052/1052/1052 1051/1051/1051 
f 1053/1053/1053 1054/1054/1054 1055/1055/1055 
f 1054/1054/1054 1056/1056/1056 1055/1055/1055 
f 1057/1057/1057 1058/1058/1058 1059/1059/1059 
f 1058/1058/1058 1060/1060/1060 1059/1059/1059 

g Doorframe6

v -33.3697 0.0873287 -18.2435 
v -33.3696 0.0873287 -18.2921 
v -33.3697 6.61266 -18.2435 
v -33.3696 6.61268 -18.2921 
v -32.9801 0.0873284 -18.2435 
v -32.9801 0.0873284 -18.2921 
v -32.9801 6.61266 -18.2435 
v -32.9801 6.61268 -18.2921 
v -32.98 6.61267 -18.2436 
v -32.98 6.61267 -18.0487 
v -32.98 0.0873284 -18.2436 
v -32.98 0.0873284 -18.0487 
v -32.9801 0.0873284 -18.0487 
v -32.9801 6.61266 -18.0487 
v -32.9801 0.0873284 -18 
v -32.9801 6.61268 -18 
v -33.3697 6.61266 -18.0487 
v -33.3696 6.61268 -18 
v -33.3697 0.0873287 -18.0487 
v -33.3696 0.0873287 -18 
v -36.0972 0.0873291 -18.2435 
v -36.0972 0.0873291 -18.2921 
v -36.0972 6.61266 -18.2435 
v -36.0972 6.61268 -18.2921 
v -36.0972 0.0873291 -18.0487 
v -36.0972 6.61266 -18.0487 
v -36.0972 0.0873291 -17.9999 
v -36.0972 6.61268 -17.9999 
v -35.7075 6.61266 -18.0487 
v -35.7075 6.61268 -17.9999 
v -35.7075 0.0873291 -18.0487 
v -35.7075 0.0873291 -17.9999 
v -35.7075 0.0873291 -18.2435 
v -35.7075 0.0873291 -18.2921 
v -35.7075 6.61266 -18.2435 
v -35.7075 6.61268 -18.2921 
v -35.3179 6.61266 -18.0487 
v -35.3179 6.61268 -17.9999 
v -35.3179 0.0873289 -18.0487 
v -35.3179 0.0873289 -17.9999 
v -35.3179 0.0873289 -18.2435 
v -35.3179 0.0873289 -18.2921 
v -35.3179 6.61266 -18.2435 
v -35.3179 6.61268 -18.2921 
v -34.9282 6.61268 -18.2921 
v -34.9282 6.61266 -18.2435 
v -34.9282 0.0873289 -18.2921 
v -34.9282 0.0873289 -18.2435 
v -34.9282 0.0873289 -18.0487 
v -34.9282 6.61266 -18.0487 
v -34.9282 0.0873289 -17.9999 
v -34.9282 6.61268 -18 
v -34.5387 0.0873289 -18.2435 
v -34.5387 0.0873289 -18.2921 
v -34.5387 6.61266 -18.2435 
v -34.5387 6.61268 -18.2921 
v -34.5387 6.61266 -18.0487 
v -34.5387 6.61268 -18 
v -34.5387 0.0873289 -18.0487 
v -34.5387 0.0873289 -17.9999 
v -34.149 6.61266 -18.0487 
v -34.149 6.61268 -18 
v -34.149 0.0873287 -18.0487 
v -34.149 0.0873287 -18 
v -34.149 0.0873287 -18.2435 
v -34.149 0.0873287 -18.2921 
v -34.149 6.61266 -18.2435 
v -34.149 6.61268 -18.2921 
v -33.7593 0.0873287 -18.0487 
v -33.7593 6.61266 -18.0487 
v -33.7593 0.0873287 -18 
v -33.7593 6.61268 -18 
v -33.7593 0.0873287 -18.2435 
v -33.7593 0.0873287 -18.2921 
v -33.7593 6.61266 -18.2435 
v -33.7593 6.61268 -18.2921 

vn 1 0 0 
vn 1 0 0 
vn 1 0 0 
vn 1 0 0 
vn 1 0 0 
vn 1 0 0 
vn 1 0 0 
vn 1 0 0 
vn 1 0 0 
vn 1 0 0 
vn 1 0 0 
vn 1 0 0 
vn 1 0 0 
vn 1 0 0 
vn 1 0 0 
vn 1 0 0 
vn 1 0 0 
vn 1 0 0 
vn 1 0 0 
vn 1 0 0 
vn 1 0 0 
vn 1 0 0 
vn 1 0 0 
vn 1 0 0 
vn 1 0 0 
vn 1 0 0 
vn 1 0 0 
vn 1 0 0 
vn 1 0 0 
vn 1 0 0 
vn 1 0 0 
vn 1 0 0 
vn 1 0 0 
vn 1 0 0 
vn 1 0 0 
vn 1 0 0 
vn 1 0 0 
vn 1 0 0 
vn 1 0 0 
vn 1 0 0 
vn 1 0 0 
vn 1 0 0 
vn 1 0 0 
vn 1 0 0 
vn 1 0 0 
vn 1 0 0 
vn 1 0 0 
vn 1 0 0 
vn 1 0 0 
vn 1 0 0 
vn 1 0 0 
vn 1 0 0 
vn 1 0 0 
vn 1 0 0 
vn 1 0 0 
vn 1 0 0 
vn 1 0 0 
vn 1 0 0 
vn 1 0 0 
vn 1 0 0 
vn 1 0 0 
vn 1 0 0 
vn 1 0 0 
vn 1 0 0 
vn 1 0 0 
vn 1 0 0 
vn 1 0 0 
vn 1 0 0 
vn 1 0 0 
vn 1 0 0 
vn 1 0 0 
vn 1 0 0 
vn 1 0 0 
vn 1 0 0 
vn 1 0 0 
vn 1 0 0 

vt 0.0162301 0.456221 
vt 0.0243352 0.456221 
vt 0.0162301 1.54378 
vt 0.0243352 1.54378 
vt 0.0162301 0.456221 
vt 0.0243352 0.456221 
vt 0.0162301 1.54378 
vt 0.0243352 1.54378 
vt 0.0162499 1.54378 
vt -0.0162301 1.54378 
vt 0.0162499 0.456221 
vt -0.0162301 0.456221 
vt -0.0162301 0.456221 
vt -0.0162301 1.54378 
vt -0.024355 0.456221 
vt -0.024355 1.54378 
vt -0.0162301 1.54378 
vt -0.024355 1.54378 
vt -0.0162301 0.456221 
vt -0.024355 0.456221 
vt 0.0162301 0.456221 
vt 0.0243352 0.456221 
vt 0.0162301 1.54378 
vt 0.0243352 1.54378 
vt -0.0162301 0.456221 
vt -0.0162301 1.54378 
vt -0.024355 0.456221 
vt -0.024355 1.54378 
vt -0.0162301 1.54378 
vt -0.024355 1.54378 
vt -0.0162301 0.456221 
vt -0.024355 0.456221 
vt 0.0162301 0.456221 
vt 0.0243352 0.456221 
vt 0.0162301 1.54378 
vt 0.0243352 1.54378 
vt -0.0162301 1.54378 
vt -0.024355 1.54378 
vt -0.0162301 0.456221 
vt -0.024355 0.456221 
vt 0.0162301 0.456221 
vt 0.0243352 0.456221 
vt 0.0162301 1.54378 
vt 0.0243352 1.54378 
vt 0.0243352 1.54378 
vt 0.0162301 1.54378 
vt 0.0243352 0.456221 
vt 0.0162301 0.456221 
vt -0.0162301 0.456221 
vt -0.0162301 1.54378 
vt -0.024355 0.456221 
vt -0.024355 1.54378 
vt 0.0162301 0.456221 
vt 0.0243352 0.456221 
vt 0.0162301 1.54378 
vt 0.0243352 1.54378 
vt -0.0162301 1.54378 
vt -0.024355 1.54378 
vt -0.0162301 0.456221 
vt -0.024355 0.456221 
vt -0.0162301 1.54378 
vt -0.024355 1.54378 
vt -0.0162301 0.456221 
vt -0.024355 0.456221 
vt 0.0162301 0.456221 
vt 0.0243352 0.456221 
vt 0.0162301 1.54378 
vt 0.0243352 1.54378 
vt -0.0162301 0.456221 
vt -0.0162301 1.54378 
vt -0.024355 0.456221 
vt -0.024355 1.54378 
vt 0.0162301 0.456221 
vt 0.0243352 0.456221 
vt 0.0162301 1.54378 
vt 0.0243352 1.54378 

usemtl Doorframe2Mtl

f 1061/1061/1061 1062/1062/1062 1063/1063/1063 
f 1062/1062/1062 1064/1064/1064 1063/1063/1063 
f 1065/1065/1065 1066/1066/1066 1067/1067/1067 
f 1066/1066/1066 1068/1068/1068 1067/1067/1067 
f 1069/1069/1069 1070/1070/1070 1071/1071/1071 
f 1070/1070/1070 1072/1072/1072 1071/1071/1071 
f 1073/1073/1073 1074/1074/1074 1075/1075/1075 
f 1074/1074/1074 1076/1076/1076 1075/1075/1075 
f 1077/1077/1077 1078/1078/1078 1079/1079/1079 
f 1078/1078/1078 1080/1080/1080 1079/1079/1079 
f 1081/1081/1081 1082/1082/1082 1083/1083/1083 
f 1082/1082/1082 1084/1084/1084 1083/1083/1083 
f 1085/1085/1085 1086/1086/1086 1087/1087/1087 
f 1086/1086/1086 1088/1088/1088 1087/1087/1087 
f 1089/1089/1089 1090/1090/1090 1091/1091/1091 
f 1090/1090/1090 1092/1092/1092 1091/1091/1091 
f 1093/1093/1093 1094/1094/1094 1095/1095/1095 
f 1094/1094/1094 1096/1096/1096 1095/1095/1095 
f 1097/1097/1097 1098/1098/1098 1099/1099/1099 
f 1098/1098/1098 1100/1100/1100 1099/1099/1099 
f 1101/1101/1101 1102/1102/1102 1103/1103/1103 
f 1102/1102/1102 1104/1104/1104 1103/1103/1103 
f 1105/1105/1105 1106/1106/1106 1107/1107/1107 
f 1106/1106/1106 1108/1108/1108 1107/1107/1107 
f 1109/1109/1109 1110/1110/1110 1111/1111/1111 
f 1110/1110/1110 1112/1112/1112 1111/1111/1111 
f 1113/1113/1113 1114/1114/1114 1115/1115/1115 
f 1114/1114/1114 1116/1116/1116 1115/1115/1115 
f 1117/1117/1117 1118/1118/1118 1119/1119/1119 
f 1118/1118/1118 1120/1120/1120 1119/1119/1119 
f 1121/1121/1121 1122/1122/1122 1123/1123/1123 
f 1122/1122/1122 1124/1124/1124 1123/1123/1123 
f 1125/1125/1125 1126/1126/1126 1127/1127/1127 
f 1126/1126/1126 1128/1128/1128 1127/1127/1127 
f 1129/1129/1129 1130/1130/1130 1131/1131/1131 
f 1130/1130/1130 1132/1132/1132 1131/1131/1131 
f 1133/1133/1133 1134/1134/1134 1135/1135/1135 
f 1134/1134/1134 1136/1136/1136 1135/1135/1135 

