# This file is brought to you by Roblox Corporation
# Generated by Roblox Studio

mtllib B.mtl

g Part1

v -40.6 1.04567 3.86186 
v -40.7184 1.16399 3.86186 
v -40.7393 1.13849 3.86186 
v -40.7588 1.09859 3.86186 
v -40.7674 1.04567 3.86186 
v -40.7588 0.992753 3.86186 
v -40.7393 0.952848 3.86186 
v -40.7184 0.927345 3.86186 
v -40.7184 0.927345 3.86186 
v -40.6929 0.906438 3.86186 
v -40.653 0.886921 3.86186 
v -40.6 0.878334 3.86186 
v -40.5471 0.886921 3.86186 
v -40.5072 0.906438 3.86186 
v -40.4817 0.927345 3.86186 
v -40.4817 0.927345 3.86186 
v -40.4608 0.952848 3.86186 
v -40.4413 0.992753 3.86186 
v -40.4327 1.04567 3.86186 
v -40.4413 1.09859 3.86186 
v -40.4608 1.13849 3.86186 
v -40.4817 1.16399 3.86186 
v -40.4817 1.16399 3.86186 
v -40.5072 1.1849 3.86186 
v -40.5471 1.20442 3.86186 
v -40.6 1.213 3.86186 
v -40.653 1.20442 3.86186 
v -40.6929 1.1849 3.86186 
v -40.7184 1.16399 3.86186 
v -40.4817 1.16399 8.07058 
v -40.4817 1.16399 3.86186 
v -40.5072 1.1849 8.07058 
v -40.5072 1.1849 3.86186 
v -40.5471 1.20442 8.07058 
v -40.5471 1.20442 3.86186 
v -40.6 1.213 8.07058 
v -40.6 1.213 3.86186 
v -40.653 1.20442 8.07058 
v -40.653 1.20442 3.86186 
v -40.6929 1.1849 8.07058 
v -40.6929 1.1849 3.86186 
v -40.7184 1.16399 8.07058 
v -40.7184 1.16399 3.86186 
v -40.4817 1.16399 3.86186 
v -40.4817 1.16399 8.07058 
v -40.4608 1.13849 3.86186 
v -40.4608 1.13849 8.07058 
v -40.4413 1.09859 3.86186 
v -40.4413 1.09859 8.07058 
v -40.4327 1.04567 3.86186 
v -40.4327 1.04567 8.07058 
v -40.4413 0.992753 3.86186 
v -40.4413 0.992753 8.07058 
v -40.4608 0.952848 3.86186 
v -40.4608 0.952848 8.07058 
v -40.4817 0.927345 3.86186 
v -40.4817 0.927345 8.07058 
v -40.6 1.04567 8.07058 
v -40.4817 1.16399 8.07058 
v -40.4608 1.13849 8.07058 
v -40.4413 1.09859 8.07058 
v -40.4327 1.04567 8.07058 
v -40.4413 0.992753 8.07058 
v -40.4608 0.952848 8.07058 
v -40.4817 0.927345 8.07058 
v -40.4817 0.927345 8.07058 
v -40.5072 0.906438 8.07058 
v -40.5471 0.886921 8.07058 
v -40.6 0.878334 8.07058 
v -40.653 0.886921 8.07058 
v -40.6929 0.906438 8.07058 
v -40.7184 0.927345 8.07058 
v -40.7184 0.927345 8.07058 
v -40.7393 0.952848 8.07058 
v -40.7588 0.992753 8.07058 
v -40.7674 1.04567 8.07058 
v -40.7588 1.09859 8.07058 
v -40.7393 1.13849 8.07058 
v -40.7184 1.16399 8.07058 
v -40.7184 1.16399 8.07058 
v -40.6929 1.1849 8.07058 
v -40.653 1.20442 8.07058 
v -40.6 1.213 8.07058 
v -40.5471 1.20442 8.07058 
v -40.5072 1.1849 8.07058 
v -40.4817 1.16399 8.07058 
v -40.7184 0.927345 8.07058 
v -40.7184 0.927345 3.86186 
v -40.6929 0.906438 8.07058 
v -40.6929 0.906438 3.86186 
v -40.653 0.886921 8.07058 
v -40.653 0.886921 3.86186 
v -40.6 0.878334 8.07058 
v -40.6 0.878334 3.86186 
v -40.5471 0.886921 8.07058 
v -40.5471 0.886921 3.86186 
v -40.5072 0.906438 8.07058 
v -40.5072 0.906438 3.86186 
v -40.4817 0.927345 8.07058 
v -40.4817 0.927345 3.86186 
v -40.7184 1.16399 8.07058 
v -40.7184 1.16399 3.86186 
v -40.7393 1.13849 8.07058 
v -40.7393 1.13849 3.86186 
v -40.7588 1.09859 8.07058 
v -40.7588 1.09859 3.86186 
v -40.7674 1.04567 8.07058 
v -40.7674 1.04567 3.86186 
v -40.7588 0.992753 8.07058 
v -40.7588 0.992753 3.86186 
v -40.7393 0.952848 8.07058 
v -40.7393 0.952848 3.86186 
v -40.7184 0.927345 8.07058 
v -40.7184 0.927345 3.86186 

vn 0 0 -1 
vn 0 0 -1 
vn 0 0 -1 
vn 0 0 -1 
vn 0 0 -1 
vn 0 0 -1 
vn 0 0 -1 
vn 0 0 -1 
vn 0 0 -1 
vn 0 0 -1 
vn 0 0 -1 
vn 0 0 -1 
vn 0 0 -1 
vn 0 0 -1 
vn 0 0 -1 
vn 0 0 -1 
vn 0 0 -1 
vn 0 0 -1 
vn 0 0 -1 
vn 0 0 -1 
vn 0 0 -1 
vn 0 0 -1 
vn 0 0 -1 
vn 0 0 -1 
vn 0 0 -1 
vn 0 0 -1 
vn 0 0 -1 
vn 0 0 -1 
vn 0 0 -1 
vn 0.708661 0.708661 0 
vn 0.708661 0.708661 0 
vn 0.551181 0.834646 0 
vn 0.551181 0.834646 0 
vn 0.314961 0.944882 0 
vn 0.314961 0.944882 0 
vn 0 1 0 
vn 0 1 0 
vn -0.314961 0.944882 0 
vn -0.314961 0.944882 0 
vn -0.551181 0.834646 0 
vn -0.551181 0.834646 0 
vn -0.708661 0.708661 0 
vn -0.708661 0.708661 0 
vn 0.708661 0.708661 0 
vn 0.708661 0.708661 0 
vn 0.834646 0.551181 0 
vn 0.834646 0.551181 0 
vn 0.944882 0.314961 0 
vn 0.944882 0.314961 0 
vn 1 0 0 
vn 1 0 0 
vn 0.944882 -0.314961 0 
vn 0.944882 -0.314961 0 
vn 0.834646 -0.551181 0 
vn 0.834646 -0.551181 0 
vn 0.708661 -0.708661 0 
vn 0.708661 -0.708661 0 
vn 0 0 1 
vn 0 0 1 
vn 0 0 1 
vn 0 0 1 
vn 0 0 1 
vn 0 0 1 
vn 0 0 1 
vn 0 0 1 
vn 0 0 1 
vn 0 0 1 
vn 0 0 1 
vn 0 0 1 
vn 0 0 1 
vn 0 0 1 
vn 0 0 1 
vn 0 0 1 
vn 0 0 1 
vn 0 0 1 
vn 0 0 1 
vn 0 0 1 
vn 0 0 1 
vn 0 0 1 
vn 0 0 1 
vn 0 0 1 
vn 0 0 1 
vn 0 0 1 
vn 0 0 1 
vn 0 0 1 
vn 0 0 1 
vn -0.708661 -0.708661 0 
vn -0.708661 -0.708661 0 
vn -0.551181 -0.834646 0 
vn -0.551181 -0.834646 0 
vn -0.314961 -0.944882 0 
vn -0.314961 -0.944882 0 
vn 0 -1 0 
vn 0 -1 0 
vn 0.314961 -0.944882 0 
vn 0.314961 -0.944882 0 
vn 0.551181 -0.834646 0 
vn 0.551181 -0.834646 0 
vn 0.708661 -0.708661 0 
vn 0.708661 -0.708661 0 
vn -0.708661 0.708661 0 
vn -0.708661 0.708661 0 
vn -0.834646 0.551181 0 
vn -0.834646 0.551181 0 
vn -0.944882 0.314961 0 
vn -0.944882 0.314961 0 
vn -1 0 0 
vn -1 0 0 
vn -0.944882 -0.314961 0 
vn -0.944882 -0.314961 0 
vn -0.834646 -0.551181 0 
vn -0.834646 -0.551181 0 
vn -0.708661 -0.708661 0 
vn -0.708661 -0.708661 0 

vt 1.89592 -4.77092 
vt 1.91071 -4.75613 
vt 1.91332 -4.75931 
vt 1.91576 -4.7643 
vt 1.91683 -4.77092 
vt 1.91576 -4.77753 
vt 1.91332 -4.78252 
vt 1.91071 -4.78571 
vt 1.91071 -4.78571 
vt 1.90752 -4.78832 
vt 1.90253 -4.79076 
vt 1.89592 -4.79183 
vt 1.8893 -4.79076 
vt 1.88431 -4.78832 
vt 1.88113 -4.78571 
vt 1.88113 -4.78571 
vt 1.87851 -4.78252 
vt 1.87607 -4.77753 
vt 1.875 -4.77092 
vt 1.87607 -4.7643 
vt 1.87851 -4.75931 
vt 1.88113 -4.75613 
vt 1.88113 -4.75613 
vt 1.88431 -4.75351 
vt 1.8893 -4.75107 
vt 1.89592 -4.75 
vt 1.90253 -4.75107 
vt 1.90752 -4.75351 
vt 1.91071 -4.75613 
vt 4.27609 -10.5 
vt 3.75 -10.5 
vt 4.27609 -10.507 
vt 3.75 -10.507 
vt 4.27609 -10.5139 
vt 3.75 -10.5139 
vt 4.27609 -10.5209 
vt 3.75 -10.5209 
vt 4.27609 -10.5279 
vt 3.75 -10.5279 
vt 4.27609 -10.5349 
vt 3.75 -10.5349 
vt 4.27609 -10.5418 
vt 3.75 -10.5418 
vt 4.27609 -10.5 
vt 3.75 -10.5 
vt 4.27609 -10.507 
vt 3.75 -10.507 
vt 4.27609 -10.5139 
vt 3.75 -10.5139 
vt 4.27609 -10.5209 
vt 3.75 -10.5209 
vt 4.27609 -10.5279 
vt 3.75 -10.5279 
vt 4.27609 -10.5349 
vt 3.75 -10.5349 
vt 4.27609 -10.5418 
vt 3.75 -10.5418 
vt 1.89592 -4.77092 
vt 1.91071 -4.75613 
vt 1.91332 -4.75931 
vt 1.91576 -4.7643 
vt 1.91683 -4.77092 
vt 1.91576 -4.77753 
vt 1.91332 -4.78252 
vt 1.91071 -4.78571 
vt 1.91071 -4.78571 
vt 1.90752 -4.78832 
vt 1.90253 -4.79076 
vt 1.89592 -4.79183 
vt 1.8893 -4.79076 
vt 1.88431 -4.78832 
vt 1.88113 -4.78571 
vt 1.88113 -4.78571 
vt 1.87851 -4.78252 
vt 1.87607 -4.77753 
vt 1.875 -4.77092 
vt 1.87607 -4.7643 
vt 1.87851 -4.75931 
vt 1.88113 -4.75613 
vt 1.88113 -4.75613 
vt 1.88431 -4.75351 
vt 1.8893 -4.75107 
vt 1.89592 -4.75 
vt 1.90253 -4.75107 
vt 1.90752 -4.75351 
vt 1.91071 -4.75613 
vt 4.27609 -10.5 
vt 3.75 -10.5 
vt 4.27609 -10.507 
vt 3.75 -10.507 
vt 4.27609 -10.5139 
vt 3.75 -10.5139 
vt 4.27609 -10.5209 
vt 3.75 -10.5209 
vt 4.27609 -10.5279 
vt 3.75 -10.5279 
vt 4.27609 -10.5349 
vt 3.75 -10.5349 
vt 4.27609 -10.5418 
vt 3.75 -10.5418 
vt 4.27609 -10.5 
vt 3.75 -10.5 
vt 4.27609 -10.507 
vt 3.75 -10.507 
vt 4.27609 -10.5139 
vt 3.75 -10.5139 
vt 4.27609 -10.5209 
vt 3.75 -10.5209 
vt 4.27609 -10.5279 
vt 3.75 -10.5279 
vt 4.27609 -10.5349 
vt 3.75 -10.5349 
vt 4.27609 -10.5418 
vt 3.75 -10.5418 

usemtl Part1Mtl

f 1/1/1 3/3/3 2/2/2 
f 1/1/1 4/4/4 3/3/3 
f 1/1/1 5/5/5 4/4/4 
f 1/1/1 6/6/6 5/5/5 
f 1/1/1 7/7/7 6/6/6 
f 1/1/1 8/8/8 7/7/7 
f 1/1/1 10/10/10 9/9/9 
f 1/1/1 11/11/11 10/10/10 
f 1/1/1 12/12/12 11/11/11 
f 1/1/1 13/13/13 12/12/12 
f 1/1/1 14/14/14 13/13/13 
f 1/1/1 15/15/15 14/14/14 
f 1/1/1 17/17/17 16/16/16 
f 1/1/1 18/18/18 17/17/17 
f 1/1/1 19/19/19 18/18/18 
f 1/1/1 20/20/20 19/19/19 
f 1/1/1 21/21/21 20/20/20 
f 1/1/1 22/22/22 21/21/21 
f 1/1/1 24/24/24 23/23/23 
f 1/1/1 25/25/25 24/24/24 
f 1/1/1 26/26/26 25/25/25 
f 1/1/1 27/27/27 26/26/26 
f 1/1/1 28/28/28 27/27/27 
f 1/1/1 29/29/29 28/28/28 
f 30/30/30 31/31/31 32/32/32 
f 32/32/32 31/31/31 33/33/33 
f 32/32/32 33/33/33 34/34/34 
f 34/34/34 33/33/33 35/35/35 
f 34/34/34 35/35/35 36/36/36 
f 36/36/36 35/35/35 37/37/37 
f 36/36/36 37/37/37 38/38/38 
f 38/38/38 37/37/37 39/39/39 
f 38/38/38 39/39/39 40/40/40 
f 40/40/40 39/39/39 41/41/41 
f 40/40/40 41/41/41 42/42/42 
f 42/42/42 41/41/41 43/43/43 
f 44/44/44 45/45/45 46/46/46 
f 46/46/46 45/45/45 47/47/47 
f 46/46/46 47/47/47 48/48/48 
f 48/48/48 47/47/47 49/49/49 
f 48/48/48 49/49/49 50/50/50 
f 50/50/50 49/49/49 51/51/51 
f 50/50/50 51/51/51 52/52/52 
f 52/52/52 51/51/51 53/53/53 
f 52/52/52 53/53/53 54/54/54 
f 54/54/54 53/53/53 55/55/55 
f 54/54/54 55/55/55 56/56/56 
f 56/56/56 55/55/55 57/57/57 
f 58/58/58 60/60/60 59/59/59 
f 58/58/58 61/61/61 60/60/60 
f 58/58/58 62/62/62 61/61/61 
f 58/58/58 63/63/63 62/62/62 
f 58/58/58 64/64/64 63/63/63 
f 58/58/58 65/65/65 64/64/64 
f 58/58/58 67/67/67 66/66/66 
f 58/58/58 68/68/68 67/67/67 
f 58/58/58 69/69/69 68/68/68 
f 58/58/58 70/70/70 69/69/69 
f 58/58/58 71/71/71 70/70/70 
f 58/58/58 72/72/72 71/71/71 
f 58/58/58 74/74/74 73/73/73 
f 58/58/58 75/75/75 74/74/74 
f 58/58/58 76/76/76 75/75/75 
f 58/58/58 77/77/77 76/76/76 
f 58/58/58 78/78/78 77/77/77 
f 58/58/58 79/79/79 78/78/78 
f 58/58/58 81/81/81 80/80/80 
f 58/58/58 82/82/82 81/81/81 
f 58/58/58 83/83/83 82/82/82 
f 58/58/58 84/84/84 83/83/83 
f 58/58/58 85/85/85 84/84/84 
f 58/58/58 86/86/86 85/85/85 
f 87/87/87 88/88/88 89/89/89 
f 89/89/89 88/88/88 90/90/90 
f 89/89/89 90/90/90 91/91/91 
f 91/91/91 90/90/90 92/92/92 
f 91/91/91 92/92/92 93/93/93 
f 93/93/93 92/92/92 94/94/94 
f 93/93/93 94/94/94 95/95/95 
f 95/95/95 94/94/94 96/96/96 
f 95/95/95 96/96/96 97/97/97 
f 97/97/97 96/96/96 98/98/98 
f 97/97/97 98/98/98 99/99/99 
f 99/99/99 98/98/98 100/100/100 
f 101/101/101 102/102/102 103/103/103 
f 103/103/103 102/102/102 104/104/104 
f 103/103/103 104/104/104 105/105/105 
f 105/105/105 104/104/104 106/106/106 
f 105/105/105 106/106/106 107/107/107 
f 107/107/107 106/106/106 108/108/108 
f 107/107/107 108/108/108 109/109/109 
f 109/109/109 108/108/108 110/110/110 
f 109/109/109 110/110/110 111/111/111 
f 111/111/111 110/110/110 112/112/112 
f 111/111/111 112/112/112 113/113/113 
f 113/113/113 112/112/112 114/114/114 

g Part2

v -40.6 2.86444 3.86186 
v -40.7184 2.98277 3.86186 
v -40.7393 2.95726 3.86186 
v -40.7588 2.91736 3.86186 
v -40.7674 2.86444 3.86186 
v -40.7588 2.81153 3.86186 
v -40.7393 2.77162 3.86186 
v -40.7184 2.74612 3.86186 
v -40.7184 2.74612 3.86186 
v -40.6929 2.72521 3.86186 
v -40.653 2.70569 3.86186 
v -40.6 2.69711 3.86186 
v -40.5471 2.70569 3.86186 
v -40.5072 2.72521 3.86186 
v -40.4817 2.74612 3.86186 
v -40.4817 2.74612 3.86186 
v -40.4608 2.77162 3.86186 
v -40.4413 2.81153 3.86186 
v -40.4327 2.86444 3.86186 
v -40.4413 2.91736 3.86186 
v -40.4608 2.95726 3.86186 
v -40.4817 2.98277 3.86186 
v -40.4817 2.98277 3.86186 
v -40.5072 3.00367 3.86186 
v -40.5471 3.02319 3.86186 
v -40.6 3.03178 3.86186 
v -40.653 3.02319 3.86186 
v -40.6929 3.00367 3.86186 
v -40.7184 2.98277 3.86186 
v -40.4817 2.98277 8.07058 
v -40.4817 2.98277 3.86186 
v -40.5072 3.00367 8.07058 
v -40.5072 3.00367 3.86186 
v -40.5471 3.02319 8.07058 
v -40.5471 3.02319 3.86186 
v -40.6 3.03178 8.07058 
v -40.6 3.03178 3.86186 
v -40.653 3.02319 8.07058 
v -40.653 3.02319 3.86186 
v -40.6929 3.00367 8.07058 
v -40.6929 3.00367 3.86186 
v -40.7184 2.98277 8.07058 
v -40.7184 2.98277 3.86186 
v -40.4817 2.98277 3.86186 
v -40.4817 2.98277 8.07058 
v -40.4608 2.95726 3.86186 
v -40.4608 2.95726 8.07058 
v -40.4413 2.91736 3.86186 
v -40.4413 2.91736 8.07058 
v -40.4327 2.86444 3.86186 
v -40.4327 2.86444 8.07058 
v -40.4413 2.81153 3.86186 
v -40.4413 2.81153 8.07058 
v -40.4608 2.77162 3.86186 
v -40.4608 2.77162 8.07058 
v -40.4817 2.74612 3.86186 
v -40.4817 2.74612 8.07058 
v -40.6 2.86444 8.07058 
v -40.4817 2.98277 8.07058 
v -40.4608 2.95726 8.07058 
v -40.4413 2.91736 8.07058 
v -40.4327 2.86444 8.07058 
v -40.4413 2.81153 8.07058 
v -40.4608 2.77162 8.07058 
v -40.4817 2.74612 8.07058 
v -40.4817 2.74612 8.07058 
v -40.5072 2.72521 8.07058 
v -40.5471 2.70569 8.07058 
v -40.6 2.69711 8.07058 
v -40.653 2.70569 8.07058 
v -40.6929 2.72521 8.07058 
v -40.7184 2.74612 8.07058 
v -40.7184 2.74612 8.07058 
v -40.7393 2.77162 8.07058 
v -40.7588 2.81153 8.07058 
v -40.7674 2.86444 8.07058 
v -40.7588 2.91736 8.07058 
v -40.7393 2.95726 8.07058 
v -40.7184 2.98277 8.07058 
v -40.7184 2.98277 8.07058 
v -40.6929 3.00367 8.07058 
v -40.653 3.02319 8.07058 
v -40.6 3.03178 8.07058 
v -40.5471 3.02319 8.07058 
v -40.5072 3.00367 8.07058 
v -40.4817 2.98277 8.07058 
v -40.7184 2.74612 8.07058 
v -40.7184 2.74612 3.86186 
v -40.6929 2.72521 8.07058 
v -40.6929 2.72521 3.86186 
v -40.653 2.70569 8.07058 
v -40.653 2.70569 3.86186 
v -40.6 2.69711 8.07058 
v -40.6 2.69711 3.86186 
v -40.5471 2.70569 8.07058 
v -40.5471 2.70569 3.86186 
v -40.5072 2.72521 8.07058 
v -40.5072 2.72521 3.86186 
v -40.4817 2.74612 8.07058 
v -40.4817 2.74612 3.86186 
v -40.7184 2.98277 8.07058 
v -40.7184 2.98277 3.86186 
v -40.7393 2.95726 8.07058 
v -40.7393 2.95726 3.86186 
v -40.7588 2.91736 8.07058 
v -40.7588 2.91736 3.86186 
v -40.7674 2.86444 8.07058 
v -40.7674 2.86444 3.86186 
v -40.7588 2.81153 8.07058 
v -40.7588 2.81153 3.86186 
v -40.7393 2.77162 8.07058 
v -40.7393 2.77162 3.86186 
v -40.7184 2.74612 8.07058 
v -40.7184 2.74612 3.86186 

vn 0 0 -1 
vn 0 0 -1 
vn 0 0 -1 
vn 0 0 -1 
vn 0 0 -1 
vn 0 0 -1 
vn 0 0 -1 
vn 0 0 -1 
vn 0 0 -1 
vn 0 0 -1 
vn 0 0 -1 
vn 0 0 -1 
vn 0 0 -1 
vn 0 0 -1 
vn 0 0 -1 
vn 0 0 -1 
vn 0 0 -1 
vn 0 0 -1 
vn 0 0 -1 
vn 0 0 -1 
vn 0 0 -1 
vn 0 0 -1 
vn 0 0 -1 
vn 0 0 -1 
vn 0 0 -1 
vn 0 0 -1 
vn 0 0 -1 
vn 0 0 -1 
vn 0 0 -1 
vn 0.708661 0.708661 0 
vn 0.708661 0.708661 0 
vn 0.551181 0.834646 0 
vn 0.551181 0.834646 0 
vn 0.314961 0.944882 0 
vn 0.314961 0.944882 0 
vn 0 1 0 
vn 0 1 0 
vn -0.314961 0.944882 0 
vn -0.314961 0.944882 0 
vn -0.551181 0.834646 0 
vn -0.551181 0.834646 0 
vn -0.708661 0.708661 0 
vn -0.708661 0.708661 0 
vn 0.708661 0.708661 0 
vn 0.708661 0.708661 0 
vn 0.834646 0.551181 0 
vn 0.834646 0.551181 0 
vn 0.944882 0.314961 0 
vn 0.944882 0.314961 0 
vn 1 0 0 
vn 1 0 0 
vn 0.944882 -0.314961 0 
vn 0.944882 -0.314961 0 
vn 0.834646 -0.551181 0 
vn 0.834646 -0.551181 0 
vn 0.708661 -0.708661 0 
vn 0.708661 -0.708661 0 
vn 0 0 1 
vn 0 0 1 
vn 0 0 1 
vn 0 0 1 
vn 0 0 1 
vn 0 0 1 
vn 0 0 1 
vn 0 0 1 
vn 0 0 1 
vn 0 0 1 
vn 0 0 1 
vn 0 0 1 
vn 0 0 1 
vn 0 0 1 
vn 0 0 1 
vn 0 0 1 
vn 0 0 1 
vn 0 0 1 
vn 0 0 1 
vn 0 0 1 
vn 0 0 1 
vn 0 0 1 
vn 0 0 1 
vn 0 0 1 
vn 0 0 1 
vn 0 0 1 
vn 0 0 1 
vn 0 0 1 
vn 0 0 1 
vn -0.708661 -0.708661 0 
vn -0.708661 -0.708661 0 
vn -0.551181 -0.834646 0 
vn -0.551181 -0.834646 0 
vn -0.314961 -0.944882 0 
vn -0.314961 -0.944882 0 
vn 0 -1 0 
vn 0 -1 0 
vn 0.314961 -0.944882 0 
vn 0.314961 -0.944882 0 
vn 0.551181 -0.834646 0 
vn 0.551181 -0.834646 0 
vn 0.708661 -0.708661 0 
vn 0.708661 -0.708661 0 
vn -0.708661 0.708661 0 
vn -0.708661 0.708661 0 
vn -0.834646 0.551181 0 
vn -0.834646 0.551181 0 
vn -0.944882 0.314961 0 
vn -0.944882 0.314961 0 
vn -1 0 0 
vn -1 0 0 
vn -0.944882 -0.314961 0 
vn -0.944882 -0.314961 0 
vn -0.834646 -0.551181 0 
vn -0.834646 -0.551181 0 
vn -0.708661 -0.708661 0 
vn -0.708661 -0.708661 0 

vt 7.14592 -6.14592 
vt 7.16071 -6.13113 
vt 7.16332 -6.13431 
vt 7.16576 -6.1393 
vt 7.16683 -6.14592 
vt 7.16576 -6.15253 
vt 7.16332 -6.15752 
vt 7.16071 -6.16071 
vt 7.16071 -6.16071 
vt 7.15752 -6.16332 
vt 7.15253 -6.16576 
vt 7.14592 -6.16683 
vt 7.1393 -6.16576 
vt 7.13431 -6.16332 
vt 7.13113 -6.16071 
vt 7.13113 -6.16071 
vt 7.12851 -6.15752 
vt 7.12607 -6.15253 
vt 7.125 -6.14592 
vt 7.12607 -6.1393 
vt 7.12851 -6.13431 
vt 7.13113 -6.13113 
vt 7.13113 -6.13113 
vt 7.13431 -6.12851 
vt 7.1393 -6.12607 
vt 7.14592 -6.125 
vt 7.15253 -6.12607 
vt 7.15752 -6.12851 
vt 7.16071 -6.13113 
vt 14.7761 -13.25 
vt 14.25 -13.25 
vt 14.7761 -13.257 
vt 14.25 -13.257 
vt 14.7761 -13.2639 
vt 14.25 -13.2639 
vt 14.7761 -13.2709 
vt 14.25 -13.2709 
vt 14.7761 -13.2779 
vt 14.25 -13.2779 
vt 14.7761 -13.2849 
vt 14.25 -13.2849 
vt 14.7761 -13.2918 
vt 14.25 -13.2918 
vt 14.7761 -13.25 
vt 14.25 -13.25 
vt 14.7761 -13.257 
vt 14.25 -13.257 
vt 14.7761 -13.2639 
vt 14.25 -13.2639 
vt 14.7761 -13.2709 
vt 14.25 -13.2709 
vt 14.7761 -13.2779 
vt 14.25 -13.2779 
vt 14.7761 -13.2849 
vt 14.25 -13.2849 
vt 14.7761 -13.2918 
vt 14.25 -13.2918 
vt 7.14592 -6.14592 
vt 7.16071 -6.13113 
vt 7.16332 -6.13431 
vt 7.16576 -6.1393 
vt 7.16683 -6.14592 
vt 7.16576 -6.15253 
vt 7.16332 -6.15752 
vt 7.16071 -6.16071 
vt 7.16071 -6.16071 
vt 7.15752 -6.16332 
vt 7.15253 -6.16576 
vt 7.14592 -6.16683 
vt 7.1393 -6.16576 
vt 7.13431 -6.16332 
vt 7.13113 -6.16071 
vt 7.13113 -6.16071 
vt 7.12851 -6.15752 
vt 7.12607 -6.15253 
vt 7.125 -6.14592 
vt 7.12607 -6.1393 
vt 7.12851 -6.13431 
vt 7.13113 -6.13113 
vt 7.13113 -6.13113 
vt 7.13431 -6.12851 
vt 7.1393 -6.12607 
vt 7.14592 -6.125 
vt 7.15253 -6.12607 
vt 7.15752 -6.12851 
vt 7.16071 -6.13113 
vt 14.7761 -13.25 
vt 14.25 -13.25 
vt 14.7761 -13.257 
vt 14.25 -13.257 
vt 14.7761 -13.2639 
vt 14.25 -13.2639 
vt 14.7761 -13.2709 
vt 14.25 -13.2709 
vt 14.7761 -13.2779 
vt 14.25 -13.2779 
vt 14.7761 -13.2849 
vt 14.25 -13.2849 
vt 14.7761 -13.2918 
vt 14.25 -13.2918 
vt 14.7761 -13.25 
vt 14.25 -13.25 
vt 14.7761 -13.257 
vt 14.25 -13.257 
vt 14.7761 -13.2639 
vt 14.25 -13.2639 
vt 14.7761 -13.2709 
vt 14.25 -13.2709 
vt 14.7761 -13.2779 
vt 14.25 -13.2779 
vt 14.7761 -13.2849 
vt 14.25 -13.2849 
vt 14.7761 -13.2918 
vt 14.25 -13.2918 

usemtl Part1Mtl

f 115/115/115 117/117/117 116/116/116 
f 115/115/115 118/118/118 117/117/117 
f 115/115/115 119/119/119 118/118/118 
f 115/115/115 120/120/120 119/119/119 
f 115/115/115 121/121/121 120/120/120 
f 115/115/115 122/122/122 121/121/121 
f 115/115/115 124/124/124 123/123/123 
f 115/115/115 125/125/125 124/124/124 
f 115/115/115 126/126/126 125/125/125 
f 115/115/115 127/127/127 126/126/126 
f 115/115/115 128/128/128 127/127/127 
f 115/115/115 129/129/129 128/128/128 
f 115/115/115 131/131/131 130/130/130 
f 115/115/115 132/132/132 131/131/131 
f 115/115/115 133/133/133 132/132/132 
f 115/115/115 134/134/134 133/133/133 
f 115/115/115 135/135/135 134/134/134 
f 115/115/115 136/136/136 135/135/135 
f 115/115/115 138/138/138 137/137/137 
f 115/115/115 139/139/139 138/138/138 
f 115/115/115 140/140/140 139/139/139 
f 115/115/115 141/141/141 140/140/140 
f 115/115/115 142/142/142 141/141/141 
f 115/115/115 143/143/143 142/142/142 
f 144/144/144 145/145/145 146/146/146 
f 146/146/146 145/145/145 147/147/147 
f 146/146/146 147/147/147 148/148/148 
f 148/148/148 147/147/147 149/149/149 
f 148/148/148 149/149/149 150/150/150 
f 150/150/150 149/149/149 151/151/151 
f 150/150/150 151/151/151 152/152/152 
f 152/152/152 151/151/151 153/153/153 
f 152/152/152 153/153/153 154/154/154 
f 154/154/154 153/153/153 155/155/155 
f 154/154/154 155/155/155 156/156/156 
f 156/156/156 155/155/155 157/157/157 
f 158/158/158 159/159/159 160/160/160 
f 160/160/160 159/159/159 161/161/161 
f 160/160/160 161/161/161 162/162/162 
f 162/162/162 161/161/161 163/163/163 
f 162/162/162 163/163/163 164/164/164 
f 164/164/164 163/163/163 165/165/165 
f 164/164/164 165/165/165 166/166/166 
f 166/166/166 165/165/165 167/167/167 
f 166/166/166 167/167/167 168/168/168 
f 168/168/168 167/167/167 169/169/169 
f 168/168/168 169/169/169 170/170/170 
f 170/170/170 169/169/169 171/171/171 
f 172/172/172 174/174/174 173/173/173 
f 172/172/172 175/175/175 174/174/174 
f 172/172/172 176/176/176 175/175/175 
f 172/172/172 177/177/177 176/176/176 
f 172/172/172 178/178/178 177/177/177 
f 172/172/172 179/179/179 178/178/178 
f 172/172/172 181/181/181 180/180/180 
f 172/172/172 182/182/182 181/181/181 
f 172/172/172 183/183/183 182/182/182 
f 172/172/172 184/184/184 183/183/183 
f 172/172/172 185/185/185 184/184/184 
f 172/172/172 186/186/186 185/185/185 
f 172/172/172 188/188/188 187/187/187 
f 172/172/172 189/189/189 188/188/188 
f 172/172/172 190/190/190 189/189/189 
f 172/172/172 191/191/191 190/190/190 
f 172/172/172 192/192/192 191/191/191 
f 172/172/172 193/193/193 192/192/192 
f 172/172/172 195/195/195 194/194/194 
f 172/172/172 196/196/196 195/195/195 
f 172/172/172 197/197/197 196/196/196 
f 172/172/172 198/198/198 197/197/197 
f 172/172/172 199/199/199 198/198/198 
f 172/172/172 200/200/200 199/199/199 
f 201/201/201 202/202/202 203/203/203 
f 203/203/203 202/202/202 204/204/204 
f 203/203/203 204/204/204 205/205/205 
f 205/205/205 204/204/204 206/206/206 
f 205/205/205 206/206/206 207/207/207 
f 207/207/207 206/206/206 208/208/208 
f 207/207/207 208/208/208 209/209/209 
f 209/209/209 208/208/208 210/210/210 
f 209/209/209 210/210/210 211/211/211 
f 211/211/211 210/210/210 212/212/212 
f 211/211/211 212/212/212 213/213/213 
f 213/213/213 212/212/212 214/214/214 
f 215/215/215 216/216/216 217/217/217 
f 217/217/217 216/216/216 218/218/218 
f 217/217/217 218/218/218 219/219/219 
f 219/219/219 218/218/218 220/220/220 
f 219/219/219 220/220/220 221/221/221 
f 221/221/221 220/220/220 222/222/222 
f 221/221/221 222/222/222 223/223/223 
f 223/223/223 222/222/222 224/224/224 
f 223/223/223 224/224/224 225/225/225 
f 225/225/225 224/224/224 226/226/226 
f 225/225/225 226/226/226 227/227/227 
f 227/227/227 226/226/226 228/228/228 

g Part3

v -40.6 0.76008 4.20854 
v -40.7184 0.76008 4.09022 
v -40.7393 0.76008 4.11572 
v -40.7588 0.76008 4.15562 
v -40.7674 0.76008 4.20854 
v -40.7588 0.76008 4.26146 
v -40.7393 0.76008 4.30136 
v -40.7184 0.76008 4.32686 
v -40.7184 0.76008 4.32686 
v -40.6929 0.76008 4.34777 
v -40.653 0.76008 4.36729 
v -40.6 0.76008 4.37587 
v -40.5471 0.76008 4.36729 
v -40.5072 0.76008 4.34777 
v -40.4817 0.76008 4.32686 
v -40.4817 0.76008 4.32686 
v -40.4608 0.76008 4.30136 
v -40.4413 0.76008 4.26146 
v -40.4327 0.76008 4.20854 
v -40.4413 0.76008 4.15562 
v -40.4608 0.76008 4.11572 
v -40.4817 0.76008 4.09022 
v -40.4817 0.76008 4.09022 
v -40.5072 0.76008 4.06931 
v -40.5471 0.76008 4.04979 
v -40.6 0.76008 4.0412 
v -40.653 0.76008 4.04979 
v -40.6929 0.76008 4.06931 
v -40.7184 0.76008 4.09022 
v -40.4817 6.9688 4.09022 
v -40.4817 0.76008 4.09022 
v -40.5072 6.9688 4.06931 
v -40.5072 0.76008 4.06931 
v -40.5471 6.9688 4.04979 
v -40.5471 0.76008 4.04979 
v -40.6 6.9688 4.0412 
v -40.6 0.76008 4.0412 
v -40.653 6.9688 4.04979 
v -40.653 0.76008 4.04979 
v -40.6929 6.9688 4.06931 
v -40.6929 0.76008 4.06931 
v -40.7184 6.9688 4.09022 
v -40.7184 0.76008 4.09022 
v -40.4817 0.76008 4.09022 
v -40.4817 6.9688 4.09022 
v -40.4608 0.76008 4.11572 
v -40.4608 6.9688 4.11572 
v -40.4413 0.76008 4.15562 
v -40.4413 6.9688 4.15562 
v -40.4327 0.76008 4.20854 
v -40.4327 6.9688 4.20854 
v -40.4413 0.76008 4.26146 
v -40.4413 6.9688 4.26146 
v -40.4608 0.76008 4.30136 
v -40.4608 6.9688 4.30136 
v -40.4817 0.76008 4.32686 
v -40.4817 6.9688 4.32686 
v -40.6 6.9688 4.20854 
v -40.4817 6.9688 4.09022 
v -40.4608 6.9688 4.11572 
v -40.4413 6.9688 4.15562 
v -40.4327 6.9688 4.20854 
v -40.4413 6.9688 4.26146 
v -40.4608 6.9688 4.30136 
v -40.4817 6.9688 4.32686 
v -40.4817 6.9688 4.32686 
v -40.5072 6.9688 4.34777 
v -40.5471 6.9688 4.36729 
v -40.6 6.9688 4.37587 
v -40.653 6.9688 4.36729 
v -40.6929 6.9688 4.34777 
v -40.7184 6.9688 4.32686 
v -40.7184 6.9688 4.32686 
v -40.7393 6.9688 4.30136 
v -40.7588 6.9688 4.26146 
v -40.7674 6.9688 4.20854 
v -40.7588 6.9688 4.15562 
v -40.7393 6.9688 4.11572 
v -40.7184 6.9688 4.09022 
v -40.7184 6.9688 4.09022 
v -40.6929 6.9688 4.06931 
v -40.653 6.9688 4.04979 
v -40.6 6.9688 4.0412 
v -40.5471 6.9688 4.04979 
v -40.5072 6.9688 4.06931 
v -40.4817 6.9688 4.09022 
v -40.7184 6.9688 4.32686 
v -40.7184 0.76008 4.32686 
v -40.6929 6.9688 4.34777 
v -40.6929 0.76008 4.34777 
v -40.653 6.9688 4.36729 
v -40.653 0.76008 4.36729 
v -40.6 6.9688 4.37587 
v -40.6 0.76008 4.37587 
v -40.5471 6.9688 4.36729 
v -40.5471 0.76008 4.36729 
v -40.5072 6.9688 4.34777 
v -40.5072 0.76008 4.34777 
v -40.4817 6.9688 4.32686 
v -40.4817 0.76008 4.32686 
v -40.7184 6.9688 4.09022 
v -40.7184 0.76008 4.09022 
v -40.7393 6.9688 4.11572 
v -40.7393 0.76008 4.11572 
v -40.7588 6.9688 4.15562 
v -40.7588 0.76008 4.15562 
v -40.7674 6.9688 4.20854 
v -40.7674 0.76008 4.20854 
v -40.7588 6.9688 4.26146 
v -40.7588 0.76008 4.26146 
v -40.7393 6.9688 4.30136 
v -40.7393 0.76008 4.30136 
v -40.7184 6.9688 4.32686 
v -40.7184 0.76008 4.32686 

vn 0 -1 0 
vn 0 -1 0 
vn 0 -1 0 
vn 0 -1 0 
vn 0 -1 0 
vn 0 -1 0 
vn 0 -1 0 
vn 0 -1 0 
vn 0 -1 0 
vn 0 -1 0 
vn 0 -1 0 
vn 0 -1 0 
vn 0 -1 0 
vn 0 -1 0 
vn 0 -1 0 
vn 0 -1 0 
vn 0 -1 0 
vn 0 -1 0 
vn 0 -1 0 
vn 0 -1 0 
vn 0 -1 0 
vn 0 -1 0 
vn 0 -1 0 
vn 0 -1 0 
vn 0 -1 0 
vn 0 -1 0 
vn 0 -1 0 
vn 0 -1 0 
vn 0 -1 0 
vn 0.708661 0 -0.708661 
vn 0.708661 0 -0.708661 
vn 0.551181 0 -0.834646 
vn 0.551181 0 -0.834646 
vn 0.314961 0 -0.944882 
vn 0.314961 0 -0.944882 
vn 0 0 -1 
vn 0 0 -1 
vn -0.314961 0 -0.944882 
vn -0.314961 0 -0.944882 
vn -0.551181 0 -0.834646 
vn -0.551181 0 -0.834646 
vn -0.708661 0 -0.708661 
vn -0.708661 0 -0.708661 
vn 0.708661 0 -0.708661 
vn 0.708661 0 -0.708661 
vn 0.834646 0 -0.551181 
vn 0.834646 0 -0.551181 
vn 0.944882 0 -0.314961 
vn 0.944882 0 -0.314961 
vn 1 0 0 
vn 1 0 0 
vn 0.944882 0 0.314961 
vn 0.944882 0 0.314961 
vn 0.834646 0 0.551181 
vn 0.834646 0 0.551181 
vn 0.708661 0 0.708661 
vn 0.708661 0 0.708661 
vn 0 1 0 
vn 0 1 0 
vn 0 1 0 
vn 0 1 0 
vn 0 1 0 
vn 0 1 0 
vn 0 1 0 
vn 0 1 0 
vn 0 1 0 
vn 0 1 0 
vn 0 1 0 
vn 0 1 0 
vn 0 1 0 
vn 0 1 0 
vn 0 1 0 
vn 0 1 0 
vn 0 1 0 
vn 0 1 0 
vn 0 1 0 
vn 0 1 0 
vn 0 1 0 
vn 0 1 0 
vn 0 1 0 
vn 0 1 0 
vn 0 1 0 
vn 0 1 0 
vn 0 1 0 
vn 0 1 0 
vn 0 1 0 
vn -0.708661 0 0.708661 
vn -0.708661 0 0.708661 
vn -0.551181 0 0.834646 
vn -0.551181 0 0.834646 
vn -0.314961 0 0.944882 
vn -0.314961 0 0.944882 
vn 0 0 1 
vn 0 0 1 
vn 0.314961 0 0.944882 
vn 0.314961 0 0.944882 
vn 0.551181 0 0.834646 
vn 0.551181 0 0.834646 
vn 0.708661 0 0.708661 
vn 0.708661 0 0.708661 
vn -0.708661 0 -0.708661 
vn -0.708661 0 -0.708661 
vn -0.834646 0 -0.551181 
vn -0.834646 0 -0.551181 
vn -0.944882 0 -0.314961 
vn -0.944882 0 -0.314961 
vn -1 0 0 
vn -1 0 0 
vn -0.944882 0 0.314961 
vn -0.944882 0 0.314961 
vn -0.834646 0 0.551181 
vn -0.834646 0 0.551181 
vn -0.708661 0 0.708661 
vn -0.708661 0 0.708661 

vt 6.27092 -3.77092 
vt 6.28571 -3.75613 
vt 6.28832 -3.75931 
vt 6.29076 -3.7643 
vt 6.29183 -3.77092 
vt 6.29076 -3.77753 
vt 6.28832 -3.78252 
vt 6.28571 -3.78571 
vt 6.28571 -3.78571 
vt 6.28252 -3.78832 
vt 6.27753 -3.79076 
vt 6.27092 -3.79183 
vt 6.2643 -3.79076 
vt 6.25931 -3.78832 
vt 6.25613 -3.78571 
vt 6.25613 -3.78571 
vt 6.25351 -3.78252 
vt 6.25107 -3.77753 
vt 6.25 -3.77092 
vt 6.25107 -3.7643 
vt 6.25351 -3.75931 
vt 6.25613 -3.75613 
vt 6.25613 -3.75613 
vt 6.25931 -3.75351 
vt 6.2643 -3.75107 
vt 6.27092 -3.75 
vt 6.27753 -3.75107 
vt 6.28252 -3.75351 
vt 6.28571 -3.75613 
vt 13.2761 -8.5 
vt 12.5 -8.5 
vt 13.2761 -8.50697 
vt 12.5 -8.50697 
vt 13.2761 -8.51394 
vt 12.5 -8.51394 
vt 13.2761 -8.52092 
vt 12.5 -8.52092 
vt 13.2761 -8.52789 
vt 12.5 -8.52789 
vt 13.2761 -8.53486 
vt 12.5 -8.53486 
vt 13.2761 -8.54183 
vt 12.5 -8.54183 
vt 13.2761 -8.5 
vt 12.5 -8.5 
vt 13.2761 -8.50697 
vt 12.5 -8.50697 
vt 13.2761 -8.51394 
vt 12.5 -8.51394 
vt 13.2761 -8.52092 
vt 12.5 -8.52092 
vt 13.2761 -8.52789 
vt 12.5 -8.52789 
vt 13.2761 -8.53486 
vt 12.5 -8.53486 
vt 13.2761 -8.54183 
vt 12.5 -8.54183 
vt 6.27092 -3.77092 
vt 6.28571 -3.75613 
vt 6.28832 -3.75931 
vt 6.29076 -3.7643 
vt 6.29183 -3.77092 
vt 6.29076 -3.77753 
vt 6.28832 -3.78252 
vt 6.28571 -3.78571 
vt 6.28571 -3.78571 
vt 6.28252 -3.78832 
vt 6.27753 -3.79076 
vt 6.27092 -3.79183 
vt 6.2643 -3.79076 
vt 6.25931 -3.78832 
vt 6.25613 -3.78571 
vt 6.25613 -3.78571 
vt 6.25351 -3.78252 
vt 6.25107 -3.77753 
vt 6.25 -3.77092 
vt 6.25107 -3.7643 
vt 6.25351 -3.75931 
vt 6.25613 -3.75613 
vt 6.25613 -3.75613 
vt 6.25931 -3.75351 
vt 6.2643 -3.75107 
vt 6.27092 -3.75 
vt 6.27753 -3.75107 
vt 6.28252 -3.75351 
vt 6.28571 -3.75613 
vt 13.2761 -8.5 
vt 12.5 -8.5 
vt 13.2761 -8.50697 
vt 12.5 -8.50697 
vt 13.2761 -8.51394 
vt 12.5 -8.51394 
vt 13.2761 -8.52092 
vt 12.5 -8.52092 
vt 13.2761 -8.52789 
vt 12.5 -8.52789 
vt 13.2761 -8.53486 
vt 12.5 -8.53486 
vt 13.2761 -8.54183 
vt 12.5 -8.54183 
vt 13.2761 -8.5 
vt 12.5 -8.5 
vt 13.2761 -8.50697 
vt 12.5 -8.50697 
vt 13.2761 -8.51394 
vt 12.5 -8.51394 
vt 13.2761 -8.52092 
vt 12.5 -8.52092 
vt 13.2761 -8.52789 
vt 12.5 -8.52789 
vt 13.2761 -8.53486 
vt 12.5 -8.53486 
vt 13.2761 -8.54183 
vt 12.5 -8.54183 

usemtl Part1Mtl

f 229/229/229 231/231/231 230/230/230 
f 229/229/229 232/232/232 231/231/231 
f 229/229/229 233/233/233 232/232/232 
f 229/229/229 234/234/234 233/233/233 
f 229/229/229 235/235/235 234/234/234 
f 229/229/229 236/236/236 235/235/235 
f 229/229/229 238/238/238 237/237/237 
f 229/229/229 239/239/239 238/238/238 
f 229/229/229 240/240/240 239/239/239 
f 229/229/229 241/241/241 240/240/240 
f 229/229/229 242/242/242 241/241/241 
f 229/229/229 243/243/243 242/242/242 
f 229/229/229 245/245/245 244/244/244 
f 229/229/229 246/246/246 245/245/245 
f 229/229/229 247/247/247 246/246/246 
f 229/229/229 248/248/248 247/247/247 
f 229/229/229 249/249/249 248/248/248 
f 229/229/229 250/250/250 249/249/249 
f 229/229/229 252/252/252 251/251/251 
f 229/229/229 253/253/253 252/252/252 
f 229/229/229 254/254/254 253/253/253 
f 229/229/229 255/255/255 254/254/254 
f 229/229/229 256/256/256 255/255/255 
f 229/229/229 257/257/257 256/256/256 
f 258/258/258 259/259/259 260/260/260 
f 260/260/260 259/259/259 261/261/261 
f 260/260/260 261/261/261 262/262/262 
f 262/262/262 261/261/261 263/263/263 
f 262/262/262 263/263/263 264/264/264 
f 264/264/264 263/263/263 265/265/265 
f 264/264/264 265/265/265 266/266/266 
f 266/266/266 265/265/265 267/267/267 
f 266/266/266 267/267/267 268/268/268 
f 268/268/268 267/267/267 269/269/269 
f 268/268/268 269/269/269 270/270/270 
f 270/270/270 269/269/269 271/271/271 
f 272/272/272 273/273/273 274/274/274 
f 274/274/274 273/273/273 275/275/275 
f 274/274/274 275/275/275 276/276/276 
f 276/276/276 275/275/275 277/277/277 
f 276/276/276 277/277/277 278/278/278 
f 278/278/278 277/277/277 279/279/279 
f 278/278/278 279/279/279 280/280/280 
f 280/280/280 279/279/279 281/281/281 
f 280/280/280 281/281/281 282/282/282 
f 282/282/282 281/281/281 283/283/283 
f 282/282/282 283/283/283 284/284/284 
f 284/284/284 283/283/283 285/285/285 
f 286/286/286 288/288/288 287/287/287 
f 286/286/286 289/289/289 288/288/288 
f 286/286/286 290/290/290 289/289/289 
f 286/286/286 291/291/291 290/290/290 
f 286/286/286 292/292/292 291/291/291 
f 286/286/286 293/293/293 292/292/292 
f 286/286/286 295/295/295 294/294/294 
f 286/286/286 296/296/296 295/295/295 
f 286/286/286 297/297/297 296/296/296 
f 286/286/286 298/298/298 297/297/297 
f 286/286/286 299/299/299 298/298/298 
f 286/286/286 300/300/300 299/299/299 
f 286/286/286 302/302/302 301/301/301 
f 286/286/286 303/303/303 302/302/302 
f 286/286/286 304/304/304 303/303/303 
f 286/286/286 305/305/305 304/304/304 
f 286/286/286 306/306/306 305/305/305 
f 286/286/286 307/307/307 306/306/306 
f 286/286/286 309/309/309 308/308/308 
f 286/286/286 310/310/310 309/309/309 
f 286/286/286 311/311/311 310/310/310 
f 286/286/286 312/312/312 311/311/311 
f 286/286/286 313/313/313 312/312/312 
f 286/286/286 314/314/314 313/313/313 
f 315/315/315 316/316/316 317/317/317 
f 317/317/317 316/316/316 318/318/318 
f 317/317/317 318/318/318 319/319/319 
f 319/319/319 318/318/318 320/320/320 
f 319/319/319 320/320/320 321/321/321 
f 321/321/321 320/320/320 322/322/322 
f 321/321/321 322/322/322 323/323/323 
f 323/323/323 322/322/322 324/324/324 
f 323/323/323 324/324/324 325/325/325 
f 325/325/325 324/324/324 326/326/326 
f 325/325/325 326/326/326 327/327/327 
f 327/327/327 326/326/326 328/328/328 
f 329/329/329 330/330/330 331/331/331 
f 331/331/331 330/330/330 332/332/332 
f 331/331/331 332/332/332 333/333/333 
f 333/333/333 332/332/332 334/334/334 
f 333/333/333 334/334/334 335/335/335 
f 335/335/335 334/334/334 336/336/336 
f 335/335/335 336/336/336 337/337/337 
f 337/337/337 336/336/336 338/338/338 
f 337/337/337 338/338/338 339/339/339 
f 339/339/339 338/338/338 340/340/340 
f 339/339/339 340/340/340 341/341/341 
f 341/341/341 340/340/340 342/342/342 

g Part4

v -40.6 0.76008 7.88365 
v -40.7184 0.76008 7.76533 
v -40.7393 0.76008 7.79083 
v -40.7588 0.76008 7.83074 
v -40.7674 0.76008 7.88365 
v -40.7588 0.76008 7.93657 
v -40.7393 0.76008 7.97648 
v -40.7184 0.76008 8.00198 
v -40.7184 0.76008 8.00198 
v -40.6929 0.76008 8.02289 
v -40.653 0.76008 8.0424 
v -40.6 0.76008 8.05099 
v -40.5471 0.76008 8.0424 
v -40.5072 0.76008 8.02289 
v -40.4817 0.76008 8.00198 
v -40.4817 0.76008 8.00198 
v -40.4608 0.76008 7.97648 
v -40.4413 0.76008 7.93657 
v -40.4327 0.76008 7.88365 
v -40.4413 0.76008 7.83074 
v -40.4608 0.76008 7.79083 
v -40.4817 0.76008 7.76533 
v -40.4817 0.76008 7.76533 
v -40.5072 0.76008 7.74442 
v -40.5471 0.76008 7.72491 
v -40.6 0.76008 7.71632 
v -40.653 0.76008 7.72491 
v -40.6929 0.76008 7.74442 
v -40.7184 0.76008 7.76533 
v -40.4817 6.9688 7.76533 
v -40.4817 0.76008 7.76533 
v -40.5072 6.9688 7.74442 
v -40.5072 0.76008 7.74442 
v -40.5471 6.9688 7.72491 
v -40.5471 0.76008 7.72491 
v -40.6 6.9688 7.71632 
v -40.6 0.76008 7.71632 
v -40.653 6.9688 7.72491 
v -40.653 0.76008 7.72491 
v -40.6929 6.9688 7.74442 
v -40.6929 0.76008 7.74442 
v -40.7184 6.9688 7.76533 
v -40.7184 0.76008 7.76533 
v -40.4817 0.76008 7.76533 
v -40.4817 6.9688 7.76533 
v -40.4608 0.76008 7.79083 
v -40.4608 6.9688 7.79083 
v -40.4413 0.76008 7.83074 
v -40.4413 6.9688 7.83074 
v -40.4327 0.76008 7.88365 
v -40.4327 6.9688 7.88365 
v -40.4413 0.76008 7.93657 
v -40.4413 6.9688 7.93657 
v -40.4608 0.76008 7.97648 
v -40.4608 6.9688 7.97648 
v -40.4817 0.76008 8.00198 
v -40.4817 6.9688 8.00198 
v -40.6 6.9688 7.88365 
v -40.4817 6.9688 7.76533 
v -40.4608 6.9688 7.79083 
v -40.4413 6.9688 7.83074 
v -40.4327 6.9688 7.88365 
v -40.4413 6.9688 7.93657 
v -40.4608 6.9688 7.97648 
v -40.4817 6.9688 8.00198 
v -40.4817 6.9688 8.00198 
v -40.5072 6.9688 8.02289 
v -40.5471 6.9688 8.0424 
v -40.6 6.9688 8.05099 
v -40.653 6.9688 8.0424 
v -40.6929 6.9688 8.02289 
v -40.7184 6.9688 8.00198 
v -40.7184 6.9688 8.00198 
v -40.7393 6.9688 7.97648 
v -40.7588 6.9688 7.93657 
v -40.7674 6.9688 7.88365 
v -40.7588 6.9688 7.83074 
v -40.7393 6.9688 7.79083 
v -40.7184 6.9688 7.76533 
v -40.7184 6.9688 7.76533 
v -40.6929 6.9688 7.74442 
v -40.653 6.9688 7.72491 
v -40.6 6.9688 7.71632 
v -40.5471 6.9688 7.72491 
v -40.5072 6.9688 7.74442 
v -40.4817 6.9688 7.76533 
v -40.7184 6.9688 8.00198 
v -40.7184 0.76008 8.00198 
v -40.6929 6.9688 8.02289 
v -40.6929 0.76008 8.02289 
v -40.653 6.9688 8.0424 
v -40.653 0.76008 8.0424 
v -40.6 6.9688 8.05099 
v -40.6 0.76008 8.05099 
v -40.5471 6.9688 8.0424 
v -40.5471 0.76008 8.0424 
v -40.5072 6.9688 8.02289 
v -40.5072 0.76008 8.02289 
v -40.4817 6.9688 8.00198 
v -40.4817 0.76008 8.00198 
v -40.7184 6.9688 7.76533 
v -40.7184 0.76008 7.76533 
v -40.7393 6.9688 7.79083 
v -40.7393 0.76008 7.79083 
v -40.7588 6.9688 7.83074 
v -40.7588 0.76008 7.83074 
v -40.7674 6.9688 7.88365 
v -40.7674 0.76008 7.88365 
v -40.7588 6.9688 7.93657 
v -40.7588 0.76008 7.93657 
v -40.7393 6.9688 7.97648 
v -40.7393 0.76008 7.97648 
v -40.7184 6.9688 8.00198 
v -40.7184 0.76008 8.00198 

vn 0 -1 0 
vn 0 -1 0 
vn 0 -1 0 
vn 0 -1 0 
vn 0 -1 0 
vn 0 -1 0 
vn 0 -1 0 
vn 0 -1 0 
vn 0 -1 0 
vn 0 -1 0 
vn 0 -1 0 
vn 0 -1 0 
vn 0 -1 0 
vn 0 -1 0 
vn 0 -1 0 
vn 0 -1 0 
vn 0 -1 0 
vn 0 -1 0 
vn 0 -1 0 
vn 0 -1 0 
vn 0 -1 0 
vn 0 -1 0 
vn 0 -1 0 
vn 0 -1 0 
vn 0 -1 0 
vn 0 -1 0 
vn 0 -1 0 
vn 0 -1 0 
vn 0 -1 0 
vn 0.708661 0 -0.708661 
vn 0.708661 0 -0.708661 
vn 0.551181 0 -0.834646 
vn 0.551181 0 -0.834646 
vn 0.314961 0 -0.944882 
vn 0.314961 0 -0.944882 
vn 0 0 -1 
vn 0 0 -1 
vn -0.314961 0 -0.944882 
vn -0.314961 0 -0.944882 
vn -0.551181 0 -0.834646 
vn -0.551181 0 -0.834646 
vn -0.708661 0 -0.708661 
vn -0.708661 0 -0.708661 
vn 0.708661 0 -0.708661 
vn 0.708661 0 -0.708661 
vn 0.834646 0 -0.551181 
vn 0.834646 0 -0.551181 
vn 0.944882 0 -0.314961 
vn 0.944882 0 -0.314961 
vn 1 0 0 
vn 1 0 0 
vn 0.944882 0 0.314961 
vn 0.944882 0 0.314961 
vn 0.834646 0 0.551181 
vn 0.834646 0 0.551181 
vn 0.708661 0 0.708661 
vn 0.708661 0 0.708661 
vn 0 1 0 
vn 0 1 0 
vn 0 1 0 
vn 0 1 0 
vn 0 1 0 
vn 0 1 0 
vn 0 1 0 
vn 0 1 0 
vn 0 1 0 
vn 0 1 0 
vn 0 1 0 
vn 0 1 0 
vn 0 1 0 
vn 0 1 0 
vn 0 1 0 
vn 0 1 0 
vn 0 1 0 
vn 0 1 0 
vn 0 1 0 
vn 0 1 0 
vn 0 1 0 
vn 0 1 0 
vn 0 1 0 
vn 0 1 0 
vn 0 1 0 
vn 0 1 0 
vn 0 1 0 
vn 0 1 0 
vn 0 1 0 
vn -0.708661 0 0.708661 
vn -0.708661 0 0.708661 
vn -0.551181 0 0.834646 
vn -0.551181 0 0.834646 
vn -0.314961 0 0.944882 
vn -0.314961 0 0.944882 
vn 0 0 1 
vn 0 0 1 
vn 0.314961 0 0.944882 
vn 0.314961 0 0.944882 
vn 0.551181 0 0.834646 
vn 0.551181 0 0.834646 
vn 0.708661 0 0.708661 
vn 0.708661 0 0.708661 
vn -0.708661 0 -0.708661 
vn -0.708661 0 -0.708661 
vn -0.834646 0 -0.551181 
vn -0.834646 0 -0.551181 
vn -0.944882 0 -0.314961 
vn -0.944882 0 -0.314961 
vn -1 0 0 
vn -1 0 0 
vn -0.944882 0 0.314961 
vn -0.944882 0 0.314961 
vn -0.834646 0 0.551181 
vn -0.834646 0 0.551181 
vn -0.708661 0 0.708661 
vn -0.708661 0 0.708661 

vt 7.02092 -1.14592 
vt 7.03571 -1.13113 
vt 7.03832 -1.13431 
vt 7.04076 -1.1393 
vt 7.04183 -1.14592 
vt 7.04076 -1.15253 
vt 7.03832 -1.15752 
vt 7.03571 -1.16071 
vt 7.03571 -1.16071 
vt 7.03252 -1.16332 
vt 7.02753 -1.16576 
vt 7.02092 -1.16683 
vt 7.0143 -1.16576 
vt 7.00931 -1.16332 
vt 7.00613 -1.16071 
vt 7.00613 -1.16071 
vt 7.00351 -1.15752 
vt 7.00107 -1.15253 
vt 7 -1.14592 
vt 7.00107 -1.1393 
vt 7.00351 -1.13431 
vt 7.00613 -1.13113 
vt 7.00613 -1.13113 
vt 7.00931 -1.12851 
vt 7.0143 -1.12607 
vt 7.02092 -1.125 
vt 7.02753 -1.12607 
vt 7.03252 -1.12851 
vt 7.03571 -1.13113 
vt 14.7761 -3.25 
vt 14 -3.25 
vt 14.7761 -3.25697 
vt 14 -3.25697 
vt 14.7761 -3.26394 
vt 14 -3.26394 
vt 14.7761 -3.27092 
vt 14 -3.27092 
vt 14.7761 -3.27789 
vt 14 -3.27789 
vt 14.7761 -3.28486 
vt 14 -3.28486 
vt 14.7761 -3.29183 
vt 14 -3.29183 
vt 14.7761 -3.25 
vt 14 -3.25 
vt 14.7761 -3.25697 
vt 14 -3.25697 
vt 14.7761 -3.26394 
vt 14 -3.26394 
vt 14.7761 -3.27092 
vt 14 -3.27092 
vt 14.7761 -3.27789 
vt 14 -3.27789 
vt 14.7761 -3.28486 
vt 14 -3.28486 
vt 14.7761 -3.29183 
vt 14 -3.29183 
vt 7.02092 -1.14592 
vt 7.03571 -1.13113 
vt 7.03832 -1.13431 
vt 7.04076 -1.1393 
vt 7.04183 -1.14592 
vt 7.04076 -1.15253 
vt 7.03832 -1.15752 
vt 7.03571 -1.16071 
vt 7.03571 -1.16071 
vt 7.03252 -1.16332 
vt 7.02753 -1.16576 
vt 7.02092 -1.16683 
vt 7.0143 -1.16576 
vt 7.00931 -1.16332 
vt 7.00613 -1.16071 
vt 7.00613 -1.16071 
vt 7.00351 -1.15752 
vt 7.00107 -1.15253 
vt 7 -1.14592 
vt 7.00107 -1.1393 
vt 7.00351 -1.13431 
vt 7.00613 -1.13113 
vt 7.00613 -1.13113 
vt 7.00931 -1.12851 
vt 7.0143 -1.12607 
vt 7.02092 -1.125 
vt 7.02753 -1.12607 
vt 7.03252 -1.12851 
vt 7.03571 -1.13113 
vt 14.7761 -3.25 
vt 14 -3.25 
vt 14.7761 -3.25697 
vt 14 -3.25697 
vt 14.7761 -3.26394 
vt 14 -3.26394 
vt 14.7761 -3.27092 
vt 14 -3.27092 
vt 14.7761 -3.27789 
vt 14 -3.27789 
vt 14.7761 -3.28486 
vt 14 -3.28486 
vt 14.7761 -3.29183 
vt 14 -3.29183 
vt 14.7761 -3.25 
vt 14 -3.25 
vt 14.7761 -3.25697 
vt 14 -3.25697 
vt 14.7761 -3.26394 
vt 14 -3.26394 
vt 14.7761 -3.27092 
vt 14 -3.27092 
vt 14.7761 -3.27789 
vt 14 -3.27789 
vt 14.7761 -3.28486 
vt 14 -3.28486 
vt 14.7761 -3.29183 
vt 14 -3.29183 

usemtl Part1Mtl

f 343/343/343 345/345/345 344/344/344 
f 343/343/343 346/346/346 345/345/345 
f 343/343/343 347/347/347 346/346/346 
f 343/343/343 348/348/348 347/347/347 
f 343/343/343 349/349/349 348/348/348 
f 343/343/343 350/350/350 349/349/349 
f 343/343/343 352/352/352 351/351/351 
f 343/343/343 353/353/353 352/352/352 
f 343/343/343 354/354/354 353/353/353 
f 343/343/343 355/355/355 354/354/354 
f 343/343/343 356/356/356 355/355/355 
f 343/343/343 357/357/357 356/356/356 
f 343/343/343 359/359/359 358/358/358 
f 343/343/343 360/360/360 359/359/359 
f 343/343/343 361/361/361 360/360/360 
f 343/343/343 362/362/362 361/361/361 
f 343/343/343 363/363/363 362/362/362 
f 343/343/343 364/364/364 363/363/363 
f 343/343/343 366/366/366 365/365/365 
f 343/343/343 367/367/367 366/366/366 
f 343/343/343 368/368/368 367/367/367 
f 343/343/343 369/369/369 368/368/368 
f 343/343/343 370/370/370 369/369/369 
f 343/343/343 371/371/371 370/370/370 
f 372/372/372 373/373/373 374/374/374 
f 374/374/374 373/373/373 375/375/375 
f 374/374/374 375/375/375 376/376/376 
f 376/376/376 375/375/375 377/377/377 
f 376/376/376 377/377/377 378/378/378 
f 378/378/378 377/377/377 379/379/379 
f 378/378/378 379/379/379 380/380/380 
f 380/380/380 379/379/379 381/381/381 
f 380/380/380 381/381/381 382/382/382 
f 382/382/382 381/381/381 383/383/383 
f 382/382/382 383/383/383 384/384/384 
f 384/384/384 383/383/383 385/385/385 
f 386/386/386 387/387/387 388/388/388 
f 388/388/388 387/387/387 389/389/389 
f 388/388/388 389/389/389 390/390/390 
f 390/390/390 389/389/389 391/391/391 
f 390/390/390 391/391/391 392/392/392 
f 392/392/392 391/391/391 393/393/393 
f 392/392/392 393/393/393 394/394/394 
f 394/394/394 393/393/393 395/395/395 
f 394/394/394 395/395/395 396/396/396 
f 396/396/396 395/395/395 397/397/397 
f 396/396/396 397/397/397 398/398/398 
f 398/398/398 397/397/397 399/399/399 
f 400/400/400 402/402/402 401/401/401 
f 400/400/400 403/403/403 402/402/402 
f 400/400/400 404/404/404 403/403/403 
f 400/400/400 405/405/405 404/404/404 
f 400/400/400 406/406/406 405/405/405 
f 400/400/400 407/407/407 406/406/406 
f 400/400/400 409/409/409 408/408/408 
f 400/400/400 410/410/410 409/409/409 
f 400/400/400 411/411/411 410/410/410 
f 400/400/400 412/412/412 411/411/411 
f 400/400/400 413/413/413 412/412/412 
f 400/400/400 414/414/414 413/413/413 
f 400/400/400 416/416/416 415/415/415 
f 400/400/400 417/417/417 416/416/416 
f 400/400/400 418/418/418 417/417/417 
f 400/400/400 419/419/419 418/418/418 
f 400/400/400 420/420/420 419/419/419 
f 400/400/400 421/421/421 420/420/420 
f 400/400/400 423/423/423 422/422/422 
f 400/400/400 424/424/424 423/423/423 
f 400/400/400 425/425/425 424/424/424 
f 400/400/400 426/426/426 425/425/425 
f 400/400/400 427/427/427 426/426/426 
f 400/400/400 428/428/428 427/427/427 
f 429/429/429 430/430/430 431/431/431 
f 431/431/431 430/430/430 432/432/432 
f 431/431/431 432/432/432 433/433/433 
f 433/433/433 432/432/432 434/434/434 
f 433/433/433 434/434/434 435/435/435 
f 435/435/435 434/434/434 436/436/436 
f 435/435/435 436/436/436 437/437/437 
f 437/437/437 436/436/436 438/438/438 
f 437/437/437 438/438/438 439/439/439 
f 439/439/439 438/438/438 440/440/440 
f 439/439/439 440/440/440 441/441/441 
f 441/441/441 440/440/440 442/442/442 
f 443/443/443 444/444/444 445/445/445 
f 445/445/445 444/444/444 446/446/446 
f 445/445/445 446/446/446 447/447/447 
f 447/447/447 446/446/446 448/448/448 
f 447/447/447 448/448/448 449/449/449 
f 449/449/449 448/448/448 450/450/450 
f 449/449/449 450/450/450 451/451/451 
f 451/451/451 450/450/450 452/452/452 
f 451/451/451 452/452/452 453/453/453 
f 453/453/453 452/452/452 454/454/454 
f 453/453/453 454/454/454 455/455/455 
f 455/455/455 454/454/454 456/456/456 

g Part5

v -40.5396 0.861347 4.31159 
v -40.4898 0.861347 4.31159 
v -40.5396 0.861347 7.87051 
v -40.4898 0.861347 7.87051 
v -40.4898 6.84423 4.31159 
v -40.4898 0.861347 4.31159 
v -40.5396 6.84423 4.31159 
v -40.5396 0.861347 4.31159 
v -40.4898 0.861347 4.31159 
v -40.4898 6.84423 4.31159 
v -40.4898 0.861347 7.87051 
v -40.4898 6.84423 7.87051 
v -40.4898 6.84423 4.31159 
v -40.5396 6.84423 4.31159 
v -40.4898 6.84423 7.87051 
v -40.5396 6.84423 7.87051 
v -40.5396 6.84423 7.87051 
v -40.5396 0.861347 7.87051 
v -40.4898 6.84423 7.87051 
v -40.4898 0.861347 7.87051 
v -40.5396 6.84423 4.31159 
v -40.5396 0.861347 4.31159 
v -40.5396 6.84423 7.87051 
v -40.5396 0.861347 7.87051 

vn 0 -1 0 
vn 0 -1 0 
vn 0 -1 0 
vn 0 -1 0 
vn 0 0 -1 
vn 0 0 -1 
vn 0 0 -1 
vn 0 0 -1 
vn 1 0 0 
vn 1 0 0 
vn 1 0 0 
vn 1 0 0 
vn 0 1 0 
vn 0 1 0 
vn 0 1 0 
vn 0 1 0 
vn 0 0 1 
vn 0 0 1 
vn 0 0 1 
vn 0 0 1 
vn -1 0 0 
vn -1 0 0 
vn -1 0 0 
vn -1 0 0 

vt -0.262727 1.26895 
vt -0.26895 1.26895 
vt -0.262727 0.824086 
vt -0.26895 0.824086 
vt 0.47891 1.26895 
vt -0.26895 1.26895 
vt 0.47891 1.26273 
vt -0.26895 1.26273 
vt 0.47891 1.26895 
vt -0.26895 1.26895 
vt 0.47891 0.824086 
vt -0.26895 0.824086 
vt -0.262727 1.26895 
vt -0.26895 1.26895 
vt -0.262727 0.824086 
vt -0.26895 0.824086 
vt 0.47891 1.26895 
vt -0.26895 1.26895 
vt 0.47891 1.26273 
vt -0.26895 1.26273 
vt 0.47891 1.26895 
vt -0.26895 1.26895 
vt 0.47891 0.824086 
vt -0.26895 0.824086 

usemtl Part5Mtl

f 457/457/457 458/458/458 459/459/459 
f 459/459/459 458/458/458 460/460/460 
f 461/461/461 462/462/462 463/463/463 
f 463/463/463 462/462/462 464/464/464 
f 465/465/465 466/466/466 467/467/467 
f 467/467/467 466/466/466 468/468/468 
f 469/469/469 470/470/470 471/471/471 
f 471/471/471 470/470/470 472/472/472 
f 473/473/473 474/474/474 475/475/475 
f 475/475/475 474/474/474 476/476/476 
f 477/477/477 478/478/478 479/479/479 
f 479/479/479 478/478/478 480/480/480 

g Part6

v -40.6 4.86444 3.86186 
v -40.7184 4.98277 3.86186 
v -40.7393 4.95726 3.86186 
v -40.7588 4.91736 3.86186 
v -40.7674 4.86444 3.86186 
v -40.7588 4.81153 3.86186 
v -40.7393 4.77162 3.86186 
v -40.7184 4.74612 3.86186 
v -40.7184 4.74612 3.86186 
v -40.6929 4.72521 3.86186 
v -40.653 4.70569 3.86186 
v -40.6 4.69711 3.86186 
v -40.5471 4.70569 3.86186 
v -40.5072 4.72521 3.86186 
v -40.4817 4.74612 3.86186 
v -40.4817 4.74612 3.86186 
v -40.4608 4.77162 3.86186 
v -40.4413 4.81153 3.86186 
v -40.4327 4.86444 3.86186 
v -40.4413 4.91736 3.86186 
v -40.4608 4.95726 3.86186 
v -40.4817 4.98277 3.86186 
v -40.4817 4.98277 3.86186 
v -40.5072 5.00367 3.86186 
v -40.5471 5.02319 3.86186 
v -40.6 5.03178 3.86186 
v -40.653 5.02319 3.86186 
v -40.6929 5.00367 3.86186 
v -40.7184 4.98277 3.86186 
v -40.4817 4.98277 8.07058 
v -40.4817 4.98277 3.86186 
v -40.5072 5.00367 8.07058 
v -40.5072 5.00367 3.86186 
v -40.5471 5.02319 8.07058 
v -40.5471 5.02319 3.86186 
v -40.6 5.03178 8.07058 
v -40.6 5.03178 3.86186 
v -40.653 5.02319 8.07058 
v -40.653 5.02319 3.86186 
v -40.6929 5.00367 8.07058 
v -40.6929 5.00367 3.86186 
v -40.7184 4.98277 8.07058 
v -40.7184 4.98277 3.86186 
v -40.4817 4.98277 3.86186 
v -40.4817 4.98277 8.07058 
v -40.4608 4.95726 3.86186 
v -40.4608 4.95726 8.07058 
v -40.4413 4.91736 3.86186 
v -40.4413 4.91736 8.07058 
v -40.4327 4.86444 3.86186 
v -40.4327 4.86444 8.07058 
v -40.4413 4.81153 3.86186 
v -40.4413 4.81153 8.07058 
v -40.4608 4.77162 3.86186 
v -40.4608 4.77162 8.07058 
v -40.4817 4.74612 3.86186 
v -40.4817 4.74612 8.07058 
v -40.6 4.86444 8.07058 
v -40.4817 4.98277 8.07058 
v -40.4608 4.95726 8.07058 
v -40.4413 4.91736 8.07058 
v -40.4327 4.86444 8.07058 
v -40.4413 4.81153 8.07058 
v -40.4608 4.77162 8.07058 
v -40.4817 4.74612 8.07058 
v -40.4817 4.74612 8.07058 
v -40.5072 4.72521 8.07058 
v -40.5471 4.70569 8.07058 
v -40.6 4.69711 8.07058 
v -40.653 4.70569 8.07058 
v -40.6929 4.72521 8.07058 
v -40.7184 4.74612 8.07058 
v -40.7184 4.74612 8.07058 
v -40.7393 4.77162 8.07058 
v -40.7588 4.81153 8.07058 
v -40.7674 4.86444 8.07058 
v -40.7588 4.91736 8.07058 
v -40.7393 4.95726 8.07058 
v -40.7184 4.98277 8.07058 
v -40.7184 4.98277 8.07058 
v -40.6929 5.00367 8.07058 
v -40.653 5.02319 8.07058 
v -40.6 5.03178 8.07058 
v -40.5471 5.02319 8.07058 
v -40.5072 5.00367 8.07058 
v -40.4817 4.98277 8.07058 
v -40.7184 4.74612 8.07058 
v -40.7184 4.74612 3.86186 
v -40.6929 4.72521 8.07058 
v -40.6929 4.72521 3.86186 
v -40.653 4.70569 8.07058 
v -40.653 4.70569 3.86186 
v -40.6 4.69711 8.07058 
v -40.6 4.69711 3.86186 
v -40.5471 4.70569 8.07058 
v -40.5471 4.70569 3.86186 
v -40.5072 4.72521 8.07058 
v -40.5072 4.72521 3.86186 
v -40.4817 4.74612 8.07058 
v -40.4817 4.74612 3.86186 
v -40.7184 4.98277 8.07058 
v -40.7184 4.98277 3.86186 
v -40.7393 4.95726 8.07058 
v -40.7393 4.95726 3.86186 
v -40.7588 4.91736 8.07058 
v -40.7588 4.91736 3.86186 
v -40.7674 4.86444 8.07058 
v -40.7674 4.86444 3.86186 
v -40.7588 4.81153 8.07058 
v -40.7588 4.81153 3.86186 
v -40.7393 4.77162 8.07058 
v -40.7393 4.77162 3.86186 
v -40.7184 4.74612 8.07058 
v -40.7184 4.74612 3.86186 

vn 0 0 -1 
vn 0 0 -1 
vn 0 0 -1 
vn 0 0 -1 
vn 0 0 -1 
vn 0 0 -1 
vn 0 0 -1 
vn 0 0 -1 
vn 0 0 -1 
vn 0 0 -1 
vn 0 0 -1 
vn 0 0 -1 
vn 0 0 -1 
vn 0 0 -1 
vn 0 0 -1 
vn 0 0 -1 
vn 0 0 -1 
vn 0 0 -1 
vn 0 0 -1 
vn 0 0 -1 
vn 0 0 -1 
vn 0 0 -1 
vn 0 0 -1 
vn 0 0 -1 
vn 0 0 -1 
vn 0 0 -1 
vn 0 0 -1 
vn 0 0 -1 
vn 0 0 -1 
vn 0.708661 0.708661 0 
vn 0.708661 0.708661 0 
vn 0.551181 0.834646 0 
vn 0.551181 0.834646 0 
vn 0.314961 0.944882 0 
vn 0.314961 0.944882 0 
vn 0 1 0 
vn 0 1 0 
vn -0.314961 0.944882 0 
vn -0.314961 0.944882 0 
vn -0.551181 0.834646 0 
vn -0.551181 0.834646 0 
vn -0.708661 0.708661 0 
vn -0.708661 0.708661 0 
vn 0.708661 0.708661 0 
vn 0.708661 0.708661 0 
vn 0.834646 0.551181 0 
vn 0.834646 0.551181 0 
vn 0.944882 0.314961 0 
vn 0.944882 0.314961 0 
vn 1 0 0 
vn 1 0 0 
vn 0.944882 -0.314961 0 
vn 0.944882 -0.314961 0 
vn 0.834646 -0.551181 0 
vn 0.834646 -0.551181 0 
vn 0.708661 -0.708661 0 
vn 0.708661 -0.708661 0 
vn 0 0 1 
vn 0 0 1 
vn 0 0 1 
vn 0 0 1 
vn 0 0 1 
vn 0 0 1 
vn 0 0 1 
vn 0 0 1 
vn 0 0 1 
vn 0 0 1 
vn 0 0 1 
vn 0 0 1 
vn 0 0 1 
vn 0 0 1 
vn 0 0 1 
vn 0 0 1 
vn 0 0 1 
vn 0 0 1 
vn 0 0 1 
vn 0 0 1 
vn 0 0 1 
vn 0 0 1 
vn 0 0 1 
vn 0 0 1 
vn 0 0 1 
vn 0 0 1 
vn 0 0 1 
vn 0 0 1 
vn 0 0 1 
vn -0.708661 -0.708661 0 
vn -0.708661 -0.708661 0 
vn -0.551181 -0.834646 0 
vn -0.551181 -0.834646 0 
vn -0.314961 -0.944882 0 
vn -0.314961 -0.944882 0 
vn 0 -1 0 
vn 0 -1 0 
vn 0.314961 -0.944882 0 
vn 0.314961 -0.944882 0 
vn 0.551181 -0.834646 0 
vn 0.551181 -0.834646 0 
vn 0.708661 -0.708661 0 
vn 0.708661 -0.708661 0 
vn -0.708661 0.708661 0 
vn -0.708661 0.708661 0 
vn -0.834646 0.551181 0 
vn -0.834646 0.551181 0 
vn -0.944882 0.314961 0 
vn -0.944882 0.314961 0 
vn -1 0 0 
vn -1 0 0 
vn -0.944882 -0.314961 0 
vn -0.944882 -0.314961 0 
vn -0.834646 -0.551181 0 
vn -0.834646 -0.551181 0 
vn -0.708661 -0.708661 0 
vn -0.708661 -0.708661 0 

vt 2.27092 0.604083 
vt 2.28571 0.618874 
vt 2.28832 0.615686 
vt 2.29076 0.610698 
vt 2.29183 0.604083 
vt 2.29076 0.597469 
vt 2.28832 0.59248 
vt 2.28571 0.589293 
vt 2.28571 0.589293 
vt 2.28252 0.586679 
vt 2.27753 0.584239 
vt 2.27092 0.583166 
vt 2.2643 0.584239 
vt 2.25931 0.586679 
vt 2.25613 0.589293 
vt 2.25613 0.589293 
vt 2.25351 0.59248 
vt 2.25107 0.597469 
vt 2.25 0.604083 
vt 2.25107 0.610698 
vt 2.25351 0.615686 
vt 2.25613 0.618874 
vt 2.25613 0.618874 
vt 2.25931 0.621487 
vt 2.2643 0.623927 
vt 2.27092 0.625 
vt 2.27753 0.623927 
vt 2.28252 0.621487 
vt 2.28571 0.618874 
vt 5.02609 0.25 
vt 4.5 0.25 
vt 5.02609 0.243028 
vt 4.5 0.243028 
vt 5.02609 0.236055 
vt 4.5 0.236055 
vt 5.02609 0.229083 
vt 4.5 0.229083 
vt 5.02609 0.222111 
vt 4.5 0.222111 
vt 5.02609 0.215138 
vt 4.5 0.215138 
vt 5.02609 0.208166 
vt 4.5 0.208166 
vt 5.02609 0.25 
vt 4.5 0.25 
vt 5.02609 0.243028 
vt 4.5 0.243028 
vt 5.02609 0.236055 
vt 4.5 0.236055 
vt 5.02609 0.229083 
vt 4.5 0.229083 
vt 5.02609 0.222111 
vt 4.5 0.222111 
vt 5.02609 0.215138 
vt 4.5 0.215138 
vt 5.02609 0.208166 
vt 4.5 0.208166 
vt 2.27092 0.604083 
vt 2.28571 0.618874 
vt 2.28832 0.615686 
vt 2.29076 0.610698 
vt 2.29183 0.604083 
vt 2.29076 0.597469 
vt 2.28832 0.59248 
vt 2.28571 0.589293 
vt 2.28571 0.589293 
vt 2.28252 0.586679 
vt 2.27753 0.584239 
vt 2.27092 0.583166 
vt 2.2643 0.584239 
vt 2.25931 0.586679 
vt 2.25613 0.589293 
vt 2.25613 0.589293 
vt 2.25351 0.59248 
vt 2.25107 0.597469 
vt 2.25 0.604083 
vt 2.25107 0.610698 
vt 2.25351 0.615686 
vt 2.25613 0.618874 
vt 2.25613 0.618874 
vt 2.25931 0.621487 
vt 2.2643 0.623927 
vt 2.27092 0.625 
vt 2.27753 0.623927 
vt 2.28252 0.621487 
vt 2.28571 0.618874 
vt 5.02609 0.25 
vt 4.5 0.25 
vt 5.02609 0.243028 
vt 4.5 0.243028 
vt 5.02609 0.236055 
vt 4.5 0.236055 
vt 5.02609 0.229083 
vt 4.5 0.229083 
vt 5.02609 0.222111 
vt 4.5 0.222111 
vt 5.02609 0.215138 
vt 4.5 0.215138 
vt 5.02609 0.208166 
vt 4.5 0.208166 
vt 5.02609 0.25 
vt 4.5 0.25 
vt 5.02609 0.243028 
vt 4.5 0.243028 
vt 5.02609 0.236055 
vt 4.5 0.236055 
vt 5.02609 0.229083 
vt 4.5 0.229083 
vt 5.02609 0.222111 
vt 4.5 0.222111 
vt 5.02609 0.215138 
vt 4.5 0.215138 
vt 5.02609 0.208166 
vt 4.5 0.208166 

usemtl Part1Mtl

f 481/481/481 483/483/483 482/482/482 
f 481/481/481 484/484/484 483/483/483 
f 481/481/481 485/485/485 484/484/484 
f 481/481/481 486/486/486 485/485/485 
f 481/481/481 487/487/487 486/486/486 
f 481/481/481 488/488/488 487/487/487 
f 481/481/481 490/490/490 489/489/489 
f 481/481/481 491/491/491 490/490/490 
f 481/481/481 492/492/492 491/491/491 
f 481/481/481 493/493/493 492/492/492 
f 481/481/481 494/494/494 493/493/493 
f 481/481/481 495/495/495 494/494/494 
f 481/481/481 497/497/497 496/496/496 
f 481/481/481 498/498/498 497/497/497 
f 481/481/481 499/499/499 498/498/498 
f 481/481/481 500/500/500 499/499/499 
f 481/481/481 501/501/501 500/500/500 
f 481/481/481 502/502/502 501/501/501 
f 481/481/481 504/504/504 503/503/503 
f 481/481/481 505/505/505 504/504/504 
f 481/481/481 506/506/506 505/505/505 
f 481/481/481 507/507/507 506/506/506 
f 481/481/481 508/508/508 507/507/507 
f 481/481/481 509/509/509 508/508/508 
f 510/510/510 511/511/511 512/512/512 
f 512/512/512 511/511/511 513/513/513 
f 512/512/512 513/513/513 514/514/514 
f 514/514/514 513/513/513 515/515/515 
f 514/514/514 515/515/515 516/516/516 
f 516/516/516 515/515/515 517/517/517 
f 516/516/516 517/517/517 518/518/518 
f 518/518/518 517/517/517 519/519/519 
f 518/518/518 519/519/519 520/520/520 
f 520/520/520 519/519/519 521/521/521 
f 520/520/520 521/521/521 522/522/522 
f 522/522/522 521/521/521 523/523/523 
f 524/524/524 525/525/525 526/526/526 
f 526/526/526 525/525/525 527/527/527 
f 526/526/526 527/527/527 528/528/528 
f 528/528/528 527/527/527 529/529/529 
f 528/528/528 529/529/529 530/530/530 
f 530/530/530 529/529/529 531/531/531 
f 530/530/530 531/531/531 532/532/532 
f 532/532/532 531/531/531 533/533/533 
f 532/532/532 533/533/533 534/534/534 
f 534/534/534 533/533/533 535/535/535 
f 534/534/534 535/535/535 536/536/536 
f 536/536/536 535/535/535 537/537/537 
f 538/538/538 540/540/540 539/539/539 
f 538/538/538 541/541/541 540/540/540 
f 538/538/538 542/542/542 541/541/541 
f 538/538/538 543/543/543 542/542/542 
f 538/538/538 544/544/544 543/543/543 
f 538/538/538 545/545/545 544/544/544 
f 538/538/538 547/547/547 546/546/546 
f 538/538/538 548/548/548 547/547/547 
f 538/538/538 549/549/549 548/548/548 
f 538/538/538 550/550/550 549/549/549 
f 538/538/538 551/551/551 550/550/550 
f 538/538/538 552/552/552 551/551/551 
f 538/538/538 554/554/554 553/553/553 
f 538/538/538 555/555/555 554/554/554 
f 538/538/538 556/556/556 555/555/555 
f 538/538/538 557/557/557 556/556/556 
f 538/538/538 558/558/558 557/557/557 
f 538/538/538 559/559/559 558/558/558 
f 538/538/538 561/561/561 560/560/560 
f 538/538/538 562/562/562 561/561/561 
f 538/538/538 563/563/563 562/562/562 
f 538/538/538 564/564/564 563/563/563 
f 538/538/538 565/565/565 564/564/564 
f 538/538/538 566/566/566 565/565/565 
f 567/567/567 568/568/568 569/569/569 
f 569/569/569 568/568/568 570/570/570 
f 569/569/569 570/570/570 571/571/571 
f 571/571/571 570/570/570 572/572/572 
f 571/571/571 572/572/572 573/573/573 
f 573/573/573 572/572/572 574/574/574 
f 573/573/573 574/574/574 575/575/575 
f 575/575/575 574/574/574 576/576/576 
f 575/575/575 576/576/576 577/577/577 
f 577/577/577 576/576/576 578/578/578 
f 577/577/577 578/578/578 579/579/579 
f 579/579/579 578/578/578 580/580/580 
f 581/581/581 582/582/582 583/583/583 
f 583/583/583 582/582/582 584/584/584 
f 583/583/583 584/584/584 585/585/585 
f 585/585/585 584/584/584 586/586/586 
f 585/585/585 586/586/586 587/587/587 
f 587/587/587 586/586/586 588/588/588 
f 587/587/587 588/588/588 589/589/589 
f 589/589/589 588/588/588 590/590/590 
f 589/589/589 590/590/590 591/591/591 
f 591/591/591 590/590/590 592/592/592 
f 591/591/591 592/592/592 593/593/593 
f 593/593/593 592/592/592 594/594/594 

g Part7

v -40.6 6.86444 3.86186 
v -40.7184 6.98277 3.86186 
v -40.7393 6.95726 3.86186 
v -40.7588 6.91736 3.86186 
v -40.7674 6.86444 3.86186 
v -40.7588 6.81153 3.86186 
v -40.7393 6.77162 3.86186 
v -40.7184 6.74612 3.86186 
v -40.7184 6.74612 3.86186 
v -40.6929 6.72521 3.86186 
v -40.653 6.70569 3.86186 
v -40.6 6.69711 3.86186 
v -40.5471 6.70569 3.86186 
v -40.5072 6.72521 3.86186 
v -40.4817 6.74612 3.86186 
v -40.4817 6.74612 3.86186 
v -40.4608 6.77162 3.86186 
v -40.4413 6.81153 3.86186 
v -40.4327 6.86444 3.86186 
v -40.4413 6.91736 3.86186 
v -40.4608 6.95726 3.86186 
v -40.4817 6.98277 3.86186 
v -40.4817 6.98277 3.86186 
v -40.5072 7.00367 3.86186 
v -40.5471 7.02319 3.86186 
v -40.6 7.03178 3.86186 
v -40.653 7.02319 3.86186 
v -40.6929 7.00367 3.86186 
v -40.7184 6.98277 3.86186 
v -40.4817 6.98277 8.07058 
v -40.4817 6.98277 3.86186 
v -40.5072 7.00367 8.07058 
v -40.5072 7.00367 3.86186 
v -40.5471 7.02319 8.07058 
v -40.5471 7.02319 3.86186 
v -40.6 7.03178 8.07058 
v -40.6 7.03178 3.86186 
v -40.653 7.02319 8.07058 
v -40.653 7.02319 3.86186 
v -40.6929 7.00367 8.07058 
v -40.6929 7.00367 3.86186 
v -40.7184 6.98277 8.07058 
v -40.7184 6.98277 3.86186 
v -40.4817 6.98277 3.86186 
v -40.4817 6.98277 8.07058 
v -40.4608 6.95726 3.86186 
v -40.4608 6.95726 8.07058 
v -40.4413 6.91736 3.86186 
v -40.4413 6.91736 8.07058 
v -40.4327 6.86444 3.86186 
v -40.4327 6.86444 8.07058 
v -40.4413 6.81153 3.86186 
v -40.4413 6.81153 8.07058 
v -40.4608 6.77162 3.86186 
v -40.4608 6.77162 8.07058 
v -40.4817 6.74612 3.86186 
v -40.4817 6.74612 8.07058 
v -40.6 6.86444 8.07058 
v -40.4817 6.98277 8.07058 
v -40.4608 6.95726 8.07058 
v -40.4413 6.91736 8.07058 
v -40.4327 6.86444 8.07058 
v -40.4413 6.81153 8.07058 
v -40.4608 6.77162 8.07058 
v -40.4817 6.74612 8.07058 
v -40.4817 6.74612 8.07058 
v -40.5072 6.72521 8.07058 
v -40.5471 6.70569 8.07058 
v -40.6 6.69711 8.07058 
v -40.653 6.70569 8.07058 
v -40.6929 6.72521 8.07058 
v -40.7184 6.74612 8.07058 
v -40.7184 6.74612 8.07058 
v -40.7393 6.77162 8.07058 
v -40.7588 6.81153 8.07058 
v -40.7674 6.86444 8.07058 
v -40.7588 6.91736 8.07058 
v -40.7393 6.95726 8.07058 
v -40.7184 6.98277 8.07058 
v -40.7184 6.98277 8.07058 
v -40.6929 7.00367 8.07058 
v -40.653 7.02319 8.07058 
v -40.6 7.03178 8.07058 
v -40.5471 7.02319 8.07058 
v -40.5072 7.00367 8.07058 
v -40.4817 6.98277 8.07058 
v -40.7184 6.74612 8.07058 
v -40.7184 6.74612 3.86186 
v -40.6929 6.72521 8.07058 
v -40.6929 6.72521 3.86186 
v -40.653 6.70569 8.07058 
v -40.653 6.70569 3.86186 
v -40.6 6.69711 8.07058 
v -40.6 6.69711 3.86186 
v -40.5471 6.70569 8.07058 
v -40.5471 6.70569 3.86186 
v -40.5072 6.72521 8.07058 
v -40.5072 6.72521 3.86186 
v -40.4817 6.74612 8.07058 
v -40.4817 6.74612 3.86186 
v -40.7184 6.98277 8.07058 
v -40.7184 6.98277 3.86186 
v -40.7393 6.95726 8.07058 
v -40.7393 6.95726 3.86186 
v -40.7588 6.91736 8.07058 
v -40.7588 6.91736 3.86186 
v -40.7674 6.86444 8.07058 
v -40.7674 6.86444 3.86186 
v -40.7588 6.81153 8.07058 
v -40.7588 6.81153 3.86186 
v -40.7393 6.77162 8.07058 
v -40.7393 6.77162 3.86186 
v -40.7184 6.74612 8.07058 
v -40.7184 6.74612 3.86186 

vn 0 0 -1 
vn 0 0 -1 
vn 0 0 -1 
vn 0 0 -1 
vn 0 0 -1 
vn 0 0 -1 
vn 0 0 -1 
vn 0 0 -1 
vn 0 0 -1 
vn 0 0 -1 
vn 0 0 -1 
vn 0 0 -1 
vn 0 0 -1 
vn 0 0 -1 
vn 0 0 -1 
vn 0 0 -1 
vn 0 0 -1 
vn 0 0 -1 
vn 0 0 -1 
vn 0 0 -1 
vn 0 0 -1 
vn 0 0 -1 
vn 0 0 -1 
vn 0 0 -1 
vn 0 0 -1 
vn 0 0 -1 
vn 0 0 -1 
vn 0 0 -1 
vn 0 0 -1 
vn 0.708661 0.708661 0 
vn 0.708661 0.708661 0 
vn 0.551181 0.834646 0 
vn 0.551181 0.834646 0 
vn 0.314961 0.944882 0 
vn 0.314961 0.944882 0 
vn 0 1 0 
vn 0 1 0 
vn -0.314961 0.944882 0 
vn -0.314961 0.944882 0 
vn -0.551181 0.834646 0 
vn -0.551181 0.834646 0 
vn -0.708661 0.708661 0 
vn -0.708661 0.708661 0 
vn 0.708661 0.708661 0 
vn 0.708661 0.708661 0 
vn 0.834646 0.551181 0 
vn 0.834646 0.551181 0 
vn 0.944882 0.314961 0 
vn 0.944882 0.314961 0 
vn 1 0 0 
vn 1 0 0 
vn 0.944882 -0.314961 0 
vn 0.944882 -0.314961 0 
vn 0.834646 -0.551181 0 
vn 0.834646 -0.551181 0 
vn 0.708661 -0.708661 0 
vn 0.708661 -0.708661 0 
vn 0 0 1 
vn 0 0 1 
vn 0 0 1 
vn 0 0 1 
vn 0 0 1 
vn 0 0 1 
vn 0 0 1 
vn 0 0 1 
vn 0 0 1 
vn 0 0 1 
vn 0 0 1 
vn 0 0 1 
vn 0 0 1 
vn 0 0 1 
vn 0 0 1 
vn 0 0 1 
vn 0 0 1 
vn 0 0 1 
vn 0 0 1 
vn 0 0 1 
vn 0 0 1 
vn 0 0 1 
vn 0 0 1 
vn 0 0 1 
vn 0 0 1 
vn 0 0 1 
vn 0 0 1 
vn 0 0 1 
vn 0 0 1 
vn -0.708661 -0.708661 0 
vn -0.708661 -0.708661 0 
vn -0.551181 -0.834646 0 
vn -0.551181 -0.834646 0 
vn -0.314961 -0.944882 0 
vn -0.314961 -0.944882 0 
vn 0 -1 0 
vn 0 -1 0 
vn 0.314961 -0.944882 0 
vn 0.314961 -0.944882 0 
vn 0.551181 -0.834646 0 
vn 0.551181 -0.834646 0 
vn 0.708661 -0.708661 0 
vn 0.708661 -0.708661 0 
vn -0.708661 0.708661 0 
vn -0.708661 0.708661 0 
vn -0.834646 0.551181 0 
vn -0.834646 0.551181 0 
vn -0.944882 0.314961 0 
vn -0.944882 0.314961 0 
vn -1 0 0 
vn -1 0 0 
vn -0.944882 -0.314961 0 
vn -0.944882 -0.314961 0 
vn -0.834646 -0.551181 0 
vn -0.834646 -0.551181 0 
vn -0.708661 -0.708661 0 
vn -0.708661 -0.708661 0 

vt 3.89592 -4.64592 
vt 3.91071 -4.63113 
vt 3.91332 -4.63431 
vt 3.91576 -4.6393 
vt 3.91683 -4.64592 
vt 3.91576 -4.65253 
vt 3.91332 -4.65752 
vt 3.91071 -4.66071 
vt 3.91071 -4.66071 
vt 3.90752 -4.66332 
vt 3.90253 -4.66576 
vt 3.89592 -4.66683 
vt 3.8893 -4.66576 
vt 3.88431 -4.66332 
vt 3.88113 -4.66071 
vt 3.88113 -4.66071 
vt 3.87851 -4.65752 
vt 3.87607 -4.65253 
vt 3.875 -4.64592 
vt 3.87607 -4.6393 
vt 3.87851 -4.63431 
vt 3.88113 -4.63113 
vt 3.88113 -4.63113 
vt 3.88431 -4.62851 
vt 3.8893 -4.62607 
vt 3.89592 -4.625 
vt 3.90253 -4.62607 
vt 3.90752 -4.62851 
vt 3.91071 -4.63113 
vt 8.27609 -10.25 
vt 7.75 -10.25 
vt 8.27609 -10.257 
vt 7.75 -10.257 
vt 8.27609 -10.2639 
vt 7.75 -10.2639 
vt 8.27609 -10.2709 
vt 7.75 -10.2709 
vt 8.27609 -10.2779 
vt 7.75 -10.2779 
vt 8.27609 -10.2849 
vt 7.75 -10.2849 
vt 8.27609 -10.2918 
vt 7.75 -10.2918 
vt 8.27609 -10.25 
vt 7.75 -10.25 
vt 8.27609 -10.257 
vt 7.75 -10.257 
vt 8.27609 -10.2639 
vt 7.75 -10.2639 
vt 8.27609 -10.2709 
vt 7.75 -10.2709 
vt 8.27609 -10.2779 
vt 7.75 -10.2779 
vt 8.27609 -10.2849 
vt 7.75 -10.2849 
vt 8.27609 -10.2918 
vt 7.75 -10.2918 
vt 3.89592 -4.64592 
vt 3.91071 -4.63113 
vt 3.91332 -4.63431 
vt 3.91576 -4.6393 
vt 3.91683 -4.64592 
vt 3.91576 -4.65253 
vt 3.91332 -4.65752 
vt 3.91071 -4.66071 
vt 3.91071 -4.66071 
vt 3.90752 -4.66332 
vt 3.90253 -4.66576 
vt 3.89592 -4.66683 
vt 3.8893 -4.66576 
vt 3.88431 -4.66332 
vt 3.88113 -4.66071 
vt 3.88113 -4.66071 
vt 3.87851 -4.65752 
vt 3.87607 -4.65253 
vt 3.875 -4.64592 
vt 3.87607 -4.6393 
vt 3.87851 -4.63431 
vt 3.88113 -4.63113 
vt 3.88113 -4.63113 
vt 3.88431 -4.62851 
vt 3.8893 -4.62607 
vt 3.89592 -4.625 
vt 3.90253 -4.62607 
vt 3.90752 -4.62851 
vt 3.91071 -4.63113 
vt 8.27609 -10.25 
vt 7.75 -10.25 
vt 8.27609 -10.257 
vt 7.75 -10.257 
vt 8.27609 -10.2639 
vt 7.75 -10.2639 
vt 8.27609 -10.2709 
vt 7.75 -10.2709 
vt 8.27609 -10.2779 
vt 7.75 -10.2779 
vt 8.27609 -10.2849 
vt 7.75 -10.2849 
vt 8.27609 -10.2918 
vt 7.75 -10.2918 
vt 8.27609 -10.25 
vt 7.75 -10.25 
vt 8.27609 -10.257 
vt 7.75 -10.257 
vt 8.27609 -10.2639 
vt 7.75 -10.2639 
vt 8.27609 -10.2709 
vt 7.75 -10.2709 
vt 8.27609 -10.2779 
vt 7.75 -10.2779 
vt 8.27609 -10.2849 
vt 7.75 -10.2849 
vt 8.27609 -10.2918 
vt 7.75 -10.2918 

usemtl Part1Mtl

f 595/595/595 597/597/597 596/596/596 
f 595/595/595 598/598/598 597/597/597 
f 595/595/595 599/599/599 598/598/598 
f 595/595/595 600/600/600 599/599/599 
f 595/595/595 601/601/601 600/600/600 
f 595/595/595 602/602/602 601/601/601 
f 595/595/595 604/604/604 603/603/603 
f 595/595/595 605/605/605 604/604/604 
f 595/595/595 606/606/606 605/605/605 
f 595/595/595 607/607/607 606/606/606 
f 595/595/595 608/608/608 607/607/607 
f 595/595/595 609/609/609 608/608/608 
f 595/595/595 611/611/611 610/610/610 
f 595/595/595 612/612/612 611/611/611 
f 595/595/595 613/613/613 612/612/612 
f 595/595/595 614/614/614 613/613/613 
f 595/595/595 615/615/615 614/614/614 
f 595/595/595 616/616/616 615/615/615 
f 595/595/595 618/618/618 617/617/617 
f 595/595/595 619/619/619 618/618/618 
f 595/595/595 620/620/620 619/619/619 
f 595/595/595 621/621/621 620/620/620 
f 595/595/595 622/622/622 621/621/621 
f 595/595/595 623/623/623 622/622/622 
f 624/624/624 625/625/625 626/626/626 
f 626/626/626 625/625/625 627/627/627 
f 626/626/626 627/627/627 628/628/628 
f 628/628/628 627/627/627 629/629/629 
f 628/628/628 629/629/629 630/630/630 
f 630/630/630 629/629/629 631/631/631 
f 630/630/630 631/631/631 632/632/632 
f 632/632/632 631/631/631 633/633/633 
f 632/632/632 633/633/633 634/634/634 
f 634/634/634 633/633/633 635/635/635 
f 634/634/634 635/635/635 636/636/636 
f 636/636/636 635/635/635 637/637/637 
f 638/638/638 639/639/639 640/640/640 
f 640/640/640 639/639/639 641/641/641 
f 640/640/640 641/641/641 642/642/642 
f 642/642/642 641/641/641 643/643/643 
f 642/642/642 643/643/643 644/644/644 
f 644/644/644 643/643/643 645/645/645 
f 644/644/644 645/645/645 646/646/646 
f 646/646/646 645/645/645 647/647/647 
f 646/646/646 647/647/647 648/648/648 
f 648/648/648 647/647/647 649/649/649 
f 648/648/648 649/649/649 650/650/650 
f 650/650/650 649/649/649 651/651/651 
f 652/652/652 654/654/654 653/653/653 
f 652/652/652 655/655/655 654/654/654 
f 652/652/652 656/656/656 655/655/655 
f 652/652/652 657/657/657 656/656/656 
f 652/652/652 658/658/658 657/657/657 
f 652/652/652 659/659/659 658/658/658 
f 652/652/652 661/661/661 660/660/660 
f 652/652/652 662/662/662 661/661/661 
f 652/652/652 663/663/663 662/662/662 
f 652/652/652 664/664/664 663/663/663 
f 652/652/652 665/665/665 664/664/664 
f 652/652/652 666/666/666 665/665/665 
f 652/652/652 668/668/668 667/667/667 
f 652/652/652 669/669/669 668/668/668 
f 652/652/652 670/670/670 669/669/669 
f 652/652/652 671/671/671 670/670/670 
f 652/652/652 672/672/672 671/671/671 
f 652/652/652 673/673/673 672/672/672 
f 652/652/652 675/675/675 674/674/674 
f 652/652/652 676/676/676 675/675/675 
f 652/652/652 677/677/677 676/676/676 
f 652/652/652 678/678/678 677/677/677 
f 652/652/652 679/679/679 678/678/678 
f 652/652/652 680/680/680 679/679/679 
f 681/681/681 682/682/682 683/683/683 
f 683/683/683 682/682/682 684/684/684 
f 683/683/683 684/684/684 685/685/685 
f 685/685/685 684/684/684 686/686/686 
f 685/685/685 686/686/686 687/687/687 
f 687/687/687 686/686/686 688/688/688 
f 687/687/687 688/688/688 689/689/689 
f 689/689/689 688/688/688 690/690/690 
f 689/689/689 690/690/690 691/691/691 
f 691/691/691 690/690/690 692/692/692 
f 691/691/691 692/692/692 693/693/693 
f 693/693/693 692/692/692 694/694/694 
f 695/695/695 696/696/696 697/697/697 
f 697/697/697 696/696/696 698/698/698 
f 697/697/697 698/698/698 699/699/699 
f 699/699/699 698/698/698 700/700/700 
f 699/699/699 700/700/700 701/701/701 
f 701/701/701 700/700/700 702/702/702 
f 701/701/701 702/702/702 703/703/703 
f 703/703/703 702/702/702 704/704/704 
f 703/703/703 704/704/704 705/705/705 
f 705/705/705 704/704/704 706/706/706 
f 705/705/705 706/706/706 707/707/707 
f 707/707/707 706/706/706 708/708/708 

