{
  "accessors": [
    {
      "bufferView": 2,
      "componentType": 5126,
      "count": 7342,
      "max": [
        0.17275702953338623,
        0.4899294972419739,
        0.29642534255981445
      ],
      "min": [
        -0.17352305352687836,
        -4.9589783884584904e-05,
        -0.2965177595615387
      ],
      "type": "VEC3"
    },
    {
      "bufferView": 2,
      "byteOffset": 88104,
      "componentType": 5126,
      "count": 7342,
      "max": [
        0.9999104142189026,
        0.9994805455207825,
        0.9999833703041077
      ],
      "min": [
        -0.9998807907104492,
        -0.9999797940254211,
        -0.9998292922973633
      ],
      "type": "VEC3"
    },
    {
      "bufferView": 3,
      "componentType": 5126,
      "count": 7342,
      "max": [
        0.9996775388717651,
        0.9999601244926453,
        0.9999756217002869,
        1.0
      ],
      "min": [
        -0.9999988675117493,
        -0.9999532103538513,
        -0.9995498657226563,
        -1.0
      ],
      "type": "VEC4"
    },
    {
      "bufferView": 1,
      "componentType": 5126,
      "count": 7342,
      "max": [
        0.9969350695610046,
        0.9881731271743774
      ],
      "min": [
        0.0009746439754962921,
        0.000974658876657486
      ],
      "type": "VEC2"
    },
    {
      "bufferView": 1,
      "byteOffset": 58736,
      "componentType": 5126,
      "count": 7342,
      "max": [
        0.9969350695610046,
        0.9881731271743774
      ],
      "min": [
        0.0009746439754962921,
        0.000974658876657486
      ],
      "type": "VEC2"
    },
    {
      "bufferView": 0,
      "componentType": 5125,
      "count": 30801,
      "type": "SCALAR"
    }
  ],
  "asset": {
    "extras": {
      "author": "David Wigforss (https://sketchfab.com/dwigfor)",
      "license": "CC-BY-NC-4.0 (http://creativecommons.org/licenses/by-nc/4.0/)",
      "source": "https://sketchfab.com/3d-models/beagle-sitting-26a6f93cc72d4a0bbd61f51f2ace2aae",
      "title": "Beagle (Sitting)"
    },
    "generator": "Sketchfab-12.66.0",
    "version": "2.0"
  },
  "bufferViews": [
    {
      "buffer": 0,
      "byteLength": 123204,
      "name": "floatBufferViews",
      "target": 34963
    },
    {
      "buffer": 0,
      "byteLength": 117472,
      "byteOffset": 123204,
      "byteStride": 8,
      "name": "floatBufferViews",
      "target": 34962
    },
    {
      "buffer": 0,
      "byteLength": 176208,
      "byteOffset": 240676,
      "byteStride": 12,
      "name": "floatBufferViews",
      "target": 34962
    },
    {
      "buffer": 0,
      "byteLength": 117472,
      "byteOffset": 416884,
      "byteStride": 16,
      "name": "floatBufferViews",
      "target": 34962
    }
  ],
  "buffers": [
    {
      "byteLength": 534356,
      "uri": "scene.bin"
    }
  ],
  "images": [
    {
      "uri": "textures/MAT_Dog_Beagle_Sitting_baseColor.jpeg"
    },
    {
      "uri": "textures/MAT_Dog_Beagle_Sitting_normal.png"
    }
  ],
  "materials": [
    {
      "doubleSided": true,
      "name": "MAT_Dog_Beagle_Sitting",
      "normalTexture": {
        "index": 1
      },
      "pbrMetallicRoughness": {
        "baseColorTexture": {
          "index": 0
        },
        "metallicFactor": 0.0,
        "roughnessFactor": 0.9577051495
      }
    }
  ],
  "meshes": [
    {
      "name": "geo1_MAT_Dog_Beagle_Sitting_0",
      "primitives": [
        {
          "attributes": {
            "NORMAL": 1,
            "POSITION": 0,
            "TANGENT": 2,
            "TEXCOORD_0": 3,
            "TEXCOORD_1": 4
          },
          "indices": 5,
          "material": 0,
          "mode": 4
        }
      ]
    }
  ],
  "nodes": [
    {
      "children": [
        1
      ],
      "matrix": [
        1.0,
        0.0,
        0.0,
        0.0,
        0.0,
        2.220446049250313e-16,
        -1.0,
        0.0,
        0.0,
        1.0,
        2.220446049250313e-16,
        0.0,
        0.0,
        0.0,
        0.0,
        1.0
      ],
      "name": "Sketchfab_model"
    },
    {
      "children": [
        2
      ],
      "matrix": [
        1.0,
        0.0,
        0.0,
        0.0,
        0.0,
        0.0,
        1.0,
        0.0,
        0.0,
        -1.0,
        0.0,
        0.0,
        0.0,
        0.0,
        0.0,
        1.0
      ],
      "name": "mesh.fbx"
    },
    {
      "children": [
        3
      ],
      "name": "RootNode"
    },
    {
      "children": [
        4
      ],
      "name": "geo1"
    },
    {
      "mesh": 0,
      "name": "geo1_MAT_Dog_Beagle_Sitting_0"
    }
  ],
  "samplers": [
    {
      "magFilter": 9729,
      "minFilter": 9987,
      "wrapS": 10497,
      "wrapT": 10497
    }
  ],
  "scene": 0,
  "scenes": [
    {
      "name": "Sketchfab_Scene",
      "nodes": [
        0
      ]
    }
  ],
  "textures": [
    {
      "sampler": 0,
      "source": 0
    },
    {
      "sampler": 0,
      "source": 1
    }
  ]
}
